<svg xmlns="http://www.w3.org/2000/svg" width="960" height="600" viewBox="0 0 960 600">
  <defs>
    <linearGradient id="bg84" x1="0%" y1="0%" x2="100%" y2="100%">
      <stop offset="0%" stop-color="#0F172A" />
      <stop offset="100%" stop-color="#1D4ED8" />
    </linearGradient>
    <filter id="shadow84" x="-20%" y="-20%" width="140%" height="140%">
      <feDropShadow dx="0" dy="2" stdDeviation="1.8" flood-color="rgba(0,0,0,0.36)" />
    </filter>
  </defs>

  <rect width="960" height="600" fill="url(#bg84)" />
  <rect x="24" y="24" width="912" height="552" rx="20" fill="rgba(255,255,255,0.045)" stroke="rgba(255,255,255,0.22)" />
  <g filter="url(#shadow84)">
    <g transform="translate(134.01 401.41) rotate(-6.66)"><circle cx="0" cy="0" r="19.65" fill="#A78BFA" stroke="rgba(255,255,255,0.55)" stroke-width="1.4" /></g>
    <g transform="translate(359.84 137.86) rotate(19.21)"><polygon points="-15.95,-5.74 2.55,-5.74 2.55,-12.12 17.54,0.00 2.55,12.12 2.55,5.74 -15.95,5.74" fill="#F87171" stroke="rgba(255,255,255,0.55)" stroke-width="1.2" /></g>
    <g transform="translate(280.58 62.26) rotate(24.79)"><path d="M 0 15.21 C -19.92 1.81, -21.73 -12.67, -8.69 -2.90 C -0.72 -15.21, 0.72 -15.21, 8.69 -2.90 C 21.73 -12.67, 19.92 1.81, 0 15.21 Z" fill="#60A5FA" stroke="rgba(255,255,255,0.55)" stroke-width="1.2" /></g>
    <g transform="translate(282.87 457.45) rotate(20.40)"><circle cx="0" cy="0" r="18.92" fill="#4ADE80" stroke="rgba(255,255,255,0.55)" stroke-width="1.4" /></g>
    <g transform="translate(44.60 333.97) rotate(-8.16)"><polygon points="0,-14.09 14.09,0 0,14.09 -14.09,0" fill="#60A5FA" stroke="rgba(255,255,255,0.55)" stroke-width="1.4" /></g>
    <g transform="translate(592.74 393.59) rotate(-8.85)"><circle cx="0" cy="0" r="16.48" fill="#FB7185" stroke="rgba(255,255,255,0.55)" stroke-width="1.4" /></g>
    <g transform="translate(834.58 327.68) rotate(12.61)"><rect x="-16.45" y="-16.45" width="32.90" height="32.90" rx="3.58" fill="#A78BFA" stroke="rgba(255,255,255,0.55)" stroke-width="1.4" /></g>
    <g transform="translate(521.56 70.58) rotate(-25.67)"><polygon points="-16.08,-5.79 2.57,-5.79 2.57,-12.22 17.69,0.00 2.57,12.22 2.57,5.79 -16.08,5.79" fill="#F87171" stroke="rgba(255,255,255,0.55)" stroke-width="1.2" /></g>
    <g transform="translate(448.37 463.82) rotate(-11.59)"><circle cx="0" cy="0" r="15.34" fill="#60A5FA" stroke="rgba(255,255,255,0.55)" stroke-width="1.4" /></g>
    <g transform="translate(908.96 337.04) rotate(12.02)"><polygon points="0,-17.05 17.05,0 0,17.05 -17.05,0" fill="#4ADE80" stroke="rgba(255,255,255,0.55)" stroke-width="1.4" /></g>
    <g transform="translate(915.50 135.78) rotate(13.58)"><polygon points="0,-18.16 18.16,0 0,18.16 -18.16,0" fill="#C084FC" stroke="rgba(255,255,255,0.55)" stroke-width="1.4" /></g>
    <g transform="translate(45.49 64.73) rotate(-11.63)"><path d="M 0 17.21 C -22.54 2.05, -24.59 -14.34, -9.83 -3.28 C -0.82 -17.21, 0.82 -17.21, 9.83 -3.28 C 24.59 -14.34, 22.54 2.05, 0 17.21 Z" fill="#34D399" stroke="rgba(255,255,255,0.55)" stroke-width="1.2" /></g>
    <g transform="translate(124.23 128.13) rotate(1.07)"><circle cx="0" cy="0" r="14.38" fill="#FBBF24" stroke="rgba(255,255,255,0.55)" stroke-width="1.4" /><circle cx="-5.18" cy="-3.45" r="2.30" fill="#1F2937" /><circle cx="5.18" cy="-3.45" r="2.30" fill="#1F2937" /><path d="M -10.93 4.03 Q 0 9.78 10.93 4.03" fill="none" stroke="#1F2937" stroke-width="2.2" stroke-linecap="round" /></g>
    <g transform="translate(748.58 143.61) rotate(0.95)"><polygon points="0,-16.75 16.75,0 0,16.75 -16.75,0" fill="#4ADE80" stroke="rgba(255,255,255,0.55)" stroke-width="1.4" /></g>
    <g transform="translate(435.85 533.78) rotate(2.64)"><polygon points="0,-16.80 16.80,0 0,16.80 -16.80,0" fill="#F97316" stroke="rgba(255,255,255,0.55)" stroke-width="1.4" /></g>
    <g transform="translate(201.40 65.89) rotate(0.22)"><path d="M 0 13.66 C -17.89 1.63, -19.52 -11.38, -7.81 -2.60 C -0.65 -13.66, 0.65 -13.66, 7.81 -2.60 C 19.52 -11.38, 17.89 1.63, 0 13.66 Z" fill="#F97316" stroke="rgba(255,255,255,0.55)" stroke-width="1.2" /></g>
    <g transform="translate(203.37 527.10) rotate(-2.04)"><polygon points="-16.00,-5.76 2.56,-5.76 2.56,-12.16 17.60,0.00 2.56,12.16 2.56,5.76 -16.00,5.76" fill="#4ADE80" stroke="rgba(255,255,255,0.55)" stroke-width="1.2" /></g>
    <g transform="translate(46.76 530.63) rotate(15.70)"><rect x="-15.82" y="-15.82" width="31.65" height="31.65" rx="3.44" fill="#FB7185" stroke="rgba(255,255,255,0.55)" stroke-width="1.4" /></g>
    <g transform="translate(825.41 468.24) rotate(-24.39)"><polygon points="0.00,-21.41 5.49,-7.56 20.36,-6.61 8.88,2.89 12.58,17.32 0.00,9.34 -12.58,17.32 -8.88,2.89 -20.36,-6.61 -5.49,-7.56" fill="#C084FC" stroke="rgba(255,255,255,0.55)" stroke-width="1.4" /></g>
  </g>
</svg>
