<svg xmlns="http://www.w3.org/2000/svg" width="960" height="600" viewBox="0 0 960 600">
  <defs>
    <linearGradient id="bg136" x1="0%" y1="0%" x2="100%" y2="100%">
      <stop offset="0%" stop-color="#0F172A" />
      <stop offset="100%" stop-color="#1D4ED8" />
    </linearGradient>
    <filter id="shadow136" x="-20%" y="-20%" width="140%" height="140%">
      <feDropShadow dx="0" dy="2" stdDeviation="1.8" flood-color="rgba(0,0,0,0.36)" />
    </filter>
  </defs>

  <rect width="960" height="600" fill="url(#bg136)" />
  <rect x="24" y="24" width="912" height="552" rx="20" fill="rgba(255,255,255,0.045)" stroke="rgba(255,255,255,0.22)" />
  <g filter="url(#shadow136)">
    <g transform="translate(123.60 193.97) rotate(-4.18)"><circle cx="0" cy="0" r="15.08" fill="#22D3EE" stroke="rgba(255,255,255,0.55)" stroke-width="1.4" /><circle cx="-5.43" cy="-3.62" r="2.41" fill="#1F2937" /><circle cx="5.43" cy="-3.62" r="2.41" fill="#1F2937" /><path d="M -11.46 4.22 Q 0 10.26 11.46 4.22" fill="none" stroke="#1F2937" stroke-width="2.2" stroke-linecap="round" /></g>
    <g transform="translate(672.84 262.86) rotate(-3.74)"><circle cx="0" cy="0" r="16.88" fill="#22D3EE" /><circle cx="6.75" cy="-0.68" r="14.18" fill="#0B1A34" /></g>
    <g transform="translate(292.23 128.70) rotate(6.44)"><circle cx="0" cy="0" r="20.21" fill="#4ADE80" stroke="rgba(255,255,255,0.55)" stroke-width="1.4" /><circle cx="-7.28" cy="-4.85" r="3.23" fill="#1F2937" /><circle cx="7.28" cy="-4.85" r="3.23" fill="#1F2937" /><path d="M -15.36 5.66 Q 0 13.74 15.36 5.66" fill="none" stroke="#1F2937" stroke-width="2.2" stroke-linecap="round" /></g>
    <g transform="translate(594.66 332.69) rotate(3.54)"><circle cx="0" cy="0" r="20.34" fill="#22D3EE" stroke="rgba(255,255,255,0.55)" stroke-width="1.4" /><circle cx="-7.32" cy="-4.88" r="3.25" fill="#1F2937" /><circle cx="7.32" cy="-4.88" r="3.25" fill="#1F2937" /><path d="M -15.46 5.70 Q 0 13.83 15.46 5.70" fill="none" stroke="#1F2937" stroke-width="2.2" stroke-linecap="round" /></g>
    <g transform="translate(214.59 267.02) rotate(-5.93)"><circle cx="0" cy="0" r="14.80" fill="#60A5FA" stroke="rgba(255,255,255,0.55)" stroke-width="1.4" /><circle cx="-5.33" cy="-3.55" r="2.37" fill="#1F2937" /><circle cx="5.33" cy="-3.55" r="2.37" fill="#1F2937" /><path d="M -11.25 4.14 Q 0 10.06 11.25 4.14" fill="none" stroke="#1F2937" stroke-width="2.2" stroke-linecap="round" /></g>
    <g transform="translate(278.77 468.36) rotate(7.42)"><polygon points="0.00,-17.86 4.58,-6.30 16.98,-5.52 7.41,2.41 10.49,14.45 0.00,7.79 -10.49,14.45 -7.41,2.41 -16.98,-5.52 -4.58,-6.30" fill="#60A5FA" stroke="rgba(255,255,255,0.55)" stroke-width="1.4" /></g>
    <g transform="translate(437.26 528.39) rotate(-25.68)"><polygon points="0.00,-21.66 5.55,-7.65 20.60,-6.69 8.99,2.92 12.73,17.52 0.00,9.45 -12.73,17.52 -8.99,2.92 -20.60,-6.69 -5.55,-7.65" fill="#A78BFA" stroke="rgba(255,255,255,0.55)" stroke-width="1.4" /></g>
    <g transform="translate(753.75 396.91) rotate(-25.15)"><polygon points="0,-19.91 19.91,0 0,19.91 -19.91,0" fill="#F97316" stroke="rgba(255,255,255,0.55)" stroke-width="1.4" /></g>
    <g transform="translate(287.89 339.65) rotate(8.39)"><path d="M 0 17.31 C -22.67 2.06, -24.73 -14.43, -9.89 -3.30 C -0.82 -17.31, 0.82 -17.31, 9.89 -3.30 C 24.73 -14.43, 22.67 2.06, 0 17.31 Z" fill="#FBBF24" stroke="rgba(255,255,255,0.55)" stroke-width="1.2" /></g>
    <g transform="translate(439.22 399.30) rotate(-0.38)"><circle cx="0" cy="0" r="18.72" fill="#34D399" /><circle cx="7.49" cy="-0.75" r="15.72" fill="#0B1A34" /></g>
    <g transform="translate(279.72 394.79) rotate(-11.68)"><polygon points="0,-17.48 17.48,0 0,17.48 -17.48,0" fill="#F87171" stroke="rgba(255,255,255,0.55)" stroke-width="1.4" /></g>
    <g transform="translate(439.60 273.98) rotate(21.10)"><polygon points="0.00,-21.94 5.63,-7.75 20.87,-6.78 9.11,2.96 12.90,17.75 0.00,9.57 -12.90,17.75 -9.11,2.96 -20.87,-6.78 -5.63,-7.75" fill="#C084FC" stroke="rgba(255,255,255,0.55)" stroke-width="1.4" /></g>
    <g transform="translate(136.71 395.46) rotate(-3.19)"><circle cx="0" cy="0" r="18.93" fill="#22D3EE" stroke="rgba(255,255,255,0.55)" stroke-width="1.4" /><circle cx="-6.82" cy="-4.54" r="3.03" fill="#1F2937" /><circle cx="6.82" cy="-4.54" r="3.03" fill="#1F2937" /><path d="M -14.39 5.30 Q 0 12.87 14.39 5.30" fill="none" stroke="#1F2937" stroke-width="2.2" stroke-linecap="round" /></g>
    <g transform="translate(439.45 458.26) rotate(-6.01)"><circle cx="0" cy="0" r="17.44" fill="#F97316" stroke="rgba(255,255,255,0.55)" stroke-width="1.4" /><circle cx="-6.28" cy="-4.19" r="2.79" fill="#1F2937" /><circle cx="6.28" cy="-4.19" r="2.79" fill="#1F2937" /><path d="M -13.26 4.88 Q 0 11.86 13.26 4.88" fill="none" stroke="#1F2937" stroke-width="2.2" stroke-linecap="round" /></g>
    <g transform="translate(125.61 522.19) rotate(-7.28)"><polygon points="0,-18.11 18.11,0 0,18.11 -18.11,0" fill="#FBBF24" stroke="rgba(255,255,255,0.55)" stroke-width="1.4" /></g>
    <g transform="translate(359.14 193.82) rotate(3.20)"><circle cx="0" cy="0" r="16.21" fill="#4ADE80" stroke="rgba(255,255,255,0.55)" stroke-width="1.4" /><circle cx="-5.84" cy="-3.89" r="2.59" fill="#1F2937" /><circle cx="5.84" cy="-3.89" r="2.59" fill="#1F2937" /><path d="M -12.32 4.54 Q 0 11.02 12.32 4.54" fill="none" stroke="#1F2937" stroke-width="2.2" stroke-linecap="round" /></g>
    <g transform="translate(362.86 403.91) rotate(1.17)"><circle cx="0" cy="0" r="19.97" fill="#C084FC" /><circle cx="7.99" cy="-0.80" r="16.77" fill="#0B1A34" /></g>
    <g transform="translate(290.08 525.33) rotate(4.37)"><circle cx="0" cy="0" r="16.52" fill="#F87171" stroke="rgba(255,255,255,0.55)" stroke-width="1.4" /><circle cx="-5.95" cy="-3.96" r="2.64" fill="#1F2937" /><circle cx="5.95" cy="-3.96" r="2.64" fill="#1F2937" /><path d="M -12.55 4.62 Q 0 11.23 12.55 4.62" fill="none" stroke="#1F2937" stroke-width="2.2" stroke-linecap="round" /></g>
    <g transform="translate(669.37 526.28) rotate(-6.29)"><polygon points="0,-15.53 15.53,0 0,15.53 -15.53,0" fill="#4ADE80" stroke="rgba(255,255,255,0.55)" stroke-width="1.4" /></g>
    <g transform="translate(523.00 396.53) rotate(-2.64)"><circle cx="0" cy="0" r="16.97" fill="#FB7185" stroke="rgba(255,255,255,0.55)" stroke-width="1.4" /><circle cx="-6.11" cy="-4.07" r="2.71" fill="#1F2937" /><circle cx="6.11" cy="-4.07" r="2.71" fill="#1F2937" /><path d="M -12.89 4.75 Q 0 11.54 12.89 4.75" fill="none" stroke="#1F2937" stroke-width="2.2" stroke-linecap="round" /></g>
    <g transform="translate(667.16 72.93) rotate(-12.40)"><polygon points="0.00,-21.49 5.51,-7.59 20.44,-6.64 8.92,2.90 12.63,17.39 0.00,9.38 -12.63,17.39 -8.92,2.90 -20.44,-6.64 -5.51,-7.59" fill="#FB7185" stroke="rgba(255,255,255,0.55)" stroke-width="1.4" /></g>
    <g transform="translate(361.75 138.57) rotate(4.16)"><path d="M 0 14.71 C -19.26 1.75, -21.01 -12.26, -8.40 -2.80 C -0.70 -14.71, 0.70 -14.71, 8.40 -2.80 C 21.01 -12.26, 19.26 1.75, 0 14.71 Z" fill="#34D399" stroke="rgba(255,255,255,0.55)" stroke-width="1.2" /></g>
    <g transform="translate(745.21 524.04) rotate(3.49)"><circle cx="0" cy="0" r="19.90" fill="#A78BFA" /><circle cx="7.96" cy="-0.80" r="16.71" fill="#0B1A34" /></g>
    <g transform="translate(208.07 338.62) rotate(4.45)"><circle cx="0" cy="0" r="19.75" fill="#34D399" stroke="rgba(255,255,255,0.55)" stroke-width="1.4" /><circle cx="-7.11" cy="-4.74" r="3.16" fill="#1F2937" /><circle cx="7.11" cy="-4.74" r="3.16" fill="#1F2937" /><path d="M -15.01 5.53 Q 0 13.43 15.01 5.53" fill="none" stroke="#1F2937" stroke-width="2.2" stroke-linecap="round" /></g>
    <g transform="translate(748.55 77.07) rotate(-17.17)"><path d="M 0 16.09 C -21.08 1.92, -22.99 -13.41, -9.20 -3.07 C -0.77 -16.09, 0.77 -16.09, 9.20 -3.07 C 22.99 -13.41, 21.08 1.92, 0 16.09 Z" fill="#A78BFA" stroke="rgba(255,255,255,0.55)" stroke-width="1.2" /></g>
    <g transform="translate(47.40 536.23) rotate(-16.21)"><polygon points="0,-20.11 20.11,0 0,20.11 -20.11,0" fill="#4ADE80" stroke="rgba(255,255,255,0.55)" stroke-width="1.4" /></g>
    <g transform="translate(436.60 201.72) rotate(-5.43)"><circle cx="0" cy="0" r="19.41" fill="#34D399" stroke="rgba(255,255,255,0.55)" stroke-width="1.4" /><circle cx="-6.99" cy="-4.66" r="3.11" fill="#1F2937" /><circle cx="6.99" cy="-4.66" r="3.11" fill="#1F2937" /><path d="M -14.75 5.43 Q 0 13.20 14.75 5.43" fill="none" stroke="#1F2937" stroke-width="2.2" stroke-linecap="round" /></g>
    <g transform="translate(832.94 209.34) rotate(-8.34)"><polygon points="0,-19.16 19.16,0 0,19.16 -19.16,0" fill="#C084FC" stroke="rgba(255,255,255,0.55)" stroke-width="1.4" /></g>
    <g transform="translate(915.50 209.42) rotate(9.08)"><polygon points="0.00,-21.92 5.62,-7.74 20.85,-6.77 9.10,2.96 12.88,17.73 0.00,9.56 -12.88,17.73 -9.10,2.96 -20.85,-6.77 -5.62,-7.74" fill="#FBBF24" stroke="rgba(255,255,255,0.55)" stroke-width="1.4" /></g>
  </g>
</svg>
