<svg xmlns="http://www.w3.org/2000/svg" width="960" height="600" viewBox="0 0 960 600">
  <defs>
    <linearGradient id="bg172" x1="0%" y1="0%" x2="100%" y2="100%">
      <stop offset="0%" stop-color="#0F172A" />
      <stop offset="100%" stop-color="#1D4ED8" />
    </linearGradient>
    <filter id="shadow172" x="-20%" y="-20%" width="140%" height="140%">
      <feDropShadow dx="0" dy="2" stdDeviation="1.8" flood-color="rgba(0,0,0,0.36)" />
    </filter>
  </defs>

  <rect width="960" height="600" fill="url(#bg172)" />
  <rect x="24" y="24" width="912" height="552" rx="20" fill="rgba(255,255,255,0.045)" stroke="rgba(255,255,255,0.22)" />
  <g filter="url(#shadow172)">
    <g transform="translate(903.19 393.93) rotate(11.96)"><polygon points="0.00,-17.51 4.49,-6.18 16.66,-5.41 7.27,2.36 10.29,14.17 0.00,7.64 -10.29,14.17 -7.27,2.36 -16.66,-5.41 -4.49,-6.18" fill="#F87171" stroke="rgba(255,255,255,0.55)" stroke-width="1.4" /></g>
    <g transform="translate(599.37 275.04) rotate(-16.99)"><polygon points="-15.10,-5.44 2.42,-5.44 2.42,-11.47 16.61,0.00 2.42,11.47 2.42,5.44 -15.10,5.44" fill="#A78BFA" stroke="rgba(255,255,255,0.55)" stroke-width="1.2" /></g>
    <g transform="translate(681.61 207.50) rotate(-11.43)"><polygon points="-18.21,-6.56 2.91,-6.56 2.91,-13.84 20.04,0.00 2.91,13.84 2.91,6.56 -18.21,6.56" fill="#34D399" stroke="rgba(255,255,255,0.55)" stroke-width="1.2" /></g>
    <g transform="translate(914.69 77.50) rotate(6.74)"><circle cx="0" cy="0" r="17.35" fill="#60A5FA" /><circle cx="6.94" cy="-0.69" r="14.57" fill="#0B1A34" /></g>
    <g transform="translate(127.33 268.19) rotate(-22.05)"><polygon points="0.00,-17.59 4.51,-6.21 16.73,-5.44 7.30,2.37 10.34,14.23 0.00,7.68 -10.34,14.23 -7.30,2.37 -16.73,-5.44 -4.51,-6.21" fill="#60A5FA" stroke="rgba(255,255,255,0.55)" stroke-width="1.4" /></g>
    <g transform="translate(290.70 393.28) rotate(6.36)"><polygon points="-18.49,-6.66 2.96,-6.66 2.96,-14.05 20.34,0.00 2.96,14.05 2.96,6.66 -18.49,6.66" fill="#FBBF24" stroke="rgba(255,255,255,0.55)" stroke-width="1.2" /></g>
    <g transform="translate(200.42 71.21) rotate(-7.22)"><circle cx="0" cy="0" r="17.13" fill="#C084FC" stroke="rgba(255,255,255,0.55)" stroke-width="1.4" /><circle cx="-6.17" cy="-4.11" r="2.74" fill="#1F2937" /><circle cx="6.17" cy="-4.11" r="2.74" fill="#1F2937" /><path d="M -13.02 4.80 Q 0 11.65 13.02 4.80" fill="none" stroke="#1F2937" stroke-width="2.2" stroke-linecap="round" /></g>
    <g transform="translate(122.47 199.53) rotate(4.53)"><rect x="-17.46" y="-17.46" width="34.93" height="34.93" rx="3.80" fill="#60A5FA" stroke="rgba(255,255,255,0.55)" stroke-width="1.4" /></g>
    <g transform="translate(214.52 400.36) rotate(0.61)"><circle cx="0" cy="0" r="17.73" fill="#F97316" stroke="rgba(255,255,255,0.55)" stroke-width="1.4" /><circle cx="-6.38" cy="-4.26" r="2.84" fill="#1F2937" /><circle cx="6.38" cy="-4.26" r="2.84" fill="#1F2937" /><path d="M -13.48 4.97 Q 0 12.06 13.48 4.97" fill="none" stroke="#1F2937" stroke-width="2.2" stroke-linecap="round" /></g>
    <g transform="translate(205.75 268.27) rotate(-14.83)"><polygon points="0,-16.71 14.98,11.52 -14.98,11.52" fill="#C084FC" stroke="rgba(255,255,255,0.55)" stroke-width="1.4" /></g>
    <g transform="translate(824.04 74.84) rotate(8.62)"><polygon points="-20.21,-7.28 3.23,-7.28 3.23,-15.36 22.23,0.00 3.23,15.36 3.23,7.28 -20.21,7.28" fill="#4ADE80" stroke="rgba(255,255,255,0.55)" stroke-width="1.2" /></g>
    <g transform="translate(208.75 471.31) rotate(-4.78)"><polygon points="0.00,-21.61 5.54,-7.63 20.55,-6.68 8.97,2.91 12.70,17.48 0.00,9.43 -12.70,17.48 -8.97,2.91 -20.55,-6.68 -5.54,-7.63" fill="#A78BFA" stroke="rgba(255,255,255,0.55)" stroke-width="1.4" /></g>
    <g transform="translate(133.05 77.57) rotate(5.60)"><path d="M 0 15.55 C -20.36 1.85, -22.22 -12.96, -8.89 -2.96 C -0.74 -15.55, 0.74 -15.55, 8.89 -2.96 C 22.22 -12.96, 20.36 1.85, 0 15.55 Z" fill="#C084FC" stroke="rgba(255,255,255,0.55)" stroke-width="1.2" /></g>
    <g transform="translate(594.31 463.96) rotate(3.75)"><circle cx="0" cy="0" r="20.23" fill="#F87171" stroke="rgba(255,255,255,0.55)" stroke-width="1.4" /><circle cx="-7.28" cy="-4.86" r="3.24" fill="#1F2937" /><circle cx="7.28" cy="-4.86" r="3.24" fill="#1F2937" /><path d="M -15.38 5.66 Q 0 13.76 15.38 5.66" fill="none" stroke="#1F2937" stroke-width="2.2" stroke-linecap="round" /></g>
    <g transform="translate(57.74 406.25) rotate(-17.90)"><path d="M 0 16.46 C -21.56 1.96, -23.52 -13.72, -9.41 -3.14 C -0.78 -16.46, 0.78 -16.46, 9.41 -3.14 C 23.52 -13.72, 21.56 1.96, 0 16.46 Z" fill="#4ADE80" stroke="rgba(255,255,255,0.55)" stroke-width="1.2" /></g>
    <g transform="translate(526.12 460.38) rotate(20.19)"><polygon points="0,-19.52 17.50,13.46 -17.50,13.46" fill="#F97316" stroke="rgba(255,255,255,0.55)" stroke-width="1.4" /></g>
    <g transform="translate(360.45 337.18) rotate(-18.62)"><polygon points="0.00,-19.93 5.11,-7.04 18.95,-6.16 8.27,2.69 11.71,16.12 0.00,8.70 -11.71,16.12 -8.27,2.69 -18.95,-6.16 -5.11,-7.04" fill="#FBBF24" stroke="rgba(255,255,255,0.55)" stroke-width="1.4" /></g>
    <g transform="translate(524.81 265.87) rotate(26.78)"><polygon points="0,-22.82 20.46,15.74 -20.46,15.74" fill="#4ADE80" stroke="rgba(255,255,255,0.55)" stroke-width="1.4" /></g>
    <g transform="translate(206.53 526.59) rotate(25.60)"><polygon points="0,-16.89 15.14,11.65 -15.14,11.65" fill="#F97316" stroke="rgba(255,255,255,0.55)" stroke-width="1.4" /></g>
    <g transform="translate(289.79 209.41) rotate(-6.63)"><rect x="-15.11" y="-15.11" width="30.21" height="30.21" rx="3.28" fill="#4ADE80" stroke="rgba(255,255,255,0.55)" stroke-width="1.4" /></g>
    <g transform="translate(45.38 458.42) rotate(-19.98)"><polygon points="0.00,-16.88 4.33,-5.96 16.06,-5.22 7.01,2.28 9.92,13.66 0.00,7.37 -9.92,13.66 -7.01,2.28 -16.06,-5.22 -4.33,-5.96" fill="#22D3EE" stroke="rgba(255,255,255,0.55)" stroke-width="1.4" /></g>
    <g transform="translate(679.19 402.04) rotate(-17.50)"><path d="M 0 13.95 C -18.27 1.66, -19.93 -11.63, -7.97 -2.66 C -0.66 -13.95, 0.66 -13.95, 7.97 -2.66 C 19.93 -11.63, 18.27 1.66, 0 13.95 Z" fill="#FBBF24" stroke="rgba(255,255,255,0.55)" stroke-width="1.2" /></g>
  </g>
</svg>
