<svg xmlns="http://www.w3.org/2000/svg" width="960" height="600" viewBox="0 0 960 600">
  <defs>
    <linearGradient id="bg195" x1="0%" y1="0%" x2="100%" y2="100%">
      <stop offset="0%" stop-color="#0F172A" />
      <stop offset="100%" stop-color="#1D4ED8" />
    </linearGradient>
    <filter id="shadow195" x="-20%" y="-20%" width="140%" height="140%">
      <feDropShadow dx="0" dy="2" stdDeviation="1.8" flood-color="rgba(0,0,0,0.36)" />
    </filter>
  </defs>

  <rect width="960" height="600" fill="url(#bg195)" />
  <rect x="24" y="24" width="912" height="552" rx="20" fill="rgba(255,255,255,0.045)" stroke="rgba(255,255,255,0.22)" />
  <g filter="url(#shadow195)">
    <g transform="translate(199.76 395.06) rotate(6.12)"><polygon points="0.00,-20.82 5.34,-7.35 19.80,-6.43 8.64,2.81 12.24,16.84 0.00,9.08 -12.24,16.84 -8.64,2.81 -19.80,-6.43 -5.34,-7.35" fill="#FB7185" stroke="rgba(255,255,255,0.55)" stroke-width="1.4" /></g>
    <g transform="translate(907.74 395.30) rotate(-13.91)"><polygon points="0.00,-21.56 5.53,-7.61 20.51,-6.66 8.95,2.91 12.67,17.45 0.00,9.41 -12.67,17.45 -8.95,2.91 -20.51,-6.66 -5.53,-7.61" fill="#C084FC" stroke="rgba(255,255,255,0.55)" stroke-width="1.4" /></g>
    <g transform="translate(757.11 340.64) rotate(-5.98)"><path d="M 0 14.24 C -18.65 1.70, -20.35 -11.87, -8.14 -2.71 C -0.68 -14.24, 0.68 -14.24, 8.14 -2.71 C 20.35 -11.87, 18.65 1.70, 0 14.24 Z" fill="#C084FC" stroke="rgba(255,255,255,0.55)" stroke-width="1.2" /></g>
    <g transform="translate(915.41 266.45) rotate(3.02)"><circle cx="0" cy="0" r="18.52" fill="#FBBF24" /><circle cx="7.41" cy="-0.74" r="15.56" fill="#0B1A34" /></g>
    <g transform="translate(122.29 402.59) rotate(0.95)"><path d="M 0 12.72 C -16.66 1.51, -18.17 -10.60, -7.27 -2.42 C -0.61 -12.72, 0.61 -12.72, 7.27 -2.42 C 18.17 -10.60, 16.66 1.51, 0 12.72 Z" fill="#C084FC" stroke="rgba(255,255,255,0.55)" stroke-width="1.2" /></g>
    <g transform="translate(525.48 208.24) rotate(-7.75)"><circle cx="0" cy="0" r="16.19" fill="#C084FC" /><circle cx="6.47" cy="-0.65" r="13.60" fill="#0B1A34" /></g>
    <g transform="translate(836.35 403.22) rotate(-25.76)"><polygon points="-20.02,-7.21 3.20,-7.21 3.20,-15.21 22.02,0.00 3.20,15.21 3.20,7.21 -20.02,7.21" fill="#34D399" stroke="rgba(255,255,255,0.55)" stroke-width="1.2" /></g>
    <g transform="translate(440.82 338.00) rotate(0.15)"><circle cx="0" cy="0" r="19.25" fill="#F87171" stroke="rgba(255,255,255,0.55)" stroke-width="1.4" /><circle cx="-6.93" cy="-4.62" r="3.08" fill="#1F2937" /><circle cx="6.93" cy="-4.62" r="3.08" fill="#1F2937" /><path d="M -14.63 5.39 Q 0 13.09 14.63 5.39" fill="none" stroke="#1F2937" stroke-width="2.2" stroke-linecap="round" /></g>
    <g transform="translate(53.06 135.49) rotate(7.10)"><polygon points="-15.61,-5.62 2.50,-5.62 2.50,-11.87 17.18,0.00 2.50,11.87 2.50,5.62 -15.61,5.62" fill="#F87171" stroke="rgba(255,255,255,0.55)" stroke-width="1.2" /></g>
    <g transform="translate(135.72 133.53) rotate(20.86)"><path d="M 0 16.85 C -22.07 2.01, -24.07 -14.04, -9.63 -3.21 C -0.80 -16.85, 0.80 -16.85, 9.63 -3.21 C 24.07 -14.04, 22.07 2.01, 0 16.85 Z" fill="#4ADE80" stroke="rgba(255,255,255,0.55)" stroke-width="1.2" /></g>
    <g transform="translate(603.70 194.50) rotate(10.27)"><polygon points="-14.22,-5.12 2.27,-5.12 2.27,-10.80 15.64,0.00 2.27,10.80 2.27,5.12 -14.22,5.12" fill="#A78BFA" stroke="rgba(255,255,255,0.55)" stroke-width="1.2" /></g>
    <g transform="translate(48.14 75.12) rotate(-3.36)"><polygon points="0.00,-23.04 5.91,-8.13 21.91,-7.12 9.56,3.11 13.54,18.64 0.00,10.05 -13.54,18.64 -9.56,3.11 -21.91,-7.12 -5.91,-8.13" fill="#22D3EE" stroke="rgba(255,255,255,0.55)" stroke-width="1.4" /></g>
    <g transform="translate(668.88 272.13) rotate(2.99)"><circle cx="0" cy="0" r="16.05" fill="#4ADE80" /><circle cx="6.42" cy="-0.64" r="13.48" fill="#0B1A34" /></g>
    <g transform="translate(445.37 134.16) rotate(6.86)"><circle cx="0" cy="0" r="20.02" fill="#34D399" /><circle cx="8.01" cy="-0.80" r="16.82" fill="#0B1A34" /></g>
    <g transform="translate(900.40 205.92) rotate(-20.63)"><path d="M 0 11.85 C -15.52 1.41, -16.93 -9.88, -6.77 -2.26 C -0.56 -11.85, 0.56 -11.85, 6.77 -2.26 C 16.93 -9.88, 15.52 1.41, 0 11.85 Z" fill="#C084FC" stroke="rgba(255,255,255,0.55)" stroke-width="1.2" /></g>
    <g transform="translate(47.42 532.82) rotate(-6.45)"><circle cx="0" cy="0" r="18.97" fill="#A78BFA" stroke="rgba(255,255,255,0.55)" stroke-width="1.4" /><circle cx="-6.83" cy="-4.55" r="3.04" fill="#1F2937" /><circle cx="6.83" cy="-4.55" r="3.04" fill="#1F2937" /><path d="M -14.42 5.31 Q 0 12.90 14.42 5.31" fill="none" stroke="#1F2937" stroke-width="2.2" stroke-linecap="round" /></g>
    <g transform="translate(56.62 392.32) rotate(-2.00)"><polygon points="0.00,-19.36 4.96,-6.83 18.41,-5.98 8.03,2.61 11.38,15.66 0.00,8.45 -11.38,15.66 -8.03,2.61 -18.41,-5.98 -4.96,-6.83" fill="#F87171" stroke="rgba(255,255,255,0.55)" stroke-width="1.4" /></g>
    <g transform="translate(444.39 471.51) rotate(0.05)"><circle cx="0" cy="0" r="18.45" fill="#FB7185" /><circle cx="7.38" cy="-0.74" r="15.50" fill="#0B1A34" /></g>
    <g transform="translate(903.95 72.23) rotate(-4.25)"><polygon points="0.00,-17.85 4.58,-6.30 16.98,-5.52 7.41,2.41 10.49,14.44 0.00,7.79 -10.49,14.44 -7.41,2.41 -16.98,-5.52 -4.58,-6.30" fill="#A78BFA" stroke="rgba(255,255,255,0.55)" stroke-width="1.4" /></g>
    <g transform="translate(514.21 67.32) rotate(6.61)"><circle cx="0" cy="0" r="14.89" fill="#34D399" stroke="rgba(255,255,255,0.55)" stroke-width="1.4" /><circle cx="-5.36" cy="-3.57" r="2.38" fill="#1F2937" /><circle cx="5.36" cy="-3.57" r="2.38" fill="#1F2937" /><path d="M -11.31 4.17 Q 0 10.12 11.31 4.17" fill="none" stroke="#1F2937" stroke-width="2.2" stroke-linecap="round" /></g>
  </g>
</svg>
