<svg xmlns="http://www.w3.org/2000/svg" width="960" height="600" viewBox="0 0 960 600">
  <defs>
    <linearGradient id="bg144" x1="0%" y1="0%" x2="100%" y2="100%">
      <stop offset="0%" stop-color="#0F172A" />
      <stop offset="100%" stop-color="#1D4ED8" />
    </linearGradient>
    <filter id="shadow144" x="-20%" y="-20%" width="140%" height="140%">
      <feDropShadow dx="0" dy="2" stdDeviation="1.8" flood-color="rgba(0,0,0,0.36)" />
    </filter>
  </defs>

  <rect width="960" height="600" fill="url(#bg144)" />
  <rect x="24" y="24" width="912" height="552" rx="20" fill="rgba(255,255,255,0.045)" stroke="rgba(255,255,255,0.22)" />
  <g filter="url(#shadow144)">
    <g transform="translate(603.21 404.28) rotate(24.50)"><polygon points="-14.46,-5.20 2.31,-5.20 2.31,-10.99 15.90,0.00 2.31,10.99 2.31,5.20 -14.46,5.20" fill="#34D399" stroke="rgba(255,255,255,0.55)" stroke-width="1.2" /></g>
    <g transform="translate(836.35 267.69) rotate(-0.02)"><circle cx="0" cy="0" r="18.89" fill="#34D399" stroke="rgba(255,255,255,0.55)" stroke-width="1.4" /><circle cx="-6.80" cy="-4.53" r="3.02" fill="#1F2937" /><circle cx="6.80" cy="-4.53" r="3.02" fill="#1F2937" /><path d="M -14.36 5.29 Q 0 12.85 14.36 5.29" fill="none" stroke="#1F2937" stroke-width="2.2" stroke-linecap="round" /></g>
    <g transform="translate(278.78 267.08) rotate(-26.93)"><polygon points="0,-14.46 14.46,0 0,14.46 -14.46,0" fill="#FB7185" stroke="rgba(255,255,255,0.55)" stroke-width="1.4" /></g>
    <g transform="translate(437.47 142.71) rotate(7.25)"><circle cx="0" cy="0" r="15.99" fill="#FBBF24" stroke="rgba(255,255,255,0.55)" stroke-width="1.4" /><circle cx="-5.76" cy="-3.84" r="2.56" fill="#1F2937" /><circle cx="5.76" cy="-3.84" r="2.56" fill="#1F2937" /><path d="M -12.15 4.48 Q 0 10.87 12.15 4.48" fill="none" stroke="#1F2937" stroke-width="2.2" stroke-linecap="round" /></g>
    <g transform="translate(752.78 340.29) rotate(7.13)"><circle cx="0" cy="0" r="17.25" fill="#60A5FA" stroke="rgba(255,255,255,0.55)" stroke-width="1.4" /><circle cx="-6.21" cy="-4.14" r="2.76" fill="#1F2937" /><circle cx="6.21" cy="-4.14" r="2.76" fill="#1F2937" /><path d="M -13.11 4.83 Q 0 11.73 13.11 4.83" fill="none" stroke="#1F2937" stroke-width="2.2" stroke-linecap="round" /></g>
    <g transform="translate(912.45 141.60) rotate(-11.40)"><circle cx="0" cy="0" r="14.39" fill="#F87171" stroke="rgba(255,255,255,0.55)" stroke-width="1.4" /></g>
    <g transform="translate(666.74 195.98) rotate(15.07)"><circle cx="0" cy="0" r="20.77" fill="#FBBF24" stroke="rgba(255,255,255,0.55)" stroke-width="1.4" /></g>
    <g transform="translate(282.31 136.10) rotate(24.81)"><polygon points="0.00,-18.88 4.84,-6.66 17.95,-5.83 7.83,2.55 11.10,15.27 0.00,8.24 -11.10,15.27 -7.83,2.55 -17.95,-5.83 -4.84,-6.66" fill="#A78BFA" stroke="rgba(255,255,255,0.55)" stroke-width="1.4" /></g>
    <g transform="translate(291.33 328.46) rotate(1.79)"><polygon points="0.00,-17.09 4.38,-6.03 16.26,-5.28 7.09,2.30 10.05,13.83 0.00,7.46 -10.05,13.83 -7.09,2.30 -16.26,-5.28 -4.38,-6.03" fill="#F97316" stroke="rgba(255,255,255,0.55)" stroke-width="1.4" /></g>
    <g transform="translate(291.44 66.55) rotate(19.45)"><circle cx="0" cy="0" r="19.39" fill="#22D3EE" stroke="rgba(255,255,255,0.55)" stroke-width="1.4" /></g>
    <g transform="translate(902.07 195.47) rotate(20.78)"><polygon points="0.00,-21.62 5.55,-7.63 20.56,-6.68 8.97,2.92 12.71,17.49 0.00,9.44 -12.71,17.49 -8.97,2.92 -20.56,-6.68 -5.55,-7.63" fill="#A78BFA" stroke="rgba(255,255,255,0.55)" stroke-width="1.4" /></g>
    <g transform="translate(904.73 523.81) rotate(-15.78)"><polygon points="-18.19,-6.55 2.91,-6.55 2.91,-13.83 20.01,0.00 2.91,13.83 2.91,6.55 -18.19,6.55" fill="#34D399" stroke="rgba(255,255,255,0.55)" stroke-width="1.2" /></g>
    <g transform="translate(906.09 74.58) rotate(-2.54)"><circle cx="0" cy="0" r="14.36" fill="#FB7185" stroke="rgba(255,255,255,0.55)" stroke-width="1.4" /></g>
    <g transform="translate(208.16 202.57) rotate(11.23)"><circle cx="0" cy="0" r="17.43" fill="#A78BFA" stroke="rgba(255,255,255,0.55)" stroke-width="1.4" /></g>
    <g transform="translate(673.44 62.85) rotate(-14.93)"><circle cx="0" cy="0" r="18.74" fill="#FBBF24" stroke="rgba(255,255,255,0.55)" stroke-width="1.4" /></g>
    <g transform="translate(53.87 456.60) rotate(-22.08)"><circle cx="0" cy="0" r="19.29" fill="#FBBF24" stroke="rgba(255,255,255,0.55)" stroke-width="1.4" /></g>
  </g>
</svg>
