<svg xmlns="http://www.w3.org/2000/svg" width="960" height="600" viewBox="0 0 960 600">
  <defs>
    <linearGradient id="bg112" x1="0%" y1="0%" x2="100%" y2="100%">
      <stop offset="0%" stop-color="#0F172A" />
      <stop offset="100%" stop-color="#1D4ED8" />
    </linearGradient>
    <filter id="shadow112" x="-20%" y="-20%" width="140%" height="140%">
      <feDropShadow dx="0" dy="2" stdDeviation="1.8" flood-color="rgba(0,0,0,0.36)" />
    </filter>
  </defs>

  <rect width="960" height="600" fill="url(#bg112)" />
  <rect x="24" y="24" width="912" height="552" rx="20" fill="rgba(255,255,255,0.045)" stroke="rgba(255,255,255,0.22)" />
  <g filter="url(#shadow112)">
    <g transform="translate(672.14 471.21) rotate(4.92)"><path d="M 0 17.50 C -22.92 2.08, -25.00 -14.58, -10.00 -3.33 C -0.83 -17.50, 0.83 -17.50, 10.00 -3.33 C 25.00 -14.58, 22.92 2.08, 0 17.50 Z" fill="#F87171" stroke="rgba(255,255,255,0.55)" stroke-width="1.2" /></g>
    <g transform="translate(45.59 75.99) rotate(-18.79)"><path d="M 0 11.88 C -15.56 1.41, -16.97 -9.90, -6.79 -2.26 C -0.57 -11.88, 0.57 -11.88, 6.79 -2.26 C 16.97 -9.90, 15.56 1.41, 0 11.88 Z" fill="#4ADE80" stroke="rgba(255,255,255,0.55)" stroke-width="1.2" /></g>
    <g transform="translate(290.85 466.76) rotate(-13.36)"><polygon points="0,-16.16 14.49,11.14 -14.49,11.14" fill="#FBBF24" stroke="rgba(255,255,255,0.55)" stroke-width="1.4" /></g>
    <g transform="translate(204.49 138.89) rotate(20.45)"><polygon points="0,-20.58 18.45,14.19 -18.45,14.19" fill="#4ADE80" stroke="rgba(255,255,255,0.55)" stroke-width="1.4" /></g>
    <g transform="translate(672.73 72.79) rotate(-8.15)"><path d="M 0 13.62 C -17.83 1.62, -19.45 -11.35, -7.78 -2.59 C -0.65 -13.62, 0.65 -13.62, 7.78 -2.59 C 19.45 -11.35, 17.83 1.62, 0 13.62 Z" fill="#4ADE80" stroke="rgba(255,255,255,0.55)" stroke-width="1.2" /></g>
    <g transform="translate(754.04 199.12) rotate(-17.28)"><rect x="-14.56" y="-14.56" width="29.12" height="29.12" rx="3.17" fill="#F97316" stroke="rgba(255,255,255,0.55)" stroke-width="1.4" /></g>
    <g transform="translate(59.63 135.30) rotate(15.32)"><path d="M 0 17.51 C -22.92 2.08, -25.01 -14.59, -10.00 -3.33 C -0.83 -17.51, 0.83 -17.51, 10.00 -3.33 C 25.01 -14.59, 22.92 2.08, 0 17.51 Z" fill="#F87171" stroke="rgba(255,255,255,0.55)" stroke-width="1.2" /></g>
    <g transform="translate(914.51 458.94) rotate(-4.92)"><circle cx="0" cy="0" r="18.02" fill="#A78BFA" /><circle cx="7.21" cy="-0.72" r="15.14" fill="#0B1A34" /></g>
    <g transform="translate(278.27 532.10) rotate(1.08)"><circle cx="0" cy="0" r="15.03" fill="#C084FC" /><circle cx="6.01" cy="-0.60" r="12.62" fill="#0B1A34" /></g>
    <g transform="translate(47.14 398.33) rotate(-19.55)"><polygon points="0.00,-17.93 4.60,-6.33 17.06,-5.54 7.44,2.42 10.54,14.51 0.00,7.83 -10.54,14.51 -7.44,2.42 -17.06,-5.54 -4.60,-6.33" fill="#FBBF24" stroke="rgba(255,255,255,0.55)" stroke-width="1.4" /></g>
    <g transform="translate(357.82 401.76) rotate(-27.00)"><rect x="-16.14" y="-16.14" width="32.27" height="32.27" rx="3.51" fill="#60A5FA" stroke="rgba(255,255,255,0.55)" stroke-width="1.4" /></g>
    <g transform="translate(355.33 204.36) rotate(-5.52)"><circle cx="0" cy="0" r="20.91" fill="#F97316" /><circle cx="8.37" cy="-0.84" r="17.57" fill="#0B1A34" /></g>
    <g transform="translate(448.97 62.44) rotate(7.86)"><circle cx="0" cy="0" r="17.47" fill="#34D399" /><circle cx="6.99" cy="-0.70" r="14.68" fill="#0B1A34" /></g>
    <g transform="translate(525.13 271.32) rotate(-12.28)"><polygon points="0,-19.54 17.52,13.48 -17.52,13.48" fill="#60A5FA" stroke="rgba(255,255,255,0.55)" stroke-width="1.4" /></g>
    <g transform="translate(671.11 536.91) rotate(-25.09)"><polygon points="-19.85,-7.15 3.18,-7.15 3.18,-15.08 21.83,0.00 3.18,15.08 3.18,7.15 -19.85,7.15" fill="#C084FC" stroke="rgba(255,255,255,0.55)" stroke-width="1.2" /></g>
    <g transform="translate(596.02 77.63) rotate(-23.91)"><polygon points="0,-18.57 16.65,12.81 -16.65,12.81" fill="#F97316" stroke="rgba(255,255,255,0.55)" stroke-width="1.4" /></g>
    <g transform="translate(602.56 129.89) rotate(6.40)"><polygon points="0,-19.53 17.51,13.47 -17.51,13.47" fill="#4ADE80" stroke="rgba(255,255,255,0.55)" stroke-width="1.4" /></g>
    <g transform="translate(290.84 195.75) rotate(11.97)"><polygon points="0.00,-18.03 4.63,-6.37 17.15,-5.57 7.48,2.43 10.60,14.59 0.00,7.87 -10.60,14.59 -7.48,2.43 -17.15,-5.57 -4.63,-6.37" fill="#F97316" stroke="rgba(255,255,255,0.55)" stroke-width="1.4" /></g>
    <g transform="translate(48.70 529.46) rotate(19.17)"><path d="M 0 16.71 C -21.88 1.99, -23.86 -13.92, -9.55 -3.18 C -0.80 -16.71, 0.80 -16.71, 9.55 -3.18 C 23.86 -13.92, 21.88 1.99, 0 16.71 Z" fill="#FBBF24" stroke="rgba(255,255,255,0.55)" stroke-width="1.2" /></g>
    <g transform="translate(45.20 264.77) rotate(-6.97)"><polygon points="-17.00,-6.12 2.72,-6.12 2.72,-12.92 18.70,0.00 2.72,12.92 2.72,6.12 -17.00,6.12" fill="#4ADE80" stroke="rgba(255,255,255,0.55)" stroke-width="1.2" /></g>
  </g>
</svg>
