<svg xmlns="http://www.w3.org/2000/svg" width="960" height="600" viewBox="0 0 960 600">
  <defs>
    <linearGradient id="bg175" x1="0%" y1="0%" x2="100%" y2="100%">
      <stop offset="0%" stop-color="#0F172A" />
      <stop offset="100%" stop-color="#1D4ED8" />
    </linearGradient>
    <filter id="shadow175" x="-20%" y="-20%" width="140%" height="140%">
      <feDropShadow dx="0" dy="2" stdDeviation="1.8" flood-color="rgba(0,0,0,0.36)" />
    </filter>
  </defs>

  <rect width="960" height="600" fill="url(#bg175)" />
  <rect x="24" y="24" width="912" height="552" rx="20" fill="rgba(255,255,255,0.045)" stroke="rgba(255,255,255,0.22)" />
  <g filter="url(#shadow175)">
    <g transform="translate(521.98 77.86) rotate(-7.02)"><circle cx="0" cy="0" r="19.93" fill="#4ADE80" /><circle cx="7.97" cy="-0.80" r="16.74" fill="#0B1A34" /></g>
    <g transform="translate(827.86 272.94) rotate(4.58)"><circle cx="0" cy="0" r="16.04" fill="#FB7185" /><circle cx="6.42" cy="-0.64" r="13.48" fill="#0B1A34" /></g>
    <g transform="translate(212.97 460.79) rotate(-0.67)"><circle cx="0" cy="0" r="19.45" fill="#FBBF24" /><circle cx="7.78" cy="-0.78" r="16.34" fill="#0B1A34" /></g>
    <g transform="translate(523.93 142.36) rotate(0.75)"><circle cx="0" cy="0" r="17.67" fill="#F87171" stroke="rgba(255,255,255,0.55)" stroke-width="1.4" /></g>
    <g transform="translate(201.47 328.76) rotate(15.41)"><polygon points="0,-16.94 15.18,11.68 -15.18,11.68" fill="#C084FC" stroke="rgba(255,255,255,0.55)" stroke-width="1.4" /></g>
    <g transform="translate(901.90 405.08) rotate(-18.59)"><path d="M 0 16.68 C -21.85 1.99, -23.83 -13.90, -9.53 -3.18 C -0.79 -16.68, 0.79 -16.68, 9.53 -3.18 C 23.83 -13.90, 21.85 1.99, 0 16.68 Z" fill="#34D399" stroke="rgba(255,255,255,0.55)" stroke-width="1.2" /></g>
    <g transform="translate(45.41 268.46) rotate(-23.86)"><path d="M 0 14.86 C -19.46 1.77, -21.23 -12.39, -8.49 -2.83 C -0.71 -14.86, 0.71 -14.86, 8.49 -2.83 C 21.23 -12.39, 19.46 1.77, 0 14.86 Z" fill="#4ADE80" stroke="rgba(255,255,255,0.55)" stroke-width="1.2" /></g>
    <g transform="translate(58.54 327.82) rotate(4.33)"><circle cx="0" cy="0" r="20.67" fill="#4ADE80" /><circle cx="8.27" cy="-0.83" r="17.36" fill="#0B1A34" /></g>
    <g transform="translate(136.07 393.97) rotate(-25.69)"><polygon points="0.00,-20.43 5.24,-7.21 19.43,-6.31 8.48,2.76 12.01,16.53 0.00,8.92 -12.01,16.53 -8.48,2.76 -19.43,-6.31 -5.24,-7.21" fill="#60A5FA" stroke="rgba(255,255,255,0.55)" stroke-width="1.4" /></g>
    <g transform="translate(519.73 533.90) rotate(-2.45)"><circle cx="0" cy="0" r="17.56" fill="#34D399" /><circle cx="7.02" cy="-0.70" r="14.75" fill="#0B1A34" /></g>
    <g transform="translate(443.37 527.04) rotate(13.30)"><path d="M 0 15.96 C -20.90 1.90, -22.80 -13.30, -9.12 -3.04 C -0.76 -15.96, 0.76 -15.96, 9.12 -3.04 C 22.80 -13.30, 20.90 1.90, 0 15.96 Z" fill="#FBBF24" stroke="rgba(255,255,255,0.55)" stroke-width="1.2" /></g>
    <g transform="translate(589.28 274.88) rotate(-20.81)"><path d="M 0 12.55 C -16.44 1.49, -17.93 -10.46, -7.17 -2.39 C -0.60 -12.55, 0.60 -12.55, 7.17 -2.39 C 17.93 -10.46, 16.44 1.49, 0 12.55 Z" fill="#FB7185" stroke="rgba(255,255,255,0.55)" stroke-width="1.2" /></g>
    <g transform="translate(207.31 62.91) rotate(-24.92)"><path d="M 0 17.16 C -22.47 2.04, -24.52 -14.30, -9.81 -3.27 C -0.82 -17.16, 0.82 -17.16, 9.81 -3.27 C 24.52 -14.30, 22.47 2.04, 0 17.16 Z" fill="#A78BFA" stroke="rgba(255,255,255,0.55)" stroke-width="1.2" /></g>
    <g transform="translate(751.71 400.09) rotate(19.96)"><path d="M 0 12.32 C -16.14 1.47, -17.60 -10.27, -7.04 -2.35 C -0.59 -12.32, 0.59 -12.32, 7.04 -2.35 C 17.60 -10.27, 16.14 1.47, 0 12.32 Z" fill="#22D3EE" stroke="rgba(255,255,255,0.55)" stroke-width="1.2" /></g>
    <g transform="translate(131.89 68.85) rotate(-9.30)"><polygon points="0.00,-22.65 5.81,-8.00 21.54,-7.00 9.40,3.05 13.31,18.32 0.00,9.88 -13.31,18.32 -9.40,3.05 -21.54,-7.00 -5.81,-8.00" fill="#F97316" stroke="rgba(255,255,255,0.55)" stroke-width="1.4" /></g>
    <g transform="translate(135.24 338.94) rotate(-21.41)"><path d="M 0 16.08 C -21.05 1.91, -22.97 -13.40, -9.19 -3.06 C -0.77 -16.08, 0.77 -16.08, 9.19 -3.06 C 22.97 -13.40, 21.05 1.91, 0 16.08 Z" fill="#34D399" stroke="rgba(255,255,255,0.55)" stroke-width="1.2" /></g>
    <g transform="translate(438.87 268.28) rotate(17.71)"><circle cx="0" cy="0" r="20.64" fill="#FB7185" stroke="rgba(255,255,255,0.55)" stroke-width="1.4" /></g>
    <g transform="translate(281.92 72.87) rotate(20.29)"><path d="M 0 13.66 C -17.89 1.63, -19.51 -11.38, -7.80 -2.60 C -0.65 -13.66, 0.65 -13.66, 7.80 -2.60 C 19.51 -11.38, 17.89 1.63, 0 13.66 Z" fill="#F97316" stroke="rgba(255,255,255,0.55)" stroke-width="1.2" /></g>
    <g transform="translate(670.35 208.57) rotate(-0.22)"><rect x="-15.67" y="-4.62" width="31.35" height="9.24" rx="4.62" fill="#FBBF24" /><rect x="-4.62" y="-15.67" width="9.24" height="31.35" rx="4.62" fill="#FBBF24" /></g>
    <g transform="translate(522.81 400.52) rotate(19.26)"><rect x="-13.96" y="-4.11" width="27.92" height="8.23" rx="4.11" fill="#60A5FA" /><rect x="-4.11" y="-13.96" width="8.23" height="27.92" rx="4.11" fill="#60A5FA" /></g>
    <g transform="translate(837.42 70.23) rotate(27.88)"><path d="M 0 15.38 C -20.14 1.83, -21.97 -12.81, -8.79 -2.93 C -0.73 -15.38, 0.73 -15.38, 8.79 -2.93 C 21.97 -12.81, 20.14 1.83, 0 15.38 Z" fill="#F87171" stroke="rgba(255,255,255,0.55)" stroke-width="1.2" /></g>
    <g transform="translate(204.80 140.16) rotate(27.69)"><circle cx="0" cy="0" r="17.34" fill="#F97316" stroke="rgba(255,255,255,0.55)" stroke-width="1.4" /></g>
    <g transform="translate(753.67 340.21) rotate(23.86)"><path d="M 0 14.15 C -18.53 1.68, -20.22 -11.79, -8.09 -2.70 C -0.67 -14.15, 0.67 -14.15, 8.09 -2.70 C 20.22 -11.79, 18.53 1.68, 0 14.15 Z" fill="#FB7185" stroke="rgba(255,255,255,0.55)" stroke-width="1.2" /></g>
    <g transform="translate(912.55 203.37) rotate(-20.29)"><polygon points="0.00,-19.62 5.03,-6.93 18.66,-6.06 8.14,2.65 11.53,15.87 0.00,8.56 -11.53,15.87 -8.14,2.65 -18.66,-6.06 -5.03,-6.93" fill="#22D3EE" stroke="rgba(255,255,255,0.55)" stroke-width="1.4" /></g>
    <g transform="translate(828.03 404.28) rotate(10.50)"><path d="M 0 16.91 C -22.14 2.01, -24.16 -14.09, -9.66 -3.22 C -0.81 -16.91, 0.81 -16.91, 9.66 -3.22 C 24.16 -14.09, 22.14 2.01, 0 16.91 Z" fill="#F87171" stroke="rgba(255,255,255,0.55)" stroke-width="1.2" /></g>
    <g transform="translate(211.80 533.31) rotate(2.34)"><polygon points="0.00,-16.55 4.25,-5.84 15.74,-5.11 6.87,2.23 9.73,13.39 0.00,7.22 -9.73,13.39 -6.87,2.23 -15.74,-5.11 -4.25,-5.84" fill="#60A5FA" stroke="rgba(255,255,255,0.55)" stroke-width="1.4" /></g>
    <g transform="translate(746.51 272.17) rotate(-8.61)"><circle cx="0" cy="0" r="18.82" fill="#A78BFA" stroke="rgba(255,255,255,0.55)" stroke-width="1.4" /></g>
    <g transform="translate(357.98 402.88) rotate(16.95)"><path d="M 0 16.21 C -21.22 1.93, -23.15 -13.50, -9.26 -3.09 C -0.77 -16.21, 0.77 -16.21, 9.26 -3.09 C 23.15 -13.50, 21.22 1.93, 0 16.21 Z" fill="#F87171" stroke="rgba(255,255,255,0.55)" stroke-width="1.2" /></g>
    <g transform="translate(440.39 199.75) rotate(-7.44)"><polygon points="0,-15.90 14.26,10.97 -14.26,10.97" fill="#FB7185" stroke="rgba(255,255,255,0.55)" stroke-width="1.4" /></g>
    <g transform="translate(746.18 467.26) rotate(-19.03)"><rect x="-13.94" y="-4.11" width="27.88" height="8.22" rx="4.11" fill="#A78BFA" /><rect x="-4.11" y="-13.94" width="8.22" height="27.88" rx="4.11" fill="#A78BFA" /></g>
    <g transform="translate(602.02 525.50) rotate(14.01)"><path d="M 0 16.77 C -21.96 2.00, -23.96 -13.97, -9.58 -3.19 C -0.80 -16.77, 0.80 -16.77, 9.58 -3.19 C 23.96 -13.97, 21.96 2.00, 0 16.77 Z" fill="#FB7185" stroke="rgba(255,255,255,0.55)" stroke-width="1.2" /></g>
    <g transform="translate(287.94 533.13) rotate(-13.97)"><path d="M 0 13.60 C -17.80 1.62, -19.42 -11.33, -7.77 -2.59 C -0.65 -13.60, 0.65 -13.60, 7.77 -2.59 C 19.42 -11.33, 17.80 1.62, 0 13.60 Z" fill="#4ADE80" stroke="rgba(255,255,255,0.55)" stroke-width="1.2" /></g>
    <g transform="translate(759.11 535.82) rotate(23.67)"><path d="M 0 14.67 C -19.22 1.75, -20.96 -12.23, -8.39 -2.80 C -0.70 -14.67, 0.70 -14.67, 8.39 -2.80 C 20.96 -12.23, 19.22 1.75, 0 14.67 Z" fill="#FB7185" stroke="rgba(255,255,255,0.55)" stroke-width="1.2" /></g>
    <g transform="translate(434.48 463.25) rotate(-8.55)"><polygon points="0.00,-19.63 5.04,-6.93 18.67,-6.07 8.15,2.65 11.54,15.88 0.00,8.57 -11.54,15.88 -8.15,2.65 -18.67,-6.07 -5.04,-6.93" fill="#34D399" stroke="rgba(255,255,255,0.55)" stroke-width="1.4" /></g>
    <g transform="translate(750.86 139.80) rotate(-24.25)"><circle cx="0" cy="0" r="14.39" fill="#FBBF24" stroke="rgba(255,255,255,0.55)" stroke-width="1.4" /></g>
  </g>
</svg>
