<svg xmlns="http://www.w3.org/2000/svg" width="960" height="600" viewBox="0 0 960 600">
  <defs>
    <linearGradient id="bg171" x1="0%" y1="0%" x2="100%" y2="100%">
      <stop offset="0%" stop-color="#0F172A" />
      <stop offset="100%" stop-color="#1D4ED8" />
    </linearGradient>
    <filter id="shadow171" x="-20%" y="-20%" width="140%" height="140%">
      <feDropShadow dx="0" dy="2" stdDeviation="1.8" flood-color="rgba(0,0,0,0.36)" />
    </filter>
  </defs>

  <rect width="960" height="600" fill="url(#bg171)" />
  <rect x="24" y="24" width="912" height="552" rx="20" fill="rgba(255,255,255,0.045)" stroke="rgba(255,255,255,0.22)" />
  <g filter="url(#shadow171)">
    <g transform="translate(200.80 530.02) rotate(-16.48)"><polygon points="0,-17.83 17.83,0 0,17.83 -17.83,0" fill="#34D399" stroke="rgba(255,255,255,0.55)" stroke-width="1.4" /></g>
    <g transform="translate(826.84 202.55) rotate(-11.08)"><polygon points="0.00,-17.02 4.37,-6.01 16.19,-5.26 7.06,2.30 10.01,13.77 0.00,7.43 -10.01,13.77 -7.06,2.30 -16.19,-5.26 -4.37,-6.01" fill="#4ADE80" stroke="rgba(255,255,255,0.55)" stroke-width="1.4" /></g>
    <g transform="translate(436.42 197.13) rotate(-4.06)"><circle cx="0" cy="0" r="16.64" fill="#34D399" /><circle cx="6.65" cy="-0.67" r="13.97" fill="#0B1A34" /></g>
    <g transform="translate(906.22 67.78) rotate(-25.80)"><polygon points="0,-17.09 17.09,0 0,17.09 -17.09,0" fill="#60A5FA" stroke="rgba(255,255,255,0.55)" stroke-width="1.4" /></g>
    <g transform="translate(360.30 195.68) rotate(-2.04)"><circle cx="0" cy="0" r="16.97" fill="#A78BFA" /><circle cx="6.79" cy="-0.68" r="14.25" fill="#0B1A34" /></g>
    <g transform="translate(753.15 468.87) rotate(22.40)"><polygon points="0.00,-21.33 5.47,-7.53 20.28,-6.59 8.85,2.88 12.53,17.25 0.00,9.31 -12.53,17.25 -8.85,2.88 -20.28,-6.59 -5.47,-7.53" fill="#34D399" stroke="rgba(255,255,255,0.55)" stroke-width="1.4" /></g>
    <g transform="translate(603.62 336.14) rotate(6.76)"><circle cx="0" cy="0" r="14.45" fill="#60A5FA" /><circle cx="5.78" cy="-0.58" r="12.14" fill="#0B1A34" /></g>
    <g transform="translate(446.77 76.70) rotate(20.36)"><polygon points="0.00,-22.26 5.71,-7.86 21.17,-6.88 9.24,3.00 13.08,18.01 0.00,9.71 -13.08,18.01 -9.24,3.00 -21.17,-6.88 -5.71,-7.86" fill="#A78BFA" stroke="rgba(255,255,255,0.55)" stroke-width="1.4" /></g>
    <g transform="translate(362.92 461.76) rotate(-7.99)"><circle cx="0" cy="0" r="16.57" fill="#F87171" /><circle cx="6.63" cy="-0.66" r="13.92" fill="#0B1A34" /></g>
    <g transform="translate(51.33 468.87) rotate(4.08)"><circle cx="0" cy="0" r="15.33" fill="#FB7185" /><circle cx="6.13" cy="-0.61" r="12.88" fill="#0B1A34" /></g>
    <g transform="translate(910.44 468.41) rotate(4.02)"><rect x="-18.14" y="-5.35" width="36.29" height="10.70" rx="5.35" fill="#FBBF24" /><rect x="-5.35" y="-18.14" width="10.70" height="36.29" rx="5.35" fill="#FBBF24" /></g>
    <g transform="translate(365.80 330.71) rotate(18.98)"><rect x="-15.36" y="-4.53" width="30.72" height="9.05" rx="4.53" fill="#60A5FA" /><rect x="-4.53" y="-15.36" width="9.05" height="30.72" rx="4.53" fill="#60A5FA" /></g>
    <g transform="translate(589.49 130.37) rotate(-7.37)"><circle cx="0" cy="0" r="16.00" fill="#A78BFA" stroke="rgba(255,255,255,0.55)" stroke-width="1.4" /><circle cx="-5.76" cy="-3.84" r="2.56" fill="#1F2937" /><circle cx="5.76" cy="-3.84" r="2.56" fill="#1F2937" /><path d="M -12.16 4.48 Q 0 10.88 12.16 4.48" fill="none" stroke="#1F2937" stroke-width="2.2" stroke-linecap="round" /></g>
    <g transform="translate(749.19 266.52) rotate(11.56)"><polygon points="0.00,-17.35 4.45,-6.13 16.50,-5.36 7.20,2.34 10.20,14.04 0.00,7.57 -10.20,14.04 -7.20,2.34 -16.50,-5.36 -4.45,-6.13" fill="#F87171" stroke="rgba(255,255,255,0.55)" stroke-width="1.4" /></g>
    <g transform="translate(911.06 396.75) rotate(17.61)"><polygon points="0.00,-21.66 5.56,-7.65 20.60,-6.69 8.99,2.92 12.73,17.52 0.00,9.45 -12.73,17.52 -8.99,2.92 -20.60,-6.69 -5.56,-7.65" fill="#4ADE80" stroke="rgba(255,255,255,0.55)" stroke-width="1.4" /></g>
    <g transform="translate(602.72 67.43) rotate(-10.72)"><polygon points="0.00,-15.84 4.06,-5.59 15.06,-4.89 6.57,2.14 9.31,12.81 0.00,6.91 -9.31,12.81 -6.57,2.14 -15.06,-4.89 -4.06,-5.59" fill="#F97316" stroke="rgba(255,255,255,0.55)" stroke-width="1.4" /></g>
    <g transform="translate(680.75 273.43) rotate(6.10)"><circle cx="0" cy="0" r="20.03" fill="#22D3EE" /><circle cx="8.01" cy="-0.80" r="16.83" fill="#0B1A34" /></g>
    <g transform="translate(365.48 131.18) rotate(5.69)"><circle cx="0" cy="0" r="19.79" fill="#A78BFA" stroke="rgba(255,255,255,0.55)" stroke-width="1.4" /><circle cx="-7.13" cy="-4.75" r="3.17" fill="#1F2937" /><circle cx="7.13" cy="-4.75" r="3.17" fill="#1F2937" /><path d="M -15.04 5.54 Q 0 13.46 15.04 5.54" fill="none" stroke="#1F2937" stroke-width="2.2" stroke-linecap="round" /></g>
    <g transform="translate(835.30 64.68) rotate(2.25)"><polygon points="0.00,-18.55 4.76,-6.55 17.64,-5.73 7.70,2.50 10.90,15.01 0.00,8.09 -10.90,15.01 -7.70,2.50 -17.64,-5.73 -4.76,-6.55" fill="#4ADE80" stroke="rgba(255,255,255,0.55)" stroke-width="1.4" /></g>
    <g transform="translate(824.07 393.69) rotate(2.37)"><rect x="-17.43" y="-5.14" width="34.86" height="10.28" rx="5.14" fill="#A78BFA" /><rect x="-5.14" y="-17.43" width="10.28" height="34.86" rx="5.14" fill="#A78BFA" /></g>
    <g transform="translate(675.32 208.76) rotate(11.65)"><polygon points="0,-20.71 20.71,0 0,20.71 -20.71,0" fill="#4ADE80" stroke="rgba(255,255,255,0.55)" stroke-width="1.4" /></g>
    <g transform="translate(122.91 136.34) rotate(-13.59)"><polygon points="0,-14.38 14.38,0 0,14.38 -14.38,0" fill="#A78BFA" stroke="rgba(255,255,255,0.55)" stroke-width="1.4" /></g>
  </g>
</svg>
