<svg xmlns="http://www.w3.org/2000/svg" width="960" height="600" viewBox="0 0 960 600">
  <defs>
    <linearGradient id="bg150" x1="0%" y1="0%" x2="100%" y2="100%">
      <stop offset="0%" stop-color="#0F172A" />
      <stop offset="100%" stop-color="#1D4ED8" />
    </linearGradient>
    <filter id="shadow150" x="-20%" y="-20%" width="140%" height="140%">
      <feDropShadow dx="0" dy="2" stdDeviation="1.8" flood-color="rgba(0,0,0,0.36)" />
    </filter>
  </defs>

  <rect width="960" height="600" fill="url(#bg150)" />
  <rect x="24" y="24" width="912" height="552" rx="20" fill="rgba(255,255,255,0.045)" stroke="rgba(255,255,255,0.22)" />
  <g filter="url(#shadow150)">
    <g transform="translate(364.91 140.92) rotate(-1.98)"><circle cx="0" cy="0" r="17.30" fill="#4ADE80" stroke="rgba(255,255,255,0.55)" stroke-width="1.4" /><circle cx="-6.23" cy="-4.15" r="2.77" fill="#1F2937" /><circle cx="6.23" cy="-4.15" r="2.77" fill="#1F2937" /><path d="M -13.15 4.84 Q 0 11.77 13.15 4.84" fill="none" stroke="#1F2937" stroke-width="2.2" stroke-linecap="round" /></g>
    <g transform="translate(215.22 267.01) rotate(-2.68)"><circle cx="0" cy="0" r="17.25" fill="#60A5FA" /><circle cx="6.90" cy="-0.69" r="14.49" fill="#0B1A34" /></g>
    <g transform="translate(589.26 529.64) rotate(23.70)"><rect x="-13.45" y="-13.45" width="26.90" height="26.90" rx="2.92" fill="#FBBF24" stroke="rgba(255,255,255,0.55)" stroke-width="1.4" /></g>
    <g transform="translate(749.30 73.03) rotate(22.46)"><rect x="-16.21" y="-16.21" width="32.43" height="32.43" rx="3.52" fill="#FBBF24" stroke="rgba(255,255,255,0.55)" stroke-width="1.4" /></g>
    <g transform="translate(904.52 463.87) rotate(26.53)"><polygon points="0.00,-21.42 5.50,-7.56 20.38,-6.62 8.89,2.89 12.59,17.33 0.00,9.35 -12.59,17.33 -8.89,2.89 -20.38,-6.62 -5.50,-7.56" fill="#4ADE80" stroke="rgba(255,255,255,0.55)" stroke-width="1.4" /></g>
    <g transform="translate(293.25 468.20) rotate(-8.00)"><circle cx="0" cy="0" r="18.36" fill="#60A5FA" /><circle cx="7.35" cy="-0.73" r="15.43" fill="#0B1A34" /></g>
    <g transform="translate(909.63 71.74) rotate(18.80)"><path d="M 0 14.50 C -18.98 1.73, -20.71 -12.08, -8.28 -2.76 C -0.69 -14.50, 0.69 -14.50, 8.28 -2.76 C 20.71 -12.08, 18.98 1.73, 0 14.50 Z" fill="#FBBF24" stroke="rgba(255,255,255,0.55)" stroke-width="1.2" /></g>
    <g transform="translate(51.24 139.86) rotate(6.33)"><polygon points="0.00,-20.15 5.17,-7.11 19.17,-6.23 8.36,2.72 11.85,16.30 0.00,8.79 -11.85,16.30 -8.36,2.72 -19.17,-6.23 -5.17,-7.11" fill="#FB7185" stroke="rgba(255,255,255,0.55)" stroke-width="1.4" /></g>
    <g transform="translate(362.31 204.06) rotate(15.41)"><rect x="-17.72" y="-17.72" width="35.45" height="35.45" rx="3.85" fill="#4ADE80" stroke="rgba(255,255,255,0.55)" stroke-width="1.4" /></g>
    <g transform="translate(511.59 264.29) rotate(-1.28)"><circle cx="0" cy="0" r="15.13" fill="#60A5FA" /><circle cx="6.05" cy="-0.61" r="12.71" fill="#0B1A34" /></g>
    <g transform="translate(515.17 404.20) rotate(-7.87)"><polygon points="0.00,-20.55 5.27,-7.26 19.55,-6.35 8.53,2.77 12.08,16.63 0.00,8.97 -12.08,16.63 -8.53,2.77 -19.55,-6.35 -5.27,-7.26" fill="#FB7185" stroke="rgba(255,255,255,0.55)" stroke-width="1.4" /></g>
    <g transform="translate(442.25 466.00) rotate(-4.04)"><circle cx="0" cy="0" r="18.53" fill="#C084FC" /><circle cx="7.41" cy="-0.74" r="15.56" fill="#0B1A34" /></g>
    <g transform="translate(825.76 197.74) rotate(6.51)"><circle cx="0" cy="0" r="17.85" fill="#C084FC" /><circle cx="7.14" cy="-0.71" r="15.00" fill="#0B1A34" /></g>
    <g transform="translate(277.95 129.59) rotate(0.64)"><circle cx="0" cy="0" r="18.20" fill="#60A5FA" /><circle cx="7.28" cy="-0.73" r="15.29" fill="#0B1A34" /></g>
    <g transform="translate(673.85 64.40) rotate(-26.60)"><circle cx="0" cy="0" r="15.21" fill="#34D399" stroke="rgba(255,255,255,0.55)" stroke-width="1.4" /></g>
    <g transform="translate(599.31 327.00) rotate(15.73)"><polygon points="0.00,-22.90 5.87,-8.08 21.78,-7.08 9.50,3.09 13.46,18.52 0.00,9.99 -13.46,18.52 -9.50,3.09 -21.78,-7.08 -5.87,-8.08" fill="#34D399" stroke="rgba(255,255,255,0.55)" stroke-width="1.4" /></g>
  </g>
</svg>
