<svg xmlns="http://www.w3.org/2000/svg" width="960" height="600" viewBox="0 0 960 600">
  <defs>
    <linearGradient id="bg92" x1="0%" y1="0%" x2="100%" y2="100%">
      <stop offset="0%" stop-color="#0F172A" />
      <stop offset="100%" stop-color="#1D4ED8" />
    </linearGradient>
    <filter id="shadow92" x="-20%" y="-20%" width="140%" height="140%">
      <feDropShadow dx="0" dy="2" stdDeviation="1.8" flood-color="rgba(0,0,0,0.36)" />
    </filter>
  </defs>

  <rect width="960" height="600" fill="url(#bg92)" />
  <rect x="24" y="24" width="912" height="552" rx="20" fill="rgba(255,255,255,0.045)" stroke="rgba(255,255,255,0.22)" />
  <g filter="url(#shadow92)">
    <g transform="translate(525.43 537.06) rotate(-5.70)"><polygon points="0,-15.71 14.09,10.84 -14.09,10.84" fill="#FBBF24" stroke="rgba(255,255,255,0.55)" stroke-width="1.4" /></g>
    <g transform="translate(130.98 74.35) rotate(-22.22)"><polygon points="0,-14.04 14.04,0 0,14.04 -14.04,0" fill="#F87171" stroke="rgba(255,255,255,0.55)" stroke-width="1.4" /></g>
    <g transform="translate(290.60 136.45) rotate(-19.42)"><circle cx="0" cy="0" r="15.57" fill="#22D3EE" stroke="rgba(255,255,255,0.55)" stroke-width="1.4" /></g>
    <g transform="translate(46.71 328.31) rotate(-6.65)"><polygon points="0,-14.14 14.14,0 0,14.14 -14.14,0" fill="#F87171" stroke="rgba(255,255,255,0.55)" stroke-width="1.4" /></g>
    <g transform="translate(912.92 335.30) rotate(-13.54)"><polygon points="0,-21.86 19.60,15.08 -19.60,15.08" fill="#F87171" stroke="rgba(255,255,255,0.55)" stroke-width="1.4" /></g>
    <g transform="translate(831.11 63.00) rotate(-26.98)"><polygon points="-17.40,-6.26 2.78,-6.26 2.78,-13.22 19.14,0.00 2.78,13.22 2.78,6.26 -17.40,6.26" fill="#FBBF24" stroke="rgba(255,255,255,0.55)" stroke-width="1.2" /></g>
    <g transform="translate(671.73 337.69) rotate(-7.43)"><polygon points="0,-16.92 15.17,11.67 -15.17,11.67" fill="#FBBF24" stroke="rgba(255,255,255,0.55)" stroke-width="1.4" /></g>
    <g transform="translate(289.94 196.96) rotate(-26.41)"><circle cx="0" cy="0" r="19.81" fill="#C084FC" stroke="rgba(255,255,255,0.55)" stroke-width="1.4" /></g>
    <g transform="translate(823.05 471.91) rotate(7.67)"><circle cx="0" cy="0" r="19.70" fill="#FB7185" /><circle cx="7.88" cy="-0.79" r="16.55" fill="#0B1A34" /></g>
    <g transform="translate(361.79 142.24) rotate(11.63)"><polygon points="-15.02,-5.41 2.40,-5.41 2.40,-11.41 16.52,0.00 2.40,11.41 2.40,5.41 -15.02,5.41" fill="#A78BFA" stroke="rgba(255,255,255,0.55)" stroke-width="1.2" /></g>
    <g transform="translate(433.90 267.90) rotate(1.10)"><polygon points="0,-16.41 14.71,11.32 -14.71,11.32" fill="#F97316" stroke="rgba(255,255,255,0.55)" stroke-width="1.4" /></g>
    <g transform="translate(436.76 462.85) rotate(16.02)"><polygon points="0,-14.76 14.76,0 0,14.76 -14.76,0" fill="#FB7185" stroke="rgba(255,255,255,0.55)" stroke-width="1.4" /></g>
    <g transform="translate(289.11 339.19) rotate(-2.42)"><polygon points="0,-18.85 16.90,13.00 -16.90,13.00" fill="#F97316" stroke="rgba(255,255,255,0.55)" stroke-width="1.4" /></g>
    <g transform="translate(363.72 460.02) rotate(-12.36)"><polygon points="0,-17.58 17.58,0 0,17.58 -17.58,0" fill="#FB7185" stroke="rgba(255,255,255,0.55)" stroke-width="1.4" /></g>
    <g transform="translate(369.24 331.08) rotate(10.27)"><polygon points="0,-15.62 14.01,10.77 -14.01,10.77" fill="#F87171" stroke="rgba(255,255,255,0.55)" stroke-width="1.4" /></g>
    <g transform="translate(602.43 274.96) rotate(-27.35)"><path d="M 0 12.57 C -16.46 1.50, -17.95 -10.47, -7.18 -2.39 C -0.60 -12.57, 0.60 -12.57, 7.18 -2.39 C 17.95 -10.47, 16.46 1.50, 0 12.57 Z" fill="#FB7185" stroke="rgba(255,255,255,0.55)" stroke-width="1.2" /></g>
  </g>
</svg>
