<svg xmlns="http://www.w3.org/2000/svg" width="960" height="600" viewBox="0 0 960 600">
  <defs>
    <linearGradient id="bg6" x1="0%" y1="0%" x2="100%" y2="100%">
      <stop offset="0%" stop-color="#0F172A" />
      <stop offset="100%" stop-color="#1D4ED8" />
    </linearGradient>
    <filter id="shadow6" x="-20%" y="-20%" width="140%" height="140%">
      <feDropShadow dx="0" dy="2" stdDeviation="1.8" flood-color="rgba(0,0,0,0.36)" />
    </filter>
  </defs>

  <rect width="960" height="600" fill="url(#bg6)" />
  <rect x="24" y="24" width="912" height="552" rx="20" fill="rgba(255,255,255,0.045)" stroke="rgba(255,255,255,0.22)" />
  <g filter="url(#shadow6)">
    <g transform="translate(909.64 140.37) rotate(-13.54)"><polygon points="0.00,-22.00 5.64,-7.76 20.92,-6.80 9.13,2.97 12.93,17.79 0.00,9.60 -12.93,17.79 -9.13,2.97 -20.92,-6.80 -5.64,-7.76" fill="#60A5FA" stroke="rgba(255,255,255,0.55)" stroke-width="1.4" /></g>
    <g transform="translate(288.57 133.55) rotate(4.04)"><circle cx="0" cy="0" r="19.50" fill="#FB7185" stroke="rgba(255,255,255,0.55)" stroke-width="1.4" /><circle cx="-7.02" cy="-4.68" r="3.12" fill="#1F2937" /><circle cx="7.02" cy="-4.68" r="3.12" fill="#1F2937" /><path d="M -14.82 5.46 Q 0 13.26 14.82 5.46" fill="none" stroke="#1F2937" stroke-width="2.2" stroke-linecap="round" /></g>
    <g transform="translate(909.89 67.11) rotate(5.73)"><circle cx="0" cy="0" r="18.05" fill="#F87171" /><circle cx="7.22" cy="-0.72" r="15.16" fill="#0B1A34" /></g>
    <g transform="translate(678.41 268.82) rotate(-5.10)"><circle cx="0" cy="0" r="16.18" fill="#C084FC" stroke="rgba(255,255,255,0.55)" stroke-width="1.4" /><circle cx="-5.82" cy="-3.88" r="2.59" fill="#1F2937" /><circle cx="5.82" cy="-3.88" r="2.59" fill="#1F2937" /><path d="M -12.29 4.53 Q 0 11.00 12.29 4.53" fill="none" stroke="#1F2937" stroke-width="2.2" stroke-linecap="round" /></g>
    <g transform="translate(520.66 201.87) rotate(-3.36)"><circle cx="0" cy="0" r="14.24" fill="#A78BFA" /><circle cx="5.70" cy="-0.57" r="11.96" fill="#0B1A34" /></g>
    <g transform="translate(603.65 139.36) rotate(-0.93)"><circle cx="0" cy="0" r="15.46" fill="#A78BFA" stroke="rgba(255,255,255,0.55)" stroke-width="1.4" /><circle cx="-5.56" cy="-3.71" r="2.47" fill="#1F2937" /><circle cx="5.56" cy="-3.71" r="2.47" fill="#1F2937" /><path d="M -11.75 4.33 Q 0 10.51 11.75 4.33" fill="none" stroke="#1F2937" stroke-width="2.2" stroke-linecap="round" /></g>
    <g transform="translate(670.79 326.62) rotate(5.96)"><circle cx="0" cy="0" r="16.16" fill="#4ADE80" stroke="rgba(255,255,255,0.55)" stroke-width="1.4" /></g>
    <g transform="translate(905.40 329.95) rotate(23.58)"><rect x="-16.75" y="-16.75" width="33.50" height="33.50" rx="3.64" fill="#FBBF24" stroke="rgba(255,255,255,0.55)" stroke-width="1.4" /></g>
    <g transform="translate(50.79 135.10) rotate(-6.93)"><rect x="-15.49" y="-15.49" width="30.99" height="30.99" rx="3.37" fill="#22D3EE" stroke="rgba(255,255,255,0.55)" stroke-width="1.4" /></g>
    <g transform="translate(838.06 402.66) rotate(-2.64)"><rect x="-18.48" y="-18.48" width="36.96" height="36.96" rx="4.02" fill="#22D3EE" stroke="rgba(255,255,255,0.55)" stroke-width="1.4" /></g>
    <g transform="translate(516.64 337.03) rotate(-1.82)"><circle cx="0" cy="0" r="17.99" fill="#22D3EE" stroke="rgba(255,255,255,0.55)" stroke-width="1.4" /><circle cx="-6.47" cy="-4.32" r="2.88" fill="#1F2937" /><circle cx="6.47" cy="-4.32" r="2.88" fill="#1F2937" /><path d="M -13.67 5.04 Q 0 12.23 13.67 5.04" fill="none" stroke="#1F2937" stroke-width="2.2" stroke-linecap="round" /></g>
    <g transform="translate(355.43 134.33) rotate(-25.53)"><circle cx="0" cy="0" r="19.48" fill="#A78BFA" stroke="rgba(255,255,255,0.55)" stroke-width="1.4" /></g>
    <g transform="translate(208.35 62.87) rotate(15.10)"><rect x="-16.36" y="-16.36" width="32.72" height="32.72" rx="3.56" fill="#A78BFA" stroke="rgba(255,255,255,0.55)" stroke-width="1.4" /></g>
    <g transform="translate(282.26 535.84) rotate(3.35)"><circle cx="0" cy="0" r="15.83" fill="#FB7185" stroke="rgba(255,255,255,0.55)" stroke-width="1.4" /><circle cx="-5.70" cy="-3.80" r="2.53" fill="#1F2937" /><circle cx="5.70" cy="-3.80" r="2.53" fill="#1F2937" /><path d="M -12.03 4.43 Q 0 10.77 12.03 4.43" fill="none" stroke="#1F2937" stroke-width="2.2" stroke-linecap="round" /></g>
    <g transform="translate(667.79 64.82) rotate(11.69)"><rect x="-14.29" y="-14.29" width="28.57" height="28.57" rx="3.11" fill="#FBBF24" stroke="rgba(255,255,255,0.55)" stroke-width="1.4" /></g>
    <g transform="translate(288.27 399.16) rotate(7.44)"><polygon points="0,-17.19 17.19,0 0,17.19 -17.19,0" fill="#4ADE80" stroke="rgba(255,255,255,0.55)" stroke-width="1.4" /></g>
    <g transform="translate(602.71 65.67) rotate(10.91)"><rect x="-13.70" y="-13.70" width="27.39" height="27.39" rx="2.98" fill="#A78BFA" stroke="rgba(255,255,255,0.55)" stroke-width="1.4" /></g>
    <g transform="translate(757.07 326.01) rotate(1.43)"><circle cx="0" cy="0" r="20.35" fill="#F87171" stroke="rgba(255,255,255,0.55)" stroke-width="1.4" /><circle cx="-7.33" cy="-4.89" r="3.26" fill="#1F2937" /><circle cx="7.33" cy="-4.89" r="3.26" fill="#1F2937" /><path d="M -15.47 5.70 Q 0 13.84 15.47 5.70" fill="none" stroke="#1F2937" stroke-width="2.2" stroke-linecap="round" /></g>
    <g transform="translate(59.52 399.56) rotate(-7.62)"><circle cx="0" cy="0" r="14.96" fill="#60A5FA" /><circle cx="5.98" cy="-0.60" r="12.57" fill="#0B1A34" /></g>
    <g transform="translate(908.91 535.35) rotate(-3.29)"><circle cx="0" cy="0" r="20.46" fill="#FB7185" stroke="rgba(255,255,255,0.55)" stroke-width="1.4" /></g>
  </g>
</svg>
