<svg xmlns="http://www.w3.org/2000/svg" width="960" height="600" viewBox="0 0 960 600">
  <defs>
    <linearGradient id="bg69" x1="0%" y1="0%" x2="100%" y2="100%">
      <stop offset="0%" stop-color="#0F172A" />
      <stop offset="100%" stop-color="#1D4ED8" />
    </linearGradient>
    <filter id="shadow69" x="-20%" y="-20%" width="140%" height="140%">
      <feDropShadow dx="0" dy="2" stdDeviation="1.8" flood-color="rgba(0,0,0,0.36)" />
    </filter>
  </defs>

  <rect width="960" height="600" fill="url(#bg69)" />
  <rect x="24" y="24" width="912" height="552" rx="20" fill="rgba(255,255,255,0.045)" stroke="rgba(255,255,255,0.22)" />
  <g filter="url(#shadow69)">
    <g transform="translate(123.97 391.86) rotate(-4.06)"><circle cx="0" cy="0" r="16.69" fill="#60A5FA" stroke="rgba(255,255,255,0.55)" stroke-width="1.4" /><circle cx="-6.01" cy="-4.01" r="2.67" fill="#1F2937" /><circle cx="6.01" cy="-4.01" r="2.67" fill="#1F2937" /><path d="M -12.69 4.67 Q 0 11.35 12.69 4.67" fill="none" stroke="#1F2937" stroke-width="2.2" stroke-linecap="round" /></g>
    <g transform="translate(599.01 64.26) rotate(11.60)"><rect x="-18.58" y="-5.48" width="37.15" height="10.95" rx="5.48" fill="#A78BFA" /><rect x="-5.48" y="-18.58" width="10.95" height="37.15" rx="5.48" fill="#A78BFA" /></g>
    <g transform="translate(51.15 208.88) rotate(-2.02)"><circle cx="0" cy="0" r="15.63" fill="#FBBF24" /><circle cx="6.25" cy="-0.63" r="13.13" fill="#0B1A34" /></g>
    <g transform="translate(747.99 334.12) rotate(3.01)"><circle cx="0" cy="0" r="18.06" fill="#FBBF24" /><circle cx="7.23" cy="-0.72" r="15.17" fill="#0B1A34" /></g>
    <g transform="translate(745.56 69.96) rotate(7.23)"><circle cx="0" cy="0" r="16.95" fill="#C084FC" /><circle cx="6.78" cy="-0.68" r="14.24" fill="#0B1A34" /></g>
    <g transform="translate(598.25 194.71) rotate(2.50)"><circle cx="0" cy="0" r="17.81" fill="#A78BFA" stroke="rgba(255,255,255,0.55)" stroke-width="1.4" /><circle cx="-6.41" cy="-4.28" r="2.85" fill="#1F2937" /><circle cx="6.41" cy="-4.28" r="2.85" fill="#1F2937" /><path d="M -13.54 4.99 Q 0 12.11 13.54 4.99" fill="none" stroke="#1F2937" stroke-width="2.2" stroke-linecap="round" /></g>
    <g transform="translate(445.23 335.75) rotate(2.62)"><circle cx="0" cy="0" r="16.75" fill="#FB7185" stroke="rgba(255,255,255,0.55)" stroke-width="1.4" /><circle cx="-6.03" cy="-4.02" r="2.68" fill="#1F2937" /><circle cx="6.03" cy="-4.02" r="2.68" fill="#1F2937" /><path d="M -12.73 4.69 Q 0 11.39 12.73 4.69" fill="none" stroke="#1F2937" stroke-width="2.2" stroke-linecap="round" /></g>
    <g transform="translate(905.53 268.95) rotate(-6.57)"><circle cx="0" cy="0" r="16.19" fill="#60A5FA" /><circle cx="6.48" cy="-0.65" r="13.60" fill="#0B1A34" /></g>
    <g transform="translate(360.20 397.34) rotate(-22.19)"><polygon points="0,-19.33 19.33,0 0,19.33 -19.33,0" fill="#34D399" stroke="rgba(255,255,255,0.55)" stroke-width="1.4" /></g>
    <g transform="translate(826.82 339.24) rotate(-9.98)"><rect x="-18.76" y="-5.53" width="37.53" height="11.06" rx="5.53" fill="#FBBF24" /><rect x="-5.53" y="-18.76" width="11.06" height="37.53" rx="5.53" fill="#FBBF24" /></g>
    <g transform="translate(287.77 267.02) rotate(9.65)"><rect x="-15.97" y="-4.71" width="31.94" height="9.41" rx="4.71" fill="#F97316" /><rect x="-4.71" y="-15.97" width="9.41" height="31.94" rx="4.71" fill="#F97316" /></g>
    <g transform="translate(827.46 392.12) rotate(-27.02)"><rect x="-13.72" y="-4.04" width="27.44" height="8.09" rx="4.04" fill="#22D3EE" /><rect x="-4.04" y="-13.72" width="8.09" height="27.44" rx="4.04" fill="#22D3EE" /></g>
    <g transform="translate(448.31 142.98) rotate(5.65)"><circle cx="0" cy="0" r="14.38" fill="#22D3EE" /><circle cx="5.75" cy="-0.58" r="12.08" fill="#0B1A34" /></g>
    <g transform="translate(599.06 531.08) rotate(-2.53)"><circle cx="0" cy="0" r="18.34" fill="#4ADE80" stroke="rgba(255,255,255,0.55)" stroke-width="1.4" /><circle cx="-6.60" cy="-4.40" r="2.93" fill="#1F2937" /><circle cx="6.60" cy="-4.40" r="2.93" fill="#1F2937" /><path d="M -13.94 5.13 Q 0 12.47 13.94 5.13" fill="none" stroke="#1F2937" stroke-width="2.2" stroke-linecap="round" /></g>
    <g transform="translate(520.12 194.02) rotate(-5.88)"><circle cx="0" cy="0" r="19.12" fill="#C084FC" /><circle cx="7.65" cy="-0.76" r="16.06" fill="#0B1A34" /></g>
    <g transform="translate(757.11 392.41) rotate(-4.19)"><circle cx="0" cy="0" r="16.15" fill="#FBBF24" stroke="rgba(255,255,255,0.55)" stroke-width="1.4" /><circle cx="-5.82" cy="-3.88" r="2.58" fill="#1F2937" /><circle cx="5.82" cy="-3.88" r="2.58" fill="#1F2937" /><path d="M -12.28 4.52 Q 0 10.98 12.28 4.52" fill="none" stroke="#1F2937" stroke-width="2.2" stroke-linecap="round" /></g>
    <g transform="translate(914.20 463.28) rotate(11.58)"><rect x="-15.91" y="-4.69" width="31.82" height="9.38" rx="4.69" fill="#F87171" /><rect x="-4.69" y="-15.91" width="9.38" height="31.82" rx="4.69" fill="#F87171" /></g>
    <g transform="translate(369.69 268.57) rotate(4.58)"><circle cx="0" cy="0" r="14.02" fill="#34D399" /><circle cx="5.61" cy="-0.56" r="11.78" fill="#0B1A34" /></g>
    <g transform="translate(131.80 461.03) rotate(3.69)"><circle cx="0" cy="0" r="17.09" fill="#60A5FA" stroke="rgba(255,255,255,0.55)" stroke-width="1.4" /><circle cx="-6.15" cy="-4.10" r="2.73" fill="#1F2937" /><circle cx="6.15" cy="-4.10" r="2.73" fill="#1F2937" /><path d="M -12.99 4.78 Q 0 11.62 12.99 4.78" fill="none" stroke="#1F2937" stroke-width="2.2" stroke-linecap="round" /></g>
    <g transform="translate(278.79 138.61) rotate(-11.94)"><polygon points="0,-18.08 18.08,0 0,18.08 -18.08,0" fill="#22D3EE" stroke="rgba(255,255,255,0.55)" stroke-width="1.4" /></g>
    <g transform="translate(830.48 267.34) rotate(-18.32)"><polygon points="0,-17.74 17.74,0 0,17.74 -17.74,0" fill="#4ADE80" stroke="rgba(255,255,255,0.55)" stroke-width="1.4" /></g>
  </g>
</svg>
