<svg xmlns="http://www.w3.org/2000/svg" width="960" height="600" viewBox="0 0 960 600">
  <defs>
    <linearGradient id="bg13" x1="0%" y1="0%" x2="100%" y2="100%">
      <stop offset="0%" stop-color="#0F172A" />
      <stop offset="100%" stop-color="#1D4ED8" />
    </linearGradient>
    <filter id="shadow13" x="-20%" y="-20%" width="140%" height="140%">
      <feDropShadow dx="0" dy="2" stdDeviation="1.8" flood-color="rgba(0,0,0,0.36)" />
    </filter>
  </defs>

  <rect width="960" height="600" fill="url(#bg13)" />
  <rect x="24" y="24" width="912" height="552" rx="20" fill="rgba(255,255,255,0.045)" stroke="rgba(255,255,255,0.22)" />
  <g filter="url(#shadow13)">
    <g transform="translate(751.47 523.02) rotate(-0.77)"><rect x="-18.06" y="-18.06" width="36.11" height="36.11" rx="3.93" fill="#C084FC" stroke="rgba(255,255,255,0.55)" stroke-width="1.4" /></g>
    <g transform="translate(281.51 334.06) rotate(25.87)"><circle cx="0" cy="0" r="17.46" fill="#4ADE80" stroke="rgba(255,255,255,0.55)" stroke-width="1.4" /></g>
    <g transform="translate(206.97 141.62) rotate(8.27)"><rect x="-16.04" y="-16.04" width="32.07" height="32.07" rx="3.49" fill="#F87171" stroke="rgba(255,255,255,0.55)" stroke-width="1.4" /></g>
    <g transform="translate(439.95 402.54) rotate(-7.87)"><path d="M 0 13.75 C -18.01 1.64, -19.65 -11.46, -7.86 -2.62 C -0.65 -13.75, 0.65 -13.75, 7.86 -2.62 C 19.65 -11.46, 18.01 1.64, 0 13.75 Z" fill="#F97316" stroke="rgba(255,255,255,0.55)" stroke-width="1.2" /></g>
    <g transform="translate(591.78 75.52) rotate(21.78)"><rect x="-17.01" y="-17.01" width="34.02" height="34.02" rx="3.70" fill="#A78BFA" stroke="rgba(255,255,255,0.55)" stroke-width="1.4" /></g>
    <g transform="translate(753.01 336.43) rotate(0.12)"><rect x="-16.02" y="-16.02" width="32.05" height="32.05" rx="3.48" fill="#FB7185" stroke="rgba(255,255,255,0.55)" stroke-width="1.4" /></g>
    <g transform="translate(669.54 271.58) rotate(21.24)"><polygon points="0,-16.74 16.74,0 0,16.74 -16.74,0" fill="#F87171" stroke="rgba(255,255,255,0.55)" stroke-width="1.4" /></g>
    <g transform="translate(48.17 339.23) rotate(-16.84)"><polygon points="0.00,-19.17 4.92,-6.77 18.23,-5.92 7.95,2.58 11.27,15.51 0.00,8.36 -11.27,15.51 -7.95,2.58 -18.23,-5.92 -4.92,-6.77" fill="#F87171" stroke="rgba(255,255,255,0.55)" stroke-width="1.4" /></g>
    <g transform="translate(669.74 325.07) rotate(3.74)"><rect x="-13.15" y="-13.15" width="26.30" height="26.30" rx="2.86" fill="#A78BFA" stroke="rgba(255,255,255,0.55)" stroke-width="1.4" /></g>
    <g transform="translate(676.42 393.84) rotate(-9.71)"><polygon points="0.00,-21.82 5.60,-7.70 20.75,-6.74 9.05,2.94 12.82,17.65 0.00,9.52 -12.82,17.65 -9.05,2.94 -20.75,-6.74 -5.60,-7.70" fill="#34D399" stroke="rgba(255,255,255,0.55)" stroke-width="1.4" /></g>
    <g transform="translate(278.13 403.61) rotate(-1.85)"><path d="M 0 13.60 C -17.81 1.62, -19.43 -11.33, -7.77 -2.59 C -0.65 -13.60, 0.65 -13.60, 7.77 -2.59 C 19.43 -11.33, 17.81 1.62, 0 13.60 Z" fill="#60A5FA" stroke="rgba(255,255,255,0.55)" stroke-width="1.2" /></g>
    <g transform="translate(520.30 128.18) rotate(26.67)"><path d="M 0 13.83 C -18.12 1.65, -19.76 -11.53, -7.90 -2.63 C -0.66 -13.83, 0.66 -13.83, 7.90 -2.63 C 19.76 -11.53, 18.12 1.65, 0 13.83 Z" fill="#A78BFA" stroke="rgba(255,255,255,0.55)" stroke-width="1.2" /></g>
    <g transform="translate(358.14 531.78) rotate(13.42)"><polygon points="0.00,-22.28 5.71,-7.87 21.19,-6.89 9.25,3.00 13.10,18.03 0.00,9.72 -13.10,18.03 -9.25,3.00 -21.19,-6.89 -5.71,-7.87" fill="#C084FC" stroke="rgba(255,255,255,0.55)" stroke-width="1.4" /></g>
    <g transform="translate(901.42 201.14) rotate(23.17)"><circle cx="0" cy="0" r="14.98" fill="#FBBF24" stroke="rgba(255,255,255,0.55)" stroke-width="1.4" /></g>
    <g transform="translate(437.49 527.11) rotate(-21.32)"><path d="M 0 17.55 C -22.99 2.09, -25.08 -14.63, -10.03 -3.34 C -0.84 -17.55, 0.84 -17.55, 10.03 -3.34 C 25.08 -14.63, 22.99 2.09, 0 17.55 Z" fill="#F87171" stroke="rgba(255,255,255,0.55)" stroke-width="1.2" /></g>
    <g transform="translate(131.98 332.11) rotate(-5.37)"><path d="M 0 12.98 C -17.00 1.55, -18.55 -10.82, -7.42 -2.47 C -0.62 -12.98, 0.62 -12.98, 7.42 -2.47 C 18.55 -10.82, 17.00 1.55, 0 12.98 Z" fill="#C084FC" stroke="rgba(255,255,255,0.55)" stroke-width="1.2" /></g>
    <g transform="translate(134.40 274.94) rotate(-0.95)"><rect x="-17.85" y="-17.85" width="35.70" height="35.70" rx="3.88" fill="#F97316" stroke="rgba(255,255,255,0.55)" stroke-width="1.4" /></g>
    <g transform="translate(747.95 64.65) rotate(14.33)"><path d="M 0 12.91 C -16.90 1.54, -18.44 -10.76, -7.38 -2.46 C -0.61 -12.91, 0.61 -12.91, 7.38 -2.46 C 18.44 -10.76, 16.90 1.54, 0 12.91 Z" fill="#F97316" stroke="rgba(255,255,255,0.55)" stroke-width="1.2" /></g>
  </g>
</svg>
