<svg xmlns="http://www.w3.org/2000/svg" width="960" height="600" viewBox="0 0 960 600">
  <defs>
    <linearGradient id="bg65" x1="0%" y1="0%" x2="100%" y2="100%">
      <stop offset="0%" stop-color="#0F172A" />
      <stop offset="100%" stop-color="#1D4ED8" />
    </linearGradient>
    <filter id="shadow65" x="-20%" y="-20%" width="140%" height="140%">
      <feDropShadow dx="0" dy="2" stdDeviation="1.8" flood-color="rgba(0,0,0,0.36)" />
    </filter>
  </defs>

  <rect width="960" height="600" fill="url(#bg65)" />
  <rect x="24" y="24" width="912" height="552" rx="20" fill="rgba(255,255,255,0.045)" stroke="rgba(255,255,255,0.22)" />
  <g filter="url(#shadow65)">
    <g transform="translate(905.87 274.88) rotate(27.96)"><path d="M 0 11.85 C -15.52 1.41, -16.93 -9.88, -6.77 -2.26 C -0.56 -11.85, 0.56 -11.85, 6.77 -2.26 C 16.93 -9.88, 15.52 1.41, 0 11.85 Z" fill="#22D3EE" stroke="rgba(255,255,255,0.55)" stroke-width="1.2" /></g>
    <g transform="translate(128.88 205.95) rotate(-24.77)"><polygon points="0,-22.41 20.09,15.46 -20.09,15.46" fill="#A78BFA" stroke="rgba(255,255,255,0.55)" stroke-width="1.4" /></g>
    <g transform="translate(604.27 273.99) rotate(25.60)"><polygon points="0,-18.61 18.61,0 0,18.61 -18.61,0" fill="#F97316" stroke="rgba(255,255,255,0.55)" stroke-width="1.4" /></g>
    <g transform="translate(676.81 135.67) rotate(-2.73)"><path d="M 0 15.86 C -20.77 1.89, -22.66 -13.22, -9.06 -3.02 C -0.76 -15.86, 0.76 -15.86, 9.06 -3.02 C 22.66 -13.22, 20.77 1.89, 0 15.86 Z" fill="#C084FC" stroke="rgba(255,255,255,0.55)" stroke-width="1.2" /></g>
    <g transform="translate(201.28 466.32) rotate(-11.25)"><path d="M 0 12.31 C -16.12 1.47, -17.59 -10.26, -7.04 -2.35 C -0.59 -12.31, 0.59 -12.31, 7.04 -2.35 C 17.59 -10.26, 16.12 1.47, 0 12.31 Z" fill="#A78BFA" stroke="rgba(255,255,255,0.55)" stroke-width="1.2" /></g>
    <g transform="translate(291.25 127.84) rotate(6.60)"><polygon points="-20.53,-7.39 3.28,-7.39 3.28,-15.60 22.58,0.00 3.28,15.60 3.28,7.39 -20.53,7.39" fill="#4ADE80" stroke="rgba(255,255,255,0.55)" stroke-width="1.2" /></g>
    <g transform="translate(127.96 138.90) rotate(19.03)"><rect x="-15.59" y="-4.59" width="31.17" height="9.19" rx="4.59" fill="#FB7185" /><rect x="-4.59" y="-15.59" width="9.19" height="31.17" rx="4.59" fill="#FB7185" /></g>
    <g transform="translate(754.52 77.30) rotate(-14.84)"><rect x="-16.84" y="-4.96" width="33.67" height="9.92" rx="4.96" fill="#C084FC" /><rect x="-4.96" y="-16.84" width="9.92" height="33.67" rx="4.96" fill="#C084FC" /></g>
    <g transform="translate(57.51 194.77) rotate(-7.38)"><path d="M 0 15.09 C -19.76 1.80, -21.56 -12.57, -8.62 -2.87 C -0.72 -15.09, 0.72 -15.09, 8.62 -2.87 C 21.56 -12.57, 19.76 1.80, 0 15.09 Z" fill="#22D3EE" stroke="rgba(255,255,255,0.55)" stroke-width="1.2" /></g>
    <g transform="translate(214.57 133.15) rotate(25.62)"><polygon points="-19.55,-7.04 3.13,-7.04 3.13,-14.86 21.50,0.00 3.13,14.86 3.13,7.04 -19.55,7.04" fill="#C084FC" stroke="rgba(255,255,255,0.55)" stroke-width="1.2" /></g>
    <g transform="translate(368.75 402.96) rotate(-27.59)"><path d="M 0 12.93 C -16.93 1.54, -18.47 -10.78, -7.39 -2.46 C -0.62 -12.93, 0.62 -12.93, 7.39 -2.46 C 18.47 -10.78, 16.93 1.54, 0 12.93 Z" fill="#22D3EE" stroke="rgba(255,255,255,0.55)" stroke-width="1.2" /></g>
    <g transform="translate(210.28 208.20) rotate(24.74)"><path d="M 0 16.18 C -21.19 1.93, -23.12 -13.49, -9.25 -3.08 C -0.77 -16.18, 0.77 -16.18, 9.25 -3.08 C 23.12 -13.49, 21.19 1.93, 0 16.18 Z" fill="#F97316" stroke="rgba(255,255,255,0.55)" stroke-width="1.2" /></g>
    <g transform="translate(744.65 264.65) rotate(6.87)"><circle cx="0" cy="0" r="15.86" fill="#C084FC" stroke="rgba(255,255,255,0.55)" stroke-width="1.4" /><circle cx="-5.71" cy="-3.81" r="2.54" fill="#1F2937" /><circle cx="5.71" cy="-3.81" r="2.54" fill="#1F2937" /><path d="M -12.05 4.44 Q 0 10.79 12.05 4.44" fill="none" stroke="#1F2937" stroke-width="2.2" stroke-linecap="round" /></g>
    <g transform="translate(600.56 531.03) rotate(-7.07)"><polygon points="-20.23,-7.28 3.24,-7.28 3.24,-15.38 22.26,0.00 3.24,15.38 3.24,7.28 -20.23,7.28" fill="#A78BFA" stroke="rgba(255,255,255,0.55)" stroke-width="1.2" /></g>
    <g transform="translate(47.49 329.58) rotate(5.20)"><polygon points="0,-20.12 18.04,13.88 -18.04,13.88" fill="#34D399" stroke="rgba(255,255,255,0.55)" stroke-width="1.4" /></g>
    <g transform="translate(362.88 533.69) rotate(-4.97)"><path d="M 0 12.78 C -16.73 1.52, -18.25 -10.65, -7.30 -2.43 C -0.61 -12.78, 0.61 -12.78, 7.30 -2.43 C 18.25 -10.65, 16.73 1.52, 0 12.78 Z" fill="#22D3EE" stroke="rgba(255,255,255,0.55)" stroke-width="1.2" /></g>
    <g transform="translate(833.47 331.97) rotate(-3.36)"><circle cx="0" cy="0" r="18.88" fill="#4ADE80" /><circle cx="7.55" cy="-0.76" r="15.86" fill="#0B1A34" /></g>
    <g transform="translate(51.00 525.41) rotate(5.87)"><polygon points="0,-19.19 17.20,13.23 -17.20,13.23" fill="#FB7185" stroke="rgba(255,255,255,0.55)" stroke-width="1.4" /></g>
    <g transform="translate(834.28 471.25) rotate(5.73)"><path d="M 0 12.77 C -16.72 1.52, -18.24 -10.64, -7.30 -2.43 C -0.61 -12.77, 0.61 -12.77, 7.30 -2.43 C 18.24 -10.64, 16.72 1.52, 0 12.77 Z" fill="#A78BFA" stroke="rgba(255,255,255,0.55)" stroke-width="1.2" /></g>
    <g transform="translate(292.22 270.26) rotate(-19.44)"><polygon points="-15.63,-5.63 2.50,-5.63 2.50,-11.88 17.20,0.00 2.50,11.88 2.50,5.63 -15.63,5.63" fill="#60A5FA" stroke="rgba(255,255,255,0.55)" stroke-width="1.2" /></g>
    <g transform="translate(446.64 333.20) rotate(-22.88)"><path d="M 0 14.24 C -18.64 1.69, -20.34 -11.86, -8.13 -2.71 C -0.68 -14.24, 0.68 -14.24, 8.13 -2.71 C 20.34 -11.86, 18.64 1.69, 0 14.24 Z" fill="#34D399" stroke="rgba(255,255,255,0.55)" stroke-width="1.2" /></g>
    <g transform="translate(200.95 406.55) rotate(-4.09)"><circle cx="0" cy="0" r="20.08" fill="#F97316" /><circle cx="8.03" cy="-0.80" r="16.87" fill="#0B1A34" /></g>
    <g transform="translate(667.51 392.24) rotate(10.14)"><path d="M 0 13.45 C -17.62 1.60, -19.22 -11.21, -7.69 -2.56 C -0.64 -13.45, 0.64 -13.45, 7.69 -2.56 C 19.22 -11.21, 17.62 1.60, 0 13.45 Z" fill="#F87171" stroke="rgba(255,255,255,0.55)" stroke-width="1.2" /></g>
    <g transform="translate(822.70 262.17) rotate(4.58)"><polygon points="0,-17.40 15.60,12.00 -15.60,12.00" fill="#A78BFA" stroke="rgba(255,255,255,0.55)" stroke-width="1.4" /></g>
    <g transform="translate(447.81 537.32) rotate(24.72)"><polygon points="0,-16.16 16.16,0 0,16.16 -16.16,0" fill="#A78BFA" stroke="rgba(255,255,255,0.55)" stroke-width="1.4" /></g>
    <g transform="translate(287.90 397.34) rotate(5.17)"><polygon points="-19.98,-7.19 3.20,-7.19 3.20,-15.19 21.98,0.00 3.20,15.19 3.20,7.19 -19.98,7.19" fill="#22D3EE" stroke="rgba(255,255,255,0.55)" stroke-width="1.2" /></g>
    <g transform="translate(445.11 402.78) rotate(21.73)"><polygon points="0,-16.19 16.19,0 0,16.19 -16.19,0" fill="#22D3EE" stroke="rgba(255,255,255,0.55)" stroke-width="1.4" /></g>
    <g transform="translate(58.31 399.26) rotate(24.80)"><path d="M 0 17.35 C -22.71 2.06, -24.78 -14.45, -9.91 -3.30 C -0.83 -17.35, 0.83 -17.35, 9.91 -3.30 C 24.78 -14.45, 22.71 2.06, 0 17.35 Z" fill="#60A5FA" stroke="rgba(255,255,255,0.55)" stroke-width="1.2" /></g>
    <g transform="translate(199.87 75.74) rotate(2.86)"><polygon points="-20.82,-7.50 3.33,-7.50 3.33,-15.82 22.90,0.00 3.33,15.82 3.33,7.50 -20.82,7.50" fill="#C084FC" stroke="rgba(255,255,255,0.55)" stroke-width="1.2" /></g>
    <g transform="translate(755.53 528.49) rotate(4.82)"><circle cx="0" cy="0" r="17.05" fill="#34D399" /><circle cx="6.82" cy="-0.68" r="14.32" fill="#0B1A34" /></g>
    <g transform="translate(822.79 398.16) rotate(6.11)"><path d="M 0 14.31 C -18.73 1.70, -20.44 -11.92, -8.17 -2.72 C -0.68 -14.31, 0.68 -14.31, 8.17 -2.72 C 20.44 -11.92, 18.73 1.70, 0 14.31 Z" fill="#C084FC" stroke="rgba(255,255,255,0.55)" stroke-width="1.2" /></g>
    <g transform="translate(136.90 72.64) rotate(23.29)"><path d="M 0 16.97 C -22.23 2.02, -24.25 -14.14, -9.70 -3.23 C -0.81 -16.97, 0.81 -16.97, 9.70 -3.23 C 24.25 -14.14, 22.23 2.02, 0 16.97 Z" fill="#60A5FA" stroke="rgba(255,255,255,0.55)" stroke-width="1.2" /></g>
    <g transform="translate(759.08 132.63) rotate(19.94)"><path d="M 0 14.12 C -18.49 1.68, -20.17 -11.77, -8.07 -2.69 C -0.67 -14.12, 0.67 -14.12, 8.07 -2.69 C 20.17 -11.77, 18.49 1.68, 0 14.12 Z" fill="#34D399" stroke="rgba(255,255,255,0.55)" stroke-width="1.2" /></g>
    <g transform="translate(673.84 75.63) rotate(-1.66)"><circle cx="0" cy="0" r="17.00" fill="#60A5FA" stroke="rgba(255,255,255,0.55)" stroke-width="1.4" /><circle cx="-6.12" cy="-4.08" r="2.72" fill="#1F2937" /><circle cx="6.12" cy="-4.08" r="2.72" fill="#1F2937" /><path d="M -12.92 4.76 Q 0 11.56 12.92 4.76" fill="none" stroke="#1F2937" stroke-width="2.2" stroke-linecap="round" /></g>
    <g transform="translate(750.08 458.48) rotate(9.99)"><polygon points="0,-14.59 14.59,0 0,14.59 -14.59,0" fill="#FB7185" stroke="rgba(255,255,255,0.55)" stroke-width="1.4" /></g>
    <g transform="translate(357.03 260.22) rotate(-23.79)"><path d="M 0 13.64 C -17.86 1.62, -19.48 -11.36, -7.79 -2.60 C -0.65 -13.64, 0.65 -13.64, 7.79 -2.60 C 19.48 -11.36, 17.86 1.62, 0 13.64 Z" fill="#F87171" stroke="rgba(255,255,255,0.55)" stroke-width="1.2" /></g>
    <g transform="translate(125.23 396.77) rotate(1.63)"><circle cx="0" cy="0" r="19.44" fill="#4ADE80" /><circle cx="7.78" cy="-0.78" r="16.33" fill="#0B1A34" /></g>
    <g transform="translate(364.01 69.31) rotate(-22.30)"><path d="M 0 12.80 C -16.76 1.52, -18.28 -10.67, -7.31 -2.44 C -0.61 -12.80, 0.61 -12.80, 7.31 -2.44 C 18.28 -10.67, 16.76 1.52, 0 12.80 Z" fill="#FBBF24" stroke="rgba(255,255,255,0.55)" stroke-width="1.2" /></g>
    <g transform="translate(830.68 522.54) rotate(7.02)"><circle cx="0" cy="0" r="20.81" fill="#22D3EE" /><circle cx="8.32" cy="-0.83" r="17.48" fill="#0B1A34" /></g>
    <g transform="translate(750.61 330.31) rotate(-0.61)"><path d="M 0 15.02 C -19.66 1.79, -21.45 -12.51, -8.58 -2.86 C -0.72 -15.02, 0.72 -15.02, 8.58 -2.86 C 21.45 -12.51, 19.66 1.79, 0 15.02 Z" fill="#22D3EE" stroke="rgba(255,255,255,0.55)" stroke-width="1.2" /></g>
  </g>
</svg>
