<svg xmlns="http://www.w3.org/2000/svg" width="960" height="600" viewBox="0 0 960 600">
  <defs>
    <linearGradient id="bg115" x1="0%" y1="0%" x2="100%" y2="100%">
      <stop offset="0%" stop-color="#0F172A" />
      <stop offset="100%" stop-color="#1D4ED8" />
    </linearGradient>
    <filter id="shadow115" x="-20%" y="-20%" width="140%" height="140%">
      <feDropShadow dx="0" dy="2" stdDeviation="1.8" flood-color="rgba(0,0,0,0.36)" />
    </filter>
  </defs>

  <rect width="960" height="600" fill="url(#bg115)" />
  <rect x="24" y="24" width="912" height="552" rx="20" fill="rgba(255,255,255,0.045)" stroke="rgba(255,255,255,0.22)" />
  <g filter="url(#shadow115)">
    <g transform="translate(446.36 199.90) rotate(11.00)"><path d="M 0 17.25 C -22.59 2.05, -24.65 -14.38, -9.86 -3.29 C -0.82 -17.25, 0.82 -17.25, 9.86 -3.29 C 24.65 -14.38, 22.59 2.05, 0 17.25 Z" fill="#A78BFA" stroke="rgba(255,255,255,0.55)" stroke-width="1.2" /></g>
    <g transform="translate(282.47 336.74) rotate(8.31)"><circle cx="0" cy="0" r="20.67" fill="#60A5FA" stroke="rgba(255,255,255,0.55)" stroke-width="1.4" /></g>
    <g transform="translate(56.96 271.43) rotate(-15.65)"><path d="M 0 16.58 C -21.72 1.97, -23.69 -13.82, -9.48 -3.16 C -0.79 -16.58, 0.79 -16.58, 9.48 -3.16 C 23.69 -13.82, 21.72 1.97, 0 16.58 Z" fill="#60A5FA" stroke="rgba(255,255,255,0.55)" stroke-width="1.2" /></g>
    <g transform="translate(210.47 131.48) rotate(11.61)"><polygon points="-19.94,-7.18 3.19,-7.18 3.19,-15.16 21.94,0.00 3.19,15.16 3.19,7.18 -19.94,7.18" fill="#34D399" stroke="rgba(255,255,255,0.55)" stroke-width="1.2" /></g>
    <g transform="translate(757.18 390.92) rotate(1.98)"><circle cx="0" cy="0" r="14.28" fill="#A78BFA" /><circle cx="5.71" cy="-0.57" r="12.00" fill="#0B1A34" /></g>
    <g transform="translate(915.30 339.51) rotate(-12.19)"><polygon points="0.00,-16.82 4.32,-5.94 16.00,-5.20 6.98,2.27 9.89,13.61 0.00,7.34 -9.89,13.61 -6.98,2.27 -16.00,-5.20 -4.32,-5.94" fill="#F87171" stroke="rgba(255,255,255,0.55)" stroke-width="1.4" /></g>
    <g transform="translate(128.19 465.51) rotate(-12.33)"><circle cx="0" cy="0" r="20.27" fill="#F87171" stroke="rgba(255,255,255,0.55)" stroke-width="1.4" /></g>
    <g transform="translate(905.25 396.66) rotate(1.05)"><circle cx="0" cy="0" r="18.11" fill="#FBBF24" stroke="rgba(255,255,255,0.55)" stroke-width="1.4" /></g>
    <g transform="translate(596.25 129.97) rotate(24.12)"><circle cx="0" cy="0" r="18.26" fill="#A78BFA" stroke="rgba(255,255,255,0.55)" stroke-width="1.4" /></g>
    <g transform="translate(55.46 197.38) rotate(-13.78)"><path d="M 0 13.43 C -17.59 1.60, -19.19 -11.19, -7.68 -2.56 C -0.64 -13.43, 0.64 -13.43, 7.68 -2.56 C 19.19 -11.19, 17.59 1.60, 0 13.43 Z" fill="#F87171" stroke="rgba(255,255,255,0.55)" stroke-width="1.2" /></g>
    <g transform="translate(677.79 326.83) rotate(-17.69)"><circle cx="0" cy="0" r="17.33" fill="#FB7185" stroke="rgba(255,255,255,0.55)" stroke-width="1.4" /></g>
    <g transform="translate(202.29 194.35) rotate(-0.64)"><circle cx="0" cy="0" r="20.90" fill="#60A5FA" /><circle cx="8.36" cy="-0.84" r="17.56" fill="#0B1A34" /></g>
    <g transform="translate(131.95 329.39) rotate(26.49)"><path d="M 0 13.85 C -18.14 1.65, -19.79 -11.54, -7.91 -2.64 C -0.66 -13.85, 0.66 -13.85, 7.91 -2.64 C 19.79 -11.54, 18.14 1.65, 0 13.85 Z" fill="#F87171" stroke="rgba(255,255,255,0.55)" stroke-width="1.2" /></g>
    <g transform="translate(204.86 261.93) rotate(-11.13)"><circle cx="0" cy="0" r="17.62" fill="#4ADE80" stroke="rgba(255,255,255,0.55)" stroke-width="1.4" /></g>
    <g transform="translate(515.16 470.00) rotate(-18.59)"><path d="M 0 13.46 C -17.62 1.60, -19.23 -11.21, -7.69 -2.56 C -0.64 -13.46, 0.64 -13.46, 7.69 -2.56 C 19.23 -11.21, 17.62 1.60, 0 13.46 Z" fill="#F97316" stroke="rgba(255,255,255,0.55)" stroke-width="1.2" /></g>
    <g transform="translate(287.32 261.24) rotate(18.66)"><circle cx="0" cy="0" r="20.24" fill="#F87171" stroke="rgba(255,255,255,0.55)" stroke-width="1.4" /></g>
    <g transform="translate(827.97 326.70) rotate(-13.26)"><path d="M 0 14.49 C -18.97 1.72, -20.70 -12.07, -8.28 -2.76 C -0.69 -14.49, 0.69 -14.49, 8.28 -2.76 C 20.70 -12.07, 18.97 1.72, 0 14.49 Z" fill="#60A5FA" stroke="rgba(255,255,255,0.55)" stroke-width="1.2" /></g>
    <g transform="translate(357.72 464.53) rotate(20.18)"><polygon points="0.00,-18.88 4.84,-6.66 17.95,-5.83 7.83,2.55 11.10,15.27 0.00,8.24 -11.10,15.27 -7.83,2.55 -17.95,-5.83 -4.84,-6.66" fill="#34D399" stroke="rgba(255,255,255,0.55)" stroke-width="1.4" /></g>
    <g transform="translate(591.38 271.79) rotate(-25.73)"><path d="M 0 12.37 C -16.21 1.47, -17.68 -10.31, -7.07 -2.36 C -0.59 -12.37, 0.59 -12.37, 7.07 -2.36 C 17.68 -10.31, 16.21 1.47, 0 12.37 Z" fill="#34D399" stroke="rgba(255,255,255,0.55)" stroke-width="1.2" /></g>
    <g transform="translate(906.64 133.89) rotate(23.47)"><circle cx="0" cy="0" r="14.12" fill="#FBBF24" stroke="rgba(255,255,255,0.55)" stroke-width="1.4" /></g>
    <g transform="translate(437.40 337.79) rotate(23.04)"><polygon points="0.00,-21.01 5.39,-7.42 19.99,-6.49 8.72,2.83 12.35,17.00 0.00,9.17 -12.35,17.00 -8.72,2.83 -19.99,-6.49 -5.39,-7.42" fill="#FB7185" stroke="rgba(255,255,255,0.55)" stroke-width="1.4" /></g>
    <g transform="translate(57.44 533.27) rotate(-8.62)"><circle cx="0" cy="0" r="16.56" fill="#34D399" stroke="rgba(255,255,255,0.55)" stroke-width="1.4" /></g>
    <g transform="translate(915.65 269.04) rotate(26.85)"><path d="M 0 17.01 C -22.27 2.02, -24.30 -14.17, -9.72 -3.24 C -0.81 -17.01, 0.81 -17.01, 9.72 -3.24 C 24.30 -14.17, 22.27 2.02, 0 17.01 Z" fill="#A78BFA" stroke="rgba(255,255,255,0.55)" stroke-width="1.2" /></g>
    <g transform="translate(826.35 205.75) rotate(10.85)"><path d="M 0 12.64 C -16.55 1.50, -18.06 -10.53, -7.22 -2.41 C -0.60 -12.64, 0.60 -12.64, 7.22 -2.41 C 18.06 -10.53, 16.55 1.50, 0 12.64 Z" fill="#34D399" stroke="rgba(255,255,255,0.55)" stroke-width="1.2" /></g>
    <g transform="translate(288.99 463.19) rotate(-12.52)"><circle cx="0" cy="0" r="19.70" fill="#4ADE80" stroke="rgba(255,255,255,0.55)" stroke-width="1.4" /></g>
    <g transform="translate(433.97 458.55) rotate(9.31)"><polygon points="-15.12,-5.44 2.42,-5.44 2.42,-11.49 16.63,0.00 2.42,11.49 2.42,5.44 -15.12,5.44" fill="#34D399" stroke="rgba(255,255,255,0.55)" stroke-width="1.2" /></g>
    <g transform="translate(904.06 67.58) rotate(7.77)"><circle cx="0" cy="0" r="15.38" fill="#C084FC" /><circle cx="6.15" cy="-0.62" r="12.92" fill="#0B1A34" /></g>
    <g transform="translate(127.20 269.17) rotate(12.76)"><circle cx="0" cy="0" r="14.94" fill="#FBBF24" stroke="rgba(255,255,255,0.55)" stroke-width="1.4" /></g>
    <g transform="translate(601.95 206.01) rotate(-0.82)"><polygon points="0.00,-22.58 5.79,-7.97 21.48,-6.98 9.37,3.04 13.27,18.27 0.00,9.85 -13.27,18.27 -9.37,3.04 -21.48,-6.98 -5.79,-7.97" fill="#60A5FA" stroke="rgba(255,255,255,0.55)" stroke-width="1.4" /></g>
    <g transform="translate(666.76 77.94) rotate(18.02)"><polygon points="-19.67,-7.08 3.15,-7.08 3.15,-14.95 21.63,0.00 3.15,14.95 3.15,7.08 -19.67,7.08" fill="#60A5FA" stroke="rgba(255,255,255,0.55)" stroke-width="1.2" /></g>
  </g>
</svg>
