<svg xmlns="http://www.w3.org/2000/svg" width="960" height="600" viewBox="0 0 960 600">
  <defs>
    <linearGradient id="bg56" x1="0%" y1="0%" x2="100%" y2="100%">
      <stop offset="0%" stop-color="#0F172A" />
      <stop offset="100%" stop-color="#1D4ED8" />
    </linearGradient>
    <filter id="shadow56" x="-20%" y="-20%" width="140%" height="140%">
      <feDropShadow dx="0" dy="2" stdDeviation="1.8" flood-color="rgba(0,0,0,0.36)" />
    </filter>
  </defs>

  <rect width="960" height="600" fill="url(#bg56)" />
  <rect x="24" y="24" width="912" height="552" rx="20" fill="rgba(255,255,255,0.045)" stroke="rgba(255,255,255,0.22)" />
  <g filter="url(#shadow56)">
    <g transform="translate(752.15 268.39) rotate(0.90)"><polygon points="0,-18.94 18.94,0 0,18.94 -18.94,0" fill="#F87171" stroke="rgba(255,255,255,0.55)" stroke-width="1.4" /></g>
    <g transform="translate(758.97 335.57) rotate(-2.22)"><circle cx="0" cy="0" r="15.28" fill="#4ADE80" stroke="rgba(255,255,255,0.55)" stroke-width="1.4" /><circle cx="-5.50" cy="-3.67" r="2.45" fill="#1F2937" /><circle cx="5.50" cy="-3.67" r="2.45" fill="#1F2937" /><path d="M -11.61 4.28 Q 0 10.39 11.61 4.28" fill="none" stroke="#1F2937" stroke-width="2.2" stroke-linecap="round" /></g>
    <g transform="translate(122.08 465.56) rotate(20.47)"><path d="M 0 16.48 C -21.59 1.96, -23.55 -13.74, -9.42 -3.14 C -0.78 -16.48, 0.78 -16.48, 9.42 -3.14 C 23.55 -13.74, 21.59 1.96, 0 16.48 Z" fill="#A78BFA" stroke="rgba(255,255,255,0.55)" stroke-width="1.2" /></g>
    <g transform="translate(524.46 67.31) rotate(2.15)"><circle cx="0" cy="0" r="17.06" fill="#4ADE80" stroke="rgba(255,255,255,0.55)" stroke-width="1.4" /><circle cx="-6.14" cy="-4.10" r="2.73" fill="#1F2937" /><circle cx="6.14" cy="-4.10" r="2.73" fill="#1F2937" /><path d="M -12.97 4.78 Q 0 11.60 12.97 4.78" fill="none" stroke="#1F2937" stroke-width="2.2" stroke-linecap="round" /></g>
    <g transform="translate(125.28 204.77) rotate(-16.80)"><circle cx="0" cy="0" r="17.04" fill="#22D3EE" stroke="rgba(255,255,255,0.55)" stroke-width="1.4" /></g>
    <g transform="translate(912.54 268.52) rotate(0.87)"><circle cx="0" cy="0" r="18.28" fill="#A78BFA" stroke="rgba(255,255,255,0.55)" stroke-width="1.4" /><circle cx="-6.58" cy="-4.39" r="2.93" fill="#1F2937" /><circle cx="6.58" cy="-4.39" r="2.93" fill="#1F2937" /><path d="M -13.90 5.12 Q 0 12.43 13.90 5.12" fill="none" stroke="#1F2937" stroke-width="2.2" stroke-linecap="round" /></g>
    <g transform="translate(212.04 330.25) rotate(-2.50)"><polygon points="0,-14.02 14.02,0 0,14.02 -14.02,0" fill="#60A5FA" stroke="rgba(255,255,255,0.55)" stroke-width="1.4" /></g>
    <g transform="translate(912.47 199.20) rotate(7.26)"><circle cx="0" cy="0" r="20.45" fill="#C084FC" stroke="rgba(255,255,255,0.55)" stroke-width="1.4" /><circle cx="-7.36" cy="-4.91" r="3.27" fill="#1F2937" /><circle cx="7.36" cy="-4.91" r="3.27" fill="#1F2937" /><path d="M -15.54 5.73 Q 0 13.90 15.54 5.73" fill="none" stroke="#1F2937" stroke-width="2.2" stroke-linecap="round" /></g>
    <g transform="translate(129.42 406.08) rotate(-23.98)"><polygon points="-17.02,-6.13 2.72,-6.13 2.72,-12.94 18.72,0.00 2.72,12.94 2.72,6.13 -17.02,6.13" fill="#22D3EE" stroke="rgba(255,255,255,0.55)" stroke-width="1.2" /></g>
    <g transform="translate(134.25 534.29) rotate(-3.48)"><circle cx="0" cy="0" r="16.78" fill="#F87171" stroke="rgba(255,255,255,0.55)" stroke-width="1.4" /><circle cx="-6.04" cy="-4.03" r="2.68" fill="#1F2937" /><circle cx="6.04" cy="-4.03" r="2.68" fill="#1F2937" /><path d="M -12.75 4.70 Q 0 11.41 12.75 4.70" fill="none" stroke="#1F2937" stroke-width="2.2" stroke-linecap="round" /></g>
    <g transform="translate(280.87 396.96) rotate(26.94)"><polygon points="0,-18.62 16.69,12.84 -16.69,12.84" fill="#F97316" stroke="rgba(255,255,255,0.55)" stroke-width="1.4" /></g>
    <g transform="translate(903.34 460.59) rotate(7.92)"><circle cx="0" cy="0" r="17.04" fill="#22D3EE" stroke="rgba(255,255,255,0.55)" stroke-width="1.4" /><circle cx="-6.13" cy="-4.09" r="2.73" fill="#1F2937" /><circle cx="6.13" cy="-4.09" r="2.73" fill="#1F2937" /><path d="M -12.95 4.77 Q 0 11.58 12.95 4.77" fill="none" stroke="#1F2937" stroke-width="2.2" stroke-linecap="round" /></g>
    <g transform="translate(832.72 339.48) rotate(-7.95)"><circle cx="0" cy="0" r="16.74" fill="#4ADE80" stroke="rgba(255,255,255,0.55)" stroke-width="1.4" /><circle cx="-6.02" cy="-4.02" r="2.68" fill="#1F2937" /><circle cx="6.02" cy="-4.02" r="2.68" fill="#1F2937" /><path d="M -12.72 4.69 Q 0 11.38 12.72 4.69" fill="none" stroke="#1F2937" stroke-width="2.2" stroke-linecap="round" /></g>
    <g transform="translate(211.32 270.81) rotate(-2.53)"><rect x="-16.08" y="-4.74" width="32.15" height="9.48" rx="4.74" fill="#34D399" /><rect x="-4.74" y="-16.08" width="9.48" height="32.15" rx="4.74" fill="#34D399" /></g>
    <g transform="translate(669.97 458.88) rotate(7.94)"><circle cx="0" cy="0" r="17.74" fill="#34D399" stroke="rgba(255,255,255,0.55)" stroke-width="1.4" /><circle cx="-6.39" cy="-4.26" r="2.84" fill="#1F2937" /><circle cx="6.39" cy="-4.26" r="2.84" fill="#1F2937" /><path d="M -13.48 4.97 Q 0 12.06 13.48 4.97" fill="none" stroke="#1F2937" stroke-width="2.2" stroke-linecap="round" /></g>
    <g transform="translate(756.29 400.24) rotate(17.23)"><polygon points="-20.11,-7.24 3.22,-7.24 3.22,-15.29 22.13,0.00 3.22,15.29 3.22,7.24 -20.11,7.24" fill="#F97316" stroke="rgba(255,255,255,0.55)" stroke-width="1.2" /></g>
    <g transform="translate(754.58 68.53) rotate(-3.84)"><rect x="-16.90" y="-4.98" width="33.80" height="9.96" rx="4.98" fill="#F97316" /><rect x="-4.98" y="-16.90" width="9.96" height="33.80" rx="4.98" fill="#F97316" /></g>
    <g transform="translate(603.55 65.55) rotate(20.24)"><polygon points="0,-17.85 16.01,12.31 -16.01,12.31" fill="#34D399" stroke="rgba(255,255,255,0.55)" stroke-width="1.4" /></g>
    <g transform="translate(46.92 200.59) rotate(19.98)"><polygon points="0,-14.48 14.48,0 0,14.48 -14.48,0" fill="#34D399" stroke="rgba(255,255,255,0.55)" stroke-width="1.4" /></g>
    <g transform="translate(667.29 335.72) rotate(-5.12)"><circle cx="0" cy="0" r="20.72" fill="#F97316" stroke="rgba(255,255,255,0.55)" stroke-width="1.4" /><circle cx="-7.46" cy="-4.97" r="3.32" fill="#1F2937" /><circle cx="7.46" cy="-4.97" r="3.32" fill="#1F2937" /><path d="M -15.75 5.80 Q 0 14.09 15.75 5.80" fill="none" stroke="#1F2937" stroke-width="2.2" stroke-linecap="round" /></g>
    <g transform="translate(600.16 141.93) rotate(6.17)"><path d="M 0 16.28 C -21.32 1.94, -23.26 -13.57, -9.30 -3.10 C -0.78 -16.28, 0.78 -16.28, 9.30 -3.10 C 23.26 -13.57, 21.32 1.94, 0 16.28 Z" fill="#FB7185" stroke="rgba(255,255,255,0.55)" stroke-width="1.2" /></g>
    <g transform="translate(361.91 131.08) rotate(-27.62)"><polygon points="0,-19.65 17.62,13.55 -17.62,13.55" fill="#FBBF24" stroke="rgba(255,255,255,0.55)" stroke-width="1.4" /></g>
    <g transform="translate(444.38 140.46) rotate(2.60)"><circle cx="0" cy="0" r="19.09" fill="#A78BFA" stroke="rgba(255,255,255,0.55)" stroke-width="1.4" /><circle cx="-6.87" cy="-4.58" r="3.05" fill="#1F2937" /><circle cx="6.87" cy="-4.58" r="3.05" fill="#1F2937" /><path d="M -14.51 5.35 Q 0 12.98 14.51 5.35" fill="none" stroke="#1F2937" stroke-width="2.2" stroke-linecap="round" /></g>
    <g transform="translate(589.93 459.33) rotate(-12.78)"><polygon points="0,-16.95 15.20,11.69 -15.20,11.69" fill="#4ADE80" stroke="rgba(255,255,255,0.55)" stroke-width="1.4" /></g>
    <g transform="translate(593.75 198.12) rotate(-11.58)"><polygon points="0,-18.25 18.25,0 0,18.25 -18.25,0" fill="#FBBF24" stroke="rgba(255,255,255,0.55)" stroke-width="1.4" /></g>
    <g transform="translate(754.49 202.80) rotate(2.62)"><polygon points="-18.18,-6.54 2.91,-6.54 2.91,-13.81 19.99,0.00 2.91,13.81 2.91,6.54 -18.18,6.54" fill="#F97316" stroke="rgba(255,255,255,0.55)" stroke-width="1.2" /></g>
    <g transform="translate(445.35 522.43) rotate(-2.11)"><polygon points="0,-21.35 19.14,14.73 -19.14,14.73" fill="#4ADE80" stroke="rgba(255,255,255,0.55)" stroke-width="1.4" /></g>
    <g transform="translate(127.19 132.64) rotate(4.86)"><circle cx="0" cy="0" r="20.45" fill="#FBBF24" stroke="rgba(255,255,255,0.55)" stroke-width="1.4" /><circle cx="-7.36" cy="-4.91" r="3.27" fill="#1F2937" /><circle cx="7.36" cy="-4.91" r="3.27" fill="#1F2937" /><path d="M -15.54 5.73 Q 0 13.91 15.54 5.73" fill="none" stroke="#1F2937" stroke-width="2.2" stroke-linecap="round" /></g>
    <g transform="translate(827.53 259.62) rotate(0.04)"><circle cx="0" cy="0" r="15.98" fill="#FBBF24" stroke="rgba(255,255,255,0.55)" stroke-width="1.4" /><circle cx="-5.75" cy="-3.83" r="2.56" fill="#1F2937" /><circle cx="5.75" cy="-3.83" r="2.56" fill="#1F2937" /><path d="M -12.14 4.47 Q 0 10.86 12.14 4.47" fill="none" stroke="#1F2937" stroke-width="2.2" stroke-linecap="round" /></g>
    <g transform="translate(757.36 130.45) rotate(6.12)"><circle cx="0" cy="0" r="17.48" fill="#60A5FA" stroke="rgba(255,255,255,0.55)" stroke-width="1.4" /><circle cx="-6.29" cy="-4.19" r="2.80" fill="#1F2937" /><circle cx="6.29" cy="-4.19" r="2.80" fill="#1F2937" /><path d="M -13.28 4.89 Q 0 11.88 13.28 4.89" fill="none" stroke="#1F2937" stroke-width="2.2" stroke-linecap="round" /></g>
    <g transform="translate(370.40 530.89) rotate(-27.53)"><path d="M 0 13.05 C -17.10 1.55, -18.65 -10.88, -7.46 -2.49 C -0.62 -13.05, 0.62 -13.05, 7.46 -2.49 C 18.65 -10.88, 17.10 1.55, 0 13.05 Z" fill="#F97316" stroke="rgba(255,255,255,0.55)" stroke-width="1.2" /></g>
    <g transform="translate(289.47 458.56) rotate(-1.06)"><polygon points="0,-22.22 19.92,15.32 -19.92,15.32" fill="#FBBF24" stroke="rgba(255,255,255,0.55)" stroke-width="1.4" /></g>
    <g transform="translate(359.16 199.44) rotate(5.75)"><circle cx="0" cy="0" r="18.18" fill="#34D399" stroke="rgba(255,255,255,0.55)" stroke-width="1.4" /><circle cx="-6.54" cy="-4.36" r="2.91" fill="#1F2937" /><circle cx="6.54" cy="-4.36" r="2.91" fill="#1F2937" /><path d="M -13.82 5.09 Q 0 12.36 13.82 5.09" fill="none" stroke="#1F2937" stroke-width="2.2" stroke-linecap="round" /></g>
    <g transform="translate(678.84 405.70) rotate(9.97)"><polygon points="0,-16.11 14.45,11.11 -14.45,11.11" fill="#F97316" stroke="rgba(255,255,255,0.55)" stroke-width="1.4" /></g>
    <g transform="translate(744.91 531.29) rotate(8.37)"><polygon points="0,-14.83 14.83,0 0,14.83 -14.83,0" fill="#60A5FA" stroke="rgba(255,255,255,0.55)" stroke-width="1.4" /></g>
    <g transform="translate(357.63 69.31) rotate(12.00)"><polygon points="0,-22.41 20.09,15.46 -20.09,15.46" fill="#34D399" stroke="rgba(255,255,255,0.55)" stroke-width="1.4" /></g>
    <g transform="translate(201.09 72.51) rotate(-5.55)"><circle cx="0" cy="0" r="18.29" fill="#FBBF24" stroke="rgba(255,255,255,0.55)" stroke-width="1.4" /><circle cx="-6.59" cy="-4.39" r="2.93" fill="#1F2937" /><circle cx="6.59" cy="-4.39" r="2.93" fill="#1F2937" /><path d="M -13.90 5.12 Q 0 12.44 13.90 5.12" fill="none" stroke="#1F2937" stroke-width="2.2" stroke-linecap="round" /></g>
  </g>
</svg>
