<svg xmlns="http://www.w3.org/2000/svg" width="960" height="600" viewBox="0 0 960 600">
  <defs>
    <linearGradient id="bg24" x1="0%" y1="0%" x2="100%" y2="100%">
      <stop offset="0%" stop-color="#0F172A" />
      <stop offset="100%" stop-color="#1D4ED8" />
    </linearGradient>
    <filter id="shadow24" x="-20%" y="-20%" width="140%" height="140%">
      <feDropShadow dx="0" dy="2" stdDeviation="1.8" flood-color="rgba(0,0,0,0.36)" />
    </filter>
  </defs>

  <rect width="960" height="600" fill="url(#bg24)" />
  <rect x="24" y="24" width="912" height="552" rx="20" fill="rgba(255,255,255,0.045)" stroke="rgba(255,255,255,0.22)" />
  <g filter="url(#shadow24)">
    <g transform="translate(434.44 67.83) rotate(0.03)"><circle cx="0" cy="0" r="15.50" fill="#22D3EE" stroke="rgba(255,255,255,0.55)" stroke-width="1.4" /></g>
    <g transform="translate(51.87 525.95) rotate(-6.96)"><circle cx="0" cy="0" r="16.01" fill="#FBBF24" stroke="rgba(255,255,255,0.55)" stroke-width="1.4" /><circle cx="-5.76" cy="-3.84" r="2.56" fill="#1F2937" /><circle cx="5.76" cy="-3.84" r="2.56" fill="#1F2937" /><path d="M -12.17 4.48 Q 0 10.88 12.17 4.48" fill="none" stroke="#1F2937" stroke-width="2.2" stroke-linecap="round" /></g>
    <g transform="translate(213.19 131.34) rotate(-0.75)"><rect x="-15.26" y="-4.50" width="30.52" height="9.00" rx="4.50" fill="#34D399" /><rect x="-4.50" y="-15.26" width="9.00" height="30.52" rx="4.50" fill="#34D399" /></g>
    <g transform="translate(831.14 533.74) rotate(19.00)"><rect x="-14.56" y="-4.29" width="29.12" height="8.58" rx="4.29" fill="#60A5FA" /><rect x="-4.29" y="-14.56" width="8.58" height="29.12" rx="4.29" fill="#60A5FA" /></g>
    <g transform="translate(758.42 339.03) rotate(-17.13)"><circle cx="0" cy="0" r="16.75" fill="#F97316" stroke="rgba(255,255,255,0.55)" stroke-width="1.4" /></g>
    <g transform="translate(290.94 136.34) rotate(4.38)"><rect x="-19.81" y="-5.84" width="39.62" height="11.68" rx="5.84" fill="#22D3EE" /><rect x="-5.84" y="-19.81" width="11.68" height="39.62" rx="5.84" fill="#22D3EE" /></g>
    <g transform="translate(521.40 261.53) rotate(3.84)"><circle cx="0" cy="0" r="17.81" fill="#34D399" stroke="rgba(255,255,255,0.55)" stroke-width="1.4" /><circle cx="-6.41" cy="-4.27" r="2.85" fill="#1F2937" /><circle cx="6.41" cy="-4.27" r="2.85" fill="#1F2937" /><path d="M -13.53 4.99 Q 0 12.11 13.53 4.99" fill="none" stroke="#1F2937" stroke-width="2.2" stroke-linecap="round" /></g>
    <g transform="translate(748.69 394.02) rotate(26.99)"><rect x="-17.77" y="-17.77" width="35.53" height="35.53" rx="3.86" fill="#34D399" stroke="rgba(255,255,255,0.55)" stroke-width="1.4" /></g>
    <g transform="translate(131.93 267.46) rotate(-17.45)"><circle cx="0" cy="0" r="20.66" fill="#A78BFA" stroke="rgba(255,255,255,0.55)" stroke-width="1.4" /></g>
    <g transform="translate(212.02 528.88) rotate(21.30)"><rect x="-13.49" y="-13.49" width="26.98" height="26.98" rx="2.93" fill="#A78BFA" stroke="rgba(255,255,255,0.55)" stroke-width="1.4" /></g>
    <g transform="translate(361.16 329.48) rotate(-7.00)"><rect x="-17.86" y="-5.26" width="35.71" height="10.53" rx="5.26" fill="#4ADE80" /><rect x="-5.26" y="-17.86" width="10.53" height="35.71" rx="5.26" fill="#4ADE80" /></g>
    <g transform="translate(524.53 405.57) rotate(-13.30)"><circle cx="0" cy="0" r="15.44" fill="#F97316" stroke="rgba(255,255,255,0.55)" stroke-width="1.4" /></g>
    <g transform="translate(57.53 208.08) rotate(4.36)"><circle cx="0" cy="0" r="16.12" fill="#34D399" stroke="rgba(255,255,255,0.55)" stroke-width="1.4" /><circle cx="-5.80" cy="-3.87" r="2.58" fill="#1F2937" /><circle cx="5.80" cy="-3.87" r="2.58" fill="#1F2937" /><path d="M -12.25 4.51 Q 0 10.96 12.25 4.51" fill="none" stroke="#1F2937" stroke-width="2.2" stroke-linecap="round" /></g>
    <g transform="translate(755.63 269.33) rotate(-12.34)"><path d="M 0 16.99 C -22.25 2.02, -24.27 -14.16, -9.71 -3.24 C -0.81 -16.99, 0.81 -16.99, 9.71 -3.24 C 24.27 -14.16, 22.25 2.02, 0 16.99 Z" fill="#A78BFA" stroke="rgba(255,255,255,0.55)" stroke-width="1.2" /></g>
    <g transform="translate(915.04 523.12) rotate(4.50)"><circle cx="0" cy="0" r="18.05" fill="#FBBF24" stroke="rgba(255,255,255,0.55)" stroke-width="1.4" /><circle cx="-6.50" cy="-4.33" r="2.89" fill="#1F2937" /><circle cx="6.50" cy="-4.33" r="2.89" fill="#1F2937" /><path d="M -13.72 5.05 Q 0 12.28 13.72 5.05" fill="none" stroke="#1F2937" stroke-width="2.2" stroke-linecap="round" /></g>
    <g transform="translate(287.46 264.11) rotate(12.54)"><path d="M 0 12.47 C -16.33 1.48, -17.82 -10.39, -7.13 -2.38 C -0.59 -12.47, 0.59 -12.47, 7.13 -2.38 C 17.82 -10.39, 16.33 1.48, 0 12.47 Z" fill="#60A5FA" stroke="rgba(255,255,255,0.55)" stroke-width="1.2" /></g>
    <g transform="translate(132.53 74.71) rotate(-25.94)"><rect x="-19.81" y="-5.84" width="39.62" height="11.68" rx="5.84" fill="#22D3EE" /><rect x="-5.84" y="-19.81" width="11.68" height="39.62" rx="5.84" fill="#22D3EE" /></g>
    <g transform="translate(126.67 527.49) rotate(-5.68)"><circle cx="0" cy="0" r="15.82" fill="#A78BFA" stroke="rgba(255,255,255,0.55)" stroke-width="1.4" /><circle cx="-5.69" cy="-3.80" r="2.53" fill="#1F2937" /><circle cx="5.69" cy="-3.80" r="2.53" fill="#1F2937" /><path d="M -12.02 4.43 Q 0 10.76 12.02 4.43" fill="none" stroke="#1F2937" stroke-width="2.2" stroke-linecap="round" /></g>
    <g transform="translate(668.44 70.69) rotate(-15.96)"><rect x="-18.55" y="-5.47" width="37.11" height="10.94" rx="5.47" fill="#C084FC" /><rect x="-5.47" y="-18.55" width="10.94" height="37.11" rx="5.47" fill="#C084FC" /></g>
    <g transform="translate(597.29 399.92) rotate(27.52)"><rect x="-18.40" y="-5.42" width="36.79" height="10.84" rx="5.42" fill="#60A5FA" /><rect x="-5.42" y="-18.40" width="10.84" height="36.79" rx="5.42" fill="#60A5FA" /></g>
    <g transform="translate(835.59 333.56) rotate(21.52)"><rect x="-16.98" y="-5.01" width="33.97" height="10.01" rx="5.01" fill="#A78BFA" /><rect x="-5.01" y="-16.98" width="10.01" height="33.97" rx="5.01" fill="#A78BFA" /></g>
    <g transform="translate(522.14 137.80) rotate(-3.37)"><rect x="-14.95" y="-14.95" width="29.91" height="29.91" rx="3.25" fill="#4ADE80" stroke="rgba(255,255,255,0.55)" stroke-width="1.4" /></g>
  </g>
</svg>
