<svg xmlns="http://www.w3.org/2000/svg" width="960" height="600" viewBox="0 0 960 600">
  <defs>
    <linearGradient id="bg174" x1="0%" y1="0%" x2="100%" y2="100%">
      <stop offset="0%" stop-color="#0F172A" />
      <stop offset="100%" stop-color="#1D4ED8" />
    </linearGradient>
    <filter id="shadow174" x="-20%" y="-20%" width="140%" height="140%">
      <feDropShadow dx="0" dy="2" stdDeviation="1.8" flood-color="rgba(0,0,0,0.36)" />
    </filter>
  </defs>

  <rect width="960" height="600" fill="url(#bg174)" />
  <rect x="24" y="24" width="912" height="552" rx="20" fill="rgba(255,255,255,0.045)" stroke="rgba(255,255,255,0.22)" />
  <g filter="url(#shadow174)">
    <g transform="translate(676.47 527.93) rotate(-16.51)"><circle cx="0" cy="0" r="16.44" fill="#FBBF24" stroke="rgba(255,255,255,0.55)" stroke-width="1.4" /></g>
    <g transform="translate(519.09 205.00) rotate(-24.78)"><polygon points="-15.32,-5.52 2.45,-5.52 2.45,-11.64 16.85,0.00 2.45,11.64 2.45,5.52 -15.32,5.52" fill="#22D3EE" stroke="rgba(255,255,255,0.55)" stroke-width="1.2" /></g>
    <g transform="translate(365.67 204.14) rotate(26.91)"><circle cx="0" cy="0" r="16.17" fill="#22D3EE" stroke="rgba(255,255,255,0.55)" stroke-width="1.4" /></g>
    <g transform="translate(913.59 469.08) rotate(-13.10)"><polygon points="0.00,-18.33 4.70,-6.47 17.43,-5.66 7.61,2.47 10.77,14.83 0.00,8.00 -10.77,14.83 -7.61,2.47 -17.43,-5.66 -4.70,-6.47" fill="#F87171" stroke="rgba(255,255,255,0.55)" stroke-width="1.4" /></g>
    <g transform="translate(596.70 259.23) rotate(-22.81)"><polygon points="0.00,-20.82 5.34,-7.35 19.80,-6.43 8.64,2.81 12.24,16.84 0.00,9.09 -12.24,16.84 -8.64,2.81 -19.80,-6.43 -5.34,-7.35" fill="#A78BFA" stroke="rgba(255,255,255,0.55)" stroke-width="1.4" /></g>
    <g transform="translate(753.30 470.52) rotate(17.78)"><polygon points="-17.72,-6.38 2.83,-6.38 2.83,-13.47 19.49,0.00 2.83,13.47 2.83,6.38 -17.72,6.38" fill="#F87171" stroke="rgba(255,255,255,0.55)" stroke-width="1.2" /></g>
    <g transform="translate(448.48 139.55) rotate(4.85)"><circle cx="0" cy="0" r="14.13" fill="#FBBF24" stroke="rgba(255,255,255,0.55)" stroke-width="1.4" /></g>
    <g transform="translate(214.69 206.17) rotate(25.37)"><rect x="-15.17" y="-15.17" width="30.34" height="30.34" rx="3.30" fill="#FBBF24" stroke="rgba(255,255,255,0.55)" stroke-width="1.4" /></g>
    <g transform="translate(366.72 272.36) rotate(-22.05)"><polygon points="0.00,-16.34 4.19,-5.77 15.54,-5.05 6.78,2.20 9.60,13.22 0.00,7.13 -9.60,13.22 -6.78,2.20 -15.54,-5.05 -4.19,-5.77" fill="#A78BFA" stroke="rgba(255,255,255,0.55)" stroke-width="1.4" /></g>
    <g transform="translate(826.60 396.18) rotate(11.37)"><circle cx="0" cy="0" r="15.95" fill="#60A5FA" stroke="rgba(255,255,255,0.55)" stroke-width="1.4" /></g>
    <g transform="translate(293.31 70.60) rotate(19.87)"><circle cx="0" cy="0" r="20.53" fill="#F97316" stroke="rgba(255,255,255,0.55)" stroke-width="1.4" /></g>
    <g transform="translate(522.45 131.13) rotate(-9.04)"><circle cx="0" cy="0" r="18.94" fill="#C084FC" stroke="rgba(255,255,255,0.55)" stroke-width="1.4" /></g>
    <g transform="translate(437.51 259.47) rotate(-16.84)"><polygon points="0.00,-20.61 5.29,-7.28 19.60,-6.37 8.55,2.78 12.11,16.67 0.00,8.99 -12.11,16.67 -8.55,2.78 -19.60,-6.37 -5.29,-7.28" fill="#60A5FA" stroke="rgba(255,255,255,0.55)" stroke-width="1.4" /></g>
    <g transform="translate(678.92 75.66) rotate(-0.30)"><polygon points="-14.55,-5.24 2.33,-5.24 2.33,-11.06 16.00,0.00 2.33,11.06 2.33,5.24 -14.55,5.24" fill="#4ADE80" stroke="rgba(255,255,255,0.55)" stroke-width="1.2" /></g>
    <g transform="translate(522.08 262.37) rotate(8.03)"><rect x="-19.19" y="-19.19" width="38.38" height="38.38" rx="4.17" fill="#C084FC" stroke="rgba(255,255,255,0.55)" stroke-width="1.4" /></g>
    <g transform="translate(58.52 208.30) rotate(-7.47)"><circle cx="0" cy="0" r="16.40" fill="#F87171" stroke="rgba(255,255,255,0.55)" stroke-width="1.4" /></g>
    <g transform="translate(914.15 203.55) rotate(14.98)"><circle cx="0" cy="0" r="14.11" fill="#F97316" stroke="rgba(255,255,255,0.55)" stroke-width="1.4" /></g>
    <g transform="translate(48.69 68.49) rotate(-17.03)"><rect x="-18.16" y="-18.16" width="36.31" height="36.31" rx="3.95" fill="#60A5FA" stroke="rgba(255,255,255,0.55)" stroke-width="1.4" /></g>
    <g transform="translate(133.86 463.30) rotate(-20.23)"><circle cx="0" cy="0" r="14.84" fill="#FB7185" stroke="rgba(255,255,255,0.55)" stroke-width="1.4" /></g>
    <g transform="translate(126.42 271.54) rotate(-13.84)"><path d="M 0 15.16 C -19.85 1.80, -21.66 -12.63, -8.66 -2.89 C -0.72 -15.16, 0.72 -15.16, 8.66 -2.89 C 21.66 -12.63, 19.85 1.80, 0 15.16 Z" fill="#A78BFA" stroke="rgba(255,255,255,0.55)" stroke-width="1.2" /></g>
    <g transform="translate(912.41 396.30) rotate(-8.85)"><rect x="-14.28" y="-14.28" width="28.55" height="28.55" rx="3.10" fill="#FB7185" stroke="rgba(255,255,255,0.55)" stroke-width="1.4" /></g>
    <g transform="translate(832.25 269.09) rotate(3.84)"><rect x="-18.78" y="-18.78" width="37.56" height="37.56" rx="4.08" fill="#4ADE80" stroke="rgba(255,255,255,0.55)" stroke-width="1.4" /></g>
    <g transform="translate(361.23 522.75) rotate(-4.73)"><circle cx="0" cy="0" r="20.68" fill="#C084FC" stroke="rgba(255,255,255,0.55)" stroke-width="1.4" /></g>
    <g transform="translate(518.30 335.08) rotate(-9.63)"><polygon points="-14.27,-5.14 2.28,-5.14 2.28,-10.85 15.70,0.00 2.28,10.85 2.28,5.14 -14.27,5.14" fill="#A78BFA" stroke="rgba(255,255,255,0.55)" stroke-width="1.2" /></g>
    <g transform="translate(205.12 67.51) rotate(3.61)"><circle cx="0" cy="0" r="20.75" fill="#A78BFA" stroke="rgba(255,255,255,0.55)" stroke-width="1.4" /></g>
  </g>
</svg>
