<svg xmlns="http://www.w3.org/2000/svg" width="960" height="600" viewBox="0 0 960 600">
  <defs>
    <linearGradient id="bg178" x1="0%" y1="0%" x2="100%" y2="100%">
      <stop offset="0%" stop-color="#0F172A" />
      <stop offset="100%" stop-color="#1D4ED8" />
    </linearGradient>
    <filter id="shadow178" x="-20%" y="-20%" width="140%" height="140%">
      <feDropShadow dx="0" dy="2" stdDeviation="1.8" flood-color="rgba(0,0,0,0.36)" />
    </filter>
  </defs>

  <rect width="960" height="600" fill="url(#bg178)" />
  <rect x="24" y="24" width="912" height="552" rx="20" fill="rgba(255,255,255,0.045)" stroke="rgba(255,255,255,0.22)" />
  <g filter="url(#shadow178)">
    <g transform="translate(833.94 400.95) rotate(-18.85)"><polygon points="0,-23.10 20.71,15.93 -20.71,15.93" fill="#FBBF24" stroke="rgba(255,255,255,0.55)" stroke-width="1.4" /></g>
    <g transform="translate(512.79 392.31) rotate(-5.41)"><polygon points="0,-20.22 20.22,0 0,20.22 -20.22,0" fill="#F87171" stroke="rgba(255,255,255,0.55)" stroke-width="1.4" /></g>
    <g transform="translate(437.34 129.17) rotate(-3.52)"><polygon points="0,-15.23 15.23,0 0,15.23 -15.23,0" fill="#FBBF24" stroke="rgba(255,255,255,0.55)" stroke-width="1.4" /></g>
    <g transform="translate(133.79 531.41) rotate(3.35)"><polygon points="0.00,-18.77 4.81,-6.63 17.85,-5.80 7.79,2.53 11.03,15.19 0.00,8.19 -11.03,15.19 -7.79,2.53 -17.85,-5.80 -4.81,-6.63" fill="#60A5FA" stroke="rgba(255,255,255,0.55)" stroke-width="1.4" /></g>
    <g transform="translate(517.43 267.51) rotate(-15.63)"><rect x="-14.14" y="-4.17" width="28.27" height="8.33" rx="4.17" fill="#4ADE80" /><rect x="-4.17" y="-14.14" width="8.33" height="28.27" rx="4.17" fill="#4ADE80" /></g>
    <g transform="translate(284.74 196.44) rotate(4.93)"><polygon points="0,-19.78 17.74,13.64 -17.74,13.64" fill="#34D399" stroke="rgba(255,255,255,0.55)" stroke-width="1.4" /></g>
    <g transform="translate(46.37 522.80) rotate(16.92)"><circle cx="0" cy="0" r="14.28" fill="#FB7185" stroke="rgba(255,255,255,0.55)" stroke-width="1.4" /></g>
    <g transform="translate(443.56 468.84) rotate(11.93)"><polygon points="0,-19.40 19.40,0 0,19.40 -19.40,0" fill="#F97316" stroke="rgba(255,255,255,0.55)" stroke-width="1.4" /></g>
    <g transform="translate(48.00 332.98) rotate(27.86)"><polygon points="0,-18.22 16.33,12.56 -16.33,12.56" fill="#F97316" stroke="rgba(255,255,255,0.55)" stroke-width="1.4" /></g>
    <g transform="translate(518.01 471.11) rotate(-27.91)"><polygon points="0.00,-16.78 4.31,-5.93 15.96,-5.19 6.97,2.26 9.87,13.58 0.00,7.32 -9.87,13.58 -6.97,2.26 -15.96,-5.19 -4.31,-5.93" fill="#34D399" stroke="rgba(255,255,255,0.55)" stroke-width="1.4" /></g>
    <g transform="translate(751.34 77.69) rotate(-4.83)"><circle cx="0" cy="0" r="19.22" fill="#F97316" stroke="rgba(255,255,255,0.55)" stroke-width="1.4" /><circle cx="-6.92" cy="-4.61" r="3.08" fill="#1F2937" /><circle cx="6.92" cy="-4.61" r="3.08" fill="#1F2937" /><path d="M -14.61 5.38 Q 0 13.07 14.61 5.38" fill="none" stroke="#1F2937" stroke-width="2.2" stroke-linecap="round" /></g>
    <g transform="translate(903.63 523.57) rotate(6.96)"><polygon points="0.00,-21.68 5.56,-7.65 20.61,-6.70 9.00,2.92 12.74,17.54 0.00,9.46 -12.74,17.54 -9.00,2.92 -20.61,-6.70 -5.56,-7.65" fill="#FBBF24" stroke="rgba(255,255,255,0.55)" stroke-width="1.4" /></g>
    <g transform="translate(45.56 138.37) rotate(-2.75)"><circle cx="0" cy="0" r="17.91" fill="#FB7185" stroke="rgba(255,255,255,0.55)" stroke-width="1.4" /><circle cx="-6.45" cy="-4.30" r="2.87" fill="#1F2937" /><circle cx="6.45" cy="-4.30" r="2.87" fill="#1F2937" /><path d="M -13.61 5.01 Q 0 12.18 13.61 5.01" fill="none" stroke="#1F2937" stroke-width="2.2" stroke-linecap="round" /></g>
    <g transform="translate(831.91 533.33) rotate(2.27)"><polygon points="0.00,-22.88 5.87,-8.08 21.76,-7.07 9.50,3.09 13.45,18.51 0.00,9.99 -13.45,18.51 -9.50,3.09 -21.76,-7.07 -5.87,-8.08" fill="#34D399" stroke="rgba(255,255,255,0.55)" stroke-width="1.4" /></g>
    <g transform="translate(836.00 466.32) rotate(-23.60)"><polygon points="0,-16.63 16.63,0 0,16.63 -16.63,0" fill="#FB7185" stroke="rgba(255,255,255,0.55)" stroke-width="1.4" /></g>
    <g transform="translate(448.42 402.17) rotate(0.38)"><circle cx="0" cy="0" r="16.52" fill="#FB7185" stroke="rgba(255,255,255,0.55)" stroke-width="1.4" /><circle cx="-5.95" cy="-3.96" r="2.64" fill="#1F2937" /><circle cx="5.95" cy="-3.96" r="2.64" fill="#1F2937" /><path d="M -12.56 4.63 Q 0 11.23 12.56 4.63" fill="none" stroke="#1F2937" stroke-width="2.2" stroke-linecap="round" /></g>
    <g transform="translate(363.56 339.35) rotate(5.85)"><circle cx="0" cy="0" r="15.82" fill="#34D399" stroke="rgba(255,255,255,0.55)" stroke-width="1.4" /><circle cx="-5.69" cy="-3.80" r="2.53" fill="#1F2937" /><circle cx="5.69" cy="-3.80" r="2.53" fill="#1F2937" /><path d="M -12.02 4.43 Q 0 10.76 12.02 4.43" fill="none" stroke="#1F2937" stroke-width="2.2" stroke-linecap="round" /></g>
    <g transform="translate(910.76 334.34) rotate(-21.46)"><polygon points="0.00,-15.60 4.00,-5.51 14.83,-4.82 6.47,2.10 9.17,12.62 0.00,6.81 -9.17,12.62 -6.47,2.10 -14.83,-4.82 -4.00,-5.51" fill="#A78BFA" stroke="rgba(255,255,255,0.55)" stroke-width="1.4" /></g>
  </g>
</svg>
