<svg xmlns="http://www.w3.org/2000/svg" width="960" height="600" viewBox="0 0 960 600">
  <defs>
    <linearGradient id="bg73" x1="0%" y1="0%" x2="100%" y2="100%">
      <stop offset="0%" stop-color="#0F172A" />
      <stop offset="100%" stop-color="#1D4ED8" />
    </linearGradient>
    <filter id="shadow73" x="-20%" y="-20%" width="140%" height="140%">
      <feDropShadow dx="0" dy="2" stdDeviation="1.8" flood-color="rgba(0,0,0,0.36)" />
    </filter>
  </defs>

  <rect width="960" height="600" fill="url(#bg73)" />
  <rect x="24" y="24" width="912" height="552" rx="20" fill="rgba(255,255,255,0.045)" stroke="rgba(255,255,255,0.22)" />
  <g filter="url(#shadow73)">
    <g transform="translate(439.11 464.20) rotate(6.11)"><polygon points="0.00,-19.31 4.95,-6.82 18.37,-5.97 8.02,2.60 11.35,15.63 0.00,8.43 -11.35,15.63 -8.02,2.60 -18.37,-5.97 -4.95,-6.82" fill="#34D399" stroke="rgba(255,255,255,0.55)" stroke-width="1.4" /></g>
    <g transform="translate(281.60 64.85) rotate(7.51)"><circle cx="0" cy="0" r="17.67" fill="#A78BFA" stroke="rgba(255,255,255,0.55)" stroke-width="1.4" /><circle cx="-6.36" cy="-4.24" r="2.83" fill="#1F2937" /><circle cx="6.36" cy="-4.24" r="2.83" fill="#1F2937" /><path d="M -13.43 4.95 Q 0 12.02 13.43 4.95" fill="none" stroke="#1F2937" stroke-width="2.2" stroke-linecap="round" /></g>
    <g transform="translate(513.49 205.52) rotate(6.36)"><circle cx="0" cy="0" r="14.67" fill="#FB7185" stroke="rgba(255,255,255,0.55)" stroke-width="1.4" /><circle cx="-5.28" cy="-3.52" r="2.35" fill="#1F2937" /><circle cx="5.28" cy="-3.52" r="2.35" fill="#1F2937" /><path d="M -11.15 4.11 Q 0 9.98 11.15 4.11" fill="none" stroke="#1F2937" stroke-width="2.2" stroke-linecap="round" /></g>
    <g transform="translate(604.17 264.18) rotate(9.53)"><polygon points="0.00,-21.13 5.42,-7.46 20.09,-6.53 8.77,2.85 12.42,17.09 0.00,9.22 -12.42,17.09 -8.77,2.85 -20.09,-6.53 -5.42,-7.46" fill="#22D3EE" stroke="rgba(255,255,255,0.55)" stroke-width="1.4" /></g>
    <g transform="translate(362.67 526.11) rotate(-14.82)"><polygon points="0.00,-17.92 4.60,-6.33 17.05,-5.54 7.44,2.42 10.54,14.50 0.00,7.82 -10.54,14.50 -7.44,2.42 -17.05,-5.54 -4.60,-6.33" fill="#F87171" stroke="rgba(255,255,255,0.55)" stroke-width="1.4" /></g>
    <g transform="translate(755.41 525.38) rotate(6.92)"><polygon points="0.00,-18.93 4.86,-6.68 18.00,-5.85 7.86,2.55 11.13,15.31 0.00,8.26 -11.13,15.31 -7.86,2.55 -18.00,-5.85 -4.86,-6.68" fill="#FBBF24" stroke="rgba(255,255,255,0.55)" stroke-width="1.4" /></g>
    <g transform="translate(590.70 399.13) rotate(-18.35)"><rect x="-18.81" y="-5.54" width="37.63" height="11.09" rx="5.54" fill="#F87171" /><rect x="-5.54" y="-18.81" width="11.09" height="37.63" rx="5.54" fill="#F87171" /></g>
    <g transform="translate(513.19 537.62) rotate(3.12)"><rect x="-15.90" y="-15.90" width="31.81" height="31.81" rx="3.46" fill="#FBBF24" stroke="rgba(255,255,255,0.55)" stroke-width="1.4" /></g>
    <g transform="translate(433.93 132.19) rotate(-10.63)"><rect x="-17.81" y="-5.25" width="35.62" height="10.50" rx="5.25" fill="#F97316" /><rect x="-5.25" y="-17.81" width="10.50" height="35.62" rx="5.25" fill="#F97316" /></g>
    <g transform="translate(124.59 270.82) rotate(10.73)"><rect x="-15.20" y="-4.48" width="30.39" height="8.96" rx="4.48" fill="#FB7185" /><rect x="-4.48" y="-15.20" width="8.96" height="30.39" rx="4.48" fill="#FB7185" /></g>
    <g transform="translate(595.67 206.04) rotate(5.61)"><circle cx="0" cy="0" r="14.73" fill="#A78BFA" stroke="rgba(255,255,255,0.55)" stroke-width="1.4" /><circle cx="-5.30" cy="-3.53" r="2.36" fill="#1F2937" /><circle cx="5.30" cy="-3.53" r="2.36" fill="#1F2937" /><path d="M -11.19 4.12 Q 0 10.02 11.19 4.12" fill="none" stroke="#1F2937" stroke-width="2.2" stroke-linecap="round" /></g>
    <g transform="translate(828.70 195.53) rotate(-2.62)"><circle cx="0" cy="0" r="20.99" fill="#A78BFA" stroke="rgba(255,255,255,0.55)" stroke-width="1.4" /><circle cx="-7.56" cy="-5.04" r="3.36" fill="#1F2937" /><circle cx="7.56" cy="-5.04" r="3.36" fill="#1F2937" /><path d="M -15.95 5.88 Q 0 14.27 15.95 5.88" fill="none" stroke="#1F2937" stroke-width="2.2" stroke-linecap="round" /></g>
    <g transform="translate(358.43 137.13) rotate(24.35)"><rect x="-18.14" y="-18.14" width="36.28" height="36.28" rx="3.94" fill="#22D3EE" stroke="rgba(255,255,255,0.55)" stroke-width="1.4" /></g>
    <g transform="translate(51.10 263.71) rotate(22.09)"><rect x="-16.69" y="-16.69" width="33.38" height="33.38" rx="3.63" fill="#60A5FA" stroke="rgba(255,255,255,0.55)" stroke-width="1.4" /></g>
    <g transform="translate(54.30 395.51) rotate(-3.97)"><polygon points="0.00,-20.57 5.28,-7.26 19.57,-6.36 8.54,2.77 12.09,16.64 0.00,8.98 -12.09,16.64 -8.54,2.77 -19.57,-6.36 -5.28,-7.26" fill="#22D3EE" stroke="rgba(255,255,255,0.55)" stroke-width="1.4" /></g>
    <g transform="translate(602.38 65.16) rotate(25.47)"><rect x="-16.65" y="-16.65" width="33.29" height="33.29" rx="3.62" fill="#FBBF24" stroke="rgba(255,255,255,0.55)" stroke-width="1.4" /></g>
    <g transform="translate(434.96 198.65) rotate(-2.36)"><polygon points="0.00,-20.54 5.27,-7.25 19.53,-6.35 8.52,2.77 12.07,16.62 0.00,8.96 -12.07,16.62 -8.52,2.77 -19.53,-6.35 -5.27,-7.25" fill="#F97316" stroke="rgba(255,255,255,0.55)" stroke-width="1.4" /></g>
  </g>
</svg>
