<svg xmlns="http://www.w3.org/2000/svg" width="960" height="600" viewBox="0 0 960 600">
  <defs>
    <linearGradient id="bg121" x1="0%" y1="0%" x2="100%" y2="100%">
      <stop offset="0%" stop-color="#0F172A" />
      <stop offset="100%" stop-color="#1D4ED8" />
    </linearGradient>
    <filter id="shadow121" x="-20%" y="-20%" width="140%" height="140%">
      <feDropShadow dx="0" dy="2" stdDeviation="1.8" flood-color="rgba(0,0,0,0.36)" />
    </filter>
  </defs>

  <rect width="960" height="600" fill="url(#bg121)" />
  <rect x="24" y="24" width="912" height="552" rx="20" fill="rgba(255,255,255,0.045)" stroke="rgba(255,255,255,0.22)" />
  <g filter="url(#shadow121)">
    <g transform="translate(748.25 66.49) rotate(26.80)"><rect x="-19.50" y="-5.75" width="39.00" height="11.49" rx="5.75" fill="#4ADE80" /><rect x="-5.75" y="-19.50" width="11.49" height="39.00" rx="5.75" fill="#4ADE80" /></g>
    <g transform="translate(827.68 531.90) rotate(-1.07)"><polygon points="0.00,-19.42 4.98,-6.86 18.47,-6.00 8.06,2.62 11.42,15.71 0.00,8.48 -11.42,15.71 -8.06,2.62 -18.47,-6.00 -4.98,-6.86" fill="#FBBF24" stroke="rgba(255,255,255,0.55)" stroke-width="1.4" /></g>
    <g transform="translate(435.63 335.05) rotate(25.90)"><rect x="-13.62" y="-13.62" width="27.24" height="27.24" rx="2.96" fill="#34D399" stroke="rgba(255,255,255,0.55)" stroke-width="1.4" /></g>
    <g transform="translate(207.42 207.86) rotate(24.97)"><polygon points="0.00,-21.61 5.54,-7.63 20.55,-6.68 8.97,2.91 12.70,17.48 0.00,9.43 -12.70,17.48 -8.97,2.91 -20.55,-6.68 -5.54,-7.63" fill="#60A5FA" stroke="rgba(255,255,255,0.55)" stroke-width="1.4" /></g>
    <g transform="translate(48.94 72.65) rotate(23.41)"><rect x="-13.81" y="-4.07" width="27.63" height="8.14" rx="4.07" fill="#4ADE80" /><rect x="-4.07" y="-13.81" width="8.14" height="27.63" rx="4.07" fill="#4ADE80" /></g>
    <g transform="translate(832.57 62.16) rotate(-14.58)"><polygon points="0.00,-22.69 5.82,-8.01 21.58,-7.01 9.42,3.06 13.34,18.36 0.00,9.90 -13.34,18.36 -9.42,3.06 -21.58,-7.01 -5.82,-8.01" fill="#60A5FA" stroke="rgba(255,255,255,0.55)" stroke-width="1.4" /></g>
    <g transform="translate(672.13 532.01) rotate(3.43)"><rect x="-13.83" y="-13.83" width="27.66" height="27.66" rx="3.01" fill="#FB7185" stroke="rgba(255,255,255,0.55)" stroke-width="1.4" /></g>
    <g transform="translate(595.59 396.36) rotate(-2.61)"><polygon points="-18.02,-6.49 2.88,-6.49 2.88,-13.70 19.82,0.00 2.88,13.70 2.88,6.49 -18.02,6.49" fill="#C084FC" stroke="rgba(255,255,255,0.55)" stroke-width="1.2" /></g>
    <g transform="translate(53.51 139.24) rotate(0.49)"><polygon points="-15.08,-5.43 2.41,-5.43 2.41,-11.46 16.59,0.00 2.41,11.46 2.41,5.43 -15.08,5.43" fill="#60A5FA" stroke="rgba(255,255,255,0.55)" stroke-width="1.2" /></g>
    <g transform="translate(666.55 326.38) rotate(-6.29)"><rect x="-14.13" y="-14.13" width="28.26" height="28.26" rx="3.07" fill="#FBBF24" stroke="rgba(255,255,255,0.55)" stroke-width="1.4" /></g>
    <g transform="translate(604.38 135.55) rotate(-14.26)"><polygon points="0.00,-21.00 5.39,-7.41 19.97,-6.49 8.71,2.83 12.34,16.99 0.00,9.16 -12.34,16.99 -8.71,2.83 -19.97,-6.49 -5.39,-7.41" fill="#FB7185" stroke="rgba(255,255,255,0.55)" stroke-width="1.4" /></g>
    <g transform="translate(283.94 459.38) rotate(7.53)"><polygon points="0.00,-16.43 4.21,-5.80 15.63,-5.08 6.82,2.22 9.66,13.29 0.00,7.17 -9.66,13.29 -6.82,2.22 -15.63,-5.08 -4.21,-5.80" fill="#22D3EE" stroke="rgba(255,255,255,0.55)" stroke-width="1.4" /></g>
    <g transform="translate(903.87 394.98) rotate(16.97)"><rect x="-13.64" y="-13.64" width="27.27" height="27.27" rx="2.96" fill="#F97316" stroke="rgba(255,255,255,0.55)" stroke-width="1.4" /></g>
    <g transform="translate(442.56 268.81) rotate(-3.94)"><rect x="-13.86" y="-13.86" width="27.72" height="27.72" rx="3.01" fill="#34D399" stroke="rgba(255,255,255,0.55)" stroke-width="1.4" /></g>
    <g transform="translate(594.35 471.02) rotate(18.36)"><rect x="-17.97" y="-5.30" width="35.94" height="10.59" rx="5.30" fill="#34D399" /><rect x="-5.30" y="-17.97" width="10.59" height="35.94" rx="5.30" fill="#34D399" /></g>
    <g transform="translate(519.75 132.96) rotate(-4.71)"><polygon points="0.00,-20.94 5.37,-7.39 19.92,-6.47 8.69,2.82 12.31,16.94 0.00,9.14 -12.31,16.94 -8.69,2.82 -19.92,-6.47 -5.37,-7.39" fill="#22D3EE" stroke="rgba(255,255,255,0.55)" stroke-width="1.4" /></g>
    <g transform="translate(367.75 332.14) rotate(-3.15)"><polygon points="0.00,-21.72 5.57,-7.67 20.65,-6.71 9.01,2.93 12.76,17.57 0.00,9.48 -12.76,17.57 -9.01,2.93 -20.65,-6.71 -5.57,-7.67" fill="#34D399" stroke="rgba(255,255,255,0.55)" stroke-width="1.4" /></g>
    <g transform="translate(759.25 270.71) rotate(25.79)"><rect x="-15.52" y="-4.57" width="31.04" height="9.15" rx="4.57" fill="#F97316" /><rect x="-4.57" y="-15.52" width="9.15" height="31.04" rx="4.57" fill="#F97316" /></g>
    <g transform="translate(750.37 456.99) rotate(-1.47)"><polygon points="-14.84,-5.34 2.38,-5.34 2.38,-11.28 16.33,0.00 2.38,11.28 2.38,5.34 -14.84,5.34" fill="#60A5FA" stroke="rgba(255,255,255,0.55)" stroke-width="1.2" /></g>
    <g transform="translate(124.10 336.71) rotate(-18.24)"><rect x="-14.38" y="-14.38" width="28.76" height="28.76" rx="3.13" fill="#F87171" stroke="rgba(255,255,255,0.55)" stroke-width="1.4" /></g>
    <g transform="translate(368.19 523.37) rotate(-19.75)"><polygon points="0.00,-21.14 5.42,-7.46 20.11,-6.53 8.77,2.85 12.43,17.10 0.00,9.23 -12.43,17.10 -8.77,2.85 -20.11,-6.53 -5.42,-7.46" fill="#4ADE80" stroke="rgba(255,255,255,0.55)" stroke-width="1.4" /></g>
    <g transform="translate(675.68 64.86) rotate(14.52)"><polygon points="-14.74,-5.31 2.36,-5.31 2.36,-11.20 16.21,0.00 2.36,11.20 2.36,5.31 -14.74,5.31" fill="#A78BFA" stroke="rgba(255,255,255,0.55)" stroke-width="1.2" /></g>
    <g transform="translate(595.29 336.92) rotate(-3.29)"><rect x="-18.02" y="-5.31" width="36.03" height="10.62" rx="5.31" fill="#60A5FA" /><rect x="-5.31" y="-18.02" width="10.62" height="36.03" rx="5.31" fill="#60A5FA" /></g>
    <g transform="translate(439.40 534.77) rotate(-24.09)"><polygon points="0.00,-18.71 4.80,-6.61 17.80,-5.78 7.77,2.52 11.00,15.14 0.00,8.17 -11.00,15.14 -7.77,2.52 -17.80,-5.78 -4.80,-6.61" fill="#34D399" stroke="rgba(255,255,255,0.55)" stroke-width="1.4" /></g>
    <g transform="translate(915.23 64.42) rotate(-8.19)"><rect x="-18.26" y="-18.26" width="36.52" height="36.52" rx="3.97" fill="#34D399" stroke="rgba(255,255,255,0.55)" stroke-width="1.4" /></g>
    <g transform="translate(200.92 139.37) rotate(-15.25)"><polygon points="0.00,-20.07 5.15,-7.08 19.08,-6.20 8.33,2.71 11.79,16.23 0.00,8.76 -11.79,16.23 -8.33,2.71 -19.08,-6.20 -5.15,-7.08" fill="#FB7185" stroke="rgba(255,255,255,0.55)" stroke-width="1.4" /></g>
  </g>
</svg>
