<svg xmlns="http://www.w3.org/2000/svg" width="960" height="600" viewBox="0 0 960 600">
  <defs>
    <linearGradient id="bg83" x1="0%" y1="0%" x2="100%" y2="100%">
      <stop offset="0%" stop-color="#0F172A" />
      <stop offset="100%" stop-color="#1D4ED8" />
    </linearGradient>
    <filter id="shadow83" x="-20%" y="-20%" width="140%" height="140%">
      <feDropShadow dx="0" dy="2" stdDeviation="1.8" flood-color="rgba(0,0,0,0.36)" />
    </filter>
  </defs>

  <rect width="960" height="600" fill="url(#bg83)" />
  <rect x="24" y="24" width="912" height="552" rx="20" fill="rgba(255,255,255,0.045)" stroke="rgba(255,255,255,0.22)" />
  <g filter="url(#shadow83)">
    <g transform="translate(52.06 268.34) rotate(-21.42)"><polygon points="0,-20.17 20.17,0 0,20.17 -20.17,0" fill="#A78BFA" stroke="rgba(255,255,255,0.55)" stroke-width="1.4" /></g>
    <g transform="translate(598.04 404.39) rotate(10.94)"><rect x="-13.24" y="-13.24" width="26.49" height="26.49" rx="2.88" fill="#C084FC" stroke="rgba(255,255,255,0.55)" stroke-width="1.4" /></g>
    <g transform="translate(281.48 194.29) rotate(17.16)"><polygon points="0,-16.79 15.05,11.58 -15.05,11.58" fill="#FBBF24" stroke="rgba(255,255,255,0.55)" stroke-width="1.4" /></g>
    <g transform="translate(368.41 128.39) rotate(23.53)"><polygon points="0,-17.70 15.87,12.21 -15.87,12.21" fill="#4ADE80" stroke="rgba(255,255,255,0.55)" stroke-width="1.4" /></g>
    <g transform="translate(904.51 461.07) rotate(-26.38)"><rect x="-14.11" y="-14.11" width="28.22" height="28.22" rx="3.07" fill="#F87171" stroke="rgba(255,255,255,0.55)" stroke-width="1.4" /></g>
    <g transform="translate(830.59 69.71) rotate(24.92)"><polygon points="0.00,-18.92 4.85,-6.68 17.99,-5.85 7.85,2.55 11.12,15.31 0.00,8.26 -11.12,15.31 -7.85,2.55 -17.99,-5.85 -4.85,-6.68" fill="#C084FC" stroke="rgba(255,255,255,0.55)" stroke-width="1.4" /></g>
    <g transform="translate(902.08 203.01) rotate(-10.21)"><rect x="-16.56" y="-16.56" width="33.11" height="33.11" rx="3.60" fill="#22D3EE" stroke="rgba(255,255,255,0.55)" stroke-width="1.4" /></g>
    <g transform="translate(522.57 195.84) rotate(-12.86)"><polygon points="0,-15.94 14.29,10.99 -14.29,10.99" fill="#FB7185" stroke="rgba(255,255,255,0.55)" stroke-width="1.4" /></g>
    <g transform="translate(673.37 531.05) rotate(-26.66)"><polygon points="0.00,-17.45 4.48,-6.16 16.60,-5.39 7.24,2.35 10.26,14.12 0.00,7.61 -10.26,14.12 -7.24,2.35 -16.60,-5.39 -4.48,-6.16" fill="#4ADE80" stroke="rgba(255,255,255,0.55)" stroke-width="1.4" /></g>
    <g transform="translate(604.35 139.53) rotate(-24.80)"><rect x="-17.69" y="-17.69" width="35.38" height="35.38" rx="3.85" fill="#F87171" stroke="rgba(255,255,255,0.55)" stroke-width="1.4" /></g>
    <g transform="translate(444.85 268.99) rotate(2.96)"><polygon points="0.00,-16.91 4.34,-5.97 16.08,-5.22 7.02,2.28 9.94,13.68 0.00,7.38 -9.94,13.68 -7.02,2.28 -16.08,-5.22 -4.34,-5.97" fill="#F97316" stroke="rgba(255,255,255,0.55)" stroke-width="1.4" /></g>
    <g transform="translate(364.34 404.59) rotate(-21.22)"><polygon points="0,-20.78 20.78,0 0,20.78 -20.78,0" fill="#C084FC" stroke="rgba(255,255,255,0.55)" stroke-width="1.4" /></g>
    <g transform="translate(904.56 527.24) rotate(10.13)"><polygon points="0,-15.54 15.54,0 0,15.54 -15.54,0" fill="#34D399" stroke="rgba(255,255,255,0.55)" stroke-width="1.4" /></g>
    <g transform="translate(836.87 398.18) rotate(21.08)"><rect x="-19.56" y="-5.76" width="39.12" height="11.53" rx="5.76" fill="#60A5FA" /><rect x="-5.76" y="-19.56" width="11.53" height="39.12" rx="5.76" fill="#60A5FA" /></g>
    <g transform="translate(515.37 405.07) rotate(-7.29)"><rect x="-14.90" y="-4.39" width="29.81" height="8.79" rx="4.39" fill="#60A5FA" /><rect x="-4.39" y="-14.90" width="8.79" height="29.81" rx="4.39" fill="#60A5FA" /></g>
    <g transform="translate(753.09 129.52) rotate(12.69)"><rect x="-13.04" y="-13.04" width="26.08" height="26.08" rx="2.83" fill="#F87171" stroke="rgba(255,255,255,0.55)" stroke-width="1.4" /></g>
    <g transform="translate(288.08 269.64) rotate(8.01)"><polygon points="0,-19.88 17.82,13.71 -17.82,13.71" fill="#60A5FA" stroke="rgba(255,255,255,0.55)" stroke-width="1.4" /></g>
  </g>
</svg>
