<svg xmlns="http://www.w3.org/2000/svg" width="960" height="600" viewBox="0 0 960 600">
  <defs>
    <linearGradient id="bg134" x1="0%" y1="0%" x2="100%" y2="100%">
      <stop offset="0%" stop-color="#0F172A" />
      <stop offset="100%" stop-color="#1D4ED8" />
    </linearGradient>
    <filter id="shadow134" x="-20%" y="-20%" width="140%" height="140%">
      <feDropShadow dx="0" dy="2" stdDeviation="1.8" flood-color="rgba(0,0,0,0.36)" />
    </filter>
  </defs>

  <rect width="960" height="600" fill="url(#bg134)" />
  <rect x="24" y="24" width="912" height="552" rx="20" fill="rgba(255,255,255,0.045)" stroke="rgba(255,255,255,0.22)" />
  <g filter="url(#shadow134)">
    <g transform="translate(51.12 524.02) rotate(13.19)"><circle cx="0" cy="0" r="20.04" fill="#A78BFA" stroke="rgba(255,255,255,0.55)" stroke-width="1.4" /></g>
    <g transform="translate(203.32 326.11) rotate(2.75)"><circle cx="0" cy="0" r="14.03" fill="#F97316" /><circle cx="5.61" cy="-0.56" r="11.79" fill="#0B1A34" /></g>
    <g transform="translate(901.56 525.58) rotate(-13.23)"><circle cx="0" cy="0" r="15.18" fill="#C084FC" stroke="rgba(255,255,255,0.55)" stroke-width="1.4" /></g>
    <g transform="translate(830.53 395.27) rotate(0.52)"><rect x="-17.87" y="-5.27" width="35.74" height="10.53" rx="5.27" fill="#C084FC" /><rect x="-5.27" y="-17.87" width="10.53" height="35.74" rx="5.27" fill="#C084FC" /></g>
    <g transform="translate(366.66 397.66) rotate(5.39)"><circle cx="0" cy="0" r="17.76" fill="#FB7185" stroke="rgba(255,255,255,0.55)" stroke-width="1.4" /></g>
    <g transform="translate(135.27 263.99) rotate(27.26)"><rect x="-15.58" y="-4.59" width="31.16" height="9.18" rx="4.59" fill="#FBBF24" /><rect x="-4.59" y="-15.58" width="9.18" height="31.16" rx="4.59" fill="#FBBF24" /></g>
    <g transform="translate(835.05 199.57) rotate(25.50)"><circle cx="0" cy="0" r="15.81" fill="#60A5FA" stroke="rgba(255,255,255,0.55)" stroke-width="1.4" /></g>
    <g transform="translate(668.15 197.92) rotate(-22.28)"><rect x="-17.04" y="-5.02" width="34.09" height="10.05" rx="5.02" fill="#FBBF24" /><rect x="-5.02" y="-17.04" width="10.05" height="34.09" rx="5.02" fill="#FBBF24" /></g>
    <g transform="translate(512.71 128.34) rotate(-0.09)"><polygon points="0.00,-19.41 4.98,-6.85 18.46,-6.00 8.06,2.62 11.41,15.71 0.00,8.47 -11.41,15.71 -8.06,2.62 -18.46,-6.00 -4.98,-6.85" fill="#A78BFA" stroke="rgba(255,255,255,0.55)" stroke-width="1.4" /></g>
    <g transform="translate(290.85 202.38) rotate(-12.60)"><rect x="-19.14" y="-19.14" width="38.28" height="38.28" rx="4.16" fill="#FB7185" stroke="rgba(255,255,255,0.55)" stroke-width="1.4" /></g>
    <g transform="translate(911.46 466.03) rotate(-9.90)"><polygon points="0,-22.01 19.73,15.18 -19.73,15.18" fill="#4ADE80" stroke="rgba(255,255,255,0.55)" stroke-width="1.4" /></g>
    <g transform="translate(753.77 141.15) rotate(17.89)"><polygon points="0,-16.12 14.45,11.11 -14.45,11.11" fill="#FB7185" stroke="rgba(255,255,255,0.55)" stroke-width="1.4" /></g>
    <g transform="translate(828.52 523.18) rotate(9.60)"><rect x="-17.95" y="-17.95" width="35.90" height="35.90" rx="3.90" fill="#A78BFA" stroke="rgba(255,255,255,0.55)" stroke-width="1.4" /></g>
    <g transform="translate(442.95 140.09) rotate(-24.57)"><polygon points="0,-20.34 18.24,14.03 -18.24,14.03" fill="#A78BFA" stroke="rgba(255,255,255,0.55)" stroke-width="1.4" /></g>
    <g transform="translate(760.28 264.41) rotate(-22.66)"><rect x="-18.72" y="-18.72" width="37.43" height="37.43" rx="4.07" fill="#4ADE80" stroke="rgba(255,255,255,0.55)" stroke-width="1.4" /></g>
    <g transform="translate(831.90 335.32) rotate(7.20)"><circle cx="0" cy="0" r="17.35" fill="#22D3EE" stroke="rgba(255,255,255,0.55)" stroke-width="1.4" /></g>
    <g transform="translate(281.15 334.20) rotate(-17.50)"><polygon points="0.00,-18.50 4.75,-6.53 17.59,-5.72 7.68,2.49 10.87,14.97 0.00,8.07 -10.87,14.97 -7.68,2.49 -17.59,-5.72 -4.75,-6.53" fill="#FB7185" stroke="rgba(255,255,255,0.55)" stroke-width="1.4" /></g>
    <g transform="translate(511.41 65.47) rotate(3.78)"><circle cx="0" cy="0" r="18.88" fill="#F97316" stroke="rgba(255,255,255,0.55)" stroke-width="1.4" /></g>
    <g transform="translate(363.93 129.37) rotate(23.20)"><rect x="-17.43" y="-17.43" width="34.87" height="34.87" rx="3.79" fill="#34D399" stroke="rgba(255,255,255,0.55)" stroke-width="1.4" /></g>
    <g transform="translate(751.87 325.90) rotate(-19.31)"><circle cx="0" cy="0" r="15.00" fill="#60A5FA" stroke="rgba(255,255,255,0.55)" stroke-width="1.4" /></g>
    <g transform="translate(367.16 469.79) rotate(2.47)"><polygon points="0,-16.76 15.03,11.56 -15.03,11.56" fill="#FB7185" stroke="rgba(255,255,255,0.55)" stroke-width="1.4" /></g>
    <g transform="translate(206.37 74.96) rotate(13.93)"><rect x="-15.95" y="-4.70" width="31.90" height="9.40" rx="4.70" fill="#C084FC" /><rect x="-4.70" y="-15.95" width="9.40" height="31.90" rx="4.70" fill="#C084FC" /></g>
    <g transform="translate(680.45 460.65) rotate(0.23)"><circle cx="0" cy="0" r="14.08" fill="#60A5FA" /><circle cx="5.63" cy="-0.56" r="11.83" fill="#0B1A34" /></g>
    <g transform="translate(519.64 200.55) rotate(22.44)"><polygon points="0,-17.69 15.86,12.20 -15.86,12.20" fill="#FB7185" stroke="rgba(255,255,255,0.55)" stroke-width="1.4" /></g>
    <g transform="translate(50.67 74.90) rotate(-26.53)"><circle cx="0" cy="0" r="16.45" fill="#F87171" stroke="rgba(255,255,255,0.55)" stroke-width="1.4" /></g>
  </g>
</svg>
