<svg xmlns="http://www.w3.org/2000/svg" width="960" height="600" viewBox="0 0 960 600">
  <defs>
    <linearGradient id="bg151" x1="0%" y1="0%" x2="100%" y2="100%">
      <stop offset="0%" stop-color="#0F172A" />
      <stop offset="100%" stop-color="#1D4ED8" />
    </linearGradient>
    <filter id="shadow151" x="-20%" y="-20%" width="140%" height="140%">
      <feDropShadow dx="0" dy="2" stdDeviation="1.8" flood-color="rgba(0,0,0,0.36)" />
    </filter>
  </defs>

  <rect width="960" height="600" fill="url(#bg151)" />
  <rect x="24" y="24" width="912" height="552" rx="20" fill="rgba(255,255,255,0.045)" stroke="rgba(255,255,255,0.22)" />
  <g filter="url(#shadow151)">
    <g transform="translate(279.41 136.81) rotate(-7.16)"><circle cx="0" cy="0" r="17.92" fill="#60A5FA" /><circle cx="7.17" cy="-0.72" r="15.05" fill="#0B1A34" /></g>
    <g transform="translate(57.65 462.28) rotate(-20.97)"><path d="M 0 14.15 C -18.53 1.68, -20.21 -11.79, -8.08 -2.69 C -0.67 -14.15, 0.67 -14.15, 8.08 -2.69 C 20.21 -11.79, 18.53 1.68, 0 14.15 Z" fill="#FB7185" stroke="rgba(255,255,255,0.55)" stroke-width="1.2" /></g>
    <g transform="translate(672.90 329.60) rotate(9.32)"><polygon points="0.00,-16.46 4.22,-5.81 15.66,-5.09 6.83,2.22 9.68,13.32 0.00,7.18 -9.68,13.32 -6.83,2.22 -15.66,-5.09 -4.22,-5.81" fill="#60A5FA" stroke="rgba(255,255,255,0.55)" stroke-width="1.4" /></g>
    <g transform="translate(911.33 69.13) rotate(10.52)"><polygon points="0,-20.65 18.51,14.24 -18.51,14.24" fill="#FB7185" stroke="rgba(255,255,255,0.55)" stroke-width="1.4" /></g>
    <g transform="translate(48.05 406.48) rotate(27.35)"><polygon points="0,-16.71 14.98,11.52 -14.98,11.52" fill="#F87171" stroke="rgba(255,255,255,0.55)" stroke-width="1.4" /></g>
    <g transform="translate(371.10 400.54) rotate(1.13)"><polygon points="0.00,-17.63 4.52,-6.22 16.76,-5.45 7.32,2.38 10.36,14.26 0.00,7.69 -10.36,14.26 -7.32,2.38 -16.76,-5.45 -4.52,-6.22" fill="#60A5FA" stroke="rgba(255,255,255,0.55)" stroke-width="1.4" /></g>
    <g transform="translate(524.06 524.13) rotate(-16.87)"><rect x="-15.51" y="-15.51" width="31.03" height="31.03" rx="3.37" fill="#34D399" stroke="rgba(255,255,255,0.55)" stroke-width="1.4" /></g>
    <g transform="translate(368.71 266.87) rotate(-6.61)"><path d="M 0 14.18 C -18.57 1.69, -20.26 -11.82, -8.10 -2.70 C -0.68 -14.18, 0.68 -14.18, 8.10 -2.70 C 20.26 -11.82, 18.57 1.69, 0 14.18 Z" fill="#F97316" stroke="rgba(255,255,255,0.55)" stroke-width="1.2" /></g>
    <g transform="translate(747.27 200.83) rotate(-16.12)"><polygon points="0.00,-20.92 5.37,-7.38 19.89,-6.46 8.68,2.82 12.30,16.92 0.00,9.13 -12.30,16.92 -8.68,2.82 -19.89,-6.46 -5.37,-7.38" fill="#F97316" stroke="rgba(255,255,255,0.55)" stroke-width="1.4" /></g>
    <g transform="translate(830.02 63.59) rotate(26.80)"><polygon points="0.00,-17.26 4.43,-6.09 16.41,-5.33 7.16,2.33 10.14,13.96 0.00,7.53 -10.14,13.96 -7.16,2.33 -16.41,-5.33 -4.43,-6.09" fill="#FB7185" stroke="rgba(255,255,255,0.55)" stroke-width="1.4" /></g>
    <g transform="translate(209.07 465.09) rotate(-0.78)"><polygon points="-16.33,-5.88 2.61,-5.88 2.61,-12.41 17.97,0.00 2.61,12.41 2.61,5.88 -16.33,5.88" fill="#F97316" stroke="rgba(255,255,255,0.55)" stroke-width="1.2" /></g>
    <g transform="translate(212.00 72.45) rotate(12.08)"><polygon points="0,-17.51 15.70,12.08 -15.70,12.08" fill="#F97316" stroke="rgba(255,255,255,0.55)" stroke-width="1.4" /></g>
    <g transform="translate(446.80 332.15) rotate(-3.34)"><rect x="-13.87" y="-13.87" width="27.74" height="27.74" rx="3.02" fill="#FB7185" stroke="rgba(255,255,255,0.55)" stroke-width="1.4" /></g>
    <g transform="translate(676.66 139.84) rotate(2.74)"><circle cx="0" cy="0" r="16.18" fill="#22D3EE" /><circle cx="6.47" cy="-0.65" r="13.59" fill="#0B1A34" /></g>
    <g transform="translate(758.72 537.89) rotate(21.84)"><rect x="-16.54" y="-16.54" width="33.08" height="33.08" rx="3.60" fill="#C084FC" stroke="rgba(255,255,255,0.55)" stroke-width="1.4" /></g>
    <g transform="translate(755.12 402.03) rotate(-12.21)"><polygon points="0.00,-20.99 5.38,-7.41 19.96,-6.49 8.71,2.83 12.34,16.98 0.00,9.16 -12.34,16.98 -8.71,2.83 -19.96,-6.49 -5.38,-7.41" fill="#60A5FA" stroke="rgba(255,255,255,0.55)" stroke-width="1.4" /></g>
    <g transform="translate(211.17 197.20) rotate(-9.88)"><polygon points="0.00,-22.40 5.74,-7.91 21.30,-6.92 9.30,3.02 13.17,18.12 0.00,9.77 -13.17,18.12 -9.30,3.02 -21.30,-6.92 -5.74,-7.91" fill="#A78BFA" stroke="rgba(255,255,255,0.55)" stroke-width="1.4" /></g>
    <g transform="translate(604.13 393.96) rotate(-14.45)"><polygon points="0.00,-15.84 4.06,-5.59 15.06,-4.89 6.57,2.14 9.31,12.81 0.00,6.91 -9.31,12.81 -6.57,2.14 -15.06,-4.89 -4.06,-5.59" fill="#F97316" stroke="rgba(255,255,255,0.55)" stroke-width="1.4" /></g>
  </g>
</svg>
