<svg xmlns="http://www.w3.org/2000/svg" width="960" height="600" viewBox="0 0 960 600">
  <defs>
    <linearGradient id="bg102" x1="0%" y1="0%" x2="100%" y2="100%">
      <stop offset="0%" stop-color="#0F172A" />
      <stop offset="100%" stop-color="#1D4ED8" />
    </linearGradient>
    <filter id="shadow102" x="-20%" y="-20%" width="140%" height="140%">
      <feDropShadow dx="0" dy="2" stdDeviation="1.8" flood-color="rgba(0,0,0,0.36)" />
    </filter>
  </defs>

  <rect width="960" height="600" fill="url(#bg102)" />
  <rect x="24" y="24" width="912" height="552" rx="20" fill="rgba(255,255,255,0.045)" stroke="rgba(255,255,255,0.22)" />
  <g filter="url(#shadow102)">
    <g transform="translate(601.56 198.71) rotate(17.43)"><circle cx="0" cy="0" r="15.26" fill="#A78BFA" stroke="rgba(255,255,255,0.55)" stroke-width="1.4" /></g>
    <g transform="translate(48.68 403.83) rotate(-27.32)"><polygon points="0.00,-21.50 5.51,-7.59 20.45,-6.64 8.92,2.90 12.64,17.39 0.00,9.38 -12.64,17.39 -8.92,2.90 -20.45,-6.64 -5.51,-7.59" fill="#FBBF24" stroke="rgba(255,255,255,0.55)" stroke-width="1.4" /></g>
    <g transform="translate(213.31 528.68) rotate(-24.49)"><polygon points="0,-20.90 20.90,0 0,20.90 -20.90,0" fill="#C084FC" stroke="rgba(255,255,255,0.55)" stroke-width="1.4" /></g>
    <g transform="translate(59.06 264.39) rotate(13.89)"><circle cx="0" cy="0" r="20.13" fill="#F87171" stroke="rgba(255,255,255,0.55)" stroke-width="1.4" /></g>
    <g transform="translate(744.50 471.38) rotate(-4.05)"><polygon points="-16.61,-5.98 2.66,-5.98 2.66,-12.62 18.27,0.00 2.66,12.62 2.66,5.98 -16.61,5.98" fill="#FB7185" stroke="rgba(255,255,255,0.55)" stroke-width="1.2" /></g>
    <g transform="translate(201.63 138.14) rotate(4.99)"><polygon points="0,-16.32 14.64,11.26 -14.64,11.26" fill="#60A5FA" stroke="rgba(255,255,255,0.55)" stroke-width="1.4" /></g>
    <g transform="translate(356.63 135.85) rotate(27.01)"><path d="M 0 14.86 C -19.46 1.77, -21.22 -12.38, -8.49 -2.83 C -0.71 -14.86, 0.71 -14.86, 8.49 -2.83 C 21.22 -12.38, 19.46 1.77, 0 14.86 Z" fill="#60A5FA" stroke="rgba(255,255,255,0.55)" stroke-width="1.2" /></g>
    <g transform="translate(831.24 203.21) rotate(14.30)"><polygon points="0,-17.89 17.89,0 0,17.89 -17.89,0" fill="#60A5FA" stroke="rgba(255,255,255,0.55)" stroke-width="1.4" /></g>
    <g transform="translate(912.70 459.31) rotate(-21.01)"><polygon points="0,-19.93 17.87,13.75 -17.87,13.75" fill="#FBBF24" stroke="rgba(255,255,255,0.55)" stroke-width="1.4" /></g>
    <g transform="translate(837.14 139.27) rotate(-21.63)"><polygon points="0,-20.31 18.20,14.00 -18.20,14.00" fill="#60A5FA" stroke="rgba(255,255,255,0.55)" stroke-width="1.4" /></g>
    <g transform="translate(511.34 328.29) rotate(26.08)"><circle cx="0" cy="0" r="17.76" fill="#4ADE80" stroke="rgba(255,255,255,0.55)" stroke-width="1.4" /></g>
    <g transform="translate(440.18 529.67) rotate(-25.24)"><polygon points="0,-22.26 19.96,15.35 -19.96,15.35" fill="#34D399" stroke="rgba(255,255,255,0.55)" stroke-width="1.4" /></g>
    <g transform="translate(745.13 404.31) rotate(3.72)"><polygon points="-14.68,-5.28 2.35,-5.28 2.35,-11.16 16.15,0.00 2.35,11.16 2.35,5.28 -14.68,5.28" fill="#A78BFA" stroke="rgba(255,255,255,0.55)" stroke-width="1.2" /></g>
    <g transform="translate(915.31 198.14) rotate(-2.18)"><polygon points="-18.05,-6.50 2.89,-6.50 2.89,-13.72 19.85,0.00 2.89,13.72 2.89,6.50 -18.05,6.50" fill="#F97316" stroke="rgba(255,255,255,0.55)" stroke-width="1.2" /></g>
    <g transform="translate(597.68 76.10) rotate(-26.94)"><circle cx="0" cy="0" r="20.12" fill="#22D3EE" stroke="rgba(255,255,255,0.55)" stroke-width="1.4" /></g>
    <g transform="translate(674.42 267.50) rotate(22.99)"><polygon points="0,-19.86 17.81,13.70 -17.81,13.70" fill="#FB7185" stroke="rgba(255,255,255,0.55)" stroke-width="1.4" /></g>
    <g transform="translate(524.03 528.53) rotate(21.56)"><polygon points="0,-18.78 18.78,0 0,18.78 -18.78,0" fill="#60A5FA" stroke="rgba(255,255,255,0.55)" stroke-width="1.4" /></g>
    <g transform="translate(358.93 69.73) rotate(-14.18)"><polygon points="0,-22.88 20.51,15.78 -20.51,15.78" fill="#A78BFA" stroke="rgba(255,255,255,0.55)" stroke-width="1.4" /></g>
    <g transform="translate(520.85 139.02) rotate(23.65)"><polygon points="0.00,-20.72 5.32,-7.32 19.71,-6.40 8.60,2.79 12.18,16.76 0.00,9.04 -12.18,16.76 -8.60,2.79 -19.71,-6.40 -5.32,-7.32" fill="#4ADE80" stroke="rgba(255,255,255,0.55)" stroke-width="1.4" /></g>
    <g transform="translate(134.98 77.70) rotate(22.70)"><polygon points="0,-20.35 18.24,14.03 -18.24,14.03" fill="#4ADE80" stroke="rgba(255,255,255,0.55)" stroke-width="1.4" /></g>
    <g transform="translate(907.63 67.46) rotate(-0.56)"><circle cx="0" cy="0" r="20.71" fill="#FBBF24" stroke="rgba(255,255,255,0.55)" stroke-width="1.4" /><circle cx="-7.46" cy="-4.97" r="3.31" fill="#1F2937" /><circle cx="7.46" cy="-4.97" r="3.31" fill="#1F2937" /><path d="M -15.74 5.80 Q 0 14.08 15.74 5.80" fill="none" stroke="#1F2937" stroke-width="2.2" stroke-linecap="round" /></g>
    <g transform="translate(44.40 142.79) rotate(-22.22)"><polygon points="0,-17.93 16.07,12.36 -16.07,12.36" fill="#C084FC" stroke="rgba(255,255,255,0.55)" stroke-width="1.4" /></g>
    <g transform="translate(597.13 274.22) rotate(19.30)"><polygon points="-20.79,-7.49 3.33,-7.49 3.33,-15.80 22.87,0.00 3.33,15.80 3.33,7.49 -20.79,7.49" fill="#F87171" stroke="rgba(255,255,255,0.55)" stroke-width="1.2" /></g>
    <g transform="translate(672.94 399.21) rotate(10.35)"><polygon points="0,-22.15 19.86,15.27 -19.86,15.27" fill="#60A5FA" stroke="rgba(255,255,255,0.55)" stroke-width="1.4" /></g>
  </g>
</svg>
