<svg xmlns="http://www.w3.org/2000/svg" width="960" height="600" viewBox="0 0 960 600">
  <defs>
    <linearGradient id="bg140" x1="0%" y1="0%" x2="100%" y2="100%">
      <stop offset="0%" stop-color="#0F172A" />
      <stop offset="100%" stop-color="#1D4ED8" />
    </linearGradient>
    <filter id="shadow140" x="-20%" y="-20%" width="140%" height="140%">
      <feDropShadow dx="0" dy="2" stdDeviation="1.8" flood-color="rgba(0,0,0,0.36)" />
    </filter>
  </defs>

  <rect width="960" height="600" fill="url(#bg140)" />
  <rect x="24" y="24" width="912" height="552" rx="20" fill="rgba(255,255,255,0.045)" stroke="rgba(255,255,255,0.22)" />
  <g filter="url(#shadow140)">
    <g transform="translate(593.94 330.95) rotate(-19.10)"><polygon points="0,-22.61 20.27,15.59 -20.27,15.59" fill="#F97316" stroke="rgba(255,255,255,0.55)" stroke-width="1.4" /></g>
    <g transform="translate(447.43 524.44) rotate(2.78)"><rect x="-18.12" y="-5.34" width="36.24" height="10.68" rx="5.34" fill="#C084FC" /><rect x="-5.34" y="-18.12" width="10.68" height="36.24" rx="5.34" fill="#C084FC" /></g>
    <g transform="translate(519.38 134.36) rotate(-7.37)"><circle cx="0" cy="0" r="19.63" fill="#C084FC" /><circle cx="7.85" cy="-0.79" r="16.49" fill="#0B1A34" /></g>
    <g transform="translate(211.40 77.70) rotate(-7.96)"><circle cx="0" cy="0" r="14.21" fill="#22D3EE" /><circle cx="5.68" cy="-0.57" r="11.93" fill="#0B1A34" /></g>
    <g transform="translate(515.95 203.76) rotate(4.33)"><circle cx="0" cy="0" r="16.43" fill="#F87171" /><circle cx="6.57" cy="-0.66" r="13.80" fill="#0B1A34" /></g>
    <g transform="translate(288.17 263.50) rotate(3.75)"><polygon points="0,-17.20 15.42,11.86 -15.42,11.86" fill="#A78BFA" stroke="rgba(255,255,255,0.55)" stroke-width="1.4" /></g>
    <g transform="translate(831.46 66.97) rotate(-1.59)"><circle cx="0" cy="0" r="20.04" fill="#F87171" /><circle cx="8.02" cy="-0.80" r="16.83" fill="#0B1A34" /></g>
    <g transform="translate(826.54 462.51) rotate(5.73)"><circle cx="0" cy="0" r="17.71" fill="#FB7185" /><circle cx="7.08" cy="-0.71" r="14.87" fill="#0B1A34" /></g>
    <g transform="translate(523.08 402.72) rotate(14.07)"><polygon points="0,-19.91 17.85,13.73 -17.85,13.73" fill="#FB7185" stroke="rgba(255,255,255,0.55)" stroke-width="1.4" /></g>
    <g transform="translate(822.45 535.60) rotate(-0.94)"><circle cx="0" cy="0" r="16.45" fill="#F87171" /><circle cx="6.58" cy="-0.66" r="13.82" fill="#0B1A34" /></g>
    <g transform="translate(914.25 196.55) rotate(0.28)"><circle cx="0" cy="0" r="15.75" fill="#FBBF24" /><circle cx="6.30" cy="-0.63" r="13.23" fill="#0B1A34" /></g>
    <g transform="translate(131.37 200.68) rotate(25.34)"><rect x="-16.59" y="-4.89" width="33.19" height="9.78" rx="4.89" fill="#22D3EE" /><rect x="-4.89" y="-16.59" width="9.78" height="33.19" rx="4.89" fill="#22D3EE" /></g>
    <g transform="translate(128.20 136.20) rotate(6.85)"><polygon points="-14.87,-5.35 2.38,-5.35 2.38,-11.30 16.35,0.00 2.38,11.30 2.38,5.35 -14.87,5.35" fill="#22D3EE" stroke="rgba(255,255,255,0.55)" stroke-width="1.2" /></g>
    <g transform="translate(132.34 400.03) rotate(-0.91)"><polygon points="0,-17.36 15.56,11.97 -15.56,11.97" fill="#F97316" stroke="rgba(255,255,255,0.55)" stroke-width="1.4" /></g>
    <g transform="translate(760.14 64.27) rotate(-20.73)"><polygon points="-19.32,-6.96 3.09,-6.96 3.09,-14.68 21.25,0.00 3.09,14.68 3.09,6.96 -19.32,6.96" fill="#FBBF24" stroke="rgba(255,255,255,0.55)" stroke-width="1.2" /></g>
    <g transform="translate(822.29 339.67) rotate(18.67)"><rect x="-18.65" y="-5.50" width="37.30" height="10.99" rx="5.50" fill="#C084FC" /><rect x="-5.50" y="-18.65" width="10.99" height="37.30" rx="5.50" fill="#C084FC" /></g>
    <g transform="translate(53.20 198.14) rotate(-7.66)"><circle cx="0" cy="0" r="15.05" fill="#4ADE80" /><circle cx="6.02" cy="-0.60" r="12.64" fill="#0B1A34" /></g>
    <g transform="translate(129.69 66.45) rotate(16.11)"><rect x="-15.11" y="-4.45" width="30.21" height="8.90" rx="4.45" fill="#F87171" /><rect x="-4.45" y="-15.11" width="8.90" height="30.21" rx="4.45" fill="#F87171" /></g>
    <g transform="translate(291.40 67.35) rotate(6.76)"><circle cx="0" cy="0" r="16.14" fill="#F97316" /><circle cx="6.46" cy="-0.65" r="13.56" fill="#0B1A34" /></g>
    <g transform="translate(599.77 134.03) rotate(22.28)"><polygon points="0,-19.44 17.43,13.41 -17.43,13.41" fill="#F97316" stroke="rgba(255,255,255,0.55)" stroke-width="1.4" /></g>
    <g transform="translate(205.51 131.09) rotate(-4.70)"><circle cx="0" cy="0" r="19.52" fill="#22D3EE" /><circle cx="7.81" cy="-0.78" r="16.40" fill="#0B1A34" /></g>
    <g transform="translate(362.57 194.39) rotate(17.83)"><rect x="-19.61" y="-5.78" width="39.22" height="11.56" rx="5.78" fill="#F87171" /><rect x="-5.78" y="-19.61" width="11.56" height="39.22" rx="5.78" fill="#F87171" /></g>
    <g transform="translate(668.02 131.32) rotate(-1.75)"><circle cx="0" cy="0" r="19.36" fill="#C084FC" /><circle cx="7.74" cy="-0.77" r="16.26" fill="#0B1A34" /></g>
    <g transform="translate(285.14 331.79) rotate(5.35)"><polygon points="-17.24,-6.21 2.76,-6.21 2.76,-13.11 18.97,0.00 2.76,13.11 2.76,6.21 -17.24,6.21" fill="#F97316" stroke="rgba(255,255,255,0.55)" stroke-width="1.2" /></g>
    <g transform="translate(902.83 333.39) rotate(-25.95)"><rect x="-15.83" y="-4.67" width="31.66" height="9.33" rx="4.67" fill="#FBBF24" /><rect x="-4.67" y="-15.83" width="9.33" height="31.66" rx="4.67" fill="#FBBF24" /></g>
    <g transform="translate(679.35 402.66) rotate(-9.93)"><polygon points="0,-16.47 14.77,11.36 -14.77,11.36" fill="#A78BFA" stroke="rgba(255,255,255,0.55)" stroke-width="1.4" /></g>
    <g transform="translate(758.82 265.13) rotate(-7.42)"><circle cx="0" cy="0" r="14.19" fill="#C084FC" /><circle cx="5.68" cy="-0.57" r="11.92" fill="#0B1A34" /></g>
    <g transform="translate(439.32 274.25) rotate(8.70)"><polygon points="-16.11,-5.80 2.58,-5.80 2.58,-12.25 17.72,0.00 2.58,12.25 2.58,5.80 -16.11,5.80" fill="#A78BFA" stroke="rgba(255,255,255,0.55)" stroke-width="1.2" /></g>
    <g transform="translate(748.70 391.47) rotate(-24.21)"><polygon points="-18.58,-6.69 2.97,-6.69 2.97,-14.12 20.43,0.00 2.97,14.12 2.97,6.69 -18.58,6.69" fill="#22D3EE" stroke="rgba(255,255,255,0.55)" stroke-width="1.2" /></g>
    <g transform="translate(601.17 206.52) rotate(-9.07)"><polygon points="0,-15.93 14.29,10.99 -14.29,10.99" fill="#34D399" stroke="rgba(255,255,255,0.55)" stroke-width="1.4" /></g>
  </g>
</svg>
