<svg xmlns="http://www.w3.org/2000/svg" width="960" height="600" viewBox="0 0 960 600">
  <defs>
    <linearGradient id="bg189" x1="0%" y1="0%" x2="100%" y2="100%">
      <stop offset="0%" stop-color="#0F172A" />
      <stop offset="100%" stop-color="#1D4ED8" />
    </linearGradient>
    <filter id="shadow189" x="-20%" y="-20%" width="140%" height="140%">
      <feDropShadow dx="0" dy="2" stdDeviation="1.8" flood-color="rgba(0,0,0,0.36)" />
    </filter>
  </defs>

  <rect width="960" height="600" fill="url(#bg189)" />
  <rect x="24" y="24" width="912" height="552" rx="20" fill="rgba(255,255,255,0.045)" stroke="rgba(255,255,255,0.22)" />
  <g filter="url(#shadow189)">
    <g transform="translate(360.09 532.52) rotate(-16.87)"><rect x="-16.64" y="-4.90" width="33.28" height="9.81" rx="4.90" fill="#A78BFA" /><rect x="-4.90" y="-16.64" width="9.81" height="33.28" rx="4.90" fill="#A78BFA" /></g>
    <g transform="translate(125.12 535.88) rotate(-4.16)"><polygon points="0,-20.59 18.46,14.20 -18.46,14.20" fill="#4ADE80" stroke="rgba(255,255,255,0.55)" stroke-width="1.4" /></g>
    <g transform="translate(50.07 140.80) rotate(14.87)"><polygon points="0,-14.40 14.40,0 0,14.40 -14.40,0" fill="#C084FC" stroke="rgba(255,255,255,0.55)" stroke-width="1.4" /></g>
    <g transform="translate(446.58 394.90) rotate(19.51)"><rect x="-14.00" y="-4.13" width="28.00" height="8.25" rx="4.13" fill="#22D3EE" /><rect x="-4.13" y="-14.00" width="8.25" height="28.00" rx="4.13" fill="#22D3EE" /></g>
    <g transform="translate(130.26 259.87) rotate(-2.65)"><polygon points="-16.68,-6.00 2.67,-6.00 2.67,-12.68 18.35,0.00 2.67,12.68 2.67,6.00 -16.68,6.00" fill="#60A5FA" stroke="rgba(255,255,255,0.55)" stroke-width="1.2" /></g>
    <g transform="translate(669.03 200.07) rotate(9.86)"><rect x="-16.39" y="-4.83" width="32.78" height="9.66" rx="4.83" fill="#FB7185" /><rect x="-4.83" y="-16.39" width="9.66" height="32.78" rx="4.83" fill="#FB7185" /></g>
    <g transform="translate(598.63 326.42) rotate(-10.74)"><polygon points="0,-18.77 18.77,0 0,18.77 -18.77,0" fill="#FB7185" stroke="rgba(255,255,255,0.55)" stroke-width="1.4" /></g>
    <g transform="translate(591.83 134.71) rotate(-19.63)"><polygon points="0,-16.61 14.89,11.45 -14.89,11.45" fill="#4ADE80" stroke="rgba(255,255,255,0.55)" stroke-width="1.4" /></g>
    <g transform="translate(203.72 65.26) rotate(16.24)"><polygon points="0,-17.93 16.07,12.36 -16.07,12.36" fill="#C084FC" stroke="rgba(255,255,255,0.55)" stroke-width="1.4" /></g>
    <g transform="translate(830.84 271.84) rotate(11.16)"><rect x="-16.29" y="-4.80" width="32.59" height="9.60" rx="4.80" fill="#4ADE80" /><rect x="-4.80" y="-16.29" width="9.60" height="32.59" rx="4.80" fill="#4ADE80" /></g>
    <g transform="translate(510.92 275.09) rotate(-9.69)"><rect x="-17.36" y="-5.12" width="34.72" height="10.23" rx="5.12" fill="#F87171" /><rect x="-5.12" y="-17.36" width="10.23" height="34.72" rx="5.12" fill="#F87171" /></g>
    <g transform="translate(678.29 461.58) rotate(-18.63)"><polygon points="0.00,-21.63 5.55,-7.64 20.58,-6.69 8.98,2.92 12.72,17.50 0.00,9.44 -12.72,17.50 -8.98,2.92 -20.58,-6.69 -5.55,-7.64" fill="#F87171" stroke="rgba(255,255,255,0.55)" stroke-width="1.4" /></g>
    <g transform="translate(756.03 466.27) rotate(17.39)"><circle cx="0" cy="0" r="17.24" fill="#A78BFA" stroke="rgba(255,255,255,0.55)" stroke-width="1.4" /></g>
    <g transform="translate(668.75 337.29) rotate(-1.49)"><polygon points="0.00,-18.53 4.75,-6.54 17.63,-5.73 7.69,2.50 10.89,14.99 0.00,8.09 -10.89,14.99 -7.69,2.50 -17.63,-5.73 -4.75,-6.54" fill="#C084FC" stroke="rgba(255,255,255,0.55)" stroke-width="1.4" /></g>
    <g transform="translate(367.37 393.13) rotate(-2.51)"><rect x="-15.99" y="-4.71" width="31.98" height="9.43" rx="4.71" fill="#F97316" /><rect x="-4.71" y="-15.99" width="9.43" height="31.98" rx="4.71" fill="#F97316" /></g>
    <g transform="translate(744.67 74.45) rotate(17.94)"><polygon points="-16.32,-5.87 2.61,-5.87 2.61,-12.40 17.95,0.00 2.61,12.40 2.61,5.87 -16.32,5.87" fill="#F97316" stroke="rgba(255,255,255,0.55)" stroke-width="1.2" /></g>
    <g transform="translate(591.14 536.86) rotate(-6.29)"><circle cx="0" cy="0" r="20.87" fill="#FB7185" stroke="rgba(255,255,255,0.55)" stroke-width="1.4" /></g>
    <g transform="translate(749.87 330.25) rotate(15.50)"><polygon points="0.00,-18.75 4.81,-6.62 17.83,-5.79 7.78,2.53 11.02,15.17 0.00,8.18 -11.02,15.17 -7.78,2.53 -17.83,-5.79 -4.81,-6.62" fill="#A78BFA" stroke="rgba(255,255,255,0.55)" stroke-width="1.4" /></g>
    <g transform="translate(836.92 62.40) rotate(-1.42)"><polygon points="0,-20.27 18.18,13.98 -18.18,13.98" fill="#F87171" stroke="rgba(255,255,255,0.55)" stroke-width="1.4" /></g>
    <g transform="translate(367.18 198.30) rotate(-11.30)"><polygon points="0,-18.60 18.60,0 0,18.60 -18.60,0" fill="#F97316" stroke="rgba(255,255,255,0.55)" stroke-width="1.4" /></g>
    <g transform="translate(278.01 394.82) rotate(-24.72)"><rect x="-14.21" y="-4.19" width="28.42" height="8.38" rx="4.19" fill="#22D3EE" /><rect x="-4.19" y="-14.21" width="8.38" height="28.42" rx="4.19" fill="#22D3EE" /></g>
    <g transform="translate(357.94 262.28) rotate(-19.66)"><rect x="-17.60" y="-5.19" width="35.19" height="10.37" rx="5.19" fill="#4ADE80" /><rect x="-5.19" y="-17.60" width="10.37" height="35.19" rx="5.19" fill="#4ADE80" /></g>
    <g transform="translate(50.43 75.28) rotate(-0.22)"><polygon points="0,-17.79 17.79,0 0,17.79 -17.79,0" fill="#22D3EE" stroke="rgba(255,255,255,0.55)" stroke-width="1.4" /></g>
    <g transform="translate(905.49 208.13) rotate(-3.06)"><polygon points="0,-19.23 17.24,13.26 -17.24,13.26" fill="#60A5FA" stroke="rgba(255,255,255,0.55)" stroke-width="1.4" /></g>
    <g transform="translate(756.10 268.70) rotate(1.55)"><rect x="-17.75" y="-5.23" width="35.50" height="10.46" rx="5.23" fill="#A78BFA" /><rect x="-5.23" y="-17.75" width="10.46" height="35.50" rx="5.23" fill="#A78BFA" /></g>
    <g transform="translate(367.01 325.01) rotate(5.60)"><polygon points="0.00,-16.08 4.12,-5.68 15.29,-4.97 6.67,2.17 9.45,13.01 0.00,7.02 -9.45,13.01 -6.67,2.17 -15.29,-4.97 -4.12,-5.68" fill="#FB7185" stroke="rgba(255,255,255,0.55)" stroke-width="1.4" /></g>
  </g>
</svg>
