<svg xmlns="http://www.w3.org/2000/svg" width="960" height="600" viewBox="0 0 960 600">
  <defs>
    <linearGradient id="bg96" x1="0%" y1="0%" x2="100%" y2="100%">
      <stop offset="0%" stop-color="#0F172A" />
      <stop offset="100%" stop-color="#1D4ED8" />
    </linearGradient>
    <filter id="shadow96" x="-20%" y="-20%" width="140%" height="140%">
      <feDropShadow dx="0" dy="2" stdDeviation="1.8" flood-color="rgba(0,0,0,0.36)" />
    </filter>
  </defs>

  <rect width="960" height="600" fill="url(#bg96)" />
  <rect x="24" y="24" width="912" height="552" rx="20" fill="rgba(255,255,255,0.045)" stroke="rgba(255,255,255,0.22)" />
  <g filter="url(#shadow96)">
    <g transform="translate(750.64 73.06) rotate(13.25)"><polygon points="-16.95,-6.10 2.71,-6.10 2.71,-12.88 18.65,0.00 2.71,12.88 2.71,6.10 -16.95,6.10" fill="#22D3EE" stroke="rgba(255,255,255,0.55)" stroke-width="1.2" /></g>
    <g transform="translate(45.02 327.39) rotate(-5.99)"><circle cx="0" cy="0" r="19.91" fill="#4ADE80" stroke="rgba(255,255,255,0.55)" stroke-width="1.4" /><circle cx="-7.17" cy="-4.78" r="3.19" fill="#1F2937" /><circle cx="7.17" cy="-4.78" r="3.19" fill="#1F2937" /><path d="M -15.13 5.57 Q 0 13.54 15.13 5.57" fill="none" stroke="#1F2937" stroke-width="2.2" stroke-linecap="round" /></g>
    <g transform="translate(59.09 400.93) rotate(-21.43)"><polygon points="-18.12,-6.52 2.90,-6.52 2.90,-13.77 19.94,0.00 2.90,13.77 2.90,6.52 -18.12,6.52" fill="#F87171" stroke="rgba(255,255,255,0.55)" stroke-width="1.2" /></g>
    <g transform="translate(447.22 207.86) rotate(-1.29)"><circle cx="0" cy="0" r="19.39" fill="#C084FC" stroke="rgba(255,255,255,0.55)" stroke-width="1.4" /><circle cx="-6.98" cy="-4.65" r="3.10" fill="#1F2937" /><circle cx="6.98" cy="-4.65" r="3.10" fill="#1F2937" /><path d="M -14.73 5.43 Q 0 13.18 14.73 5.43" fill="none" stroke="#1F2937" stroke-width="2.2" stroke-linecap="round" /></g>
    <g transform="translate(366.28 524.86) rotate(-22.93)"><polygon points="0,-14.60 14.60,0 0,14.60 -14.60,0" fill="#FB7185" stroke="rgba(255,255,255,0.55)" stroke-width="1.4" /></g>
    <g transform="translate(441.01 404.78) rotate(-3.45)"><polygon points="0,-22.89 20.52,15.78 -20.52,15.78" fill="#4ADE80" stroke="rgba(255,255,255,0.55)" stroke-width="1.4" /></g>
    <g transform="translate(512.30 267.38) rotate(23.09)"><polygon points="-16.49,-5.94 2.64,-5.94 2.64,-12.53 18.14,0.00 2.64,12.53 2.64,5.94 -16.49,5.94" fill="#FBBF24" stroke="rgba(255,255,255,0.55)" stroke-width="1.2" /></g>
    <g transform="translate(357.78 63.43) rotate(-19.17)"><polygon points="0,-19.66 19.66,0 0,19.66 -19.66,0" fill="#FB7185" stroke="rgba(255,255,255,0.55)" stroke-width="1.4" /></g>
    <g transform="translate(436.92 328.13) rotate(2.56)"><path d="M 0 13.97 C -18.30 1.66, -19.96 -11.64, -7.98 -2.66 C -0.67 -13.97, 0.67 -13.97, 7.98 -2.66 C 19.96 -11.64, 18.30 1.66, 0 13.97 Z" fill="#FB7185" stroke="rgba(255,255,255,0.55)" stroke-width="1.2" /></g>
    <g transform="translate(438.37 526.82) rotate(1.45)"><circle cx="0" cy="0" r="16.76" fill="#34D399" stroke="rgba(255,255,255,0.55)" stroke-width="1.4" /><circle cx="-6.03" cy="-4.02" r="2.68" fill="#1F2937" /><circle cx="6.03" cy="-4.02" r="2.68" fill="#1F2937" /><path d="M -12.74 4.69 Q 0 11.40 12.74 4.69" fill="none" stroke="#1F2937" stroke-width="2.2" stroke-linecap="round" /></g>
    <g transform="translate(756.71 459.84) rotate(-12.90)"><path d="M 0 17.33 C -22.70 2.06, -24.76 -14.45, -9.91 -3.30 C -0.83 -17.33, 0.83 -17.33, 9.91 -3.30 C 24.76 -14.45, 22.70 2.06, 0 17.33 Z" fill="#F87171" stroke="rgba(255,255,255,0.55)" stroke-width="1.2" /></g>
    <g transform="translate(282.95 132.55) rotate(-12.15)"><polygon points="0,-19.06 17.09,13.15 -17.09,13.15" fill="#A78BFA" stroke="rgba(255,255,255,0.55)" stroke-width="1.4" /></g>
    <g transform="translate(199.76 71.78) rotate(19.34)"><polygon points="0,-18.39 18.39,0 0,18.39 -18.39,0" fill="#FBBF24" stroke="rgba(255,255,255,0.55)" stroke-width="1.4" /></g>
    <g transform="translate(514.84 72.71) rotate(-20.08)"><polygon points="0,-18.82 16.87,12.98 -16.87,12.98" fill="#22D3EE" stroke="rgba(255,255,255,0.55)" stroke-width="1.4" /></g>
    <g transform="translate(364.27 267.86) rotate(-2.44)"><circle cx="0" cy="0" r="19.90" fill="#22D3EE" /><circle cx="7.96" cy="-0.80" r="16.71" fill="#0B1A34" /></g>
    <g transform="translate(900.15 463.95) rotate(-4.64)"><circle cx="0" cy="0" r="17.48" fill="#FB7185" /><circle cx="6.99" cy="-0.70" r="14.68" fill="#0B1A34" /></g>
    <g transform="translate(359.78 199.03) rotate(2.60)"><polygon points="0,-16.94 15.19,11.68 -15.19,11.68" fill="#34D399" stroke="rgba(255,255,255,0.55)" stroke-width="1.4" /></g>
    <g transform="translate(591.43 406.43) rotate(-0.08)"><circle cx="0" cy="0" r="17.81" fill="#60A5FA" /><circle cx="7.12" cy="-0.71" r="14.96" fill="#0B1A34" /></g>
    <g transform="translate(744.62 194.25) rotate(-6.02)"><path d="M 0 15.38 C -20.14 1.83, -21.97 -12.82, -8.79 -2.93 C -0.73 -15.38, 0.73 -15.38, 8.79 -2.93 C 21.97 -12.82, 20.14 1.83, 0 15.38 Z" fill="#A78BFA" stroke="rgba(255,255,255,0.55)" stroke-width="1.2" /></g>
    <g transform="translate(836.54 195.46) rotate(20.26)"><polygon points="0,-15.40 15.40,0 0,15.40 -15.40,0" fill="#60A5FA" stroke="rgba(255,255,255,0.55)" stroke-width="1.4" /></g>
    <g transform="translate(598.40 333.46) rotate(1.35)"><circle cx="0" cy="0" r="19.26" fill="#4ADE80" stroke="rgba(255,255,255,0.55)" stroke-width="1.4" /><circle cx="-6.94" cy="-4.62" r="3.08" fill="#1F2937" /><circle cx="6.94" cy="-4.62" r="3.08" fill="#1F2937" /><path d="M -14.64 5.39 Q 0 13.10 14.64 5.39" fill="none" stroke="#1F2937" stroke-width="2.2" stroke-linecap="round" /></g>
    <g transform="translate(668.93 471.30) rotate(-3.35)"><circle cx="0" cy="0" r="18.82" fill="#F87171" stroke="rgba(255,255,255,0.55)" stroke-width="1.4" /><circle cx="-6.78" cy="-4.52" r="3.01" fill="#1F2937" /><circle cx="6.78" cy="-4.52" r="3.01" fill="#1F2937" /><path d="M -14.31 5.27 Q 0 12.80 14.31 5.27" fill="none" stroke="#1F2937" stroke-width="2.2" stroke-linecap="round" /></g>
  </g>
</svg>
