<svg xmlns="http://www.w3.org/2000/svg" width="960" height="600" viewBox="0 0 960 600">
  <defs>
    <linearGradient id="bg87" x1="0%" y1="0%" x2="100%" y2="100%">
      <stop offset="0%" stop-color="#0F172A" />
      <stop offset="100%" stop-color="#1D4ED8" />
    </linearGradient>
    <filter id="shadow87" x="-20%" y="-20%" width="140%" height="140%">
      <feDropShadow dx="0" dy="2" stdDeviation="1.8" flood-color="rgba(0,0,0,0.36)" />
    </filter>
  </defs>

  <rect width="960" height="600" fill="url(#bg87)" />
  <rect x="24" y="24" width="912" height="552" rx="20" fill="rgba(255,255,255,0.045)" stroke="rgba(255,255,255,0.22)" />
  <g filter="url(#shadow87)">
    <g transform="translate(290.80 274.27) rotate(21.45)"><polygon points="0.00,-17.05 4.37,-6.02 16.22,-5.27 7.08,2.30 10.02,13.80 0.00,7.44 -10.02,13.80 -7.08,2.30 -16.22,-5.27 -4.37,-6.02" fill="#F87171" stroke="rgba(255,255,255,0.55)" stroke-width="1.4" /></g>
    <g transform="translate(290.05 527.04) rotate(4.00)"><polygon points="-19.54,-7.03 3.13,-7.03 3.13,-14.85 21.49,0.00 3.13,14.85 3.13,7.03 -19.54,7.03" fill="#22D3EE" stroke="rgba(255,255,255,0.55)" stroke-width="1.2" /></g>
    <g transform="translate(588.78 337.73) rotate(15.70)"><polygon points="0,-21.90 19.63,15.10 -19.63,15.10" fill="#60A5FA" stroke="rgba(255,255,255,0.55)" stroke-width="1.4" /></g>
    <g transform="translate(827.50 142.93) rotate(3.48)"><circle cx="0" cy="0" r="18.62" fill="#60A5FA" stroke="rgba(255,255,255,0.55)" stroke-width="1.4" /></g>
    <g transform="translate(514.76 259.17) rotate(-7.95)"><circle cx="0" cy="0" r="15.87" fill="#34D399" stroke="rgba(255,255,255,0.55)" stroke-width="1.4" /></g>
    <g transform="translate(355.63 199.59) rotate(15.85)"><polygon points="-17.05,-6.14 2.73,-6.14 2.73,-12.96 18.76,0.00 2.73,12.96 2.73,6.14 -17.05,6.14" fill="#F87171" stroke="rgba(255,255,255,0.55)" stroke-width="1.2" /></g>
    <g transform="translate(755.82 203.11) rotate(27.80)"><polygon points="0,-16.67 14.95,11.50 -14.95,11.50" fill="#C084FC" stroke="rgba(255,255,255,0.55)" stroke-width="1.4" /></g>
    <g transform="translate(288.32 400.74) rotate(8.22)"><polygon points="0.00,-20.59 5.28,-7.27 19.58,-6.36 8.55,2.78 12.10,16.66 0.00,8.99 -12.10,16.66 -8.55,2.78 -19.58,-6.36 -5.28,-7.27" fill="#F87171" stroke="rgba(255,255,255,0.55)" stroke-width="1.4" /></g>
    <g transform="translate(833.94 65.79) rotate(-25.89)"><circle cx="0" cy="0" r="16.59" fill="#A78BFA" stroke="rgba(255,255,255,0.55)" stroke-width="1.4" /></g>
    <g transform="translate(45.82 395.84) rotate(-19.80)"><rect x="-17.20" y="-17.20" width="34.40" height="34.40" rx="3.74" fill="#F87171" stroke="rgba(255,255,255,0.55)" stroke-width="1.4" /></g>
    <g transform="translate(679.07 461.97) rotate(-5.12)"><circle cx="0" cy="0" r="20.84" fill="#4ADE80" stroke="rgba(255,255,255,0.55)" stroke-width="1.4" /><circle cx="-7.50" cy="-5.00" r="3.33" fill="#1F2937" /><circle cx="7.50" cy="-5.00" r="3.33" fill="#1F2937" /><path d="M -15.84 5.83 Q 0 14.17 15.84 5.83" fill="none" stroke="#1F2937" stroke-width="2.2" stroke-linecap="round" /></g>
    <g transform="translate(442.30 272.03) rotate(-27.33)"><polygon points="0,-22.39 20.07,15.44 -20.07,15.44" fill="#F87171" stroke="rgba(255,255,255,0.55)" stroke-width="1.4" /></g>
    <g transform="translate(909.48 536.98) rotate(-19.81)"><polygon points="-14.95,-5.38 2.39,-5.38 2.39,-11.36 16.45,0.00 2.39,11.36 2.39,5.38 -14.95,5.38" fill="#34D399" stroke="rgba(255,255,255,0.55)" stroke-width="1.2" /></g>
    <g transform="translate(289.48 194.12) rotate(-12.05)"><path d="M 0 16.25 C -21.27 1.93, -23.21 -13.54, -9.28 -3.09 C -0.77 -16.25, 0.77 -16.25, 9.28 -3.09 C 23.21 -13.54, 21.27 1.93, 0 16.25 Z" fill="#FB7185" stroke="rgba(255,255,255,0.55)" stroke-width="1.2" /></g>
    <g transform="translate(591.79 270.46) rotate(-13.35)"><polygon points="0,-21.19 19.00,14.62 -19.00,14.62" fill="#C084FC" stroke="rgba(255,255,255,0.55)" stroke-width="1.4" /></g>
    <g transform="translate(903.67 400.58) rotate(2.09)"><polygon points="-16.07,-5.78 2.57,-5.78 2.57,-12.21 17.67,0.00 2.57,12.21 2.57,5.78 -16.07,5.78" fill="#F97316" stroke="rgba(255,255,255,0.55)" stroke-width="1.2" /></g>
  </g>
</svg>
