<svg xmlns="http://www.w3.org/2000/svg" width="960" height="600" viewBox="0 0 960 600">
  <defs>
    <linearGradient id="bg60" x1="0%" y1="0%" x2="100%" y2="100%">
      <stop offset="0%" stop-color="#0F172A" />
      <stop offset="100%" stop-color="#1D4ED8" />
    </linearGradient>
    <filter id="shadow60" x="-20%" y="-20%" width="140%" height="140%">
      <feDropShadow dx="0" dy="2" stdDeviation="1.8" flood-color="rgba(0,0,0,0.36)" />
    </filter>
  </defs>

  <rect width="960" height="600" fill="url(#bg60)" />
  <rect x="24" y="24" width="912" height="552" rx="20" fill="rgba(255,255,255,0.045)" stroke="rgba(255,255,255,0.22)" />
  <g filter="url(#shadow60)">
    <g transform="translate(362.90 200.27) rotate(-17.73)"><polygon points="0.00,-19.55 5.01,-6.90 18.60,-6.04 8.11,2.64 11.49,15.82 0.00,8.53 -11.49,15.82 -8.11,2.64 -18.60,-6.04 -5.01,-6.90" fill="#A78BFA" stroke="rgba(255,255,255,0.55)" stroke-width="1.4" /></g>
    <g transform="translate(671.31 66.80) rotate(2.33)"><path d="M 0 12.64 C -16.55 1.50, -18.06 -10.53, -7.22 -2.41 C -0.60 -12.64, 0.60 -12.64, 7.22 -2.41 C 18.06 -10.53, 16.55 1.50, 0 12.64 Z" fill="#FBBF24" stroke="rgba(255,255,255,0.55)" stroke-width="1.2" /></g>
    <g transform="translate(54.50 270.90) rotate(-12.01)"><polygon points="-17.22,-6.20 2.76,-6.20 2.76,-13.09 18.95,0.00 2.76,13.09 2.76,6.20 -17.22,6.20" fill="#4ADE80" stroke="rgba(255,255,255,0.55)" stroke-width="1.2" /></g>
    <g transform="translate(513.15 70.07) rotate(-2.34)"><circle cx="0" cy="0" r="15.21" fill="#FB7185" /><circle cx="6.08" cy="-0.61" r="12.77" fill="#0B1A34" /></g>
    <g transform="translate(442.96 393.75) rotate(-13.61)"><polygon points="-16.67,-6.00 2.67,-6.00 2.67,-12.67 18.33,0.00 2.67,12.67 2.67,6.00 -16.67,6.00" fill="#60A5FA" stroke="rgba(255,255,255,0.55)" stroke-width="1.2" /></g>
    <g transform="translate(759.62 71.98) rotate(-11.25)"><rect x="-17.62" y="-17.62" width="35.25" height="35.25" rx="3.83" fill="#60A5FA" stroke="rgba(255,255,255,0.55)" stroke-width="1.4" /></g>
    <g transform="translate(356.24 391.25) rotate(-4.79)"><circle cx="0" cy="0" r="16.88" fill="#C084FC" /><circle cx="6.75" cy="-0.68" r="14.18" fill="#0B1A34" /></g>
    <g transform="translate(601.98 201.43) rotate(3.70)"><circle cx="0" cy="0" r="15.87" fill="#FBBF24" /><circle cx="6.35" cy="-0.63" r="13.33" fill="#0B1A34" /></g>
    <g transform="translate(215.28 340.73) rotate(26.73)"><polygon points="0,-23.16 20.76,15.97 -20.76,15.97" fill="#4ADE80" stroke="rgba(255,255,255,0.55)" stroke-width="1.4" /></g>
    <g transform="translate(438.00 458.22) rotate(-0.72)"><circle cx="0" cy="0" r="16.93" fill="#F87171" /><circle cx="6.77" cy="-0.68" r="14.22" fill="#0B1A34" /></g>
    <g transform="translate(906.68 74.36) rotate(0.09)"><path d="M 0 13.15 C -17.21 1.56, -18.78 -10.95, -7.51 -2.50 C -0.63 -13.15, 0.63 -13.15, 7.51 -2.50 C 18.78 -10.95, 17.21 1.56, 0 13.15 Z" fill="#60A5FA" stroke="rgba(255,255,255,0.55)" stroke-width="1.2" /></g>
    <g transform="translate(135.99 393.26) rotate(10.67)"><path d="M 0 12.25 C -16.04 1.46, -17.50 -10.21, -7.00 -2.33 C -0.58 -12.25, 0.58 -12.25, 7.00 -2.33 C 17.50 -10.21, 16.04 1.46, 0 12.25 Z" fill="#F97316" stroke="rgba(255,255,255,0.55)" stroke-width="1.2" /></g>
    <g transform="translate(906.14 206.48) rotate(-1.33)"><rect x="-16.71" y="-16.71" width="33.43" height="33.43" rx="3.63" fill="#34D399" stroke="rgba(255,255,255,0.55)" stroke-width="1.4" /></g>
    <g transform="translate(282.26 201.45) rotate(-18.54)"><polygon points="-14.53,-5.23 2.32,-5.23 2.32,-11.04 15.98,0.00 2.32,11.04 2.32,5.23 -14.53,5.23" fill="#FB7185" stroke="rgba(255,255,255,0.55)" stroke-width="1.2" /></g>
    <g transform="translate(914.86 526.73) rotate(-8.45)"><circle cx="0" cy="0" r="14.59" fill="#34D399" stroke="rgba(255,255,255,0.55)" stroke-width="1.4" /></g>
    <g transform="translate(753.21 466.58) rotate(25.16)"><circle cx="0" cy="0" r="15.04" fill="#FBBF24" stroke="rgba(255,255,255,0.55)" stroke-width="1.4" /></g>
    <g transform="translate(210.30 261.25) rotate(26.19)"><polygon points="-18.94,-6.82 3.03,-6.82 3.03,-14.40 20.84,0.00 3.03,14.40 3.03,6.82 -18.94,6.82" fill="#34D399" stroke="rgba(255,255,255,0.55)" stroke-width="1.2" /></g>
    <g transform="translate(203.09 534.52) rotate(23.95)"><polygon points="-15.35,-5.52 2.46,-5.52 2.46,-11.66 16.88,0.00 2.46,11.66 2.46,5.52 -15.35,5.52" fill="#C084FC" stroke="rgba(255,255,255,0.55)" stroke-width="1.2" /></g>
    <g transform="translate(204.04 391.84) rotate(-13.19)"><polygon points="0,-16.58 14.86,11.43 -14.86,11.43" fill="#F87171" stroke="rgba(255,255,255,0.55)" stroke-width="1.4" /></g>
    <g transform="translate(913.16 261.48) rotate(20.32)"><circle cx="0" cy="0" r="17.31" fill="#F87171" stroke="rgba(255,255,255,0.55)" stroke-width="1.4" /></g>
  </g>
</svg>
