<svg xmlns="http://www.w3.org/2000/svg" width="960" height="600" viewBox="0 0 960 600">
  <defs>
    <linearGradient id="bg52" x1="0%" y1="0%" x2="100%" y2="100%">
      <stop offset="0%" stop-color="#0F172A" />
      <stop offset="100%" stop-color="#1D4ED8" />
    </linearGradient>
    <filter id="shadow52" x="-20%" y="-20%" width="140%" height="140%">
      <feDropShadow dx="0" dy="2" stdDeviation="1.8" flood-color="rgba(0,0,0,0.36)" />
    </filter>
  </defs>

  <rect width="960" height="600" fill="url(#bg52)" />
  <rect x="24" y="24" width="912" height="552" rx="20" fill="rgba(255,255,255,0.045)" stroke="rgba(255,255,255,0.22)" />
  <g filter="url(#shadow52)">
    <g transform="translate(516.44 134.40) rotate(13.25)"><polygon points="-19.19,-6.91 3.07,-6.91 3.07,-14.58 21.11,0.00 3.07,14.58 3.07,6.91 -19.19,6.91" fill="#FB7185" stroke="rgba(255,255,255,0.55)" stroke-width="1.2" /></g>
    <g transform="translate(520.22 274.29) rotate(22.49)"><polygon points="0,-19.54 17.52,13.48 -17.52,13.48" fill="#FBBF24" stroke="rgba(255,255,255,0.55)" stroke-width="1.4" /></g>
    <g transform="translate(823.33 141.31) rotate(-15.84)"><rect x="-17.80" y="-17.80" width="35.61" height="35.61" rx="3.87" fill="#4ADE80" stroke="rgba(255,255,255,0.55)" stroke-width="1.4" /></g>
    <g transform="translate(825.86 529.97) rotate(-5.07)"><polygon points="-19.33,-6.96 3.09,-6.96 3.09,-14.69 21.26,0.00 3.09,14.69 3.09,6.96 -19.33,6.96" fill="#FBBF24" stroke="rgba(255,255,255,0.55)" stroke-width="1.2" /></g>
    <g transform="translate(902.40 260.82) rotate(-7.09)"><polygon points="-16.96,-6.10 2.71,-6.10 2.71,-12.89 18.65,0.00 2.71,12.89 2.71,6.10 -16.96,6.10" fill="#A78BFA" stroke="rgba(255,255,255,0.55)" stroke-width="1.2" /></g>
    <g transform="translate(292.23 339.53) rotate(3.28)"><circle cx="0" cy="0" r="20.63" fill="#22D3EE" stroke="rgba(255,255,255,0.55)" stroke-width="1.4" /><circle cx="-7.43" cy="-4.95" r="3.30" fill="#1F2937" /><circle cx="7.43" cy="-4.95" r="3.30" fill="#1F2937" /><path d="M -15.68 5.78 Q 0 14.03 15.68 5.78" fill="none" stroke="#1F2937" stroke-width="2.2" stroke-linecap="round" /></g>
    <g transform="translate(906.04 141.61) rotate(-1.18)"><circle cx="0" cy="0" r="19.26" fill="#34D399" stroke="rgba(255,255,255,0.55)" stroke-width="1.4" /><circle cx="-6.93" cy="-4.62" r="3.08" fill="#1F2937" /><circle cx="6.93" cy="-4.62" r="3.08" fill="#1F2937" /><path d="M -14.64 5.39 Q 0 13.10 14.64 5.39" fill="none" stroke="#1F2937" stroke-width="2.2" stroke-linecap="round" /></g>
    <g transform="translate(589.68 331.05) rotate(2.90)"><polygon points="0,-16.25 14.57,11.21 -14.57,11.21" fill="#FB7185" stroke="rgba(255,255,255,0.55)" stroke-width="1.4" /></g>
    <g transform="translate(753.20 128.09) rotate(26.99)"><polygon points="-18.81,-6.77 3.01,-6.77 3.01,-14.30 20.69,0.00 3.01,14.30 3.01,6.77 -18.81,6.77" fill="#FB7185" stroke="rgba(255,255,255,0.55)" stroke-width="1.2" /></g>
    <g transform="translate(205.00 525.38) rotate(-19.58)"><polygon points="0,-18.30 16.41,12.62 -16.41,12.62" fill="#60A5FA" stroke="rgba(255,255,255,0.55)" stroke-width="1.4" /></g>
    <g transform="translate(757.15 391.70) rotate(15.53)"><polygon points="0,-20.97 18.80,14.46 -18.80,14.46" fill="#FBBF24" stroke="rgba(255,255,255,0.55)" stroke-width="1.4" /></g>
    <g transform="translate(209.11 200.09) rotate(-0.80)"><polygon points="0,-16.44 14.74,11.34 -14.74,11.34" fill="#34D399" stroke="rgba(255,255,255,0.55)" stroke-width="1.4" /></g>
    <g transform="translate(125.70 534.88) rotate(5.72)"><polygon points="0.00,-19.09 4.90,-6.74 18.15,-5.90 7.92,2.57 11.22,15.44 0.00,8.33 -11.22,15.44 -7.92,2.57 -18.15,-5.90 -4.90,-6.74" fill="#22D3EE" stroke="rgba(255,255,255,0.55)" stroke-width="1.4" /></g>
    <g transform="translate(679.41 201.28) rotate(2.33)"><circle cx="0" cy="0" r="15.90" fill="#F87171" stroke="rgba(255,255,255,0.55)" stroke-width="1.4" /></g>
    <g transform="translate(360.67 205.02) rotate(-21.18)"><polygon points="0,-16.41 14.71,11.32 -14.71,11.32" fill="#22D3EE" stroke="rgba(255,255,255,0.55)" stroke-width="1.4" /></g>
    <g transform="translate(124.23 206.29) rotate(-6.76)"><circle cx="0" cy="0" r="16.11" fill="#22D3EE" stroke="rgba(255,255,255,0.55)" stroke-width="1.4" /><circle cx="-5.80" cy="-3.87" r="2.58" fill="#1F2937" /><circle cx="5.80" cy="-3.87" r="2.58" fill="#1F2937" /><path d="M -12.25 4.51 Q 0 10.96 12.25 4.51" fill="none" stroke="#1F2937" stroke-width="2.2" stroke-linecap="round" /></g>
  </g>
</svg>
