<svg xmlns="http://www.w3.org/2000/svg" width="960" height="600" viewBox="0 0 960 600">
  <defs>
    <linearGradient id="bg103" x1="0%" y1="0%" x2="100%" y2="100%">
      <stop offset="0%" stop-color="#0F172A" />
      <stop offset="100%" stop-color="#1D4ED8" />
    </linearGradient>
    <filter id="shadow103" x="-20%" y="-20%" width="140%" height="140%">
      <feDropShadow dx="0" dy="2" stdDeviation="1.8" flood-color="rgba(0,0,0,0.36)" />
    </filter>
  </defs>

  <rect width="960" height="600" fill="url(#bg103)" />
  <rect x="24" y="24" width="912" height="552" rx="20" fill="rgba(255,255,255,0.045)" stroke="rgba(255,255,255,0.22)" />
  <g filter="url(#shadow103)">
    <g transform="translate(519.99 130.42) rotate(11.47)"><circle cx="0" cy="0" r="14.51" fill="#22D3EE" stroke="rgba(255,255,255,0.55)" stroke-width="1.4" /></g>
    <g transform="translate(360.63 406.27) rotate(-18.88)"><polygon points="0,-21.23 19.04,14.64 -19.04,14.64" fill="#FB7185" stroke="rgba(255,255,255,0.55)" stroke-width="1.4" /></g>
    <g transform="translate(355.66 203.52) rotate(2.13)"><rect x="-15.16" y="-4.47" width="30.33" height="8.94" rx="4.47" fill="#FBBF24" /><rect x="-4.47" y="-15.16" width="8.94" height="30.33" rx="4.47" fill="#FBBF24" /></g>
    <g transform="translate(677.72 204.76) rotate(-23.88)"><rect x="-13.76" y="-13.76" width="27.53" height="27.53" rx="2.99" fill="#60A5FA" stroke="rgba(255,255,255,0.55)" stroke-width="1.4" /></g>
    <g transform="translate(673.20 65.88) rotate(-18.42)"><circle cx="0" cy="0" r="18.86" fill="#FBBF24" stroke="rgba(255,255,255,0.55)" stroke-width="1.4" /></g>
    <g transform="translate(591.96 332.00) rotate(21.33)"><circle cx="0" cy="0" r="17.30" fill="#34D399" stroke="rgba(255,255,255,0.55)" stroke-width="1.4" /></g>
    <g transform="translate(210.88 206.97) rotate(-7.77)"><rect x="-14.12" y="-14.12" width="28.24" height="28.24" rx="3.07" fill="#4ADE80" stroke="rgba(255,255,255,0.55)" stroke-width="1.4" /></g>
    <g transform="translate(753.06 522.15) rotate(4.24)"><rect x="-19.19" y="-19.19" width="38.38" height="38.38" rx="4.17" fill="#F87171" stroke="rgba(255,255,255,0.55)" stroke-width="1.4" /></g>
    <g transform="translate(435.17 140.08) rotate(23.63)"><circle cx="0" cy="0" r="17.45" fill="#F97316" stroke="rgba(255,255,255,0.55)" stroke-width="1.4" /></g>
    <g transform="translate(289.98 466.27) rotate(8.22)"><rect x="-17.08" y="-17.08" width="34.16" height="34.16" rx="3.71" fill="#F87171" stroke="rgba(255,255,255,0.55)" stroke-width="1.4" /></g>
    <g transform="translate(749.59 143.27) rotate(-11.48)"><circle cx="0" cy="0" r="18.68" fill="#60A5FA" stroke="rgba(255,255,255,0.55)" stroke-width="1.4" /></g>
    <g transform="translate(907.05 327.19) rotate(-19.42)"><rect x="-17.29" y="-17.29" width="34.58" height="34.58" rx="3.76" fill="#34D399" stroke="rgba(255,255,255,0.55)" stroke-width="1.4" /></g>
    <g transform="translate(435.67 206.27) rotate(4.81)"><rect x="-18.39" y="-5.42" width="36.78" height="10.84" rx="5.42" fill="#A78BFA" /><rect x="-5.42" y="-18.39" width="10.84" height="36.78" rx="5.42" fill="#A78BFA" /></g>
    <g transform="translate(900.68 134.34) rotate(-13.88)"><polygon points="0,-20.61 18.48,14.22 -18.48,14.22" fill="#A78BFA" stroke="rgba(255,255,255,0.55)" stroke-width="1.4" /></g>
    <g transform="translate(53.79 73.55) rotate(-10.66)"><polygon points="0,-17.14 15.37,11.82 -15.37,11.82" fill="#A78BFA" stroke="rgba(255,255,255,0.55)" stroke-width="1.4" /></g>
    <g transform="translate(756.59 393.09) rotate(-7.72)"><rect x="-16.46" y="-16.46" width="32.92" height="32.92" rx="3.58" fill="#C084FC" stroke="rgba(255,255,255,0.55)" stroke-width="1.4" /></g>
    <g transform="translate(601.03 391.95) rotate(9.35)"><rect x="-19.01" y="-5.60" width="38.02" height="11.21" rx="5.60" fill="#34D399" /><rect x="-5.60" y="-19.01" width="11.21" height="38.02" rx="5.60" fill="#34D399" /></g>
    <g transform="translate(289.19 403.62) rotate(1.95)"><rect x="-18.40" y="-5.42" width="36.80" height="10.85" rx="5.42" fill="#C084FC" /><rect x="-5.42" y="-18.40" width="10.85" height="36.80" rx="5.42" fill="#C084FC" /></g>
    <g transform="translate(901.22 401.49) rotate(-25.88)"><circle cx="0" cy="0" r="19.78" fill="#60A5FA" stroke="rgba(255,255,255,0.55)" stroke-width="1.4" /></g>
    <g transform="translate(903.03 68.59) rotate(15.09)"><rect x="-13.60" y="-4.01" width="27.19" height="8.01" rx="4.01" fill="#4ADE80" /><rect x="-4.01" y="-13.60" width="8.01" height="27.19" rx="4.01" fill="#4ADE80" /></g>
    <g transform="translate(745.19 75.15) rotate(-8.27)"><rect x="-19.10" y="-19.10" width="38.21" height="38.21" rx="4.15" fill="#FB7185" stroke="rgba(255,255,255,0.55)" stroke-width="1.4" /></g>
    <g transform="translate(750.46 330.93) rotate(9.15)"><rect x="-13.20" y="-13.20" width="26.39" height="26.39" rx="2.87" fill="#A78BFA" stroke="rgba(255,255,255,0.55)" stroke-width="1.4" /></g>
    <g transform="translate(433.80 65.84) rotate(20.37)"><rect x="-15.96" y="-15.96" width="31.92" height="31.92" rx="3.47" fill="#F97316" stroke="rgba(255,255,255,0.55)" stroke-width="1.4" /></g>
    <g transform="translate(912.96 274.12) rotate(-0.13)"><circle cx="0" cy="0" r="17.66" fill="#FBBF24" stroke="rgba(255,255,255,0.55)" stroke-width="1.4" /></g>
  </g>
</svg>
