<svg xmlns="http://www.w3.org/2000/svg" width="960" height="600" viewBox="0 0 960 600">
  <defs>
    <linearGradient id="bg141" x1="0%" y1="0%" x2="100%" y2="100%">
      <stop offset="0%" stop-color="#0F172A" />
      <stop offset="100%" stop-color="#1D4ED8" />
    </linearGradient>
    <filter id="shadow141" x="-20%" y="-20%" width="140%" height="140%">
      <feDropShadow dx="0" dy="2" stdDeviation="1.8" flood-color="rgba(0,0,0,0.36)" />
    </filter>
  </defs>

  <rect width="960" height="600" fill="url(#bg141)" />
  <rect x="24" y="24" width="912" height="552" rx="20" fill="rgba(255,255,255,0.045)" stroke="rgba(255,255,255,0.22)" />
  <g filter="url(#shadow141)">
    <g transform="translate(131.84 77.08) rotate(7.86)"><polygon points="0.00,-17.06 4.38,-6.02 16.23,-5.27 7.08,2.30 10.03,13.81 0.00,7.45 -10.03,13.81 -7.08,2.30 -16.23,-5.27 -4.38,-6.02" fill="#FB7185" stroke="rgba(255,255,255,0.55)" stroke-width="1.4" /></g>
    <g transform="translate(906.24 261.04) rotate(-0.03)"><circle cx="0" cy="0" r="19.83" fill="#F87171" /><circle cx="7.93" cy="-0.79" r="16.66" fill="#0B1A34" /></g>
    <g transform="translate(909.95 404.83) rotate(-14.61)"><polygon points="0.00,-21.60 5.54,-7.62 20.54,-6.67 8.96,2.91 12.70,17.47 0.00,9.42 -12.70,17.47 -8.96,2.91 -20.54,-6.67 -5.54,-7.62" fill="#FBBF24" stroke="rgba(255,255,255,0.55)" stroke-width="1.4" /></g>
    <g transform="translate(206.35 464.90) rotate(-8.55)"><circle cx="0" cy="0" r="17.84" fill="#4ADE80" stroke="rgba(255,255,255,0.55)" stroke-width="1.4" /></g>
    <g transform="translate(45.17 340.45) rotate(-11.52)"><rect x="-18.53" y="-18.53" width="37.06" height="37.06" rx="4.03" fill="#4ADE80" stroke="rgba(255,255,255,0.55)" stroke-width="1.4" /></g>
    <g transform="translate(595.63 273.33) rotate(-12.26)"><polygon points="0.00,-18.81 4.82,-6.64 17.89,-5.81 7.80,2.54 11.05,15.21 0.00,8.21 -11.05,15.21 -7.80,2.54 -17.89,-5.81 -4.82,-6.64" fill="#C084FC" stroke="rgba(255,255,255,0.55)" stroke-width="1.4" /></g>
    <g transform="translate(520.52 133.37) rotate(-4.98)"><circle cx="0" cy="0" r="16.81" fill="#60A5FA" /><circle cx="6.73" cy="-0.67" r="14.12" fill="#0B1A34" /></g>
    <g transform="translate(132.83 198.98) rotate(-3.12)"><circle cx="0" cy="0" r="15.07" fill="#F97316" /><circle cx="6.03" cy="-0.60" r="12.66" fill="#0B1A34" /></g>
    <g transform="translate(754.39 69.63) rotate(-26.52)"><rect x="-17.22" y="-17.22" width="34.44" height="34.44" rx="3.74" fill="#60A5FA" stroke="rgba(255,255,255,0.55)" stroke-width="1.4" /></g>
    <g transform="translate(45.07 522.19) rotate(20.76)"><polygon points="0,-19.01 19.01,0 0,19.01 -19.01,0" fill="#34D399" stroke="rgba(255,255,255,0.55)" stroke-width="1.4" /></g>
    <g transform="translate(48.86 140.40) rotate(16.16)"><rect x="-13.08" y="-13.08" width="26.15" height="26.15" rx="2.84" fill="#4ADE80" stroke="rgba(255,255,255,0.55)" stroke-width="1.4" /></g>
    <g transform="translate(591.49 194.51) rotate(23.59)"><polygon points="0,-16.15 16.15,0 0,16.15 -16.15,0" fill="#22D3EE" stroke="rgba(255,255,255,0.55)" stroke-width="1.4" /></g>
    <g transform="translate(286.92 70.70) rotate(-26.40)"><rect x="-17.34" y="-17.34" width="34.67" height="34.67" rx="3.77" fill="#22D3EE" stroke="rgba(255,255,255,0.55)" stroke-width="1.4" /></g>
    <g transform="translate(746.03 271.07) rotate(2.99)"><rect x="-17.97" y="-5.30" width="35.94" height="10.59" rx="5.30" fill="#34D399" /><rect x="-5.30" y="-17.97" width="10.59" height="35.94" rx="5.30" fill="#34D399" /></g>
    <g transform="translate(54.04 463.69) rotate(-7.73)"><polygon points="0.00,-22.10 5.67,-7.80 21.02,-6.83 9.17,2.98 12.99,17.88 0.00,9.64 -12.99,17.88 -9.17,2.98 -21.02,-6.83 -5.67,-7.80" fill="#FBBF24" stroke="rgba(255,255,255,0.55)" stroke-width="1.4" /></g>
    <g transform="translate(828.61 269.45) rotate(-6.77)"><circle cx="0" cy="0" r="19.97" fill="#FBBF24" /><circle cx="7.99" cy="-0.80" r="16.77" fill="#0B1A34" /></g>
    <g transform="translate(681.76 68.19) rotate(7.75)"><circle cx="0" cy="0" r="20.66" fill="#F97316" /><circle cx="8.26" cy="-0.83" r="17.35" fill="#0B1A34" /></g>
    <g transform="translate(355.39 203.86) rotate(-11.44)"><polygon points="0.00,-21.56 5.53,-7.61 20.50,-6.66 8.95,2.91 12.67,17.44 0.00,9.41 -12.67,17.44 -8.95,2.91 -20.50,-6.66 -5.53,-7.61" fill="#60A5FA" stroke="rgba(255,255,255,0.55)" stroke-width="1.4" /></g>
    <g transform="translate(122.14 526.63) rotate(-20.84)"><polygon points="0.00,-21.29 5.46,-7.51 20.25,-6.58 8.83,2.87 12.51,17.22 0.00,9.29 -12.51,17.22 -8.83,2.87 -20.25,-6.58 -5.46,-7.51" fill="#34D399" stroke="rgba(255,255,255,0.55)" stroke-width="1.4" /></g>
    <g transform="translate(278.91 259.47) rotate(-3.94)"><rect x="-13.38" y="-13.38" width="26.76" height="26.76" rx="2.91" fill="#22D3EE" stroke="rgba(255,255,255,0.55)" stroke-width="1.4" /></g>
    <g transform="translate(753.29 456.61) rotate(5.29)"><circle cx="0" cy="0" r="16.90" fill="#FBBF24" /><circle cx="6.76" cy="-0.68" r="14.20" fill="#0B1A34" /></g>
    <g transform="translate(671.54 269.35) rotate(23.59)"><polygon points="0.00,-19.98 5.12,-7.05 19.00,-6.17 8.29,2.69 11.74,16.16 0.00,8.72 -11.74,16.16 -8.29,2.69 -19.00,-6.17 -5.12,-7.05" fill="#A78BFA" stroke="rgba(255,255,255,0.55)" stroke-width="1.4" /></g>
    <g transform="translate(604.14 333.62) rotate(-7.17)"><circle cx="0" cy="0" r="17.55" fill="#F97316" /><circle cx="7.02" cy="-0.70" r="14.74" fill="#0B1A34" /></g>
    <g transform="translate(441.12 530.17) rotate(19.19)"><polygon points="0.00,-20.09 5.15,-7.09 19.11,-6.21 8.34,2.71 11.81,16.26 0.00,8.77 -11.81,16.26 -8.34,2.71 -19.11,-6.21 -5.15,-7.09" fill="#FBBF24" stroke="rgba(255,255,255,0.55)" stroke-width="1.4" /></g>
    <g transform="translate(358.83 327.30) rotate(-0.83)"><polygon points="0.00,-22.41 5.75,-7.91 21.32,-6.93 9.30,3.02 13.17,18.13 0.00,9.78 -13.17,18.13 -9.30,3.02 -21.32,-6.93 -5.75,-7.91" fill="#60A5FA" stroke="rgba(255,255,255,0.55)" stroke-width="1.4" /></g>
  </g>
</svg>
