<svg xmlns="http://www.w3.org/2000/svg" width="960" height="600" viewBox="0 0 960 600">
  <defs>
    <linearGradient id="bg101" x1="0%" y1="0%" x2="100%" y2="100%">
      <stop offset="0%" stop-color="#0F172A" />
      <stop offset="100%" stop-color="#1D4ED8" />
    </linearGradient>
    <filter id="shadow101" x="-20%" y="-20%" width="140%" height="140%">
      <feDropShadow dx="0" dy="2" stdDeviation="1.8" flood-color="rgba(0,0,0,0.36)" />
    </filter>
  </defs>

  <rect width="960" height="600" fill="url(#bg101)" />
  <rect x="24" y="24" width="912" height="552" rx="20" fill="rgba(255,255,255,0.045)" stroke="rgba(255,255,255,0.22)" />
  <g filter="url(#shadow101)">
    <g transform="translate(592.18 259.33) rotate(-16.81)"><polygon points="0.00,-18.92 4.85,-6.68 18.00,-5.85 7.85,2.55 11.12,15.31 0.00,8.26 -11.12,15.31 -7.85,2.55 -18.00,-5.85 -4.85,-6.68" fill="#4ADE80" stroke="rgba(255,255,255,0.55)" stroke-width="1.4" /></g>
    <g transform="translate(827.17 333.14) rotate(2.55)"><path d="M 0 16.84 C -22.06 2.01, -24.06 -14.04, -9.62 -3.21 C -0.80 -16.84, 0.80 -16.84, 9.62 -3.21 C 24.06 -14.04, 22.06 2.01, 0 16.84 Z" fill="#4ADE80" stroke="rgba(255,255,255,0.55)" stroke-width="1.2" /></g>
    <g transform="translate(829.51 271.83) rotate(11.12)"><polygon points="0,-20.60 20.60,0 0,20.60 -20.60,0" fill="#A78BFA" stroke="rgba(255,255,255,0.55)" stroke-width="1.4" /></g>
    <g transform="translate(50.39 273.31) rotate(-1.56)"><polygon points="0.00,-22.74 5.83,-8.03 21.63,-7.03 9.44,3.07 13.37,18.40 0.00,9.92 -13.37,18.40 -9.44,3.07 -21.63,-7.03 -5.83,-8.03" fill="#34D399" stroke="rgba(255,255,255,0.55)" stroke-width="1.4" /></g>
    <g transform="translate(825.95 406.29) rotate(0.81)"><path d="M 0 14.30 C -18.73 1.70, -20.43 -11.92, -8.17 -2.72 C -0.68 -14.30, 0.68 -14.30, 8.17 -2.72 C 20.43 -11.92, 18.73 1.70, 0 14.30 Z" fill="#F87171" stroke="rgba(255,255,255,0.55)" stroke-width="1.2" /></g>
    <g transform="translate(673.15 75.88) rotate(7.45)"><polygon points="0.00,-17.15 4.40,-6.05 16.31,-5.30 7.12,2.31 10.08,13.87 0.00,7.48 -10.08,13.87 -7.12,2.31 -16.31,-5.30 -4.40,-6.05" fill="#34D399" stroke="rgba(255,255,255,0.55)" stroke-width="1.4" /></g>
    <g transform="translate(281.76 127.94) rotate(17.08)"><path d="M 0 12.93 C -16.94 1.54, -18.48 -10.78, -7.39 -2.46 C -0.62 -12.93, 0.62 -12.93, 7.39 -2.46 C 18.48 -10.78, 16.94 1.54, 0 12.93 Z" fill="#F97316" stroke="rgba(255,255,255,0.55)" stroke-width="1.2" /></g>
    <g transform="translate(753.47 75.56) rotate(-3.28)"><polygon points="0,-16.86 16.86,0 0,16.86 -16.86,0" fill="#34D399" stroke="rgba(255,255,255,0.55)" stroke-width="1.4" /></g>
    <g transform="translate(53.20 528.43) rotate(-14.00)"><polygon points="0.00,-17.36 4.45,-6.13 16.51,-5.36 7.20,2.34 10.20,14.04 0.00,7.57 -10.20,14.04 -7.20,2.34 -16.51,-5.36 -4.45,-6.13" fill="#34D399" stroke="rgba(255,255,255,0.55)" stroke-width="1.4" /></g>
    <g transform="translate(672.09 340.17) rotate(26.26)"><rect x="-13.39" y="-3.95" width="26.78" height="7.89" rx="3.95" fill="#F97316" /><rect x="-3.95" y="-13.39" width="7.89" height="26.78" rx="3.95" fill="#F97316" /></g>
    <g transform="translate(681.59 399.00) rotate(-24.15)"><polygon points="0.00,-18.09 4.64,-6.39 17.20,-5.59 7.51,2.44 10.63,14.63 0.00,7.89 -10.63,14.63 -7.51,2.44 -17.20,-5.59 -4.64,-6.39" fill="#34D399" stroke="rgba(255,255,255,0.55)" stroke-width="1.4" /></g>
    <g transform="translate(55.62 198.09) rotate(-11.59)"><path d="M 0 15.13 C -19.81 1.80, -21.61 -12.61, -8.64 -2.88 C -0.72 -15.13, 0.72 -15.13, 8.64 -2.88 C 21.61 -12.61, 19.81 1.80, 0 15.13 Z" fill="#FB7185" stroke="rgba(255,255,255,0.55)" stroke-width="1.2" /></g>
    <g transform="translate(515.46 202.68) rotate(-14.29)"><polygon points="0.00,-18.65 4.78,-6.58 17.73,-5.76 7.74,2.51 10.96,15.09 0.00,8.14 -10.96,15.09 -7.74,2.51 -17.73,-5.76 -4.78,-6.58" fill="#F97316" stroke="rgba(255,255,255,0.55)" stroke-width="1.4" /></g>
    <g transform="translate(512.37 469.22) rotate(-27.60)"><polygon points="0.00,-21.90 5.62,-7.73 20.83,-6.77 9.09,2.95 12.87,17.72 0.00,9.56 -12.87,17.72 -9.09,2.95 -20.83,-6.77 -5.62,-7.73" fill="#34D399" stroke="rgba(255,255,255,0.55)" stroke-width="1.4" /></g>
    <g transform="translate(516.91 267.35) rotate(11.63)"><rect x="-15.74" y="-4.64" width="31.49" height="9.28" rx="4.64" fill="#F87171" /><rect x="-4.64" y="-15.74" width="9.28" height="31.49" rx="4.64" fill="#F87171" /></g>
    <g transform="translate(136.97 525.07) rotate(0.67)"><polygon points="0.00,-21.44 5.50,-7.57 20.39,-6.63 8.90,2.89 12.60,17.35 0.00,9.36 -12.60,17.35 -8.90,2.89 -20.39,-6.63 -5.50,-7.57" fill="#FB7185" stroke="rgba(255,255,255,0.55)" stroke-width="1.4" /></g>
    <g transform="translate(47.78 331.96) rotate(17.62)"><polygon points="0.00,-22.83 5.86,-8.06 21.71,-7.05 9.47,3.08 13.42,18.47 0.00,9.96 -13.42,18.47 -9.47,3.08 -21.71,-7.05 -5.86,-8.06" fill="#34D399" stroke="rgba(255,255,255,0.55)" stroke-width="1.4" /></g>
    <g transform="translate(825.33 66.55) rotate(2.45)"><polygon points="0,-17.74 17.74,0 0,17.74 -17.74,0" fill="#F87171" stroke="rgba(255,255,255,0.55)" stroke-width="1.4" /></g>
    <g transform="translate(206.46 194.91) rotate(-17.05)"><rect x="-16.91" y="-4.98" width="33.81" height="9.97" rx="4.98" fill="#60A5FA" /><rect x="-4.98" y="-16.91" width="9.97" height="33.81" rx="4.98" fill="#60A5FA" /></g>
    <g transform="translate(677.56 268.92) rotate(-13.25)"><polygon points="0,-18.02 18.02,0 0,18.02 -18.02,0" fill="#FB7185" stroke="rgba(255,255,255,0.55)" stroke-width="1.4" /></g>
    <g transform="translate(284.10 404.60) rotate(-11.67)"><path d="M 0 13.47 C -17.64 1.60, -19.24 -11.22, -7.70 -2.57 C -0.64 -13.47, 0.64 -13.47, 7.70 -2.57 C 19.24 -11.22, 17.64 1.60, 0 13.47 Z" fill="#4ADE80" stroke="rgba(255,255,255,0.55)" stroke-width="1.2" /></g>
    <g transform="translate(58.08 131.54) rotate(-4.61)"><rect x="-14.09" y="-4.15" width="28.18" height="8.30" rx="4.15" fill="#22D3EE" /><rect x="-4.15" y="-14.09" width="8.30" height="28.18" rx="4.15" fill="#22D3EE" /></g>
    <g transform="translate(604.33 201.00) rotate(15.08)"><polygon points="0,-18.30 18.30,0 0,18.30 -18.30,0" fill="#A78BFA" stroke="rgba(255,255,255,0.55)" stroke-width="1.4" /></g>
    <g transform="translate(827.56 525.31) rotate(-19.58)"><polygon points="0.00,-17.85 4.58,-6.30 16.98,-5.52 7.41,2.41 10.49,14.44 0.00,7.79 -10.49,14.44 -7.41,2.41 -16.98,-5.52 -4.58,-6.30" fill="#FB7185" stroke="rgba(255,255,255,0.55)" stroke-width="1.4" /></g>
    <g transform="translate(135.37 331.76) rotate(-9.18)"><rect x="-18.97" y="-5.59" width="37.94" height="11.18" rx="5.59" fill="#34D399" /><rect x="-5.59" y="-18.97" width="11.18" height="37.94" rx="5.59" fill="#34D399" /></g>
    <g transform="translate(904.78 202.26) rotate(24.75)"><polygon points="0,-20.38 20.38,0 0,20.38 -20.38,0" fill="#A78BFA" stroke="rgba(255,255,255,0.55)" stroke-width="1.4" /></g>
    <g transform="translate(367.24 390.62) rotate(-18.08)"><polygon points="0.00,-20.68 5.30,-7.30 19.66,-6.39 8.58,2.79 12.15,16.73 0.00,9.02 -12.15,16.73 -8.58,2.79 -19.66,-6.39 -5.30,-7.30" fill="#60A5FA" stroke="rgba(255,255,255,0.55)" stroke-width="1.4" /></g>
    <g transform="translate(280.67 263.34) rotate(-24.21)"><polygon points="0.00,-22.36 5.74,-7.89 21.27,-6.91 9.28,3.02 13.14,18.09 0.00,9.76 -13.14,18.09 -9.28,3.02 -21.27,-6.91 -5.74,-7.89" fill="#60A5FA" stroke="rgba(255,255,255,0.55)" stroke-width="1.4" /></g>
    <g transform="translate(371.24 261.18) rotate(-5.16)"><path d="M 0 16.99 C -22.25 2.02, -24.27 -14.16, -9.71 -3.24 C -0.81 -16.99, 0.81 -16.99, 9.71 -3.24 C 24.27 -14.16, 22.25 2.02, 0 16.99 Z" fill="#22D3EE" stroke="rgba(255,255,255,0.55)" stroke-width="1.2" /></g>
  </g>
</svg>
