<svg xmlns="http://www.w3.org/2000/svg" width="960" height="600" viewBox="0 0 960 600">
  <defs>
    <linearGradient id="bg42" x1="0%" y1="0%" x2="100%" y2="100%">
      <stop offset="0%" stop-color="#0F172A" />
      <stop offset="100%" stop-color="#1D4ED8" />
    </linearGradient>
    <filter id="shadow42" x="-20%" y="-20%" width="140%" height="140%">
      <feDropShadow dx="0" dy="2" stdDeviation="1.8" flood-color="rgba(0,0,0,0.36)" />
    </filter>
  </defs>

  <rect width="960" height="600" fill="url(#bg42)" />
  <rect x="24" y="24" width="912" height="552" rx="20" fill="rgba(255,255,255,0.045)" stroke="rgba(255,255,255,0.22)" />
  <g filter="url(#shadow42)">
    <g transform="translate(44.37 195.33) rotate(-16.02)"><polygon points="-16.65,-5.99 2.66,-5.99 2.66,-12.65 18.31,0.00 2.66,12.65 2.66,5.99 -16.65,5.99" fill="#F97316" stroke="rgba(255,255,255,0.55)" stroke-width="1.2" /></g>
    <g transform="translate(516.63 267.62) rotate(-4.83)"><polygon points="-19.58,-7.05 3.13,-7.05 3.13,-14.88 21.54,0.00 3.13,14.88 3.13,7.05 -19.58,7.05" fill="#C084FC" stroke="rgba(255,255,255,0.55)" stroke-width="1.2" /></g>
    <g transform="translate(832.90 528.18) rotate(18.46)"><polygon points="0.00,-17.12 4.39,-6.04 16.28,-5.29 7.10,2.31 10.06,13.85 0.00,7.47 -10.06,13.85 -7.10,2.31 -16.28,-5.29 -4.39,-6.04" fill="#4ADE80" stroke="rgba(255,255,255,0.55)" stroke-width="1.4" /></g>
    <g transform="translate(601.10 263.10) rotate(1.49)"><polygon points="0,-18.32 16.42,12.63 -16.42,12.63" fill="#34D399" stroke="rgba(255,255,255,0.55)" stroke-width="1.4" /></g>
    <g transform="translate(750.79 68.12) rotate(1.19)"><polygon points="0.00,-20.68 5.30,-7.30 19.67,-6.39 8.58,2.79 12.16,16.73 0.00,9.02 -12.16,16.73 -8.58,2.79 -19.67,-6.39 -5.30,-7.30" fill="#FBBF24" stroke="rgba(255,255,255,0.55)" stroke-width="1.4" /></g>
    <g transform="translate(754.97 208.64) rotate(-1.66)"><polygon points="0.00,-17.81 4.57,-6.29 16.94,-5.50 7.39,2.40 10.47,14.41 0.00,7.77 -10.47,14.41 -7.39,2.40 -16.94,-5.50 -4.57,-6.29" fill="#F97316" stroke="rgba(255,255,255,0.55)" stroke-width="1.4" /></g>
    <g transform="translate(599.43 526.79) rotate(24.43)"><polygon points="0,-20.53 18.41,14.16 -18.41,14.16" fill="#A78BFA" stroke="rgba(255,255,255,0.55)" stroke-width="1.4" /></g>
    <g transform="translate(279.51 463.99) rotate(25.44)"><polygon points="0,-20.77 18.62,14.32 -18.62,14.32" fill="#F97316" stroke="rgba(255,255,255,0.55)" stroke-width="1.4" /></g>
    <g transform="translate(442.98 128.24) rotate(-8.73)"><polygon points="0,-22.06 19.78,15.21 -19.78,15.21" fill="#22D3EE" stroke="rgba(255,255,255,0.55)" stroke-width="1.4" /></g>
    <g transform="translate(202.29 271.38) rotate(-25.46)"><path d="M 0 17.06 C -22.34 2.03, -24.37 -14.22, -9.75 -3.25 C -0.81 -17.06, 0.81 -17.06, 9.75 -3.25 C 24.37 -14.22, 22.34 2.03, 0 17.06 Z" fill="#F97316" stroke="rgba(255,255,255,0.55)" stroke-width="1.2" /></g>
    <g transform="translate(57.69 261.76) rotate(6.60)"><path d="M 0 16.77 C -21.96 2.00, -23.95 -13.97, -9.58 -3.19 C -0.80 -16.77, 0.80 -16.77, 9.58 -3.19 C 23.95 -13.97, 21.96 2.00, 0 16.77 Z" fill="#F87171" stroke="rgba(255,255,255,0.55)" stroke-width="1.2" /></g>
    <g transform="translate(511.54 330.30) rotate(26.21)"><polygon points="0,-19.73 17.69,13.61 -17.69,13.61" fill="#FBBF24" stroke="rgba(255,255,255,0.55)" stroke-width="1.4" /></g>
    <g transform="translate(128.23 532.36) rotate(-11.36)"><polygon points="0.00,-21.55 5.53,-7.61 20.49,-6.66 8.94,2.91 12.67,17.43 0.00,9.40 -12.67,17.43 -8.94,2.91 -20.49,-6.66 -5.53,-7.61" fill="#60A5FA" stroke="rgba(255,255,255,0.55)" stroke-width="1.4" /></g>
    <g transform="translate(750.06 142.94) rotate(25.47)"><polygon points="-15.79,-5.68 2.53,-5.68 2.53,-12.00 17.37,0.00 2.53,12.00 2.53,5.68 -15.79,5.68" fill="#F97316" stroke="rgba(255,255,255,0.55)" stroke-width="1.2" /></g>
    <g transform="translate(135.01 336.36) rotate(-16.52)"><polygon points="-17.09,-6.15 2.73,-6.15 2.73,-12.99 18.79,0.00 2.73,12.99 2.73,6.15 -17.09,6.15" fill="#34D399" stroke="rgba(255,255,255,0.55)" stroke-width="1.2" /></g>
    <g transform="translate(136.22 67.44) rotate(10.05)"><polygon points="0.00,-23.05 5.91,-8.14 21.92,-7.12 9.56,3.11 13.55,18.65 0.00,10.06 -13.55,18.65 -9.56,3.11 -21.92,-7.12 -5.91,-8.14" fill="#C084FC" stroke="rgba(255,255,255,0.55)" stroke-width="1.4" /></g>
    <g transform="translate(370.47 67.20) rotate(-6.43)"><polygon points="-17.07,-6.15 2.73,-6.15 2.73,-12.97 18.78,0.00 2.73,12.97 2.73,6.15 -17.07,6.15" fill="#FBBF24" stroke="rgba(255,255,255,0.55)" stroke-width="1.2" /></g>
    <g transform="translate(209.13 531.55) rotate(11.66)"><path d="M 0 12.09 C -15.83 1.44, -17.27 -10.08, -6.91 -2.30 C -0.58 -12.09, 0.58 -12.09, 6.91 -2.30 C 17.27 -10.08, 15.83 1.44, 0 12.09 Z" fill="#F87171" stroke="rgba(255,255,255,0.55)" stroke-width="1.2" /></g>
    <g transform="translate(912.20 270.35) rotate(-18.92)"><polygon points="0,-17.07 15.30,11.77 -15.30,11.77" fill="#A78BFA" stroke="rgba(255,255,255,0.55)" stroke-width="1.4" /></g>
    <g transform="translate(436.39 406.08) rotate(-1.36)"><polygon points="-15.74,-5.67 2.52,-5.67 2.52,-11.96 17.32,0.00 2.52,11.96 2.52,5.67 -15.74,5.67" fill="#FB7185" stroke="rgba(255,255,255,0.55)" stroke-width="1.2" /></g>
    <g transform="translate(215.13 208.49) rotate(11.12)"><polygon points="0,-18.40 16.50,12.69 -16.50,12.69" fill="#FBBF24" stroke="rgba(255,255,255,0.55)" stroke-width="1.4" /></g>
    <g transform="translate(755.04 331.59) rotate(-20.17)"><polygon points="0.00,-17.95 4.60,-6.34 17.07,-5.55 7.45,2.42 10.55,14.52 0.00,7.83 -10.55,14.52 -7.45,2.42 -17.07,-5.55 -4.60,-6.34" fill="#60A5FA" stroke="rgba(255,255,255,0.55)" stroke-width="1.4" /></g>
  </g>
</svg>
