<svg xmlns="http://www.w3.org/2000/svg" width="960" height="600" viewBox="0 0 960 600">
  <defs>
    <linearGradient id="bg70" x1="0%" y1="0%" x2="100%" y2="100%">
      <stop offset="0%" stop-color="#0F172A" />
      <stop offset="100%" stop-color="#1D4ED8" />
    </linearGradient>
    <filter id="shadow70" x="-20%" y="-20%" width="140%" height="140%">
      <feDropShadow dx="0" dy="2" stdDeviation="1.8" flood-color="rgba(0,0,0,0.36)" />
    </filter>
  </defs>

  <rect width="960" height="600" fill="url(#bg70)" />
  <rect x="24" y="24" width="912" height="552" rx="20" fill="rgba(255,255,255,0.045)" stroke="rgba(255,255,255,0.22)" />
  <g filter="url(#shadow70)">
    <g transform="translate(912.15 134.23) rotate(2.80)"><circle cx="0" cy="0" r="17.24" fill="#F87171" /><circle cx="6.90" cy="-0.69" r="14.48" fill="#0B1A34" /></g>
    <g transform="translate(668.60 132.14) rotate(-6.04)"><circle cx="0" cy="0" r="18.81" fill="#22D3EE" /><circle cx="7.52" cy="-0.75" r="15.80" fill="#0B1A34" /></g>
    <g transform="translate(913.01 467.73) rotate(-1.35)"><circle cx="0" cy="0" r="15.11" fill="#F87171" /><circle cx="6.04" cy="-0.60" r="12.69" fill="#0B1A34" /></g>
    <g transform="translate(748.22 208.87) rotate(17.60)"><polygon points="0,-21.48 19.25,14.81 -19.25,14.81" fill="#34D399" stroke="rgba(255,255,255,0.55)" stroke-width="1.4" /></g>
    <g transform="translate(359.93 336.73) rotate(20.99)"><rect x="-14.28" y="-4.21" width="28.56" height="8.42" rx="4.21" fill="#22D3EE" /><rect x="-4.21" y="-14.28" width="8.42" height="28.56" rx="4.21" fill="#22D3EE" /></g>
    <g transform="translate(47.56 460.84) rotate(-3.86)"><circle cx="0" cy="0" r="17.26" fill="#FB7185" /><circle cx="6.91" cy="-0.69" r="14.50" fill="#0B1A34" /></g>
    <g transform="translate(914.60 77.53) rotate(-1.42)"><polygon points="0,-17.65 17.65,0 0,17.65 -17.65,0" fill="#60A5FA" stroke="rgba(255,255,255,0.55)" stroke-width="1.4" /></g>
    <g transform="translate(126.46 141.12) rotate(-6.56)"><polygon points="0.00,-22.95 5.89,-8.10 21.83,-7.09 9.53,3.09 13.49,18.57 0.00,10.02 -13.49,18.57 -9.53,3.09 -21.83,-7.09 -5.89,-8.10" fill="#60A5FA" stroke="rgba(255,255,255,0.55)" stroke-width="1.4" /></g>
    <g transform="translate(434.04 69.01) rotate(13.17)"><circle cx="0" cy="0" r="16.01" fill="#FBBF24" stroke="rgba(255,255,255,0.55)" stroke-width="1.4" /></g>
    <g transform="translate(592.30 460.01) rotate(6.87)"><circle cx="0" cy="0" r="14.74" fill="#C084FC" /><circle cx="5.90" cy="-0.59" r="12.38" fill="#0B1A34" /></g>
    <g transform="translate(287.34 459.13) rotate(-21.17)"><circle cx="0" cy="0" r="14.25" fill="#F87171" stroke="rgba(255,255,255,0.55)" stroke-width="1.4" /></g>
    <g transform="translate(47.37 264.26) rotate(4.07)"><circle cx="0" cy="0" r="16.30" fill="#F87171" /><circle cx="6.52" cy="-0.65" r="13.70" fill="#0B1A34" /></g>
    <g transform="translate(829.34 205.06) rotate(-2.21)"><polygon points="0,-22.39 20.08,15.44 -20.08,15.44" fill="#A78BFA" stroke="rgba(255,255,255,0.55)" stroke-width="1.4" /></g>
    <g transform="translate(447.96 270.98) rotate(-7.71)"><circle cx="0" cy="0" r="17.57" fill="#4ADE80" stroke="rgba(255,255,255,0.55)" stroke-width="1.4" /></g>
    <g transform="translate(129.27 259.51) rotate(-4.07)"><circle cx="0" cy="0" r="19.16" fill="#F87171" /><circle cx="7.66" cy="-0.77" r="16.09" fill="#0B1A34" /></g>
    <g transform="translate(50.96 202.87) rotate(23.41)"><polygon points="0,-14.32 14.32,0 0,14.32 -14.32,0" fill="#C084FC" stroke="rgba(255,255,255,0.55)" stroke-width="1.4" /></g>
    <g transform="translate(671.39 76.03) rotate(-27.97)"><polygon points="0,-18.54 18.54,0 0,18.54 -18.54,0" fill="#F87171" stroke="rgba(255,255,255,0.55)" stroke-width="1.4" /></g>
    <g transform="translate(670.72 332.89) rotate(22.68)"><polygon points="0.00,-19.88 5.10,-7.02 18.90,-6.14 8.25,2.68 11.68,16.08 0.00,8.67 -11.68,16.08 -8.25,2.68 -18.90,-6.14 -5.10,-7.02" fill="#34D399" stroke="rgba(255,255,255,0.55)" stroke-width="1.4" /></g>
    <g transform="translate(46.12 76.14) rotate(5.91)"><circle cx="0" cy="0" r="20.51" fill="#34D399" /><circle cx="8.20" cy="-0.82" r="17.23" fill="#0B1A34" /></g>
    <g transform="translate(526.75 260.92) rotate(-0.60)"><polygon points="0,-17.30 17.30,0 0,17.30 -17.30,0" fill="#34D399" stroke="rgba(255,255,255,0.55)" stroke-width="1.4" /></g>
    <g transform="translate(133.37 326.84) rotate(-25.21)"><polygon points="0,-16.54 14.83,11.41 -14.83,11.41" fill="#F87171" stroke="rgba(255,255,255,0.55)" stroke-width="1.4" /></g>
    <g transform="translate(823.10 339.01) rotate(0.82)"><circle cx="0" cy="0" r="16.46" fill="#A78BFA" /><circle cx="6.59" cy="-0.66" r="13.83" fill="#0B1A34" /></g>
    <g transform="translate(754.98 339.73) rotate(-9.77)"><polygon points="0,-14.31 14.31,0 0,14.31 -14.31,0" fill="#F97316" stroke="rgba(255,255,255,0.55)" stroke-width="1.4" /></g>
    <g transform="translate(207.80 193.74) rotate(-5.78)"><circle cx="0" cy="0" r="18.29" fill="#FBBF24" /><circle cx="7.32" cy="-0.73" r="15.36" fill="#0B1A34" /></g>
    <g transform="translate(754.28 468.23) rotate(-19.30)"><polygon points="0,-20.34 20.34,0 0,20.34 -20.34,0" fill="#FB7185" stroke="rgba(255,255,255,0.55)" stroke-width="1.4" /></g>
  </g>
</svg>
