<svg xmlns="http://www.w3.org/2000/svg" width="960" height="600" viewBox="0 0 960 600">
  <defs>
    <linearGradient id="bg200" x1="0%" y1="0%" x2="100%" y2="100%">
      <stop offset="0%" stop-color="#0F172A" />
      <stop offset="100%" stop-color="#1D4ED8" />
    </linearGradient>
    <filter id="shadow200" x="-20%" y="-20%" width="140%" height="140%">
      <feDropShadow dx="0" dy="2" stdDeviation="1.8" flood-color="rgba(0,0,0,0.36)" />
    </filter>
  </defs>

  <rect width="960" height="600" fill="url(#bg200)" />
  <rect x="24" y="24" width="912" height="552" rx="20" fill="rgba(255,255,255,0.045)" stroke="rgba(255,255,255,0.22)" />
  <g filter="url(#shadow200)">
    <g transform="translate(279.29 329.66) rotate(-0.45)"><circle cx="0" cy="0" r="19.26" fill="#22D3EE" stroke="rgba(255,255,255,0.55)" stroke-width="1.4" /><circle cx="-6.93" cy="-4.62" r="3.08" fill="#1F2937" /><circle cx="6.93" cy="-4.62" r="3.08" fill="#1F2937" /><path d="M -14.63 5.39 Q 0 13.09 14.63 5.39" fill="none" stroke="#1F2937" stroke-width="2.2" stroke-linecap="round" /></g>
    <g transform="translate(911.85 263.44) rotate(6.23)"><circle cx="0" cy="0" r="17.01" fill="#C084FC" /><circle cx="6.81" cy="-0.68" r="14.29" fill="#0B1A34" /></g>
    <g transform="translate(56.35 402.82) rotate(22.67)"><polygon points="0.00,-21.05 5.40,-7.43 20.02,-6.51 8.74,2.84 12.37,17.03 0.00,9.19 -12.37,17.03 -8.74,2.84 -20.02,-6.51 -5.40,-7.43" fill="#F87171" stroke="rgba(255,255,255,0.55)" stroke-width="1.4" /></g>
    <g transform="translate(674.93 396.85) rotate(18.93)"><polygon points="0.00,-16.20 4.15,-5.72 15.40,-5.00 6.72,2.18 9.52,13.10 0.00,7.07 -9.52,13.10 -6.72,2.18 -15.40,-5.00 -4.15,-5.72" fill="#4ADE80" stroke="rgba(255,255,255,0.55)" stroke-width="1.4" /></g>
    <g transform="translate(439.53 327.08) rotate(-4.98)"><rect x="-17.72" y="-5.22" width="35.43" height="10.44" rx="5.22" fill="#4ADE80" /><rect x="-5.22" y="-17.72" width="10.44" height="35.43" rx="5.22" fill="#4ADE80" /></g>
    <g transform="translate(443.74 402.23) rotate(0.52)"><circle cx="0" cy="0" r="17.29" fill="#A78BFA" /><circle cx="6.92" cy="-0.69" r="14.53" fill="#0B1A34" /></g>
    <g transform="translate(523.92 198.86) rotate(-22.00)"><rect x="-18.69" y="-18.69" width="37.39" height="37.39" rx="4.06" fill="#60A5FA" stroke="rgba(255,255,255,0.55)" stroke-width="1.4" /></g>
    <g transform="translate(914.90 461.86) rotate(-13.33)"><polygon points="-20.11,-7.24 3.22,-7.24 3.22,-15.28 22.12,0.00 3.22,15.28 3.22,7.24 -20.11,7.24" fill="#C084FC" stroke="rgba(255,255,255,0.55)" stroke-width="1.2" /></g>
    <g transform="translate(125.77 265.02) rotate(-15.64)"><rect x="-17.54" y="-17.54" width="35.08" height="35.08" rx="3.81" fill="#F97316" stroke="rgba(255,255,255,0.55)" stroke-width="1.4" /></g>
    <g transform="translate(442.02 73.50) rotate(4.09)"><circle cx="0" cy="0" r="19.03" fill="#34D399" /><circle cx="7.61" cy="-0.76" r="15.99" fill="#0B1A34" /></g>
    <g transform="translate(357.88 139.01) rotate(16.22)"><rect x="-16.14" y="-4.76" width="32.29" height="9.52" rx="4.76" fill="#34D399" /><rect x="-4.76" y="-16.14" width="9.52" height="32.29" rx="4.76" fill="#34D399" /></g>
    <g transform="translate(49.88 339.20) rotate(-21.34)"><rect x="-17.71" y="-5.22" width="35.42" height="10.44" rx="5.22" fill="#FBBF24" /><rect x="-5.22" y="-17.71" width="10.44" height="35.42" rx="5.22" fill="#FBBF24" /></g>
    <g transform="translate(520.10 67.85) rotate(-4.99)"><circle cx="0" cy="0" r="17.99" fill="#22D3EE" stroke="rgba(255,255,255,0.55)" stroke-width="1.4" /><circle cx="-6.48" cy="-4.32" r="2.88" fill="#1F2937" /><circle cx="6.48" cy="-4.32" r="2.88" fill="#1F2937" /><path d="M -13.67 5.04 Q 0 12.23 13.67 5.04" fill="none" stroke="#1F2937" stroke-width="2.2" stroke-linecap="round" /></g>
    <g transform="translate(751.26 204.75) rotate(4.76)"><circle cx="0" cy="0" r="19.30" fill="#F87171" /><circle cx="7.72" cy="-0.77" r="16.21" fill="#0B1A34" /></g>
    <g transform="translate(215.33 262.34) rotate(-10.69)"><polygon points="0,-16.71 16.71,0 0,16.71 -16.71,0" fill="#FBBF24" stroke="rgba(255,255,255,0.55)" stroke-width="1.4" /></g>
    <g transform="translate(519.90 532.54) rotate(-4.27)"><circle cx="0" cy="0" r="16.89" fill="#A78BFA" stroke="rgba(255,255,255,0.55)" stroke-width="1.4" /><circle cx="-6.08" cy="-4.05" r="2.70" fill="#1F2937" /><circle cx="6.08" cy="-4.05" r="2.70" fill="#1F2937" /><path d="M -12.83 4.73 Q 0 11.48 12.83 4.73" fill="none" stroke="#1F2937" stroke-width="2.2" stroke-linecap="round" /></g>
  </g>
</svg>
