<svg xmlns="http://www.w3.org/2000/svg" width="960" height="600" viewBox="0 0 960 600">
  <defs>
    <linearGradient id="bg165" x1="0%" y1="0%" x2="100%" y2="100%">
      <stop offset="0%" stop-color="#0F172A" />
      <stop offset="100%" stop-color="#1D4ED8" />
    </linearGradient>
    <filter id="shadow165" x="-20%" y="-20%" width="140%" height="140%">
      <feDropShadow dx="0" dy="2" stdDeviation="1.8" flood-color="rgba(0,0,0,0.36)" />
    </filter>
  </defs>

  <rect width="960" height="600" fill="url(#bg165)" />
  <rect x="24" y="24" width="912" height="552" rx="20" fill="rgba(255,255,255,0.045)" stroke="rgba(255,255,255,0.22)" />
  <g filter="url(#shadow165)">
    <g transform="translate(520.37 395.71) rotate(-16.90)"><polygon points="0,-16.28 16.28,0 0,16.28 -16.28,0" fill="#A78BFA" stroke="rgba(255,255,255,0.55)" stroke-width="1.4" /></g>
    <g transform="translate(671.52 267.69) rotate(22.69)"><polygon points="-18.17,-6.54 2.91,-6.54 2.91,-13.81 19.98,0.00 2.91,13.81 2.91,6.54 -18.17,6.54" fill="#FBBF24" stroke="rgba(255,255,255,0.55)" stroke-width="1.2" /></g>
    <g transform="translate(590.59 458.14) rotate(19.91)"><polygon points="0,-20.74 20.74,0 0,20.74 -20.74,0" fill="#A78BFA" stroke="rgba(255,255,255,0.55)" stroke-width="1.4" /></g>
    <g transform="translate(827.18 533.69) rotate(5.81)"><rect x="-19.63" y="-5.79" width="39.27" height="11.57" rx="5.79" fill="#FBBF24" /><rect x="-5.79" y="-19.63" width="11.57" height="39.27" rx="5.79" fill="#FBBF24" /></g>
    <g transform="translate(59.63 64.51) rotate(9.80)"><path d="M 0 17.49 C -22.91 2.08, -24.99 -14.58, -10.00 -3.33 C -0.83 -17.49, 0.83 -17.49, 10.00 -3.33 C 24.99 -14.58, 22.91 2.08, 0 17.49 Z" fill="#A78BFA" stroke="rgba(255,255,255,0.55)" stroke-width="1.2" /></g>
    <g transform="translate(825.26 206.13) rotate(13.46)"><path d="M 0 15.45 C -20.23 1.84, -22.07 -12.88, -8.83 -2.94 C -0.74 -15.45, 0.74 -15.45, 8.83 -2.94 C 22.07 -12.88, 20.23 1.84, 0 15.45 Z" fill="#FBBF24" stroke="rgba(255,255,255,0.55)" stroke-width="1.2" /></g>
    <g transform="translate(904.85 461.60) rotate(15.11)"><path d="M 0 15.59 C -20.41 1.86, -22.27 -12.99, -8.91 -2.97 C -0.74 -15.59, 0.74 -15.59, 8.91 -2.97 C 22.27 -12.99, 20.41 1.86, 0 15.59 Z" fill="#34D399" stroke="rgba(255,255,255,0.55)" stroke-width="1.2" /></g>
    <g transform="translate(124.10 461.53) rotate(17.58)"><polygon points="0,-20.40 20.40,0 0,20.40 -20.40,0" fill="#60A5FA" stroke="rgba(255,255,255,0.55)" stroke-width="1.4" /></g>
    <g transform="translate(436.10 143.11) rotate(-24.77)"><path d="M 0 14.76 C -19.34 1.76, -21.09 -12.30, -8.44 -2.81 C -0.70 -14.76, 0.70 -14.76, 8.44 -2.81 C 21.09 -12.30, 19.34 1.76, 0 14.76 Z" fill="#C084FC" stroke="rgba(255,255,255,0.55)" stroke-width="1.2" /></g>
    <g transform="translate(910.94 335.72) rotate(-25.37)"><path d="M 0 12.06 C -15.79 1.44, -17.23 -10.05, -6.89 -2.30 C -0.57 -12.06, 0.57 -12.06, 6.89 -2.30 C 17.23 -10.05, 15.79 1.44, 0 12.06 Z" fill="#22D3EE" stroke="rgba(255,255,255,0.55)" stroke-width="1.2" /></g>
    <g transform="translate(53.12 336.03) rotate(6.89)"><circle cx="0" cy="0" r="20.27" fill="#C084FC" /><circle cx="8.11" cy="-0.81" r="17.03" fill="#0B1A34" /></g>
    <g transform="translate(288.81 535.79) rotate(-24.62)"><polygon points="-16.67,-6.00 2.67,-6.00 2.67,-12.67 18.33,0.00 2.67,12.67 2.67,6.00 -16.67,6.00" fill="#22D3EE" stroke="rgba(255,255,255,0.55)" stroke-width="1.2" /></g>
    <g transform="translate(48.93 469.01) rotate(-7.07)"><circle cx="0" cy="0" r="17.38" fill="#60A5FA" /><circle cx="6.95" cy="-0.70" r="14.60" fill="#0B1A34" /></g>
    <g transform="translate(435.77 265.60) rotate(-6.50)"><polygon points="-15.29,-5.51 2.45,-5.51 2.45,-11.62 16.82,0.00 2.45,11.62 2.45,5.51 -15.29,5.51" fill="#A78BFA" stroke="rgba(255,255,255,0.55)" stroke-width="1.2" /></g>
    <g transform="translate(758.74 402.78) rotate(-18.75)"><polygon points="0,-15.99 15.99,0 0,15.99 -15.99,0" fill="#A78BFA" stroke="rgba(255,255,255,0.55)" stroke-width="1.4" /></g>
    <g transform="translate(749.67 537.70) rotate(-5.48)"><path d="M 0 16.42 C -21.50 1.95, -23.45 -13.68, -9.38 -3.13 C -0.78 -16.42, 0.78 -16.42, 9.38 -3.13 C 23.45 -13.68, 21.50 1.95, 0 16.42 Z" fill="#F87171" stroke="rgba(255,255,255,0.55)" stroke-width="1.2" /></g>
    <g transform="translate(44.40 202.78) rotate(16.22)"><polygon points="-16.83,-6.06 2.69,-6.06 2.69,-12.79 18.51,0.00 2.69,12.79 2.69,6.06 -16.83,6.06" fill="#4ADE80" stroke="rgba(255,255,255,0.55)" stroke-width="1.2" /></g>
    <g transform="translate(363.43 72.70) rotate(5.99)"><polygon points="0,-16.86 16.86,0 0,16.86 -16.86,0" fill="#FBBF24" stroke="rgba(255,255,255,0.55)" stroke-width="1.4" /></g>
    <g transform="translate(439.15 468.39) rotate(22.59)"><path d="M 0 14.01 C -18.34 1.67, -20.01 -11.67, -8.01 -2.67 C -0.67 -14.01, 0.67 -14.01, 8.01 -2.67 C 20.01 -11.67, 18.34 1.67, 0 14.01 Z" fill="#34D399" stroke="rgba(255,255,255,0.55)" stroke-width="1.2" /></g>
    <g transform="translate(829.21 266.75) rotate(-10.46)"><path d="M 0 16.99 C -22.25 2.02, -24.27 -14.16, -9.71 -3.24 C -0.81 -16.99, 0.81 -16.99, 9.71 -3.24 C 24.27 -14.16, 22.25 2.02, 0 16.99 Z" fill="#FBBF24" stroke="rgba(255,255,255,0.55)" stroke-width="1.2" /></g>
    <g transform="translate(666.67 336.00) rotate(-14.64)"><polygon points="-17.37,-6.25 2.78,-6.25 2.78,-13.20 19.10,0.00 2.78,13.20 2.78,6.25 -17.37,6.25" fill="#FBBF24" stroke="rgba(255,255,255,0.55)" stroke-width="1.2" /></g>
    <g transform="translate(54.06 531.54) rotate(-3.67)"><rect x="-14.11" y="-4.16" width="28.22" height="8.32" rx="4.16" fill="#FBBF24" /><rect x="-4.16" y="-14.11" width="8.32" height="28.22" rx="4.16" fill="#FBBF24" /></g>
    <g transform="translate(517.65 136.05) rotate(-23.32)"><path d="M 0 13.46 C -17.63 1.60, -19.24 -11.22, -7.69 -2.56 C -0.64 -13.46, 0.64 -13.46, 7.69 -2.56 C 19.24 -11.22, 17.63 1.60, 0 13.46 Z" fill="#4ADE80" stroke="rgba(255,255,255,0.55)" stroke-width="1.2" /></g>
    <g transform="translate(748.10 201.60) rotate(-26.28)"><path d="M 0 12.46 C -16.31 1.48, -17.80 -10.38, -7.12 -2.37 C -0.59 -12.46, 0.59 -12.46, 7.12 -2.37 C 17.80 -10.38, 16.31 1.48, 0 12.46 Z" fill="#C084FC" stroke="rgba(255,255,255,0.55)" stroke-width="1.2" /></g>
    <g transform="translate(283.28 328.13) rotate(5.81)"><polygon points="0.00,-20.82 5.34,-7.35 19.80,-6.43 8.64,2.81 12.24,16.84 0.00,9.09 -12.24,16.84 -8.64,2.81 -19.80,-6.43 -5.34,-7.35" fill="#22D3EE" stroke="rgba(255,255,255,0.55)" stroke-width="1.4" /></g>
    <g transform="translate(517.97 329.72) rotate(0.31)"><path d="M 0 12.35 C -16.17 1.47, -17.64 -10.29, -7.06 -2.35 C -0.59 -12.35, 0.59 -12.35, 7.06 -2.35 C 17.64 -10.29, 16.17 1.47, 0 12.35 Z" fill="#FB7185" stroke="rgba(255,255,255,0.55)" stroke-width="1.2" /></g>
    <g transform="translate(835.51 139.09) rotate(8.19)"><polygon points="-14.62,-5.26 2.34,-5.26 2.34,-11.11 16.08,0.00 2.34,11.11 2.34,5.26 -14.62,5.26" fill="#C084FC" stroke="rgba(255,255,255,0.55)" stroke-width="1.2" /></g>
    <g transform="translate(282.98 208.95) rotate(22.39)"><path d="M 0 16.03 C -21.00 1.91, -22.90 -13.36, -9.16 -3.05 C -0.76 -16.03, 0.76 -16.03, 9.16 -3.05 C 22.90 -13.36, 21.00 1.91, 0 16.03 Z" fill="#4ADE80" stroke="rgba(255,255,255,0.55)" stroke-width="1.2" /></g>
    <g transform="translate(602.17 340.67) rotate(11.25)"><rect x="-13.84" y="-13.84" width="27.68" height="27.68" rx="3.01" fill="#FB7185" stroke="rgba(255,255,255,0.55)" stroke-width="1.4" /></g>
  </g>
</svg>
