<svg xmlns="http://www.w3.org/2000/svg" width="960" height="600" viewBox="0 0 960 600">
  <defs>
    <linearGradient id="bg27" x1="0%" y1="0%" x2="100%" y2="100%">
      <stop offset="0%" stop-color="#0F172A" />
      <stop offset="100%" stop-color="#1D4ED8" />
    </linearGradient>
    <filter id="shadow27" x="-20%" y="-20%" width="140%" height="140%">
      <feDropShadow dx="0" dy="2" stdDeviation="1.8" flood-color="rgba(0,0,0,0.36)" />
    </filter>
  </defs>

  <rect width="960" height="600" fill="url(#bg27)" />
  <rect x="24" y="24" width="912" height="552" rx="20" fill="rgba(255,255,255,0.045)" stroke="rgba(255,255,255,0.22)" />
  <g filter="url(#shadow27)">
    <g transform="translate(49.96 74.70) rotate(10.86)"><polygon points="0.00,-18.99 4.87,-6.71 18.06,-5.87 7.88,2.56 11.16,15.37 0.00,8.29 -11.16,15.37 -7.88,2.56 -18.06,-5.87 -4.87,-6.71" fill="#FB7185" stroke="rgba(255,255,255,0.55)" stroke-width="1.4" /></g>
    <g transform="translate(434.62 401.09) rotate(-12.89)"><polygon points="-14.26,-5.13 2.28,-5.13 2.28,-10.83 15.68,0.00 2.28,10.83 2.28,5.13 -14.26,5.13" fill="#C084FC" stroke="rgba(255,255,255,0.55)" stroke-width="1.2" /></g>
    <g transform="translate(362.87 403.88) rotate(5.92)"><circle cx="0" cy="0" r="19.46" fill="#F87171" stroke="rgba(255,255,255,0.55)" stroke-width="1.4" /><circle cx="-7.00" cy="-4.67" r="3.11" fill="#1F2937" /><circle cx="7.00" cy="-4.67" r="3.11" fill="#1F2937" /><path d="M -14.79 5.45 Q 0 13.23 14.79 5.45" fill="none" stroke="#1F2937" stroke-width="2.2" stroke-linecap="round" /></g>
    <g transform="translate(134.44 330.49) rotate(-22.49)"><rect x="-19.24" y="-19.24" width="38.49" height="38.49" rx="4.18" fill="#F87171" stroke="rgba(255,255,255,0.55)" stroke-width="1.4" /></g>
    <g transform="translate(133.42 263.33) rotate(-9.60)"><rect x="-13.88" y="-13.88" width="27.76" height="27.76" rx="3.02" fill="#FB7185" stroke="rgba(255,255,255,0.55)" stroke-width="1.4" /></g>
    <g transform="translate(440.89 143.32) rotate(5.89)"><polygon points="0,-17.79 17.79,0 0,17.79 -17.79,0" fill="#FBBF24" stroke="rgba(255,255,255,0.55)" stroke-width="1.4" /></g>
    <g transform="translate(290.64 141.97) rotate(-1.55)"><path d="M 0 12.50 C -16.37 1.49, -17.86 -10.42, -7.14 -2.38 C -0.60 -12.50, 0.60 -12.50, 7.14 -2.38 C 17.86 -10.42, 16.37 1.49, 0 12.50 Z" fill="#34D399" stroke="rgba(255,255,255,0.55)" stroke-width="1.2" /></g>
    <g transform="translate(52.90 131.83) rotate(-24.78)"><polygon points="0.00,-22.45 5.76,-7.93 21.35,-6.94 9.32,3.03 13.20,18.16 0.00,9.80 -13.20,18.16 -9.32,3.03 -21.35,-6.94 -5.76,-7.93" fill="#F97316" stroke="rgba(255,255,255,0.55)" stroke-width="1.4" /></g>
    <g transform="translate(826.13 264.54) rotate(-13.08)"><polygon points="-14.27,-5.14 2.28,-5.14 2.28,-10.85 15.70,0.00 2.28,10.85 2.28,5.14 -14.27,5.14" fill="#34D399" stroke="rgba(255,255,255,0.55)" stroke-width="1.2" /></g>
    <g transform="translate(512.08 133.37) rotate(-0.90)"><circle cx="0" cy="0" r="14.86" fill="#F87171" stroke="rgba(255,255,255,0.55)" stroke-width="1.4" /><circle cx="-5.35" cy="-3.57" r="2.38" fill="#1F2937" /><circle cx="5.35" cy="-3.57" r="2.38" fill="#1F2937" /><path d="M -11.29 4.16 Q 0 10.10 11.29 4.16" fill="none" stroke="#1F2937" stroke-width="2.2" stroke-linecap="round" /></g>
    <g transform="translate(280.67 337.58) rotate(27.69)"><polygon points="0.00,-18.82 4.83,-6.65 17.90,-5.82 7.81,2.54 11.06,15.23 0.00,8.21 -11.06,15.23 -7.81,2.54 -17.90,-5.82 -4.83,-6.65" fill="#60A5FA" stroke="rgba(255,255,255,0.55)" stroke-width="1.4" /></g>
    <g transform="translate(519.38 204.71) rotate(2.88)"><polygon points="0,-15.03 15.03,0 0,15.03 -15.03,0" fill="#F87171" stroke="rgba(255,255,255,0.55)" stroke-width="1.4" /></g>
    <g transform="translate(448.48 525.72) rotate(6.97)"><polygon points="-19.26,-6.93 3.08,-6.93 3.08,-14.63 21.18,0.00 3.08,14.63 3.08,6.93 -19.26,6.93" fill="#FBBF24" stroke="rgba(255,255,255,0.55)" stroke-width="1.2" /></g>
    <g transform="translate(676.91 537.90) rotate(-13.28)"><polygon points="0.00,-15.68 4.02,-5.54 14.91,-4.85 6.51,2.11 9.22,12.69 0.00,6.84 -9.22,12.69 -6.51,2.11 -14.91,-4.85 -4.02,-5.54" fill="#F97316" stroke="rgba(255,255,255,0.55)" stroke-width="1.4" /></g>
    <g transform="translate(363.95 264.23) rotate(-0.07)"><circle cx="0" cy="0" r="17.78" fill="#F87171" stroke="rgba(255,255,255,0.55)" stroke-width="1.4" /><circle cx="-6.40" cy="-4.27" r="2.85" fill="#1F2937" /><circle cx="6.40" cy="-4.27" r="2.85" fill="#1F2937" /><path d="M -13.52 4.98 Q 0 12.09 13.52 4.98" fill="none" stroke="#1F2937" stroke-width="2.2" stroke-linecap="round" /></g>
    <g transform="translate(748.80 128.06) rotate(6.81)"><polygon points="0,-18.63 18.63,0 0,18.63 -18.63,0" fill="#C084FC" stroke="rgba(255,255,255,0.55)" stroke-width="1.4" /></g>
    <g transform="translate(825.81 530.80) rotate(27.65)"><polygon points="0,-21.06 18.88,14.52 -18.88,14.52" fill="#34D399" stroke="rgba(255,255,255,0.55)" stroke-width="1.4" /></g>
    <g transform="translate(129.27 139.99) rotate(-2.30)"><polygon points="-17.56,-6.32 2.81,-6.32 2.81,-13.35 19.32,0.00 2.81,13.35 2.81,6.32 -17.56,6.32" fill="#C084FC" stroke="rgba(255,255,255,0.55)" stroke-width="1.2" /></g>
    <g transform="translate(829.10 406.16) rotate(-24.14)"><polygon points="-16.02,-5.77 2.56,-5.77 2.56,-12.18 17.62,0.00 2.56,12.18 2.56,5.77 -16.02,5.77" fill="#FBBF24" stroke="rgba(255,255,255,0.55)" stroke-width="1.2" /></g>
    <g transform="translate(599.32 73.12) rotate(0.93)"><path d="M 0 17.07 C -22.35 2.03, -24.38 -14.22, -9.75 -3.25 C -0.81 -17.07, 0.81 -17.07, 9.75 -3.25 C 24.38 -14.22, 22.35 2.03, 0 17.07 Z" fill="#4ADE80" stroke="rgba(255,255,255,0.55)" stroke-width="1.2" /></g>
  </g>
</svg>
