<svg xmlns="http://www.w3.org/2000/svg" width="960" height="600" viewBox="0 0 960 600">
  <defs>
    <linearGradient id="bg157" x1="0%" y1="0%" x2="100%" y2="100%">
      <stop offset="0%" stop-color="#0F172A" />
      <stop offset="100%" stop-color="#1D4ED8" />
    </linearGradient>
    <filter id="shadow157" x="-20%" y="-20%" width="140%" height="140%">
      <feDropShadow dx="0" dy="2" stdDeviation="1.8" flood-color="rgba(0,0,0,0.36)" />
    </filter>
  </defs>

  <rect width="960" height="600" fill="url(#bg157)" />
  <rect x="24" y="24" width="912" height="552" rx="20" fill="rgba(255,255,255,0.045)" stroke="rgba(255,255,255,0.22)" />
  <g filter="url(#shadow157)">
    <g transform="translate(448.38 204.46) rotate(7.61)"><polygon points="0,-16.62 14.90,11.46 -14.90,11.46" fill="#A78BFA" stroke="rgba(255,255,255,0.55)" stroke-width="1.4" /></g>
    <g transform="translate(440.17 260.33) rotate(-12.31)"><polygon points="-18.21,-6.56 2.91,-6.56 2.91,-13.84 20.04,0.00 2.91,13.84 2.91,6.56 -18.21,6.56" fill="#FB7185" stroke="rgba(255,255,255,0.55)" stroke-width="1.2" /></g>
    <g transform="translate(202.86 392.68) rotate(-2.68)"><circle cx="0" cy="0" r="14.45" fill="#4ADE80" stroke="rgba(255,255,255,0.55)" stroke-width="1.4" /></g>
    <g transform="translate(524.31 396.74) rotate(-11.11)"><polygon points="0.00,-18.52 4.75,-6.54 17.61,-5.72 7.68,2.50 10.88,14.98 0.00,8.08 -10.88,14.98 -7.68,2.50 -17.61,-5.72 -4.75,-6.54" fill="#FB7185" stroke="rgba(255,255,255,0.55)" stroke-width="1.4" /></g>
    <g transform="translate(757.37 393.94) rotate(3.46)"><circle cx="0" cy="0" r="18.46" fill="#FB7185" /><circle cx="7.38" cy="-0.74" r="15.50" fill="#0B1A34" /></g>
    <g transform="translate(666.84 269.63) rotate(24.95)"><path d="M 0 12.10 C -15.84 1.44, -17.28 -10.08, -6.91 -2.30 C -0.58 -12.10, 0.58 -12.10, 6.91 -2.30 C 17.28 -10.08, 15.84 1.44, 0 12.10 Z" fill="#FB7185" stroke="rgba(255,255,255,0.55)" stroke-width="1.2" /></g>
    <g transform="translate(526.48 260.61) rotate(6.77)"><circle cx="0" cy="0" r="15.63" fill="#4ADE80" /><circle cx="6.25" cy="-0.63" r="13.13" fill="#0B1A34" /></g>
    <g transform="translate(829.45 468.88) rotate(3.30)"><path d="M 0 15.86 C -20.77 1.89, -22.66 -13.22, -9.06 -3.02 C -0.76 -15.86, 0.76 -15.86, 9.06 -3.02 C 22.66 -13.22, 20.77 1.89, 0 15.86 Z" fill="#22D3EE" stroke="rgba(255,255,255,0.55)" stroke-width="1.2" /></g>
    <g transform="translate(289.69 468.96) rotate(-19.55)"><polygon points="0,-23.31 20.90,16.07 -20.90,16.07" fill="#22D3EE" stroke="rgba(255,255,255,0.55)" stroke-width="1.4" /></g>
    <g transform="translate(747.92 135.63) rotate(0.99)"><path d="M 0 16.18 C -21.19 1.93, -23.12 -13.49, -9.25 -3.08 C -0.77 -16.18, 0.77 -16.18, 9.25 -3.08 C 23.12 -13.49, 21.19 1.93, 0 16.18 Z" fill="#C084FC" stroke="rgba(255,255,255,0.55)" stroke-width="1.2" /></g>
    <g transform="translate(598.55 266.99) rotate(-25.72)"><polygon points="0.00,-16.98 4.36,-5.99 16.15,-5.25 7.05,2.29 9.98,13.74 0.00,7.41 -9.98,13.74 -7.05,2.29 -16.15,-5.25 -4.36,-5.99" fill="#FBBF24" stroke="rgba(255,255,255,0.55)" stroke-width="1.4" /></g>
    <g transform="translate(434.59 142.75) rotate(25.40)"><circle cx="0" cy="0" r="17.98" fill="#F87171" stroke="rgba(255,255,255,0.55)" stroke-width="1.4" /></g>
    <g transform="translate(291.34 536.69) rotate(-19.08)"><polygon points="-20.04,-7.21 3.21,-7.21 3.21,-15.23 22.04,0.00 3.21,15.23 3.21,7.21 -20.04,7.21" fill="#22D3EE" stroke="rgba(255,255,255,0.55)" stroke-width="1.2" /></g>
    <g transform="translate(358.88 74.79) rotate(-24.58)"><polygon points="0.00,-18.95 4.86,-6.69 18.02,-5.86 7.86,2.56 11.14,15.33 0.00,8.27 -11.14,15.33 -7.86,2.56 -18.02,-5.86 -4.86,-6.69" fill="#60A5FA" stroke="rgba(255,255,255,0.55)" stroke-width="1.4" /></g>
    <g transform="translate(822.27 128.85) rotate(-3.37)"><polygon points="-19.13,-6.89 3.06,-6.89 3.06,-14.54 21.04,0.00 3.06,14.54 3.06,6.89 -19.13,6.89" fill="#FB7185" stroke="rgba(255,255,255,0.55)" stroke-width="1.2" /></g>
    <g transform="translate(127.42 334.07) rotate(-0.34)"><path d="M 0 13.43 C -17.58 1.60, -19.18 -11.19, -7.67 -2.56 C -0.64 -13.43, 0.64 -13.43, 7.67 -2.56 C 19.18 -11.19, 17.58 1.60, 0 13.43 Z" fill="#FB7185" stroke="rgba(255,255,255,0.55)" stroke-width="1.2" /></g>
    <g transform="translate(603.07 204.93) rotate(-13.66)"><circle cx="0" cy="0" r="18.93" fill="#22D3EE" stroke="rgba(255,255,255,0.55)" stroke-width="1.4" /></g>
    <g transform="translate(125.23 203.47) rotate(-2.86)"><polygon points="0,-23.03 20.65,15.88 -20.65,15.88" fill="#34D399" stroke="rgba(255,255,255,0.55)" stroke-width="1.4" /></g>
    <g transform="translate(824.40 328.85) rotate(0.66)"><polygon points="0.00,-21.63 5.55,-7.64 20.57,-6.68 8.98,2.92 12.72,17.50 0.00,9.44 -12.72,17.50 -8.98,2.92 -20.57,-6.68 -5.55,-7.64" fill="#FBBF24" stroke="rgba(255,255,255,0.55)" stroke-width="1.4" /></g>
    <g transform="translate(134.01 132.07) rotate(24.19)"><polygon points="0,-20.38 18.27,14.05 -18.27,14.05" fill="#C084FC" stroke="rgba(255,255,255,0.55)" stroke-width="1.4" /></g>
    <g transform="translate(133.71 523.70) rotate(11.34)"><polygon points="0.00,-21.27 5.46,-7.51 20.23,-6.57 8.83,2.87 12.51,17.21 0.00,9.28 -12.51,17.21 -8.83,2.87 -20.23,-6.57 -5.46,-7.51" fill="#A78BFA" stroke="rgba(255,255,255,0.55)" stroke-width="1.4" /></g>
    <g transform="translate(752.47 460.40) rotate(12.51)"><polygon points="-15.79,-5.69 2.53,-5.69 2.53,-12.00 17.37,0.00 2.53,12.00 2.53,5.69 -15.79,5.69" fill="#F97316" stroke="rgba(255,255,255,0.55)" stroke-width="1.2" /></g>
  </g>
</svg>
