<svg xmlns="http://www.w3.org/2000/svg" width="960" height="600" viewBox="0 0 960 600">
  <defs>
    <linearGradient id="bg110" x1="0%" y1="0%" x2="100%" y2="100%">
      <stop offset="0%" stop-color="#0F172A" />
      <stop offset="100%" stop-color="#1D4ED8" />
    </linearGradient>
    <filter id="shadow110" x="-20%" y="-20%" width="140%" height="140%">
      <feDropShadow dx="0" dy="2" stdDeviation="1.8" flood-color="rgba(0,0,0,0.36)" />
    </filter>
  </defs>

  <rect width="960" height="600" fill="url(#bg110)" />
  <rect x="24" y="24" width="912" height="552" rx="20" fill="rgba(255,255,255,0.045)" stroke="rgba(255,255,255,0.22)" />
  <g filter="url(#shadow110)">
    <g transform="translate(517.87 270.73) rotate(-11.99)"><circle cx="0" cy="0" r="18.29" fill="#F87171" stroke="rgba(255,255,255,0.55)" stroke-width="1.4" /></g>
    <g transform="translate(58.72 138.38) rotate(-7.39)"><circle cx="0" cy="0" r="20.13" fill="#22D3EE" stroke="rgba(255,255,255,0.55)" stroke-width="1.4" /></g>
    <g transform="translate(370.39 265.21) rotate(-0.05)"><circle cx="0" cy="0" r="20.92" fill="#60A5FA" /><circle cx="8.37" cy="-0.84" r="17.57" fill="#0B1A34" /></g>
    <g transform="translate(525.27 526.89) rotate(-7.44)"><circle cx="0" cy="0" r="18.40" fill="#34D399" /><circle cx="7.36" cy="-0.74" r="15.45" fill="#0B1A34" /></g>
    <g transform="translate(125.11 522.53) rotate(-10.99)"><polygon points="0,-22.85 20.48,15.76 -20.48,15.76" fill="#F87171" stroke="rgba(255,255,255,0.55)" stroke-width="1.4" /></g>
    <g transform="translate(666.96 534.21) rotate(-22.93)"><rect x="-14.06" y="-4.14" width="28.12" height="8.29" rx="4.14" fill="#C084FC" /><rect x="-4.14" y="-14.06" width="8.29" height="28.12" rx="4.14" fill="#C084FC" /></g>
    <g transform="translate(591.72 405.60) rotate(-3.00)"><polygon points="0,-23.06 20.67,15.90 -20.67,15.90" fill="#4ADE80" stroke="rgba(255,255,255,0.55)" stroke-width="1.4" /></g>
    <g transform="translate(835.07 337.80) rotate(22.20)"><path d="M 0 12.39 C -16.23 1.48, -17.71 -10.33, -7.08 -2.36 C -0.59 -12.39, 0.59 -12.39, 7.08 -2.36 C 17.71 -10.33, 16.23 1.48, 0 12.39 Z" fill="#FBBF24" stroke="rgba(255,255,255,0.55)" stroke-width="1.2" /></g>
    <g transform="translate(749.86 527.75) rotate(-4.04)"><circle cx="0" cy="0" r="18.01" fill="#60A5FA" stroke="rgba(255,255,255,0.55)" stroke-width="1.4" /><circle cx="-6.48" cy="-4.32" r="2.88" fill="#1F2937" /><circle cx="6.48" cy="-4.32" r="2.88" fill="#1F2937" /><path d="M -13.69 5.04 Q 0 12.25 13.69 5.04" fill="none" stroke="#1F2937" stroke-width="2.2" stroke-linecap="round" /></g>
    <g transform="translate(281.99 139.93) rotate(-17.53)"><polygon points="0,-17.16 17.16,0 0,17.16 -17.16,0" fill="#A78BFA" stroke="rgba(255,255,255,0.55)" stroke-width="1.4" /></g>
    <g transform="translate(44.92 331.09) rotate(-3.93)"><circle cx="0" cy="0" r="16.92" fill="#4ADE80" /><circle cx="6.77" cy="-0.68" r="14.21" fill="#0B1A34" /></g>
    <g transform="translate(823.03 135.40) rotate(-22.79)"><polygon points="0,-20.92 20.92,0 0,20.92 -20.92,0" fill="#F87171" stroke="rgba(255,255,255,0.55)" stroke-width="1.4" /></g>
    <g transform="translate(674.33 393.77) rotate(-5.92)"><circle cx="0" cy="0" r="14.08" fill="#F87171" /><circle cx="5.63" cy="-0.56" r="11.83" fill="#0B1A34" /></g>
    <g transform="translate(596.97 527.12) rotate(-8.74)"><polygon points="0,-22.51 20.18,15.52 -20.18,15.52" fill="#FBBF24" stroke="rgba(255,255,255,0.55)" stroke-width="1.4" /></g>
    <g transform="translate(369.31 331.75) rotate(7.02)"><circle cx="0" cy="0" r="17.14" fill="#FB7185" stroke="rgba(255,255,255,0.55)" stroke-width="1.4" /><circle cx="-6.17" cy="-4.11" r="2.74" fill="#1F2937" /><circle cx="6.17" cy="-4.11" r="2.74" fill="#1F2937" /><path d="M -13.03 4.80 Q 0 11.65 13.03 4.80" fill="none" stroke="#1F2937" stroke-width="2.2" stroke-linecap="round" /></g>
    <g transform="translate(52.87 462.58) rotate(6.09)"><circle cx="0" cy="0" r="18.15" fill="#A78BFA" /><circle cx="7.26" cy="-0.73" r="15.25" fill="#0B1A34" /></g>
  </g>
</svg>
