<svg xmlns="http://www.w3.org/2000/svg" width="960" height="600" viewBox="0 0 960 600">
  <defs>
    <linearGradient id="bg182" x1="0%" y1="0%" x2="100%" y2="100%">
      <stop offset="0%" stop-color="#0F172A" />
      <stop offset="100%" stop-color="#1D4ED8" />
    </linearGradient>
    <filter id="shadow182" x="-20%" y="-20%" width="140%" height="140%">
      <feDropShadow dx="0" dy="2" stdDeviation="1.8" flood-color="rgba(0,0,0,0.36)" />
    </filter>
  </defs>

  <rect width="960" height="600" fill="url(#bg182)" />
  <rect x="24" y="24" width="912" height="552" rx="20" fill="rgba(255,255,255,0.045)" stroke="rgba(255,255,255,0.22)" />
  <g filter="url(#shadow182)">
    <g transform="translate(365.05 129.19) rotate(10.63)"><circle cx="0" cy="0" r="17.04" fill="#C084FC" stroke="rgba(255,255,255,0.55)" stroke-width="1.4" /></g>
    <g transform="translate(914.47 271.13) rotate(-2.29)"><circle cx="0" cy="0" r="18.87" fill="#C084FC" /><circle cx="7.55" cy="-0.75" r="15.85" fill="#0B1A34" /></g>
    <g transform="translate(672.94 457.48) rotate(9.94)"><polygon points="0,-21.24 19.04,14.65 -19.04,14.65" fill="#F87171" stroke="rgba(255,255,255,0.55)" stroke-width="1.4" /></g>
    <g transform="translate(46.82 338.72) rotate(-15.65)"><polygon points="0,-21.47 19.25,14.80 -19.25,14.80" fill="#22D3EE" stroke="rgba(255,255,255,0.55)" stroke-width="1.4" /></g>
    <g transform="translate(515.64 65.21) rotate(2.20)"><circle cx="0" cy="0" r="15.55" fill="#34D399" stroke="rgba(255,255,255,0.55)" stroke-width="1.4" /><circle cx="-5.60" cy="-3.73" r="2.49" fill="#1F2937" /><circle cx="5.60" cy="-3.73" r="2.49" fill="#1F2937" /><path d="M -11.82 4.36 Q 0 10.58 11.82 4.36" fill="none" stroke="#1F2937" stroke-width="2.2" stroke-linecap="round" /></g>
    <g transform="translate(137.80 138.63) rotate(7.82)"><circle cx="0" cy="0" r="19.64" fill="#C084FC" stroke="rgba(255,255,255,0.55)" stroke-width="1.4" /><circle cx="-7.07" cy="-4.71" r="3.14" fill="#1F2937" /><circle cx="7.07" cy="-4.71" r="3.14" fill="#1F2937" /><path d="M -14.92 5.50 Q 0 13.35 14.92 5.50" fill="none" stroke="#1F2937" stroke-width="2.2" stroke-linecap="round" /></g>
    <g transform="translate(124.74 195.03) rotate(-2.16)"><circle cx="0" cy="0" r="20.60" fill="#F97316" /><circle cx="8.24" cy="-0.82" r="17.30" fill="#0B1A34" /></g>
    <g transform="translate(281.40 205.20) rotate(-1.88)"><circle cx="0" cy="0" r="14.63" fill="#FB7185" stroke="rgba(255,255,255,0.55)" stroke-width="1.4" /><circle cx="-5.27" cy="-3.51" r="2.34" fill="#1F2937" /><circle cx="5.27" cy="-3.51" r="2.34" fill="#1F2937" /><path d="M -11.12 4.10 Q 0 9.95 11.12 4.10" fill="none" stroke="#1F2937" stroke-width="2.2" stroke-linecap="round" /></g>
    <g transform="translate(592.46 141.11) rotate(1.05)"><polygon points="-14.01,-5.04 2.24,-5.04 2.24,-10.65 15.41,0.00 2.24,10.65 2.24,5.04 -14.01,5.04" fill="#C084FC" stroke="rgba(255,255,255,0.55)" stroke-width="1.2" /></g>
    <g transform="translate(59.67 463.04) rotate(-1.34)"><polygon points="-19.37,-6.97 3.10,-6.97 3.10,-14.72 21.30,0.00 3.10,14.72 3.10,6.97 -19.37,6.97" fill="#FBBF24" stroke="rgba(255,255,255,0.55)" stroke-width="1.2" /></g>
    <g transform="translate(592.74 327.24) rotate(-19.39)"><polygon points="0,-21.81 19.55,15.04 -19.55,15.04" fill="#60A5FA" stroke="rgba(255,255,255,0.55)" stroke-width="1.4" /></g>
    <g transform="translate(591.11 193.69) rotate(11.14)"><polygon points="0,-16.30 14.61,11.24 -14.61,11.24" fill="#F87171" stroke="rgba(255,255,255,0.55)" stroke-width="1.4" /></g>
    <g transform="translate(680.03 200.27) rotate(5.48)"><circle cx="0" cy="0" r="16.74" fill="#F87171" /><circle cx="6.69" cy="-0.67" r="14.06" fill="#0B1A34" /></g>
    <g transform="translate(133.50 260.46) rotate(-27.95)"><polygon points="0,-20.41 18.30,14.07 -18.30,14.07" fill="#22D3EE" stroke="rgba(255,255,255,0.55)" stroke-width="1.4" /></g>
    <g transform="translate(520.28 328.16) rotate(11.24)"><polygon points="0,-18.81 16.86,12.97 -16.86,12.97" fill="#22D3EE" stroke="rgba(255,255,255,0.55)" stroke-width="1.4" /></g>
    <g transform="translate(755.19 66.19) rotate(-11.19)"><polygon points="0,-22.12 19.83,15.25 -19.83,15.25" fill="#F87171" stroke="rgba(255,255,255,0.55)" stroke-width="1.4" /></g>
    <g transform="translate(364.72 274.62) rotate(1.73)"><circle cx="0" cy="0" r="17.57" fill="#4ADE80" stroke="rgba(255,255,255,0.55)" stroke-width="1.4" /><circle cx="-6.33" cy="-4.22" r="2.81" fill="#1F2937" /><circle cx="6.33" cy="-4.22" r="2.81" fill="#1F2937" /><path d="M -13.35 4.92 Q 0 11.95 13.35 4.92" fill="none" stroke="#1F2937" stroke-width="2.2" stroke-linecap="round" /></g>
    <g transform="translate(749.40 143.56) rotate(-19.87)"><circle cx="0" cy="0" r="20.23" fill="#F97316" stroke="rgba(255,255,255,0.55)" stroke-width="1.4" /></g>
    <g transform="translate(758.15 459.44) rotate(12.14)"><polygon points="-15.13,-5.45 2.42,-5.45 2.42,-11.50 16.65,0.00 2.42,11.50 2.42,5.45 -15.13,5.45" fill="#FB7185" stroke="rgba(255,255,255,0.55)" stroke-width="1.2" /></g>
    <g transform="translate(49.56 536.00) rotate(6.83)"><circle cx="0" cy="0" r="20.09" fill="#F87171" stroke="rgba(255,255,255,0.55)" stroke-width="1.4" /><circle cx="-7.23" cy="-4.82" r="3.21" fill="#1F2937" /><circle cx="7.23" cy="-4.82" r="3.21" fill="#1F2937" /><path d="M -15.27 5.62 Q 0 13.66 15.27 5.62" fill="none" stroke="#1F2937" stroke-width="2.2" stroke-linecap="round" /></g>
    <g transform="translate(364.03 396.33) rotate(-27.70)"><circle cx="0" cy="0" r="19.84" fill="#A78BFA" stroke="rgba(255,255,255,0.55)" stroke-width="1.4" /></g>
    <g transform="translate(45.07 197.53) rotate(-7.05)"><polygon points="-20.34,-7.32 3.25,-7.32 3.25,-15.46 22.37,0.00 3.25,15.46 3.25,7.32 -20.34,7.32" fill="#4ADE80" stroke="rgba(255,255,255,0.55)" stroke-width="1.2" /></g>
    <g transform="translate(674.28 66.35) rotate(1.76)"><polygon points="0,-21.03 18.86,14.50 -18.86,14.50" fill="#4ADE80" stroke="rgba(255,255,255,0.55)" stroke-width="1.4" /></g>
    <g transform="translate(137.25 63.35) rotate(-5.54)"><circle cx="0" cy="0" r="14.19" fill="#F97316" stroke="rgba(255,255,255,0.55)" stroke-width="1.4" /></g>
    <g transform="translate(602.11 70.39) rotate(16.56)"><polygon points="0,-18.41 16.50,12.69 -16.50,12.69" fill="#22D3EE" stroke="rgba(255,255,255,0.55)" stroke-width="1.4" /></g>
    <g transform="translate(590.81 537.91) rotate(19.09)"><polygon points="0,-19.46 17.45,13.42 -17.45,13.42" fill="#34D399" stroke="rgba(255,255,255,0.55)" stroke-width="1.4" /></g>
    <g transform="translate(519.53 263.65) rotate(9.32)"><polygon points="0,-22.85 20.48,15.76 -20.48,15.76" fill="#A78BFA" stroke="rgba(255,255,255,0.55)" stroke-width="1.4" /></g>
  </g>
</svg>
