<svg xmlns="http://www.w3.org/2000/svg" width="960" height="600" viewBox="0 0 960 600">
  <defs>
    <linearGradient id="bg108" x1="0%" y1="0%" x2="100%" y2="100%">
      <stop offset="0%" stop-color="#0F172A" />
      <stop offset="100%" stop-color="#1D4ED8" />
    </linearGradient>
    <filter id="shadow108" x="-20%" y="-20%" width="140%" height="140%">
      <feDropShadow dx="0" dy="2" stdDeviation="1.8" flood-color="rgba(0,0,0,0.36)" />
    </filter>
  </defs>

  <rect width="960" height="600" fill="url(#bg108)" />
  <rect x="24" y="24" width="912" height="552" rx="20" fill="rgba(255,255,255,0.045)" stroke="rgba(255,255,255,0.22)" />
  <g filter="url(#shadow108)">
    <g transform="translate(590.43 260.43) rotate(24.89)"><rect x="-16.85" y="-16.85" width="33.69" height="33.69" rx="3.66" fill="#34D399" stroke="rgba(255,255,255,0.55)" stroke-width="1.4" /></g>
    <g transform="translate(524.83 194.30) rotate(6.38)"><rect x="-13.60" y="-13.60" width="27.21" height="27.21" rx="2.96" fill="#FBBF24" stroke="rgba(255,255,255,0.55)" stroke-width="1.4" /></g>
    <g transform="translate(596.91 330.29) rotate(19.03)"><polygon points="0,-19.47 19.47,0 0,19.47 -19.47,0" fill="#F97316" stroke="rgba(255,255,255,0.55)" stroke-width="1.4" /></g>
    <g transform="translate(911.53 197.90) rotate(22.14)"><polygon points="0,-16.43 16.43,0 0,16.43 -16.43,0" fill="#FBBF24" stroke="rgba(255,255,255,0.55)" stroke-width="1.4" /></g>
    <g transform="translate(911.58 337.82) rotate(18.94)"><polygon points="0.00,-20.00 5.13,-7.06 19.02,-6.18 8.30,2.70 11.76,16.18 0.00,8.73 -11.76,16.18 -8.30,2.70 -19.02,-6.18 -5.13,-7.06" fill="#4ADE80" stroke="rgba(255,255,255,0.55)" stroke-width="1.4" /></g>
    <g transform="translate(129.55 128.39) rotate(-23.52)"><rect x="-16.24" y="-16.24" width="32.47" height="32.47" rx="3.53" fill="#FB7185" stroke="rgba(255,255,255,0.55)" stroke-width="1.4" /></g>
    <g transform="translate(674.23 529.39) rotate(0.34)"><polygon points="-20.19,-7.27 3.23,-7.27 3.23,-15.35 22.21,0.00 3.23,15.35 3.23,7.27 -20.19,7.27" fill="#22D3EE" stroke="rgba(255,255,255,0.55)" stroke-width="1.2" /></g>
    <g transform="translate(448.93 268.14) rotate(11.93)"><polygon points="0,-19.77 19.77,0 0,19.77 -19.77,0" fill="#F97316" stroke="rgba(255,255,255,0.55)" stroke-width="1.4" /></g>
    <g transform="translate(748.34 207.70) rotate(21.59)"><polygon points="0,-16.00 16.00,0 0,16.00 -16.00,0" fill="#22D3EE" stroke="rgba(255,255,255,0.55)" stroke-width="1.4" /></g>
    <g transform="translate(215.32 199.60) rotate(-8.61)"><polygon points="0.00,-21.21 5.44,-7.49 20.18,-6.56 8.80,2.86 12.47,17.16 0.00,9.26 -12.47,17.16 -8.80,2.86 -20.18,-6.56 -5.44,-7.49" fill="#22D3EE" stroke="rgba(255,255,255,0.55)" stroke-width="1.4" /></g>
    <g transform="translate(365.99 202.22) rotate(24.95)"><polygon points="-15.31,-5.51 2.45,-5.51 2.45,-11.64 16.84,0.00 2.45,11.64 2.45,5.51 -15.31,5.51" fill="#F87171" stroke="rgba(255,255,255,0.55)" stroke-width="1.2" /></g>
    <g transform="translate(57.51 534.90) rotate(1.72)"><polygon points="-15.81,-5.69 2.53,-5.69 2.53,-12.01 17.39,0.00 2.53,12.01 2.53,5.69 -15.81,5.69" fill="#A78BFA" stroke="rgba(255,255,255,0.55)" stroke-width="1.2" /></g>
    <g transform="translate(284.22 65.14) rotate(24.25)"><polygon points="0,-15.84 15.84,0 0,15.84 -15.84,0" fill="#22D3EE" stroke="rgba(255,255,255,0.55)" stroke-width="1.4" /></g>
    <g transform="translate(668.16 203.63) rotate(-8.26)"><polygon points="0,-19.43 19.43,0 0,19.43 -19.43,0" fill="#C084FC" stroke="rgba(255,255,255,0.55)" stroke-width="1.4" /></g>
    <g transform="translate(753.68 337.95) rotate(-9.31)"><rect x="-19.05" y="-19.05" width="38.10" height="38.10" rx="4.14" fill="#FB7185" stroke="rgba(255,255,255,0.55)" stroke-width="1.4" /></g>
    <g transform="translate(367.66 458.02) rotate(-18.11)"><polygon points="-16.82,-6.06 2.69,-6.06 2.69,-12.79 18.51,0.00 2.69,12.79 2.69,6.06 -16.82,6.06" fill="#C084FC" stroke="rgba(255,255,255,0.55)" stroke-width="1.2" /></g>
  </g>
</svg>
