<svg xmlns="http://www.w3.org/2000/svg" width="960" height="600" viewBox="0 0 960 600">
  <defs>
    <linearGradient id="bg8" x1="0%" y1="0%" x2="100%" y2="100%">
      <stop offset="0%" stop-color="#0F172A" />
      <stop offset="100%" stop-color="#1D4ED8" />
    </linearGradient>
    <filter id="shadow8" x="-20%" y="-20%" width="140%" height="140%">
      <feDropShadow dx="0" dy="2" stdDeviation="1.8" flood-color="rgba(0,0,0,0.36)" />
    </filter>
  </defs>

  <rect width="960" height="600" fill="url(#bg8)" />
  <rect x="24" y="24" width="912" height="552" rx="20" fill="rgba(255,255,255,0.045)" stroke="rgba(255,255,255,0.22)" />
  <g filter="url(#shadow8)">
    <g transform="translate(593.05 467.16) rotate(22.98)"><circle cx="0" cy="0" r="18.30" fill="#A78BFA" stroke="rgba(255,255,255,0.55)" stroke-width="1.4" /></g>
    <g transform="translate(367.69 329.31) rotate(27.10)"><polygon points="0,-20.51 20.51,0 0,20.51 -20.51,0" fill="#C084FC" stroke="rgba(255,255,255,0.55)" stroke-width="1.4" /></g>
    <g transform="translate(902.06 337.72) rotate(-5.73)"><polygon points="0,-19.37 19.37,0 0,19.37 -19.37,0" fill="#F87171" stroke="rgba(255,255,255,0.55)" stroke-width="1.4" /></g>
    <g transform="translate(832.07 331.32) rotate(3.28)"><circle cx="0" cy="0" r="20.74" fill="#FB7185" stroke="rgba(255,255,255,0.55)" stroke-width="1.4" /></g>
    <g transform="translate(433.97 62.25) rotate(12.10)"><rect x="-12.88" y="-12.88" width="25.77" height="25.77" rx="2.80" fill="#4ADE80" stroke="rgba(255,255,255,0.55)" stroke-width="1.4" /></g>
    <g transform="translate(907.83 205.74) rotate(5.23)"><polygon points="-14.13,-5.09 2.26,-5.09 2.26,-10.74 15.54,0.00 2.26,10.74 2.26,5.09 -14.13,5.09" fill="#34D399" stroke="rgba(255,255,255,0.55)" stroke-width="1.2" /></g>
    <g transform="translate(669.73 534.86) rotate(-19.27)"><rect x="-17.82" y="-17.82" width="35.65" height="35.65" rx="3.87" fill="#F97316" stroke="rgba(255,255,255,0.55)" stroke-width="1.4" /></g>
    <g transform="translate(129.07 262.33) rotate(-10.54)"><circle cx="0" cy="0" r="14.27" fill="#FBBF24" stroke="rgba(255,255,255,0.55)" stroke-width="1.4" /></g>
    <g transform="translate(363.74 534.30) rotate(6.34)"><circle cx="0" cy="0" r="17.14" fill="#F97316" /><circle cx="6.86" cy="-0.69" r="14.40" fill="#0B1A34" /></g>
    <g transform="translate(904.89 65.81) rotate(-23.32)"><rect x="-19.27" y="-5.68" width="38.54" height="11.36" rx="5.68" fill="#F87171" /><rect x="-5.68" y="-19.27" width="11.36" height="38.54" rx="5.68" fill="#F87171" /></g>
    <g transform="translate(670.47 460.13) rotate(-25.82)"><polygon points="0,-15.30 15.30,0 0,15.30 -15.30,0" fill="#60A5FA" stroke="rgba(255,255,255,0.55)" stroke-width="1.4" /></g>
    <g transform="translate(592.03 274.34) rotate(-10.68)"><polygon points="0,-14.04 14.04,0 0,14.04 -14.04,0" fill="#A78BFA" stroke="rgba(255,255,255,0.55)" stroke-width="1.4" /></g>
    <g transform="translate(448.52 536.01) rotate(-0.42)"><rect x="-18.32" y="-5.40" width="36.64" height="10.80" rx="5.40" fill="#FBBF24" /><rect x="-5.40" y="-18.32" width="10.80" height="36.64" rx="5.40" fill="#FBBF24" /></g>
    <g transform="translate(669.40 71.47) rotate(23.19)"><polygon points="0,-20.36 20.36,0 0,20.36 -20.36,0" fill="#22D3EE" stroke="rgba(255,255,255,0.55)" stroke-width="1.4" /></g>
    <g transform="translate(122.49 336.13) rotate(15.81)"><rect x="-15.58" y="-15.58" width="31.15" height="31.15" rx="3.39" fill="#34D399" stroke="rgba(255,255,255,0.55)" stroke-width="1.4" /></g>
    <g transform="translate(602.58 403.16) rotate(1.66)"><circle cx="0" cy="0" r="17.32" fill="#F97316" /><circle cx="6.93" cy="-0.69" r="14.55" fill="#0B1A34" /></g>
    <g transform="translate(435.80 400.09) rotate(0.47)"><circle cx="0" cy="0" r="18.97" fill="#C084FC" stroke="rgba(255,255,255,0.55)" stroke-width="1.4" /></g>
    <g transform="translate(602.16 340.70) rotate(10.32)"><circle cx="0" cy="0" r="17.44" fill="#FBBF24" stroke="rgba(255,255,255,0.55)" stroke-width="1.4" /></g>
  </g>
</svg>
