<svg xmlns="http://www.w3.org/2000/svg" width="960" height="600" viewBox="0 0 960 600">
  <defs>
    <linearGradient id="bg23" x1="0%" y1="0%" x2="100%" y2="100%">
      <stop offset="0%" stop-color="#0F172A" />
      <stop offset="100%" stop-color="#1D4ED8" />
    </linearGradient>
    <filter id="shadow23" x="-20%" y="-20%" width="140%" height="140%">
      <feDropShadow dx="0" dy="2" stdDeviation="1.8" flood-color="rgba(0,0,0,0.36)" />
    </filter>
  </defs>

  <rect width="960" height="600" fill="url(#bg23)" />
  <rect x="24" y="24" width="912" height="552" rx="20" fill="rgba(255,255,255,0.045)" stroke="rgba(255,255,255,0.22)" />
  <g filter="url(#shadow23)">
    <g transform="translate(370.24 272.29) rotate(-2.98)"><circle cx="0" cy="0" r="15.68" fill="#C084FC" /><circle cx="6.27" cy="-0.63" r="13.17" fill="#0B1A34" /></g>
    <g transform="translate(210.28 261.51) rotate(7.37)"><circle cx="0" cy="0" r="16.12" fill="#F87171" /><circle cx="6.45" cy="-0.64" r="13.54" fill="#0B1A34" /></g>
    <g transform="translate(47.75 397.52) rotate(-24.07)"><path d="M 0 13.24 C -17.33 1.58, -18.91 -11.03, -7.56 -2.52 C -0.63 -13.24, 0.63 -13.24, 7.56 -2.52 C 18.91 -11.03, 17.33 1.58, 0 13.24 Z" fill="#34D399" stroke="rgba(255,255,255,0.55)" stroke-width="1.2" /></g>
    <g transform="translate(754.82 532.08) rotate(-13.86)"><rect x="-18.53" y="-5.46" width="37.07" height="10.93" rx="5.46" fill="#F97316" /><rect x="-5.46" y="-18.53" width="10.93" height="37.07" rx="5.46" fill="#F97316" /></g>
    <g transform="translate(56.09 140.90) rotate(1.22)"><rect x="-13.74" y="-4.05" width="27.48" height="8.10" rx="4.05" fill="#C084FC" /><rect x="-4.05" y="-13.74" width="8.10" height="27.48" rx="4.05" fill="#C084FC" /></g>
    <g transform="translate(442.99 127.80) rotate(11.13)"><circle cx="0" cy="0" r="14.46" fill="#4ADE80" stroke="rgba(255,255,255,0.55)" stroke-width="1.4" /></g>
    <g transform="translate(752.24 457.75) rotate(-20.47)"><path d="M 0 17.44 C -22.84 2.08, -24.92 -14.54, -9.97 -3.32 C -0.83 -17.44, 0.83 -17.44, 9.97 -3.32 C 24.92 -14.54, 22.84 2.08, 0 17.44 Z" fill="#F97316" stroke="rgba(255,255,255,0.55)" stroke-width="1.2" /></g>
    <g transform="translate(290.50 405.17) rotate(-15.40)"><rect x="-15.76" y="-4.64" width="31.51" height="9.29" rx="4.64" fill="#34D399" /><rect x="-4.64" y="-15.76" width="9.29" height="31.51" rx="4.64" fill="#34D399" /></g>
    <g transform="translate(209.95 528.65) rotate(-27.67)"><rect x="-15.60" y="-4.60" width="31.21" height="9.20" rx="4.60" fill="#A78BFA" /><rect x="-4.60" y="-15.60" width="9.20" height="31.21" rx="4.60" fill="#A78BFA" /></g>
    <g transform="translate(838.14 529.07) rotate(-10.08)"><polygon points="-19.92,-7.17 3.19,-7.17 3.19,-15.14 21.92,0.00 3.19,15.14 3.19,7.17 -19.92,7.17" fill="#FBBF24" stroke="rgba(255,255,255,0.55)" stroke-width="1.2" /></g>
    <g transform="translate(200.52 334.66) rotate(-4.41)"><circle cx="0" cy="0" r="20.50" fill="#34D399" /><circle cx="8.20" cy="-0.82" r="17.22" fill="#0B1A34" /></g>
    <g transform="translate(597.58 136.44) rotate(-9.38)"><rect x="-19.30" y="-19.30" width="38.59" height="38.59" rx="4.19" fill="#34D399" stroke="rgba(255,255,255,0.55)" stroke-width="1.4" /></g>
    <g transform="translate(519.45 129.87) rotate(-4.16)"><rect x="-14.97" y="-4.41" width="29.95" height="8.83" rx="4.41" fill="#FBBF24" /><rect x="-4.41" y="-14.97" width="8.83" height="29.95" rx="4.41" fill="#FBBF24" /></g>
    <g transform="translate(202.28 139.35) rotate(3.92)"><polygon points="-19.57,-7.05 3.13,-7.05 3.13,-14.88 21.53,0.00 3.13,14.88 3.13,7.05 -19.57,7.05" fill="#A78BFA" stroke="rgba(255,255,255,0.55)" stroke-width="1.2" /></g>
    <g transform="translate(370.24 76.48) rotate(10.47)"><rect x="-17.16" y="-5.06" width="34.31" height="10.11" rx="5.06" fill="#34D399" /><rect x="-5.06" y="-17.16" width="10.11" height="34.31" rx="5.06" fill="#34D399" /></g>
    <g transform="translate(675.48 134.64) rotate(-18.43)"><polygon points="-20.11,-7.24 3.22,-7.24 3.22,-15.28 22.12,0.00 3.22,15.28 3.22,7.24 -20.11,7.24" fill="#FBBF24" stroke="rgba(255,255,255,0.55)" stroke-width="1.2" /></g>
    <g transform="translate(357.56 130.41) rotate(12.79)"><rect x="-18.41" y="-18.41" width="36.81" height="36.81" rx="4.00" fill="#60A5FA" stroke="rgba(255,255,255,0.55)" stroke-width="1.4" /></g>
    <g transform="translate(442.84 464.00) rotate(24.41)"><rect x="-17.29" y="-17.29" width="34.58" height="34.58" rx="3.76" fill="#60A5FA" stroke="rgba(255,255,255,0.55)" stroke-width="1.4" /></g>
    <g transform="translate(441.48 391.44) rotate(-11.58)"><rect x="-14.81" y="-14.81" width="29.62" height="29.62" rx="3.22" fill="#22D3EE" stroke="rgba(255,255,255,0.55)" stroke-width="1.4" /></g>
    <g transform="translate(591.77 266.58) rotate(-7.65)"><circle cx="0" cy="0" r="19.81" fill="#60A5FA" stroke="rgba(255,255,255,0.55)" stroke-width="1.4" /></g>
    <g transform="translate(668.84 404.46) rotate(-24.36)"><polygon points="-18.14,-6.53 2.90,-6.53 2.90,-13.78 19.95,0.00 2.90,13.78 2.90,6.53 -18.14,6.53" fill="#FBBF24" stroke="rgba(255,255,255,0.55)" stroke-width="1.2" /></g>
  </g>
</svg>
