<svg xmlns="http://www.w3.org/2000/svg" width="960" height="600" viewBox="0 0 960 600">
  <defs>
    <linearGradient id="bg124" x1="0%" y1="0%" x2="100%" y2="100%">
      <stop offset="0%" stop-color="#0F172A" />
      <stop offset="100%" stop-color="#1D4ED8" />
    </linearGradient>
    <filter id="shadow124" x="-20%" y="-20%" width="140%" height="140%">
      <feDropShadow dx="0" dy="2" stdDeviation="1.8" flood-color="rgba(0,0,0,0.36)" />
    </filter>
  </defs>

  <rect width="960" height="600" fill="url(#bg124)" />
  <rect x="24" y="24" width="912" height="552" rx="20" fill="rgba(255,255,255,0.045)" stroke="rgba(255,255,255,0.22)" />
  <g filter="url(#shadow124)">
    <g transform="translate(825.38 270.74) rotate(-2.44)"><polygon points="0,-21.52 19.29,14.84 -19.29,14.84" fill="#4ADE80" stroke="rgba(255,255,255,0.55)" stroke-width="1.4" /></g>
    <g transform="translate(446.50 405.25) rotate(-25.78)"><polygon points="0.00,-18.53 4.75,-6.54 17.62,-5.73 7.69,2.50 10.89,14.99 0.00,8.09 -10.89,14.99 -7.69,2.50 -17.62,-5.73 -4.75,-6.54" fill="#FB7185" stroke="rgba(255,255,255,0.55)" stroke-width="1.4" /></g>
    <g transform="translate(361.51 64.76) rotate(26.37)"><rect x="-15.12" y="-15.12" width="30.25" height="30.25" rx="3.29" fill="#A78BFA" stroke="rgba(255,255,255,0.55)" stroke-width="1.4" /></g>
    <g transform="translate(513.15 332.82) rotate(24.33)"><circle cx="0" cy="0" r="19.61" fill="#60A5FA" stroke="rgba(255,255,255,0.55)" stroke-width="1.4" /></g>
    <g transform="translate(355.97 336.08) rotate(-13.09)"><rect x="-17.43" y="-17.43" width="34.86" height="34.86" rx="3.79" fill="#60A5FA" stroke="rgba(255,255,255,0.55)" stroke-width="1.4" /></g>
    <g transform="translate(284.19 135.81) rotate(12.43)"><circle cx="0" cy="0" r="18.07" fill="#FB7185" stroke="rgba(255,255,255,0.55)" stroke-width="1.4" /></g>
    <g transform="translate(671.08 274.43) rotate(-2.38)"><polygon points="0,-19.64 17.61,13.55 -17.61,13.55" fill="#F87171" stroke="rgba(255,255,255,0.55)" stroke-width="1.4" /></g>
    <g transform="translate(517.39 72.25) rotate(-0.55)"><polygon points="0,-16.58 14.86,11.43 -14.86,11.43" fill="#FBBF24" stroke="rgba(255,255,255,0.55)" stroke-width="1.4" /></g>
    <g transform="translate(599.04 530.85) rotate(3.14)"><circle cx="0" cy="0" r="19.75" fill="#FBBF24" stroke="rgba(255,255,255,0.55)" stroke-width="1.4" /></g>
    <g transform="translate(675.70 62.91) rotate(-27.92)"><polygon points="0.00,-19.61 5.03,-6.92 18.65,-6.06 8.14,2.64 11.53,15.87 0.00,8.56 -11.53,15.87 -8.14,2.64 -18.65,-6.06 -5.03,-6.92" fill="#4ADE80" stroke="rgba(255,255,255,0.55)" stroke-width="1.4" /></g>
    <g transform="translate(57.36 205.77) rotate(8.04)"><rect x="-17.85" y="-17.85" width="35.70" height="35.70" rx="3.88" fill="#C084FC" stroke="rgba(255,255,255,0.55)" stroke-width="1.4" /></g>
    <g transform="translate(287.56 203.26) rotate(-9.67)"><circle cx="0" cy="0" r="20.47" fill="#4ADE80" stroke="rgba(255,255,255,0.55)" stroke-width="1.4" /></g>
    <g transform="translate(202.60 68.58) rotate(17.87)"><polygon points="-18.52,-6.67 2.96,-6.67 2.96,-14.08 20.37,0.00 2.96,14.08 2.96,6.67 -18.52,6.67" fill="#C084FC" stroke="rgba(255,255,255,0.55)" stroke-width="1.2" /></g>
    <g transform="translate(514.03 260.89) rotate(19.82)"><polygon points="0,-22.59 20.25,15.58 -20.25,15.58" fill="#F97316" stroke="rgba(255,255,255,0.55)" stroke-width="1.4" /></g>
    <g transform="translate(520.14 398.28) rotate(-15.65)"><polygon points="0,-22.36 20.05,15.42 -20.05,15.42" fill="#F87171" stroke="rgba(255,255,255,0.55)" stroke-width="1.4" /></g>
    <g transform="translate(213.37 134.20) rotate(-14.50)"><circle cx="0" cy="0" r="19.94" fill="#FBBF24" stroke="rgba(255,255,255,0.55)" stroke-width="1.4" /></g>
  </g>
</svg>
