<svg xmlns="http://www.w3.org/2000/svg" width="960" height="600" viewBox="0 0 960 600">
  <defs>
    <linearGradient id="bg2" x1="0%" y1="0%" x2="100%" y2="100%">
      <stop offset="0%" stop-color="#0F172A" />
      <stop offset="100%" stop-color="#1D4ED8" />
    </linearGradient>
    <filter id="shadow2" x="-20%" y="-20%" width="140%" height="140%">
      <feDropShadow dx="0" dy="2" stdDeviation="1.8" flood-color="rgba(0,0,0,0.36)" />
    </filter>
  </defs>

  <rect width="960" height="600" fill="url(#bg2)" />
  <rect x="24" y="24" width="912" height="552" rx="20" fill="rgba(255,255,255,0.045)" stroke="rgba(255,255,255,0.22)" />
  <g filter="url(#shadow2)">
    <g transform="translate(910.59 261.84) rotate(-3.77)"><polygon points="0,-15.86 15.86,0 0,15.86 -15.86,0" fill="#A78BFA" stroke="rgba(255,255,255,0.55)" stroke-width="1.4" /></g>
    <g transform="translate(680.92 72.51) rotate(-0.38)"><polygon points="0.00,-17.88 4.59,-6.31 17.01,-5.53 7.42,2.41 10.51,14.47 0.00,7.80 -10.51,14.47 -7.42,2.41 -17.01,-5.53 -4.59,-6.31" fill="#22D3EE" stroke="rgba(255,255,255,0.55)" stroke-width="1.4" /></g>
    <g transform="translate(907.41 535.85) rotate(23.51)"><polygon points="0,-15.38 15.38,0 0,15.38 -15.38,0" fill="#34D399" stroke="rgba(255,255,255,0.55)" stroke-width="1.4" /></g>
    <g transform="translate(212.49 265.25) rotate(-19.35)"><polygon points="0,-18.78 16.84,12.95 -16.84,12.95" fill="#22D3EE" stroke="rgba(255,255,255,0.55)" stroke-width="1.4" /></g>
    <g transform="translate(279.50 197.71) rotate(18.80)"><polygon points="0.00,-20.46 5.25,-7.22 19.46,-6.32 8.49,2.76 12.02,16.55 0.00,8.93 -12.02,16.55 -8.49,2.76 -19.46,-6.32 -5.25,-7.22" fill="#C084FC" stroke="rgba(255,255,255,0.55)" stroke-width="1.4" /></g>
    <g transform="translate(673.66 392.90) rotate(7.11)"><polygon points="0,-19.89 19.89,0 0,19.89 -19.89,0" fill="#A78BFA" stroke="rgba(255,255,255,0.55)" stroke-width="1.4" /></g>
    <g transform="translate(597.71 129.69) rotate(-11.57)"><rect x="-19.14" y="-19.14" width="38.28" height="38.28" rx="4.16" fill="#22D3EE" stroke="rgba(255,255,255,0.55)" stroke-width="1.4" /></g>
    <g transform="translate(364.07 461.55) rotate(-5.06)"><polygon points="0,-16.80 16.80,0 0,16.80 -16.80,0" fill="#FB7185" stroke="rgba(255,255,255,0.55)" stroke-width="1.4" /></g>
    <g transform="translate(524.47 471.53) rotate(9.39)"><rect x="-18.73" y="-18.73" width="37.46" height="37.46" rx="4.07" fill="#F97316" stroke="rgba(255,255,255,0.55)" stroke-width="1.4" /></g>
    <g transform="translate(594.36 198.72) rotate(23.68)"><polygon points="0.00,-17.02 4.36,-6.01 16.18,-5.26 7.06,2.29 10.00,13.77 0.00,7.43 -10.00,13.77 -7.06,2.29 -16.18,-5.26 -4.36,-6.01" fill="#4ADE80" stroke="rgba(255,255,255,0.55)" stroke-width="1.4" /></g>
    <g transform="translate(364.22 131.75) rotate(-9.30)"><polygon points="0.00,-15.48 3.97,-5.47 14.72,-4.78 6.42,2.09 9.10,12.52 0.00,6.76 -9.10,12.52 -6.42,2.09 -14.72,-4.78 -3.97,-5.47" fill="#34D399" stroke="rgba(255,255,255,0.55)" stroke-width="1.4" /></g>
    <g transform="translate(134.27 135.33) rotate(21.79)"><polygon points="0.00,-18.59 4.77,-6.56 17.68,-5.75 7.72,2.51 10.93,15.04 0.00,8.11 -10.93,15.04 -7.72,2.51 -17.68,-5.75 -4.77,-6.56" fill="#C084FC" stroke="rgba(255,255,255,0.55)" stroke-width="1.4" /></g>
    <g transform="translate(436.61 261.08) rotate(19.71)"><polygon points="0,-14.26 14.26,0 0,14.26 -14.26,0" fill="#60A5FA" stroke="rgba(255,255,255,0.55)" stroke-width="1.4" /></g>
    <g transform="translate(202.98 397.89) rotate(-12.49)"><polygon points="0,-14.12 14.12,0 0,14.12 -14.12,0" fill="#22D3EE" stroke="rgba(255,255,255,0.55)" stroke-width="1.4" /></g>
    <g transform="translate(55.08 530.62) rotate(-27.36)"><polygon points="0.00,-16.01 4.11,-5.65 15.22,-4.95 6.64,2.16 9.41,12.95 0.00,6.99 -9.41,12.95 -6.64,2.16 -15.22,-4.95 -4.11,-5.65" fill="#22D3EE" stroke="rgba(255,255,255,0.55)" stroke-width="1.4" /></g>
    <g transform="translate(759.92 77.09) rotate(-16.44)"><polygon points="0,-16.81 15.07,11.59 -15.07,11.59" fill="#F87171" stroke="rgba(255,255,255,0.55)" stroke-width="1.4" /></g>
    <g transform="translate(45.35 331.53) rotate(1.22)"><polygon points="0,-21.09 18.91,14.54 -18.91,14.54" fill="#34D399" stroke="rgba(255,255,255,0.55)" stroke-width="1.4" /></g>
    <g transform="translate(746.09 197.76) rotate(-4.51)"><polygon points="0,-19.95 17.89,13.76 -17.89,13.76" fill="#C084FC" stroke="rgba(255,255,255,0.55)" stroke-width="1.4" /></g>
    <g transform="translate(682.36 537.81) rotate(22.99)"><rect x="-17.61" y="-17.61" width="35.22" height="35.22" rx="3.83" fill="#4ADE80" stroke="rgba(255,255,255,0.55)" stroke-width="1.4" /></g>
    <g transform="translate(282.54 135.39) rotate(-0.65)"><polygon points="0.00,-18.05 4.63,-6.37 17.16,-5.58 7.49,2.43 10.61,14.60 0.00,7.87 -10.61,14.60 -7.49,2.43 -17.16,-5.58 -4.63,-6.37" fill="#22D3EE" stroke="rgba(255,255,255,0.55)" stroke-width="1.4" /></g>
    <g transform="translate(674.39 259.49) rotate(17.30)"><polygon points="0,-14.26 14.26,0 0,14.26 -14.26,0" fill="#A78BFA" stroke="rgba(255,255,255,0.55)" stroke-width="1.4" /></g>
    <g transform="translate(48.38 404.05) rotate(-5.60)"><polygon points="0,-15.39 15.39,0 0,15.39 -15.39,0" fill="#F97316" stroke="rgba(255,255,255,0.55)" stroke-width="1.4" /></g>
  </g>
</svg>
