<svg xmlns="http://www.w3.org/2000/svg" width="960" height="600" viewBox="0 0 960 600">
  <defs>
    <linearGradient id="bg30" x1="0%" y1="0%" x2="100%" y2="100%">
      <stop offset="0%" stop-color="#0F172A" />
      <stop offset="100%" stop-color="#1D4ED8" />
    </linearGradient>
    <filter id="shadow30" x="-20%" y="-20%" width="140%" height="140%">
      <feDropShadow dx="0" dy="2" stdDeviation="1.8" flood-color="rgba(0,0,0,0.36)" />
    </filter>
  </defs>

  <rect width="960" height="600" fill="url(#bg30)" />
  <rect x="24" y="24" width="912" height="552" rx="20" fill="rgba(255,255,255,0.045)" stroke="rgba(255,255,255,0.22)" />
  <g filter="url(#shadow30)">
    <g transform="translate(597.24 338.86) rotate(3.06)"><circle cx="0" cy="0" r="16.50" fill="#FBBF24" /><circle cx="6.60" cy="-0.66" r="13.86" fill="#0B1A34" /></g>
    <g transform="translate(832.44 62.53) rotate(24.92)"><circle cx="0" cy="0" r="20.13" fill="#22D3EE" stroke="rgba(255,255,255,0.55)" stroke-width="1.4" /></g>
    <g transform="translate(601.37 131.31) rotate(-16.17)"><polygon points="0,-17.59 15.77,12.13 -15.77,12.13" fill="#F97316" stroke="rgba(255,255,255,0.55)" stroke-width="1.4" /></g>
    <g transform="translate(913.36 66.14) rotate(-19.59)"><polygon points="0,-19.30 17.30,13.31 -17.30,13.31" fill="#FB7185" stroke="rgba(255,255,255,0.55)" stroke-width="1.4" /></g>
    <g transform="translate(835.61 529.85) rotate(-0.57)"><circle cx="0" cy="0" r="14.18" fill="#C084FC" /><circle cx="5.67" cy="-0.57" r="11.91" fill="#0B1A34" /></g>
    <g transform="translate(208.07 195.05) rotate(19.57)"><polygon points="0,-19.65 17.61,13.55 -17.61,13.55" fill="#FBBF24" stroke="rgba(255,255,255,0.55)" stroke-width="1.4" /></g>
    <g transform="translate(682.09 470.08) rotate(-25.76)"><polygon points="0,-19.36 17.36,13.35 -17.36,13.35" fill="#22D3EE" stroke="rgba(255,255,255,0.55)" stroke-width="1.4" /></g>
    <g transform="translate(757.60 467.66) rotate(13.70)"><rect x="-17.75" y="-5.23" width="35.50" height="10.46" rx="5.23" fill="#FBBF24" /><rect x="-5.23" y="-17.75" width="10.46" height="35.50" rx="5.23" fill="#FBBF24" /></g>
    <g transform="translate(206.32 133.96) rotate(-8.68)"><polygon points="0,-16.45 16.45,0 0,16.45 -16.45,0" fill="#FB7185" stroke="rgba(255,255,255,0.55)" stroke-width="1.4" /></g>
    <g transform="translate(513.19 335.65) rotate(-0.34)"><circle cx="0" cy="0" r="14.37" fill="#4ADE80" /><circle cx="5.75" cy="-0.57" r="12.07" fill="#0B1A34" /></g>
    <g transform="translate(282.08 137.86) rotate(-3.83)"><circle cx="0" cy="0" r="19.94" fill="#A78BFA" /><circle cx="7.98" cy="-0.80" r="16.75" fill="#0B1A34" /></g>
    <g transform="translate(833.83 263.19) rotate(17.29)"><polygon points="0,-15.88 14.23,10.95 -14.23,10.95" fill="#A78BFA" stroke="rgba(255,255,255,0.55)" stroke-width="1.4" /></g>
    <g transform="translate(48.47 465.69) rotate(1.35)"><circle cx="0" cy="0" r="15.49" fill="#C084FC" /><circle cx="6.19" cy="-0.62" r="13.01" fill="#0B1A34" /></g>
    <g transform="translate(443.07 329.95) rotate(19.22)"><circle cx="0" cy="0" r="20.70" fill="#F97316" stroke="rgba(255,255,255,0.55)" stroke-width="1.4" /></g>
    <g transform="translate(901.68 460.47) rotate(19.84)"><circle cx="0" cy="0" r="15.11" fill="#34D399" stroke="rgba(255,255,255,0.55)" stroke-width="1.4" /></g>
    <g transform="translate(362.50 533.49) rotate(1.90)"><circle cx="0" cy="0" r="20.94" fill="#C084FC" /><circle cx="8.37" cy="-0.84" r="17.59" fill="#0B1A34" /></g>
    <g transform="translate(594.86 405.22) rotate(-2.69)"><polygon points="0,-17.15 17.15,0 0,17.15 -17.15,0" fill="#22D3EE" stroke="rgba(255,255,255,0.55)" stroke-width="1.4" /></g>
    <g transform="translate(126.09 142.19) rotate(-0.29)"><circle cx="0" cy="0" r="15.52" fill="#60A5FA" /><circle cx="6.21" cy="-0.62" r="13.03" fill="#0B1A34" /></g>
    <g transform="translate(122.37 195.52) rotate(5.49)"><circle cx="0" cy="0" r="19.85" fill="#F87171" /><circle cx="7.94" cy="-0.79" r="16.67" fill="#0B1A34" /></g>
    <g transform="translate(676.68 402.48) rotate(-14.73)"><polygon points="0,-19.81 19.81,0 0,19.81 -19.81,0" fill="#F87171" stroke="rgba(255,255,255,0.55)" stroke-width="1.4" /></g>
    <g transform="translate(358.07 328.12) rotate(1.04)"><circle cx="0" cy="0" r="17.09" fill="#C084FC" /><circle cx="6.84" cy="-0.68" r="14.36" fill="#0B1A34" /></g>
    <g transform="translate(124.50 459.97) rotate(7.62)"><circle cx="0" cy="0" r="20.49" fill="#A78BFA" /><circle cx="8.20" cy="-0.82" r="17.21" fill="#0B1A34" /></g>
    <g transform="translate(824.16 194.60) rotate(-4.08)"><polygon points="0,-18.66 16.73,12.87 -16.73,12.87" fill="#60A5FA" stroke="rgba(255,255,255,0.55)" stroke-width="1.4" /></g>
    <g transform="translate(133.10 522.35) rotate(3.04)"><circle cx="0" cy="0" r="19.43" fill="#F87171" /><circle cx="7.77" cy="-0.78" r="16.32" fill="#0B1A34" /></g>
    <g transform="translate(57.52 198.09) rotate(-8.69)"><polygon points="0,-20.46 18.35,14.11 -18.35,14.11" fill="#C084FC" stroke="rgba(255,255,255,0.55)" stroke-width="1.4" /></g>
    <g transform="translate(58.66 259.84) rotate(-6.72)"><circle cx="0" cy="0" r="14.38" fill="#22D3EE" /><circle cx="5.75" cy="-0.58" r="12.08" fill="#0B1A34" /></g>
    <g transform="translate(357.46 64.25) rotate(-5.47)"><polygon points="0,-18.52 18.52,0 0,18.52 -18.52,0" fill="#4ADE80" stroke="rgba(255,255,255,0.55)" stroke-width="1.4" /></g>
    <g transform="translate(670.67 534.25) rotate(3.58)"><circle cx="0" cy="0" r="15.38" fill="#A78BFA" /><circle cx="6.15" cy="-0.62" r="12.92" fill="#0B1A34" /></g>
    <g transform="translate(828.94 468.38) rotate(23.48)"><circle cx="0" cy="0" r="16.50" fill="#FB7185" stroke="rgba(255,255,255,0.55)" stroke-width="1.4" /></g>
    <g transform="translate(131.55 261.12) rotate(-15.72)"><rect x="-16.85" y="-4.96" width="33.69" height="9.93" rx="4.96" fill="#22D3EE" /><rect x="-4.96" y="-16.85" width="9.93" height="33.69" rx="4.96" fill="#22D3EE" /></g>
    <g transform="translate(136.84 71.66) rotate(19.59)"><rect x="-17.81" y="-5.25" width="35.62" height="10.50" rx="5.25" fill="#F87171" /><rect x="-5.25" y="-17.81" width="10.50" height="35.62" rx="5.25" fill="#F87171" /></g>
    <g transform="translate(51.63 537.37) rotate(-7.75)"><circle cx="0" cy="0" r="16.85" fill="#FBBF24" /><circle cx="6.74" cy="-0.67" r="14.15" fill="#0B1A34" /></g>
    <g transform="translate(595.02 69.94) rotate(26.79)"><polygon points="0,-15.26 15.26,0 0,15.26 -15.26,0" fill="#F97316" stroke="rgba(255,255,255,0.55)" stroke-width="1.4" /></g>
    <g transform="translate(442.49 72.83) rotate(13.55)"><polygon points="0,-16.52 16.52,0 0,16.52 -16.52,0" fill="#F97316" stroke="rgba(255,255,255,0.55)" stroke-width="1.4" /></g>
    <g transform="translate(900.86 331.97) rotate(-3.68)"><circle cx="0" cy="0" r="20.78" fill="#4ADE80" /><circle cx="8.31" cy="-0.83" r="17.46" fill="#0B1A34" /></g>
    <g transform="translate(756.21 400.16) rotate(1.70)"><circle cx="0" cy="0" r="14.74" fill="#4ADE80" /><circle cx="5.89" cy="-0.59" r="12.38" fill="#0B1A34" /></g>
    <g transform="translate(513.74 536.80) rotate(-7.77)"><polygon points="0,-15.72 15.72,0 0,15.72 -15.72,0" fill="#4ADE80" stroke="rgba(255,255,255,0.55)" stroke-width="1.4" /></g>
    <g transform="translate(365.25 270.25) rotate(-25.17)"><rect x="-14.74" y="-4.34" width="29.47" height="8.69" rx="4.34" fill="#22D3EE" /><rect x="-4.34" y="-14.74" width="8.69" height="29.47" rx="4.34" fill="#22D3EE" /></g>
    <g transform="translate(833.03 138.87) rotate(4.68)"><rect x="-13.34" y="-3.93" width="26.69" height="7.87" rx="3.93" fill="#F87171" /><rect x="-3.93" y="-13.34" width="7.87" height="26.69" rx="3.93" fill="#F87171" /></g>
    <g transform="translate(837.37 401.77) rotate(2.44)"><circle cx="0" cy="0" r="19.97" fill="#C084FC" /><circle cx="7.99" cy="-0.80" r="16.77" fill="#0B1A34" /></g>
  </g>
</svg>
