<svg xmlns="http://www.w3.org/2000/svg" width="960" height="600" viewBox="0 0 960 600">
  <defs>
    <linearGradient id="bg76" x1="0%" y1="0%" x2="100%" y2="100%">
      <stop offset="0%" stop-color="#0F172A" />
      <stop offset="100%" stop-color="#1D4ED8" />
    </linearGradient>
    <filter id="shadow76" x="-20%" y="-20%" width="140%" height="140%">
      <feDropShadow dx="0" dy="2" stdDeviation="1.8" flood-color="rgba(0,0,0,0.36)" />
    </filter>
  </defs>

  <rect width="960" height="600" fill="url(#bg76)" />
  <rect x="24" y="24" width="912" height="552" rx="20" fill="rgba(255,255,255,0.045)" stroke="rgba(255,255,255,0.22)" />
  <g filter="url(#shadow76)">
    <g transform="translate(825.69 72.41) rotate(10.31)"><polygon points="-18.84,-6.78 3.01,-6.78 3.01,-14.32 20.72,0.00 3.01,14.32 3.01,6.78 -18.84,6.78" fill="#34D399" stroke="rgba(255,255,255,0.55)" stroke-width="1.2" /></g>
    <g transform="translate(365.24 130.24) rotate(-0.08)"><circle cx="0" cy="0" r="14.65" fill="#F97316" stroke="rgba(255,255,255,0.55)" stroke-width="1.4" /><circle cx="-5.27" cy="-3.51" r="2.34" fill="#1F2937" /><circle cx="5.27" cy="-3.51" r="2.34" fill="#1F2937" /><path d="M -11.13 4.10 Q 0 9.96 11.13 4.10" fill="none" stroke="#1F2937" stroke-width="2.2" stroke-linecap="round" /></g>
    <g transform="translate(214.56 261.08) rotate(-0.36)"><polygon points="0.00,-21.23 5.44,-7.49 20.19,-6.56 8.81,2.86 12.48,17.17 0.00,9.26 -12.48,17.17 -8.81,2.86 -20.19,-6.56 -5.44,-7.49" fill="#F87171" stroke="rgba(255,255,255,0.55)" stroke-width="1.4" /></g>
    <g transform="translate(56.90 536.22) rotate(15.90)"><polygon points="0,-17.16 15.38,11.83 -15.38,11.83" fill="#4ADE80" stroke="rgba(255,255,255,0.55)" stroke-width="1.4" /></g>
    <g transform="translate(291.02 528.04) rotate(-2.98)"><circle cx="0" cy="0" r="19.66" fill="#FBBF24" stroke="rgba(255,255,255,0.55)" stroke-width="1.4" /><circle cx="-7.08" cy="-4.72" r="3.15" fill="#1F2937" /><circle cx="7.08" cy="-4.72" r="3.15" fill="#1F2937" /><path d="M -14.95 5.51 Q 0 13.37 14.95 5.51" fill="none" stroke="#1F2937" stroke-width="2.2" stroke-linecap="round" /></g>
    <g transform="translate(901.43 534.96) rotate(5.18)"><circle cx="0" cy="0" r="20.42" fill="#A78BFA" stroke="rgba(255,255,255,0.55)" stroke-width="1.4" /><circle cx="-7.35" cy="-4.90" r="3.27" fill="#1F2937" /><circle cx="7.35" cy="-4.90" r="3.27" fill="#1F2937" /><path d="M -15.52 5.72 Q 0 13.88 15.52 5.72" fill="none" stroke="#1F2937" stroke-width="2.2" stroke-linecap="round" /></g>
    <g transform="translate(835.73 329.70) rotate(-7.24)"><circle cx="0" cy="0" r="20.81" fill="#C084FC" stroke="rgba(255,255,255,0.55)" stroke-width="1.4" /><circle cx="-7.49" cy="-4.99" r="3.33" fill="#1F2937" /><circle cx="7.49" cy="-4.99" r="3.33" fill="#1F2937" /><path d="M -15.82 5.83 Q 0 14.15 15.82 5.83" fill="none" stroke="#1F2937" stroke-width="2.2" stroke-linecap="round" /></g>
    <g transform="translate(360.92 195.20) rotate(0.01)"><circle cx="0" cy="0" r="16.75" fill="#F97316" /><circle cx="6.70" cy="-0.67" r="14.07" fill="#0B1A34" /></g>
    <g transform="translate(287.12 66.20) rotate(-6.58)"><circle cx="0" cy="0" r="20.47" fill="#34D399" stroke="rgba(255,255,255,0.55)" stroke-width="1.4" /><circle cx="-7.37" cy="-4.91" r="3.28" fill="#1F2937" /><circle cx="7.37" cy="-4.91" r="3.28" fill="#1F2937" /><path d="M -15.56 5.73 Q 0 13.92 15.56 5.73" fill="none" stroke="#1F2937" stroke-width="2.2" stroke-linecap="round" /></g>
    <g transform="translate(55.37 461.68) rotate(0.34)"><circle cx="0" cy="0" r="18.56" fill="#4ADE80" stroke="rgba(255,255,255,0.55)" stroke-width="1.4" /><circle cx="-6.68" cy="-4.45" r="2.97" fill="#1F2937" /><circle cx="6.68" cy="-4.45" r="2.97" fill="#1F2937" /><path d="M -14.11 5.20 Q 0 12.62 14.11 5.20" fill="none" stroke="#1F2937" stroke-width="2.2" stroke-linecap="round" /></g>
    <g transform="translate(280.84 464.10) rotate(2.58)"><circle cx="0" cy="0" r="14.95" fill="#34D399" stroke="rgba(255,255,255,0.55)" stroke-width="1.4" /><circle cx="-5.38" cy="-3.59" r="2.39" fill="#1F2937" /><circle cx="5.38" cy="-3.59" r="2.39" fill="#1F2937" /><path d="M -11.36 4.19 Q 0 10.17 11.36 4.19" fill="none" stroke="#1F2937" stroke-width="2.2" stroke-linecap="round" /></g>
    <g transform="translate(280.92 397.66) rotate(23.70)"><polygon points="0,-19.67 17.63,13.56 -17.63,13.56" fill="#F97316" stroke="rgba(255,255,255,0.55)" stroke-width="1.4" /></g>
    <g transform="translate(914.63 333.72) rotate(-15.08)"><polygon points="0.00,-17.64 4.52,-6.23 16.78,-5.45 7.32,2.38 10.37,14.27 0.00,7.70 -10.37,14.27 -7.32,2.38 -16.78,-5.45 -4.52,-6.23" fill="#FB7185" stroke="rgba(255,255,255,0.55)" stroke-width="1.4" /></g>
    <g transform="translate(904.03 208.30) rotate(-3.42)"><circle cx="0" cy="0" r="17.81" fill="#34D399" /><circle cx="7.13" cy="-0.71" r="14.96" fill="#0B1A34" /></g>
    <g transform="translate(51.40 204.02) rotate(-11.73)"><polygon points="-19.14,-6.89 3.06,-6.89 3.06,-14.55 21.06,0.00 3.06,14.55 3.06,6.89 -19.14,6.89" fill="#F87171" stroke="rgba(255,255,255,0.55)" stroke-width="1.2" /></g>
    <g transform="translate(672.06 393.64) rotate(-5.02)"><polygon points="0.00,-16.50 4.23,-5.82 15.69,-5.10 6.85,2.22 9.70,13.34 0.00,7.20 -9.70,13.34 -6.85,2.22 -15.69,-5.10 -4.23,-5.82" fill="#F97316" stroke="rgba(255,255,255,0.55)" stroke-width="1.4" /></g>
  </g>
</svg>
