<svg xmlns="http://www.w3.org/2000/svg" width="960" height="600" viewBox="0 0 960 600">
  <defs>
    <linearGradient id="bg129" x1="0%" y1="0%" x2="100%" y2="100%">
      <stop offset="0%" stop-color="#0F172A" />
      <stop offset="100%" stop-color="#1D4ED8" />
    </linearGradient>
    <filter id="shadow129" x="-20%" y="-20%" width="140%" height="140%">
      <feDropShadow dx="0" dy="2" stdDeviation="1.8" flood-color="rgba(0,0,0,0.36)" />
    </filter>
  </defs>

  <rect width="960" height="600" fill="url(#bg129)" />
  <rect x="24" y="24" width="912" height="552" rx="20" fill="rgba(255,255,255,0.045)" stroke="rgba(255,255,255,0.22)" />
  <g filter="url(#shadow129)">
    <g transform="translate(670.55 134.03) rotate(2.07)"><rect x="-15.70" y="-4.63" width="31.40" height="9.26" rx="4.63" fill="#FBBF24" /><rect x="-4.63" y="-15.70" width="9.26" height="31.40" rx="4.63" fill="#FBBF24" /></g>
    <g transform="translate(201.07 526.54) rotate(20.61)"><polygon points="0,-19.36 17.36,13.35 -17.36,13.35" fill="#F97316" stroke="rgba(255,255,255,0.55)" stroke-width="1.4" /></g>
    <g transform="translate(525.03 140.99) rotate(23.63)"><rect x="-14.84" y="-4.37" width="29.68" height="8.75" rx="4.37" fill="#A78BFA" /><rect x="-4.37" y="-14.84" width="8.75" height="29.68" rx="4.37" fill="#A78BFA" /></g>
    <g transform="translate(58.64 261.79) rotate(-4.65)"><rect x="-15.67" y="-4.62" width="31.34" height="9.24" rx="4.62" fill="#A78BFA" /><rect x="-4.62" y="-15.67" width="9.24" height="31.34" rx="4.62" fill="#A78BFA" /></g>
    <g transform="translate(750.60 531.80) rotate(3.93)"><polygon points="-18.76,-6.75 3.00,-6.75 3.00,-14.26 20.64,0.00 3.00,14.26 3.00,6.75 -18.76,6.75" fill="#F87171" stroke="rgba(255,255,255,0.55)" stroke-width="1.2" /></g>
    <g transform="translate(281.21 457.74) rotate(-7.81)"><polygon points="-16.27,-5.86 2.60,-5.86 2.60,-12.37 17.90,0.00 2.60,12.37 2.60,5.86 -16.27,5.86" fill="#4ADE80" stroke="rgba(255,255,255,0.55)" stroke-width="1.2" /></g>
    <g transform="translate(912.18 470.42) rotate(-27.11)"><polygon points="-20.85,-7.51 3.34,-7.51 3.34,-15.85 22.94,0.00 3.34,15.85 3.34,7.51 -20.85,7.51" fill="#A78BFA" stroke="rgba(255,255,255,0.55)" stroke-width="1.2" /></g>
    <g transform="translate(680.99 395.64) rotate(-24.76)"><rect x="-16.01" y="-4.72" width="32.01" height="9.44" rx="4.72" fill="#60A5FA" /><rect x="-4.72" y="-16.01" width="9.44" height="32.01" rx="4.72" fill="#60A5FA" /></g>
    <g transform="translate(760.22 329.85) rotate(-21.18)"><rect x="-17.69" y="-5.21" width="35.38" height="10.43" rx="5.21" fill="#4ADE80" /><rect x="-5.21" y="-17.69" width="10.43" height="35.38" rx="5.21" fill="#4ADE80" /></g>
    <g transform="translate(599.76 267.94) rotate(25.12)"><polygon points="0,-20.64 18.50,14.23 -18.50,14.23" fill="#FBBF24" stroke="rgba(255,255,255,0.55)" stroke-width="1.4" /></g>
    <g transform="translate(825.86 271.74) rotate(-12.98)"><rect x="-19.11" y="-5.63" width="38.22" height="11.27" rx="5.63" fill="#60A5FA" /><rect x="-5.63" y="-19.11" width="11.27" height="38.22" rx="5.63" fill="#60A5FA" /></g>
    <g transform="translate(290.14 275.08) rotate(-25.39)"><circle cx="0" cy="0" r="17.66" fill="#60A5FA" stroke="rgba(255,255,255,0.55)" stroke-width="1.4" /></g>
    <g transform="translate(135.37 129.99) rotate(-17.77)"><rect x="-15.83" y="-4.66" width="31.65" height="9.33" rx="4.66" fill="#FB7185" /><rect x="-4.66" y="-15.83" width="9.33" height="31.65" rx="4.66" fill="#FB7185" /></g>
    <g transform="translate(518.02 69.84) rotate(0.96)"><rect x="-13.41" y="-3.95" width="26.83" height="7.91" rx="3.95" fill="#F97316" /><rect x="-3.95" y="-13.41" width="7.91" height="26.83" rx="3.95" fill="#F97316" /></g>
    <g transform="translate(368.83 206.61) rotate(-26.41)"><polygon points="0,-21.01 18.84,14.49 -18.84,14.49" fill="#FB7185" stroke="rgba(255,255,255,0.55)" stroke-width="1.4" /></g>
    <g transform="translate(526.21 398.23) rotate(-17.46)"><circle cx="0" cy="0" r="15.50" fill="#F97316" stroke="rgba(255,255,255,0.55)" stroke-width="1.4" /></g>
    <g transform="translate(364.29 467.65) rotate(21.38)"><polygon points="0,-17.49 15.68,12.06 -15.68,12.06" fill="#F87171" stroke="rgba(255,255,255,0.55)" stroke-width="1.4" /></g>
    <g transform="translate(833.23 195.82) rotate(-15.27)"><circle cx="0" cy="0" r="14.66" fill="#60A5FA" stroke="rgba(255,255,255,0.55)" stroke-width="1.4" /></g>
    <g transform="translate(905.96 127.82) rotate(-26.78)"><rect x="-15.74" y="-4.64" width="31.48" height="9.28" rx="4.64" fill="#22D3EE" /><rect x="-4.64" y="-15.74" width="9.28" height="31.48" rx="4.64" fill="#22D3EE" /></g>
    <g transform="translate(436.16 139.42) rotate(2.93)"><polygon points="-20.29,-7.30 3.25,-7.30 3.25,-15.42 22.32,0.00 3.25,15.42 3.25,7.30 -20.29,7.30" fill="#FBBF24" stroke="rgba(255,255,255,0.55)" stroke-width="1.2" /></g>
    <g transform="translate(756.14 460.36) rotate(8.84)"><circle cx="0" cy="0" r="16.69" fill="#A78BFA" stroke="rgba(255,255,255,0.55)" stroke-width="1.4" /></g>
    <g transform="translate(54.16 197.25) rotate(26.96)"><rect x="-19.23" y="-5.67" width="38.46" height="11.33" rx="5.67" fill="#34D399" /><rect x="-5.67" y="-19.23" width="11.33" height="38.46" rx="5.67" fill="#34D399" /></g>
    <g transform="translate(357.26 535.72) rotate(-9.39)"><polygon points="0,-22.64 20.30,15.61 -20.30,15.61" fill="#34D399" stroke="rgba(255,255,255,0.55)" stroke-width="1.4" /></g>
    <g transform="translate(589.68 524.97) rotate(-2.93)"><rect x="-16.18" y="-4.77" width="32.36" height="9.54" rx="4.77" fill="#34D399" /><rect x="-4.77" y="-16.18" width="9.54" height="32.36" rx="4.77" fill="#34D399" /></g>
    <g transform="translate(445.15 195.37) rotate(-15.25)"><circle cx="0" cy="0" r="18.38" fill="#FB7185" stroke="rgba(255,255,255,0.55)" stroke-width="1.4" /></g>
    <g transform="translate(670.48 270.56) rotate(-14.11)"><rect x="-15.18" y="-4.47" width="30.36" height="8.95" rx="4.47" fill="#FB7185" /><rect x="-4.47" y="-15.18" width="8.95" height="30.36" rx="4.47" fill="#FB7185" /></g>
    <g transform="translate(680.84 63.54) rotate(0.59)"><polygon points="0,-16.18 14.50,11.16 -14.50,11.16" fill="#F97316" stroke="rgba(255,255,255,0.55)" stroke-width="1.4" /></g>
    <g transform="translate(199.75 62.64) rotate(21.38)"><polygon points="-14.72,-5.30 2.35,-5.30 2.35,-11.19 16.19,0.00 2.35,11.19 2.35,5.30 -14.72,5.30" fill="#4ADE80" stroke="rgba(255,255,255,0.55)" stroke-width="1.2" /></g>
    <g transform="translate(518.68 463.37) rotate(12.67)"><circle cx="0" cy="0" r="17.97" fill="#FBBF24" stroke="rgba(255,255,255,0.55)" stroke-width="1.4" /></g>
    <g transform="translate(909.66 200.28) rotate(-2.19)"><rect x="-16.66" y="-4.91" width="33.33" height="9.82" rx="4.91" fill="#FB7185" /><rect x="-4.91" y="-16.66" width="9.82" height="33.33" rx="4.91" fill="#FB7185" /></g>
    <g transform="translate(125.89 527.76) rotate(16.68)"><polygon points="-15.37,-5.53 2.46,-5.53 2.46,-11.68 16.91,0.00 2.46,11.68 2.46,5.53 -15.37,5.53" fill="#A78BFA" stroke="rgba(255,255,255,0.55)" stroke-width="1.2" /></g>
    <g transform="translate(279.19 73.66) rotate(-26.55)"><rect x="-19.11" y="-5.63" width="38.21" height="11.26" rx="5.63" fill="#FB7185" /><rect x="-5.63" y="-19.11" width="11.26" height="38.21" rx="5.63" fill="#FB7185" /></g>
    <g transform="translate(204.06 135.56) rotate(18.67)"><rect x="-18.62" y="-5.49" width="37.24" height="10.98" rx="5.49" fill="#A78BFA" /><rect x="-5.49" y="-18.62" width="10.98" height="37.24" rx="5.49" fill="#A78BFA" /></g>
    <g transform="translate(666.83 525.68) rotate(-17.88)"><rect x="-17.84" y="-5.26" width="35.68" height="10.52" rx="5.26" fill="#A78BFA" /><rect x="-5.26" y="-17.84" width="10.52" height="35.68" rx="5.26" fill="#A78BFA" /></g>
    <g transform="translate(526.82 262.84) rotate(15.48)"><rect x="-17.86" y="-5.27" width="35.73" height="10.53" rx="5.27" fill="#F87171" /><rect x="-5.27" y="-17.86" width="10.53" height="35.73" rx="5.27" fill="#F87171" /></g>
  </g>
</svg>
