<svg xmlns="http://www.w3.org/2000/svg" width="960" height="600" viewBox="0 0 960 600">
  <defs>
    <linearGradient id="bg156" x1="0%" y1="0%" x2="100%" y2="100%">
      <stop offset="0%" stop-color="#0F172A" />
      <stop offset="100%" stop-color="#1D4ED8" />
    </linearGradient>
    <filter id="shadow156" x="-20%" y="-20%" width="140%" height="140%">
      <feDropShadow dx="0" dy="2" stdDeviation="1.8" flood-color="rgba(0,0,0,0.36)" />
    </filter>
  </defs>

  <rect width="960" height="600" fill="url(#bg156)" />
  <rect x="24" y="24" width="912" height="552" rx="20" fill="rgba(255,255,255,0.045)" stroke="rgba(255,255,255,0.22)" />
  <g filter="url(#shadow156)">
    <g transform="translate(53.73 141.13) rotate(-0.84)"><circle cx="0" cy="0" r="18.59" fill="#60A5FA" stroke="rgba(255,255,255,0.55)" stroke-width="1.4" /><circle cx="-6.69" cy="-4.46" r="2.97" fill="#1F2937" /><circle cx="6.69" cy="-4.46" r="2.97" fill="#1F2937" /><path d="M -14.13 5.20 Q 0 12.64 14.13 5.20" fill="none" stroke="#1F2937" stroke-width="2.2" stroke-linecap="round" /></g>
    <g transform="translate(278.25 325.73) rotate(-1.11)"><circle cx="0" cy="0" r="18.16" fill="#60A5FA" stroke="rgba(255,255,255,0.55)" stroke-width="1.4" /><circle cx="-6.54" cy="-4.36" r="2.91" fill="#1F2937" /><circle cx="6.54" cy="-4.36" r="2.91" fill="#1F2937" /><path d="M -13.80 5.09 Q 0 12.35 13.80 5.09" fill="none" stroke="#1F2937" stroke-width="2.2" stroke-linecap="round" /></g>
    <g transform="translate(126.47 327.69) rotate(-25.35)"><polygon points="0,-17.34 15.54,11.96 -15.54,11.96" fill="#FBBF24" stroke="rgba(255,255,255,0.55)" stroke-width="1.4" /></g>
    <g transform="translate(900.44 536.01) rotate(1.88)"><polygon points="0,-20.35 20.35,0 0,20.35 -20.35,0" fill="#4ADE80" stroke="rgba(255,255,255,0.55)" stroke-width="1.4" /></g>
    <g transform="translate(671.97 69.62) rotate(-13.06)"><rect x="-15.66" y="-15.66" width="31.32" height="31.32" rx="3.40" fill="#C084FC" stroke="rgba(255,255,255,0.55)" stroke-width="1.4" /></g>
    <g transform="translate(751.40 206.06) rotate(3.81)"><polygon points="-17.38,-6.26 2.78,-6.26 2.78,-13.21 19.12,0.00 2.78,13.21 2.78,6.26 -17.38,6.26" fill="#22D3EE" stroke="rgba(255,255,255,0.55)" stroke-width="1.2" /></g>
    <g transform="translate(356.20 137.45) rotate(-5.69)"><circle cx="0" cy="0" r="16.78" fill="#F87171" stroke="rgba(255,255,255,0.55)" stroke-width="1.4" /><circle cx="-6.04" cy="-4.03" r="2.68" fill="#1F2937" /><circle cx="6.04" cy="-4.03" r="2.68" fill="#1F2937" /><path d="M -12.75 4.70 Q 0 11.41 12.75 4.70" fill="none" stroke="#1F2937" stroke-width="2.2" stroke-linecap="round" /></g>
    <g transform="translate(278.57 469.07) rotate(-10.22)"><polygon points="0,-18.00 18.00,0 0,18.00 -18.00,0" fill="#FBBF24" stroke="rgba(255,255,255,0.55)" stroke-width="1.4" /></g>
    <g transform="translate(368.65 458.00) rotate(7.58)"><circle cx="0" cy="0" r="20.41" fill="#C084FC" stroke="rgba(255,255,255,0.55)" stroke-width="1.4" /><circle cx="-7.35" cy="-4.90" r="3.27" fill="#1F2937" /><circle cx="7.35" cy="-4.90" r="3.27" fill="#1F2937" /><path d="M -15.51 5.71 Q 0 13.88 15.51 5.71" fill="none" stroke="#1F2937" stroke-width="2.2" stroke-linecap="round" /></g>
    <g transform="translate(278.55 400.46) rotate(5.35)"><polygon points="0,-20.11 20.11,0 0,20.11 -20.11,0" fill="#FBBF24" stroke="rgba(255,255,255,0.55)" stroke-width="1.4" /></g>
    <g transform="translate(444.39 129.06) rotate(-6.17)"><circle cx="0" cy="0" r="17.32" fill="#C084FC" stroke="rgba(255,255,255,0.55)" stroke-width="1.4" /><circle cx="-6.23" cy="-4.16" r="2.77" fill="#1F2937" /><circle cx="6.23" cy="-4.16" r="2.77" fill="#1F2937" /><path d="M -13.16 4.85 Q 0 11.78 13.16 4.85" fill="none" stroke="#1F2937" stroke-width="2.2" stroke-linecap="round" /></g>
    <g transform="translate(435.25 466.15) rotate(6.23)"><circle cx="0" cy="0" r="20.73" fill="#F97316" stroke="rgba(255,255,255,0.55)" stroke-width="1.4" /><circle cx="-7.46" cy="-4.98" r="3.32" fill="#1F2937" /><circle cx="7.46" cy="-4.98" r="3.32" fill="#1F2937" /><path d="M -15.76 5.81 Q 0 14.10 15.76 5.81" fill="none" stroke="#1F2937" stroke-width="2.2" stroke-linecap="round" /></g>
    <g transform="translate(56.52 461.09) rotate(-1.19)"><polygon points="0,-20.48 18.36,14.12 -18.36,14.12" fill="#60A5FA" stroke="rgba(255,255,255,0.55)" stroke-width="1.4" /></g>
    <g transform="translate(438.12 68.86) rotate(-1.35)"><circle cx="0" cy="0" r="19.84" fill="#60A5FA" stroke="rgba(255,255,255,0.55)" stroke-width="1.4" /><circle cx="-7.14" cy="-4.76" r="3.17" fill="#1F2937" /><circle cx="7.14" cy="-4.76" r="3.17" fill="#1F2937" /><path d="M -15.08 5.56 Q 0 13.49 15.08 5.56" fill="none" stroke="#1F2937" stroke-width="2.2" stroke-linecap="round" /></g>
    <g transform="translate(437.25 201.26) rotate(18.90)"><polygon points="0,-19.97 19.97,0 0,19.97 -19.97,0" fill="#60A5FA" stroke="rgba(255,255,255,0.55)" stroke-width="1.4" /></g>
    <g transform="translate(677.72 327.39) rotate(7.12)"><polygon points="-16.30,-5.87 2.61,-5.87 2.61,-12.38 17.93,0.00 2.61,12.38 2.61,5.87 -16.30,5.87" fill="#F97316" stroke="rgba(255,255,255,0.55)" stroke-width="1.2" /></g>
    <g transform="translate(836.02 64.52) rotate(-14.86)"><polygon points="-14.66,-5.28 2.35,-5.28 2.35,-11.14 16.12,0.00 2.35,11.14 2.35,5.28 -14.66,5.28" fill="#22D3EE" stroke="rgba(255,255,255,0.55)" stroke-width="1.2" /></g>
    <g transform="translate(746.66 132.34) rotate(-22.35)"><polygon points="-17.74,-6.39 2.84,-6.39 2.84,-13.48 19.52,0.00 2.84,13.48 2.84,6.39 -17.74,6.39" fill="#22D3EE" stroke="rgba(255,255,255,0.55)" stroke-width="1.2" /></g>
  </g>
</svg>
