<svg xmlns="http://www.w3.org/2000/svg" width="960" height="600" viewBox="0 0 960 600">
  <defs>
    <linearGradient id="bg16" x1="0%" y1="0%" x2="100%" y2="100%">
      <stop offset="0%" stop-color="#0F172A" />
      <stop offset="100%" stop-color="#1D4ED8" />
    </linearGradient>
    <filter id="shadow16" x="-20%" y="-20%" width="140%" height="140%">
      <feDropShadow dx="0" dy="2" stdDeviation="1.8" flood-color="rgba(0,0,0,0.36)" />
    </filter>
  </defs>

  <rect width="960" height="600" fill="url(#bg16)" />
  <rect x="24" y="24" width="912" height="552" rx="20" fill="rgba(255,255,255,0.045)" stroke="rgba(255,255,255,0.22)" />
  <g filter="url(#shadow16)">
    <g transform="translate(289.67 391.70) rotate(-12.75)"><polygon points="0,-20.71 18.57,14.28 -18.57,14.28" fill="#C084FC" stroke="rgba(255,255,255,0.55)" stroke-width="1.4" /></g>
    <g transform="translate(288.23 537.89) rotate(-26.25)"><rect x="-16.53" y="-16.53" width="33.07" height="33.07" rx="3.59" fill="#F87171" stroke="rgba(255,255,255,0.55)" stroke-width="1.4" /></g>
    <g transform="translate(681.49 135.25) rotate(10.67)"><rect x="-18.10" y="-18.10" width="36.20" height="36.20" rx="3.93" fill="#FBBF24" stroke="rgba(255,255,255,0.55)" stroke-width="1.4" /></g>
    <g transform="translate(914.13 261.32) rotate(-7.94)"><polygon points="0,-20.35 18.25,14.04 -18.25,14.04" fill="#A78BFA" stroke="rgba(255,255,255,0.55)" stroke-width="1.4" /></g>
    <g transform="translate(670.60 260.97) rotate(15.70)"><rect x="-12.95" y="-12.95" width="25.90" height="25.90" rx="2.81" fill="#C084FC" stroke="rgba(255,255,255,0.55)" stroke-width="1.4" /></g>
    <g transform="translate(678.42 465.06) rotate(-0.05)"><circle cx="0" cy="0" r="18.51" fill="#A78BFA" stroke="rgba(255,255,255,0.55)" stroke-width="1.4" /><circle cx="-6.66" cy="-4.44" r="2.96" fill="#1F2937" /><circle cx="6.66" cy="-4.44" r="2.96" fill="#1F2937" /><path d="M -14.07 5.18 Q 0 12.59 14.07 5.18" fill="none" stroke="#1F2937" stroke-width="2.2" stroke-linecap="round" /></g>
    <g transform="translate(445.75 268.83) rotate(7.08)"><circle cx="0" cy="0" r="15.12" fill="#4ADE80" stroke="rgba(255,255,255,0.55)" stroke-width="1.4" /><circle cx="-5.44" cy="-3.63" r="2.42" fill="#1F2937" /><circle cx="5.44" cy="-3.63" r="2.42" fill="#1F2937" /><path d="M -11.49 4.23 Q 0 10.28 11.49 4.23" fill="none" stroke="#1F2937" stroke-width="2.2" stroke-linecap="round" /></g>
    <g transform="translate(212.08 529.93) rotate(21.78)"><polygon points="0.00,-17.06 4.38,-6.02 16.23,-5.27 7.08,2.30 10.03,13.80 0.00,7.45 -10.03,13.80 -7.08,2.30 -16.23,-5.27 -4.38,-6.02" fill="#A78BFA" stroke="rgba(255,255,255,0.55)" stroke-width="1.4" /></g>
    <g transform="translate(513.29 327.53) rotate(3.87)"><polygon points="0,-15.70 14.08,10.83 -14.08,10.83" fill="#A78BFA" stroke="rgba(255,255,255,0.55)" stroke-width="1.4" /></g>
    <g transform="translate(437.01 536.52) rotate(-10.42)"><polygon points="0.00,-18.76 4.81,-6.62 17.84,-5.80 7.79,2.53 11.03,15.18 0.00,8.19 -11.03,15.18 -7.79,2.53 -17.84,-5.80 -4.81,-6.62" fill="#F97316" stroke="rgba(255,255,255,0.55)" stroke-width="1.4" /></g>
    <g transform="translate(213.66 132.34) rotate(-25.34)"><polygon points="0,-20.98 18.81,14.47 -18.81,14.47" fill="#F87171" stroke="rgba(255,255,255,0.55)" stroke-width="1.4" /></g>
    <g transform="translate(678.14 332.55) rotate(-25.52)"><polygon points="0,-22.00 19.72,15.17 -19.72,15.17" fill="#FB7185" stroke="rgba(255,255,255,0.55)" stroke-width="1.4" /></g>
    <g transform="translate(285.26 272.49) rotate(-6.30)"><circle cx="0" cy="0" r="18.68" fill="#C084FC" stroke="rgba(255,255,255,0.55)" stroke-width="1.4" /><circle cx="-6.72" cy="-4.48" r="2.99" fill="#1F2937" /><circle cx="6.72" cy="-4.48" r="2.99" fill="#1F2937" /><path d="M -14.20 5.23 Q 0 12.70 14.20 5.23" fill="none" stroke="#1F2937" stroke-width="2.2" stroke-linecap="round" /></g>
    <g transform="translate(911.21 526.60) rotate(-17.78)"><polygon points="0.00,-22.82 5.85,-8.06 21.70,-7.05 9.47,3.08 13.41,18.46 0.00,9.96 -13.41,18.46 -9.47,3.08 -21.70,-7.05 -5.85,-8.06" fill="#34D399" stroke="rgba(255,255,255,0.55)" stroke-width="1.4" /></g>
    <g transform="translate(355.71 136.55) rotate(0.08)"><circle cx="0" cy="0" r="19.48" fill="#F97316" stroke="rgba(255,255,255,0.55)" stroke-width="1.4" /><circle cx="-7.01" cy="-4.68" r="3.12" fill="#1F2937" /><circle cx="7.01" cy="-4.68" r="3.12" fill="#1F2937" /><path d="M -14.81 5.45 Q 0 13.25 14.81 5.45" fill="none" stroke="#1F2937" stroke-width="2.2" stroke-linecap="round" /></g>
    <g transform="translate(437.31 335.64) rotate(-20.64)"><polygon points="0,-18.23 16.34,12.57 -16.34,12.57" fill="#A78BFA" stroke="rgba(255,255,255,0.55)" stroke-width="1.4" /></g>
    <g transform="translate(435.13 64.63) rotate(8.17)"><rect x="-17.35" y="-17.35" width="34.71" height="34.71" rx="3.77" fill="#A78BFA" stroke="rgba(255,255,255,0.55)" stroke-width="1.4" /></g>
    <g transform="translate(522.93 63.35) rotate(21.56)"><polygon points="0.00,-22.90 5.87,-8.09 21.78,-7.08 9.51,3.09 13.46,18.53 0.00,9.99 -13.46,18.53 -9.51,3.09 -21.78,-7.08 -5.87,-8.09" fill="#A78BFA" stroke="rgba(255,255,255,0.55)" stroke-width="1.4" /></g>
    <g transform="translate(826.52 66.59) rotate(3.02)"><polygon points="0,-21.94 19.67,15.13 -19.67,15.13" fill="#FB7185" stroke="rgba(255,255,255,0.55)" stroke-width="1.4" /></g>
    <g transform="translate(434.43 142.08) rotate(-4.92)"><circle cx="0" cy="0" r="15.09" fill="#F97316" stroke="rgba(255,255,255,0.55)" stroke-width="1.4" /><circle cx="-5.43" cy="-3.62" r="2.41" fill="#1F2937" /><circle cx="5.43" cy="-3.62" r="2.41" fill="#1F2937" /><path d="M -11.47 4.23 Q 0 10.26 11.47 4.23" fill="none" stroke="#1F2937" stroke-width="2.2" stroke-linecap="round" /></g>
    <g transform="translate(603.58 63.61) rotate(11.57)"><rect x="-15.36" y="-15.36" width="30.72" height="30.72" rx="3.34" fill="#22D3EE" stroke="rgba(255,255,255,0.55)" stroke-width="1.4" /></g>
    <g transform="translate(822.44 135.82) rotate(-24.87)"><polygon points="0,-16.20 14.52,11.17 -14.52,11.17" fill="#34D399" stroke="rgba(255,255,255,0.55)" stroke-width="1.4" /></g>
  </g>
</svg>
