<svg xmlns="http://www.w3.org/2000/svg" width="960" height="600" viewBox="0 0 960 600">
  <defs>
    <linearGradient id="bg184" x1="0%" y1="0%" x2="100%" y2="100%">
      <stop offset="0%" stop-color="#0F172A" />
      <stop offset="100%" stop-color="#1D4ED8" />
    </linearGradient>
    <filter id="shadow184" x="-20%" y="-20%" width="140%" height="140%">
      <feDropShadow dx="0" dy="2" stdDeviation="1.8" flood-color="rgba(0,0,0,0.36)" />
    </filter>
  </defs>

  <rect width="960" height="600" fill="url(#bg184)" />
  <rect x="24" y="24" width="912" height="552" rx="20" fill="rgba(255,255,255,0.045)" stroke="rgba(255,255,255,0.22)" />
  <g filter="url(#shadow184)">
    <g transform="translate(208.64 399.82) rotate(2.03)"><circle cx="0" cy="0" r="14.54" fill="#22D3EE" /><circle cx="5.82" cy="-0.58" r="12.22" fill="#0B1A34" /></g>
    <g transform="translate(834.51 132.42) rotate(-17.20)"><polygon points="0.00,-20.28 5.20,-7.16 19.29,-6.27 8.42,2.74 11.92,16.41 0.00,8.85 -11.92,16.41 -8.42,2.74 -19.29,-6.27 -5.20,-7.16" fill="#F97316" stroke="rgba(255,255,255,0.55)" stroke-width="1.4" /></g>
    <g transform="translate(363.94 526.55) rotate(-6.70)"><circle cx="0" cy="0" r="17.98" fill="#FBBF24" /><circle cx="7.19" cy="-0.72" r="15.10" fill="#0B1A34" /></g>
    <g transform="translate(518.65 530.33) rotate(6.34)"><polygon points="0,-15.23 15.23,0 0,15.23 -15.23,0" fill="#C084FC" stroke="rgba(255,255,255,0.55)" stroke-width="1.4" /></g>
    <g transform="translate(524.75 334.85) rotate(0.47)"><circle cx="0" cy="0" r="14.67" fill="#60A5FA" stroke="rgba(255,255,255,0.55)" stroke-width="1.4" /></g>
    <g transform="translate(832.54 469.36) rotate(20.91)"><polygon points="0,-18.56 18.56,0 0,18.56 -18.56,0" fill="#C084FC" stroke="rgba(255,255,255,0.55)" stroke-width="1.4" /></g>
    <g transform="translate(601.20 331.55) rotate(-14.12)"><polygon points="0.00,-19.07 4.89,-6.73 18.14,-5.89 7.92,2.57 11.21,15.43 0.00,8.32 -11.21,15.43 -7.92,2.57 -18.14,-5.89 -4.89,-6.73" fill="#FBBF24" stroke="rgba(255,255,255,0.55)" stroke-width="1.4" /></g>
    <g transform="translate(522.87 396.44) rotate(23.55)"><circle cx="0" cy="0" r="18.60" fill="#4ADE80" stroke="rgba(255,255,255,0.55)" stroke-width="1.4" /></g>
    <g transform="translate(206.29 130.36) rotate(9.11)"><polygon points="0.00,-15.98 4.10,-5.64 15.20,-4.94 6.63,2.16 9.40,12.93 0.00,6.98 -9.40,12.93 -6.63,2.16 -15.20,-4.94 -4.10,-5.64" fill="#FB7185" stroke="rgba(255,255,255,0.55)" stroke-width="1.4" /></g>
    <g transform="translate(914.75 340.01) rotate(-19.69)"><polygon points="0,-17.10 17.10,0 0,17.10 -17.10,0" fill="#FBBF24" stroke="rgba(255,255,255,0.55)" stroke-width="1.4" /></g>
    <g transform="translate(749.39 130.26) rotate(-19.54)"><polygon points="0.00,-21.58 5.54,-7.62 20.53,-6.67 8.96,2.91 12.69,17.46 0.00,9.42 -12.69,17.46 -8.96,2.91 -20.53,-6.67 -5.54,-7.62" fill="#F87171" stroke="rgba(255,255,255,0.55)" stroke-width="1.4" /></g>
    <g transform="translate(292.15 74.48) rotate(-20.84)"><polygon points="0,-17.23 17.23,0 0,17.23 -17.23,0" fill="#60A5FA" stroke="rgba(255,255,255,0.55)" stroke-width="1.4" /></g>
    <g transform="translate(759.15 391.90) rotate(1.06)"><circle cx="0" cy="0" r="15.45" fill="#60A5FA" /><circle cx="6.18" cy="-0.62" r="12.98" fill="#0B1A34" /></g>
    <g transform="translate(602.99 71.49) rotate(17.55)"><circle cx="0" cy="0" r="19.45" fill="#4ADE80" stroke="rgba(255,255,255,0.55)" stroke-width="1.4" /></g>
    <g transform="translate(371.03 76.12) rotate(-0.02)"><circle cx="0" cy="0" r="14.02" fill="#FBBF24" /><circle cx="5.61" cy="-0.56" r="11.78" fill="#0B1A34" /></g>
    <g transform="translate(915.15 143.03) rotate(-10.52)"><circle cx="0" cy="0" r="15.07" fill="#A78BFA" stroke="rgba(255,255,255,0.55)" stroke-width="1.4" /></g>
  </g>
</svg>
