<svg xmlns="http://www.w3.org/2000/svg" width="960" height="600" viewBox="0 0 960 600">
  <defs>
    <linearGradient id="bg94" x1="0%" y1="0%" x2="100%" y2="100%">
      <stop offset="0%" stop-color="#0F172A" />
      <stop offset="100%" stop-color="#1D4ED8" />
    </linearGradient>
    <filter id="shadow94" x="-20%" y="-20%" width="140%" height="140%">
      <feDropShadow dx="0" dy="2" stdDeviation="1.8" flood-color="rgba(0,0,0,0.36)" />
    </filter>
  </defs>

  <rect width="960" height="600" fill="url(#bg94)" />
  <rect x="24" y="24" width="912" height="552" rx="20" fill="rgba(255,255,255,0.045)" stroke="rgba(255,255,255,0.22)" />
  <g filter="url(#shadow94)">
    <g transform="translate(514.85 333.21) rotate(-2.24)"><circle cx="0" cy="0" r="17.89" fill="#FBBF24" stroke="rgba(255,255,255,0.55)" stroke-width="1.4" /></g>
    <g transform="translate(214.70 76.95) rotate(-13.66)"><polygon points="0,-21.39 19.17,14.75 -19.17,14.75" fill="#34D399" stroke="rgba(255,255,255,0.55)" stroke-width="1.4" /></g>
    <g transform="translate(671.75 129.51) rotate(25.88)"><rect x="-14.22" y="-4.19" width="28.44" height="8.38" rx="4.19" fill="#A78BFA" /><rect x="-4.19" y="-14.22" width="8.38" height="28.44" rx="4.19" fill="#A78BFA" /></g>
    <g transform="translate(46.49 201.71) rotate(-4.82)"><circle cx="0" cy="0" r="15.78" fill="#A78BFA" stroke="rgba(255,255,255,0.55)" stroke-width="1.4" /></g>
    <g transform="translate(445.91 209.06) rotate(-23.54)"><rect x="-18.23" y="-18.23" width="36.46" height="36.46" rx="3.96" fill="#C084FC" stroke="rgba(255,255,255,0.55)" stroke-width="1.4" /></g>
    <g transform="translate(367.81 395.44) rotate(5.87)"><circle cx="0" cy="0" r="20.90" fill="#60A5FA" stroke="rgba(255,255,255,0.55)" stroke-width="1.4" /></g>
    <g transform="translate(512.68 395.75) rotate(7.84)"><circle cx="0" cy="0" r="15.64" fill="#FB7185" /><circle cx="6.25" cy="-0.63" r="13.13" fill="#0B1A34" /></g>
    <g transform="translate(828.91 524.39) rotate(-26.41)"><polygon points="0,-16.34 14.65,11.27 -14.65,11.27" fill="#F97316" stroke="rgba(255,255,255,0.55)" stroke-width="1.4" /></g>
    <g transform="translate(202.95 469.43) rotate(13.07)"><circle cx="0" cy="0" r="19.59" fill="#60A5FA" stroke="rgba(255,255,255,0.55)" stroke-width="1.4" /></g>
    <g transform="translate(214.33 525.98) rotate(3.32)"><circle cx="0" cy="0" r="15.65" fill="#22D3EE" stroke="rgba(255,255,255,0.55)" stroke-width="1.4" /><circle cx="-5.63" cy="-3.76" r="2.50" fill="#1F2937" /><circle cx="5.63" cy="-3.76" r="2.50" fill="#1F2937" /><path d="M -11.89 4.38 Q 0 10.64 11.89 4.38" fill="none" stroke="#1F2937" stroke-width="2.2" stroke-linecap="round" /></g>
    <g transform="translate(448.53 272.66) rotate(-19.55)"><circle cx="0" cy="0" r="18.15" fill="#4ADE80" stroke="rgba(255,255,255,0.55)" stroke-width="1.4" /></g>
    <g transform="translate(215.40 130.15) rotate(24.72)"><circle cx="0" cy="0" r="17.15" fill="#F87171" stroke="rgba(255,255,255,0.55)" stroke-width="1.4" /></g>
    <g transform="translate(286.14 528.11) rotate(18.63)"><rect x="-13.98" y="-4.12" width="27.96" height="8.24" rx="4.12" fill="#F97316" /><rect x="-4.12" y="-13.98" width="8.24" height="27.96" rx="4.12" fill="#F97316" /></g>
    <g transform="translate(357.54 336.03) rotate(-5.67)"><circle cx="0" cy="0" r="15.20" fill="#4ADE80" /><circle cx="6.08" cy="-0.61" r="12.77" fill="#0B1A34" /></g>
    <g transform="translate(440.33 406.31) rotate(-11.64)"><circle cx="0" cy="0" r="19.11" fill="#F87171" stroke="rgba(255,255,255,0.55)" stroke-width="1.4" /></g>
    <g transform="translate(598.53 462.16) rotate(-12.77)"><rect x="-15.42" y="-4.55" width="30.85" height="9.09" rx="4.55" fill="#C084FC" /><rect x="-4.55" y="-15.42" width="9.09" height="30.85" rx="4.55" fill="#C084FC" /></g>
    <g transform="translate(758.20 198.75) rotate(-2.34)"><circle cx="0" cy="0" r="14.77" fill="#C084FC" stroke="rgba(255,255,255,0.55)" stroke-width="1.4" /><circle cx="-5.32" cy="-3.54" r="2.36" fill="#1F2937" /><circle cx="5.32" cy="-3.54" r="2.36" fill="#1F2937" /><path d="M -11.22 4.13 Q 0 10.04 11.22 4.13" fill="none" stroke="#1F2937" stroke-width="2.2" stroke-linecap="round" /></g>
    <g transform="translate(515.62 528.03) rotate(-4.34)"><circle cx="0" cy="0" r="18.75" fill="#22D3EE" /><circle cx="7.50" cy="-0.75" r="15.75" fill="#0B1A34" /></g>
    <g transform="translate(131.47 62.48) rotate(-23.18)"><rect x="-13.54" y="-13.54" width="27.09" height="27.09" rx="2.94" fill="#C084FC" stroke="rgba(255,255,255,0.55)" stroke-width="1.4" /></g>
    <g transform="translate(746.65 404.68) rotate(-17.53)"><rect x="-16.70" y="-4.92" width="33.40" height="9.84" rx="4.92" fill="#FBBF24" /><rect x="-4.92" y="-16.70" width="9.84" height="33.40" rx="4.92" fill="#FBBF24" /></g>
    <g transform="translate(828.82 462.62) rotate(-11.20)"><polygon points="0,-21.18 18.99,14.60 -18.99,14.60" fill="#4ADE80" stroke="rgba(255,255,255,0.55)" stroke-width="1.4" /></g>
    <g transform="translate(595.69 327.30) rotate(26.57)"><polygon points="0.00,-19.83 5.09,-7.00 18.86,-6.13 8.23,2.67 11.65,16.04 0.00,8.65 -11.65,16.04 -8.23,2.67 -18.86,-6.13 -5.09,-7.00" fill="#22D3EE" stroke="rgba(255,255,255,0.55)" stroke-width="1.4" /></g>
    <g transform="translate(598.85 536.08) rotate(-17.25)"><circle cx="0" cy="0" r="19.27" fill="#22D3EE" stroke="rgba(255,255,255,0.55)" stroke-width="1.4" /></g>
    <g transform="translate(836.43 75.73) rotate(-19.91)"><rect x="-14.88" y="-14.88" width="29.76" height="29.76" rx="3.24" fill="#22D3EE" stroke="rgba(255,255,255,0.55)" stroke-width="1.4" /></g>
    <g transform="translate(673.87 265.26) rotate(18.87)"><circle cx="0" cy="0" r="14.88" fill="#34D399" stroke="rgba(255,255,255,0.55)" stroke-width="1.4" /></g>
    <g transform="translate(673.50 205.40) rotate(20.86)"><circle cx="0" cy="0" r="16.22" fill="#22D3EE" stroke="rgba(255,255,255,0.55)" stroke-width="1.4" /></g>
    <g transform="translate(443.87 536.45) rotate(21.72)"><rect x="-13.71" y="-13.71" width="27.41" height="27.41" rx="2.98" fill="#60A5FA" stroke="rgba(255,255,255,0.55)" stroke-width="1.4" /></g>
  </g>
</svg>
