<svg xmlns="http://www.w3.org/2000/svg" width="960" height="600" viewBox="0 0 960 600">
  <defs>
    <linearGradient id="bg117" x1="0%" y1="0%" x2="100%" y2="100%">
      <stop offset="0%" stop-color="#0F172A" />
      <stop offset="100%" stop-color="#1D4ED8" />
    </linearGradient>
    <filter id="shadow117" x="-20%" y="-20%" width="140%" height="140%">
      <feDropShadow dx="0" dy="2" stdDeviation="1.8" flood-color="rgba(0,0,0,0.36)" />
    </filter>
  </defs>

  <rect width="960" height="600" fill="url(#bg117)" />
  <rect x="24" y="24" width="912" height="552" rx="20" fill="rgba(255,255,255,0.045)" stroke="rgba(255,255,255,0.22)" />
  <g filter="url(#shadow117)">
    <g transform="translate(517.95 73.34) rotate(-9.46)"><rect x="-16.86" y="-4.97" width="33.72" height="9.94" rx="4.97" fill="#A78BFA" /><rect x="-4.97" y="-16.86" width="9.94" height="33.72" rx="4.97" fill="#A78BFA" /></g>
    <g transform="translate(592.27 62.32) rotate(17.24)"><circle cx="0" cy="0" r="14.36" fill="#22D3EE" stroke="rgba(255,255,255,0.55)" stroke-width="1.4" /></g>
    <g transform="translate(448.33 205.50) rotate(-23.44)"><polygon points="-18.40,-6.62 2.94,-6.62 2.94,-13.98 20.23,0.00 2.94,13.98 2.94,6.62 -18.40,6.62" fill="#4ADE80" stroke="rgba(255,255,255,0.55)" stroke-width="1.2" /></g>
    <g transform="translate(524.15 137.17) rotate(22.53)"><rect x="-17.96" y="-5.29" width="35.91" height="10.58" rx="5.29" fill="#22D3EE" /><rect x="-5.29" y="-17.96" width="10.58" height="35.91" rx="5.29" fill="#22D3EE" /></g>
    <g transform="translate(366.47 64.87) rotate(-8.46)"><circle cx="0" cy="0" r="18.58" fill="#A78BFA" stroke="rgba(255,255,255,0.55)" stroke-width="1.4" /></g>
    <g transform="translate(524.12 404.08) rotate(26.05)"><rect x="-18.23" y="-5.37" width="36.45" height="10.74" rx="5.37" fill="#34D399" /><rect x="-5.37" y="-18.23" width="10.74" height="36.45" rx="5.37" fill="#34D399" /></g>
    <g transform="translate(747.56 534.88) rotate(-16.55)"><rect x="-18.61" y="-5.49" width="37.23" height="10.97" rx="5.49" fill="#C084FC" /><rect x="-5.49" y="-18.61" width="10.97" height="37.23" rx="5.49" fill="#C084FC" /></g>
    <g transform="translate(526.06 273.40) rotate(15.06)"><polygon points="-14.28,-5.14 2.28,-5.14 2.28,-10.85 15.71,0.00 2.28,10.85 2.28,5.14 -14.28,5.14" fill="#4ADE80" stroke="rgba(255,255,255,0.55)" stroke-width="1.2" /></g>
    <g transform="translate(58.49 64.98) rotate(-27.70)"><polygon points="-16.53,-5.95 2.65,-5.95 2.65,-12.57 18.19,0.00 2.65,12.57 2.65,5.95 -16.53,5.95" fill="#34D399" stroke="rgba(255,255,255,0.55)" stroke-width="1.2" /></g>
    <g transform="translate(200.08 459.92) rotate(-18.95)"><polygon points="0.00,-19.62 5.03,-6.93 18.66,-6.06 8.14,2.65 11.53,15.87 0.00,8.56 -11.53,15.87 -8.14,2.65 -18.66,-6.06 -5.03,-6.93" fill="#F97316" stroke="rgba(255,255,255,0.55)" stroke-width="1.4" /></g>
    <g transform="translate(278.57 262.25) rotate(-24.45)"><rect x="-16.58" y="-4.89" width="33.16" height="9.77" rx="4.89" fill="#C084FC" /><rect x="-4.89" y="-16.58" width="9.77" height="33.16" rx="4.89" fill="#C084FC" /></g>
    <g transform="translate(836.85 406.38) rotate(6.65)"><rect x="-18.44" y="-5.44" width="36.89" height="10.87" rx="5.44" fill="#FB7185" /><rect x="-5.44" y="-18.44" width="10.87" height="36.89" rx="5.44" fill="#FB7185" /></g>
    <g transform="translate(910.68 331.45) rotate(22.71)"><polygon points="-16.60,-5.98 2.66,-5.98 2.66,-12.62 18.26,0.00 2.66,12.62 2.66,5.98 -16.60,5.98" fill="#FB7185" stroke="rgba(255,255,255,0.55)" stroke-width="1.2" /></g>
    <g transform="translate(364.11 469.91) rotate(-18.54)"><polygon points="-18.15,-6.53 2.90,-6.53 2.90,-13.79 19.96,0.00 2.90,13.79 2.90,6.53 -18.15,6.53" fill="#34D399" stroke="rgba(255,255,255,0.55)" stroke-width="1.2" /></g>
    <g transform="translate(603.10 402.25) rotate(-1.05)"><circle cx="0" cy="0" r="18.68" fill="#34D399" stroke="rgba(255,255,255,0.55)" stroke-width="1.4" /><circle cx="-6.72" cy="-4.48" r="2.99" fill="#1F2937" /><circle cx="6.72" cy="-4.48" r="2.99" fill="#1F2937" /><path d="M -14.19 5.23 Q 0 12.70 14.19 5.23" fill="none" stroke="#1F2937" stroke-width="2.2" stroke-linecap="round" /></g>
    <g transform="translate(205.56 131.82) rotate(-24.79)"><polygon points="0.00,-19.22 4.93,-6.78 18.28,-5.94 7.97,2.59 11.29,15.55 0.00,8.38 -11.29,15.55 -7.97,2.59 -18.28,-5.94 -4.93,-6.78" fill="#60A5FA" stroke="rgba(255,255,255,0.55)" stroke-width="1.4" /></g>
    <g transform="translate(913.32 201.73) rotate(-23.31)"><polygon points="0.00,-22.15 5.68,-7.82 21.07,-6.85 9.19,2.99 13.02,17.92 0.00,9.67 -13.02,17.92 -9.19,2.99 -21.07,-6.85 -5.68,-7.82" fill="#34D399" stroke="rgba(255,255,255,0.55)" stroke-width="1.4" /></g>
  </g>
</svg>
