<svg xmlns="http://www.w3.org/2000/svg" width="960" height="600" viewBox="0 0 960 600">
  <defs>
    <linearGradient id="bg125" x1="0%" y1="0%" x2="100%" y2="100%">
      <stop offset="0%" stop-color="#0F172A" />
      <stop offset="100%" stop-color="#1D4ED8" />
    </linearGradient>
    <filter id="shadow125" x="-20%" y="-20%" width="140%" height="140%">
      <feDropShadow dx="0" dy="2" stdDeviation="1.8" flood-color="rgba(0,0,0,0.36)" />
    </filter>
  </defs>

  <rect width="960" height="600" fill="url(#bg125)" />
  <rect x="24" y="24" width="912" height="552" rx="20" fill="rgba(255,255,255,0.045)" stroke="rgba(255,255,255,0.22)" />
  <g filter="url(#shadow125)">
    <g transform="translate(287.19 264.43) rotate(17.40)"><path d="M 0 16.58 C -21.71 1.97, -23.68 -13.81, -9.47 -3.16 C -0.79 -16.58, 0.79 -16.58, 9.47 -3.16 C 23.68 -13.81, 21.71 1.97, 0 16.58 Z" fill="#F87171" stroke="rgba(255,255,255,0.55)" stroke-width="1.2" /></g>
    <g transform="translate(913.80 394.58) rotate(-2.20)"><circle cx="0" cy="0" r="18.02" fill="#FB7185" stroke="rgba(255,255,255,0.55)" stroke-width="1.4" /></g>
    <g transform="translate(369.75 74.89) rotate(-15.18)"><path d="M 0 11.97 C -15.67 1.42, -17.10 -9.97, -6.84 -2.28 C -0.57 -11.97, 0.57 -11.97, 6.84 -2.28 C 17.10 -9.97, 15.67 1.42, 0 11.97 Z" fill="#60A5FA" stroke="rgba(255,255,255,0.55)" stroke-width="1.2" /></g>
    <g transform="translate(45.55 465.79) rotate(-7.79)"><circle cx="0" cy="0" r="15.10" fill="#A78BFA" /><circle cx="6.04" cy="-0.60" r="12.68" fill="#0B1A34" /></g>
    <g transform="translate(360.82 196.44) rotate(8.81)"><path d="M 0 16.35 C -21.41 1.95, -23.35 -13.62, -9.34 -3.11 C -0.78 -16.35, 0.78 -16.35, 9.34 -3.11 C 23.35 -13.62, 21.41 1.95, 0 16.35 Z" fill="#22D3EE" stroke="rgba(255,255,255,0.55)" stroke-width="1.2" /></g>
    <g transform="translate(207.30 394.59) rotate(-8.88)"><rect x="-14.79" y="-4.36" width="29.58" height="8.72" rx="4.36" fill="#F87171" /><rect x="-4.36" y="-14.79" width="8.72" height="29.58" rx="4.36" fill="#F87171" /></g>
    <g transform="translate(911.90 70.30) rotate(-27.98)"><circle cx="0" cy="0" r="16.15" fill="#FBBF24" stroke="rgba(255,255,255,0.55)" stroke-width="1.4" /></g>
    <g transform="translate(522.37 132.71) rotate(21.40)"><path d="M 0 16.94 C -22.18 2.02, -24.19 -14.11, -9.68 -3.23 C -0.81 -16.94, 0.81 -16.94, 9.68 -3.23 C 24.19 -14.11, 22.18 2.02, 0 16.94 Z" fill="#FBBF24" stroke="rgba(255,255,255,0.55)" stroke-width="1.2" /></g>
    <g transform="translate(601.49 338.98) rotate(23.31)"><path d="M 0 17.54 C -22.97 2.09, -25.06 -14.62, -10.02 -3.34 C -0.84 -17.54, 0.84 -17.54, 10.02 -3.34 C 25.06 -14.62, 22.97 2.09, 0 17.54 Z" fill="#FBBF24" stroke="rgba(255,255,255,0.55)" stroke-width="1.2" /></g>
    <g transform="translate(907.87 264.97) rotate(-3.42)"><path d="M 0 17.53 C -22.96 2.09, -25.05 -14.61, -10.02 -3.34 C -0.83 -17.53, 0.83 -17.53, 10.02 -3.34 C 25.05 -14.61, 22.96 2.09, 0 17.53 Z" fill="#60A5FA" stroke="rgba(255,255,255,0.55)" stroke-width="1.2" /></g>
    <g transform="translate(826.60 394.55) rotate(1.61)"><circle cx="0" cy="0" r="16.95" fill="#A78BFA" /><circle cx="6.78" cy="-0.68" r="14.24" fill="#0B1A34" /></g>
    <g transform="translate(449.02 272.56) rotate(12.79)"><path d="M 0 12.37 C -16.20 1.47, -17.68 -10.31, -7.07 -2.36 C -0.59 -12.37, 0.59 -12.37, 7.07 -2.36 C 17.68 -10.31, 16.20 1.47, 0 12.37 Z" fill="#4ADE80" stroke="rgba(255,255,255,0.55)" stroke-width="1.2" /></g>
    <g transform="translate(519.60 76.74) rotate(-13.80)"><path d="M 0 16.90 C -22.13 2.01, -24.14 -14.08, -9.66 -3.22 C -0.80 -16.90, 0.80 -16.90, 9.66 -3.22 C 24.14 -14.08, 22.13 2.01, 0 16.90 Z" fill="#C084FC" stroke="rgba(255,255,255,0.55)" stroke-width="1.2" /></g>
    <g transform="translate(51.44 197.73) rotate(-3.22)"><rect x="-15.91" y="-4.69" width="31.82" height="9.38" rx="4.69" fill="#FB7185" /><rect x="-4.69" y="-15.91" width="9.38" height="31.82" rx="4.69" fill="#FB7185" /></g>
    <g transform="translate(827.26 469.65) rotate(-0.02)"><polygon points="-16.74,-6.02 2.68,-6.02 2.68,-12.72 18.41,0.00 2.68,12.72 2.68,6.02 -16.74,6.02" fill="#C084FC" stroke="rgba(255,255,255,0.55)" stroke-width="1.2" /></g>
    <g transform="translate(682.34 77.05) rotate(9.29)"><path d="M 0 16.21 C -21.22 1.93, -23.15 -13.51, -9.26 -3.09 C -0.77 -16.21, 0.77 -16.21, 9.26 -3.09 C 23.15 -13.51, 21.22 1.93, 0 16.21 Z" fill="#FB7185" stroke="rgba(255,255,255,0.55)" stroke-width="1.2" /></g>
    <g transform="translate(667.01 130.17) rotate(-22.57)"><rect x="-15.26" y="-4.50" width="30.52" height="8.99" rx="4.50" fill="#F87171" /><rect x="-4.50" y="-15.26" width="8.99" height="30.52" rx="4.50" fill="#F87171" /></g>
    <g transform="translate(909.21 524.54) rotate(-12.81)"><rect x="-19.61" y="-5.78" width="39.23" height="11.56" rx="5.78" fill="#F97316" /><rect x="-5.78" y="-19.61" width="11.56" height="39.23" rx="5.78" fill="#F97316" /></g>
    <g transform="translate(207.45 206.12) rotate(14.69)"><path d="M 0 13.18 C -17.26 1.57, -18.83 -10.98, -7.53 -2.51 C -0.63 -13.18, 0.63 -13.18, 7.53 -2.51 C 18.83 -10.98, 17.26 1.57, 0 13.18 Z" fill="#C084FC" stroke="rgba(255,255,255,0.55)" stroke-width="1.2" /></g>
    <g transform="translate(434.46 465.61) rotate(15.78)"><path d="M 0 11.76 C -15.40 1.40, -16.80 -9.80, -6.72 -2.24 C -0.56 -11.76, 0.56 -11.76, 6.72 -2.24 C 16.80 -9.80, 15.40 1.40, 0 11.76 Z" fill="#F97316" stroke="rgba(255,255,255,0.55)" stroke-width="1.2" /></g>
    <g transform="translate(525.50 537.64) rotate(-13.45)"><rect x="-14.40" y="-4.25" width="28.81" height="8.49" rx="4.25" fill="#34D399" /><rect x="-4.25" y="-14.40" width="8.49" height="28.81" rx="4.25" fill="#34D399" /></g>
    <g transform="translate(596.03 470.49) rotate(20.64)"><path d="M 0 11.87 C -15.54 1.41, -16.95 -9.89, -6.78 -2.26 C -0.57 -11.87, 0.57 -11.87, 6.78 -2.26 C 16.95 -9.89, 15.54 1.41, 0 11.87 Z" fill="#4ADE80" stroke="rgba(255,255,255,0.55)" stroke-width="1.2" /></g>
    <g transform="translate(832.99 334.21) rotate(26.72)"><path d="M 0 15.64 C -20.48 1.86, -22.35 -13.04, -8.94 -2.98 C -0.74 -15.64, 0.74 -15.64, 8.94 -2.98 C 22.35 -13.04, 20.48 1.86, 0 15.64 Z" fill="#22D3EE" stroke="rgba(255,255,255,0.55)" stroke-width="1.2" /></g>
    <g transform="translate(671.28 264.43) rotate(-20.70)"><rect x="-13.70" y="-4.04" width="27.40" height="8.08" rx="4.04" fill="#A78BFA" /><rect x="-4.04" y="-13.70" width="8.08" height="27.40" rx="4.04" fill="#A78BFA" /></g>
    <g transform="translate(122.49 333.32) rotate(-21.29)"><path d="M 0 15.54 C -20.35 1.85, -22.20 -12.95, -8.88 -2.96 C -0.74 -15.54, 0.74 -15.54, 8.88 -2.96 C 22.20 -12.95, 20.35 1.85, 0 15.54 Z" fill="#22D3EE" stroke="rgba(255,255,255,0.55)" stroke-width="1.2" /></g>
    <g transform="translate(55.68 71.51) rotate(-2.14)"><circle cx="0" cy="0" r="19.13" fill="#A78BFA" stroke="rgba(255,255,255,0.55)" stroke-width="1.4" /></g>
    <g transform="translate(602.71 196.33) rotate(4.86)"><circle cx="0" cy="0" r="19.88" fill="#C084FC" /><circle cx="7.95" cy="-0.80" r="16.70" fill="#0B1A34" /></g>
    <g transform="translate(906.24 134.16) rotate(5.04)"><circle cx="0" cy="0" r="15.55" fill="#F87171" /><circle cx="6.22" cy="-0.62" r="13.06" fill="#0B1A34" /></g>
    <g transform="translate(135.97 140.28) rotate(-22.85)"><circle cx="0" cy="0" r="16.36" fill="#F87171" stroke="rgba(255,255,255,0.55)" stroke-width="1.4" /></g>
    <g transform="translate(365.25 133.78) rotate(-13.19)"><polygon points="-18.91,-6.81 3.03,-6.81 3.03,-14.37 20.81,0.00 3.03,14.37 3.03,6.81 -18.91,6.81" fill="#F97316" stroke="rgba(255,255,255,0.55)" stroke-width="1.2" /></g>
    <g transform="translate(133.19 197.74) rotate(-26.08)"><path d="M 0 14.25 C -18.66 1.70, -20.36 -11.87, -8.14 -2.71 C -0.68 -14.25, 0.68 -14.25, 8.14 -2.71 C 20.36 -11.87, 18.66 1.70, 0 14.25 Z" fill="#F87171" stroke="rgba(255,255,255,0.55)" stroke-width="1.2" /></g>
    <g transform="translate(520.67 199.69) rotate(22.69)"><circle cx="0" cy="0" r="18.41" fill="#A78BFA" stroke="rgba(255,255,255,0.55)" stroke-width="1.4" /></g>
    <g transform="translate(209.10 525.00) rotate(-2.95)"><rect x="-14.41" y="-4.25" width="28.83" height="8.50" rx="4.25" fill="#A78BFA" /><rect x="-4.25" y="-14.41" width="8.50" height="28.83" rx="4.25" fill="#A78BFA" /></g>
    <g transform="translate(437.75 537.13) rotate(2.78)"><polygon points="-16.64,-5.99 2.66,-5.99 2.66,-12.64 18.30,0.00 2.66,12.64 2.66,5.99 -16.64,5.99" fill="#22D3EE" stroke="rgba(255,255,255,0.55)" stroke-width="1.2" /></g>
    <g transform="translate(362.69 395.44) rotate(-21.23)"><polygon points="-20.13,-7.25 3.22,-7.25 3.22,-15.30 22.15,0.00 3.22,15.30 3.22,7.25 -20.13,7.25" fill="#FBBF24" stroke="rgba(255,255,255,0.55)" stroke-width="1.2" /></g>
    <g transform="translate(357.59 266.04) rotate(-2.83)"><circle cx="0" cy="0" r="18.09" fill="#FBBF24" stroke="rgba(255,255,255,0.55)" stroke-width="1.4" /></g>
    <g transform="translate(830.71 209.20) rotate(26.74)"><polygon points="-15.54,-5.60 2.49,-5.60 2.49,-11.81 17.10,0.00 2.49,11.81 2.49,5.60 -15.54,5.60" fill="#A78BFA" stroke="rgba(255,255,255,0.55)" stroke-width="1.2" /></g>
    <g transform="translate(293.01 401.83) rotate(21.52)"><circle cx="0" cy="0" r="17.79" fill="#4ADE80" stroke="rgba(255,255,255,0.55)" stroke-width="1.4" /></g>
    <g transform="translate(446.39 201.21) rotate(-10.11)"><rect x="-17.86" y="-5.26" width="35.73" height="10.53" rx="5.26" fill="#A78BFA" /><rect x="-5.26" y="-17.86" width="10.53" height="35.73" rx="5.26" fill="#A78BFA" /></g>
    <g transform="translate(670.25 399.16) rotate(-16.77)"><path d="M 0 16.66 C -21.81 1.98, -23.80 -13.88, -9.52 -3.17 C -0.79 -16.66, 0.79 -16.66, 9.52 -3.17 C 23.80 -13.88, 21.81 1.98, 0 16.66 Z" fill="#C084FC" stroke="rgba(255,255,255,0.55)" stroke-width="1.2" /></g>
  </g>
</svg>
