<svg xmlns="http://www.w3.org/2000/svg" width="960" height="600" viewBox="0 0 960 600">
  <defs>
    <linearGradient id="bg63" x1="0%" y1="0%" x2="100%" y2="100%">
      <stop offset="0%" stop-color="#0F172A" />
      <stop offset="100%" stop-color="#1D4ED8" />
    </linearGradient>
    <filter id="shadow63" x="-20%" y="-20%" width="140%" height="140%">
      <feDropShadow dx="0" dy="2" stdDeviation="1.8" flood-color="rgba(0,0,0,0.36)" />
    </filter>
  </defs>

  <rect width="960" height="600" fill="url(#bg63)" />
  <rect x="24" y="24" width="912" height="552" rx="20" fill="rgba(255,255,255,0.045)" stroke="rgba(255,255,255,0.22)" />
  <g filter="url(#shadow63)">
    <g transform="translate(56.22 468.97) rotate(12.58)"><polygon points="0,-22.15 19.86,15.27 -19.86,15.27" fill="#34D399" stroke="rgba(255,255,255,0.55)" stroke-width="1.4" /></g>
    <g transform="translate(125.51 202.12) rotate(-0.57)"><circle cx="0" cy="0" r="15.89" fill="#4ADE80" /><circle cx="6.35" cy="-0.64" r="13.34" fill="#0B1A34" /></g>
    <g transform="translate(754.49 338.81) rotate(5.50)"><polygon points="0,-18.23 16.34,12.57 -16.34,12.57" fill="#34D399" stroke="rgba(255,255,255,0.55)" stroke-width="1.4" /></g>
    <g transform="translate(912.83 462.20) rotate(2.10)"><rect x="-16.11" y="-16.11" width="32.23" height="32.23" rx="3.50" fill="#4ADE80" stroke="rgba(255,255,255,0.55)" stroke-width="1.4" /></g>
    <g transform="translate(358.32 139.64) rotate(13.14)"><rect x="-14.56" y="-14.56" width="29.13" height="29.13" rx="3.17" fill="#C084FC" stroke="rgba(255,255,255,0.55)" stroke-width="1.4" /></g>
    <g transform="translate(521.62 140.33) rotate(16.70)"><path d="M 0 17.58 C -23.03 2.09, -25.12 -14.65, -10.05 -3.35 C -0.84 -17.58, 0.84 -17.58, 10.05 -3.35 C 25.12 -14.65, 23.03 2.09, 0 17.58 Z" fill="#F87171" stroke="rgba(255,255,255,0.55)" stroke-width="1.2" /></g>
    <g transform="translate(284.21 65.75) rotate(21.39)"><polygon points="0.00,-21.68 5.56,-7.66 20.62,-6.70 9.00,2.92 12.75,17.54 0.00,9.46 -12.75,17.54 -9.00,2.92 -20.62,-6.70 -5.56,-7.66" fill="#34D399" stroke="rgba(255,255,255,0.55)" stroke-width="1.4" /></g>
    <g transform="translate(283.50 400.77) rotate(15.61)"><polygon points="0.00,-19.97 5.12,-7.05 18.99,-6.17 8.29,2.69 11.74,16.16 0.00,8.72 -11.74,16.16 -8.29,2.69 -18.99,-6.17 -5.12,-7.05" fill="#A78BFA" stroke="rgba(255,255,255,0.55)" stroke-width="1.4" /></g>
    <g transform="translate(678.75 138.16) rotate(6.68)"><circle cx="0" cy="0" r="19.94" fill="#FB7185" /><circle cx="7.98" cy="-0.80" r="16.75" fill="#0B1A34" /></g>
    <g transform="translate(747.94 196.89) rotate(14.98)"><rect x="-14.82" y="-14.82" width="29.65" height="29.65" rx="3.22" fill="#C084FC" stroke="rgba(255,255,255,0.55)" stroke-width="1.4" /></g>
    <g transform="translate(202.19 532.17) rotate(-8.46)"><rect x="-15.99" y="-15.99" width="31.98" height="31.98" rx="3.48" fill="#F97316" stroke="rgba(255,255,255,0.55)" stroke-width="1.4" /></g>
    <g transform="translate(830.32 526.48) rotate(22.00)"><rect x="-13.54" y="-13.54" width="27.08" height="27.08" rx="2.94" fill="#34D399" stroke="rgba(255,255,255,0.55)" stroke-width="1.4" /></g>
    <g transform="translate(599.89 533.85) rotate(16.91)"><rect x="-16.59" y="-16.59" width="33.18" height="33.18" rx="3.61" fill="#F97316" stroke="rgba(255,255,255,0.55)" stroke-width="1.4" /></g>
    <g transform="translate(830.27 204.30) rotate(9.14)"><rect x="-18.90" y="-18.90" width="37.79" height="37.79" rx="4.11" fill="#FB7185" stroke="rgba(255,255,255,0.55)" stroke-width="1.4" /></g>
    <g transform="translate(595.16 203.59) rotate(10.66)"><polygon points="0,-16.40 14.70,11.31 -14.70,11.31" fill="#F87171" stroke="rgba(255,255,255,0.55)" stroke-width="1.4" /></g>
    <g transform="translate(285.25 329.21) rotate(12.89)"><polygon points="0.00,-22.09 5.66,-7.80 21.00,-6.82 9.17,2.98 12.98,17.87 0.00,9.64 -12.98,17.87 -9.17,2.98 -21.00,-6.82 -5.66,-7.80" fill="#F87171" stroke="rgba(255,255,255,0.55)" stroke-width="1.4" /></g>
    <g transform="translate(126.55 326.99) rotate(22.47)"><polygon points="0.00,-15.51 3.98,-5.48 14.75,-4.79 6.44,2.09 9.12,12.55 0.00,6.77 -9.12,12.55 -6.44,2.09 -14.75,-4.79 -3.98,-5.48" fill="#F87171" stroke="rgba(255,255,255,0.55)" stroke-width="1.4" /></g>
    <g transform="translate(132.39 74.20) rotate(-3.24)"><rect x="-15.17" y="-15.17" width="30.34" height="30.34" rx="3.30" fill="#A78BFA" stroke="rgba(255,255,255,0.55)" stroke-width="1.4" /></g>
    <g transform="translate(745.66 138.67) rotate(7.74)"><polygon points="0,-15.67 14.05,10.80 -14.05,10.80" fill="#A78BFA" stroke="rgba(255,255,255,0.55)" stroke-width="1.4" /></g>
    <g transform="translate(680.36 535.99) rotate(17.91)"><rect x="-19.30" y="-19.30" width="38.60" height="38.60" rx="4.20" fill="#34D399" stroke="rgba(255,255,255,0.55)" stroke-width="1.4" /></g>
    <g transform="translate(47.25 68.86) rotate(18.54)"><polygon points="0,-18.14 16.27,12.51 -16.27,12.51" fill="#22D3EE" stroke="rgba(255,255,255,0.55)" stroke-width="1.4" /></g>
    <g transform="translate(210.31 198.37) rotate(-12.93)"><polygon points="0,-16.96 15.21,11.70 -15.21,11.70" fill="#C084FC" stroke="rgba(255,255,255,0.55)" stroke-width="1.4" /></g>
    <g transform="translate(58.60 406.34) rotate(-3.20)"><rect x="-13.64" y="-13.64" width="27.29" height="27.29" rx="2.97" fill="#A78BFA" stroke="rgba(255,255,255,0.55)" stroke-width="1.4" /></g>
    <g transform="translate(757.06 69.69) rotate(-2.85)"><rect x="-18.86" y="-18.86" width="37.72" height="37.72" rx="4.10" fill="#FB7185" stroke="rgba(255,255,255,0.55)" stroke-width="1.4" /></g>
    <g transform="translate(137.44 130.54) rotate(-22.26)"><rect x="-15.74" y="-15.74" width="31.49" height="31.49" rx="3.42" fill="#FB7185" stroke="rgba(255,255,255,0.55)" stroke-width="1.4" /></g>
    <g transform="translate(591.32 456.29) rotate(17.37)"><polygon points="0,-18.62 16.69,12.84 -16.69,12.84" fill="#34D399" stroke="rgba(255,255,255,0.55)" stroke-width="1.4" /></g>
    <g transform="translate(590.32 67.09) rotate(15.11)"><polygon points="0.00,-17.42 4.47,-6.15 16.57,-5.38 7.23,2.35 10.24,14.10 0.00,7.60 -10.24,14.10 -7.23,2.35 -16.57,-5.38 -4.47,-6.15" fill="#34D399" stroke="rgba(255,255,255,0.55)" stroke-width="1.4" /></g>
    <g transform="translate(131.16 466.97) rotate(27.87)"><polygon points="0.00,-16.25 4.17,-5.74 15.45,-5.02 6.74,2.19 9.55,13.15 0.00,7.09 -9.55,13.15 -6.74,2.19 -15.45,-5.02 -4.17,-5.74" fill="#FBBF24" stroke="rgba(255,255,255,0.55)" stroke-width="1.4" /></g>
  </g>
</svg>
