<svg xmlns="http://www.w3.org/2000/svg" width="960" height="600" viewBox="0 0 960 600">
  <defs>
    <linearGradient id="bg164" x1="0%" y1="0%" x2="100%" y2="100%">
      <stop offset="0%" stop-color="#0F172A" />
      <stop offset="100%" stop-color="#1D4ED8" />
    </linearGradient>
    <filter id="shadow164" x="-20%" y="-20%" width="140%" height="140%">
      <feDropShadow dx="0" dy="2" stdDeviation="1.8" flood-color="rgba(0,0,0,0.36)" />
    </filter>
  </defs>

  <rect width="960" height="600" fill="url(#bg164)" />
  <rect x="24" y="24" width="912" height="552" rx="20" fill="rgba(255,255,255,0.045)" stroke="rgba(255,255,255,0.22)" />
  <g filter="url(#shadow164)">
    <g transform="translate(675.18 465.62) rotate(-1.52)"><circle cx="0" cy="0" r="19.19" fill="#C084FC" stroke="rgba(255,255,255,0.55)" stroke-width="1.4" /></g>
    <g transform="translate(757.31 467.78) rotate(-25.13)"><circle cx="0" cy="0" r="20.69" fill="#F87171" stroke="rgba(255,255,255,0.55)" stroke-width="1.4" /></g>
    <g transform="translate(356.38 523.16) rotate(-25.50)"><circle cx="0" cy="0" r="16.25" fill="#F97316" stroke="rgba(255,255,255,0.55)" stroke-width="1.4" /></g>
    <g transform="translate(511.00 397.65) rotate(21.73)"><circle cx="0" cy="0" r="19.55" fill="#60A5FA" stroke="rgba(255,255,255,0.55)" stroke-width="1.4" /></g>
    <g transform="translate(756.91 265.28) rotate(20.83)"><polygon points="-14.56,-5.24 2.33,-5.24 2.33,-11.06 16.01,0.00 2.33,11.06 2.33,5.24 -14.56,5.24" fill="#C084FC" stroke="rgba(255,255,255,0.55)" stroke-width="1.2" /></g>
    <g transform="translate(823.67 340.83) rotate(-26.20)"><polygon points="0,-16.72 16.72,0 0,16.72 -16.72,0" fill="#C084FC" stroke="rgba(255,255,255,0.55)" stroke-width="1.4" /></g>
    <g transform="translate(521.53 138.48) rotate(-13.74)"><polygon points="0.00,-23.08 5.92,-8.15 21.95,-7.13 9.58,3.11 13.57,18.68 0.00,10.07 -13.57,18.68 -9.58,3.11 -21.95,-7.13 -5.92,-8.15" fill="#4ADE80" stroke="rgba(255,255,255,0.55)" stroke-width="1.4" /></g>
    <g transform="translate(210.11 396.25) rotate(-14.42)"><polygon points="0.00,-16.51 4.23,-5.83 15.70,-5.10 6.85,2.23 9.70,13.36 0.00,7.20 -9.70,13.36 -6.85,2.23 -15.70,-5.10 -4.23,-5.83" fill="#F87171" stroke="rgba(255,255,255,0.55)" stroke-width="1.4" /></g>
    <g transform="translate(603.52 459.14) rotate(-12.75)"><circle cx="0" cy="0" r="20.39" fill="#FBBF24" stroke="rgba(255,255,255,0.55)" stroke-width="1.4" /></g>
    <g transform="translate(835.81 134.01) rotate(-2.87)"><polygon points="0.00,-20.00 5.13,-7.06 19.02,-6.18 8.30,2.70 11.75,16.18 0.00,8.73 -11.75,16.18 -8.30,2.70 -19.02,-6.18 -5.13,-7.06" fill="#34D399" stroke="rgba(255,255,255,0.55)" stroke-width="1.4" /></g>
    <g transform="translate(832.84 456.79) rotate(-26.76)"><circle cx="0" cy="0" r="18.25" fill="#FBBF24" stroke="rgba(255,255,255,0.55)" stroke-width="1.4" /></g>
    <g transform="translate(673.97 274.55) rotate(-12.27)"><polygon points="0,-18.71 18.71,0 0,18.71 -18.71,0" fill="#FBBF24" stroke="rgba(255,255,255,0.55)" stroke-width="1.4" /></g>
    <g transform="translate(679.34 137.13) rotate(7.04)"><polygon points="0,-17.41 15.61,12.00 -15.61,12.00" fill="#F97316" stroke="rgba(255,255,255,0.55)" stroke-width="1.4" /></g>
    <g transform="translate(50.05 66.14) rotate(-19.20)"><polygon points="0,-17.69 17.69,0 0,17.69 -17.69,0" fill="#60A5FA" stroke="rgba(255,255,255,0.55)" stroke-width="1.4" /></g>
    <g transform="translate(364.68 197.28) rotate(3.75)"><circle cx="0" cy="0" r="19.86" fill="#C084FC" stroke="rgba(255,255,255,0.55)" stroke-width="1.4" /></g>
    <g transform="translate(825.62 74.88) rotate(6.72)"><polygon points="0,-17.71 17.71,0 0,17.71 -17.71,0" fill="#60A5FA" stroke="rgba(255,255,255,0.55)" stroke-width="1.4" /></g>
    <g transform="translate(914.32 528.70) rotate(21.34)"><polygon points="0.00,-19.81 5.08,-6.99 18.84,-6.12 8.22,2.67 11.64,16.03 0.00,8.64 -11.64,16.03 -8.22,2.67 -18.84,-6.12 -5.08,-6.99" fill="#FBBF24" stroke="rgba(255,255,255,0.55)" stroke-width="1.4" /></g>
  </g>
</svg>
