<svg xmlns="http://www.w3.org/2000/svg" width="960" height="600" viewBox="0 0 960 600">
  <defs>
    <linearGradient id="bg113" x1="0%" y1="0%" x2="100%" y2="100%">
      <stop offset="0%" stop-color="#0F172A" />
      <stop offset="100%" stop-color="#1D4ED8" />
    </linearGradient>
    <filter id="shadow113" x="-20%" y="-20%" width="140%" height="140%">
      <feDropShadow dx="0" dy="2" stdDeviation="1.8" flood-color="rgba(0,0,0,0.36)" />
    </filter>
  </defs>

  <rect width="960" height="600" fill="url(#bg113)" />
  <rect x="24" y="24" width="912" height="552" rx="20" fill="rgba(255,255,255,0.045)" stroke="rgba(255,255,255,0.22)" />
  <g filter="url(#shadow113)">
    <g transform="translate(45.95 526.05) rotate(18.78)"><rect x="-18.18" y="-18.18" width="36.36" height="36.36" rx="3.95" fill="#F97316" stroke="rgba(255,255,255,0.55)" stroke-width="1.4" /></g>
    <g transform="translate(905.57 70.69) rotate(20.88)"><polygon points="-20.53,-7.39 3.28,-7.39 3.28,-15.60 22.58,0.00 3.28,15.60 3.28,7.39 -20.53,7.39" fill="#34D399" stroke="rgba(255,255,255,0.55)" stroke-width="1.2" /></g>
    <g transform="translate(438.55 259.67) rotate(3.27)"><polygon points="-20.56,-7.40 3.29,-7.40 3.29,-15.63 22.62,0.00 3.29,15.63 3.29,7.40 -20.56,7.40" fill="#FBBF24" stroke="rgba(255,255,255,0.55)" stroke-width="1.2" /></g>
    <g transform="translate(902.28 533.17) rotate(-7.94)"><rect x="-17.81" y="-17.81" width="35.62" height="35.62" rx="3.87" fill="#4ADE80" stroke="rgba(255,255,255,0.55)" stroke-width="1.4" /></g>
    <g transform="translate(368.40 339.59) rotate(15.16)"><rect x="-15.62" y="-15.62" width="31.24" height="31.24" rx="3.40" fill="#F87171" stroke="rgba(255,255,255,0.55)" stroke-width="1.4" /></g>
    <g transform="translate(53.01 259.98) rotate(-25.60)"><rect x="-18.15" y="-18.15" width="36.30" height="36.30" rx="3.95" fill="#FB7185" stroke="rgba(255,255,255,0.55)" stroke-width="1.4" /></g>
    <g transform="translate(212.46 524.59) rotate(3.30)"><circle cx="0" cy="0" r="19.50" fill="#C084FC" /><circle cx="7.80" cy="-0.78" r="16.38" fill="#0B1A34" /></g>
    <g transform="translate(677.69 401.30) rotate(20.83)"><rect x="-13.18" y="-13.18" width="26.37" height="26.37" rx="2.87" fill="#FBBF24" stroke="rgba(255,255,255,0.55)" stroke-width="1.4" /></g>
    <g transform="translate(681.40 535.38) rotate(0.47)"><polygon points="-19.07,-6.87 3.05,-6.87 3.05,-14.49 20.98,0.00 3.05,14.49 3.05,6.87 -19.07,6.87" fill="#FB7185" stroke="rgba(255,255,255,0.55)" stroke-width="1.2" /></g>
    <g transform="translate(284.38 73.91) rotate(-16.52)"><polygon points="0.00,-22.05 5.66,-7.79 20.97,-6.81 9.15,2.97 12.96,17.84 0.00,9.62 -12.96,17.84 -9.15,2.97 -20.97,-6.81 -5.66,-7.79" fill="#22D3EE" stroke="rgba(255,255,255,0.55)" stroke-width="1.4" /></g>
    <g transform="translate(600.01 336.75) rotate(-11.78)"><polygon points="-18.15,-6.53 2.90,-6.53 2.90,-13.79 19.96,0.00 2.90,13.79 2.90,6.53 -18.15,6.53" fill="#34D399" stroke="rgba(255,255,255,0.55)" stroke-width="1.2" /></g>
    <g transform="translate(745.78 263.72) rotate(-26.04)"><polygon points="0.00,-15.89 4.08,-5.61 15.12,-4.91 6.60,2.14 9.34,12.86 0.00,6.94 -9.34,12.86 -6.60,2.14 -15.12,-4.91 -4.08,-5.61" fill="#FB7185" stroke="rgba(255,255,255,0.55)" stroke-width="1.4" /></g>
    <g transform="translate(513.82 134.50) rotate(-0.06)"><rect x="-17.24" y="-17.24" width="34.48" height="34.48" rx="3.75" fill="#A78BFA" stroke="rgba(255,255,255,0.55)" stroke-width="1.4" /></g>
    <g transform="translate(210.35 72.14) rotate(23.85)"><polygon points="0.00,-18.27 4.69,-6.45 17.38,-5.65 7.58,2.46 10.74,14.78 0.00,7.97 -10.74,14.78 -7.58,2.46 -17.38,-5.65 -4.69,-6.45" fill="#4ADE80" stroke="rgba(255,255,255,0.55)" stroke-width="1.4" /></g>
    <g transform="translate(54.80 66.16) rotate(-24.09)"><rect x="-17.42" y="-17.42" width="34.84" height="34.84" rx="3.79" fill="#60A5FA" stroke="rgba(255,255,255,0.55)" stroke-width="1.4" /></g>
    <g transform="translate(283.79 398.21) rotate(1.50)"><circle cx="0" cy="0" r="20.68" fill="#22D3EE" stroke="rgba(255,255,255,0.55)" stroke-width="1.4" /><circle cx="-7.45" cy="-4.96" r="3.31" fill="#1F2937" /><circle cx="7.45" cy="-4.96" r="3.31" fill="#1F2937" /><path d="M -15.72 5.79 Q 0 14.06 15.72 5.79" fill="none" stroke="#1F2937" stroke-width="2.2" stroke-linecap="round" /></g>
    <g transform="translate(515.46 271.83) rotate(-25.37)"><polygon points="-19.01,-6.84 3.04,-6.84 3.04,-14.45 20.91,0.00 3.04,14.45 3.04,6.84 -19.01,6.84" fill="#34D399" stroke="rgba(255,255,255,0.55)" stroke-width="1.2" /></g>
  </g>
</svg>
