<svg xmlns="http://www.w3.org/2000/svg" width="960" height="600" viewBox="0 0 960 600">
  <defs>
    <linearGradient id="bg55" x1="0%" y1="0%" x2="100%" y2="100%">
      <stop offset="0%" stop-color="#0F172A" />
      <stop offset="100%" stop-color="#1D4ED8" />
    </linearGradient>
    <filter id="shadow55" x="-20%" y="-20%" width="140%" height="140%">
      <feDropShadow dx="0" dy="2" stdDeviation="1.8" flood-color="rgba(0,0,0,0.36)" />
    </filter>
  </defs>

  <rect width="960" height="600" fill="url(#bg55)" />
  <rect x="24" y="24" width="912" height="552" rx="20" fill="rgba(255,255,255,0.045)" stroke="rgba(255,255,255,0.22)" />
  <g filter="url(#shadow55)">
    <g transform="translate(136.05 129.19) rotate(-21.91)"><rect x="-16.03" y="-4.72" width="32.05" height="9.45" rx="4.72" fill="#A78BFA" /><rect x="-4.72" y="-16.03" width="9.45" height="32.05" rx="4.72" fill="#A78BFA" /></g>
    <g transform="translate(358.55 325.45) rotate(22.15)"><path d="M 0 12.61 C -16.52 1.50, -18.02 -10.51, -7.21 -2.40 C -0.60 -12.61, 0.60 -12.61, 7.21 -2.40 C 18.02 -10.51, 16.52 1.50, 0 12.61 Z" fill="#FBBF24" stroke="rgba(255,255,255,0.55)" stroke-width="1.2" /></g>
    <g transform="translate(675.50 393.34) rotate(-0.04)"><polygon points="0,-14.42 14.42,0 0,14.42 -14.42,0" fill="#FBBF24" stroke="rgba(255,255,255,0.55)" stroke-width="1.4" /></g>
    <g transform="translate(45.80 524.79) rotate(-1.08)"><circle cx="0" cy="0" r="15.45" fill="#34D399" stroke="rgba(255,255,255,0.55)" stroke-width="1.4" /></g>
    <g transform="translate(369.12 529.15) rotate(-22.06)"><circle cx="0" cy="0" r="20.12" fill="#34D399" stroke="rgba(255,255,255,0.55)" stroke-width="1.4" /></g>
    <g transform="translate(832.04 532.97) rotate(16.58)"><circle cx="0" cy="0" r="20.43" fill="#FBBF24" stroke="rgba(255,255,255,0.55)" stroke-width="1.4" /></g>
    <g transform="translate(525.64 331.81) rotate(17.18)"><circle cx="0" cy="0" r="18.02" fill="#22D3EE" stroke="rgba(255,255,255,0.55)" stroke-width="1.4" /></g>
    <g transform="translate(915.08 64.45) rotate(2.80)"><polygon points="0,-14.15 14.15,0 0,14.15 -14.15,0" fill="#FBBF24" stroke="rgba(255,255,255,0.55)" stroke-width="1.4" /></g>
    <g transform="translate(674.66 335.68) rotate(-23.59)"><rect x="-17.53" y="-5.17" width="35.06" height="10.33" rx="5.17" fill="#FB7185" /><rect x="-5.17" y="-17.53" width="10.33" height="35.06" rx="5.17" fill="#FB7185" /></g>
    <g transform="translate(280.11 265.77) rotate(-20.50)"><path d="M 0 13.05 C -17.09 1.55, -18.64 -10.88, -7.46 -2.49 C -0.62 -13.05, 0.62 -13.05, 7.46 -2.49 C 18.64 -10.88, 17.09 1.55, 0 13.05 Z" fill="#FBBF24" stroke="rgba(255,255,255,0.55)" stroke-width="1.2" /></g>
    <g transform="translate(834.29 135.50) rotate(-1.30)"><path d="M 0 16.74 C -21.92 1.99, -23.91 -13.95, -9.56 -3.19 C -0.80 -16.74, 0.80 -16.74, 9.56 -3.19 C 23.91 -13.95, 21.92 1.99, 0 16.74 Z" fill="#F97316" stroke="rgba(255,255,255,0.55)" stroke-width="1.2" /></g>
    <g transform="translate(749.33 208.97) rotate(11.35)"><circle cx="0" cy="0" r="17.72" fill="#F97316" stroke="rgba(255,255,255,0.55)" stroke-width="1.4" /></g>
    <g transform="translate(523.45 468.29) rotate(-10.16)"><path d="M 0 16.09 C -21.07 1.92, -22.99 -13.41, -9.19 -3.06 C -0.77 -16.09, 0.77 -16.09, 9.19 -3.06 C 22.99 -13.41, 21.07 1.92, 0 16.09 Z" fill="#60A5FA" stroke="rgba(255,255,255,0.55)" stroke-width="1.2" /></g>
    <g transform="translate(48.37 129.85) rotate(0.50)"><rect x="-19.89" y="-5.86" width="39.77" height="11.72" rx="5.86" fill="#60A5FA" /><rect x="-5.86" y="-19.89" width="11.72" height="39.77" rx="5.86" fill="#60A5FA" /></g>
    <g transform="translate(915.51 143.38) rotate(24.59)"><path d="M 0 14.21 C -18.61 1.69, -20.30 -11.84, -8.12 -2.71 C -0.68 -14.21, 0.68 -14.21, 8.12 -2.71 C 20.30 -11.84, 18.61 1.69, 0 14.21 Z" fill="#F87171" stroke="rgba(255,255,255,0.55)" stroke-width="1.2" /></g>
    <g transform="translate(212.14 195.15) rotate(7.63)"><path d="M 0 14.01 C -18.35 1.67, -20.02 -11.68, -8.01 -2.67 C -0.67 -14.01, 0.67 -14.01, 8.01 -2.67 C 20.02 -11.68, 18.35 1.67, 0 14.01 Z" fill="#F87171" stroke="rgba(255,255,255,0.55)" stroke-width="1.2" /></g>
  </g>
</svg>
