<svg xmlns="http://www.w3.org/2000/svg" width="960" height="600" viewBox="0 0 960 600">
  <defs>
    <linearGradient id="bg106" x1="0%" y1="0%" x2="100%" y2="100%">
      <stop offset="0%" stop-color="#0F172A" />
      <stop offset="100%" stop-color="#1D4ED8" />
    </linearGradient>
    <filter id="shadow106" x="-20%" y="-20%" width="140%" height="140%">
      <feDropShadow dx="0" dy="2" stdDeviation="1.8" flood-color="rgba(0,0,0,0.36)" />
    </filter>
  </defs>

  <rect width="960" height="600" fill="url(#bg106)" />
  <rect x="24" y="24" width="912" height="552" rx="20" fill="rgba(255,255,255,0.045)" stroke="rgba(255,255,255,0.22)" />
  <g filter="url(#shadow106)">
    <g transform="translate(359.88 69.62) rotate(1.86)"><circle cx="0" cy="0" r="17.25" fill="#C084FC" stroke="rgba(255,255,255,0.55)" stroke-width="1.4" /><circle cx="-6.21" cy="-4.14" r="2.76" fill="#1F2937" /><circle cx="6.21" cy="-4.14" r="2.76" fill="#1F2937" /><path d="M -13.11 4.83 Q 0 11.73 13.11 4.83" fill="none" stroke="#1F2937" stroke-width="2.2" stroke-linecap="round" /></g>
    <g transform="translate(909.26 259.46) rotate(6.60)"><circle cx="0" cy="0" r="15.44" fill="#C084FC" stroke="rgba(255,255,255,0.55)" stroke-width="1.4" /><circle cx="-5.56" cy="-3.71" r="2.47" fill="#1F2937" /><circle cx="5.56" cy="-3.71" r="2.47" fill="#1F2937" /><path d="M -11.74 4.32 Q 0 10.50 11.74 4.32" fill="none" stroke="#1F2937" stroke-width="2.2" stroke-linecap="round" /></g>
    <g transform="translate(127.97 129.54) rotate(-15.88)"><rect x="-17.74" y="-17.74" width="35.49" height="35.49" rx="3.86" fill="#F97316" stroke="rgba(255,255,255,0.55)" stroke-width="1.4" /></g>
    <g transform="translate(441.94 333.77) rotate(-9.37)"><polygon points="0.00,-22.42 5.75,-7.91 21.32,-6.93 9.30,3.02 13.18,18.14 0.00,9.78 -13.18,18.14 -9.30,3.02 -21.32,-6.93 -5.75,-7.91" fill="#4ADE80" stroke="rgba(255,255,255,0.55)" stroke-width="1.4" /></g>
    <g transform="translate(522.54 331.68) rotate(-15.74)"><path d="M 0 12.51 C -16.38 1.49, -17.87 -10.42, -7.15 -2.38 C -0.60 -12.51, 0.60 -12.51, 7.15 -2.38 C 17.87 -10.42, 16.38 1.49, 0 12.51 Z" fill="#34D399" stroke="rgba(255,255,255,0.55)" stroke-width="1.2" /></g>
    <g transform="translate(202.78 401.34) rotate(-27.25)"><rect x="-16.77" y="-16.77" width="33.54" height="33.54" rx="3.65" fill="#FB7185" stroke="rgba(255,255,255,0.55)" stroke-width="1.4" /></g>
    <g transform="translate(602.30 129.13) rotate(-1.01)"><circle cx="0" cy="0" r="18.66" fill="#C084FC" stroke="rgba(255,255,255,0.55)" stroke-width="1.4" /><circle cx="-6.72" cy="-4.48" r="2.99" fill="#1F2937" /><circle cx="6.72" cy="-4.48" r="2.99" fill="#1F2937" /><path d="M -14.18 5.23 Q 0 12.69 14.18 5.23" fill="none" stroke="#1F2937" stroke-width="2.2" stroke-linecap="round" /></g>
    <g transform="translate(126.71 464.30) rotate(-16.87)"><rect x="-16.28" y="-16.28" width="32.57" height="32.57" rx="3.54" fill="#FB7185" stroke="rgba(255,255,255,0.55)" stroke-width="1.4" /></g>
    <g transform="translate(912.86 462.35) rotate(-1.21)"><circle cx="0" cy="0" r="20.81" fill="#60A5FA" stroke="rgba(255,255,255,0.55)" stroke-width="1.4" /><circle cx="-7.49" cy="-4.99" r="3.33" fill="#1F2937" /><circle cx="7.49" cy="-4.99" r="3.33" fill="#1F2937" /><path d="M -15.81 5.83 Q 0 14.15 15.81 5.83" fill="none" stroke="#1F2937" stroke-width="2.2" stroke-linecap="round" /></g>
    <g transform="translate(126.55 76.55) rotate(-14.69)"><path d="M 0 14.53 C -19.03 1.73, -20.76 -12.11, -8.30 -2.77 C -0.69 -14.53, 0.69 -14.53, 8.30 -2.77 C 20.76 -12.11, 19.03 1.73, 0 14.53 Z" fill="#4ADE80" stroke="rgba(255,255,255,0.55)" stroke-width="1.2" /></g>
    <g transform="translate(518.86 74.15) rotate(5.72)"><circle cx="0" cy="0" r="14.33" fill="#22D3EE" stroke="rgba(255,255,255,0.55)" stroke-width="1.4" /><circle cx="-5.16" cy="-3.44" r="2.29" fill="#1F2937" /><circle cx="5.16" cy="-3.44" r="2.29" fill="#1F2937" /><path d="M -10.89 4.01 Q 0 9.74 10.89 4.01" fill="none" stroke="#1F2937" stroke-width="2.2" stroke-linecap="round" /></g>
    <g transform="translate(51.87 141.21) rotate(-0.45)"><circle cx="0" cy="0" r="15.40" fill="#FB7185" stroke="rgba(255,255,255,0.55)" stroke-width="1.4" /><circle cx="-5.54" cy="-3.70" r="2.46" fill="#1F2937" /><circle cx="5.54" cy="-3.70" r="2.46" fill="#1F2937" /><path d="M -11.71 4.31 Q 0 10.47 11.71 4.31" fill="none" stroke="#1F2937" stroke-width="2.2" stroke-linecap="round" /></g>
    <g transform="translate(597.69 535.91) rotate(-7.64)"><circle cx="0" cy="0" r="20.15" fill="#A78BFA" stroke="rgba(255,255,255,0.55)" stroke-width="1.4" /><circle cx="-7.25" cy="-4.84" r="3.22" fill="#1F2937" /><circle cx="7.25" cy="-4.84" r="3.22" fill="#1F2937" /><path d="M -15.32 5.64 Q 0 13.70 15.32 5.64" fill="none" stroke="#1F2937" stroke-width="2.2" stroke-linecap="round" /></g>
    <g transform="translate(681.01 465.11) rotate(26.34)"><rect x="-15.42" y="-15.42" width="30.84" height="30.84" rx="3.35" fill="#F87171" stroke="rgba(255,255,255,0.55)" stroke-width="1.4" /></g>
    <g transform="translate(910.16 139.26) rotate(7.91)"><rect x="-13.50" y="-13.50" width="26.99" height="26.99" rx="2.93" fill="#F97316" stroke="rgba(255,255,255,0.55)" stroke-width="1.4" /></g>
    <g transform="translate(674.36 127.97) rotate(-26.16)"><rect x="-15.14" y="-15.14" width="30.28" height="30.28" rx="3.29" fill="#FBBF24" stroke="rgba(255,255,255,0.55)" stroke-width="1.4" /></g>
    <g transform="translate(435.06 391.86) rotate(-9.44)"><rect x="-12.98" y="-12.98" width="25.96" height="25.96" rx="2.82" fill="#60A5FA" stroke="rgba(255,255,255,0.55)" stroke-width="1.4" /></g>
    <g transform="translate(521.58 130.29) rotate(1.30)"><circle cx="0" cy="0" r="17.90" fill="#F97316" stroke="rgba(255,255,255,0.55)" stroke-width="1.4" /><circle cx="-6.44" cy="-4.30" r="2.86" fill="#1F2937" /><circle cx="6.44" cy="-4.30" r="2.86" fill="#1F2937" /><path d="M -13.61 5.01 Q 0 12.17 13.61 5.01" fill="none" stroke="#1F2937" stroke-width="2.2" stroke-linecap="round" /></g>
    <g transform="translate(292.26 140.17) rotate(5.78)"><circle cx="0" cy="0" r="20.25" fill="#34D399" stroke="rgba(255,255,255,0.55)" stroke-width="1.4" /><circle cx="-7.29" cy="-4.86" r="3.24" fill="#1F2937" /><circle cx="7.29" cy="-4.86" r="3.24" fill="#1F2937" /><path d="M -15.39 5.67 Q 0 13.77 15.39 5.67" fill="none" stroke="#1F2937" stroke-width="2.2" stroke-linecap="round" /></g>
    <g transform="translate(355.54 527.91) rotate(2.30)"><circle cx="0" cy="0" r="15.42" fill="#FB7185" stroke="rgba(255,255,255,0.55)" stroke-width="1.4" /><circle cx="-5.55" cy="-3.70" r="2.47" fill="#1F2937" /><circle cx="5.55" cy="-3.70" r="2.47" fill="#1F2937" /><path d="M -11.72 4.32 Q 0 10.48 11.72 4.32" fill="none" stroke="#1F2937" stroke-width="2.2" stroke-linecap="round" /></g>
    <g transform="translate(446.54 464.28) rotate(7.96)"><circle cx="0" cy="0" r="19.16" fill="#FB7185" stroke="rgba(255,255,255,0.55)" stroke-width="1.4" /><circle cx="-6.90" cy="-4.60" r="3.07" fill="#1F2937" /><circle cx="6.90" cy="-4.60" r="3.07" fill="#1F2937" /><path d="M -14.57 5.37 Q 0 13.03 14.57 5.37" fill="none" stroke="#1F2937" stroke-width="2.2" stroke-linecap="round" /></g>
    <g transform="translate(291.71 326.30) rotate(-20.83)"><rect x="-12.90" y="-12.90" width="25.79" height="25.79" rx="2.80" fill="#F97316" stroke="rgba(255,255,255,0.55)" stroke-width="1.4" /></g>
    <g transform="translate(668.72 76.78) rotate(-1.24)"><polygon points="-15.48,-5.57 2.48,-5.57 2.48,-11.77 17.03,0.00 2.48,11.77 2.48,5.57 -15.48,5.57" fill="#F97316" stroke="rgba(255,255,255,0.55)" stroke-width="1.2" /></g>
    <g transform="translate(599.72 458.98) rotate(15.90)"><polygon points="0.00,-17.83 4.57,-6.29 16.95,-5.51 7.40,2.40 10.48,14.42 0.00,7.78 -10.48,14.42 -7.40,2.40 -16.95,-5.51 -4.57,-6.29" fill="#F97316" stroke="rgba(255,255,255,0.55)" stroke-width="1.4" /></g>
    <g transform="translate(355.77 194.30) rotate(4.65)"><circle cx="0" cy="0" r="15.90" fill="#C084FC" stroke="rgba(255,255,255,0.55)" stroke-width="1.4" /><circle cx="-5.73" cy="-3.82" r="2.54" fill="#1F2937" /><circle cx="5.73" cy="-3.82" r="2.54" fill="#1F2937" /><path d="M -12.09 4.45 Q 0 10.82 12.09 4.45" fill="none" stroke="#1F2937" stroke-width="2.2" stroke-linecap="round" /></g>
    <g transform="translate(823.69 65.00) rotate(-5.01)"><circle cx="0" cy="0" r="14.94" fill="#FB7185" stroke="rgba(255,255,255,0.55)" stroke-width="1.4" /><circle cx="-5.38" cy="-3.59" r="2.39" fill="#1F2937" /><circle cx="5.38" cy="-3.59" r="2.39" fill="#1F2937" /><path d="M -11.36 4.18 Q 0 10.16 11.36 4.18" fill="none" stroke="#1F2937" stroke-width="2.2" stroke-linecap="round" /></g>
    <g transform="translate(46.94 67.39) rotate(1.36)"><circle cx="0" cy="0" r="20.58" fill="#22D3EE" stroke="rgba(255,255,255,0.55)" stroke-width="1.4" /><circle cx="-7.41" cy="-4.94" r="3.29" fill="#1F2937" /><circle cx="7.41" cy="-4.94" r="3.29" fill="#1F2937" /><path d="M -15.64 5.76 Q 0 14.00 15.64 5.76" fill="none" stroke="#1F2937" stroke-width="2.2" stroke-linecap="round" /></g>
    <g transform="translate(589.11 73.19) rotate(-6.48)"><path d="M 0 16.14 C -21.13 1.92, -23.05 -13.45, -9.22 -3.07 C -0.77 -16.14, 0.77 -16.14, 9.22 -3.07 C 23.05 -13.45, 21.13 1.92, 0 16.14 Z" fill="#F87171" stroke="rgba(255,255,255,0.55)" stroke-width="1.2" /></g>
    <g transform="translate(448.18 68.55) rotate(-4.76)"><circle cx="0" cy="0" r="14.80" fill="#A78BFA" stroke="rgba(255,255,255,0.55)" stroke-width="1.4" /><circle cx="-5.33" cy="-3.55" r="2.37" fill="#1F2937" /><circle cx="5.33" cy="-3.55" r="2.37" fill="#1F2937" /><path d="M -11.25 4.14 Q 0 10.06 11.25 4.14" fill="none" stroke="#1F2937" stroke-width="2.2" stroke-linecap="round" /></g>
    <g transform="translate(285.46 400.45) rotate(-14.14)"><polygon points="0.00,-21.02 5.39,-7.42 19.99,-6.49 8.72,2.83 12.35,17.00 0.00,9.17 -12.35,17.00 -8.72,2.83 -19.99,-6.49 -5.39,-7.42" fill="#4ADE80" stroke="rgba(255,255,255,0.55)" stroke-width="1.4" /></g>
    <g transform="translate(49.88 335.37) rotate(-24.82)"><polygon points="0.00,-17.00 4.36,-6.00 16.16,-5.25 7.05,2.29 9.99,13.75 0.00,7.42 -9.99,13.75 -7.05,2.29 -16.16,-5.25 -4.36,-6.00" fill="#22D3EE" stroke="rgba(255,255,255,0.55)" stroke-width="1.4" /></g>
    <g transform="translate(835.19 196.00) rotate(-1.13)"><circle cx="0" cy="0" r="20.44" fill="#C084FC" stroke="rgba(255,255,255,0.55)" stroke-width="1.4" /><circle cx="-7.36" cy="-4.90" r="3.27" fill="#1F2937" /><circle cx="7.36" cy="-4.90" r="3.27" fill="#1F2937" /><path d="M -15.53 5.72 Q 0 13.90 15.53 5.72" fill="none" stroke="#1F2937" stroke-width="2.2" stroke-linecap="round" /></g>
    <g transform="translate(137.66 392.96) rotate(5.19)"><circle cx="0" cy="0" r="15.14" fill="#FB7185" stroke="rgba(255,255,255,0.55)" stroke-width="1.4" /><circle cx="-5.45" cy="-3.63" r="2.42" fill="#1F2937" /><circle cx="5.45" cy="-3.63" r="2.42" fill="#1F2937" /><path d="M -11.51 4.24 Q 0 10.29 11.51 4.24" fill="none" stroke="#1F2937" stroke-width="2.2" stroke-linecap="round" /></g>
    <g transform="translate(754.95 70.02) rotate(-6.58)"><path d="M 0 16.63 C -21.78 1.98, -23.76 -13.86, -9.51 -3.17 C -0.79 -16.63, 0.79 -16.63, 9.51 -3.17 C 23.76 -13.86, 21.78 1.98, 0 16.63 Z" fill="#FB7185" stroke="rgba(255,255,255,0.55)" stroke-width="1.2" /></g>
  </g>
</svg>
