<svg xmlns="http://www.w3.org/2000/svg" width="960" height="600" viewBox="0 0 960 600">
  <defs>
    <linearGradient id="bg75" x1="0%" y1="0%" x2="100%" y2="100%">
      <stop offset="0%" stop-color="#0F172A" />
      <stop offset="100%" stop-color="#1D4ED8" />
    </linearGradient>
    <filter id="shadow75" x="-20%" y="-20%" width="140%" height="140%">
      <feDropShadow dx="0" dy="2" stdDeviation="1.8" flood-color="rgba(0,0,0,0.36)" />
    </filter>
  </defs>

  <rect width="960" height="600" fill="url(#bg75)" />
  <rect x="24" y="24" width="912" height="552" rx="20" fill="rgba(255,255,255,0.045)" stroke="rgba(255,255,255,0.22)" />
  <g filter="url(#shadow75)">
    <g transform="translate(211.17 130.41) rotate(20.12)"><polygon points="-19.17,-6.90 3.07,-6.90 3.07,-14.57 21.08,0.00 3.07,14.57 3.07,6.90 -19.17,6.90" fill="#4ADE80" stroke="rgba(255,255,255,0.55)" stroke-width="1.2" /></g>
    <g transform="translate(836.07 325.32) rotate(20.85)"><path d="M 0 15.56 C -20.38 1.85, -22.23 -12.97, -8.89 -2.96 C -0.74 -15.56, 0.74 -15.56, 8.89 -2.96 C 22.23 -12.97, 20.38 1.85, 0 15.56 Z" fill="#FB7185" stroke="rgba(255,255,255,0.55)" stroke-width="1.2" /></g>
    <g transform="translate(907.91 325.83) rotate(-13.66)"><polygon points="-17.74,-6.39 2.84,-6.39 2.84,-13.48 19.51,0.00 2.84,13.48 2.84,6.39 -17.74,6.39" fill="#60A5FA" stroke="rgba(255,255,255,0.55)" stroke-width="1.2" /></g>
    <g transform="translate(525.11 259.44) rotate(-4.92)"><circle cx="0" cy="0" r="16.01" fill="#22D3EE" stroke="rgba(255,255,255,0.55)" stroke-width="1.4" /><circle cx="-5.76" cy="-3.84" r="2.56" fill="#1F2937" /><circle cx="5.76" cy="-3.84" r="2.56" fill="#1F2937" /><path d="M -12.17 4.48 Q 0 10.89 12.17 4.48" fill="none" stroke="#1F2937" stroke-width="2.2" stroke-linecap="round" /></g>
    <g transform="translate(826.31 134.76) rotate(3.57)"><circle cx="0" cy="0" r="14.02" fill="#FBBF24" stroke="rgba(255,255,255,0.55)" stroke-width="1.4" /><circle cx="-5.05" cy="-3.37" r="2.24" fill="#1F2937" /><circle cx="5.05" cy="-3.37" r="2.24" fill="#1F2937" /><path d="M -10.66 3.93 Q 0 9.54 10.66 3.93" fill="none" stroke="#1F2937" stroke-width="2.2" stroke-linecap="round" /></g>
    <g transform="translate(604.01 204.70) rotate(-21.20)"><path d="M 0 13.30 C -17.42 1.58, -19.00 -11.08, -7.60 -2.53 C -0.63 -13.30, 0.63 -13.30, 7.60 -2.53 C 19.00 -11.08, 17.42 1.58, 0 13.30 Z" fill="#34D399" stroke="rgba(255,255,255,0.55)" stroke-width="1.2" /></g>
    <g transform="translate(360.63 525.30) rotate(1.82)"><circle cx="0" cy="0" r="18.67" fill="#22D3EE" stroke="rgba(255,255,255,0.55)" stroke-width="1.4" /><circle cx="-6.72" cy="-4.48" r="2.99" fill="#1F2937" /><circle cx="6.72" cy="-4.48" r="2.99" fill="#1F2937" /><path d="M -14.19 5.23 Q 0 12.69 14.19 5.23" fill="none" stroke="#1F2937" stroke-width="2.2" stroke-linecap="round" /></g>
    <g transform="translate(903.70 467.85) rotate(-24.52)"><path d="M 0 16.05 C -21.01 1.91, -22.92 -13.37, -9.17 -3.06 C -0.76 -16.05, 0.76 -16.05, 9.17 -3.06 C 22.92 -13.37, 21.01 1.91, 0 16.05 Z" fill="#FB7185" stroke="rgba(255,255,255,0.55)" stroke-width="1.2" /></g>
    <g transform="translate(512.36 128.03) rotate(-9.44)"><path d="M 0 16.28 C -21.32 1.94, -23.25 -13.57, -9.30 -3.10 C -0.78 -16.28, 0.78 -16.28, 9.30 -3.10 C 23.25 -13.57, 21.32 1.94, 0 16.28 Z" fill="#F97316" stroke="rgba(255,255,255,0.55)" stroke-width="1.2" /></g>
    <g transform="translate(674.24 402.11) rotate(24.96)"><polygon points="-16.60,-5.98 2.66,-5.98 2.66,-12.62 18.26,0.00 2.66,12.62 2.66,5.98 -16.60,5.98" fill="#F87171" stroke="rgba(255,255,255,0.55)" stroke-width="1.2" /></g>
    <g transform="translate(46.91 201.91) rotate(5.69)"><rect x="-15.85" y="-4.67" width="31.70" height="9.34" rx="4.67" fill="#34D399" /><rect x="-4.67" y="-15.85" width="9.34" height="31.70" rx="4.67" fill="#34D399" /></g>
    <g transform="translate(759.73 465.91) rotate(-1.93)"><circle cx="0" cy="0" r="16.27" fill="#A78BFA" stroke="rgba(255,255,255,0.55)" stroke-width="1.4" /><circle cx="-5.86" cy="-3.90" r="2.60" fill="#1F2937" /><circle cx="5.86" cy="-3.90" r="2.60" fill="#1F2937" /><path d="M -12.36 4.56 Q 0 11.06 12.36 4.56" fill="none" stroke="#1F2937" stroke-width="2.2" stroke-linecap="round" /></g>
    <g transform="translate(46.66 333.72) rotate(-6.64)"><circle cx="0" cy="0" r="17.39" fill="#4ADE80" stroke="rgba(255,255,255,0.55)" stroke-width="1.4" /><circle cx="-6.26" cy="-4.17" r="2.78" fill="#1F2937" /><circle cx="6.26" cy="-4.17" r="2.78" fill="#1F2937" /><path d="M -13.22 4.87 Q 0 11.83 13.22 4.87" fill="none" stroke="#1F2937" stroke-width="2.2" stroke-linecap="round" /></g>
    <g transform="translate(900.36 269.81) rotate(-10.85)"><path d="M 0 12.62 C -16.52 1.50, -18.02 -10.51, -7.21 -2.40 C -0.60 -12.62, 0.60 -12.62, 7.21 -2.40 C 18.02 -10.51, 16.52 1.50, 0 12.62 Z" fill="#FB7185" stroke="rgba(255,255,255,0.55)" stroke-width="1.2" /></g>
    <g transform="translate(904.93 528.98) rotate(-10.06)"><path d="M 0 14.19 C -18.58 1.69, -20.27 -11.83, -8.11 -2.70 C -0.68 -14.19, 0.68 -14.19, 8.11 -2.70 C 20.27 -11.83, 18.58 1.69, 0 14.19 Z" fill="#22D3EE" stroke="rgba(255,255,255,0.55)" stroke-width="1.2" /></g>
    <g transform="translate(593.86 130.56) rotate(-25.57)"><polygon points="-16.00,-5.76 2.56,-5.76 2.56,-12.16 17.60,0.00 2.56,12.16 2.56,5.76 -16.00,5.76" fill="#FB7185" stroke="rgba(255,255,255,0.55)" stroke-width="1.2" /></g>
    <g transform="translate(744.94 535.97) rotate(3.04)"><circle cx="0" cy="0" r="15.15" fill="#F87171" stroke="rgba(255,255,255,0.55)" stroke-width="1.4" /><circle cx="-5.45" cy="-3.64" r="2.42" fill="#1F2937" /><circle cx="5.45" cy="-3.64" r="2.42" fill="#1F2937" /><path d="M -11.52 4.24 Q 0 10.30 11.52 4.24" fill="none" stroke="#1F2937" stroke-width="2.2" stroke-linecap="round" /></g>
    <g transform="translate(835.18 267.16) rotate(-7.41)"><path d="M 0 13.95 C -18.27 1.66, -19.94 -11.63, -7.97 -2.66 C -0.66 -13.95, 0.66 -13.95, 7.97 -2.66 C 19.94 -11.63, 18.27 1.66, 0 13.95 Z" fill="#34D399" stroke="rgba(255,255,255,0.55)" stroke-width="1.2" /></g>
    <g transform="translate(670.34 523.94) rotate(7.41)"><circle cx="0" cy="0" r="18.38" fill="#F87171" stroke="rgba(255,255,255,0.55)" stroke-width="1.4" /><circle cx="-6.62" cy="-4.41" r="2.94" fill="#1F2937" /><circle cx="6.62" cy="-4.41" r="2.94" fill="#1F2937" /><path d="M -13.97 5.15 Q 0 12.50 13.97 5.15" fill="none" stroke="#1F2937" stroke-width="2.2" stroke-linecap="round" /></g>
    <g transform="translate(825.37 71.73) rotate(20.76)"><polygon points="-15.69,-5.65 2.51,-5.65 2.51,-11.93 17.26,0.00 2.51,11.93 2.51,5.65 -15.69,5.65" fill="#F87171" stroke="rgba(255,255,255,0.55)" stroke-width="1.2" /></g>
    <g transform="translate(525.79 200.68) rotate(2.24)"><circle cx="0" cy="0" r="15.50" fill="#FBBF24" stroke="rgba(255,255,255,0.55)" stroke-width="1.4" /><circle cx="-5.58" cy="-3.72" r="2.48" fill="#1F2937" /><circle cx="5.58" cy="-3.72" r="2.48" fill="#1F2937" /><path d="M -11.78 4.34 Q 0 10.54 11.78 4.34" fill="none" stroke="#1F2937" stroke-width="2.2" stroke-linecap="round" /></g>
    <g transform="translate(278.95 74.26) rotate(13.11)"><polygon points="-15.92,-5.73 2.55,-5.73 2.55,-12.10 17.51,0.00 2.55,12.10 2.55,5.73 -15.92,5.73" fill="#60A5FA" stroke="rgba(255,255,255,0.55)" stroke-width="1.2" /></g>
    <g transform="translate(359.55 459.85) rotate(11.72)"><path d="M 0 14.29 C -18.72 1.70, -20.42 -11.91, -8.17 -2.72 C -0.68 -14.29, 0.68 -14.29, 8.17 -2.72 C 20.42 -11.91, 18.72 1.70, 0 14.29 Z" fill="#F87171" stroke="rgba(255,255,255,0.55)" stroke-width="1.2" /></g>
    <g transform="translate(755.10 202.49) rotate(0.20)"><polygon points="-16.35,-5.89 2.62,-5.89 2.62,-12.43 17.99,0.00 2.62,12.43 2.62,5.89 -16.35,5.89" fill="#F97316" stroke="rgba(255,255,255,0.55)" stroke-width="1.2" /></g>
    <g transform="translate(595.76 338.99) rotate(26.63)"><polygon points="-19.51,-7.02 3.12,-7.02 3.12,-14.82 21.46,0.00 3.12,14.82 3.12,7.02 -19.51,7.02" fill="#FBBF24" stroke="rgba(255,255,255,0.55)" stroke-width="1.2" /></g>
    <g transform="translate(515.43 534.75) rotate(4.77)"><polygon points="-16.90,-6.08 2.70,-6.08 2.70,-12.85 18.59,0.00 2.70,12.85 2.70,6.08 -16.90,6.08" fill="#60A5FA" stroke="rgba(255,255,255,0.55)" stroke-width="1.2" /></g>
    <g transform="translate(54.97 528.63) rotate(-0.82)"><circle cx="0" cy="0" r="19.71" fill="#60A5FA" stroke="rgba(255,255,255,0.55)" stroke-width="1.4" /><circle cx="-7.10" cy="-4.73" r="3.15" fill="#1F2937" /><circle cx="7.10" cy="-4.73" r="3.15" fill="#1F2937" /><path d="M -14.98 5.52 Q 0 13.40 14.98 5.52" fill="none" stroke="#1F2937" stroke-width="2.2" stroke-linecap="round" /></g>
    <g transform="translate(673.95 463.07) rotate(26.75)"><polygon points="-19.30,-6.95 3.09,-6.95 3.09,-14.67 21.23,0.00 3.09,14.67 3.09,6.95 -19.30,6.95" fill="#FBBF24" stroke="rgba(255,255,255,0.55)" stroke-width="1.2" /></g>
    <g transform="translate(755.23 403.71) rotate(-1.63)"><circle cx="0" cy="0" r="18.10" fill="#A78BFA" stroke="rgba(255,255,255,0.55)" stroke-width="1.4" /><circle cx="-6.52" cy="-4.34" r="2.90" fill="#1F2937" /><circle cx="6.52" cy="-4.34" r="2.90" fill="#1F2937" /><path d="M -13.75 5.07 Q 0 12.31 13.75 5.07" fill="none" stroke="#1F2937" stroke-width="2.2" stroke-linecap="round" /></g>
  </g>
</svg>
