<svg xmlns="http://www.w3.org/2000/svg" width="960" height="600" viewBox="0 0 960 600">
  <defs>
    <linearGradient id="bg122" x1="0%" y1="0%" x2="100%" y2="100%">
      <stop offset="0%" stop-color="#0F172A" />
      <stop offset="100%" stop-color="#1D4ED8" />
    </linearGradient>
    <filter id="shadow122" x="-20%" y="-20%" width="140%" height="140%">
      <feDropShadow dx="0" dy="2" stdDeviation="1.8" flood-color="rgba(0,0,0,0.36)" />
    </filter>
  </defs>

  <rect width="960" height="600" fill="url(#bg122)" />
  <rect x="24" y="24" width="912" height="552" rx="20" fill="rgba(255,255,255,0.045)" stroke="rgba(255,255,255,0.22)" />
  <g filter="url(#shadow122)">
    <g transform="translate(903.54 404.64) rotate(-10.85)"><polygon points="0,-22.81 20.45,15.73 -20.45,15.73" fill="#F87171" stroke="rgba(255,255,255,0.55)" stroke-width="1.4" /></g>
    <g transform="translate(674.58 325.44) rotate(11.08)"><polygon points="0,-21.14 18.96,14.58 -18.96,14.58" fill="#4ADE80" stroke="rgba(255,255,255,0.55)" stroke-width="1.4" /></g>
    <g transform="translate(824.75 462.21) rotate(11.29)"><polygon points="0.00,-16.90 4.33,-5.97 16.07,-5.22 7.01,2.28 9.93,13.67 0.00,7.37 -9.93,13.67 -7.01,2.28 -16.07,-5.22 -4.33,-5.97" fill="#FB7185" stroke="rgba(255,255,255,0.55)" stroke-width="1.4" /></g>
    <g transform="translate(837.11 130.50) rotate(27.65)"><polygon points="0.00,-21.98 5.64,-7.76 20.91,-6.79 9.12,2.96 12.92,17.79 0.00,9.59 -12.92,17.79 -9.12,2.96 -20.91,-6.79 -5.64,-7.76" fill="#60A5FA" stroke="rgba(255,255,255,0.55)" stroke-width="1.4" /></g>
    <g transform="translate(827.31 66.69) rotate(3.41)"><polygon points="0,-22.62 20.28,15.60 -20.28,15.60" fill="#F87171" stroke="rgba(255,255,255,0.55)" stroke-width="1.4" /></g>
    <g transform="translate(598.13 397.40) rotate(3.10)"><path d="M 0 14.00 C -18.33 1.67, -20.00 -11.67, -8.00 -2.67 C -0.67 -14.00, 0.67 -14.00, 8.00 -2.67 C 20.00 -11.67, 18.33 1.67, 0 14.00 Z" fill="#C084FC" stroke="rgba(255,255,255,0.55)" stroke-width="1.2" /></g>
    <g transform="translate(49.61 399.76) rotate(14.46)"><polygon points="0,-20.54 18.41,14.17 -18.41,14.17" fill="#4ADE80" stroke="rgba(255,255,255,0.55)" stroke-width="1.4" /></g>
    <g transform="translate(448.44 526.51) rotate(19.93)"><path d="M 0 17.43 C -22.82 2.07, -24.89 -14.52, -9.96 -3.32 C -0.83 -17.43, 0.83 -17.43, 9.96 -3.32 C 24.89 -14.52, 22.82 2.07, 0 17.43 Z" fill="#60A5FA" stroke="rgba(255,255,255,0.55)" stroke-width="1.2" /></g>
    <g transform="translate(283.92 470.69) rotate(-14.99)"><polygon points="0.00,-15.95 4.09,-5.63 15.17,-4.93 6.62,2.15 9.37,12.90 0.00,6.96 -9.37,12.90 -6.62,2.15 -15.17,-4.93 -4.09,-5.63" fill="#FB7185" stroke="rgba(255,255,255,0.55)" stroke-width="1.4" /></g>
    <g transform="translate(680.63 259.33) rotate(-1.77)"><polygon points="0.00,-19.07 4.89,-6.73 18.14,-5.89 7.91,2.57 11.21,15.43 0.00,8.32 -11.21,15.43 -7.91,2.57 -18.14,-5.89 -4.89,-6.73" fill="#A78BFA" stroke="rgba(255,255,255,0.55)" stroke-width="1.4" /></g>
    <g transform="translate(355.28 143.02) rotate(-22.65)"><polygon points="0,-23.36 20.94,16.11 -20.94,16.11" fill="#F87171" stroke="rgba(255,255,255,0.55)" stroke-width="1.4" /></g>
    <g transform="translate(909.01 333.53) rotate(-18.09)"><polygon points="0.00,-15.98 4.10,-5.64 15.20,-4.94 6.63,2.15 9.39,12.93 0.00,6.97 -9.39,12.93 -6.63,2.15 -15.20,-4.94 -4.10,-5.64" fill="#4ADE80" stroke="rgba(255,255,255,0.55)" stroke-width="1.4" /></g>
    <g transform="translate(278.21 395.52) rotate(-3.54)"><path d="M 0 16.94 C -22.18 2.02, -24.20 -14.11, -9.68 -3.23 C -0.81 -16.94, 0.81 -16.94, 9.68 -3.23 C 24.20 -14.11, 22.18 2.02, 0 16.94 Z" fill="#F97316" stroke="rgba(255,255,255,0.55)" stroke-width="1.2" /></g>
    <g transform="translate(46.97 266.18) rotate(13.08)"><polygon points="0.00,-22.65 5.81,-8.00 21.54,-7.00 9.40,3.05 13.31,18.32 0.00,9.88 -13.31,18.32 -9.40,3.05 -21.54,-7.00 -5.81,-8.00" fill="#F97316" stroke="rgba(255,255,255,0.55)" stroke-width="1.4" /></g>
    <g transform="translate(669.29 72.59) rotate(18.96)"><path d="M 0 17.13 C -22.43 2.04, -24.47 -14.27, -9.79 -3.26 C -0.82 -17.13, 0.82 -17.13, 9.79 -3.26 C 24.47 -14.27, 22.43 2.04, 0 17.13 Z" fill="#C084FC" stroke="rgba(255,255,255,0.55)" stroke-width="1.2" /></g>
    <g transform="translate(754.45 338.18) rotate(19.73)"><rect x="-18.03" y="-5.31" width="36.06" height="10.63" rx="5.31" fill="#FB7185" /><rect x="-5.31" y="-18.03" width="10.63" height="36.06" rx="5.31" fill="#FB7185" /></g>
    <g transform="translate(914.93 266.76) rotate(0.10)"><polygon points="0.00,-18.78 4.82,-6.63 17.86,-5.80 7.79,2.53 11.04,15.19 0.00,8.19 -11.04,15.19 -7.79,2.53 -17.86,-5.80 -4.82,-6.63" fill="#22D3EE" stroke="rgba(255,255,255,0.55)" stroke-width="1.4" /></g>
    <g transform="translate(205.13 395.95) rotate(1.56)"><polygon points="0.00,-18.83 4.83,-6.65 17.91,-5.82 7.81,2.54 11.07,15.23 0.00,8.22 -11.07,15.23 -7.81,2.54 -17.91,-5.82 -4.83,-6.65" fill="#FB7185" stroke="rgba(255,255,255,0.55)" stroke-width="1.4" /></g>
    <g transform="translate(754.94 205.85) rotate(-25.53)"><rect x="-19.41" y="-5.72" width="38.82" height="11.44" rx="5.72" fill="#4ADE80" /><rect x="-5.72" y="-19.41" width="11.44" height="38.82" rx="5.72" fill="#4ADE80" /></g>
    <g transform="translate(52.61 209.37) rotate(20.79)"><polygon points="0,-16.94 15.19,11.68 -15.19,11.68" fill="#60A5FA" stroke="rgba(255,255,255,0.55)" stroke-width="1.4" /></g>
    <g transform="translate(364.95 329.12) rotate(4.06)"><path d="M 0 15.04 C -19.69 1.79, -21.49 -12.53, -8.59 -2.86 C -0.72 -15.04, 0.72 -15.04, 8.59 -2.86 C 21.49 -12.53, 19.69 1.79, 0 15.04 Z" fill="#C084FC" stroke="rgba(255,255,255,0.55)" stroke-width="1.2" /></g>
    <g transform="translate(908.37 64.45) rotate(-14.32)"><polygon points="0,-21.53 19.30,14.85 -19.30,14.85" fill="#34D399" stroke="rgba(255,255,255,0.55)" stroke-width="1.4" /></g>
    <g transform="translate(211.17 202.21) rotate(-5.79)"><polygon points="0,-18.86 16.91,13.00 -16.91,13.00" fill="#FBBF24" stroke="rgba(255,255,255,0.55)" stroke-width="1.4" /></g>
    <g transform="translate(366.27 405.86) rotate(8.62)"><polygon points="0.00,-16.16 4.15,-5.71 15.37,-4.99 6.71,2.18 9.50,13.07 0.00,7.05 -9.50,13.07 -6.71,2.18 -15.37,-4.99 -4.15,-5.71" fill="#FBBF24" stroke="rgba(255,255,255,0.55)" stroke-width="1.4" /></g>
    <g transform="translate(749.95 139.00) rotate(13.84)"><polygon points="0.00,-15.44 3.96,-5.45 14.69,-4.77 6.41,2.08 9.08,12.50 0.00,6.74 -9.08,12.50 -6.41,2.08 -14.69,-4.77 -3.96,-5.45" fill="#A78BFA" stroke="rgba(255,255,255,0.55)" stroke-width="1.4" /></g>
    <g transform="translate(526.42 470.35) rotate(26.81)"><rect x="-17.76" y="-5.23" width="35.52" height="10.47" rx="5.23" fill="#4ADE80" /><rect x="-5.23" y="-17.76" width="10.47" height="35.52" rx="5.23" fill="#4ADE80" /></g>
    <g transform="translate(59.19 63.79) rotate(11.71)"><polygon points="0,-21.46 19.24,14.80 -19.24,14.80" fill="#60A5FA" stroke="rgba(255,255,255,0.55)" stroke-width="1.4" /></g>
    <g transform="translate(518.39 130.51) rotate(27.61)"><polygon points="0,-16.12 14.46,11.12 -14.46,11.12" fill="#C084FC" stroke="rgba(255,255,255,0.55)" stroke-width="1.4" /></g>
  </g>
</svg>
