<svg xmlns="http://www.w3.org/2000/svg" width="960" height="600" viewBox="0 0 960 600">
  <defs>
    <linearGradient id="bg177" x1="0%" y1="0%" x2="100%" y2="100%">
      <stop offset="0%" stop-color="#0F172A" />
      <stop offset="100%" stop-color="#1D4ED8" />
    </linearGradient>
    <filter id="shadow177" x="-20%" y="-20%" width="140%" height="140%">
      <feDropShadow dx="0" dy="2" stdDeviation="1.8" flood-color="rgba(0,0,0,0.36)" />
    </filter>
  </defs>

  <rect width="960" height="600" fill="url(#bg177)" />
  <rect x="24" y="24" width="912" height="552" rx="20" fill="rgba(255,255,255,0.045)" stroke="rgba(255,255,255,0.22)" />
  <g filter="url(#shadow177)">
    <g transform="translate(50.22 196.04) rotate(10.97)"><path d="M 0 17.37 C -22.75 2.07, -24.82 -14.48, -9.93 -3.31 C -0.83 -17.37, 0.83 -17.37, 9.93 -3.31 C 24.82 -14.48, 22.75 2.07, 0 17.37 Z" fill="#A78BFA" stroke="rgba(255,255,255,0.55)" stroke-width="1.2" /></g>
    <g transform="translate(49.08 259.45) rotate(-18.06)"><rect x="-15.14" y="-4.46" width="30.27" height="8.92" rx="4.46" fill="#C084FC" /><rect x="-4.46" y="-15.14" width="8.92" height="30.27" rx="4.46" fill="#C084FC" /></g>
    <g transform="translate(603.27 399.32) rotate(20.96)"><polygon points="-14.65,-5.27 2.34,-5.27 2.34,-11.13 16.11,0.00 2.34,11.13 2.34,5.27 -14.65,5.27" fill="#F87171" stroke="rgba(255,255,255,0.55)" stroke-width="1.2" /></g>
    <g transform="translate(368.69 530.62) rotate(0.30)"><path d="M 0 17.11 C -22.41 2.04, -24.45 -14.26, -9.78 -3.26 C -0.81 -17.11, 0.81 -17.11, 9.78 -3.26 C 24.45 -14.26, 22.41 2.04, 0 17.11 Z" fill="#FB7185" stroke="rgba(255,255,255,0.55)" stroke-width="1.2" /></g>
    <g transform="translate(444.80 67.52) rotate(15.29)"><polygon points="-16.72,-6.02 2.68,-6.02 2.68,-12.71 18.39,0.00 2.68,12.71 2.68,6.02 -16.72,6.02" fill="#A78BFA" stroke="rgba(255,255,255,0.55)" stroke-width="1.2" /></g>
    <g transform="translate(129.43 534.03) rotate(-23.21)"><path d="M 0 16.95 C -22.20 2.02, -24.21 -14.13, -9.69 -3.23 C -0.81 -16.95, 0.81 -16.95, 9.69 -3.23 C 24.21 -14.13, 22.20 2.02, 0 16.95 Z" fill="#FB7185" stroke="rgba(255,255,255,0.55)" stroke-width="1.2" /></g>
    <g transform="translate(446.79 530.63) rotate(19.01)"><path d="M 0 13.78 C -18.04 1.64, -19.68 -11.48, -7.87 -2.62 C -0.66 -13.78, 0.66 -13.78, 7.87 -2.62 C 19.68 -11.48, 18.04 1.64, 0 13.78 Z" fill="#F87171" stroke="rgba(255,255,255,0.55)" stroke-width="1.2" /></g>
    <g transform="translate(906.26 335.95) rotate(-18.37)"><polygon points="-15.22,-5.48 2.44,-5.48 2.44,-11.57 16.74,0.00 2.44,11.57 2.44,5.48 -15.22,5.48" fill="#C084FC" stroke="rgba(255,255,255,0.55)" stroke-width="1.2" /></g>
    <g transform="translate(132.97 135.69) rotate(10.56)"><rect x="-14.44" y="-4.26" width="28.89" height="8.51" rx="4.26" fill="#FB7185" /><rect x="-4.26" y="-14.44" width="8.51" height="28.89" rx="4.26" fill="#FB7185" /></g>
    <g transform="translate(672.77 206.19) rotate(23.55)"><rect x="-15.02" y="-4.43" width="30.04" height="8.85" rx="4.43" fill="#4ADE80" /><rect x="-4.43" y="-15.02" width="8.85" height="30.04" rx="4.43" fill="#4ADE80" /></g>
    <g transform="translate(47.28 406.34) rotate(5.15)"><rect x="-13.38" y="-3.94" width="26.76" height="7.89" rx="3.94" fill="#C084FC" /><rect x="-3.94" y="-13.38" width="7.89" height="26.76" rx="3.94" fill="#C084FC" /></g>
    <g transform="translate(441.37 393.57) rotate(20.11)"><polygon points="0,-15.93 15.93,0 0,15.93 -15.93,0" fill="#C084FC" stroke="rgba(255,255,255,0.55)" stroke-width="1.4" /></g>
    <g transform="translate(672.73 528.07) rotate(7.62)"><polygon points="-14.86,-5.35 2.38,-5.35 2.38,-11.29 16.34,0.00 2.38,11.29 2.38,5.35 -14.86,5.35" fill="#A78BFA" stroke="rgba(255,255,255,0.55)" stroke-width="1.2" /></g>
    <g transform="translate(215.57 142.66) rotate(8.28)"><polygon points="0,-15.71 15.71,0 0,15.71 -15.71,0" fill="#4ADE80" stroke="rgba(255,255,255,0.55)" stroke-width="1.4" /></g>
    <g transform="translate(517.03 68.95) rotate(-19.74)"><rect x="-14.26" y="-4.20" width="28.52" height="8.41" rx="4.20" fill="#FB7185" /><rect x="-4.20" y="-14.26" width="8.41" height="28.52" rx="4.20" fill="#FB7185" /></g>
    <g transform="translate(907.01 261.33) rotate(-19.05)"><path d="M 0 13.75 C -18.01 1.64, -19.64 -11.46, -7.86 -2.62 C -0.65 -13.75, 0.65 -13.75, 7.86 -2.62 C 19.64 -11.46, 18.01 1.64, 0 13.75 Z" fill="#4ADE80" stroke="rgba(255,255,255,0.55)" stroke-width="1.2" /></g>
    <g transform="translate(913.68 471.44) rotate(-8.25)"><polygon points="0,-17.11 17.11,0 0,17.11 -17.11,0" fill="#22D3EE" stroke="rgba(255,255,255,0.55)" stroke-width="1.4" /></g>
  </g>
</svg>
