<svg xmlns="http://www.w3.org/2000/svg" width="960" height="600" viewBox="0 0 960 600">
  <defs>
    <linearGradient id="bg104" x1="0%" y1="0%" x2="100%" y2="100%">
      <stop offset="0%" stop-color="#0F172A" />
      <stop offset="100%" stop-color="#1D4ED8" />
    </linearGradient>
    <filter id="shadow104" x="-20%" y="-20%" width="140%" height="140%">
      <feDropShadow dx="0" dy="2" stdDeviation="1.8" flood-color="rgba(0,0,0,0.36)" />
    </filter>
  </defs>

  <rect width="960" height="600" fill="url(#bg104)" />
  <rect x="24" y="24" width="912" height="552" rx="20" fill="rgba(255,255,255,0.045)" stroke="rgba(255,255,255,0.22)" />
  <g filter="url(#shadow104)">
    <g transform="translate(525.40 64.07) rotate(-25.55)"><rect x="-13.03" y="-13.03" width="26.05" height="26.05" rx="2.83" fill="#C084FC" stroke="rgba(255,255,255,0.55)" stroke-width="1.4" /></g>
    <g transform="translate(911.98 333.07) rotate(0.95)"><circle cx="0" cy="0" r="17.73" fill="#F97316" stroke="rgba(255,255,255,0.55)" stroke-width="1.4" /><circle cx="-6.38" cy="-4.25" r="2.84" fill="#1F2937" /><circle cx="6.38" cy="-4.25" r="2.84" fill="#1F2937" /><path d="M -13.47 4.96 Q 0 12.05 13.47 4.96" fill="none" stroke="#1F2937" stroke-width="2.2" stroke-linecap="round" /></g>
    <g transform="translate(58.89 200.31) rotate(27.74)"><circle cx="0" cy="0" r="17.82" fill="#F87171" stroke="rgba(255,255,255,0.55)" stroke-width="1.4" /></g>
    <g transform="translate(591.16 265.01) rotate(18.84)"><path d="M 0 12.50 C -16.37 1.49, -17.86 -10.42, -7.14 -2.38 C -0.60 -12.50, 0.60 -12.50, 7.14 -2.38 C 17.86 -10.42, 16.37 1.49, 0 12.50 Z" fill="#34D399" stroke="rgba(255,255,255,0.55)" stroke-width="1.2" /></g>
    <g transform="translate(133.72 333.74) rotate(3.41)"><circle cx="0" cy="0" r="18.09" fill="#4ADE80" /><circle cx="7.24" cy="-0.72" r="15.20" fill="#0B1A34" /></g>
    <g transform="translate(277.71 461.48) rotate(-11.09)"><circle cx="0" cy="0" r="18.64" fill="#A78BFA" stroke="rgba(255,255,255,0.55)" stroke-width="1.4" /></g>
    <g transform="translate(130.63 467.20) rotate(14.03)"><circle cx="0" cy="0" r="14.40" fill="#F97316" stroke="rgba(255,255,255,0.55)" stroke-width="1.4" /></g>
    <g transform="translate(831.23 533.77) rotate(27.03)"><rect x="-19.54" y="-5.76" width="39.07" height="11.52" rx="5.76" fill="#FBBF24" /><rect x="-5.76" y="-19.54" width="11.52" height="39.07" rx="5.76" fill="#FBBF24" /></g>
    <g transform="translate(514.73 265.72) rotate(-7.24)"><circle cx="0" cy="0" r="14.09" fill="#22D3EE" stroke="rgba(255,255,255,0.55)" stroke-width="1.4" /></g>
    <g transform="translate(289.41 398.10) rotate(-21.77)"><circle cx="0" cy="0" r="17.42" fill="#34D399" stroke="rgba(255,255,255,0.55)" stroke-width="1.4" /></g>
    <g transform="translate(46.39 461.67) rotate(-7.16)"><rect x="-18.48" y="-5.45" width="36.96" height="10.89" rx="5.45" fill="#C084FC" /><rect x="-5.45" y="-18.48" width="10.89" height="36.96" rx="5.45" fill="#C084FC" /></g>
    <g transform="translate(214.60 198.97) rotate(-0.02)"><circle cx="0" cy="0" r="18.26" fill="#34D399" stroke="rgba(255,255,255,0.55)" stroke-width="1.4" /><circle cx="-6.57" cy="-4.38" r="2.92" fill="#1F2937" /><circle cx="6.57" cy="-4.38" r="2.92" fill="#1F2937" /><path d="M -13.88 5.11 Q 0 12.42 13.88 5.11" fill="none" stroke="#1F2937" stroke-width="2.2" stroke-linecap="round" /></g>
    <g transform="translate(512.62 327.86) rotate(-7.23)"><circle cx="0" cy="0" r="14.65" fill="#A78BFA" stroke="rgba(255,255,255,0.55)" stroke-width="1.4" /></g>
    <g transform="translate(759.11 391.15) rotate(-13.84)"><circle cx="0" cy="0" r="15.29" fill="#60A5FA" stroke="rgba(255,255,255,0.55)" stroke-width="1.4" /></g>
    <g transform="translate(49.22 138.73) rotate(-17.83)"><polygon points="0.00,-16.23 4.16,-5.73 15.44,-5.02 6.74,2.19 9.54,13.13 0.00,7.08 -9.54,13.13 -6.74,2.19 -15.44,-5.02 -4.16,-5.73" fill="#F87171" stroke="rgba(255,255,255,0.55)" stroke-width="1.4" /></g>
    <g transform="translate(594.18 530.70) rotate(12.49)"><circle cx="0" cy="0" r="20.19" fill="#22D3EE" stroke="rgba(255,255,255,0.55)" stroke-width="1.4" /></g>
    <g transform="translate(906.64 70.21) rotate(-11.04)"><polygon points="0.00,-19.73 5.06,-6.97 18.77,-6.10 8.19,2.66 11.60,15.97 0.00,8.61 -11.60,15.97 -8.19,2.66 -18.77,-6.10 -5.06,-6.97" fill="#F97316" stroke="rgba(255,255,255,0.55)" stroke-width="1.4" /></g>
    <g transform="translate(519.30 206.33) rotate(15.30)"><rect x="-18.15" y="-18.15" width="36.29" height="36.29" rx="3.94" fill="#22D3EE" stroke="rgba(255,255,255,0.55)" stroke-width="1.4" /></g>
    <g transform="translate(442.38 535.65) rotate(-0.30)"><rect x="-16.38" y="-4.83" width="32.77" height="9.66" rx="4.83" fill="#FBBF24" /><rect x="-4.83" y="-16.38" width="9.66" height="32.77" rx="4.83" fill="#FBBF24" /></g>
    <g transform="translate(209.73 390.76) rotate(-0.44)"><circle cx="0" cy="0" r="18.70" fill="#A78BFA" /><circle cx="7.48" cy="-0.75" r="15.70" fill="#0B1A34" /></g>
    <g transform="translate(755.41 471.09) rotate(27.81)"><circle cx="0" cy="0" r="14.01" fill="#C084FC" stroke="rgba(255,255,255,0.55)" stroke-width="1.4" /></g>
    <g transform="translate(132.62 142.06) rotate(-14.85)"><rect x="-15.97" y="-15.97" width="31.94" height="31.94" rx="3.47" fill="#C084FC" stroke="rgba(255,255,255,0.55)" stroke-width="1.4" /></g>
    <g transform="translate(285.01 70.39) rotate(4.84)"><circle cx="0" cy="0" r="14.52" fill="#FBBF24" /><circle cx="5.81" cy="-0.58" r="12.20" fill="#0B1A34" /></g>
    <g transform="translate(210.19 529.01) rotate(8.54)"><circle cx="0" cy="0" r="16.17" fill="#C084FC" stroke="rgba(255,255,255,0.55)" stroke-width="1.4" /></g>
  </g>
</svg>
