<svg xmlns="http://www.w3.org/2000/svg" width="960" height="600" viewBox="0 0 960 600">
  <defs>
    <linearGradient id="bg29" x1="0%" y1="0%" x2="100%" y2="100%">
      <stop offset="0%" stop-color="#0F172A" />
      <stop offset="100%" stop-color="#1D4ED8" />
    </linearGradient>
    <filter id="shadow29" x="-20%" y="-20%" width="140%" height="140%">
      <feDropShadow dx="0" dy="2" stdDeviation="1.8" flood-color="rgba(0,0,0,0.36)" />
    </filter>
  </defs>

  <rect width="960" height="600" fill="url(#bg29)" />
  <rect x="24" y="24" width="912" height="552" rx="20" fill="rgba(255,255,255,0.045)" stroke="rgba(255,255,255,0.22)" />
  <g filter="url(#shadow29)">
    <g transform="translate(676.95 198.33) rotate(17.21)"><rect x="-15.19" y="-4.48" width="30.37" height="8.95" rx="4.48" fill="#F87171" /><rect x="-4.48" y="-15.19" width="8.95" height="30.37" rx="4.48" fill="#F87171" /></g>
    <g transform="translate(292.07 265.42) rotate(-10.89)"><path d="M 0 12.49 C -16.36 1.49, -17.85 -10.41, -7.14 -2.38 C -0.59 -12.49, 0.59 -12.49, 7.14 -2.38 C 17.85 -10.41, 16.36 1.49, 0 12.49 Z" fill="#FB7185" stroke="rgba(255,255,255,0.55)" stroke-width="1.2" /></g>
    <g transform="translate(747.36 466.61) rotate(-1.87)"><circle cx="0" cy="0" r="16.40" fill="#F87171" stroke="rgba(255,255,255,0.55)" stroke-width="1.4" /></g>
    <g transform="translate(204.76 464.32) rotate(-3.90)"><circle cx="0" cy="0" r="15.87" fill="#F97316" stroke="rgba(255,255,255,0.55)" stroke-width="1.4" /></g>
    <g transform="translate(48.07 470.42) rotate(-18.86)"><rect x="-17.59" y="-5.18" width="35.18" height="10.37" rx="5.18" fill="#60A5FA" /><rect x="-5.18" y="-17.59" width="10.37" height="35.18" rx="5.18" fill="#60A5FA" /></g>
    <g transform="translate(130.11 138.38) rotate(-15.80)"><rect x="-14.36" y="-4.23" width="28.72" height="8.46" rx="4.23" fill="#F97316" /><rect x="-4.23" y="-14.36" width="8.46" height="28.72" rx="4.23" fill="#F97316" /></g>
    <g transform="translate(512.04 259.86) rotate(0.19)"><rect x="-19.16" y="-19.16" width="38.32" height="38.32" rx="4.17" fill="#4ADE80" stroke="rgba(255,255,255,0.55)" stroke-width="1.4" /></g>
    <g transform="translate(824.09 466.68) rotate(-4.34)"><rect x="-16.24" y="-4.79" width="32.47" height="9.57" rx="4.79" fill="#F87171" /><rect x="-4.79" y="-16.24" width="9.57" height="32.47" rx="4.79" fill="#F87171" /></g>
    <g transform="translate(445.53 397.96) rotate(12.08)"><rect x="-15.20" y="-4.48" width="30.40" height="8.96" rx="4.48" fill="#22D3EE" /><rect x="-4.48" y="-15.20" width="8.96" height="30.40" rx="4.48" fill="#22D3EE" /></g>
    <g transform="translate(209.99 337.88) rotate(13.74)"><path d="M 0 16.51 C -21.62 1.97, -23.58 -13.76, -9.43 -3.14 C -0.79 -16.51, 0.79 -16.51, 9.43 -3.14 C 23.58 -13.76, 21.62 1.97, 0 16.51 Z" fill="#F87171" stroke="rgba(255,255,255,0.55)" stroke-width="1.2" /></g>
    <g transform="translate(445.94 466.18) rotate(25.46)"><rect x="-17.06" y="-17.06" width="34.12" height="34.12" rx="3.71" fill="#F87171" stroke="rgba(255,255,255,0.55)" stroke-width="1.4" /></g>
    <g transform="translate(746.90 70.72) rotate(27.58)"><rect x="-13.45" y="-13.45" width="26.90" height="26.90" rx="2.92" fill="#60A5FA" stroke="rgba(255,255,255,0.55)" stroke-width="1.4" /></g>
    <g transform="translate(356.32 269.83) rotate(0.52)"><circle cx="0" cy="0" r="17.62" fill="#4ADE80" stroke="rgba(255,255,255,0.55)" stroke-width="1.4" /></g>
    <g transform="translate(909.98 401.10) rotate(15.99)"><circle cx="0" cy="0" r="15.13" fill="#FB7185" stroke="rgba(255,255,255,0.55)" stroke-width="1.4" /></g>
    <g transform="translate(591.69 458.16) rotate(4.08)"><rect x="-18.65" y="-18.65" width="37.31" height="37.31" rx="4.06" fill="#60A5FA" stroke="rgba(255,255,255,0.55)" stroke-width="1.4" /></g>
    <g transform="translate(284.24 207.45) rotate(-15.09)"><rect x="-17.44" y="-5.14" width="34.87" height="10.28" rx="5.14" fill="#A78BFA" /><rect x="-5.14" y="-17.44" width="10.28" height="34.87" rx="5.14" fill="#A78BFA" /></g>
    <g transform="translate(205.07 395.16) rotate(-6.51)"><circle cx="0" cy="0" r="16.59" fill="#22D3EE" stroke="rgba(255,255,255,0.55)" stroke-width="1.4" /></g>
    <g transform="translate(601.72 264.40) rotate(-12.39)"><rect x="-19.24" y="-19.24" width="38.49" height="38.49" rx="4.18" fill="#60A5FA" stroke="rgba(255,255,255,0.55)" stroke-width="1.4" /></g>
    <g transform="translate(590.83 330.72) rotate(-11.54)"><rect x="-16.06" y="-4.73" width="32.12" height="9.47" rx="4.73" fill="#4ADE80" /><rect x="-4.73" y="-16.06" width="9.47" height="32.12" rx="4.73" fill="#4ADE80" /></g>
    <g transform="translate(826.27 332.84) rotate(-8.91)"><circle cx="0" cy="0" r="15.15" fill="#FBBF24" stroke="rgba(255,255,255,0.55)" stroke-width="1.4" /></g>
    <g transform="translate(822.79 404.91) rotate(16.03)"><circle cx="0" cy="0" r="14.70" fill="#FBBF24" stroke="rgba(255,255,255,0.55)" stroke-width="1.4" /></g>
  </g>
</svg>
