<svg xmlns="http://www.w3.org/2000/svg" width="960" height="600" viewBox="0 0 960 600">
  <defs>
    <linearGradient id="bg149" x1="0%" y1="0%" x2="100%" y2="100%">
      <stop offset="0%" stop-color="#0F172A" />
      <stop offset="100%" stop-color="#1D4ED8" />
    </linearGradient>
    <filter id="shadow149" x="-20%" y="-20%" width="140%" height="140%">
      <feDropShadow dx="0" dy="2" stdDeviation="1.8" flood-color="rgba(0,0,0,0.36)" />
    </filter>
  </defs>

  <rect width="960" height="600" fill="url(#bg149)" />
  <rect x="24" y="24" width="912" height="552" rx="20" fill="rgba(255,255,255,0.045)" stroke="rgba(255,255,255,0.22)" />
  <g filter="url(#shadow149)">
    <g transform="translate(517.78 405.16) rotate(4.65)"><rect x="-14.75" y="-4.35" width="29.51" height="8.70" rx="4.35" fill="#60A5FA" /><rect x="-4.35" y="-14.75" width="8.70" height="29.51" rx="4.35" fill="#60A5FA" /></g>
    <g transform="translate(287.42 526.23) rotate(13.95)"><polygon points="0,-18.52 16.61,12.77 -16.61,12.77" fill="#FBBF24" stroke="rgba(255,255,255,0.55)" stroke-width="1.4" /></g>
    <g transform="translate(603.10 266.65) rotate(26.31)"><rect x="-15.65" y="-4.61" width="31.30" height="9.22" rx="4.61" fill="#60A5FA" /><rect x="-4.61" y="-15.65" width="9.22" height="31.30" rx="4.61" fill="#60A5FA" /></g>
    <g transform="translate(827.04 533.81) rotate(-9.74)"><polygon points="0,-19.46 17.44,13.42 -17.44,13.42" fill="#C084FC" stroke="rgba(255,255,255,0.55)" stroke-width="1.4" /></g>
    <g transform="translate(203.76 331.51) rotate(18.44)"><rect x="-18.45" y="-5.44" width="36.90" height="10.87" rx="5.44" fill="#34D399" /><rect x="-5.44" y="-18.45" width="10.87" height="36.90" rx="5.44" fill="#34D399" /></g>
    <g transform="translate(673.93 131.58) rotate(21.05)"><rect x="-17.86" y="-17.86" width="35.73" height="35.73" rx="3.88" fill="#60A5FA" stroke="rgba(255,255,255,0.55)" stroke-width="1.4" /></g>
    <g transform="translate(47.64 466.69) rotate(-18.41)"><rect x="-17.78" y="-17.78" width="35.57" height="35.57" rx="3.87" fill="#C084FC" stroke="rgba(255,255,255,0.55)" stroke-width="1.4" /></g>
    <g transform="translate(904.18 534.78) rotate(-1.85)"><polygon points="-14.10,-5.08 2.26,-5.08 2.26,-10.72 15.51,0.00 2.26,10.72 2.26,5.08 -14.10,5.08" fill="#34D399" stroke="rgba(255,255,255,0.55)" stroke-width="1.2" /></g>
    <g transform="translate(126.31 528.81) rotate(2.30)"><circle cx="0" cy="0" r="17.72" fill="#FBBF24" /><circle cx="7.09" cy="-0.71" r="14.88" fill="#0B1A34" /></g>
    <g transform="translate(515.59 461.91) rotate(-0.05)"><polygon points="0,-18.31 16.42,12.63 -16.42,12.63" fill="#34D399" stroke="rgba(255,255,255,0.55)" stroke-width="1.4" /></g>
    <g transform="translate(44.42 142.38) rotate(-22.73)"><rect x="-15.79" y="-15.79" width="31.58" height="31.58" rx="3.43" fill="#A78BFA" stroke="rgba(255,255,255,0.55)" stroke-width="1.4" /></g>
    <g transform="translate(834.31 63.99) rotate(-6.39)"><circle cx="0" cy="0" r="18.24" fill="#C084FC" stroke="rgba(255,255,255,0.55)" stroke-width="1.4" /><circle cx="-6.56" cy="-4.38" r="2.92" fill="#1F2937" /><circle cx="6.56" cy="-4.38" r="2.92" fill="#1F2937" /><path d="M -13.86 5.11 Q 0 12.40 13.86 5.11" fill="none" stroke="#1F2937" stroke-width="2.2" stroke-linecap="round" /></g>
    <g transform="translate(673.54 526.35) rotate(2.48)"><polygon points="-16.84,-6.06 2.69,-6.06 2.69,-12.80 18.52,0.00 2.69,12.80 2.69,6.06 -16.84,6.06" fill="#60A5FA" stroke="rgba(255,255,255,0.55)" stroke-width="1.2" /></g>
    <g transform="translate(363.65 265.61) rotate(19.55)"><polygon points="-19.56,-7.04 3.13,-7.04 3.13,-14.87 21.52,0.00 3.13,14.87 3.13,7.04 -19.56,7.04" fill="#F97316" stroke="rgba(255,255,255,0.55)" stroke-width="1.2" /></g>
    <g transform="translate(291.21 328.12) rotate(-7.66)"><circle cx="0" cy="0" r="14.94" fill="#4ADE80" /><circle cx="5.98" cy="-0.60" r="12.55" fill="#0B1A34" /></g>
    <g transform="translate(831.46 197.05) rotate(-10.18)"><rect x="-13.44" y="-13.44" width="26.89" height="26.89" rx="2.92" fill="#22D3EE" stroke="rgba(255,255,255,0.55)" stroke-width="1.4" /></g>
    <g transform="translate(436.78 397.19) rotate(2.96)"><circle cx="0" cy="0" r="20.90" fill="#FB7185" stroke="rgba(255,255,255,0.55)" stroke-width="1.4" /><circle cx="-7.52" cy="-5.01" r="3.34" fill="#1F2937" /><circle cx="7.52" cy="-5.01" r="3.34" fill="#1F2937" /><path d="M -15.88 5.85 Q 0 14.21 15.88 5.85" fill="none" stroke="#1F2937" stroke-width="2.2" stroke-linecap="round" /></g>
    <g transform="translate(900.71 206.94) rotate(-20.76)"><polygon points="-20.44,-7.36 3.27,-7.36 3.27,-15.53 22.48,0.00 3.27,15.53 3.27,7.36 -20.44,7.36" fill="#60A5FA" stroke="rgba(255,255,255,0.55)" stroke-width="1.2" /></g>
    <g transform="translate(58.43 328.80) rotate(-21.28)"><rect x="-18.74" y="-5.52" width="37.48" height="11.05" rx="5.52" fill="#FB7185" /><rect x="-5.52" y="-18.74" width="11.05" height="37.48" rx="5.52" fill="#FB7185" /></g>
  </g>
</svg>
