<svg xmlns="http://www.w3.org/2000/svg" width="960" height="600" viewBox="0 0 960 600">
  <defs>
    <linearGradient id="bg169" x1="0%" y1="0%" x2="100%" y2="100%">
      <stop offset="0%" stop-color="#0F172A" />
      <stop offset="100%" stop-color="#1D4ED8" />
    </linearGradient>
    <filter id="shadow169" x="-20%" y="-20%" width="140%" height="140%">
      <feDropShadow dx="0" dy="2" stdDeviation="1.8" flood-color="rgba(0,0,0,0.36)" />
    </filter>
  </defs>

  <rect width="960" height="600" fill="url(#bg169)" />
  <rect x="24" y="24" width="912" height="552" rx="20" fill="rgba(255,255,255,0.045)" stroke="rgba(255,255,255,0.22)" />
  <g filter="url(#shadow169)">
    <g transform="translate(757.39 528.29) rotate(-7.51)"><rect x="-19.13" y="-5.64" width="38.26" height="11.28" rx="5.64" fill="#FB7185" /><rect x="-5.64" y="-19.13" width="11.28" height="38.26" rx="5.64" fill="#FB7185" /></g>
    <g transform="translate(518.55 331.87) rotate(-0.32)"><polygon points="-20.44,-7.36 3.27,-7.36 3.27,-15.53 22.48,0.00 3.27,15.53 3.27,7.36 -20.44,7.36" fill="#F97316" stroke="rgba(255,255,255,0.55)" stroke-width="1.2" /></g>
    <g transform="translate(435.90 266.54) rotate(-27.56)"><polygon points="0,-17.54 15.72,12.09 -15.72,12.09" fill="#A78BFA" stroke="rgba(255,255,255,0.55)" stroke-width="1.4" /></g>
    <g transform="translate(903.08 196.98) rotate(-25.70)"><polygon points="0.00,-16.28 4.18,-5.75 15.49,-5.03 6.76,2.20 9.57,13.17 0.00,7.10 -9.57,13.17 -6.76,2.20 -15.49,-5.03 -4.18,-5.75" fill="#F97316" stroke="rgba(255,255,255,0.55)" stroke-width="1.4" /></g>
    <g transform="translate(678.08 272.30) rotate(-5.46)"><polygon points="0,-22.79 20.43,15.72 -20.43,15.72" fill="#4ADE80" stroke="rgba(255,255,255,0.55)" stroke-width="1.4" /></g>
    <g transform="translate(751.37 69.53) rotate(7.18)"><rect x="-16.44" y="-4.85" width="32.89" height="9.69" rx="4.85" fill="#22D3EE" /><rect x="-4.85" y="-16.44" width="9.69" height="32.89" rx="4.85" fill="#22D3EE" /></g>
    <g transform="translate(47.99 470.06) rotate(20.31)"><polygon points="0,-19.30 17.30,13.31 -17.30,13.31" fill="#F87171" stroke="rgba(255,255,255,0.55)" stroke-width="1.4" /></g>
    <g transform="translate(911.02 534.98) rotate(-20.89)"><polygon points="0,-17.73 17.73,0 0,17.73 -17.73,0" fill="#34D399" stroke="rgba(255,255,255,0.55)" stroke-width="1.4" /></g>
    <g transform="translate(49.06 74.86) rotate(-14.77)"><rect x="-17.52" y="-5.17" width="35.05" height="10.33" rx="5.17" fill="#A78BFA" /><rect x="-5.17" y="-17.52" width="10.33" height="35.05" rx="5.17" fill="#A78BFA" /></g>
    <g transform="translate(286.43 396.08) rotate(-23.28)"><polygon points="0,-23.09 20.70,15.93 -20.70,15.93" fill="#60A5FA" stroke="rgba(255,255,255,0.55)" stroke-width="1.4" /></g>
    <g transform="translate(55.75 267.46) rotate(-22.03)"><polygon points="-20.93,-7.53 3.35,-7.53 3.35,-15.91 23.02,0.00 3.35,15.91 3.35,7.53 -20.93,7.53" fill="#60A5FA" stroke="rgba(255,255,255,0.55)" stroke-width="1.2" /></g>
    <g transform="translate(128.92 526.01) rotate(-12.94)"><polygon points="0,-20.24 20.24,0 0,20.24 -20.24,0" fill="#F97316" stroke="rgba(255,255,255,0.55)" stroke-width="1.4" /></g>
    <g transform="translate(746.60 328.60) rotate(1.10)"><polygon points="-15.60,-5.61 2.50,-5.61 2.50,-11.85 17.16,0.00 2.50,11.85 2.50,5.61 -15.60,5.61" fill="#22D3EE" stroke="rgba(255,255,255,0.55)" stroke-width="1.2" /></g>
    <g transform="translate(439.01 393.70) rotate(16.49)"><polygon points="0.00,-19.33 4.96,-6.82 18.38,-5.97 8.02,2.61 11.36,15.64 0.00,8.43 -11.36,15.64 -8.02,2.61 -18.38,-5.97 -4.96,-6.82" fill="#C084FC" stroke="rgba(255,255,255,0.55)" stroke-width="1.4" /></g>
    <g transform="translate(516.26 467.78) rotate(-3.67)"><polygon points="0,-14.79 14.79,0 0,14.79 -14.79,0" fill="#34D399" stroke="rgba(255,255,255,0.55)" stroke-width="1.4" /></g>
    <g transform="translate(678.79 392.14) rotate(19.15)"><polygon points="0.00,-16.45 4.22,-5.81 15.64,-5.08 6.83,2.22 9.67,13.31 0.00,7.18 -9.67,13.31 -6.83,2.22 -15.64,-5.08 -4.22,-5.81" fill="#F87171" stroke="rgba(255,255,255,0.55)" stroke-width="1.4" /></g>
    <g transform="translate(215.51 133.65) rotate(4.27)"><polygon points="-16.39,-5.90 2.62,-5.90 2.62,-12.46 18.03,0.00 2.62,12.46 2.62,5.90 -16.39,5.90" fill="#F87171" stroke="rgba(255,255,255,0.55)" stroke-width="1.2" /></g>
    <g transform="translate(282.54 201.88) rotate(-19.40)"><polygon points="-16.98,-6.11 2.72,-6.11 2.72,-12.91 18.68,0.00 2.72,12.91 2.72,6.11 -16.98,6.11" fill="#C084FC" stroke="rgba(255,255,255,0.55)" stroke-width="1.2" /></g>
    <g transform="translate(754.57 139.74) rotate(-20.03)"><polygon points="-14.90,-5.36 2.38,-5.36 2.38,-11.32 16.39,0.00 2.38,11.32 2.38,5.36 -14.90,5.36" fill="#A78BFA" stroke="rgba(255,255,255,0.55)" stroke-width="1.2" /></g>
    <g transform="translate(442.16 469.26) rotate(20.42)"><rect x="-13.68" y="-4.03" width="27.36" height="8.06" rx="4.03" fill="#F87171" /><rect x="-4.03" y="-13.68" width="8.06" height="27.36" rx="4.03" fill="#F87171" /></g>
    <g transform="translate(131.54 209.23) rotate(6.10)"><polygon points="-15.01,-5.40 2.40,-5.40 2.40,-11.41 16.51,0.00 2.40,11.41 2.40,5.40 -15.01,5.40" fill="#FBBF24" stroke="rgba(255,255,255,0.55)" stroke-width="1.2" /></g>
  </g>
</svg>
