<svg xmlns="http://www.w3.org/2000/svg" width="960" height="600" viewBox="0 0 960 600">
  <defs>
    <linearGradient id="bg161" x1="0%" y1="0%" x2="100%" y2="100%">
      <stop offset="0%" stop-color="#0F172A" />
      <stop offset="100%" stop-color="#1D4ED8" />
    </linearGradient>
    <filter id="shadow161" x="-20%" y="-20%" width="140%" height="140%">
      <feDropShadow dx="0" dy="2" stdDeviation="1.8" flood-color="rgba(0,0,0,0.36)" />
    </filter>
  </defs>

  <rect width="960" height="600" fill="url(#bg161)" />
  <rect x="24" y="24" width="912" height="552" rx="20" fill="rgba(255,255,255,0.045)" stroke="rgba(255,255,255,0.22)" />
  <g filter="url(#shadow161)">
    <g transform="translate(122.11 329.15) rotate(10.06)"><polygon points="0.00,-16.64 4.27,-5.88 15.83,-5.14 6.91,2.24 9.78,13.46 0.00,7.26 -9.78,13.46 -6.91,2.24 -15.83,-5.14 -4.27,-5.88" fill="#34D399" stroke="rgba(255,255,255,0.55)" stroke-width="1.4" /></g>
    <g transform="translate(355.52 201.31) rotate(-23.63)"><polygon points="0.00,-21.25 5.45,-7.50 20.21,-6.57 8.82,2.87 12.49,17.19 0.00,9.27 -12.49,17.19 -8.82,2.87 -20.21,-6.57 -5.45,-7.50" fill="#FB7185" stroke="rgba(255,255,255,0.55)" stroke-width="1.4" /></g>
    <g transform="translate(518.04 329.10) rotate(4.42)"><polygon points="-14.38,-5.18 2.30,-5.18 2.30,-10.93 15.81,0.00 2.30,10.93 2.30,5.18 -14.38,5.18" fill="#34D399" stroke="rgba(255,255,255,0.55)" stroke-width="1.2" /></g>
    <g transform="translate(438.06 261.25) rotate(-5.96)"><rect x="-18.58" y="-5.48" width="37.17" height="10.96" rx="5.48" fill="#22D3EE" /><rect x="-5.48" y="-18.58" width="10.96" height="37.17" rx="5.48" fill="#22D3EE" /></g>
    <g transform="translate(136.21 461.97) rotate(18.50)"><polygon points="0.00,-20.08 5.15,-7.09 19.10,-6.20 8.33,2.71 11.80,16.24 0.00,8.76 -11.80,16.24 -8.33,2.71 -19.10,-6.20 -5.15,-7.09" fill="#F97316" stroke="rgba(255,255,255,0.55)" stroke-width="1.4" /></g>
    <g transform="translate(681.03 268.78) rotate(-17.27)"><polygon points="0.00,-19.06 4.89,-6.73 18.13,-5.89 7.91,2.57 11.20,15.42 0.00,8.32 -11.20,15.42 -7.91,2.57 -18.13,-5.89 -4.89,-6.73" fill="#60A5FA" stroke="rgba(255,255,255,0.55)" stroke-width="1.4" /></g>
    <g transform="translate(823.10 456.56) rotate(-26.09)"><polygon points="-17.41,-6.27 2.79,-6.27 2.79,-13.23 19.15,0.00 2.79,13.23 2.79,6.27 -17.41,6.27" fill="#22D3EE" stroke="rgba(255,255,255,0.55)" stroke-width="1.2" /></g>
    <g transform="translate(438.69 198.25) rotate(-9.73)"><polygon points="-16.96,-6.11 2.71,-6.11 2.71,-12.89 18.66,0.00 2.71,12.89 2.71,6.11 -16.96,6.11" fill="#22D3EE" stroke="rgba(255,255,255,0.55)" stroke-width="1.2" /></g>
    <g transform="translate(525.13 194.18) rotate(-24.21)"><polygon points="0,-19.12 19.12,0 0,19.12 -19.12,0" fill="#22D3EE" stroke="rgba(255,255,255,0.55)" stroke-width="1.4" /></g>
    <g transform="translate(283.14 73.85) rotate(17.93)"><polygon points="0.00,-18.25 4.68,-6.44 17.35,-5.64 7.57,2.46 10.73,14.76 0.00,7.96 -10.73,14.76 -7.57,2.46 -17.35,-5.64 -4.68,-6.44" fill="#34D399" stroke="rgba(255,255,255,0.55)" stroke-width="1.4" /></g>
    <g transform="translate(911.79 138.55) rotate(7.92)"><rect x="-19.18" y="-5.65" width="38.36" height="11.31" rx="5.65" fill="#34D399" /><rect x="-5.65" y="-19.18" width="11.31" height="38.36" rx="5.65" fill="#34D399" /></g>
    <g transform="translate(215.29 70.09) rotate(-19.38)"><polygon points="0.00,-20.25 5.19,-7.15 19.26,-6.26 8.40,2.73 11.90,16.38 0.00,8.84 -11.90,16.38 -8.40,2.73 -19.26,-6.26 -5.19,-7.15" fill="#F87171" stroke="rgba(255,255,255,0.55)" stroke-width="1.4" /></g>
    <g transform="translate(523.15 528.04) rotate(-6.17)"><polygon points="0.00,-20.88 5.35,-7.37 19.85,-6.45 8.66,2.82 12.27,16.89 0.00,9.11 -12.27,16.89 -8.66,2.82 -19.85,-6.45 -5.35,-7.37" fill="#4ADE80" stroke="rgba(255,255,255,0.55)" stroke-width="1.4" /></g>
    <g transform="translate(440.51 396.07) rotate(-19.31)"><rect x="-19.84" y="-5.85" width="39.69" height="11.70" rx="5.85" fill="#4ADE80" /><rect x="-5.85" y="-19.84" width="11.70" height="39.69" rx="5.85" fill="#4ADE80" /></g>
    <g transform="translate(830.73 72.30) rotate(17.54)"><polygon points="0.00,-19.96 5.12,-7.05 18.98,-6.17 8.28,2.69 11.73,16.15 0.00,8.71 -11.73,16.15 -8.28,2.69 -18.98,-6.17 -5.12,-7.05" fill="#22D3EE" stroke="rgba(255,255,255,0.55)" stroke-width="1.4" /></g>
    <g transform="translate(46.04 457.18) rotate(8.56)"><polygon points="-18.41,-6.63 2.95,-6.63 2.95,-13.99 20.25,0.00 2.95,13.99 2.95,6.63 -18.41,6.63" fill="#FB7185" stroke="rgba(255,255,255,0.55)" stroke-width="1.2" /></g>
    <g transform="translate(599.95 523.75) rotate(-16.04)"><rect x="-15.26" y="-4.50" width="30.52" height="8.99" rx="4.50" fill="#F97316" /><rect x="-4.50" y="-15.26" width="8.99" height="30.52" rx="4.50" fill="#F97316" /></g>
    <g transform="translate(201.85 266.61) rotate(-10.76)"><polygon points="0.00,-22.84 5.86,-8.06 21.72,-7.06 9.48,3.08 13.42,18.47 0.00,9.96 -13.42,18.47 -9.48,3.08 -21.72,-7.06 -5.86,-8.06" fill="#60A5FA" stroke="rgba(255,255,255,0.55)" stroke-width="1.4" /></g>
    <g transform="translate(752.28 137.83) rotate(-5.44)"><polygon points="-19.40,-6.98 3.10,-6.98 3.10,-14.75 21.34,0.00 3.10,14.75 3.10,6.98 -19.40,6.98" fill="#34D399" stroke="rgba(255,255,255,0.55)" stroke-width="1.2" /></g>
    <g transform="translate(835.11 402.12) rotate(-15.43)"><polygon points="-17.12,-6.16 2.74,-6.16 2.74,-13.01 18.83,0.00 2.74,13.01 2.74,6.16 -17.12,6.16" fill="#60A5FA" stroke="rgba(255,255,255,0.55)" stroke-width="1.2" /></g>
    <g transform="translate(284.51 396.91) rotate(26.99)"><polygon points="0.00,-22.31 5.72,-7.87 21.21,-6.89 9.26,3.01 13.11,18.05 0.00,9.73 -13.11,18.05 -9.26,3.01 -21.21,-6.89 -5.72,-7.87" fill="#22D3EE" stroke="rgba(255,255,255,0.55)" stroke-width="1.4" /></g>
    <g transform="translate(759.02 70.54) rotate(-0.64)"><rect x="-17.90" y="-5.28" width="35.81" height="10.55" rx="5.28" fill="#C084FC" /><rect x="-5.28" y="-17.90" width="10.55" height="35.81" rx="5.28" fill="#C084FC" /></g>
    <g transform="translate(363.18 529.67) rotate(-11.42)"><polygon points="0.00,-17.75 4.55,-6.27 16.89,-5.49 7.37,2.39 10.44,14.36 0.00,7.75 -10.44,14.36 -7.37,2.39 -16.89,-5.49 -4.55,-6.27" fill="#FB7185" stroke="rgba(255,255,255,0.55)" stroke-width="1.4" /></g>
    <g transform="translate(906.91 204.47) rotate(-12.41)"><polygon points="0.00,-18.02 4.62,-6.36 17.14,-5.57 7.48,2.43 10.59,14.58 0.00,7.86 -10.59,14.58 -7.48,2.43 -17.14,-5.57 -4.62,-6.36" fill="#F97316" stroke="rgba(255,255,255,0.55)" stroke-width="1.4" /></g>
    <g transform="translate(756.74 198.56) rotate(3.63)"><polygon points="0,-19.34 19.34,0 0,19.34 -19.34,0" fill="#4ADE80" stroke="rgba(255,255,255,0.55)" stroke-width="1.4" /></g>
    <g transform="translate(444.66 142.07) rotate(14.22)"><polygon points="0.00,-17.22 4.42,-6.08 16.38,-5.32 7.15,2.32 10.12,13.93 0.00,7.52 -10.12,13.93 -7.15,2.32 -16.38,-5.32 -4.42,-6.08" fill="#F87171" stroke="rgba(255,255,255,0.55)" stroke-width="1.4" /></g>
    <g transform="translate(57.75 141.96) rotate(-10.37)"><rect x="-16.03" y="-4.72" width="32.06" height="9.45" rx="4.72" fill="#C084FC" /><rect x="-4.72" y="-16.03" width="9.45" height="32.06" rx="4.72" fill="#C084FC" /></g>
    <g transform="translate(518.76 74.28) rotate(-12.03)"><polygon points="0.00,-21.57 5.53,-7.62 20.52,-6.67 8.95,2.91 12.68,17.45 0.00,9.41 -12.68,17.45 -8.95,2.91 -20.52,-6.67 -5.53,-7.62" fill="#F97316" stroke="rgba(255,255,255,0.55)" stroke-width="1.4" /></g>
    <g transform="translate(836.46 199.50) rotate(-10.43)"><rect x="-17.82" y="-5.25" width="35.63" height="10.50" rx="5.25" fill="#FBBF24" /><rect x="-5.25" y="-17.82" width="10.50" height="35.63" rx="5.25" fill="#FBBF24" /></g>
    <g transform="translate(213.96 328.66) rotate(-3.41)"><rect x="-13.37" y="-3.94" width="26.74" height="7.88" rx="3.94" fill="#FB7185" /><rect x="-3.94" y="-13.37" width="7.88" height="26.74" rx="3.94" fill="#FB7185" /></g>
    <g transform="translate(281.45 328.86) rotate(22.12)"><rect x="-15.96" y="-4.70" width="31.92" height="9.41" rx="4.70" fill="#FB7185" /><rect x="-4.70" y="-15.96" width="9.41" height="31.92" rx="4.70" fill="#FB7185" /></g>
    <g transform="translate(213.20 536.22) rotate(-19.86)"><polygon points="0.00,-20.27 5.20,-7.16 19.28,-6.26 8.41,2.73 11.91,16.40 0.00,8.85 -11.91,16.40 -8.41,2.73 -19.28,-6.26 -5.20,-7.16" fill="#F97316" stroke="rgba(255,255,255,0.55)" stroke-width="1.4" /></g>
    <g transform="translate(512.60 403.88) rotate(10.99)"><polygon points="0.00,-17.80 4.56,-6.28 16.93,-5.50 7.39,2.40 10.46,14.40 0.00,7.77 -10.46,14.40 -7.39,2.40 -16.93,-5.50 -4.56,-6.28" fill="#C084FC" stroke="rgba(255,255,255,0.55)" stroke-width="1.4" /></g>
    <g transform="translate(602.19 194.56) rotate(-2.97)"><polygon points="0.00,-19.18 4.92,-6.77 18.24,-5.93 7.96,2.59 11.27,15.52 0.00,8.37 -11.27,15.52 -7.96,2.59 -18.24,-5.93 -4.92,-6.77" fill="#34D399" stroke="rgba(255,255,255,0.55)" stroke-width="1.4" /></g>
    <g transform="translate(673.68 198.94) rotate(-7.15)"><polygon points="0,-19.77 19.77,0 0,19.77 -19.77,0" fill="#A78BFA" stroke="rgba(255,255,255,0.55)" stroke-width="1.4" /></g>
    <g transform="translate(364.59 268.57) rotate(-9.08)"><polygon points="-18.98,-6.83 3.04,-6.83 3.04,-14.42 20.88,0.00 3.04,14.42 3.04,6.83 -18.98,6.83" fill="#A78BFA" stroke="rgba(255,255,255,0.55)" stroke-width="1.2" /></g>
    <g transform="translate(757.25 403.21) rotate(18.77)"><polygon points="0.00,-19.39 4.97,-6.84 18.44,-5.99 8.05,2.61 11.40,15.69 0.00,8.46 -11.40,15.69 -8.05,2.61 -18.44,-5.99 -4.97,-6.84" fill="#A78BFA" stroke="rgba(255,255,255,0.55)" stroke-width="1.4" /></g>
    <g transform="translate(447.53 467.96) rotate(-19.59)"><rect x="-19.50" y="-5.75" width="38.99" height="11.49" rx="5.75" fill="#C084FC" /><rect x="-5.75" y="-19.50" width="11.49" height="38.99" rx="5.75" fill="#C084FC" /></g>
  </g>
</svg>
