<svg xmlns="http://www.w3.org/2000/svg" width="960" height="600" viewBox="0 0 960 600">
  <defs>
    <linearGradient id="bg107" x1="0%" y1="0%" x2="100%" y2="100%">
      <stop offset="0%" stop-color="#0F172A" />
      <stop offset="100%" stop-color="#1D4ED8" />
    </linearGradient>
    <filter id="shadow107" x="-20%" y="-20%" width="140%" height="140%">
      <feDropShadow dx="0" dy="2" stdDeviation="1.8" flood-color="rgba(0,0,0,0.36)" />
    </filter>
  </defs>

  <rect width="960" height="600" fill="url(#bg107)" />
  <rect x="24" y="24" width="912" height="552" rx="20" fill="rgba(255,255,255,0.045)" stroke="rgba(255,255,255,0.22)" />
  <g filter="url(#shadow107)">
    <g transform="translate(202.58 395.36) rotate(22.14)"><rect x="-18.18" y="-18.18" width="36.37" height="36.37" rx="3.95" fill="#F87171" stroke="rgba(255,255,255,0.55)" stroke-width="1.4" /></g>
    <g transform="translate(752.58 527.32) rotate(-10.80)"><rect x="-16.11" y="-16.11" width="32.22" height="32.22" rx="3.50" fill="#A78BFA" stroke="rgba(255,255,255,0.55)" stroke-width="1.4" /></g>
    <g transform="translate(284.94 536.46) rotate(9.85)"><polygon points="-15.51,-5.58 2.48,-5.58 2.48,-11.79 17.06,0.00 2.48,11.79 2.48,5.58 -15.51,5.58" fill="#60A5FA" stroke="rgba(255,255,255,0.55)" stroke-width="1.2" /></g>
    <g transform="translate(519.41 272.48) rotate(-15.71)"><circle cx="0" cy="0" r="15.93" fill="#FB7185" stroke="rgba(255,255,255,0.55)" stroke-width="1.4" /></g>
    <g transform="translate(445.33 132.36) rotate(-11.46)"><rect x="-16.20" y="-4.78" width="32.40" height="9.55" rx="4.78" fill="#4ADE80" /><rect x="-4.78" y="-16.20" width="9.55" height="32.40" rx="4.78" fill="#4ADE80" /></g>
    <g transform="translate(680.41 206.12) rotate(-6.91)"><polygon points="-16.49,-5.94 2.64,-5.94 2.64,-12.54 18.14,0.00 2.64,12.54 2.64,5.94 -16.49,5.94" fill="#C084FC" stroke="rgba(255,255,255,0.55)" stroke-width="1.2" /></g>
    <g transform="translate(279.13 137.03) rotate(23.03)"><circle cx="0" cy="0" r="14.43" fill="#FB7185" stroke="rgba(255,255,255,0.55)" stroke-width="1.4" /></g>
    <g transform="translate(516.28 530.92) rotate(-14.79)"><polygon points="-20.48,-7.37 3.28,-7.37 3.28,-15.57 22.53,0.00 3.28,15.57 3.28,7.37 -20.48,7.37" fill="#C084FC" stroke="rgba(255,255,255,0.55)" stroke-width="1.2" /></g>
    <g transform="translate(594.62 398.24) rotate(-4.44)"><polygon points="0,-22.81 20.45,15.73 -20.45,15.73" fill="#FB7185" stroke="rgba(255,255,255,0.55)" stroke-width="1.4" /></g>
    <g transform="translate(58.63 327.52) rotate(19.02)"><polygon points="-18.74,-6.74 3.00,-6.74 3.00,-14.24 20.61,0.00 3.00,14.24 3.00,6.74 -18.74,6.74" fill="#FB7185" stroke="rgba(255,255,255,0.55)" stroke-width="1.2" /></g>
    <g transform="translate(288.72 273.35) rotate(-19.06)"><rect x="-15.01" y="-15.01" width="30.03" height="30.03" rx="3.26" fill="#60A5FA" stroke="rgba(255,255,255,0.55)" stroke-width="1.4" /></g>
    <g transform="translate(362.71 528.52) rotate(-24.07)"><polygon points="-20.59,-7.41 3.29,-7.41 3.29,-15.65 22.65,0.00 3.29,15.65 3.29,7.41 -20.59,7.41" fill="#C084FC" stroke="rgba(255,255,255,0.55)" stroke-width="1.2" /></g>
    <g transform="translate(447.56 273.33) rotate(-17.52)"><polygon points="-17.41,-6.27 2.79,-6.27 2.79,-13.23 19.15,0.00 2.79,13.23 2.79,6.27 -17.41,6.27" fill="#34D399" stroke="rgba(255,255,255,0.55)" stroke-width="1.2" /></g>
    <g transform="translate(593.28 332.66) rotate(14.65)"><circle cx="0" cy="0" r="14.98" fill="#C084FC" stroke="rgba(255,255,255,0.55)" stroke-width="1.4" /></g>
    <g transform="translate(212.76 274.22) rotate(-23.59)"><polygon points="0,-16.36 16.36,0 0,16.36 -16.36,0" fill="#60A5FA" stroke="rgba(255,255,255,0.55)" stroke-width="1.4" /></g>
    <g transform="translate(210.94 333.97) rotate(26.47)"><polygon points="0.00,-20.86 5.35,-7.36 19.84,-6.45 8.66,2.81 12.26,16.88 0.00,9.10 -12.26,16.88 -8.66,2.81 -19.84,-6.45 -5.35,-7.36" fill="#F97316" stroke="rgba(255,255,255,0.55)" stroke-width="1.4" /></g>
    <g transform="translate(121.86 340.85) rotate(19.01)"><rect x="-13.31" y="-13.31" width="26.63" height="26.63" rx="2.89" fill="#F87171" stroke="rgba(255,255,255,0.55)" stroke-width="1.4" /></g>
    <g transform="translate(914.83 533.45) rotate(-2.73)"><rect x="-14.91" y="-4.39" width="29.82" height="8.79" rx="4.39" fill="#60A5FA" /><rect x="-4.39" y="-14.91" width="8.79" height="29.82" rx="4.39" fill="#60A5FA" /></g>
    <g transform="translate(678.22 336.31) rotate(-20.34)"><rect x="-16.92" y="-16.92" width="33.84" height="33.84" rx="3.68" fill="#60A5FA" stroke="rgba(255,255,255,0.55)" stroke-width="1.4" /></g>
    <g transform="translate(588.90 526.94) rotate(-21.75)"><polygon points="-15.38,-5.54 2.46,-5.54 2.46,-11.69 16.92,0.00 2.46,11.69 2.46,5.54 -15.38,5.54" fill="#FB7185" stroke="rgba(255,255,255,0.55)" stroke-width="1.2" /></g>
    <g transform="translate(518.97 338.36) rotate(-13.92)"><polygon points="0,-18.41 16.50,12.69 -16.50,12.69" fill="#22D3EE" stroke="rgba(255,255,255,0.55)" stroke-width="1.4" /></g>
  </g>
</svg>
