<svg xmlns="http://www.w3.org/2000/svg" width="960" height="600" viewBox="0 0 960 600">
  <defs>
    <linearGradient id="bg26" x1="0%" y1="0%" x2="100%" y2="100%">
      <stop offset="0%" stop-color="#0F172A" />
      <stop offset="100%" stop-color="#1D4ED8" />
    </linearGradient>
    <filter id="shadow26" x="-20%" y="-20%" width="140%" height="140%">
      <feDropShadow dx="0" dy="2" stdDeviation="1.8" flood-color="rgba(0,0,0,0.36)" />
    </filter>
  </defs>

  <rect width="960" height="600" fill="url(#bg26)" />
  <rect x="24" y="24" width="912" height="552" rx="20" fill="rgba(255,255,255,0.045)" stroke="rgba(255,255,255,0.22)" />
  <g filter="url(#shadow26)">
    <g transform="translate(52.27 404.91) rotate(-12.97)"><rect x="-15.24" y="-15.24" width="30.49" height="30.49" rx="3.31" fill="#FB7185" stroke="rgba(255,255,255,0.55)" stroke-width="1.4" /></g>
    <g transform="translate(517.02 69.02) rotate(-7.54)"><circle cx="0" cy="0" r="14.41" fill="#F97316" stroke="rgba(255,255,255,0.55)" stroke-width="1.4" /><circle cx="-5.19" cy="-3.46" r="2.31" fill="#1F2937" /><circle cx="5.19" cy="-3.46" r="2.31" fill="#1F2937" /><path d="M -10.95 4.04 Q 0 9.80 10.95 4.04" fill="none" stroke="#1F2937" stroke-width="2.2" stroke-linecap="round" /></g>
    <g transform="translate(523.76 392.36) rotate(-7.28)"><circle cx="0" cy="0" r="16.81" fill="#F97316" stroke="rgba(255,255,255,0.55)" stroke-width="1.4" /><circle cx="-6.05" cy="-4.03" r="2.69" fill="#1F2937" /><circle cx="6.05" cy="-4.03" r="2.69" fill="#1F2937" /><path d="M -12.78 4.71 Q 0 11.43 12.78 4.71" fill="none" stroke="#1F2937" stroke-width="2.2" stroke-linecap="round" /></g>
    <g transform="translate(757.41 332.18) rotate(-3.90)"><circle cx="0" cy="0" r="16.17" fill="#FBBF24" stroke="rgba(255,255,255,0.55)" stroke-width="1.4" /></g>
    <g transform="translate(53.55 261.01) rotate(-8.65)"><path d="M 0 14.24 C -18.64 1.69, -20.34 -11.86, -8.14 -2.71 C -0.68 -14.24, 0.68 -14.24, 8.14 -2.71 C 20.34 -11.86, 18.64 1.69, 0 14.24 Z" fill="#22D3EE" stroke="rgba(255,255,255,0.55)" stroke-width="1.2" /></g>
    <g transform="translate(207.13 67.20) rotate(-18.32)"><rect x="-13.05" y="-13.05" width="26.11" height="26.11" rx="2.84" fill="#22D3EE" stroke="rgba(255,255,255,0.55)" stroke-width="1.4" /></g>
    <g transform="translate(680.87 196.68) rotate(-1.39)"><circle cx="0" cy="0" r="19.69" fill="#FB7185" stroke="rgba(255,255,255,0.55)" stroke-width="1.4" /><circle cx="-7.09" cy="-4.72" r="3.15" fill="#1F2937" /><circle cx="7.09" cy="-4.72" r="3.15" fill="#1F2937" /><path d="M -14.96 5.51 Q 0 13.39 14.96 5.51" fill="none" stroke="#1F2937" stroke-width="2.2" stroke-linecap="round" /></g>
    <g transform="translate(671.83 332.45) rotate(2.65)"><circle cx="0" cy="0" r="17.28" fill="#FB7185" stroke="rgba(255,255,255,0.55)" stroke-width="1.4" /><circle cx="-6.22" cy="-4.15" r="2.76" fill="#1F2937" /><circle cx="6.22" cy="-4.15" r="2.76" fill="#1F2937" /><path d="M -13.13 4.84 Q 0 11.75 13.13 4.84" fill="none" stroke="#1F2937" stroke-width="2.2" stroke-linecap="round" /></g>
    <g transform="translate(824.28 395.55) rotate(-18.44)"><rect x="-14.00" y="-14.00" width="28.00" height="28.00" rx="3.04" fill="#F97316" stroke="rgba(255,255,255,0.55)" stroke-width="1.4" /></g>
    <g transform="translate(599.93 525.43) rotate(20.82)"><circle cx="0" cy="0" r="17.47" fill="#F97316" stroke="rgba(255,255,255,0.55)" stroke-width="1.4" /></g>
    <g transform="translate(910.18 133.81) rotate(-0.72)"><circle cx="0" cy="0" r="15.07" fill="#F97316" /><circle cx="6.03" cy="-0.60" r="12.66" fill="#0B1A34" /></g>
    <g transform="translate(444.38 398.91) rotate(14.43)"><rect x="-14.41" y="-14.41" width="28.81" height="28.81" rx="3.13" fill="#F97316" stroke="rgba(255,255,255,0.55)" stroke-width="1.4" /></g>
    <g transform="translate(370.50 135.35) rotate(-20.03)"><polygon points="-14.14,-5.09 2.26,-5.09 2.26,-10.75 15.56,0.00 2.26,10.75 2.26,5.09 -14.14,5.09" fill="#FBBF24" stroke="rgba(255,255,255,0.55)" stroke-width="1.2" /></g>
    <g transform="translate(906.80 394.94) rotate(5.88)"><circle cx="0" cy="0" r="14.95" fill="#34D399" /><circle cx="5.98" cy="-0.60" r="12.56" fill="#0B1A34" /></g>
    <g transform="translate(365.99 264.06) rotate(-8.28)"><path d="M 0 12.29 C -16.10 1.46, -17.56 -10.24, -7.02 -2.34 C -0.59 -12.29, 0.59 -12.29, 7.02 -2.34 C 17.56 -10.24, 16.10 1.46, 0 12.29 Z" fill="#22D3EE" stroke="rgba(255,255,255,0.55)" stroke-width="1.2" /></g>
    <g transform="translate(519.14 142.32) rotate(-7.75)"><circle cx="0" cy="0" r="17.51" fill="#FB7185" stroke="rgba(255,255,255,0.55)" stroke-width="1.4" /><circle cx="-6.30" cy="-4.20" r="2.80" fill="#1F2937" /><circle cx="6.30" cy="-4.20" r="2.80" fill="#1F2937" /><path d="M -13.31 4.90 Q 0 11.91 13.31 4.90" fill="none" stroke="#1F2937" stroke-width="2.2" stroke-linecap="round" /></g>
    <g transform="translate(200.93 208.40) rotate(-19.96)"><circle cx="0" cy="0" r="18.42" fill="#F87171" stroke="rgba(255,255,255,0.55)" stroke-width="1.4" /></g>
    <g transform="translate(283.17 467.16) rotate(24.69)"><circle cx="0" cy="0" r="17.05" fill="#60A5FA" stroke="rgba(255,255,255,0.55)" stroke-width="1.4" /></g>
  </g>
</svg>
