<svg xmlns="http://www.w3.org/2000/svg" width="960" height="600" viewBox="0 0 960 600">
  <defs>
    <linearGradient id="bg68" x1="0%" y1="0%" x2="100%" y2="100%">
      <stop offset="0%" stop-color="#0F172A" />
      <stop offset="100%" stop-color="#1D4ED8" />
    </linearGradient>
    <filter id="shadow68" x="-20%" y="-20%" width="140%" height="140%">
      <feDropShadow dx="0" dy="2" stdDeviation="1.8" flood-color="rgba(0,0,0,0.36)" />
    </filter>
  </defs>

  <rect width="960" height="600" fill="url(#bg68)" />
  <rect x="24" y="24" width="912" height="552" rx="20" fill="rgba(255,255,255,0.045)" stroke="rgba(255,255,255,0.22)" />
  <g filter="url(#shadow68)">
    <g transform="translate(209.19 462.88) rotate(-25.70)"><polygon points="0.00,-19.66 5.04,-6.94 18.70,-6.08 8.16,2.65 11.56,15.91 0.00,8.58 -11.56,15.91 -8.16,2.65 -18.70,-6.08 -5.04,-6.94" fill="#F87171" stroke="rgba(255,255,255,0.55)" stroke-width="1.4" /></g>
    <g transform="translate(287.34 76.59) rotate(-5.29)"><polygon points="0.00,-17.85 4.58,-6.30 16.97,-5.51 7.41,2.41 10.49,14.44 0.00,7.79 -10.49,14.44 -7.41,2.41 -16.97,-5.51 -4.58,-6.30" fill="#34D399" stroke="rgba(255,255,255,0.55)" stroke-width="1.4" /></g>
    <g transform="translate(599.50 401.26) rotate(26.12)"><path d="M 0 15.22 C -19.93 1.81, -21.74 -12.68, -8.70 -2.90 C -0.72 -15.22, 0.72 -15.22, 8.70 -2.90 C 21.74 -12.68, 19.93 1.81, 0 15.22 Z" fill="#FBBF24" stroke="rgba(255,255,255,0.55)" stroke-width="1.2" /></g>
    <g transform="translate(54.61 537.49) rotate(-17.74)"><polygon points="0,-16.97 16.97,0 0,16.97 -16.97,0" fill="#C084FC" stroke="rgba(255,255,255,0.55)" stroke-width="1.4" /></g>
    <g transform="translate(827.31 68.51) rotate(-21.58)"><polygon points="0,-14.28 14.28,0 0,14.28 -14.28,0" fill="#4ADE80" stroke="rgba(255,255,255,0.55)" stroke-width="1.4" /></g>
    <g transform="translate(513.47 332.28) rotate(-19.69)"><polygon points="0,-14.07 14.07,0 0,14.07 -14.07,0" fill="#4ADE80" stroke="rgba(255,255,255,0.55)" stroke-width="1.4" /></g>
    <g transform="translate(367.28 65.89) rotate(-16.49)"><polygon points="0,-21.20 19.01,14.62 -19.01,14.62" fill="#F87171" stroke="rgba(255,255,255,0.55)" stroke-width="1.4" /></g>
    <g transform="translate(286.76 197.78) rotate(5.74)"><circle cx="0" cy="0" r="18.89" fill="#F97316" /><circle cx="7.56" cy="-0.76" r="15.87" fill="#0B1A34" /></g>
    <g transform="translate(671.63 259.57) rotate(-7.16)"><rect x="-16.43" y="-4.84" width="32.86" height="9.69" rx="4.84" fill="#F87171" /><rect x="-4.84" y="-16.43" width="9.69" height="32.86" rx="4.84" fill="#F87171" /></g>
    <g transform="translate(673.71 462.46) rotate(17.03)"><polygon points="0.00,-19.89 5.10,-7.02 18.92,-6.15 8.25,2.68 11.69,16.09 0.00,8.68 -11.69,16.09 -8.25,2.68 -18.92,-6.15 -5.10,-7.02" fill="#FBBF24" stroke="rgba(255,255,255,0.55)" stroke-width="1.4" /></g>
    <g transform="translate(210.65 331.10) rotate(25.04)"><path d="M 0 16.52 C -21.63 1.97, -23.60 -13.76, -9.44 -3.15 C -0.79 -16.52, 0.79 -16.52, 9.44 -3.15 C 23.60 -13.76, 21.63 1.97, 0 16.52 Z" fill="#C084FC" stroke="rgba(255,255,255,0.55)" stroke-width="1.2" /></g>
    <g transform="translate(597.92 527.66) rotate(-1.57)"><polygon points="0,-15.01 15.01,0 0,15.01 -15.01,0" fill="#FB7185" stroke="rgba(255,255,255,0.55)" stroke-width="1.4" /></g>
    <g transform="translate(522.62 197.71) rotate(-6.58)"><circle cx="0" cy="0" r="15.21" fill="#FB7185" /><circle cx="6.08" cy="-0.61" r="12.78" fill="#0B1A34" /></g>
    <g transform="translate(822.45 194.02) rotate(-26.00)"><polygon points="0,-17.44 17.44,0 0,17.44 -17.44,0" fill="#FB7185" stroke="rgba(255,255,255,0.55)" stroke-width="1.4" /></g>
    <g transform="translate(290.32 466.40) rotate(-19.33)"><path d="M 0 17.25 C -22.58 2.05, -24.64 -14.37, -9.86 -3.29 C -0.82 -17.25, 0.82 -17.25, 9.86 -3.29 C 24.64 -14.37, 22.58 2.05, 0 17.25 Z" fill="#FB7185" stroke="rgba(255,255,255,0.55)" stroke-width="1.2" /></g>
    <g transform="translate(59.96 140.89) rotate(19.62)"><rect x="-15.78" y="-4.65" width="31.56" height="9.30" rx="4.65" fill="#F87171" /><rect x="-4.65" y="-15.78" width="9.30" height="31.56" rx="4.65" fill="#F87171" /></g>
    <g transform="translate(355.90 536.32) rotate(15.72)"><rect x="-14.89" y="-4.39" width="29.77" height="8.77" rx="4.39" fill="#4ADE80" /><rect x="-4.39" y="-14.89" width="8.77" height="29.77" rx="4.39" fill="#4ADE80" /></g>
    <g transform="translate(134.61 202.36) rotate(-14.23)"><rect x="-15.23" y="-4.49" width="30.45" height="8.98" rx="4.49" fill="#4ADE80" /><rect x="-4.49" y="-15.23" width="8.98" height="30.45" rx="4.49" fill="#4ADE80" /></g>
    <g transform="translate(288.52 327.01) rotate(-9.70)"><polygon points="0,-16.78 16.78,0 0,16.78 -16.78,0" fill="#C084FC" stroke="rgba(255,255,255,0.55)" stroke-width="1.4" /></g>
    <g transform="translate(826.31 467.91) rotate(-18.87)"><path d="M 0 15.66 C -20.51 1.86, -22.37 -13.05, -8.95 -2.98 C -0.75 -15.66, 0.75 -15.66, 8.95 -2.98 C 22.37 -13.05, 20.51 1.86, 0 15.66 Z" fill="#4ADE80" stroke="rgba(255,255,255,0.55)" stroke-width="1.2" /></g>
    <g transform="translate(593.90 203.48) rotate(12.38)"><path d="M 0 15.10 C -19.78 1.80, -21.58 -12.59, -8.63 -2.88 C -0.72 -15.10, 0.72 -15.10, 8.63 -2.88 C 21.58 -12.59, 19.78 1.80, 0 15.10 Z" fill="#C084FC" stroke="rgba(255,255,255,0.55)" stroke-width="1.2" /></g>
    <g transform="translate(128.59 66.65) rotate(-5.18)"><rect x="-16.17" y="-4.77" width="32.33" height="9.53" rx="4.77" fill="#F97316" /><rect x="-4.77" y="-16.17" width="9.53" height="32.33" rx="4.77" fill="#F97316" /></g>
    <g transform="translate(200.38 200.93) rotate(25.42)"><path d="M 0 17.47 C -22.87 2.08, -24.95 -14.55, -9.98 -3.33 C -0.83 -17.47, 0.83 -17.47, 9.98 -3.33 C 24.95 -14.55, 22.87 2.08, 0 17.47 Z" fill="#34D399" stroke="rgba(255,255,255,0.55)" stroke-width="1.2" /></g>
    <g transform="translate(137.43 136.81) rotate(12.05)"><polygon points="0.00,-19.15 4.91,-6.76 18.21,-5.92 7.95,2.58 11.25,15.49 0.00,8.36 -11.25,15.49 -7.95,2.58 -18.21,-5.92 -4.91,-6.76" fill="#F97316" stroke="rgba(255,255,255,0.55)" stroke-width="1.4" /></g>
    <g transform="translate(911.86 72.06) rotate(4.63)"><polygon points="0.00,-22.92 5.88,-8.09 21.80,-7.08 9.51,3.09 13.47,18.54 0.00,10.00 -13.47,18.54 -9.51,3.09 -21.80,-7.08 -5.88,-8.09" fill="#C084FC" stroke="rgba(255,255,255,0.55)" stroke-width="1.4" /></g>
    <g transform="translate(517.11 397.85) rotate(-20.32)"><polygon points="0,-16.90 16.90,0 0,16.90 -16.90,0" fill="#22D3EE" stroke="rgba(255,255,255,0.55)" stroke-width="1.4" /></g>
    <g transform="translate(209.78 139.55) rotate(3.12)"><rect x="-16.80" y="-4.95" width="33.60" height="9.90" rx="4.95" fill="#22D3EE" /><rect x="-4.95" y="-16.80" width="9.90" height="33.60" rx="4.95" fill="#22D3EE" /></g>
    <g transform="translate(51.25 337.87) rotate(-24.85)"><rect x="-16.72" y="-4.93" width="33.45" height="9.86" rx="4.93" fill="#4ADE80" /><rect x="-4.93" y="-16.72" width="9.86" height="33.45" rx="4.93" fill="#4ADE80" /></g>
    <g transform="translate(445.64 394.57) rotate(-13.07)"><polygon points="0,-19.36 19.36,0 0,19.36 -19.36,0" fill="#F87171" stroke="rgba(255,255,255,0.55)" stroke-width="1.4" /></g>
    <g transform="translate(670.85 532.37) rotate(-25.20)"><path d="M 0 16.82 C -22.03 2.00, -24.03 -14.02, -9.61 -3.20 C -0.80 -16.82, 0.80 -16.82, 9.61 -3.20 C 24.03 -14.02, 22.03 2.00, 0 16.82 Z" fill="#C084FC" stroke="rgba(255,255,255,0.55)" stroke-width="1.2" /></g>
  </g>
</svg>
