<svg xmlns="http://www.w3.org/2000/svg" width="960" height="600" viewBox="0 0 960 600">
  <defs>
    <linearGradient id="bg135" x1="0%" y1="0%" x2="100%" y2="100%">
      <stop offset="0%" stop-color="#0F172A" />
      <stop offset="100%" stop-color="#1D4ED8" />
    </linearGradient>
    <filter id="shadow135" x="-20%" y="-20%" width="140%" height="140%">
      <feDropShadow dx="0" dy="2" stdDeviation="1.8" flood-color="rgba(0,0,0,0.36)" />
    </filter>
  </defs>

  <rect width="960" height="600" fill="url(#bg135)" />
  <rect x="24" y="24" width="912" height="552" rx="20" fill="rgba(255,255,255,0.045)" stroke="rgba(255,255,255,0.22)" />
  <g filter="url(#shadow135)">
    <g transform="translate(133.39 536.80) rotate(3.36)"><path d="M 0 14.72 C -19.28 1.75, -21.03 -12.27, -8.41 -2.80 C -0.70 -14.72, 0.70 -14.72, 8.41 -2.80 C 21.03 -12.27, 19.28 1.75, 0 14.72 Z" fill="#60A5FA" stroke="rgba(255,255,255,0.55)" stroke-width="1.2" /></g>
    <g transform="translate(281.37 139.03) rotate(13.69)"><path d="M 0 12.38 C -16.21 1.47, -17.68 -10.32, -7.07 -2.36 C -0.59 -12.38, 0.59 -12.38, 7.07 -2.36 C 17.68 -10.32, 16.21 1.47, 0 12.38 Z" fill="#F97316" stroke="rgba(255,255,255,0.55)" stroke-width="1.2" /></g>
    <g transform="translate(517.58 335.92) rotate(20.75)"><path d="M 0 15.68 C -20.54 1.87, -22.40 -13.07, -8.96 -2.99 C -0.75 -15.68, 0.75 -15.68, 8.96 -2.99 C 22.40 -13.07, 20.54 1.87, 0 15.68 Z" fill="#F87171" stroke="rgba(255,255,255,0.55)" stroke-width="1.2" /></g>
    <g transform="translate(362.33 535.47) rotate(-14.67)"><polygon points="0,-18.94 16.98,13.06 -16.98,13.06" fill="#34D399" stroke="rgba(255,255,255,0.55)" stroke-width="1.4" /></g>
    <g transform="translate(56.71 67.13) rotate(20.39)"><rect x="-14.99" y="-14.99" width="29.97" height="29.97" rx="3.26" fill="#A78BFA" stroke="rgba(255,255,255,0.55)" stroke-width="1.4" /></g>
    <g transform="translate(204.52 467.79) rotate(-3.86)"><rect x="-15.03" y="-4.43" width="30.07" height="8.86" rx="4.43" fill="#60A5FA" /><rect x="-4.43" y="-15.03" width="8.86" height="30.07" rx="4.43" fill="#60A5FA" /></g>
    <g transform="translate(589.31 401.55) rotate(-24.77)"><path d="M 0 14.46 C -18.93 1.72, -20.65 -12.05, -8.26 -2.75 C -0.69 -14.46, 0.69 -14.46, 8.26 -2.75 C 20.65 -12.05, 18.93 1.72, 0 14.46 Z" fill="#4ADE80" stroke="rgba(255,255,255,0.55)" stroke-width="1.2" /></g>
    <g transform="translate(837.52 402.59) rotate(10.42)"><rect x="-15.14" y="-15.14" width="30.27" height="30.27" rx="3.29" fill="#60A5FA" stroke="rgba(255,255,255,0.55)" stroke-width="1.4" /></g>
    <g transform="translate(360.18 209.10) rotate(-6.85)"><path d="M 0 13.58 C -17.78 1.62, -19.40 -11.31, -7.76 -2.59 C -0.65 -13.58, 0.65 -13.58, 7.76 -2.59 C 19.40 -11.31, 17.78 1.62, 0 13.58 Z" fill="#4ADE80" stroke="rgba(255,255,255,0.55)" stroke-width="1.2" /></g>
    <g transform="translate(524.70 72.63) rotate(-19.74)"><polygon points="0,-20.89 20.89,0 0,20.89 -20.89,0" fill="#F97316" stroke="rgba(255,255,255,0.55)" stroke-width="1.4" /></g>
    <g transform="translate(679.45 468.03) rotate(-9.62)"><path d="M 0 16.97 C -22.22 2.02, -24.24 -14.14, -9.70 -3.23 C -0.81 -16.97, 0.81 -16.97, 9.70 -3.23 C 24.24 -14.14, 22.22 2.02, 0 16.97 Z" fill="#F87171" stroke="rgba(255,255,255,0.55)" stroke-width="1.2" /></g>
    <g transform="translate(125.06 75.02) rotate(-17.94)"><polygon points="0,-16.35 16.35,0 0,16.35 -16.35,0" fill="#C084FC" stroke="rgba(255,255,255,0.55)" stroke-width="1.4" /></g>
    <g transform="translate(512.19 132.17) rotate(-26.87)"><path d="M 0 12.17 C -15.94 1.45, -17.39 -10.14, -6.96 -2.32 C -0.58 -12.17, 0.58 -12.17, 6.96 -2.32 C 17.39 -10.14, 15.94 1.45, 0 12.17 Z" fill="#60A5FA" stroke="rgba(255,255,255,0.55)" stroke-width="1.2" /></g>
    <g transform="translate(44.31 206.69) rotate(-26.47)"><polygon points="0,-19.67 19.67,0 0,19.67 -19.67,0" fill="#FB7185" stroke="rgba(255,255,255,0.55)" stroke-width="1.4" /></g>
    <g transform="translate(48.64 462.51) rotate(-2.26)"><circle cx="0" cy="0" r="15.56" fill="#F87171" stroke="rgba(255,255,255,0.55)" stroke-width="1.4" /><circle cx="-5.60" cy="-3.73" r="2.49" fill="#1F2937" /><circle cx="5.60" cy="-3.73" r="2.49" fill="#1F2937" /><path d="M -11.83 4.36 Q 0 10.58 11.83 4.36" fill="none" stroke="#1F2937" stroke-width="2.2" stroke-linecap="round" /></g>
    <g transform="translate(590.37 327.93) rotate(-2.45)"><polygon points="0,-15.77 15.77,0 0,15.77 -15.77,0" fill="#4ADE80" stroke="rgba(255,255,255,0.55)" stroke-width="1.4" /></g>
    <g transform="translate(522.83 527.70) rotate(-2.07)"><circle cx="0" cy="0" r="14.42" fill="#34D399" stroke="rgba(255,255,255,0.55)" stroke-width="1.4" /><circle cx="-5.19" cy="-3.46" r="2.31" fill="#1F2937" /><circle cx="5.19" cy="-3.46" r="2.31" fill="#1F2937" /><path d="M -10.96 4.04 Q 0 9.81 10.96 4.04" fill="none" stroke="#1F2937" stroke-width="2.2" stroke-linecap="round" /></g>
    <g transform="translate(206.52 325.73) rotate(12.76)"><path d="M 0 15.96 C -20.90 1.90, -22.80 -13.30, -9.12 -3.04 C -0.76 -15.96, 0.76 -15.96, 9.12 -3.04 C 22.80 -13.30, 20.90 1.90, 0 15.96 Z" fill="#C084FC" stroke="rgba(255,255,255,0.55)" stroke-width="1.2" /></g>
    <g transform="translate(435.00 333.52) rotate(12.23)"><path d="M 0 14.64 C -19.17 1.74, -20.92 -12.20, -8.37 -2.79 C -0.70 -14.64, 0.70 -14.64, 8.37 -2.79 C 20.92 -12.20, 19.17 1.74, 0 14.64 Z" fill="#C084FC" stroke="rgba(255,255,255,0.55)" stroke-width="1.2" /></g>
    <g transform="translate(906.77 465.20) rotate(27.85)"><polygon points="0,-20.39 20.39,0 0,20.39 -20.39,0" fill="#FB7185" stroke="rgba(255,255,255,0.55)" stroke-width="1.4" /></g>
    <g transform="translate(757.41 390.72) rotate(17.08)"><path d="M 0 13.81 C -18.08 1.64, -19.72 -11.51, -7.89 -2.63 C -0.66 -13.81, 0.66 -13.81, 7.89 -2.63 C 19.72 -11.51, 18.08 1.64, 0 13.81 Z" fill="#F87171" stroke="rgba(255,255,255,0.55)" stroke-width="1.2" /></g>
    <g transform="translate(199.73 136.24) rotate(-14.31)"><rect x="-14.56" y="-14.56" width="29.12" height="29.12" rx="3.17" fill="#34D399" stroke="rgba(255,255,255,0.55)" stroke-width="1.4" /></g>
    <g transform="translate(829.90 197.54) rotate(6.65)"><circle cx="0" cy="0" r="14.18" fill="#FBBF24" stroke="rgba(255,255,255,0.55)" stroke-width="1.4" /></g>
    <g transform="translate(904.52 272.56) rotate(-18.70)"><path d="M 0 11.96 C -15.66 1.42, -17.09 -9.97, -6.84 -2.28 C -0.57 -11.96, 0.57 -11.96, 6.84 -2.28 C 17.09 -9.97, 15.66 1.42, 0 11.96 Z" fill="#4ADE80" stroke="rgba(255,255,255,0.55)" stroke-width="1.2" /></g>
    <g transform="translate(591.53 201.47) rotate(19.09)"><path d="M 0 14.39 C -18.85 1.71, -20.56 -11.99, -8.22 -2.74 C -0.69 -14.39, 0.69 -14.39, 8.22 -2.74 C 20.56 -11.99, 18.85 1.71, 0 14.39 Z" fill="#F97316" stroke="rgba(255,255,255,0.55)" stroke-width="1.2" /></g>
    <g transform="translate(525.15 401.17) rotate(-17.57)"><path d="M 0 15.26 C -19.99 1.82, -21.80 -12.72, -8.72 -2.91 C -0.73 -15.26, 0.73 -15.26, 8.72 -2.91 C 21.80 -12.72, 19.99 1.82, 0 15.26 Z" fill="#34D399" stroke="rgba(255,255,255,0.55)" stroke-width="1.2" /></g>
    <g transform="translate(287.82 394.84) rotate(-27.55)"><polygon points="0,-19.04 19.04,0 0,19.04 -19.04,0" fill="#22D3EE" stroke="rgba(255,255,255,0.55)" stroke-width="1.4" /></g>
    <g transform="translate(670.74 397.91) rotate(23.59)"><polygon points="0,-22.04 19.76,15.20 -19.76,15.20" fill="#34D399" stroke="rgba(255,255,255,0.55)" stroke-width="1.4" /></g>
    <g transform="translate(277.96 77.31) rotate(11.00)"><path d="M 0 12.09 C -15.83 1.44, -17.26 -10.07, -6.91 -2.30 C -0.58 -12.09, 0.58 -12.09, 6.91 -2.30 C 17.26 -10.07, 15.83 1.44, 0 12.09 Z" fill="#34D399" stroke="rgba(255,255,255,0.55)" stroke-width="1.2" /></g>
    <g transform="translate(125.86 461.37) rotate(-22.37)"><polygon points="0,-22.40 20.08,15.45 -20.08,15.45" fill="#FB7185" stroke="rgba(255,255,255,0.55)" stroke-width="1.4" /></g>
    <g transform="translate(293.09 194.78) rotate(16.61)"><path d="M 0 16.28 C -21.32 1.94, -23.26 -13.57, -9.30 -3.10 C -0.78 -16.28, 0.78 -16.28, 9.30 -3.10 C 23.26 -13.57, 21.32 1.94, 0 16.28 Z" fill="#F87171" stroke="rgba(255,255,255,0.55)" stroke-width="1.2" /></g>
    <g transform="translate(678.77 200.83) rotate(13.26)"><path d="M 0 12.59 C -16.49 1.50, -17.99 -10.49, -7.19 -2.40 C -0.60 -12.59, 0.60 -12.59, 7.19 -2.40 C 17.99 -10.49, 16.49 1.50, 0 12.59 Z" fill="#FB7185" stroke="rgba(255,255,255,0.55)" stroke-width="1.2" /></g>
    <g transform="translate(446.13 76.44) rotate(1.88)"><circle cx="0" cy="0" r="20.11" fill="#FBBF24" stroke="rgba(255,255,255,0.55)" stroke-width="1.4" /><circle cx="-7.24" cy="-4.83" r="3.22" fill="#1F2937" /><circle cx="7.24" cy="-4.83" r="3.22" fill="#1F2937" /><path d="M -15.28 5.63 Q 0 13.67 15.28 5.63" fill="none" stroke="#1F2937" stroke-width="2.2" stroke-linecap="round" /></g>
    <g transform="translate(364.88 459.40) rotate(-15.76)"><circle cx="0" cy="0" r="17.58" fill="#A78BFA" stroke="rgba(255,255,255,0.55)" stroke-width="1.4" /></g>
    <g transform="translate(286.93 339.62) rotate(-5.38)"><polygon points="0,-17.42 17.42,0 0,17.42 -17.42,0" fill="#22D3EE" stroke="rgba(255,255,255,0.55)" stroke-width="1.4" /></g>
    <g transform="translate(901.07 532.20) rotate(-12.18)"><rect x="-16.79" y="-16.79" width="33.57" height="33.57" rx="3.65" fill="#60A5FA" stroke="rgba(255,255,255,0.55)" stroke-width="1.4" /></g>
    <g transform="translate(439.86 396.84) rotate(-1.38)"><rect x="-15.56" y="-4.59" width="31.13" height="9.17" rx="4.59" fill="#FB7185" /><rect x="-4.59" y="-15.56" width="9.17" height="31.13" rx="4.59" fill="#FB7185" /></g>
    <g transform="translate(282.43 263.40) rotate(25.45)"><rect x="-16.13" y="-16.13" width="32.25" height="32.25" rx="3.51" fill="#A78BFA" stroke="rgba(255,255,255,0.55)" stroke-width="1.4" /></g>
  </g>
</svg>
