<svg xmlns="http://www.w3.org/2000/svg" width="960" height="600" viewBox="0 0 960 600">
  <defs>
    <linearGradient id="bg45" x1="0%" y1="0%" x2="100%" y2="100%">
      <stop offset="0%" stop-color="#0F172A" />
      <stop offset="100%" stop-color="#1D4ED8" />
    </linearGradient>
    <filter id="shadow45" x="-20%" y="-20%" width="140%" height="140%">
      <feDropShadow dx="0" dy="2" stdDeviation="1.8" flood-color="rgba(0,0,0,0.36)" />
    </filter>
  </defs>

  <rect width="960" height="600" fill="url(#bg45)" />
  <rect x="24" y="24" width="912" height="552" rx="20" fill="rgba(255,255,255,0.045)" stroke="rgba(255,255,255,0.22)" />
  <g filter="url(#shadow45)">
    <g transform="translate(749.76 264.16) rotate(16.27)"><polygon points="0,-19.90 19.90,0 0,19.90 -19.90,0" fill="#FB7185" stroke="rgba(255,255,255,0.55)" stroke-width="1.4" /></g>
    <g transform="translate(914.42 196.51) rotate(-1.99)"><path d="M 0 12.08 C -15.82 1.44, -17.26 -10.07, -6.90 -2.30 C -0.58 -12.08, 0.58 -12.08, 6.90 -2.30 C 17.26 -10.07, 15.82 1.44, 0 12.08 Z" fill="#4ADE80" stroke="rgba(255,255,255,0.55)" stroke-width="1.2" /></g>
    <g transform="translate(281.86 203.44) rotate(14.36)"><polygon points="-17.71,-6.37 2.83,-6.37 2.83,-13.46 19.48,0.00 2.83,13.46 2.83,6.37 -17.71,6.37" fill="#FB7185" stroke="rgba(255,255,255,0.55)" stroke-width="1.2" /></g>
    <g transform="translate(49.81 532.71) rotate(0.03)"><path d="M 0 16.99 C -22.25 2.02, -24.27 -14.16, -9.71 -3.24 C -0.81 -16.99, 0.81 -16.99, 9.71 -3.24 C 24.27 -14.16, 22.25 2.02, 0 16.99 Z" fill="#4ADE80" stroke="rgba(255,255,255,0.55)" stroke-width="1.2" /></g>
    <g transform="translate(604.63 131.14) rotate(-12.99)"><path d="M 0 14.48 C -18.96 1.72, -20.68 -12.06, -8.27 -2.76 C -0.69 -14.48, 0.69 -14.48, 8.27 -2.76 C 20.68 -12.06, 18.96 1.72, 0 14.48 Z" fill="#F97316" stroke="rgba(255,255,255,0.55)" stroke-width="1.2" /></g>
    <g transform="translate(523.19 209.05) rotate(-15.44)"><polygon points="0.00,-22.68 5.82,-8.01 21.57,-7.01 9.41,3.06 13.33,18.35 0.00,9.90 -13.33,18.35 -9.41,3.06 -21.57,-7.01 -5.82,-8.01" fill="#22D3EE" stroke="rgba(255,255,255,0.55)" stroke-width="1.4" /></g>
    <g transform="translate(127.29 137.18) rotate(-13.51)"><polygon points="-16.07,-5.79 2.57,-5.79 2.57,-12.22 17.68,0.00 2.57,12.22 2.57,5.79 -16.07,5.79" fill="#60A5FA" stroke="rgba(255,255,255,0.55)" stroke-width="1.2" /></g>
    <g transform="translate(749.59 338.71) rotate(-14.12)"><path d="M 0 16.36 C -21.42 1.95, -23.37 -13.63, -9.35 -3.12 C -0.78 -16.36, 0.78 -16.36, 9.35 -3.12 C 23.37 -13.63, 21.42 1.95, 0 16.36 Z" fill="#F97316" stroke="rgba(255,255,255,0.55)" stroke-width="1.2" /></g>
    <g transform="translate(50.70 273.38) rotate(-6.72)"><circle cx="0" cy="0" r="18.78" fill="#F97316" /><circle cx="7.51" cy="-0.75" r="15.78" fill="#0B1A34" /></g>
    <g transform="translate(520.58 466.18) rotate(8.21)"><path d="M 0 14.65 C -19.18 1.74, -20.93 -12.21, -8.37 -2.79 C -0.70 -14.65, 0.70 -14.65, 8.37 -2.79 C 20.93 -12.21, 19.18 1.74, 0 14.65 Z" fill="#4ADE80" stroke="rgba(255,255,255,0.55)" stroke-width="1.2" /></g>
    <g transform="translate(280.19 139.94) rotate(20.38)"><polygon points="0,-18.33 18.33,0 0,18.33 -18.33,0" fill="#FBBF24" stroke="rgba(255,255,255,0.55)" stroke-width="1.4" /></g>
    <g transform="translate(517.99 132.11) rotate(20.80)"><polygon points="0,-17.28 15.49,11.91 -15.49,11.91" fill="#22D3EE" stroke="rgba(255,255,255,0.55)" stroke-width="1.4" /></g>
    <g transform="translate(911.22 456.57) rotate(9.43)"><path d="M 0 13.76 C -18.02 1.64, -19.66 -11.47, -7.86 -2.62 C -0.66 -13.76, 0.66 -13.76, 7.86 -2.62 C 19.66 -11.47, 18.02 1.64, 0 13.76 Z" fill="#F87171" stroke="rgba(255,255,255,0.55)" stroke-width="1.2" /></g>
    <g transform="translate(286.91 522.36) rotate(25.39)"><polygon points="0.00,-18.45 4.73,-6.51 17.55,-5.70 7.66,2.49 10.85,14.93 0.00,8.05 -10.85,14.93 -7.66,2.49 -17.55,-5.70 -4.73,-6.51" fill="#34D399" stroke="rgba(255,255,255,0.55)" stroke-width="1.4" /></g>
    <g transform="translate(905.16 259.60) rotate(15.62)"><polygon points="0.00,-22.01 5.65,-7.77 20.93,-6.80 9.13,2.97 12.94,17.81 0.00,9.60 -12.94,17.81 -9.13,2.97 -20.93,-6.80 -5.65,-7.77" fill="#FB7185" stroke="rgba(255,255,255,0.55)" stroke-width="1.4" /></g>
    <g transform="translate(288.69 327.63) rotate(5.64)"><circle cx="0" cy="0" r="17.25" fill="#C084FC" /><circle cx="6.90" cy="-0.69" r="14.49" fill="#0B1A34" /></g>
    <g transform="translate(668.66 67.65) rotate(-4.18)"><path d="M 0 13.38 C -17.52 1.59, -19.11 -11.15, -7.64 -2.55 C -0.64 -13.38, 0.64 -13.38, 7.64 -2.55 C 19.11 -11.15, 17.52 1.59, 0 13.38 Z" fill="#F87171" stroke="rgba(255,255,255,0.55)" stroke-width="1.2" /></g>
  </g>
</svg>
