<svg xmlns="http://www.w3.org/2000/svg" width="960" height="600" viewBox="0 0 960 600">
  <defs>
    <linearGradient id="bg196" x1="0%" y1="0%" x2="100%" y2="100%">
      <stop offset="0%" stop-color="#0F172A" />
      <stop offset="100%" stop-color="#1D4ED8" />
    </linearGradient>
    <filter id="shadow196" x="-20%" y="-20%" width="140%" height="140%">
      <feDropShadow dx="0" dy="2" stdDeviation="1.8" flood-color="rgba(0,0,0,0.36)" />
    </filter>
  </defs>

  <rect width="960" height="600" fill="url(#bg196)" />
  <rect x="24" y="24" width="912" height="552" rx="20" fill="rgba(255,255,255,0.045)" stroke="rgba(255,255,255,0.22)" />
  <g filter="url(#shadow196)">
    <g transform="translate(58.64 402.47) rotate(3.62)"><circle cx="0" cy="0" r="20.03" fill="#FB7185" /><circle cx="8.01" cy="-0.80" r="16.83" fill="#0B1A34" /></g>
    <g transform="translate(59.16 263.27) rotate(-23.55)"><path d="M 0 16.09 C -21.07 1.92, -22.99 -13.41, -9.20 -3.07 C -0.77 -16.09, 0.77 -16.09, 9.20 -3.07 C 22.99 -13.41, 21.07 1.92, 0 16.09 Z" fill="#34D399" stroke="rgba(255,255,255,0.55)" stroke-width="1.2" /></g>
    <g transform="translate(669.33 329.92) rotate(4.39)"><circle cx="0" cy="0" r="14.87" fill="#22D3EE" stroke="rgba(255,255,255,0.55)" stroke-width="1.4" /><circle cx="-5.35" cy="-3.57" r="2.38" fill="#1F2937" /><circle cx="5.35" cy="-3.57" r="2.38" fill="#1F2937" /><path d="M -11.30 4.16 Q 0 10.11 11.30 4.16" fill="none" stroke="#1F2937" stroke-width="2.2" stroke-linecap="round" /></g>
    <g transform="translate(50.28 63.91) rotate(10.83)"><circle cx="0" cy="0" r="20.13" fill="#F97316" stroke="rgba(255,255,255,0.55)" stroke-width="1.4" /></g>
    <g transform="translate(602.83 132.34) rotate(5.27)"><circle cx="0" cy="0" r="18.97" fill="#A78BFA" stroke="rgba(255,255,255,0.55)" stroke-width="1.4" /><circle cx="-6.83" cy="-4.55" r="3.03" fill="#1F2937" /><circle cx="6.83" cy="-4.55" r="3.03" fill="#1F2937" /><path d="M -14.41 5.31 Q 0 12.90 14.41 5.31" fill="none" stroke="#1F2937" stroke-width="2.2" stroke-linecap="round" /></g>
    <g transform="translate(907.98 404.21) rotate(-22.04)"><polygon points="0,-14.00 14.00,0 0,14.00 -14.00,0" fill="#FBBF24" stroke="rgba(255,255,255,0.55)" stroke-width="1.4" /></g>
    <g transform="translate(747.99 398.99) rotate(-16.97)"><rect x="-17.69" y="-17.69" width="35.38" height="35.38" rx="3.85" fill="#A78BFA" stroke="rgba(255,255,255,0.55)" stroke-width="1.4" /></g>
    <g transform="translate(136.96 70.57) rotate(-14.71)"><path d="M 0 16.70 C -21.87 1.99, -23.86 -13.92, -9.54 -3.18 C -0.80 -16.70, 0.80 -16.70, 9.54 -3.18 C 23.86 -13.92, 21.87 1.99, 0 16.70 Z" fill="#4ADE80" stroke="rgba(255,255,255,0.55)" stroke-width="1.2" /></g>
    <g transform="translate(749.66 64.76) rotate(14.91)"><rect x="-17.85" y="-17.85" width="35.70" height="35.70" rx="3.88" fill="#4ADE80" stroke="rgba(255,255,255,0.55)" stroke-width="1.4" /></g>
    <g transform="translate(211.57 135.39) rotate(10.34)"><path d="M 0 12.26 C -16.05 1.46, -17.51 -10.21, -7.00 -2.33 C -0.58 -12.26, 0.58 -12.26, 7.00 -2.33 C 17.51 -10.21, 16.05 1.46, 0 12.26 Z" fill="#F97316" stroke="rgba(255,255,255,0.55)" stroke-width="1.2" /></g>
    <g transform="translate(440.12 402.03) rotate(-4.43)"><polygon points="0,-19.79 19.79,0 0,19.79 -19.79,0" fill="#A78BFA" stroke="rgba(255,255,255,0.55)" stroke-width="1.4" /></g>
    <g transform="translate(519.26 456.91) rotate(7.40)"><circle cx="0" cy="0" r="16.34" fill="#C084FC" stroke="rgba(255,255,255,0.55)" stroke-width="1.4" /><circle cx="-5.88" cy="-3.92" r="2.62" fill="#1F2937" /><circle cx="5.88" cy="-3.92" r="2.62" fill="#1F2937" /><path d="M -12.42 4.58 Q 0 11.11 12.42 4.58" fill="none" stroke="#1F2937" stroke-width="2.2" stroke-linecap="round" /></g>
    <g transform="translate(279.05 206.26) rotate(-0.02)"><circle cx="0" cy="0" r="20.87" fill="#22D3EE" /><circle cx="8.35" cy="-0.83" r="17.53" fill="#0B1A34" /></g>
    <g transform="translate(513.48 196.01) rotate(-21.08)"><path d="M 0 16.88 C -22.10 2.01, -24.11 -14.06, -9.64 -3.21 C -0.80 -16.88, 0.80 -16.88, 9.64 -3.21 C 24.11 -14.06, 22.10 2.01, 0 16.88 Z" fill="#22D3EE" stroke="rgba(255,255,255,0.55)" stroke-width="1.2" /></g>
    <g transform="translate(367.47 522.00) rotate(9.51)"><circle cx="0" cy="0" r="14.53" fill="#FBBF24" stroke="rgba(255,255,255,0.55)" stroke-width="1.4" /></g>
    <g transform="translate(202.71 525.29) rotate(-18.96)"><rect x="-19.23" y="-19.23" width="38.46" height="38.46" rx="4.18" fill="#F87171" stroke="rgba(255,255,255,0.55)" stroke-width="1.4" /></g>
    <g transform="translate(54.71 135.95) rotate(1.59)"><path d="M 0 16.11 C -21.09 1.92, -23.01 -13.42, -9.20 -3.07 C -0.77 -16.11, 0.77 -16.11, 9.20 -3.07 C 23.01 -13.42, 21.09 1.92, 0 16.11 Z" fill="#F87171" stroke="rgba(255,255,255,0.55)" stroke-width="1.2" /></g>
    <g transform="translate(670.34 134.75) rotate(9.26)"><path d="M 0 14.90 C -19.51 1.77, -21.29 -12.42, -8.51 -2.84 C -0.71 -14.90, 0.71 -14.90, 8.51 -2.84 C 21.29 -12.42, 19.51 1.77, 0 14.90 Z" fill="#C084FC" stroke="rgba(255,255,255,0.55)" stroke-width="1.2" /></g>
    <g transform="translate(598.01 535.20) rotate(-5.01)"><circle cx="0" cy="0" r="20.51" fill="#F97316" stroke="rgba(255,255,255,0.55)" stroke-width="1.4" /><circle cx="-7.39" cy="-4.92" r="3.28" fill="#1F2937" /><circle cx="7.39" cy="-4.92" r="3.28" fill="#1F2937" /><path d="M -15.59 5.74 Q 0 13.95 15.59 5.74" fill="none" stroke="#1F2937" stroke-width="2.2" stroke-linecap="round" /></g>
    <g transform="translate(822.39 271.94) rotate(5.50)"><circle cx="0" cy="0" r="20.54" fill="#22D3EE" stroke="rgba(255,255,255,0.55)" stroke-width="1.4" /><circle cx="-7.40" cy="-4.93" r="3.29" fill="#1F2937" /><circle cx="7.40" cy="-4.93" r="3.29" fill="#1F2937" /><path d="M -15.61 5.75 Q 0 13.97 15.61 5.75" fill="none" stroke="#1F2937" stroke-width="2.2" stroke-linecap="round" /></g>
    <g transform="translate(200.91 77.76) rotate(-3.21)"><circle cx="0" cy="0" r="20.56" fill="#FB7185" stroke="rgba(255,255,255,0.55)" stroke-width="1.4" /><circle cx="-7.40" cy="-4.94" r="3.29" fill="#1F2937" /><circle cx="7.40" cy="-4.94" r="3.29" fill="#1F2937" /><path d="M -15.63 5.76 Q 0 13.98 15.63 5.76" fill="none" stroke="#1F2937" stroke-width="2.2" stroke-linecap="round" /></g>
    <g transform="translate(440.54 130.21) rotate(-6.77)"><circle cx="0" cy="0" r="15.65" fill="#A78BFA" stroke="rgba(255,255,255,0.55)" stroke-width="1.4" /><circle cx="-5.63" cy="-3.76" r="2.50" fill="#1F2937" /><circle cx="5.63" cy="-3.76" r="2.50" fill="#1F2937" /><path d="M -11.89 4.38 Q 0 10.64 11.89 4.38" fill="none" stroke="#1F2937" stroke-width="2.2" stroke-linecap="round" /></g>
    <g transform="translate(437.55 471.43) rotate(-12.99)"><circle cx="0" cy="0" r="17.27" fill="#F87171" stroke="rgba(255,255,255,0.55)" stroke-width="1.4" /></g>
    <g transform="translate(203.60 268.48) rotate(-2.11)"><circle cx="0" cy="0" r="16.04" fill="#C084FC" stroke="rgba(255,255,255,0.55)" stroke-width="1.4" /><circle cx="-5.77" cy="-3.85" r="2.57" fill="#1F2937" /><circle cx="5.77" cy="-3.85" r="2.57" fill="#1F2937" /><path d="M -12.19 4.49 Q 0 10.91 12.19 4.49" fill="none" stroke="#1F2937" stroke-width="2.2" stroke-linecap="round" /></g>
    <g transform="translate(55.69 331.27) rotate(4.60)"><circle cx="0" cy="0" r="18.65" fill="#F87171" stroke="rgba(255,255,255,0.55)" stroke-width="1.4" /><circle cx="-6.71" cy="-4.48" r="2.98" fill="#1F2937" /><circle cx="6.71" cy="-4.48" r="2.98" fill="#1F2937" /><path d="M -14.17 5.22 Q 0 12.68 14.17 5.22" fill="none" stroke="#1F2937" stroke-width="2.2" stroke-linecap="round" /></g>
    <g transform="translate(757.88 331.06) rotate(3.02)"><circle cx="0" cy="0" r="18.13" fill="#F97316" stroke="rgba(255,255,255,0.55)" stroke-width="1.4" /><circle cx="-6.53" cy="-4.35" r="2.90" fill="#1F2937" /><circle cx="6.53" cy="-4.35" r="2.90" fill="#1F2937" /><path d="M -13.78 5.08 Q 0 12.33 13.78 5.08" fill="none" stroke="#1F2937" stroke-width="2.2" stroke-linecap="round" /></g>
    <g transform="translate(900.49 457.92) rotate(-11.85)"><path d="M 0 14.31 C -18.73 1.70, -20.44 -11.92, -8.17 -2.72 C -0.68 -14.31, 0.68 -14.31, 8.17 -2.72 C 20.44 -11.92, 18.73 1.70, 0 14.31 Z" fill="#22D3EE" stroke="rgba(255,255,255,0.55)" stroke-width="1.2" /></g>
  </g>
</svg>
