<svg xmlns="http://www.w3.org/2000/svg" width="960" height="600" viewBox="0 0 960 600">
  <defs>
    <linearGradient id="bg72" x1="0%" y1="0%" x2="100%" y2="100%">
      <stop offset="0%" stop-color="#0F172A" />
      <stop offset="100%" stop-color="#1D4ED8" />
    </linearGradient>
    <filter id="shadow72" x="-20%" y="-20%" width="140%" height="140%">
      <feDropShadow dx="0" dy="2" stdDeviation="1.8" flood-color="rgba(0,0,0,0.36)" />
    </filter>
  </defs>

  <rect width="960" height="600" fill="url(#bg72)" />
  <rect x="24" y="24" width="912" height="552" rx="20" fill="rgba(255,255,255,0.045)" stroke="rgba(255,255,255,0.22)" />
  <g filter="url(#shadow72)">
    <g transform="translate(365.35 260.97) rotate(2.32)"><polygon points="0.00,-21.20 5.44,-7.49 20.17,-6.55 8.80,2.86 12.46,17.15 0.00,9.25 -12.46,17.15 -8.80,2.86 -20.17,-6.55 -5.44,-7.49" fill="#60A5FA" stroke="rgba(255,255,255,0.55)" stroke-width="1.4" /></g>
    <g transform="translate(679.12 70.53) rotate(0.19)"><polygon points="0.00,-17.65 4.53,-6.23 16.79,-5.45 7.32,2.38 10.37,14.28 0.00,7.70 -10.37,14.28 -7.32,2.38 -16.79,-5.45 -4.53,-6.23" fill="#A78BFA" stroke="rgba(255,255,255,0.55)" stroke-width="1.4" /></g>
    <g transform="translate(292.87 330.85) rotate(0.55)"><circle cx="0" cy="0" r="18.99" fill="#60A5FA" stroke="rgba(255,255,255,0.55)" stroke-width="1.4" /><circle cx="-6.84" cy="-4.56" r="3.04" fill="#1F2937" /><circle cx="6.84" cy="-4.56" r="3.04" fill="#1F2937" /><path d="M -14.43 5.32 Q 0 12.91 14.43 5.32" fill="none" stroke="#1F2937" stroke-width="2.2" stroke-linecap="round" /></g>
    <g transform="translate(207.13 203.71) rotate(0.10)"><circle cx="0" cy="0" r="14.89" fill="#4ADE80" stroke="rgba(255,255,255,0.55)" stroke-width="1.4" /><circle cx="-5.36" cy="-3.57" r="2.38" fill="#1F2937" /><circle cx="5.36" cy="-3.57" r="2.38" fill="#1F2937" /><path d="M -11.32 4.17 Q 0 10.13 11.32 4.17" fill="none" stroke="#1F2937" stroke-width="2.2" stroke-linecap="round" /></g>
    <g transform="translate(44.30 138.47) rotate(-18.38)"><polygon points="0,-17.18 15.40,11.84 -15.40,11.84" fill="#22D3EE" stroke="rgba(255,255,255,0.55)" stroke-width="1.4" /></g>
    <g transform="translate(279.21 68.28) rotate(4.46)"><rect x="-15.25" y="-4.49" width="30.50" height="8.99" rx="4.49" fill="#4ADE80" /><rect x="-4.49" y="-15.25" width="8.99" height="30.50" rx="4.49" fill="#4ADE80" /></g>
    <g transform="translate(521.05 522.40) rotate(27.90)"><circle cx="0" cy="0" r="14.41" fill="#F97316" stroke="rgba(255,255,255,0.55)" stroke-width="1.4" /></g>
    <g transform="translate(912.89 272.40) rotate(9.14)"><circle cx="0" cy="0" r="18.69" fill="#C084FC" stroke="rgba(255,255,255,0.55)" stroke-width="1.4" /></g>
    <g transform="translate(837.73 331.38) rotate(-24.82)"><polygon points="0,-19.30 17.31,13.31 -17.31,13.31" fill="#F87171" stroke="rgba(255,255,255,0.55)" stroke-width="1.4" /></g>
    <g transform="translate(680.66 193.69) rotate(13.52)"><rect x="-16.70" y="-4.92" width="33.41" height="9.85" rx="4.92" fill="#FBBF24" /><rect x="-4.92" y="-16.70" width="9.85" height="33.41" rx="4.92" fill="#FBBF24" /></g>
    <g transform="translate(912.40 75.17) rotate(-12.68)"><polygon points="0.00,-18.28 4.69,-6.45 17.39,-5.65 7.59,2.47 10.75,14.79 0.00,7.98 -10.75,14.79 -7.59,2.47 -17.39,-5.65 -4.69,-6.45" fill="#F97316" stroke="rgba(255,255,255,0.55)" stroke-width="1.4" /></g>
    <g transform="translate(912.50 196.18) rotate(18.49)"><polygon points="0,-20.17 18.08,13.91 -18.08,13.91" fill="#FBBF24" stroke="rgba(255,255,255,0.55)" stroke-width="1.4" /></g>
    <g transform="translate(666.82 132.27) rotate(10.97)"><rect x="-17.34" y="-5.11" width="34.68" height="10.22" rx="5.11" fill="#C084FC" /><rect x="-5.11" y="-17.34" width="10.22" height="34.68" rx="5.11" fill="#C084FC" /></g>
    <g transform="translate(434.52 72.34) rotate(-1.15)"><polygon points="0,-21.43 19.21,14.78 -19.21,14.78" fill="#22D3EE" stroke="rgba(255,255,255,0.55)" stroke-width="1.4" /></g>
    <g transform="translate(589.32 73.97) rotate(-12.49)"><polygon points="0,-19.01 17.05,13.11 -17.05,13.11" fill="#60A5FA" stroke="rgba(255,255,255,0.55)" stroke-width="1.4" /></g>
    <g transform="translate(673.29 465.06) rotate(17.01)"><rect x="-19.91" y="-5.87" width="39.81" height="11.73" rx="5.87" fill="#4ADE80" /><rect x="-5.87" y="-19.91" width="11.73" height="39.81" rx="5.87" fill="#4ADE80" /></g>
    <g transform="translate(133.03 65.58) rotate(18.15)"><polygon points="0.00,-18.35 4.71,-6.48 17.45,-5.67 7.61,2.47 10.79,14.84 0.00,8.01 -10.79,14.84 -7.61,2.47 -17.45,-5.67 -4.71,-6.48" fill="#FB7185" stroke="rgba(255,255,255,0.55)" stroke-width="1.4" /></g>
    <g transform="translate(835.87 406.17) rotate(-20.11)"><polygon points="-19.65,-7.08 3.14,-7.08 3.14,-14.94 21.62,0.00 3.14,14.94 3.14,7.08 -19.65,7.08" fill="#60A5FA" stroke="rgba(255,255,255,0.55)" stroke-width="1.2" /></g>
    <g transform="translate(363.53 135.83) rotate(24.99)"><circle cx="0" cy="0" r="20.80" fill="#FB7185" stroke="rgba(255,255,255,0.55)" stroke-width="1.4" /></g>
    <g transform="translate(44.36 76.08) rotate(8.62)"><polygon points="-19.49,-7.02 3.12,-7.02 3.12,-14.81 21.44,0.00 3.12,14.81 3.12,7.02 -19.49,7.02" fill="#22D3EE" stroke="rgba(255,255,255,0.55)" stroke-width="1.2" /></g>
    <g transform="translate(589.75 141.17) rotate(14.94)"><polygon points="0,-18.72 18.72,0 0,18.72 -18.72,0" fill="#F97316" stroke="rgba(255,255,255,0.55)" stroke-width="1.4" /></g>
    <g transform="translate(598.20 274.22) rotate(-17.29)"><polygon points="0,-18.74 16.80,12.92 -16.80,12.92" fill="#F87171" stroke="rgba(255,255,255,0.55)" stroke-width="1.4" /></g>
    <g transform="translate(748.72 536.23) rotate(10.40)"><polygon points="0,-16.94 15.18,11.68 -15.18,11.68" fill="#22D3EE" stroke="rgba(255,255,255,0.55)" stroke-width="1.4" /></g>
    <g transform="translate(911.11 524.33) rotate(5.25)"><rect x="-16.96" y="-5.00" width="33.91" height="9.99" rx="5.00" fill="#FB7185" /><rect x="-5.00" y="-16.96" width="9.99" height="33.91" rx="5.00" fill="#FB7185" /></g>
    <g transform="translate(591.55 339.32) rotate(2.01)"><circle cx="0" cy="0" r="20.08" fill="#F87171" stroke="rgba(255,255,255,0.55)" stroke-width="1.4" /><circle cx="-7.23" cy="-4.82" r="3.21" fill="#1F2937" /><circle cx="7.23" cy="-4.82" r="3.21" fill="#1F2937" /><path d="M -15.26 5.62 Q 0 13.66 15.26 5.62" fill="none" stroke="#1F2937" stroke-width="2.2" stroke-linecap="round" /></g>
    <g transform="translate(210.47 138.12) rotate(-17.65)"><polygon points="0,-19.86 17.80,13.69 -17.80,13.69" fill="#C084FC" stroke="rgba(255,255,255,0.55)" stroke-width="1.4" /></g>
  </g>
</svg>
