<svg xmlns="http://www.w3.org/2000/svg" width="960" height="600" viewBox="0 0 960 600">
  <defs>
    <linearGradient id="bg7" x1="0%" y1="0%" x2="100%" y2="100%">
      <stop offset="0%" stop-color="#0F172A" />
      <stop offset="100%" stop-color="#1D4ED8" />
    </linearGradient>
    <filter id="shadow7" x="-20%" y="-20%" width="140%" height="140%">
      <feDropShadow dx="0" dy="2" stdDeviation="1.8" flood-color="rgba(0,0,0,0.36)" />
    </filter>
  </defs>

  <rect width="960" height="600" fill="url(#bg7)" />
  <rect x="24" y="24" width="912" height="552" rx="20" fill="rgba(255,255,255,0.045)" stroke="rgba(255,255,255,0.22)" />
  <g filter="url(#shadow7)">
    <g transform="translate(280.57 263.24) rotate(-11.00)"><polygon points="-17.87,-6.43 2.86,-6.43 2.86,-13.58 19.65,0.00 2.86,13.58 2.86,6.43 -17.87,6.43" fill="#A78BFA" stroke="rgba(255,255,255,0.55)" stroke-width="1.2" /></g>
    <g transform="translate(589.90 131.32) rotate(3.26)"><path d="M 0 16.61 C -21.75 1.98, -23.72 -13.84, -9.49 -3.16 C -0.79 -16.61, 0.79 -16.61, 9.49 -3.16 C 23.72 -13.84, 21.75 1.98, 0 16.61 Z" fill="#F87171" stroke="rgba(255,255,255,0.55)" stroke-width="1.2" /></g>
    <g transform="translate(831.02 204.36) rotate(-1.75)"><circle cx="0" cy="0" r="15.05" fill="#34D399" stroke="rgba(255,255,255,0.55)" stroke-width="1.4" /><circle cx="-5.42" cy="-3.61" r="2.41" fill="#1F2937" /><circle cx="5.42" cy="-3.61" r="2.41" fill="#1F2937" /><path d="M -11.44 4.21 Q 0 10.23 11.44 4.21" fill="none" stroke="#1F2937" stroke-width="2.2" stroke-linecap="round" /></g>
    <g transform="translate(750.17 459.29) rotate(-18.03)"><polygon points="-18.53,-6.67 2.96,-6.67 2.96,-14.08 20.38,0.00 2.96,14.08 2.96,6.67 -18.53,6.67" fill="#C084FC" stroke="rgba(255,255,255,0.55)" stroke-width="1.2" /></g>
    <g transform="translate(676.78 392.74) rotate(27.59)"><polygon points="0,-16.09 14.43,11.10 -14.43,11.10" fill="#F97316" stroke="rgba(255,255,255,0.55)" stroke-width="1.4" /></g>
    <g transform="translate(753.25 141.27) rotate(-15.33)"><polygon points="-14.34,-5.16 2.30,-5.16 2.30,-10.90 15.78,0.00 2.30,10.90 2.30,5.16 -14.34,5.16" fill="#4ADE80" stroke="rgba(255,255,255,0.55)" stroke-width="1.2" /></g>
    <g transform="translate(447.84 470.96) rotate(-19.50)"><polygon points="-17.32,-6.23 2.77,-6.23 2.77,-13.16 19.05,0.00 2.77,13.16 2.77,6.23 -17.32,6.23" fill="#A78BFA" stroke="rgba(255,255,255,0.55)" stroke-width="1.2" /></g>
    <g transform="translate(214.82 336.28) rotate(-16.36)"><polygon points="0,-22.52 20.19,15.53 -20.19,15.53" fill="#FB7185" stroke="rgba(255,255,255,0.55)" stroke-width="1.4" /></g>
    <g transform="translate(524.06 63.15) rotate(-2.94)"><circle cx="0" cy="0" r="20.77" fill="#A78BFA" stroke="rgba(255,255,255,0.55)" stroke-width="1.4" /><circle cx="-7.48" cy="-4.99" r="3.32" fill="#1F2937" /><circle cx="7.48" cy="-4.99" r="3.32" fill="#1F2937" /><path d="M -15.79 5.82 Q 0 14.13 15.79 5.82" fill="none" stroke="#1F2937" stroke-width="2.2" stroke-linecap="round" /></g>
    <g transform="translate(681.61 76.57) rotate(-25.35)"><polygon points="-14.92,-5.37 2.39,-5.37 2.39,-11.34 16.41,0.00 2.39,11.34 2.39,5.37 -14.92,5.37" fill="#A78BFA" stroke="rgba(255,255,255,0.55)" stroke-width="1.2" /></g>
    <g transform="translate(829.14 338.88) rotate(8.63)"><polygon points="-16.04,-5.77 2.57,-5.77 2.57,-12.19 17.64,0.00 2.57,12.19 2.57,5.77 -16.04,5.77" fill="#F87171" stroke="rgba(255,255,255,0.55)" stroke-width="1.2" /></g>
    <g transform="translate(126.86 456.73) rotate(19.09)"><path d="M 0 11.94 C -15.63 1.42, -17.05 -9.95, -6.82 -2.27 C -0.57 -11.94, 0.57 -11.94, 6.82 -2.27 C 17.05 -9.95, 15.63 1.42, 0 11.94 Z" fill="#60A5FA" stroke="rgba(255,255,255,0.55)" stroke-width="1.2" /></g>
    <g transform="translate(363.61 331.45) rotate(-2.65)"><circle cx="0" cy="0" r="17.49" fill="#A78BFA" stroke="rgba(255,255,255,0.55)" stroke-width="1.4" /><circle cx="-6.30" cy="-4.20" r="2.80" fill="#1F2937" /><circle cx="6.30" cy="-4.20" r="2.80" fill="#1F2937" /><path d="M -13.29 4.90 Q 0 11.89 13.29 4.90" fill="none" stroke="#1F2937" stroke-width="2.2" stroke-linecap="round" /></g>
    <g transform="translate(127.54 401.39) rotate(12.16)"><path d="M 0 13.05 C -17.09 1.55, -18.64 -10.87, -7.46 -2.49 C -0.62 -13.05, 0.62 -13.05, 7.46 -2.49 C 18.64 -10.87, 17.09 1.55, 0 13.05 Z" fill="#C084FC" stroke="rgba(255,255,255,0.55)" stroke-width="1.2" /></g>
    <g transform="translate(667.54 335.28) rotate(20.93)"><path d="M 0 15.82 C -20.71 1.88, -22.60 -13.18, -9.04 -3.01 C -0.75 -15.82, 0.75 -15.82, 9.04 -3.01 C 22.60 -13.18, 20.71 1.88, 0 15.82 Z" fill="#F97316" stroke="rgba(255,255,255,0.55)" stroke-width="1.2" /></g>
    <g transform="translate(519.79 136.11) rotate(4.76)"><circle cx="0" cy="0" r="20.56" fill="#4ADE80" stroke="rgba(255,255,255,0.55)" stroke-width="1.4" /><circle cx="-7.40" cy="-4.94" r="3.29" fill="#1F2937" /><circle cx="7.40" cy="-4.94" r="3.29" fill="#1F2937" /><path d="M -15.63 5.76 Q 0 13.98 15.63 5.76" fill="none" stroke="#1F2937" stroke-width="2.2" stroke-linecap="round" /></g>
    <g transform="translate(58.19 74.60) rotate(-3.73)"><path d="M 0 15.50 C -20.30 1.85, -22.15 -12.92, -8.86 -2.95 C -0.74 -15.50, 0.74 -15.50, 8.86 -2.95 C 22.15 -12.92, 20.30 1.85, 0 15.50 Z" fill="#F87171" stroke="rgba(255,255,255,0.55)" stroke-width="1.2" /></g>
    <g transform="translate(44.63 261.47) rotate(8.93)"><path d="M 0 15.54 C -20.35 1.85, -22.20 -12.95, -8.88 -2.96 C -0.74 -15.54, 0.74 -15.54, 8.88 -2.96 C 22.20 -12.95, 20.35 1.85, 0 15.54 Z" fill="#60A5FA" stroke="rgba(255,255,255,0.55)" stroke-width="1.2" /></g>
    <g transform="translate(54.33 133.41) rotate(-21.19)"><polygon points="0,-21.15 18.97,14.59 -18.97,14.59" fill="#F87171" stroke="rgba(255,255,255,0.55)" stroke-width="1.4" /></g>
    <g transform="translate(365.60 132.17) rotate(-4.59)"><circle cx="0" cy="0" r="16.96" fill="#FBBF24" stroke="rgba(255,255,255,0.55)" stroke-width="1.4" /><circle cx="-6.11" cy="-4.07" r="2.71" fill="#1F2937" /><circle cx="6.11" cy="-4.07" r="2.71" fill="#1F2937" /><path d="M -12.89 4.75 Q 0 11.53 12.89 4.75" fill="none" stroke="#1F2937" stroke-width="2.2" stroke-linecap="round" /></g>
    <g transform="translate(600.57 333.30) rotate(-8.34)"><path d="M 0 12.47 C -16.33 1.48, -17.82 -10.39, -7.13 -2.38 C -0.59 -12.47, 0.59 -12.47, 7.13 -2.38 C 17.82 -10.39, 16.33 1.48, 0 12.47 Z" fill="#60A5FA" stroke="rgba(255,255,255,0.55)" stroke-width="1.2" /></g>
    <g transform="translate(55.22 198.25) rotate(-10.77)"><polygon points="0,-21.94 19.67,15.13 -19.67,15.13" fill="#34D399" stroke="rgba(255,255,255,0.55)" stroke-width="1.4" /></g>
    <g transform="translate(757.50 530.90) rotate(-16.75)"><polygon points="-16.00,-5.76 2.56,-5.76 2.56,-12.16 17.60,0.00 2.56,12.16 2.56,5.76 -16.00,5.76" fill="#FB7185" stroke="rgba(255,255,255,0.55)" stroke-width="1.2" /></g>
    <g transform="translate(913.99 334.58) rotate(13.35)"><polygon points="0,-22.21 19.91,15.32 -19.91,15.32" fill="#FB7185" stroke="rgba(255,255,255,0.55)" stroke-width="1.4" /></g>
    <g transform="translate(604.05 394.76) rotate(-10.23)"><polygon points="-19.37,-6.97 3.10,-6.97 3.10,-14.72 21.31,0.00 3.10,14.72 3.10,6.97 -19.37,6.97" fill="#C084FC" stroke="rgba(255,255,255,0.55)" stroke-width="1.2" /></g>
    <g transform="translate(835.10 535.65) rotate(-9.48)"><path d="M 0 16.06 C -21.03 1.91, -22.94 -13.38, -9.18 -3.06 C -0.76 -16.06, 0.76 -16.06, 9.18 -3.06 C 22.94 -13.38, 21.03 1.91, 0 16.06 Z" fill="#FBBF24" stroke="rgba(255,255,255,0.55)" stroke-width="1.2" /></g>
    <g transform="translate(202.62 200.79) rotate(-4.47)"><circle cx="0" cy="0" r="19.18" fill="#FBBF24" stroke="rgba(255,255,255,0.55)" stroke-width="1.4" /><circle cx="-6.90" cy="-4.60" r="3.07" fill="#1F2937" /><circle cx="6.90" cy="-4.60" r="3.07" fill="#1F2937" /><path d="M -14.58 5.37 Q 0 13.04 14.58 5.37" fill="none" stroke="#1F2937" stroke-width="2.2" stroke-linecap="round" /></g>
  </g>
</svg>
