<svg xmlns="http://www.w3.org/2000/svg" width="960" height="600" viewBox="0 0 960 600">
  <defs>
    <linearGradient id="bg162" x1="0%" y1="0%" x2="100%" y2="100%">
      <stop offset="0%" stop-color="#0F172A" />
      <stop offset="100%" stop-color="#1D4ED8" />
    </linearGradient>
    <filter id="shadow162" x="-20%" y="-20%" width="140%" height="140%">
      <feDropShadow dx="0" dy="2" stdDeviation="1.8" flood-color="rgba(0,0,0,0.36)" />
    </filter>
  </defs>

  <rect width="960" height="600" fill="url(#bg162)" />
  <rect x="24" y="24" width="912" height="552" rx="20" fill="rgba(255,255,255,0.045)" stroke="rgba(255,255,255,0.22)" />
  <g filter="url(#shadow162)">
    <g transform="translate(446.04 204.89) rotate(-9.79)"><polygon points="0,-16.26 14.58,11.21 -14.58,11.21" fill="#F87171" stroke="rgba(255,255,255,0.55)" stroke-width="1.4" /></g>
    <g transform="translate(292.55 394.88) rotate(-17.33)"><circle cx="0" cy="0" r="20.82" fill="#FB7185" stroke="rgba(255,255,255,0.55)" stroke-width="1.4" /></g>
    <g transform="translate(57.35 130.03) rotate(-18.98)"><circle cx="0" cy="0" r="20.12" fill="#60A5FA" stroke="rgba(255,255,255,0.55)" stroke-width="1.4" /></g>
    <g transform="translate(749.08 272.41) rotate(-1.78)"><polygon points="0,-18.47 16.56,12.74 -16.56,12.74" fill="#4ADE80" stroke="rgba(255,255,255,0.55)" stroke-width="1.4" /></g>
    <g transform="translate(280.94 332.00) rotate(1.63)"><circle cx="0" cy="0" r="18.17" fill="#60A5FA" stroke="rgba(255,255,255,0.55)" stroke-width="1.4" /></g>
    <g transform="translate(199.76 338.99) rotate(-18.94)"><polygon points="0,-19.08 17.10,13.16 -17.10,13.16" fill="#22D3EE" stroke="rgba(255,255,255,0.55)" stroke-width="1.4" /></g>
    <g transform="translate(282.18 459.62) rotate(-1.85)"><rect x="-15.92" y="-4.69" width="31.84" height="9.38" rx="4.69" fill="#A78BFA" /><rect x="-4.69" y="-15.92" width="9.38" height="31.84" rx="4.69" fill="#A78BFA" /></g>
    <g transform="translate(832.70 334.44) rotate(8.98)"><circle cx="0" cy="0" r="15.82" fill="#4ADE80" stroke="rgba(255,255,255,0.55)" stroke-width="1.4" /></g>
    <g transform="translate(833.93 129.03) rotate(27.90)"><polygon points="0,-22.12 19.83,15.26 -19.83,15.26" fill="#60A5FA" stroke="rgba(255,255,255,0.55)" stroke-width="1.4" /></g>
    <g transform="translate(289.23 196.53) rotate(-21.15)"><polygon points="-16.79,-6.04 2.69,-6.04 2.69,-12.76 18.47,0.00 2.69,12.76 2.69,6.04 -16.79,6.04" fill="#34D399" stroke="rgba(255,255,255,0.55)" stroke-width="1.2" /></g>
    <g transform="translate(523.82 133.89) rotate(26.04)"><polygon points="-20.63,-7.43 3.30,-7.43 3.30,-15.68 22.70,0.00 3.30,15.68 3.30,7.43 -20.63,7.43" fill="#C084FC" stroke="rgba(255,255,255,0.55)" stroke-width="1.2" /></g>
    <g transform="translate(439.88 463.86) rotate(8.17)"><polygon points="-16.62,-5.98 2.66,-5.98 2.66,-12.63 18.28,0.00 2.66,12.63 2.66,5.98 -16.62,5.98" fill="#A78BFA" stroke="rgba(255,255,255,0.55)" stroke-width="1.2" /></g>
    <g transform="translate(746.76 394.42) rotate(-16.92)"><rect x="-18.27" y="-5.39" width="36.54" height="10.77" rx="5.39" fill="#22D3EE" /><rect x="-5.39" y="-18.27" width="10.77" height="36.54" rx="5.39" fill="#22D3EE" /></g>
    <g transform="translate(747.31 468.39) rotate(-23.25)"><polygon points="0,-22.20 19.90,15.31 -19.90,15.31" fill="#34D399" stroke="rgba(255,255,255,0.55)" stroke-width="1.4" /></g>
    <g transform="translate(744.51 330.48) rotate(-7.58)"><rect x="-18.22" y="-5.37" width="36.44" height="10.74" rx="5.37" fill="#F87171" /><rect x="-5.37" y="-18.22" width="10.74" height="36.44" rx="5.37" fill="#F87171" /></g>
    <g transform="translate(284.81 534.60) rotate(20.98)"><polygon points="0,-15.95 14.30,11.00 -14.30,11.00" fill="#FBBF24" stroke="rgba(255,255,255,0.55)" stroke-width="1.4" /></g>
    <g transform="translate(371.18 398.38) rotate(-25.51)"><rect x="-18.53" y="-5.46" width="37.05" height="10.92" rx="5.46" fill="#4ADE80" /><rect x="-5.46" y="-18.53" width="10.92" height="37.05" rx="5.46" fill="#4ADE80" /></g>
  </g>
</svg>
