<svg xmlns="http://www.w3.org/2000/svg" width="960" height="600" viewBox="0 0 960 600">
  <defs>
    <linearGradient id="bg116" x1="0%" y1="0%" x2="100%" y2="100%">
      <stop offset="0%" stop-color="#0F172A" />
      <stop offset="100%" stop-color="#1D4ED8" />
    </linearGradient>
    <filter id="shadow116" x="-20%" y="-20%" width="140%" height="140%">
      <feDropShadow dx="0" dy="2" stdDeviation="1.8" flood-color="rgba(0,0,0,0.36)" />
    </filter>
  </defs>

  <rect width="960" height="600" fill="url(#bg116)" />
  <rect x="24" y="24" width="912" height="552" rx="20" fill="rgba(255,255,255,0.045)" stroke="rgba(255,255,255,0.22)" />
  <g filter="url(#shadow116)">
    <g transform="translate(434.26 202.28) rotate(17.86)"><rect x="-19.17" y="-19.17" width="38.34" height="38.34" rx="4.17" fill="#F97316" stroke="rgba(255,255,255,0.55)" stroke-width="1.4" /></g>
    <g transform="translate(437.02 325.12) rotate(-2.75)"><circle cx="0" cy="0" r="16.82" fill="#FBBF24" stroke="rgba(255,255,255,0.55)" stroke-width="1.4" /><circle cx="-6.06" cy="-4.04" r="2.69" fill="#1F2937" /><circle cx="6.06" cy="-4.04" r="2.69" fill="#1F2937" /><path d="M -12.78 4.71 Q 0 11.44 12.78 4.71" fill="none" stroke="#1F2937" stroke-width="2.2" stroke-linecap="round" /></g>
    <g transform="translate(912.44 325.07) rotate(25.75)"><rect x="-17.00" y="-17.00" width="34.00" height="34.00" rx="3.70" fill="#A78BFA" stroke="rgba(255,255,255,0.55)" stroke-width="1.4" /></g>
    <g transform="translate(356.95 202.62) rotate(-21.79)"><rect x="-17.18" y="-17.18" width="34.36" height="34.36" rx="3.73" fill="#60A5FA" stroke="rgba(255,255,255,0.55)" stroke-width="1.4" /></g>
    <g transform="translate(206.49 273.49) rotate(-6.75)"><circle cx="0" cy="0" r="19.11" fill="#F87171" stroke="rgba(255,255,255,0.55)" stroke-width="1.4" /><circle cx="-6.88" cy="-4.59" r="3.06" fill="#1F2937" /><circle cx="6.88" cy="-4.59" r="3.06" fill="#1F2937" /><path d="M -14.53 5.35 Q 0 13.00 14.53 5.35" fill="none" stroke="#1F2937" stroke-width="2.2" stroke-linecap="round" /></g>
    <g transform="translate(58.53 470.11) rotate(4.92)"><circle cx="0" cy="0" r="14.85" fill="#FBBF24" stroke="rgba(255,255,255,0.55)" stroke-width="1.4" /><circle cx="-5.35" cy="-3.56" r="2.38" fill="#1F2937" /><circle cx="5.35" cy="-3.56" r="2.38" fill="#1F2937" /><path d="M -11.29 4.16 Q 0 10.10 11.29 4.16" fill="none" stroke="#1F2937" stroke-width="2.2" stroke-linecap="round" /></g>
    <g transform="translate(904.59 462.77) rotate(-11.06)"><polygon points="0.00,-20.75 5.32,-7.33 19.74,-6.41 8.61,2.80 12.20,16.79 0.00,9.06 -12.20,16.79 -8.61,2.80 -19.74,-6.41 -5.32,-7.33" fill="#FB7185" stroke="rgba(255,255,255,0.55)" stroke-width="1.4" /></g>
    <g transform="translate(282.62 131.53) rotate(-1.44)"><circle cx="0" cy="0" r="17.79" fill="#34D399" stroke="rgba(255,255,255,0.55)" stroke-width="1.4" /><circle cx="-6.40" cy="-4.27" r="2.85" fill="#1F2937" /><circle cx="6.40" cy="-4.27" r="2.85" fill="#1F2937" /><path d="M -13.52 4.98 Q 0 12.09 13.52 4.98" fill="none" stroke="#1F2937" stroke-width="2.2" stroke-linecap="round" /></g>
    <g transform="translate(433.48 457.45) rotate(-4.40)"><rect x="-15.18" y="-15.18" width="30.36" height="30.36" rx="3.30" fill="#A78BFA" stroke="rgba(255,255,255,0.55)" stroke-width="1.4" /></g>
    <g transform="translate(359.47 274.69) rotate(-5.45)"><circle cx="0" cy="0" r="20.21" fill="#F87171" stroke="rgba(255,255,255,0.55)" stroke-width="1.4" /><circle cx="-7.27" cy="-4.85" r="3.23" fill="#1F2937" /><circle cx="7.27" cy="-4.85" r="3.23" fill="#1F2937" /><path d="M -15.36 5.66 Q 0 13.74 15.36 5.66" fill="none" stroke="#1F2937" stroke-width="2.2" stroke-linecap="round" /></g>
    <g transform="translate(826.29 262.02) rotate(16.34)"><path d="M 0 14.36 C -18.81 1.71, -20.52 -11.97, -8.21 -2.74 C -0.68 -14.36, 0.68 -14.36, 8.21 -2.74 C 20.52 -11.97, 18.81 1.71, 0 14.36 Z" fill="#4ADE80" stroke="rgba(255,255,255,0.55)" stroke-width="1.2" /></g>
    <g transform="translate(435.56 402.44) rotate(-25.01)"><rect x="-15.65" y="-15.65" width="31.30" height="31.30" rx="3.40" fill="#34D399" stroke="rgba(255,255,255,0.55)" stroke-width="1.4" /></g>
    <g transform="translate(826.00 198.21) rotate(-4.14)"><circle cx="0" cy="0" r="17.07" fill="#A78BFA" /><circle cx="6.83" cy="-0.68" r="14.34" fill="#0B1A34" /></g>
    <g transform="translate(288.18 527.19) rotate(-19.95)"><rect x="-16.93" y="-16.93" width="33.87" height="33.87" rx="3.68" fill="#F87171" stroke="rgba(255,255,255,0.55)" stroke-width="1.4" /></g>
    <g transform="translate(834.39 139.24) rotate(23.16)"><rect x="-15.88" y="-15.88" width="31.77" height="31.77" rx="3.45" fill="#F87171" stroke="rgba(255,255,255,0.55)" stroke-width="1.4" /></g>
    <g transform="translate(913.40 73.35) rotate(4.83)"><circle cx="0" cy="0" r="15.54" fill="#A78BFA" stroke="rgba(255,255,255,0.55)" stroke-width="1.4" /><circle cx="-5.60" cy="-3.73" r="2.49" fill="#1F2937" /><circle cx="5.60" cy="-3.73" r="2.49" fill="#1F2937" /><path d="M -11.81 4.35 Q 0 10.57 11.81 4.35" fill="none" stroke="#1F2937" stroke-width="2.2" stroke-linecap="round" /></g>
    <g transform="translate(440.13 526.61) rotate(3.61)"><circle cx="0" cy="0" r="17.83" fill="#FB7185" stroke="rgba(255,255,255,0.55)" stroke-width="1.4" /><circle cx="-6.42" cy="-4.28" r="2.85" fill="#1F2937" /><circle cx="6.42" cy="-4.28" r="2.85" fill="#1F2937" /><path d="M -13.55 4.99 Q 0 12.13 13.55 4.99" fill="none" stroke="#1F2937" stroke-width="2.2" stroke-linecap="round" /></g>
  </g>
</svg>
