<svg xmlns="http://www.w3.org/2000/svg" width="960" height="600" viewBox="0 0 960 600">
  <defs>
    <linearGradient id="bg5" x1="0%" y1="0%" x2="100%" y2="100%">
      <stop offset="0%" stop-color="#0F172A" />
      <stop offset="100%" stop-color="#1D4ED8" />
    </linearGradient>
    <filter id="shadow5" x="-20%" y="-20%" width="140%" height="140%">
      <feDropShadow dx="0" dy="2" stdDeviation="1.8" flood-color="rgba(0,0,0,0.36)" />
    </filter>
  </defs>

  <rect width="960" height="600" fill="url(#bg5)" />
  <rect x="24" y="24" width="912" height="552" rx="20" fill="rgba(255,255,255,0.045)" stroke="rgba(255,255,255,0.22)" />
  <g filter="url(#shadow5)">
    <g transform="translate(57.29 131.73) rotate(13.42)"><path d="M 0 16.04 C -21.00 1.91, -22.91 -13.37, -9.17 -3.06 C -0.76 -16.04, 0.76 -16.04, 9.17 -3.06 C 22.91 -13.37, 21.00 1.91, 0 16.04 Z" fill="#F97316" stroke="rgba(255,255,255,0.55)" stroke-width="1.2" /></g>
    <g transform="translate(593.74 196.12) rotate(6.30)"><polygon points="0.00,-17.68 4.54,-6.24 16.82,-5.46 7.34,2.38 10.39,14.31 0.00,7.72 -10.39,14.31 -7.34,2.38 -16.82,-5.46 -4.54,-6.24" fill="#F97316" stroke="rgba(255,255,255,0.55)" stroke-width="1.4" /></g>
    <g transform="translate(133.00 533.40) rotate(4.16)"><circle cx="0" cy="0" r="15.49" fill="#FBBF24" stroke="rgba(255,255,255,0.55)" stroke-width="1.4" /><circle cx="-5.58" cy="-3.72" r="2.48" fill="#1F2937" /><circle cx="5.58" cy="-3.72" r="2.48" fill="#1F2937" /><path d="M -11.77 4.34 Q 0 10.54 11.77 4.34" fill="none" stroke="#1F2937" stroke-width="2.2" stroke-linecap="round" /></g>
    <g transform="translate(54.64 393.23) rotate(-22.32)"><polygon points="0.00,-22.08 5.66,-7.80 21.00,-6.82 9.16,2.98 12.98,17.86 0.00,9.64 -12.98,17.86 -9.16,2.98 -21.00,-6.82 -5.66,-7.80" fill="#FBBF24" stroke="rgba(255,255,255,0.55)" stroke-width="1.4" /></g>
    <g transform="translate(671.91 136.30) rotate(-16.37)"><path d="M 0 12.52 C -16.39 1.49, -17.88 -10.43, -7.15 -2.38 C -0.60 -12.52, 0.60 -12.52, 7.15 -2.38 C 17.88 -10.43, 16.39 1.49, 0 12.52 Z" fill="#FB7185" stroke="rgba(255,255,255,0.55)" stroke-width="1.2" /></g>
    <g transform="translate(441.70 462.33) rotate(-13.24)"><circle cx="0" cy="0" r="20.38" fill="#A78BFA" stroke="rgba(255,255,255,0.55)" stroke-width="1.4" /></g>
    <g transform="translate(360.11 402.33) rotate(18.19)"><polygon points="0.00,-16.75 4.30,-5.91 15.93,-5.18 6.95,2.26 9.85,13.55 0.00,7.31 -9.85,13.55 -6.95,2.26 -15.93,-5.18 -4.30,-5.91" fill="#FBBF24" stroke="rgba(255,255,255,0.55)" stroke-width="1.4" /></g>
    <g transform="translate(50.89 531.29) rotate(-3.09)"><path d="M 0 12.76 C -16.71 1.52, -18.23 -10.63, -7.29 -2.43 C -0.61 -12.76, 0.61 -12.76, 7.29 -2.43 C 18.23 -10.63, 16.71 1.52, 0 12.76 Z" fill="#A78BFA" stroke="rgba(255,255,255,0.55)" stroke-width="1.2" /></g>
    <g transform="translate(131.61 402.38) rotate(16.78)"><polygon points="0.00,-20.64 5.29,-7.29 19.63,-6.38 8.57,2.78 12.13,16.70 0.00,9.01 -12.13,16.70 -8.57,2.78 -19.63,-6.38 -5.29,-7.29" fill="#F97316" stroke="rgba(255,255,255,0.55)" stroke-width="1.4" /></g>
    <g transform="translate(204.40 134.34) rotate(27.11)"><path d="M 0 13.74 C -18.00 1.64, -19.63 -11.45, -7.85 -2.62 C -0.65 -13.74, 0.65 -13.74, 7.85 -2.62 C 19.63 -11.45, 18.00 1.64, 0 13.74 Z" fill="#4ADE80" stroke="rgba(255,255,255,0.55)" stroke-width="1.2" /></g>
    <g transform="translate(681.71 70.17) rotate(16.86)"><rect x="-18.56" y="-18.56" width="37.12" height="37.12" rx="4.03" fill="#4ADE80" stroke="rgba(255,255,255,0.55)" stroke-width="1.4" /></g>
    <g transform="translate(371.11 139.73) rotate(1.44)"><circle cx="0" cy="0" r="16.45" fill="#4ADE80" stroke="rgba(255,255,255,0.55)" stroke-width="1.4" /></g>
    <g transform="translate(50.87 71.97) rotate(22.93)"><path d="M 0 14.24 C -18.64 1.69, -20.34 -11.86, -8.14 -2.71 C -0.68 -14.24, 0.68 -14.24, 8.14 -2.71 C 20.34 -11.86, 18.64 1.69, 0 14.24 Z" fill="#60A5FA" stroke="rgba(255,255,255,0.55)" stroke-width="1.2" /></g>
    <g transform="translate(516.61 468.18) rotate(20.81)"><polygon points="-18.09,-6.51 2.89,-6.51 2.89,-13.75 19.90,0.00 2.89,13.75 2.89,6.51 -18.09,6.51" fill="#4ADE80" stroke="rgba(255,255,255,0.55)" stroke-width="1.2" /></g>
    <g transform="translate(591.52 400.46) rotate(-1.52)"><path d="M 0 13.15 C -17.22 1.57, -18.78 -10.96, -7.51 -2.50 C -0.63 -13.15, 0.63 -13.15, 7.51 -2.50 C 18.78 -10.96, 17.22 1.57, 0 13.15 Z" fill="#F87171" stroke="rgba(255,255,255,0.55)" stroke-width="1.2" /></g>
    <g transform="translate(283.44 267.87) rotate(26.98)"><polygon points="-17.59,-6.33 2.81,-6.33 2.81,-13.37 19.35,0.00 2.81,13.37 2.81,6.33 -17.59,6.33" fill="#FB7185" stroke="rgba(255,255,255,0.55)" stroke-width="1.2" /></g>
    <g transform="translate(518.23 133.27) rotate(0.25)"><circle cx="0" cy="0" r="16.78" fill="#FBBF24" stroke="rgba(255,255,255,0.55)" stroke-width="1.4" /><circle cx="-6.04" cy="-4.03" r="2.69" fill="#1F2937" /><circle cx="6.04" cy="-4.03" r="2.69" fill="#1F2937" /><path d="M -12.75 4.70 Q 0 11.41 12.75 4.70" fill="none" stroke="#1F2937" stroke-width="2.2" stroke-linecap="round" /></g>
    <g transform="translate(360.41 339.22) rotate(-22.58)"><rect x="-15.56" y="-15.56" width="31.12" height="31.12" rx="3.38" fill="#F87171" stroke="rgba(255,255,255,0.55)" stroke-width="1.4" /></g>
    <g transform="translate(677.09 200.80) rotate(-4.82)"><path d="M 0 16.24 C -21.27 1.93, -23.20 -13.53, -9.28 -3.09 C -0.77 -16.24, 0.77 -16.24, 9.28 -3.09 C 23.20 -13.53, 21.27 1.93, 0 16.24 Z" fill="#F87171" stroke="rgba(255,255,255,0.55)" stroke-width="1.2" /></g>
    <g transform="translate(202.69 74.76) rotate(20.15)"><rect x="-18.20" y="-18.20" width="36.41" height="36.41" rx="3.96" fill="#F87171" stroke="rgba(255,255,255,0.55)" stroke-width="1.4" /></g>
  </g>
</svg>
