<svg xmlns="http://www.w3.org/2000/svg" width="960" height="600" viewBox="0 0 960 600">
  <defs>
    <linearGradient id="bg176" x1="0%" y1="0%" x2="100%" y2="100%">
      <stop offset="0%" stop-color="#0F172A" />
      <stop offset="100%" stop-color="#1D4ED8" />
    </linearGradient>
    <filter id="shadow176" x="-20%" y="-20%" width="140%" height="140%">
      <feDropShadow dx="0" dy="2" stdDeviation="1.8" flood-color="rgba(0,0,0,0.36)" />
    </filter>
  </defs>

  <rect width="960" height="600" fill="url(#bg176)" />
  <rect x="24" y="24" width="912" height="552" rx="20" fill="rgba(255,255,255,0.045)" stroke="rgba(255,255,255,0.22)" />
  <g filter="url(#shadow176)">
    <g transform="translate(362.82 76.51) rotate(-26.54)"><rect x="-17.15" y="-5.05" width="34.30" height="10.11" rx="5.05" fill="#22D3EE" /><rect x="-5.05" y="-17.15" width="10.11" height="34.30" rx="5.05" fill="#22D3EE" /></g>
    <g transform="translate(519.19 334.50) rotate(26.15)"><rect x="-16.42" y="-4.84" width="32.84" height="9.68" rx="4.84" fill="#C084FC" /><rect x="-4.84" y="-16.42" width="9.68" height="32.84" rx="4.84" fill="#C084FC" /></g>
    <g transform="translate(748.31 460.15) rotate(11.24)"><rect x="-16.89" y="-16.89" width="33.79" height="33.79" rx="3.67" fill="#60A5FA" stroke="rgba(255,255,255,0.55)" stroke-width="1.4" /></g>
    <g transform="translate(214.22 77.66) rotate(24.77)"><polygon points="0,-20.45 18.34,14.10 -18.34,14.10" fill="#FBBF24" stroke="rgba(255,255,255,0.55)" stroke-width="1.4" /></g>
    <g transform="translate(357.64 203.10) rotate(2.22)"><circle cx="0" cy="0" r="20.04" fill="#F97316" stroke="rgba(255,255,255,0.55)" stroke-width="1.4" /><circle cx="-7.21" cy="-4.81" r="3.21" fill="#1F2937" /><circle cx="7.21" cy="-4.81" r="3.21" fill="#1F2937" /><path d="M -15.23 5.61 Q 0 13.62 15.23 5.61" fill="none" stroke="#1F2937" stroke-width="2.2" stroke-linecap="round" /></g>
    <g transform="translate(677.17 329.61) rotate(12.87)"><path d="M 0 17.44 C -22.84 2.08, -24.92 -14.53, -9.97 -3.32 C -0.83 -17.44, 0.83 -17.44, 9.97 -3.32 C 24.92 -14.53, 22.84 2.08, 0 17.44 Z" fill="#FB7185" stroke="rgba(255,255,255,0.55)" stroke-width="1.2" /></g>
    <g transform="translate(439.10 200.86) rotate(3.56)"><rect x="-19.38" y="-5.71" width="38.76" height="11.42" rx="5.71" fill="#60A5FA" /><rect x="-5.71" y="-19.38" width="11.42" height="38.76" rx="5.71" fill="#60A5FA" /></g>
    <g transform="translate(512.51 73.91) rotate(-3.96)"><circle cx="0" cy="0" r="19.02" fill="#34D399" stroke="rgba(255,255,255,0.55)" stroke-width="1.4" /><circle cx="-6.85" cy="-4.56" r="3.04" fill="#1F2937" /><circle cx="6.85" cy="-4.56" r="3.04" fill="#1F2937" /><path d="M -14.45 5.33 Q 0 12.93 14.45 5.33" fill="none" stroke="#1F2937" stroke-width="2.2" stroke-linecap="round" /></g>
    <g transform="translate(279.68 142.35) rotate(-2.75)"><circle cx="0" cy="0" r="16.90" fill="#22D3EE" stroke="rgba(255,255,255,0.55)" stroke-width="1.4" /><circle cx="-6.08" cy="-4.06" r="2.70" fill="#1F2937" /><circle cx="6.08" cy="-4.06" r="2.70" fill="#1F2937" /><path d="M -12.85 4.73 Q 0 11.49 12.85 4.73" fill="none" stroke="#1F2937" stroke-width="2.2" stroke-linecap="round" /></g>
    <g transform="translate(446.09 130.97) rotate(-7.78)"><circle cx="0" cy="0" r="16.84" fill="#FB7185" stroke="rgba(255,255,255,0.55)" stroke-width="1.4" /><circle cx="-6.06" cy="-4.04" r="2.69" fill="#1F2937" /><circle cx="6.06" cy="-4.04" r="2.69" fill="#1F2937" /><path d="M -12.80 4.72 Q 0 11.45 12.80 4.72" fill="none" stroke="#1F2937" stroke-width="2.2" stroke-linecap="round" /></g>
    <g transform="translate(200.68 268.47) rotate(17.23)"><rect x="-15.70" y="-4.63" width="31.40" height="9.25" rx="4.63" fill="#4ADE80" /><rect x="-4.63" y="-15.70" width="9.25" height="31.40" rx="4.63" fill="#4ADE80" /></g>
    <g transform="translate(433.83 401.35) rotate(-0.41)"><circle cx="0" cy="0" r="20.31" fill="#4ADE80" /><circle cx="8.13" cy="-0.81" r="17.06" fill="#0B1A34" /></g>
    <g transform="translate(602.61 465.93) rotate(-5.13)"><path d="M 0 15.26 C -19.98 1.82, -21.80 -12.72, -8.72 -2.91 C -0.73 -15.26, 0.73 -15.26, 8.72 -2.91 C 21.80 -12.72, 19.98 1.82, 0 15.26 Z" fill="#FBBF24" stroke="rgba(255,255,255,0.55)" stroke-width="1.2" /></g>
    <g transform="translate(593.38 536.24) rotate(-5.50)"><circle cx="0" cy="0" r="14.78" fill="#FB7185" stroke="rgba(255,255,255,0.55)" stroke-width="1.4" /><circle cx="-5.32" cy="-3.55" r="2.36" fill="#1F2937" /><circle cx="5.32" cy="-3.55" r="2.36" fill="#1F2937" /><path d="M -11.23 4.14 Q 0 10.05 11.23 4.14" fill="none" stroke="#1F2937" stroke-width="2.2" stroke-linecap="round" /></g>
    <g transform="translate(362.81 262.90) rotate(-2.54)"><rect x="-17.02" y="-5.02" width="34.05" height="10.03" rx="5.02" fill="#22D3EE" /><rect x="-5.02" y="-17.02" width="10.03" height="34.05" rx="5.02" fill="#22D3EE" /></g>
    <g transform="translate(360.09 459.22) rotate(-2.87)"><circle cx="0" cy="0" r="18.90" fill="#F87171" stroke="rgba(255,255,255,0.55)" stroke-width="1.4" /></g>
    <g transform="translate(758.78 131.88) rotate(-5.82)"><rect x="-14.15" y="-14.15" width="28.30" height="28.30" rx="3.08" fill="#22D3EE" stroke="rgba(255,255,255,0.55)" stroke-width="1.4" /></g>
    <g transform="translate(673.71 131.61) rotate(6.26)"><circle cx="0" cy="0" r="19.02" fill="#F97316" stroke="rgba(255,255,255,0.55)" stroke-width="1.4" /><circle cx="-6.85" cy="-4.57" r="3.04" fill="#1F2937" /><circle cx="6.85" cy="-4.57" r="3.04" fill="#1F2937" /><path d="M -14.46 5.33 Q 0 12.93 14.46 5.33" fill="none" stroke="#1F2937" stroke-width="2.2" stroke-linecap="round" /></g>
  </g>
</svg>
