<svg xmlns="http://www.w3.org/2000/svg" width="960" height="600" viewBox="0 0 960 600">
  <defs>
    <linearGradient id="bg93" x1="0%" y1="0%" x2="100%" y2="100%">
      <stop offset="0%" stop-color="#0F172A" />
      <stop offset="100%" stop-color="#1D4ED8" />
    </linearGradient>
    <filter id="shadow93" x="-20%" y="-20%" width="140%" height="140%">
      <feDropShadow dx="0" dy="2" stdDeviation="1.8" flood-color="rgba(0,0,0,0.36)" />
    </filter>
  </defs>

  <rect width="960" height="600" fill="url(#bg93)" />
  <rect x="24" y="24" width="912" height="552" rx="20" fill="rgba(255,255,255,0.045)" stroke="rgba(255,255,255,0.22)" />
  <g filter="url(#shadow93)">
    <g transform="translate(521.11 72.79) rotate(-6.70)"><polygon points="-15.72,-5.66 2.51,-5.66 2.51,-11.94 17.29,0.00 2.51,11.94 2.51,5.66 -15.72,5.66" fill="#34D399" stroke="rgba(255,255,255,0.55)" stroke-width="1.2" /></g>
    <g transform="translate(356.16 400.33) rotate(27.93)"><polygon points="-16.08,-5.79 2.57,-5.79 2.57,-12.22 17.68,0.00 2.57,12.22 2.57,5.79 -16.08,5.79" fill="#22D3EE" stroke="rgba(255,255,255,0.55)" stroke-width="1.2" /></g>
    <g transform="translate(49.34 261.06) rotate(-10.71)"><polygon points="0,-17.76 17.76,0 0,17.76 -17.76,0" fill="#F87171" stroke="rgba(255,255,255,0.55)" stroke-width="1.4" /></g>
    <g transform="translate(55.28 394.95) rotate(27.23)"><polygon points="0,-15.79 15.79,0 0,15.79 -15.79,0" fill="#C084FC" stroke="rgba(255,255,255,0.55)" stroke-width="1.4" /></g>
    <g transform="translate(48.64 525.39) rotate(24.71)"><polygon points="0,-16.24 16.24,0 0,16.24 -16.24,0" fill="#34D399" stroke="rgba(255,255,255,0.55)" stroke-width="1.4" /></g>
    <g transform="translate(134.54 194.10) rotate(14.06)"><polygon points="0,-16.85 16.85,0 0,16.85 -16.85,0" fill="#4ADE80" stroke="rgba(255,255,255,0.55)" stroke-width="1.4" /></g>
    <g transform="translate(58.90 338.33) rotate(-23.54)"><path d="M 0 17.01 C -22.27 2.02, -24.30 -14.17, -9.72 -3.24 C -0.81 -17.01, 0.81 -17.01, 9.72 -3.24 C 24.30 -14.17, 22.27 2.02, 0 17.01 Z" fill="#22D3EE" stroke="rgba(255,255,255,0.55)" stroke-width="1.2" /></g>
    <g transform="translate(214.20 396.21) rotate(11.98)"><polygon points="-20.56,-7.40 3.29,-7.40 3.29,-15.63 22.62,0.00 3.29,15.63 3.29,7.40 -20.56,7.40" fill="#C084FC" stroke="rgba(255,255,255,0.55)" stroke-width="1.2" /></g>
    <g transform="translate(905.55 129.24) rotate(-24.52)"><polygon points="-16.53,-5.95 2.64,-5.95 2.64,-12.56 18.18,0.00 2.64,12.56 2.64,5.95 -16.53,5.95" fill="#22D3EE" stroke="rgba(255,255,255,0.55)" stroke-width="1.2" /></g>
    <g transform="translate(836.92 536.59) rotate(-2.79)"><circle cx="0" cy="0" r="19.37" fill="#F87171" /><circle cx="7.75" cy="-0.77" r="16.27" fill="#0B1A34" /></g>
    <g transform="translate(905.16 461.89) rotate(3.90)"><path d="M 0 17.41 C -22.79 2.07, -24.87 -14.51, -9.95 -3.32 C -0.83 -17.41, 0.83 -17.41, 9.95 -3.32 C 24.87 -14.51, 22.79 2.07, 0 17.41 Z" fill="#FB7185" stroke="rgba(255,255,255,0.55)" stroke-width="1.2" /></g>
    <g transform="translate(834.48 204.98) rotate(-0.57)"><circle cx="0" cy="0" r="20.48" fill="#FB7185" /><circle cx="8.19" cy="-0.82" r="17.20" fill="#0B1A34" /></g>
    <g transform="translate(678.07 195.28) rotate(-11.01)"><polygon points="-20.95,-7.54 3.35,-7.54 3.35,-15.92 23.04,0.00 3.35,15.92 3.35,7.54 -20.95,7.54" fill="#F97316" stroke="rgba(255,255,255,0.55)" stroke-width="1.2" /></g>
    <g transform="translate(906.95 536.87) rotate(17.06)"><polygon points="0,-17.45 17.45,0 0,17.45 -17.45,0" fill="#C084FC" stroke="rgba(255,255,255,0.55)" stroke-width="1.4" /></g>
    <g transform="translate(292.17 461.23) rotate(8.03)"><path d="M 0 13.75 C -18.00 1.64, -19.64 -11.46, -7.86 -2.62 C -0.65 -13.75, 0.65 -13.75, 7.86 -2.62 C 19.64 -11.46, 18.00 1.64, 0 13.75 Z" fill="#A78BFA" stroke="rgba(255,255,255,0.55)" stroke-width="1.2" /></g>
    <g transform="translate(834.41 141.91) rotate(-5.64)"><path d="M 0 16.54 C -21.66 1.97, -23.63 -13.78, -9.45 -3.15 C -0.79 -16.54, 0.79 -16.54, 9.45 -3.15 C 23.63 -13.78, 21.66 1.97, 0 16.54 Z" fill="#FBBF24" stroke="rgba(255,255,255,0.55)" stroke-width="1.2" /></g>
    <g transform="translate(206.13 266.48) rotate(5.97)"><rect x="-16.97" y="-16.97" width="33.93" height="33.93" rx="3.69" fill="#A78BFA" stroke="rgba(255,255,255,0.55)" stroke-width="1.4" /></g>
    <g transform="translate(211.47 524.85) rotate(19.75)"><rect x="-15.14" y="-15.14" width="30.29" height="30.29" rx="3.29" fill="#FBBF24" stroke="rgba(255,255,255,0.55)" stroke-width="1.4" /></g>
    <g transform="translate(48.74 72.72) rotate(5.62)"><circle cx="0" cy="0" r="19.13" fill="#4ADE80" /><circle cx="7.65" cy="-0.77" r="16.07" fill="#0B1A34" /></g>
    <g transform="translate(131.09 466.76) rotate(-25.39)"><rect x="-18.16" y="-18.16" width="36.32" height="36.32" rx="3.95" fill="#A78BFA" stroke="rgba(255,255,255,0.55)" stroke-width="1.4" /></g>
    <g transform="translate(370.45 324.90) rotate(-11.33)"><path d="M 0 12.83 C -16.80 1.53, -18.32 -10.69, -7.33 -2.44 C -0.61 -12.83, 0.61 -12.83, 7.33 -2.44 C 18.32 -10.69, 16.80 1.53, 0 12.83 Z" fill="#22D3EE" stroke="rgba(255,255,255,0.55)" stroke-width="1.2" /></g>
    <g transform="translate(592.17 208.69) rotate(8.90)"><rect x="-19.05" y="-19.05" width="38.10" height="38.10" rx="4.14" fill="#A78BFA" stroke="rgba(255,255,255,0.55)" stroke-width="1.4" /></g>
  </g>
</svg>
