<svg xmlns="http://www.w3.org/2000/svg" width="960" height="600" viewBox="0 0 960 600">
  <defs>
    <linearGradient id="bg111" x1="0%" y1="0%" x2="100%" y2="100%">
      <stop offset="0%" stop-color="#0F172A" />
      <stop offset="100%" stop-color="#1D4ED8" />
    </linearGradient>
    <filter id="shadow111" x="-20%" y="-20%" width="140%" height="140%">
      <feDropShadow dx="0" dy="2" stdDeviation="1.8" flood-color="rgba(0,0,0,0.36)" />
    </filter>
  </defs>

  <rect width="960" height="600" fill="url(#bg111)" />
  <rect x="24" y="24" width="912" height="552" rx="20" fill="rgba(255,255,255,0.045)" stroke="rgba(255,255,255,0.22)" />
  <g filter="url(#shadow111)">
    <g transform="translate(825.98 457.21) rotate(-26.19)"><polygon points="0.00,-19.26 4.94,-6.80 18.32,-5.95 7.99,2.60 11.32,15.58 0.00,8.40 -11.32,15.58 -7.99,2.60 -18.32,-5.95 -4.94,-6.80" fill="#22D3EE" stroke="rgba(255,255,255,0.55)" stroke-width="1.4" /></g>
    <g transform="translate(673.89 260.65) rotate(-4.39)"><circle cx="0" cy="0" r="15.11" fill="#C084FC" stroke="rgba(255,255,255,0.55)" stroke-width="1.4" /><circle cx="-5.44" cy="-3.63" r="2.42" fill="#1F2937" /><circle cx="5.44" cy="-3.63" r="2.42" fill="#1F2937" /><path d="M -11.49 4.23 Q 0 10.28 11.49 4.23" fill="none" stroke="#1F2937" stroke-width="2.2" stroke-linecap="round" /></g>
    <g transform="translate(279.42 530.84) rotate(-2.74)"><circle cx="0" cy="0" r="14.25" fill="#F87171" stroke="rgba(255,255,255,0.55)" stroke-width="1.4" /><circle cx="-5.13" cy="-3.42" r="2.28" fill="#1F2937" /><circle cx="5.13" cy="-3.42" r="2.28" fill="#1F2937" /><path d="M -10.83 3.99 Q 0 9.69 10.83 3.99" fill="none" stroke="#1F2937" stroke-width="2.2" stroke-linecap="round" /></g>
    <g transform="translate(836.49 332.40) rotate(10.52)"><polygon points="0,-20.71 18.57,14.28 -18.57,14.28" fill="#F87171" stroke="rgba(255,255,255,0.55)" stroke-width="1.4" /></g>
    <g transform="translate(670.94 76.47) rotate(-17.36)"><polygon points="0.00,-17.24 4.42,-6.09 16.40,-5.33 7.16,2.33 10.14,13.95 0.00,7.52 -10.14,13.95 -7.16,2.33 -16.40,-5.33 -4.42,-6.09" fill="#F87171" stroke="rgba(255,255,255,0.55)" stroke-width="1.4" /></g>
    <g transform="translate(516.19 457.39) rotate(-20.35)"><polygon points="0.00,-16.75 4.30,-5.91 15.93,-5.18 6.95,2.26 9.84,13.55 0.00,7.31 -9.84,13.55 -6.95,2.26 -15.93,-5.18 -4.30,-5.91" fill="#C084FC" stroke="rgba(255,255,255,0.55)" stroke-width="1.4" /></g>
    <g transform="translate(435.35 528.39) rotate(18.26)"><polygon points="0,-19.73 17.69,13.61 -17.69,13.61" fill="#60A5FA" stroke="rgba(255,255,255,0.55)" stroke-width="1.4" /></g>
    <g transform="translate(909.88 206.24) rotate(-12.03)"><polygon points="0,-23.12 20.73,15.94 -20.73,15.94" fill="#60A5FA" stroke="rgba(255,255,255,0.55)" stroke-width="1.4" /></g>
    <g transform="translate(835.75 136.30) rotate(0.21)"><circle cx="0" cy="0" r="17.15" fill="#C084FC" stroke="rgba(255,255,255,0.55)" stroke-width="1.4" /><circle cx="-6.17" cy="-4.12" r="2.74" fill="#1F2937" /><circle cx="6.17" cy="-4.12" r="2.74" fill="#1F2937" /><path d="M -13.03 4.80 Q 0 11.66 13.03 4.80" fill="none" stroke="#1F2937" stroke-width="2.2" stroke-linecap="round" /></g>
    <g transform="translate(58.71 197.56) rotate(5.24)"><polygon points="0.00,-17.87 4.58,-6.31 17.00,-5.52 7.42,2.41 10.51,14.46 0.00,7.80 -10.51,14.46 -7.42,2.41 -17.00,-5.52 -4.58,-6.31" fill="#60A5FA" stroke="rgba(255,255,255,0.55)" stroke-width="1.4" /></g>
    <g transform="translate(210.40 334.92) rotate(-2.22)"><rect x="-15.91" y="-15.91" width="31.82" height="31.82" rx="3.46" fill="#FB7185" stroke="rgba(255,255,255,0.55)" stroke-width="1.4" /></g>
    <g transform="translate(370.91 272.18) rotate(-15.38)"><polygon points="0,-19.03 17.06,13.12 -17.06,13.12" fill="#FB7185" stroke="rgba(255,255,255,0.55)" stroke-width="1.4" /></g>
    <g transform="translate(206.14 458.20) rotate(-6.01)"><rect x="-18.00" y="-18.00" width="35.99" height="35.99" rx="3.91" fill="#C084FC" stroke="rgba(255,255,255,0.55)" stroke-width="1.4" /></g>
    <g transform="translate(50.48 136.30) rotate(-0.96)"><circle cx="0" cy="0" r="19.74" fill="#4ADE80" stroke="rgba(255,255,255,0.55)" stroke-width="1.4" /><circle cx="-7.11" cy="-4.74" r="3.16" fill="#1F2937" /><circle cx="7.11" cy="-4.74" r="3.16" fill="#1F2937" /><path d="M -15.00 5.53 Q 0 13.42 15.00 5.53" fill="none" stroke="#1F2937" stroke-width="2.2" stroke-linecap="round" /></g>
    <g transform="translate(132.78 335.75) rotate(-24.51)"><rect x="-15.73" y="-15.73" width="31.45" height="31.45" rx="3.42" fill="#22D3EE" stroke="rgba(255,255,255,0.55)" stroke-width="1.4" /></g>
    <g transform="translate(127.80 140.08) rotate(3.54)"><circle cx="0" cy="0" r="18.24" fill="#34D399" stroke="rgba(255,255,255,0.55)" stroke-width="1.4" /><circle cx="-6.57" cy="-4.38" r="2.92" fill="#1F2937" /><circle cx="6.57" cy="-4.38" r="2.92" fill="#1F2937" /><path d="M -13.86 5.11 Q 0 12.40 13.86 5.11" fill="none" stroke="#1F2937" stroke-width="2.2" stroke-linecap="round" /></g>
    <g transform="translate(674.12 204.22) rotate(-17.57)"><polygon points="0,-20.27 18.17,13.98 -18.17,13.98" fill="#60A5FA" stroke="rgba(255,255,255,0.55)" stroke-width="1.4" /></g>
    <g transform="translate(202.29 141.19) rotate(1.72)"><circle cx="0" cy="0" r="15.83" fill="#A78BFA" stroke="rgba(255,255,255,0.55)" stroke-width="1.4" /><circle cx="-5.70" cy="-3.80" r="2.53" fill="#1F2937" /><circle cx="5.70" cy="-3.80" r="2.53" fill="#1F2937" /><path d="M -12.03 4.43 Q 0 10.77 12.03 4.43" fill="none" stroke="#1F2937" stroke-width="2.2" stroke-linecap="round" /></g>
  </g>
</svg>
