<svg xmlns="http://www.w3.org/2000/svg" width="960" height="600" viewBox="0 0 960 600">
  <defs>
    <linearGradient id="bg12" x1="0%" y1="0%" x2="100%" y2="100%">
      <stop offset="0%" stop-color="#0F172A" />
      <stop offset="100%" stop-color="#1D4ED8" />
    </linearGradient>
    <filter id="shadow12" x="-20%" y="-20%" width="140%" height="140%">
      <feDropShadow dx="0" dy="2" stdDeviation="1.8" flood-color="rgba(0,0,0,0.36)" />
    </filter>
  </defs>

  <rect width="960" height="600" fill="url(#bg12)" />
  <rect x="24" y="24" width="912" height="552" rx="20" fill="rgba(255,255,255,0.045)" stroke="rgba(255,255,255,0.22)" />
  <g filter="url(#shadow12)">
    <g transform="translate(754.35 76.39) rotate(-24.69)"><path d="M 0 15.53 C -20.34 1.85, -22.19 -12.94, -8.87 -2.96 C -0.74 -15.53, 0.74 -15.53, 8.87 -2.96 C 22.19 -12.94, 20.34 1.85, 0 15.53 Z" fill="#4ADE80" stroke="rgba(255,255,255,0.55)" stroke-width="1.2" /></g>
    <g transform="translate(601.37 64.86) rotate(-0.23)"><circle cx="0" cy="0" r="20.17" fill="#FBBF24" stroke="rgba(255,255,255,0.55)" stroke-width="1.4" /><circle cx="-7.26" cy="-4.84" r="3.23" fill="#1F2937" /><circle cx="7.26" cy="-4.84" r="3.23" fill="#1F2937" /><path d="M -15.33 5.65 Q 0 13.71 15.33 5.65" fill="none" stroke="#1F2937" stroke-width="2.2" stroke-linecap="round" /></g>
    <g transform="translate(209.97 139.83) rotate(3.71)"><polygon points="0,-18.50 18.50,0 0,18.50 -18.50,0" fill="#FBBF24" stroke="rgba(255,255,255,0.55)" stroke-width="1.4" /></g>
    <g transform="translate(127.04 471.42) rotate(-20.10)"><polygon points="0,-18.85 16.90,13.00 -16.90,13.00" fill="#F87171" stroke="rgba(255,255,255,0.55)" stroke-width="1.4" /></g>
    <g transform="translate(522.41 522.19) rotate(1.32)"><circle cx="0" cy="0" r="15.86" fill="#A78BFA" /><circle cx="6.34" cy="-0.63" r="13.32" fill="#0B1A34" /></g>
    <g transform="translate(597.08 264.80) rotate(-3.51)"><path d="M 0 13.93 C -18.24 1.66, -19.90 -11.61, -7.96 -2.65 C -0.66 -13.93, 0.66 -13.93, 7.96 -2.65 C 19.90 -11.61, 18.24 1.66, 0 13.93 Z" fill="#FB7185" stroke="rgba(255,255,255,0.55)" stroke-width="1.2" /></g>
    <g transform="translate(593.08 537.70) rotate(-3.64)"><polygon points="0,-15.27 15.27,0 0,15.27 -15.27,0" fill="#22D3EE" stroke="rgba(255,255,255,0.55)" stroke-width="1.4" /></g>
    <g transform="translate(54.32 265.53) rotate(-4.54)"><circle cx="0" cy="0" r="15.83" fill="#FBBF24" /><circle cx="6.33" cy="-0.63" r="13.30" fill="#0B1A34" /></g>
    <g transform="translate(753.73 198.01) rotate(-1.37)"><circle cx="0" cy="0" r="14.16" fill="#22D3EE" /><circle cx="5.66" cy="-0.57" r="11.89" fill="#0B1A34" /></g>
    <g transform="translate(279.38 264.06) rotate(-4.66)"><circle cx="0" cy="0" r="17.79" fill="#C084FC" /><circle cx="7.11" cy="-0.71" r="14.94" fill="#0B1A34" /></g>
    <g transform="translate(59.23 326.16) rotate(-12.69)"><polygon points="0,-19.22 17.24,13.26 -17.24,13.26" fill="#F87171" stroke="rgba(255,255,255,0.55)" stroke-width="1.4" /></g>
    <g transform="translate(673.91 69.10) rotate(-17.11)"><polygon points="0,-19.42 17.42,13.40 -17.42,13.40" fill="#60A5FA" stroke="rgba(255,255,255,0.55)" stroke-width="1.4" /></g>
    <g transform="translate(822.36 271.00) rotate(5.74)"><circle cx="0" cy="0" r="14.51" fill="#C084FC" /><circle cx="5.80" cy="-0.58" r="12.19" fill="#0B1A34" /></g>
    <g transform="translate(135.04 142.23) rotate(-4.31)"><circle cx="0" cy="0" r="17.64" fill="#F87171" stroke="rgba(255,255,255,0.55)" stroke-width="1.4" /><circle cx="-6.35" cy="-4.23" r="2.82" fill="#1F2937" /><circle cx="6.35" cy="-4.23" r="2.82" fill="#1F2937" /><path d="M -13.40 4.94 Q 0 11.99 13.40 4.94" fill="none" stroke="#1F2937" stroke-width="2.2" stroke-linecap="round" /></g>
    <g transform="translate(757.68 268.98) rotate(-2.98)"><circle cx="0" cy="0" r="20.86" fill="#60A5FA" stroke="rgba(255,255,255,0.55)" stroke-width="1.4" /><circle cx="-7.51" cy="-5.01" r="3.34" fill="#1F2937" /><circle cx="7.51" cy="-5.01" r="3.34" fill="#1F2937" /><path d="M -15.85 5.84 Q 0 14.18 15.85 5.84" fill="none" stroke="#1F2937" stroke-width="2.2" stroke-linecap="round" /></g>
    <g transform="translate(203.96 403.70) rotate(10.41)"><polygon points="0,-16.41 14.71,11.31 -14.71,11.31" fill="#FBBF24" stroke="rgba(255,255,255,0.55)" stroke-width="1.4" /></g>
  </g>
</svg>
