<svg xmlns="http://www.w3.org/2000/svg" width="960" height="600" viewBox="0 0 960 600">
  <defs>
    <linearGradient id="bg168" x1="0%" y1="0%" x2="100%" y2="100%">
      <stop offset="0%" stop-color="#0F172A" />
      <stop offset="100%" stop-color="#1D4ED8" />
    </linearGradient>
    <filter id="shadow168" x="-20%" y="-20%" width="140%" height="140%">
      <feDropShadow dx="0" dy="2" stdDeviation="1.8" flood-color="rgba(0,0,0,0.36)" />
    </filter>
  </defs>

  <rect width="960" height="600" fill="url(#bg168)" />
  <rect x="24" y="24" width="912" height="552" rx="20" fill="rgba(255,255,255,0.045)" stroke="rgba(255,255,255,0.22)" />
  <g filter="url(#shadow168)">
    <g transform="translate(135.40 328.44) rotate(-12.26)"><polygon points="-20.71,-7.46 3.31,-7.46 3.31,-15.74 22.78,0.00 3.31,15.74 3.31,7.46 -20.71,7.46" fill="#F97316" stroke="rgba(255,255,255,0.55)" stroke-width="1.2" /></g>
    <g transform="translate(285.71 201.67) rotate(23.04)"><polygon points="0,-16.13 14.46,11.13 -14.46,11.13" fill="#4ADE80" stroke="rgba(255,255,255,0.55)" stroke-width="1.4" /></g>
    <g transform="translate(669.14 468.82) rotate(27.25)"><polygon points="-17.16,-6.18 2.75,-6.18 2.75,-13.04 18.88,0.00 2.75,13.04 2.75,6.18 -17.16,6.18" fill="#C084FC" stroke="rgba(255,255,255,0.55)" stroke-width="1.2" /></g>
    <g transform="translate(58.23 194.00) rotate(-8.17)"><polygon points="0,-22.96 20.59,15.84 -20.59,15.84" fill="#34D399" stroke="rgba(255,255,255,0.55)" stroke-width="1.4" /></g>
    <g transform="translate(205.96 397.58) rotate(3.31)"><polygon points="-17.94,-6.46 2.87,-6.46 2.87,-13.63 19.73,0.00 2.87,13.63 2.87,6.46 -17.94,6.46" fill="#A78BFA" stroke="rgba(255,255,255,0.55)" stroke-width="1.2" /></g>
    <g transform="translate(512.71 142.22) rotate(4.55)"><polygon points="0,-22.80 20.44,15.73 -20.44,15.73" fill="#FB7185" stroke="rgba(255,255,255,0.55)" stroke-width="1.4" /></g>
    <g transform="translate(516.88 70.90) rotate(2.82)"><path d="M 0 16.71 C -21.89 1.99, -23.88 -13.93, -9.55 -3.18 C -0.80 -16.71, 0.80 -16.71, 9.55 -3.18 C 23.88 -13.93, 21.89 1.99, 0 16.71 Z" fill="#60A5FA" stroke="rgba(255,255,255,0.55)" stroke-width="1.2" /></g>
    <g transform="translate(679.64 395.95) rotate(7.38)"><polygon points="0,-18.59 16.66,12.82 -16.66,12.82" fill="#F87171" stroke="rgba(255,255,255,0.55)" stroke-width="1.4" /></g>
    <g transform="translate(433.94 399.30) rotate(-3.55)"><polygon points="0,-19.36 17.36,13.35 -17.36,13.35" fill="#22D3EE" stroke="rgba(255,255,255,0.55)" stroke-width="1.4" /></g>
    <g transform="translate(366.27 462.64) rotate(5.11)"><polygon points="0,-15.22 15.22,0 0,15.22 -15.22,0" fill="#22D3EE" stroke="rgba(255,255,255,0.55)" stroke-width="1.4" /></g>
    <g transform="translate(907.93 200.10) rotate(20.18)"><polygon points="0,-20.06 20.06,0 0,20.06 -20.06,0" fill="#F87171" stroke="rgba(255,255,255,0.55)" stroke-width="1.4" /></g>
    <g transform="translate(137.33 264.01) rotate(-10.89)"><polygon points="-17.37,-6.25 2.78,-6.25 2.78,-13.20 19.11,0.00 2.78,13.20 2.78,6.25 -17.37,6.25" fill="#22D3EE" stroke="rgba(255,255,255,0.55)" stroke-width="1.2" /></g>
    <g transform="translate(205.99 338.05) rotate(-15.20)"><path d="M 0 12.56 C -16.44 1.49, -17.94 -10.46, -7.18 -2.39 C -0.60 -12.56, 0.60 -12.56, 7.18 -2.39 C 17.94 -10.46, 16.44 1.49, 0 12.56 Z" fill="#4ADE80" stroke="rgba(255,255,255,0.55)" stroke-width="1.2" /></g>
    <g transform="translate(907.73 133.70) rotate(-6.44)"><path d="M 0 14.04 C -18.38 1.67, -20.06 -11.70, -8.02 -2.67 C -0.67 -14.04, 0.67 -14.04, 8.02 -2.67 C 20.06 -11.70, 18.38 1.67, 0 14.04 Z" fill="#FB7185" stroke="rgba(255,255,255,0.55)" stroke-width="1.2" /></g>
    <g transform="translate(286.52 337.72) rotate(-11.46)"><polygon points="0,-15.59 15.59,0 0,15.59 -15.59,0" fill="#F87171" stroke="rgba(255,255,255,0.55)" stroke-width="1.4" /></g>
    <g transform="translate(754.12 328.42) rotate(22.12)"><polygon points="0,-19.96 17.89,13.77 -17.89,13.77" fill="#22D3EE" stroke="rgba(255,255,255,0.55)" stroke-width="1.4" /></g>
    <g transform="translate(831.26 393.51) rotate(22.67)"><polygon points="0,-17.30 15.51,11.93 -15.51,11.93" fill="#A78BFA" stroke="rgba(255,255,255,0.55)" stroke-width="1.4" /></g>
    <g transform="translate(900.73 271.93) rotate(6.11)"><path d="M 0 11.93 C -15.62 1.42, -17.04 -9.94, -6.81 -2.27 C -0.57 -11.93, 0.57 -11.93, 6.81 -2.27 C 17.04 -9.94, 15.62 1.42, 0 11.93 Z" fill="#C084FC" stroke="rgba(255,255,255,0.55)" stroke-width="1.2" /></g>
    <g transform="translate(287.05 267.37) rotate(-27.84)"><polygon points="0,-15.77 15.77,0 0,15.77 -15.77,0" fill="#C084FC" stroke="rgba(255,255,255,0.55)" stroke-width="1.4" /></g>
    <g transform="translate(291.01 406.30) rotate(-26.80)"><polygon points="0,-21.66 19.42,14.94 -19.42,14.94" fill="#34D399" stroke="rgba(255,255,255,0.55)" stroke-width="1.4" /></g>
    <g transform="translate(827.25 133.04) rotate(-12.05)"><polygon points="0,-19.08 17.11,13.16 -17.11,13.16" fill="#C084FC" stroke="rgba(255,255,255,0.55)" stroke-width="1.4" /></g>
  </g>
</svg>
