<svg xmlns="http://www.w3.org/2000/svg" width="960" height="600" viewBox="0 0 960 600">
  <defs>
    <linearGradient id="bg120" x1="0%" y1="0%" x2="100%" y2="100%">
      <stop offset="0%" stop-color="#0F172A" />
      <stop offset="100%" stop-color="#1D4ED8" />
    </linearGradient>
    <filter id="shadow120" x="-20%" y="-20%" width="140%" height="140%">
      <feDropShadow dx="0" dy="2" stdDeviation="1.8" flood-color="rgba(0,0,0,0.36)" />
    </filter>
  </defs>

  <rect width="960" height="600" fill="url(#bg120)" />
  <rect x="24" y="24" width="912" height="552" rx="20" fill="rgba(255,255,255,0.045)" stroke="rgba(255,255,255,0.22)" />
  <g filter="url(#shadow120)">
    <g transform="translate(442.98 203.47) rotate(6.06)"><circle cx="0" cy="0" r="15.63" fill="#C084FC" /><circle cx="6.25" cy="-0.63" r="13.13" fill="#0B1A34" /></g>
    <g transform="translate(129.62 207.49) rotate(-11.06)"><polygon points="-18.45,-6.64 2.95,-6.64 2.95,-14.02 20.29,0.00 2.95,14.02 2.95,6.64 -18.45,6.64" fill="#FBBF24" stroke="rgba(255,255,255,0.55)" stroke-width="1.2" /></g>
    <g transform="translate(516.91 203.33) rotate(3.76)"><circle cx="0" cy="0" r="18.60" fill="#60A5FA" /><circle cx="7.44" cy="-0.74" r="15.62" fill="#0B1A34" /></g>
    <g transform="translate(670.75 131.90) rotate(8.34)"><polygon points="0,-15.79 14.16,10.89 -14.16,10.89" fill="#34D399" stroke="rgba(255,255,255,0.55)" stroke-width="1.4" /></g>
    <g transform="translate(759.46 332.63) rotate(-6.29)"><polygon points="-16.64,-5.99 2.66,-5.99 2.66,-12.65 18.30,0.00 2.66,12.65 2.66,5.99 -16.64,5.99" fill="#F87171" stroke="rgba(255,255,255,0.55)" stroke-width="1.2" /></g>
    <g transform="translate(136.93 132.82) rotate(6.26)"><polygon points="0.00,-17.98 4.61,-6.35 17.10,-5.56 7.46,2.42 10.57,14.55 0.00,7.85 -10.57,14.55 -7.46,2.42 -17.10,-5.56 -4.61,-6.35" fill="#4ADE80" stroke="rgba(255,255,255,0.55)" stroke-width="1.4" /></g>
    <g transform="translate(280.18 336.36) rotate(-2.70)"><circle cx="0" cy="0" r="19.46" fill="#FBBF24" /><circle cx="7.78" cy="-0.78" r="16.34" fill="#0B1A34" /></g>
    <g transform="translate(759.43 67.21) rotate(-11.27)"><polygon points="0.00,-15.47 3.97,-5.46 14.71,-4.78 6.42,2.09 9.09,12.52 0.00,6.75 -9.09,12.52 -6.42,2.09 -14.71,-4.78 -3.97,-5.46" fill="#F87171" stroke="rgba(255,255,255,0.55)" stroke-width="1.4" /></g>
    <g transform="translate(824.26 326.52) rotate(0.04)"><circle cx="0" cy="0" r="15.35" fill="#4ADE80" /><circle cx="6.14" cy="-0.61" r="12.89" fill="#0B1A34" /></g>
    <g transform="translate(212.88 462.18) rotate(10.90)"><polygon points="0,-20.35 18.24,14.03 -18.24,14.03" fill="#FB7185" stroke="rgba(255,255,255,0.55)" stroke-width="1.4" /></g>
    <g transform="translate(45.29 208.78) rotate(1.76)"><circle cx="0" cy="0" r="15.54" fill="#A78BFA" /><circle cx="6.22" cy="-0.62" r="13.06" fill="#0B1A34" /></g>
    <g transform="translate(137.32 397.34) rotate(-5.52)"><circle cx="0" cy="0" r="17.37" fill="#22D3EE" /><circle cx="6.95" cy="-0.69" r="14.59" fill="#0B1A34" /></g>
    <g transform="translate(672.61 466.00) rotate(17.64)"><polygon points="0.00,-18.85 4.84,-6.66 17.93,-5.83 7.82,2.54 11.08,15.25 0.00,8.23 -11.08,15.25 -7.82,2.54 -17.93,-5.83 -4.84,-6.66" fill="#A78BFA" stroke="rgba(255,255,255,0.55)" stroke-width="1.4" /></g>
    <g transform="translate(524.49 467.35) rotate(21.85)"><polygon points="0,-17.93 16.07,12.36 -16.07,12.36" fill="#F87171" stroke="rgba(255,255,255,0.55)" stroke-width="1.4" /></g>
    <g transform="translate(914.33 337.74) rotate(-22.27)"><polygon points="0,-20.95 18.79,14.45 -18.79,14.45" fill="#F87171" stroke="rgba(255,255,255,0.55)" stroke-width="1.4" /></g>
    <g transform="translate(602.42 465.70) rotate(-5.66)"><polygon points="0,-22.05 19.77,15.21 -19.77,15.21" fill="#60A5FA" stroke="rgba(255,255,255,0.55)" stroke-width="1.4" /></g>
    <g transform="translate(679.38 392.86) rotate(-3.86)"><circle cx="0" cy="0" r="16.69" fill="#A78BFA" /><circle cx="6.67" cy="-0.67" r="14.02" fill="#0B1A34" /></g>
  </g>
</svg>
