<svg xmlns="http://www.w3.org/2000/svg" width="960" height="600" viewBox="0 0 960 600">
  <defs>
    <linearGradient id="bg18" x1="0%" y1="0%" x2="100%" y2="100%">
      <stop offset="0%" stop-color="#0F172A" />
      <stop offset="100%" stop-color="#1D4ED8" />
    </linearGradient>
    <filter id="shadow18" x="-20%" y="-20%" width="140%" height="140%">
      <feDropShadow dx="0" dy="2" stdDeviation="1.8" flood-color="rgba(0,0,0,0.36)" />
    </filter>
  </defs>

  <rect width="960" height="600" fill="url(#bg18)" />
  <rect x="24" y="24" width="912" height="552" rx="20" fill="rgba(255,255,255,0.045)" stroke="rgba(255,255,255,0.22)" />
  <g filter="url(#shadow18)">
    <g transform="translate(56.96 329.39) rotate(20.91)"><polygon points="0,-19.80 19.80,0 0,19.80 -19.80,0" fill="#22D3EE" stroke="rgba(255,255,255,0.55)" stroke-width="1.4" /></g>
    <g transform="translate(513.17 139.14) rotate(8.56)"><polygon points="0,-15.94 15.94,0 0,15.94 -15.94,0" fill="#60A5FA" stroke="rgba(255,255,255,0.55)" stroke-width="1.4" /></g>
    <g transform="translate(292.96 522.08) rotate(8.10)"><rect x="-14.14" y="-14.14" width="28.28" height="28.28" rx="3.07" fill="#F87171" stroke="rgba(255,255,255,0.55)" stroke-width="1.4" /></g>
    <g transform="translate(522.65 522.60) rotate(3.45)"><polygon points="0,-16.99 16.99,0 0,16.99 -16.99,0" fill="#34D399" stroke="rgba(255,255,255,0.55)" stroke-width="1.4" /></g>
    <g transform="translate(598.85 68.31) rotate(22.98)"><polygon points="0.00,-20.03 5.14,-7.07 19.05,-6.19 8.31,2.70 11.78,16.21 0.00,8.74 -11.78,16.21 -8.31,2.70 -19.05,-6.19 -5.14,-7.07" fill="#FB7185" stroke="rgba(255,255,255,0.55)" stroke-width="1.4" /></g>
    <g transform="translate(212.91 137.36) rotate(7.07)"><circle cx="0" cy="0" r="15.50" fill="#F87171" stroke="rgba(255,255,255,0.55)" stroke-width="1.4" /><circle cx="-5.58" cy="-3.72" r="2.48" fill="#1F2937" /><circle cx="5.58" cy="-3.72" r="2.48" fill="#1F2937" /><path d="M -11.78 4.34 Q 0 10.54 11.78 4.34" fill="none" stroke="#1F2937" stroke-width="2.2" stroke-linecap="round" /></g>
    <g transform="translate(58.27 140.78) rotate(9.27)"><polygon points="0,-18.41 18.41,0 0,18.41 -18.41,0" fill="#FB7185" stroke="rgba(255,255,255,0.55)" stroke-width="1.4" /></g>
    <g transform="translate(205.39 63.58) rotate(3.67)"><polygon points="0,-18.02 18.02,0 0,18.02 -18.02,0" fill="#F97316" stroke="rgba(255,255,255,0.55)" stroke-width="1.4" /></g>
    <g transform="translate(824.22 402.14) rotate(-0.02)"><circle cx="0" cy="0" r="15.70" fill="#A78BFA" stroke="rgba(255,255,255,0.55)" stroke-width="1.4" /><circle cx="-5.65" cy="-3.77" r="2.51" fill="#1F2937" /><circle cx="5.65" cy="-3.77" r="2.51" fill="#1F2937" /><path d="M -11.93 4.40 Q 0 10.68 11.93 4.40" fill="none" stroke="#1F2937" stroke-width="2.2" stroke-linecap="round" /></g>
    <g transform="translate(668.60 338.18) rotate(17.93)"><polygon points="0,-20.78 20.78,0 0,20.78 -20.78,0" fill="#F97316" stroke="rgba(255,255,255,0.55)" stroke-width="1.4" /></g>
    <g transform="translate(433.83 260.08) rotate(18.15)"><path d="M 0 17.55 C -22.98 2.09, -25.07 -14.63, -10.03 -3.34 C -0.84 -17.55, 0.84 -17.55, 10.03 -3.34 C 25.07 -14.63, 22.98 2.09, 0 17.55 Z" fill="#22D3EE" stroke="rgba(255,255,255,0.55)" stroke-width="1.2" /></g>
    <g transform="translate(370.19 198.06) rotate(-12.70)"><polygon points="0,-15.73 15.73,0 0,15.73 -15.73,0" fill="#4ADE80" stroke="rgba(255,255,255,0.55)" stroke-width="1.4" /></g>
    <g transform="translate(447.43 69.16) rotate(-8.77)"><rect x="-13.85" y="-13.85" width="27.70" height="27.70" rx="3.01" fill="#22D3EE" stroke="rgba(255,255,255,0.55)" stroke-width="1.4" /></g>
    <g transform="translate(292.61 394.91) rotate(4.75)"><circle cx="0" cy="0" r="17.12" fill="#F97316" stroke="rgba(255,255,255,0.55)" stroke-width="1.4" /><circle cx="-6.16" cy="-4.11" r="2.74" fill="#1F2937" /><circle cx="6.16" cy="-4.11" r="2.74" fill="#1F2937" /><path d="M -13.01 4.79 Q 0 11.64 13.01 4.79" fill="none" stroke="#1F2937" stroke-width="2.2" stroke-linecap="round" /></g>
    <g transform="translate(125.26 63.65) rotate(4.37)"><path d="M 0 13.51 C -17.69 1.61, -19.30 -11.26, -7.72 -2.57 C -0.64 -13.51, 0.64 -13.51, 7.72 -2.57 C 19.30 -11.26, 17.69 1.61, 0 13.51 Z" fill="#F87171" stroke="rgba(255,255,255,0.55)" stroke-width="1.2" /></g>
    <g transform="translate(366.95 537.64) rotate(-26.01)"><path d="M 0 11.97 C -15.67 1.42, -17.10 -9.97, -6.84 -2.28 C -0.57 -11.97, 0.57 -11.97, 6.84 -2.28 C 17.10 -9.97, 15.67 1.42, 0 11.97 Z" fill="#F87171" stroke="rgba(255,255,255,0.55)" stroke-width="1.2" /></g>
    <g transform="translate(602.80 530.87) rotate(-26.48)"><path d="M 0 12.73 C -16.68 1.52, -18.19 -10.61, -7.28 -2.43 C -0.61 -12.73, 0.61 -12.73, 7.28 -2.43 C 18.19 -10.61, 16.68 1.52, 0 12.73 Z" fill="#F87171" stroke="rgba(255,255,255,0.55)" stroke-width="1.2" /></g>
    <g transform="translate(832.13 457.26) rotate(20.13)"><path d="M 0 15.46 C -20.24 1.84, -22.08 -12.88, -8.83 -2.94 C -0.74 -15.46, 0.74 -15.46, 8.83 -2.94 C 22.08 -12.88, 20.24 1.84, 0 15.46 Z" fill="#FB7185" stroke="rgba(255,255,255,0.55)" stroke-width="1.2" /></g>
  </g>
</svg>
