<svg xmlns="http://www.w3.org/2000/svg" width="960" height="600" viewBox="0 0 960 600">
  <defs>
    <linearGradient id="bg15" x1="0%" y1="0%" x2="100%" y2="100%">
      <stop offset="0%" stop-color="#0F172A" />
      <stop offset="100%" stop-color="#1D4ED8" />
    </linearGradient>
    <filter id="shadow15" x="-20%" y="-20%" width="140%" height="140%">
      <feDropShadow dx="0" dy="2" stdDeviation="1.8" flood-color="rgba(0,0,0,0.36)" />
    </filter>
  </defs>

  <rect width="960" height="600" fill="url(#bg15)" />
  <rect x="24" y="24" width="912" height="552" rx="20" fill="rgba(255,255,255,0.045)" stroke="rgba(255,255,255,0.22)" />
  <g filter="url(#shadow15)">
    <g transform="translate(756.00 529.53) rotate(-26.51)"><path d="M 0 14.43 C -18.90 1.72, -20.61 -12.03, -8.25 -2.75 C -0.69 -14.43, 0.69 -14.43, 8.25 -2.75 C 20.61 -12.03, 18.90 1.72, 0 14.43 Z" fill="#FBBF24" stroke="rgba(255,255,255,0.55)" stroke-width="1.2" /></g>
    <g transform="translate(830.79 274.53) rotate(-3.00)"><path d="M 0 15.11 C -19.78 1.80, -21.58 -12.59, -8.63 -2.88 C -0.72 -15.11, 0.72 -15.11, 8.63 -2.88 C 21.58 -12.59, 19.78 1.80, 0 15.11 Z" fill="#60A5FA" stroke="rgba(255,255,255,0.55)" stroke-width="1.2" /></g>
    <g transform="translate(601.85 461.52) rotate(-0.36)"><polygon points="0,-16.95 16.95,0 0,16.95 -16.95,0" fill="#34D399" stroke="rgba(255,255,255,0.55)" stroke-width="1.4" /></g>
    <g transform="translate(753.19 456.47) rotate(-16.48)"><path d="M 0 14.24 C -18.64 1.69, -20.34 -11.86, -8.14 -2.71 C -0.68 -14.24, 0.68 -14.24, 8.14 -2.71 C 20.34 -11.86, 18.64 1.69, 0 14.24 Z" fill="#FBBF24" stroke="rgba(255,255,255,0.55)" stroke-width="1.2" /></g>
    <g transform="translate(45.64 195.93) rotate(-23.01)"><polygon points="0.00,-20.74 5.32,-7.32 19.73,-6.41 8.61,2.80 12.19,16.78 0.00,9.05 -12.19,16.78 -8.61,2.80 -19.73,-6.41 -5.32,-7.32" fill="#A78BFA" stroke="rgba(255,255,255,0.55)" stroke-width="1.4" /></g>
    <g transform="translate(448.84 471.70) rotate(-19.59)"><polygon points="0,-16.35 16.35,0 0,16.35 -16.35,0" fill="#34D399" stroke="rgba(255,255,255,0.55)" stroke-width="1.4" /></g>
    <g transform="translate(754.70 135.46) rotate(-2.96)"><path d="M 0 14.09 C -18.45 1.68, -20.13 -11.74, -8.05 -2.68 C -0.67 -14.09, 0.67 -14.09, 8.05 -2.68 C 20.13 -11.74, 18.45 1.68, 0 14.09 Z" fill="#F87171" stroke="rgba(255,255,255,0.55)" stroke-width="1.2" /></g>
    <g transform="translate(355.61 465.28) rotate(23.30)"><circle cx="0" cy="0" r="20.71" fill="#34D399" stroke="rgba(255,255,255,0.55)" stroke-width="1.4" /></g>
    <g transform="translate(756.21 399.20) rotate(4.27)"><polygon points="0.00,-22.60 5.80,-7.98 21.49,-6.98 9.38,3.05 13.28,18.28 0.00,9.86 -13.28,18.28 -9.38,3.05 -21.49,-6.98 -5.80,-7.98" fill="#4ADE80" stroke="rgba(255,255,255,0.55)" stroke-width="1.4" /></g>
    <g transform="translate(902.52 71.54) rotate(-26.36)"><polygon points="0,-15.53 15.53,0 0,15.53 -15.53,0" fill="#4ADE80" stroke="rgba(255,255,255,0.55)" stroke-width="1.4" /></g>
    <g transform="translate(909.65 328.44) rotate(-23.19)"><path d="M 0 14.56 C -19.06 1.73, -20.80 -12.13, -8.32 -2.77 C -0.69 -14.56, 0.69 -14.56, 8.32 -2.77 C 20.80 -12.13, 19.06 1.73, 0 14.56 Z" fill="#F97316" stroke="rgba(255,255,255,0.55)" stroke-width="1.2" /></g>
    <g transform="translate(448.81 68.22) rotate(-21.32)"><circle cx="0" cy="0" r="14.20" fill="#F97316" stroke="rgba(255,255,255,0.55)" stroke-width="1.4" /></g>
    <g transform="translate(604.26 526.87) rotate(-3.71)"><circle cx="0" cy="0" r="20.17" fill="#FB7185" stroke="rgba(255,255,255,0.55)" stroke-width="1.4" /><circle cx="-7.26" cy="-4.84" r="3.23" fill="#1F2937" /><circle cx="7.26" cy="-4.84" r="3.23" fill="#1F2937" /><path d="M -15.33 5.65 Q 0 13.71 15.33 5.65" fill="none" stroke="#1F2937" stroke-width="2.2" stroke-linecap="round" /></g>
    <g transform="translate(370.29 328.71) rotate(-3.86)"><path d="M 0 15.26 C -19.98 1.82, -21.80 -12.71, -8.72 -2.91 C -0.73 -15.26, 0.73 -15.26, 8.72 -2.91 C 21.80 -12.71, 19.98 1.82, 0 15.26 Z" fill="#F97316" stroke="rgba(255,255,255,0.55)" stroke-width="1.2" /></g>
    <g transform="translate(206.90 528.91) rotate(-7.00)"><circle cx="0" cy="0" r="17.26" fill="#F87171" stroke="rgba(255,255,255,0.55)" stroke-width="1.4" /><circle cx="-6.21" cy="-4.14" r="2.76" fill="#1F2937" /><circle cx="6.21" cy="-4.14" r="2.76" fill="#1F2937" /><path d="M -13.12 4.83 Q 0 11.74 13.12 4.83" fill="none" stroke="#1F2937" stroke-width="2.2" stroke-linecap="round" /></g>
    <g transform="translate(669.60 461.31) rotate(11.53)"><path d="M 0 16.95 C -22.19 2.02, -24.21 -14.12, -9.68 -3.23 C -0.81 -16.95, 0.81 -16.95, 9.68 -3.23 C 24.21 -14.12, 22.19 2.02, 0 16.95 Z" fill="#A78BFA" stroke="rgba(255,255,255,0.55)" stroke-width="1.2" /></g>
    <g transform="translate(906.06 459.18) rotate(9.66)"><path d="M 0 17.40 C -22.78 2.07, -24.85 -14.50, -9.94 -3.31 C -0.83 -17.40, 0.83 -17.40, 9.94 -3.31 C 24.85 -14.50, 22.78 2.07, 0 17.40 Z" fill="#FB7185" stroke="rgba(255,255,255,0.55)" stroke-width="1.2" /></g>
    <g transform="translate(911.93 395.02) rotate(-9.56)"><polygon points="0,-16.34 16.34,0 0,16.34 -16.34,0" fill="#F97316" stroke="rgba(255,255,255,0.55)" stroke-width="1.4" /></g>
    <g transform="translate(669.55 334.98) rotate(-2.32)"><circle cx="0" cy="0" r="17.33" fill="#F97316" stroke="rgba(255,255,255,0.55)" stroke-width="1.4" /></g>
    <g transform="translate(283.68 206.68) rotate(-27.23)"><polygon points="0,-20.68 20.68,0 0,20.68 -20.68,0" fill="#FB7185" stroke="rgba(255,255,255,0.55)" stroke-width="1.4" /></g>
    <g transform="translate(130.76 63.47) rotate(18.45)"><circle cx="0" cy="0" r="16.76" fill="#A78BFA" stroke="rgba(255,255,255,0.55)" stroke-width="1.4" /></g>
    <g transform="translate(596.35 196.37) rotate(-25.07)"><path d="M 0 13.00 C -17.03 1.55, -18.57 -10.83, -7.43 -2.48 C -0.62 -13.00, 0.62 -13.00, 7.43 -2.48 C 18.57 -10.83, 17.03 1.55, 0 13.00 Z" fill="#FBBF24" stroke="rgba(255,255,255,0.55)" stroke-width="1.2" /></g>
    <g transform="translate(756.26 335.10) rotate(4.26)"><path d="M 0 11.80 C -15.46 1.41, -16.86 -9.84, -6.75 -2.25 C -0.56 -11.80, 0.56 -11.80, 6.75 -2.25 C 16.86 -9.84, 15.46 1.41, 0 11.80 Z" fill="#A78BFA" stroke="rgba(255,255,255,0.55)" stroke-width="1.2" /></g>
    <g transform="translate(823.83 532.67) rotate(-1.05)"><path d="M 0 13.04 C -17.07 1.55, -18.62 -10.86, -7.45 -2.48 C -0.62 -13.04, 0.62 -13.04, 7.45 -2.48 C 18.62 -10.86, 17.07 1.55, 0 13.04 Z" fill="#22D3EE" stroke="rgba(255,255,255,0.55)" stroke-width="1.2" /></g>
    <g transform="translate(515.51 138.83) rotate(9.09)"><polygon points="-18.95,-6.82 3.03,-6.82 3.03,-14.40 20.85,0.00 3.03,14.40 3.03,6.82 -18.95,6.82" fill="#4ADE80" stroke="rgba(255,255,255,0.55)" stroke-width="1.2" /></g>
    <g transform="translate(828.90 463.97) rotate(-22.97)"><path d="M 0 14.43 C -18.90 1.72, -20.62 -12.03, -8.25 -2.75 C -0.69 -14.43, 0.69 -14.43, 8.25 -2.75 C 20.62 -12.03, 18.90 1.72, 0 14.43 Z" fill="#F87171" stroke="rgba(255,255,255,0.55)" stroke-width="1.2" /></g>
  </g>
</svg>
