<svg xmlns="http://www.w3.org/2000/svg" width="960" height="600" viewBox="0 0 960 600">
  <defs>
    <linearGradient id="bg194" x1="0%" y1="0%" x2="100%" y2="100%">
      <stop offset="0%" stop-color="#0F172A" />
      <stop offset="100%" stop-color="#1D4ED8" />
    </linearGradient>
    <filter id="shadow194" x="-20%" y="-20%" width="140%" height="140%">
      <feDropShadow dx="0" dy="2" stdDeviation="1.8" flood-color="rgba(0,0,0,0.36)" />
    </filter>
  </defs>

  <rect width="960" height="600" fill="url(#bg194)" />
  <rect x="24" y="24" width="912" height="552" rx="20" fill="rgba(255,255,255,0.045)" stroke="rgba(255,255,255,0.22)" />
  <g filter="url(#shadow194)">
    <g transform="translate(447.42 404.57) rotate(11.17)"><polygon points="0.00,-17.37 4.45,-6.13 16.52,-5.37 7.21,2.34 10.21,14.05 0.00,7.58 -10.21,14.05 -7.21,2.34 -16.52,-5.37 -4.45,-6.13" fill="#C084FC" stroke="rgba(255,255,255,0.55)" stroke-width="1.4" /></g>
    <g transform="translate(911.26 467.22) rotate(-4.68)"><circle cx="0" cy="0" r="18.74" fill="#A78BFA" /><circle cx="7.49" cy="-0.75" r="15.74" fill="#0B1A34" /></g>
    <g transform="translate(438.23 532.31) rotate(5.82)"><circle cx="0" cy="0" r="15.84" fill="#C084FC" stroke="rgba(255,255,255,0.55)" stroke-width="1.4" /><circle cx="-5.70" cy="-3.80" r="2.53" fill="#1F2937" /><circle cx="5.70" cy="-3.80" r="2.53" fill="#1F2937" /><path d="M -12.04 4.44 Q 0 10.77 12.04 4.44" fill="none" stroke="#1F2937" stroke-width="2.2" stroke-linecap="round" /></g>
    <g transform="translate(902.05 333.53) rotate(-25.10)"><rect x="-18.95" y="-5.58" width="37.89" height="11.17" rx="5.58" fill="#4ADE80" /><rect x="-5.58" y="-18.95" width="11.17" height="37.89" rx="5.58" fill="#4ADE80" /></g>
    <g transform="translate(129.94 206.24) rotate(1.98)"><circle cx="0" cy="0" r="18.57" fill="#A78BFA" /><circle cx="7.43" cy="-0.74" r="15.60" fill="#0B1A34" /></g>
    <g transform="translate(127.10 327.87) rotate(26.41)"><polygon points="-15.12,-5.44 2.42,-5.44 2.42,-11.49 16.63,0.00 2.42,11.49 2.42,5.44 -15.12,5.44" fill="#34D399" stroke="rgba(255,255,255,0.55)" stroke-width="1.2" /></g>
    <g transform="translate(365.91 462.61) rotate(-15.04)"><circle cx="0" cy="0" r="20.18" fill="#FB7185" stroke="rgba(255,255,255,0.55)" stroke-width="1.4" /></g>
    <g transform="translate(754.51 129.38) rotate(14.13)"><circle cx="0" cy="0" r="14.43" fill="#60A5FA" stroke="rgba(255,255,255,0.55)" stroke-width="1.4" /></g>
    <g transform="translate(755.68 201.88) rotate(25.75)"><rect x="-18.37" y="-5.41" width="36.73" height="10.83" rx="5.41" fill="#FBBF24" /><rect x="-5.41" y="-18.37" width="10.83" height="36.73" rx="5.41" fill="#FBBF24" /></g>
    <g transform="translate(205.64 536.60) rotate(2.89)"><circle cx="0" cy="0" r="18.90" fill="#FB7185" /><circle cx="7.56" cy="-0.76" r="15.88" fill="#0B1A34" /></g>
    <g transform="translate(366.61 199.38) rotate(-7.90)"><circle cx="0" cy="0" r="17.86" fill="#FB7185" /><circle cx="7.14" cy="-0.71" r="15.00" fill="#0B1A34" /></g>
    <g transform="translate(600.91 398.14) rotate(-7.46)"><rect x="-14.65" y="-4.32" width="29.30" height="8.64" rx="4.32" fill="#C084FC" /><rect x="-4.32" y="-14.65" width="8.64" height="29.30" rx="4.32" fill="#C084FC" /></g>
    <g transform="translate(289.77 196.31) rotate(-7.63)"><circle cx="0" cy="0" r="17.54" fill="#FBBF24" stroke="rgba(255,255,255,0.55)" stroke-width="1.4" /><circle cx="-6.32" cy="-4.21" r="2.81" fill="#1F2937" /><circle cx="6.32" cy="-4.21" r="2.81" fill="#1F2937" /><path d="M -13.33 4.91 Q 0 11.93 13.33 4.91" fill="none" stroke="#1F2937" stroke-width="2.2" stroke-linecap="round" /></g>
    <g transform="translate(593.77 67.87) rotate(-13.94)"><rect x="-18.71" y="-5.51" width="37.42" height="11.03" rx="5.51" fill="#22D3EE" /><rect x="-5.51" y="-18.71" width="11.03" height="37.42" rx="5.51" fill="#22D3EE" /></g>
    <g transform="translate(51.94 330.87) rotate(22.03)"><polygon points="-14.93,-5.38 2.39,-5.38 2.39,-11.35 16.43,0.00 2.39,11.35 2.39,5.38 -14.93,5.38" fill="#FBBF24" stroke="rgba(255,255,255,0.55)" stroke-width="1.2" /></g>
    <g transform="translate(516.55 204.57) rotate(-10.56)"><circle cx="0" cy="0" r="16.64" fill="#60A5FA" stroke="rgba(255,255,255,0.55)" stroke-width="1.4" /></g>
    <g transform="translate(517.50 466.67) rotate(-1.42)"><polygon points="0.00,-21.44 5.50,-7.57 20.39,-6.63 8.90,2.89 12.60,17.35 0.00,9.36 -12.60,17.35 -8.90,2.89 -20.39,-6.63 -5.50,-7.57" fill="#A78BFA" stroke="rgba(255,255,255,0.55)" stroke-width="1.4" /></g>
    <g transform="translate(831.14 457.77) rotate(11.73)"><circle cx="0" cy="0" r="18.95" fill="#C084FC" stroke="rgba(255,255,255,0.55)" stroke-width="1.4" /></g>
    <g transform="translate(137.67 466.54) rotate(-6.42)"><circle cx="0" cy="0" r="17.47" fill="#60A5FA" /><circle cx="6.99" cy="-0.70" r="14.67" fill="#0B1A34" /></g>
    <g transform="translate(593.74 462.01) rotate(19.83)"><circle cx="0" cy="0" r="20.65" fill="#C084FC" stroke="rgba(255,255,255,0.55)" stroke-width="1.4" /></g>
    <g transform="translate(49.97 263.62) rotate(-17.47)"><circle cx="0" cy="0" r="17.41" fill="#60A5FA" stroke="rgba(255,255,255,0.55)" stroke-width="1.4" /></g>
  </g>
</svg>
