<svg xmlns="http://www.w3.org/2000/svg" width="960" height="600" viewBox="0 0 960 600">
  <defs>
    <linearGradient id="bg3" x1="0%" y1="0%" x2="100%" y2="100%">
      <stop offset="0%" stop-color="#0F172A" />
      <stop offset="100%" stop-color="#1D4ED8" />
    </linearGradient>
    <filter id="shadow3" x="-20%" y="-20%" width="140%" height="140%">
      <feDropShadow dx="0" dy="2" stdDeviation="1.8" flood-color="rgba(0,0,0,0.36)" />
    </filter>
  </defs>

  <rect width="960" height="600" fill="url(#bg3)" />
  <rect x="24" y="24" width="912" height="552" rx="20" fill="rgba(255,255,255,0.045)" stroke="rgba(255,255,255,0.22)" />
  <g filter="url(#shadow3)">
    <g transform="translate(519.33 70.22) rotate(16.33)"><path d="M 0 14.75 C -19.31 1.76, -21.07 -12.29, -8.43 -2.81 C -0.70 -14.75, 0.70 -14.75, 8.43 -2.81 C 21.07 -12.29, 19.31 1.76, 0 14.75 Z" fill="#FB7185" stroke="rgba(255,255,255,0.55)" stroke-width="1.2" /></g>
    <g transform="translate(366.13 338.57) rotate(-7.63)"><rect x="-14.21" y="-4.19" width="28.42" height="8.38" rx="4.19" fill="#F97316" /><rect x="-4.19" y="-14.21" width="8.38" height="28.42" rx="4.19" fill="#F97316" /></g>
    <g transform="translate(678.16 65.02) rotate(5.98)"><rect x="-16.31" y="-16.31" width="32.62" height="32.62" rx="3.55" fill="#FB7185" stroke="rgba(255,255,255,0.55)" stroke-width="1.4" /></g>
    <g transform="translate(679.60 532.51) rotate(-24.58)"><path d="M 0 12.53 C -16.41 1.49, -17.90 -10.44, -7.16 -2.39 C -0.60 -12.53, 0.60 -12.53, 7.16 -2.39 C 17.90 -10.44, 16.41 1.49, 0 12.53 Z" fill="#34D399" stroke="rgba(255,255,255,0.55)" stroke-width="1.2" /></g>
    <g transform="translate(837.24 459.15) rotate(-13.02)"><circle cx="0" cy="0" r="19.53" fill="#A78BFA" stroke="rgba(255,255,255,0.55)" stroke-width="1.4" /></g>
    <g transform="translate(46.05 524.69) rotate(10.81)"><rect x="-17.34" y="-17.34" width="34.69" height="34.69" rx="3.77" fill="#4ADE80" stroke="rgba(255,255,255,0.55)" stroke-width="1.4" /></g>
    <g transform="translate(443.06 405.17) rotate(25.62)"><path d="M 0 14.19 C -18.59 1.69, -20.28 -11.83, -8.11 -2.70 C -0.68 -14.19, 0.68 -14.19, 8.11 -2.70 C 20.28 -11.83, 18.59 1.69, 0 14.19 Z" fill="#34D399" stroke="rgba(255,255,255,0.55)" stroke-width="1.2" /></g>
    <g transform="translate(291.66 523.47) rotate(10.10)"><rect x="-16.72" y="-4.93" width="33.44" height="9.86" rx="4.93" fill="#FBBF24" /><rect x="-4.93" y="-16.72" width="9.86" height="33.44" rx="4.93" fill="#FBBF24" /></g>
    <g transform="translate(671.74 402.01) rotate(-25.74)"><rect x="-13.88" y="-13.88" width="27.76" height="27.76" rx="3.02" fill="#FB7185" stroke="rgba(255,255,255,0.55)" stroke-width="1.4" /></g>
    <g transform="translate(209.01 270.42) rotate(17.55)"><circle cx="0" cy="0" r="14.66" fill="#60A5FA" stroke="rgba(255,255,255,0.55)" stroke-width="1.4" /></g>
    <g transform="translate(124.44 393.63) rotate(17.72)"><rect x="-18.33" y="-5.40" width="36.66" height="10.81" rx="5.40" fill="#22D3EE" /><rect x="-5.40" y="-18.33" width="10.81" height="36.66" rx="5.40" fill="#22D3EE" /></g>
    <g transform="translate(524.38 460.14) rotate(9.05)"><polygon points="0,-17.15 15.37,11.82 -15.37,11.82" fill="#FB7185" stroke="rgba(255,255,255,0.55)" stroke-width="1.4" /></g>
    <g transform="translate(908.57 75.93) rotate(12.38)"><polygon points="0,-18.49 16.58,12.75 -16.58,12.75" fill="#FBBF24" stroke="rgba(255,255,255,0.55)" stroke-width="1.4" /></g>
    <g transform="translate(526.40 400.64) rotate(-3.33)"><polygon points="0,-21.09 18.91,14.54 -18.91,14.54" fill="#22D3EE" stroke="rgba(255,255,255,0.55)" stroke-width="1.4" /></g>
    <g transform="translate(358.65 459.41) rotate(14.34)"><polygon points="0,-22.44 20.12,15.48 -20.12,15.48" fill="#F87171" stroke="rgba(255,255,255,0.55)" stroke-width="1.4" /></g>
    <g transform="translate(434.93 262.40) rotate(-3.72)"><rect x="-17.87" y="-5.27" width="35.75" height="10.54" rx="5.27" fill="#C084FC" /><rect x="-5.27" y="-17.87" width="10.54" height="35.75" rx="5.27" fill="#C084FC" /></g>
    <g transform="translate(201.95 404.90) rotate(7.52)"><polygon points="0,-19.85 17.80,13.69 -17.80,13.69" fill="#60A5FA" stroke="rgba(255,255,255,0.55)" stroke-width="1.4" /></g>
    <g transform="translate(361.12 259.30) rotate(1.18)"><rect x="-14.73" y="-14.73" width="29.46" height="29.46" rx="3.20" fill="#A78BFA" stroke="rgba(255,255,255,0.55)" stroke-width="1.4" /></g>
    <g transform="translate(590.93 271.84) rotate(3.34)"><rect x="-16.55" y="-4.88" width="33.09" height="9.75" rx="4.88" fill="#22D3EE" /><rect x="-4.88" y="-16.55" width="9.75" height="33.09" rx="4.88" fill="#22D3EE" /></g>
    <g transform="translate(831.92 268.63) rotate(24.12)"><rect x="-15.82" y="-15.82" width="31.63" height="31.63" rx="3.44" fill="#22D3EE" stroke="rgba(255,255,255,0.55)" stroke-width="1.4" /></g>
  </g>
</svg>
