<svg xmlns="http://www.w3.org/2000/svg" width="960" height="600" viewBox="0 0 960 600">
  <defs>
    <linearGradient id="bg67" x1="0%" y1="0%" x2="100%" y2="100%">
      <stop offset="0%" stop-color="#0F172A" />
      <stop offset="100%" stop-color="#1D4ED8" />
    </linearGradient>
    <filter id="shadow67" x="-20%" y="-20%" width="140%" height="140%">
      <feDropShadow dx="0" dy="2" stdDeviation="1.8" flood-color="rgba(0,0,0,0.36)" />
    </filter>
  </defs>

  <rect width="960" height="600" fill="url(#bg67)" />
  <rect x="24" y="24" width="912" height="552" rx="20" fill="rgba(255,255,255,0.045)" stroke="rgba(255,255,255,0.22)" />
  <g filter="url(#shadow67)">
    <g transform="translate(511.67 537.39) rotate(-14.96)"><polygon points="0,-16.55 16.55,0 0,16.55 -16.55,0" fill="#FBBF24" stroke="rgba(255,255,255,0.55)" stroke-width="1.4" /></g>
    <g transform="translate(603.51 334.76) rotate(-5.94)"><rect x="-13.34" y="-13.34" width="26.67" height="26.67" rx="2.90" fill="#60A5FA" stroke="rgba(255,255,255,0.55)" stroke-width="1.4" /></g>
    <g transform="translate(135.55 265.89) rotate(20.84)"><path d="M 0 14.35 C -18.80 1.71, -20.50 -11.96, -8.20 -2.73 C -0.68 -14.35, 0.68 -14.35, 8.20 -2.73 C 20.50 -11.96, 18.80 1.71, 0 14.35 Z" fill="#FB7185" stroke="rgba(255,255,255,0.55)" stroke-width="1.2" /></g>
    <g transform="translate(758.47 134.40) rotate(11.27)"><polygon points="-20.88,-7.52 3.34,-7.52 3.34,-15.87 22.96,0.00 3.34,15.87 3.34,7.52 -20.88,7.52" fill="#FB7185" stroke="rgba(255,255,255,0.55)" stroke-width="1.2" /></g>
    <g transform="translate(826.17 393.25) rotate(-6.08)"><path d="M 0 14.79 C -19.36 1.76, -21.12 -12.32, -8.45 -2.82 C -0.70 -14.79, 0.70 -14.79, 8.45 -2.82 C 21.12 -12.32, 19.36 1.76, 0 14.79 Z" fill="#F87171" stroke="rgba(255,255,255,0.55)" stroke-width="1.2" /></g>
    <g transform="translate(822.63 259.22) rotate(9.69)"><polygon points="0,-14.19 14.19,0 0,14.19 -14.19,0" fill="#4ADE80" stroke="rgba(255,255,255,0.55)" stroke-width="1.4" /></g>
    <g transform="translate(589.22 142.18) rotate(-12.69)"><polygon points="0,-16.72 16.72,0 0,16.72 -16.72,0" fill="#4ADE80" stroke="rgba(255,255,255,0.55)" stroke-width="1.4" /></g>
    <g transform="translate(749.40 261.99) rotate(-10.24)"><path d="M 0 13.93 C -18.24 1.66, -19.90 -11.61, -7.96 -2.65 C -0.66 -13.93, 0.66 -13.93, 7.96 -2.65 C 19.90 -11.61, 18.24 1.66, 0 13.93 Z" fill="#FB7185" stroke="rgba(255,255,255,0.55)" stroke-width="1.2" /></g>
    <g transform="translate(514.75 132.52) rotate(-1.43)"><polygon points="-18.83,-6.78 3.01,-6.78 3.01,-14.31 20.71,0.00 3.01,14.31 3.01,6.78 -18.83,6.78" fill="#A78BFA" stroke="rgba(255,255,255,0.55)" stroke-width="1.2" /></g>
    <g transform="translate(289.77 469.26) rotate(-3.13)"><path d="M 0 15.19 C -19.89 1.81, -21.70 -12.66, -8.68 -2.89 C -0.72 -15.19, 0.72 -15.19, 8.68 -2.89 C 21.70 -12.66, 19.89 1.81, 0 15.19 Z" fill="#F97316" stroke="rgba(255,255,255,0.55)" stroke-width="1.2" /></g>
    <g transform="translate(445.99 457.14) rotate(-9.94)"><polygon points="0,-17.71 17.71,0 0,17.71 -17.71,0" fill="#4ADE80" stroke="rgba(255,255,255,0.55)" stroke-width="1.4" /></g>
    <g transform="translate(600.53 71.39) rotate(-2.88)"><polygon points="0,-18.85 18.85,0 0,18.85 -18.85,0" fill="#4ADE80" stroke="rgba(255,255,255,0.55)" stroke-width="1.4" /></g>
    <g transform="translate(436.61 532.65) rotate(7.46)"><rect x="-17.31" y="-17.31" width="34.63" height="34.63" rx="3.76" fill="#C084FC" stroke="rgba(255,255,255,0.55)" stroke-width="1.4" /></g>
    <g transform="translate(590.78 390.63) rotate(26.25)"><polygon points="-15.41,-5.55 2.47,-5.55 2.47,-11.71 16.95,0.00 2.47,11.71 2.47,5.55 -15.41,5.55" fill="#F87171" stroke="rgba(255,255,255,0.55)" stroke-width="1.2" /></g>
    <g transform="translate(213.76 457.04) rotate(8.68)"><rect x="-15.96" y="-15.96" width="31.92" height="31.92" rx="3.47" fill="#4ADE80" stroke="rgba(255,255,255,0.55)" stroke-width="1.4" /></g>
    <g transform="translate(824.76 457.41) rotate(18.39)"><polygon points="0,-17.27 17.27,0 0,17.27 -17.27,0" fill="#C084FC" stroke="rgba(255,255,255,0.55)" stroke-width="1.4" /></g>
    <g transform="translate(129.80 397.52) rotate(8.89)"><polygon points="-19.69,-7.09 3.15,-7.09 3.15,-14.96 21.66,0.00 3.15,14.96 3.15,7.09 -19.69,7.09" fill="#F97316" stroke="rgba(255,255,255,0.55)" stroke-width="1.2" /></g>
    <g transform="translate(59.18 72.54) rotate(-22.67)"><polygon points="0,-16.21 16.21,0 0,16.21 -16.21,0" fill="#34D399" stroke="rgba(255,255,255,0.55)" stroke-width="1.4" /></g>
    <g transform="translate(365.57 135.53) rotate(1.38)"><path d="M 0 15.95 C -20.88 1.90, -22.78 -13.29, -9.11 -3.04 C -0.76 -15.95, 0.76 -15.95, 9.11 -3.04 C 22.78 -13.29, 20.88 1.90, 0 15.95 Z" fill="#FB7185" stroke="rgba(255,255,255,0.55)" stroke-width="1.2" /></g>
    <g transform="translate(368.96 326.06) rotate(18.96)"><rect x="-14.49" y="-14.49" width="28.98" height="28.98" rx="3.15" fill="#FB7185" stroke="rgba(255,255,255,0.55)" stroke-width="1.4" /></g>
    <g transform="translate(675.54 135.33) rotate(-2.87)"><path d="M 0 17.62 C -23.07 2.10, -25.17 -14.68, -10.07 -3.36 C -0.84 -17.62, 0.84 -17.62, 10.07 -3.36 C 25.17 -14.68, 23.07 2.10, 0 17.62 Z" fill="#22D3EE" stroke="rgba(255,255,255,0.55)" stroke-width="1.2" /></g>
  </g>
</svg>
