<svg xmlns="http://www.w3.org/2000/svg" width="960" height="600" viewBox="0 0 960 600">
  <defs>
    <linearGradient id="bg179" x1="0%" y1="0%" x2="100%" y2="100%">
      <stop offset="0%" stop-color="#0F172A" />
      <stop offset="100%" stop-color="#1D4ED8" />
    </linearGradient>
    <filter id="shadow179" x="-20%" y="-20%" width="140%" height="140%">
      <feDropShadow dx="0" dy="2" stdDeviation="1.8" flood-color="rgba(0,0,0,0.36)" />
    </filter>
  </defs>

  <rect width="960" height="600" fill="url(#bg179)" />
  <rect x="24" y="24" width="912" height="552" rx="20" fill="rgba(255,255,255,0.045)" stroke="rgba(255,255,255,0.22)" />
  <g filter="url(#shadow179)">
    <g transform="translate(596.08 203.27) rotate(-13.32)"><polygon points="0,-20.28 18.18,13.98 -18.18,13.98" fill="#34D399" stroke="rgba(255,255,255,0.55)" stroke-width="1.4" /></g>
    <g transform="translate(908.85 132.07) rotate(4.56)"><polygon points="0.00,-21.45 5.50,-7.57 20.40,-6.63 8.90,2.89 12.61,17.35 0.00,9.36 -12.61,17.35 -8.90,2.89 -20.40,-6.63 -5.50,-7.57" fill="#22D3EE" stroke="rgba(255,255,255,0.55)" stroke-width="1.4" /></g>
    <g transform="translate(434.65 336.59) rotate(-19.59)"><polygon points="-14.10,-5.08 2.26,-5.08 2.26,-10.72 15.51,0.00 2.26,10.72 2.26,5.08 -14.10,5.08" fill="#F87171" stroke="rgba(255,255,255,0.55)" stroke-width="1.2" /></g>
    <g transform="translate(912.68 457.69) rotate(-27.79)"><rect x="-13.43" y="-3.96" width="26.87" height="7.92" rx="3.96" fill="#C084FC" /><rect x="-3.96" y="-13.43" width="7.92" height="26.87" rx="3.96" fill="#C084FC" /></g>
    <g transform="translate(912.64 523.57) rotate(-24.31)"><polygon points="0,-14.31 14.31,0 0,14.31 -14.31,0" fill="#FBBF24" stroke="rgba(255,255,255,0.55)" stroke-width="1.4" /></g>
    <g transform="translate(440.40 263.42) rotate(-24.19)"><polygon points="-16.90,-6.08 2.70,-6.08 2.70,-12.85 18.59,0.00 2.70,12.85 2.70,6.08 -16.90,6.08" fill="#FB7185" stroke="rgba(255,255,255,0.55)" stroke-width="1.2" /></g>
    <g transform="translate(519.16 525.45) rotate(-24.51)"><rect x="-16.22" y="-4.78" width="32.44" height="9.56" rx="4.78" fill="#F97316" /><rect x="-4.78" y="-16.22" width="9.56" height="32.44" rx="4.78" fill="#F97316" /></g>
    <g transform="translate(914.52 67.58) rotate(27.33)"><polygon points="0.00,-19.44 4.99,-6.86 18.49,-6.01 8.07,2.62 11.42,15.72 0.00,8.48 -11.42,15.72 -8.07,2.62 -18.49,-6.01 -4.99,-6.86" fill="#FB7185" stroke="rgba(255,255,255,0.55)" stroke-width="1.4" /></g>
    <g transform="translate(371.18 207.52) rotate(2.89)"><polygon points="-15.14,-5.45 2.42,-5.45 2.42,-11.51 16.65,0.00 2.42,11.51 2.42,5.45 -15.14,5.45" fill="#A78BFA" stroke="rgba(255,255,255,0.55)" stroke-width="1.2" /></g>
    <g transform="translate(285.46 131.60) rotate(20.32)"><polygon points="-17.39,-6.26 2.78,-6.26 2.78,-13.21 19.13,0.00 2.78,13.21 2.78,6.26 -17.39,6.26" fill="#34D399" stroke="rgba(255,255,255,0.55)" stroke-width="1.2" /></g>
    <g transform="translate(55.20 462.36) rotate(26.86)"><rect x="-17.16" y="-5.06" width="34.32" height="10.12" rx="5.06" fill="#60A5FA" /><rect x="-5.06" y="-17.16" width="10.12" height="34.32" rx="5.06" fill="#60A5FA" /></g>
    <g transform="translate(675.27 534.75) rotate(3.52)"><polygon points="-16.29,-5.87 2.61,-5.87 2.61,-12.38 17.92,0.00 2.61,12.38 2.61,5.87 -16.29,5.87" fill="#A78BFA" stroke="rgba(255,255,255,0.55)" stroke-width="1.2" /></g>
    <g transform="translate(598.30 66.86) rotate(-24.67)"><polygon points="0,-18.05 18.05,0 0,18.05 -18.05,0" fill="#FBBF24" stroke="rgba(255,255,255,0.55)" stroke-width="1.4" /></g>
    <g transform="translate(908.38 266.28) rotate(-25.84)"><rect x="-16.05" y="-4.73" width="32.11" height="9.46" rx="4.73" fill="#FB7185" /><rect x="-4.73" y="-16.05" width="9.46" height="32.11" rx="4.73" fill="#FB7185" /></g>
    <g transform="translate(901.47 393.82) rotate(10.57)"><polygon points="0.00,-20.27 5.20,-7.15 19.27,-6.26 8.41,2.73 11.91,16.39 0.00,8.84 -11.91,16.39 -8.41,2.73 -19.27,-6.26 -5.20,-7.15" fill="#C084FC" stroke="rgba(255,255,255,0.55)" stroke-width="1.4" /></g>
    <g transform="translate(593.70 394.72) rotate(-20.97)"><rect x="-14.99" y="-4.42" width="29.98" height="8.84" rx="4.42" fill="#FB7185" /><rect x="-4.42" y="-14.99" width="8.84" height="29.98" rx="4.42" fill="#FB7185" /></g>
    <g transform="translate(211.70 74.36) rotate(8.30)"><rect x="-16.23" y="-4.78" width="32.45" height="9.57" rx="4.78" fill="#34D399" /><rect x="-4.78" y="-16.23" width="9.57" height="32.45" rx="4.78" fill="#34D399" /></g>
    <g transform="translate(134.79 194.02) rotate(-15.30)"><polygon points="-19.45,-7.00 3.11,-7.00 3.11,-14.78 21.39,0.00 3.11,14.78 3.11,7.00 -19.45,7.00" fill="#FBBF24" stroke="rgba(255,255,255,0.55)" stroke-width="1.2" /></g>
    <g transform="translate(589.30 325.60) rotate(-25.65)"><polygon points="-20.03,-7.21 3.21,-7.21 3.21,-15.22 22.03,0.00 3.21,15.22 3.21,7.21 -20.03,7.21" fill="#4ADE80" stroke="rgba(255,255,255,0.55)" stroke-width="1.2" /></g>
    <g transform="translate(434.80 401.14) rotate(-4.97)"><rect x="-13.31" y="-13.31" width="26.61" height="26.61" rx="2.89" fill="#22D3EE" stroke="rgba(255,255,255,0.55)" stroke-width="1.4" /></g>
  </g>
</svg>
