<svg xmlns="http://www.w3.org/2000/svg" width="960" height="600" viewBox="0 0 960 600">
  <defs>
    <linearGradient id="bg57" x1="0%" y1="0%" x2="100%" y2="100%">
      <stop offset="0%" stop-color="#0F172A" />
      <stop offset="100%" stop-color="#1D4ED8" />
    </linearGradient>
    <filter id="shadow57" x="-20%" y="-20%" width="140%" height="140%">
      <feDropShadow dx="0" dy="2" stdDeviation="1.8" flood-color="rgba(0,0,0,0.36)" />
    </filter>
  </defs>

  <rect width="960" height="600" fill="url(#bg57)" />
  <rect x="24" y="24" width="912" height="552" rx="20" fill="rgba(255,255,255,0.045)" stroke="rgba(255,255,255,0.22)" />
  <g filter="url(#shadow57)">
    <g transform="translate(215.48 65.31) rotate(-19.86)"><polygon points="0,-15.52 15.52,0 0,15.52 -15.52,0" fill="#F97316" stroke="rgba(255,255,255,0.55)" stroke-width="1.4" /></g>
    <g transform="translate(672.13 464.70) rotate(17.26)"><polygon points="0,-15.05 15.05,0 0,15.05 -15.05,0" fill="#60A5FA" stroke="rgba(255,255,255,0.55)" stroke-width="1.4" /></g>
    <g transform="translate(438.80 129.64) rotate(6.35)"><circle cx="0" cy="0" r="14.58" fill="#F87171" /><circle cx="5.83" cy="-0.58" r="12.25" fill="#0B1A34" /></g>
    <g transform="translate(287.88 77.09) rotate(-14.02)"><polygon points="-14.18,-5.10 2.27,-5.10 2.27,-10.78 15.60,0.00 2.27,10.78 2.27,5.10 -14.18,5.10" fill="#A78BFA" stroke="rgba(255,255,255,0.55)" stroke-width="1.2" /></g>
    <g transform="translate(913.26 526.52) rotate(-8.81)"><polygon points="-20.21,-7.28 3.23,-7.28 3.23,-15.36 22.24,0.00 3.23,15.36 3.23,7.28 -20.21,7.28" fill="#F97316" stroke="rgba(255,255,255,0.55)" stroke-width="1.2" /></g>
    <g transform="translate(669.95 530.99) rotate(21.71)"><polygon points="-20.79,-7.48 3.33,-7.48 3.33,-15.80 22.87,0.00 3.33,15.80 3.33,7.48 -20.79,7.48" fill="#60A5FA" stroke="rgba(255,255,255,0.55)" stroke-width="1.2" /></g>
    <g transform="translate(207.58 195.88) rotate(26.15)"><polygon points="0,-19.11 19.11,0 0,19.11 -19.11,0" fill="#F97316" stroke="rgba(255,255,255,0.55)" stroke-width="1.4" /></g>
    <g transform="translate(59.33 398.42) rotate(-9.81)"><rect x="-16.20" y="-4.78" width="32.41" height="9.55" rx="4.78" fill="#60A5FA" /><rect x="-4.78" y="-16.20" width="9.55" height="32.41" rx="4.78" fill="#60A5FA" /></g>
    <g transform="translate(676.87 269.53) rotate(-0.11)"><circle cx="0" cy="0" r="20.37" fill="#34D399" /><circle cx="8.15" cy="-0.81" r="17.11" fill="#0B1A34" /></g>
    <g transform="translate(291.50 136.74) rotate(0.32)"><polygon points="-19.69,-7.09 3.15,-7.09 3.15,-14.97 21.66,0.00 3.15,14.97 3.15,7.09 -19.69,7.09" fill="#FBBF24" stroke="rgba(255,255,255,0.55)" stroke-width="1.2" /></g>
    <g transform="translate(441.51 333.75) rotate(-1.50)"><circle cx="0" cy="0" r="17.03" fill="#A78BFA" /><circle cx="6.81" cy="-0.68" r="14.30" fill="#0B1A34" /></g>
    <g transform="translate(594.45 460.51) rotate(-20.73)"><polygon points="-16.73,-6.02 2.68,-6.02 2.68,-12.71 18.40,0.00 2.68,12.71 2.68,6.02 -16.73,6.02" fill="#C084FC" stroke="rgba(255,255,255,0.55)" stroke-width="1.2" /></g>
    <g transform="translate(211.56 390.68) rotate(-27.15)"><polygon points="-14.18,-5.11 2.27,-5.11 2.27,-10.78 15.60,0.00 2.27,10.78 2.27,5.11 -14.18,5.11" fill="#4ADE80" stroke="rgba(255,255,255,0.55)" stroke-width="1.2" /></g>
    <g transform="translate(211.73 531.11) rotate(13.42)"><polygon points="-17.48,-6.29 2.80,-6.29 2.80,-13.28 19.22,0.00 2.80,13.28 2.80,6.29 -17.48,6.29" fill="#A78BFA" stroke="rgba(255,255,255,0.55)" stroke-width="1.2" /></g>
    <g transform="translate(57.50 334.18) rotate(16.62)"><path d="M 0 16.96 C -22.21 2.02, -24.22 -14.13, -9.69 -3.23 C -0.81 -16.96, 0.81 -16.96, 9.69 -3.23 C 24.22 -14.13, 22.21 2.02, 0 16.96 Z" fill="#FBBF24" stroke="rgba(255,255,255,0.55)" stroke-width="1.2" /></g>
    <g transform="translate(589.40 136.45) rotate(7.86)"><circle cx="0" cy="0" r="20.49" fill="#22D3EE" stroke="rgba(255,255,255,0.55)" stroke-width="1.4" /><circle cx="-7.37" cy="-4.92" r="3.28" fill="#1F2937" /><circle cx="7.37" cy="-4.92" r="3.28" fill="#1F2937" /><path d="M -15.57 5.74 Q 0 13.93 15.57 5.74" fill="none" stroke="#1F2937" stroke-width="2.2" stroke-linecap="round" /></g>
    <g transform="translate(55.17 271.34) rotate(5.87)"><circle cx="0" cy="0" r="14.82" fill="#C084FC" stroke="rgba(255,255,255,0.55)" stroke-width="1.4" /><circle cx="-5.34" cy="-3.56" r="2.37" fill="#1F2937" /><circle cx="5.34" cy="-3.56" r="2.37" fill="#1F2937" /><path d="M -11.27 4.15 Q 0 10.08 11.27 4.15" fill="none" stroke="#1F2937" stroke-width="2.2" stroke-linecap="round" /></g>
    <g transform="translate(835.43 138.50) rotate(12.31)"><polygon points="-20.53,-7.39 3.28,-7.39 3.28,-15.60 22.58,0.00 3.28,15.60 3.28,7.39 -20.53,7.39" fill="#FB7185" stroke="rgba(255,255,255,0.55)" stroke-width="1.2" /></g>
    <g transform="translate(356.17 531.66) rotate(-9.83)"><polygon points="-19.70,-7.09 3.15,-7.09 3.15,-14.97 21.67,0.00 3.15,14.97 3.15,7.09 -19.70,7.09" fill="#FBBF24" stroke="rgba(255,255,255,0.55)" stroke-width="1.2" /></g>
    <g transform="translate(362.72 270.03) rotate(20.18)"><polygon points="0,-15.45 15.45,0 0,15.45 -15.45,0" fill="#F87171" stroke="rgba(255,255,255,0.55)" stroke-width="1.4" /></g>
    <g transform="translate(135.21 395.74) rotate(-3.38)"><circle cx="0" cy="0" r="20.83" fill="#4ADE80" /><circle cx="8.33" cy="-0.83" r="17.50" fill="#0B1A34" /></g>
    <g transform="translate(128.52 70.49) rotate(-4.10)"><circle cx="0" cy="0" r="20.83" fill="#F97316" stroke="rgba(255,255,255,0.55)" stroke-width="1.4" /><circle cx="-7.50" cy="-5.00" r="3.33" fill="#1F2937" /><circle cx="7.50" cy="-5.00" r="3.33" fill="#1F2937" /><path d="M -15.83 5.83 Q 0 14.16 15.83 5.83" fill="none" stroke="#1F2937" stroke-width="2.2" stroke-linecap="round" /></g>
    <g transform="translate(823.86 331.45) rotate(1.02)"><polygon points="-17.67,-6.36 2.83,-6.36 2.83,-13.43 19.43,0.00 2.83,13.43 2.83,6.36 -17.67,6.36" fill="#4ADE80" stroke="rgba(255,255,255,0.55)" stroke-width="1.2" /></g>
    <g transform="translate(902.41 134.10) rotate(4.90)"><circle cx="0" cy="0" r="19.04" fill="#4ADE80" stroke="rgba(255,255,255,0.55)" stroke-width="1.4" /><circle cx="-6.85" cy="-4.57" r="3.05" fill="#1F2937" /><circle cx="6.85" cy="-4.57" r="3.05" fill="#1F2937" /><path d="M -14.47 5.33 Q 0 12.95 14.47 5.33" fill="none" stroke="#1F2937" stroke-width="2.2" stroke-linecap="round" /></g>
    <g transform="translate(210.36 132.16) rotate(-17.49)"><rect x="-19.85" y="-5.85" width="39.69" height="11.70" rx="5.85" fill="#FBBF24" /><rect x="-5.85" y="-19.85" width="11.70" height="39.69" rx="5.85" fill="#FBBF24" /></g>
    <g transform="translate(825.38 77.02) rotate(25.87)"><rect x="-16.61" y="-4.90" width="33.23" height="9.79" rx="4.90" fill="#34D399" /><rect x="-4.90" y="-16.61" width="9.79" height="33.23" rx="4.90" fill="#34D399" /></g>
    <g transform="translate(596.29 273.40) rotate(3.85)"><circle cx="0" cy="0" r="19.87" fill="#FBBF24" /><circle cx="7.95" cy="-0.79" r="16.69" fill="#0B1A34" /></g>
    <g transform="translate(911.50 461.97) rotate(26.06)"><polygon points="-20.39,-7.34 3.26,-7.34 3.26,-15.49 22.43,0.00 3.26,15.49 3.26,7.34 -20.39,7.34" fill="#4ADE80" stroke="rgba(255,255,255,0.55)" stroke-width="1.2" /></g>
    <g transform="translate(910.09 405.10) rotate(-2.89)"><circle cx="0" cy="0" r="21.00" fill="#A78BFA" /><circle cx="8.40" cy="-0.84" r="17.64" fill="#0B1A34" /></g>
    <g transform="translate(524.34 333.58) rotate(26.18)"><path d="M 0 16.08 C -21.05 1.91, -22.97 -13.40, -9.19 -3.06 C -0.77 -16.08, 0.77 -16.08, 9.19 -3.06 C 22.97 -13.40, 21.05 1.91, 0 16.08 Z" fill="#F97316" stroke="rgba(255,255,255,0.55)" stroke-width="1.2" /></g>
  </g>
</svg>
