<svg xmlns="http://www.w3.org/2000/svg" width="960" height="600" viewBox="0 0 960 600">
  <defs>
    <linearGradient id="bg34" x1="0%" y1="0%" x2="100%" y2="100%">
      <stop offset="0%" stop-color="#0F172A" />
      <stop offset="100%" stop-color="#1D4ED8" />
    </linearGradient>
    <filter id="shadow34" x="-20%" y="-20%" width="140%" height="140%">
      <feDropShadow dx="0" dy="2" stdDeviation="1.8" flood-color="rgba(0,0,0,0.36)" />
    </filter>
  </defs>

  <rect width="960" height="600" fill="url(#bg34)" />
  <rect x="24" y="24" width="912" height="552" rx="20" fill="rgba(255,255,255,0.045)" stroke="rgba(255,255,255,0.22)" />
  <g filter="url(#shadow34)">
    <g transform="translate(755.62 269.77) rotate(-3.78)"><path d="M 0 12.24 C -16.02 1.46, -17.48 -10.20, -6.99 -2.33 C -0.58 -12.24, 0.58 -12.24, 6.99 -2.33 C 17.48 -10.20, 16.02 1.46, 0 12.24 Z" fill="#F97316" stroke="rgba(255,255,255,0.55)" stroke-width="1.2" /></g>
    <g transform="translate(437.21 136.34) rotate(-14.42)"><path d="M 0 13.66 C -17.88 1.63, -19.51 -11.38, -7.80 -2.60 C -0.65 -13.66, 0.65 -13.66, 7.80 -2.60 C 19.51 -11.38, 17.88 1.63, 0 13.66 Z" fill="#22D3EE" stroke="rgba(255,255,255,0.55)" stroke-width="1.2" /></g>
    <g transform="translate(751.06 207.54) rotate(-15.83)"><circle cx="0" cy="0" r="18.75" fill="#A78BFA" stroke="rgba(255,255,255,0.55)" stroke-width="1.4" /></g>
    <g transform="translate(52.67 134.91) rotate(-6.60)"><polygon points="0.00,-17.19 4.41,-6.07 16.35,-5.31 7.13,2.32 10.11,13.91 0.00,7.50 -10.11,13.91 -7.13,2.32 -16.35,-5.31 -4.41,-6.07" fill="#C084FC" stroke="rgba(255,255,255,0.55)" stroke-width="1.4" /></g>
    <g transform="translate(828.07 468.04) rotate(16.28)"><circle cx="0" cy="0" r="18.50" fill="#60A5FA" stroke="rgba(255,255,255,0.55)" stroke-width="1.4" /></g>
    <g transform="translate(832.67 396.50) rotate(-1.52)"><circle cx="0" cy="0" r="18.89" fill="#FB7185" stroke="rgba(255,255,255,0.55)" stroke-width="1.4" /><circle cx="-6.80" cy="-4.53" r="3.02" fill="#1F2937" /><circle cx="6.80" cy="-4.53" r="3.02" fill="#1F2937" /><path d="M -14.35 5.29 Q 0 12.84 14.35 5.29" fill="none" stroke="#1F2937" stroke-width="2.2" stroke-linecap="round" /></g>
    <g transform="translate(446.41 456.30) rotate(22.78)"><polygon points="0,-18.99 17.02,13.09 -17.02,13.09" fill="#4ADE80" stroke="rgba(255,255,255,0.55)" stroke-width="1.4" /></g>
    <g transform="translate(369.97 458.24) rotate(14.20)"><path d="M 0 17.39 C -22.78 2.07, -24.85 -14.50, -9.94 -3.31 C -0.83 -17.39, 0.83 -17.39, 9.94 -3.31 C 24.85 -14.50, 22.78 2.07, 0 17.39 Z" fill="#FB7185" stroke="rgba(255,255,255,0.55)" stroke-width="1.2" /></g>
    <g transform="translate(123.69 471.82) rotate(-0.11)"><circle cx="0" cy="0" r="20.49" fill="#22D3EE" stroke="rgba(255,255,255,0.55)" stroke-width="1.4" /></g>
    <g transform="translate(603.55 268.23) rotate(24.13)"><polygon points="0,-18.33 18.33,0 0,18.33 -18.33,0" fill="#FB7185" stroke="rgba(255,255,255,0.55)" stroke-width="1.4" /></g>
    <g transform="translate(516.42 274.07) rotate(12.17)"><polygon points="0.00,-22.94 5.88,-8.10 21.82,-7.09 9.52,3.09 13.48,18.56 0.00,10.01 -13.48,18.56 -9.52,3.09 -21.82,-7.09 -5.88,-8.10" fill="#22D3EE" stroke="rgba(255,255,255,0.55)" stroke-width="1.4" /></g>
    <g transform="translate(745.20 395.91) rotate(-4.73)"><circle cx="0" cy="0" r="15.83" fill="#FB7185" stroke="rgba(255,255,255,0.55)" stroke-width="1.4" /><circle cx="-5.70" cy="-3.80" r="2.53" fill="#1F2937" /><circle cx="5.70" cy="-3.80" r="2.53" fill="#1F2937" /><path d="M -12.03 4.43 Q 0 10.76 12.03 4.43" fill="none" stroke="#1F2937" stroke-width="2.2" stroke-linecap="round" /></g>
    <g transform="translate(823.42 340.18) rotate(7.99)"><path d="M 0 16.92 C -22.15 2.01, -24.16 -14.10, -9.67 -3.22 C -0.81 -16.92, 0.81 -16.92, 9.67 -3.22 C 24.16 -14.10, 22.15 2.01, 0 16.92 Z" fill="#F97316" stroke="rgba(255,255,255,0.55)" stroke-width="1.2" /></g>
    <g transform="translate(124.18 267.27) rotate(3.59)"><path d="M 0 12.65 C -16.56 1.51, -18.07 -10.54, -7.23 -2.41 C -0.60 -12.65, 0.60 -12.65, 7.23 -2.41 C 18.07 -10.54, 16.56 1.51, 0 12.65 Z" fill="#FBBF24" stroke="rgba(255,255,255,0.55)" stroke-width="1.2" /></g>
    <g transform="translate(830.24 129.19) rotate(19.55)"><circle cx="0" cy="0" r="18.02" fill="#C084FC" stroke="rgba(255,255,255,0.55)" stroke-width="1.4" /></g>
    <g transform="translate(440.44 208.57) rotate(-12.32)"><path d="M 0 15.77 C -20.65 1.88, -22.53 -13.14, -9.01 -3.00 C -0.75 -15.77, 0.75 -15.77, 9.01 -3.00 C 22.53 -13.14, 20.65 1.88, 0 15.77 Z" fill="#F87171" stroke="rgba(255,255,255,0.55)" stroke-width="1.2" /></g>
    <g transform="translate(673.26 536.91) rotate(0.19)"><circle cx="0" cy="0" r="17.18" fill="#34D399" stroke="rgba(255,255,255,0.55)" stroke-width="1.4" /><circle cx="-6.18" cy="-4.12" r="2.75" fill="#1F2937" /><circle cx="6.18" cy="-4.12" r="2.75" fill="#1F2937" /><path d="M -13.05 4.81 Q 0 11.68 13.05 4.81" fill="none" stroke="#1F2937" stroke-width="2.2" stroke-linecap="round" /></g>
    <g transform="translate(747.62 76.96) rotate(-7.71)"><circle cx="0" cy="0" r="15.42" fill="#F87171" stroke="rgba(255,255,255,0.55)" stroke-width="1.4" /></g>
  </g>
</svg>
