<svg xmlns="http://www.w3.org/2000/svg" width="960" height="600" viewBox="0 0 960 600">
  <defs>
    <linearGradient id="bg40" x1="0%" y1="0%" x2="100%" y2="100%">
      <stop offset="0%" stop-color="#0F172A" />
      <stop offset="100%" stop-color="#1D4ED8" />
    </linearGradient>
    <filter id="shadow40" x="-20%" y="-20%" width="140%" height="140%">
      <feDropShadow dx="0" dy="2" stdDeviation="1.8" flood-color="rgba(0,0,0,0.36)" />
    </filter>
  </defs>

  <rect width="960" height="600" fill="url(#bg40)" />
  <rect x="24" y="24" width="912" height="552" rx="20" fill="rgba(255,255,255,0.045)" stroke="rgba(255,255,255,0.22)" />
  <g filter="url(#shadow40)">
    <g transform="translate(595.23 69.49) rotate(2.31)"><circle cx="0" cy="0" r="20.95" fill="#FB7185" /><circle cx="8.38" cy="-0.84" r="17.60" fill="#0B1A34" /></g>
    <g transform="translate(280.91 460.04) rotate(-17.33)"><polygon points="0,-16.22 14.54,11.18 -14.54,11.18" fill="#A78BFA" stroke="rgba(255,255,255,0.55)" stroke-width="1.4" /></g>
    <g transform="translate(292.36 197.81) rotate(-23.97)"><polygon points="0.00,-15.94 4.09,-5.63 15.16,-4.93 6.62,2.15 9.37,12.90 0.00,6.96 -9.37,12.90 -6.62,2.15 -15.16,-4.93 -4.09,-5.63" fill="#34D399" stroke="rgba(255,255,255,0.55)" stroke-width="1.4" /></g>
    <g transform="translate(356.48 340.61) rotate(2.50)"><circle cx="0" cy="0" r="19.72" fill="#34D399" /><circle cx="7.89" cy="-0.79" r="16.56" fill="#0B1A34" /></g>
    <g transform="translate(681.75 193.43) rotate(-7.68)"><circle cx="0" cy="0" r="14.16" fill="#34D399" /><circle cx="5.67" cy="-0.57" r="11.90" fill="#0B1A34" /></g>
    <g transform="translate(750.28 460.82) rotate(-6.68)"><polygon points="-20.24,-7.29 3.24,-7.29 3.24,-15.38 22.26,0.00 3.24,15.38 3.24,7.29 -20.24,7.29" fill="#FB7185" stroke="rgba(255,255,255,0.55)" stroke-width="1.2" /></g>
    <g transform="translate(828.50 72.67) rotate(-4.83)"><circle cx="0" cy="0" r="14.04" fill="#FB7185" /><circle cx="5.62" cy="-0.56" r="11.79" fill="#0B1A34" /></g>
    <g transform="translate(204.01 140.28) rotate(-12.18)"><polygon points="-17.40,-6.26 2.78,-6.26 2.78,-13.22 19.13,0.00 2.78,13.22 2.78,6.26 -17.40,6.26" fill="#34D399" stroke="rgba(255,255,255,0.55)" stroke-width="1.2" /></g>
    <g transform="translate(284.13 536.03) rotate(8.24)"><rect x="-16.73" y="-4.93" width="33.46" height="9.86" rx="4.93" fill="#4ADE80" /><rect x="-4.93" y="-16.73" width="9.86" height="33.46" rx="4.93" fill="#4ADE80" /></g>
    <g transform="translate(368.42 531.54) rotate(-3.15)"><circle cx="0" cy="0" r="19.06" fill="#4ADE80" /><circle cx="7.62" cy="-0.76" r="16.01" fill="#0B1A34" /></g>
    <g transform="translate(58.83 328.15) rotate(-3.64)"><rect x="-13.43" y="-3.96" width="26.86" height="7.92" rx="3.96" fill="#34D399" /><rect x="-3.96" y="-13.43" width="7.92" height="26.86" rx="3.96" fill="#34D399" /></g>
    <g transform="translate(825.94 527.14) rotate(-2.13)"><rect x="-18.17" y="-18.17" width="36.34" height="36.34" rx="3.95" fill="#60A5FA" stroke="rgba(255,255,255,0.55)" stroke-width="1.4" /></g>
    <g transform="translate(287.70 269.38) rotate(10.29)"><polygon points="0,-17.71 15.88,12.21 -15.88,12.21" fill="#34D399" stroke="rgba(255,255,255,0.55)" stroke-width="1.4" /></g>
    <g transform="translate(56.19 264.75) rotate(24.56)"><polygon points="-16.82,-6.05 2.69,-6.05 2.69,-12.78 18.50,0.00 2.69,12.78 2.69,6.05 -16.82,6.05" fill="#60A5FA" stroke="rgba(255,255,255,0.55)" stroke-width="1.2" /></g>
    <g transform="translate(515.53 460.82) rotate(5.77)"><polygon points="-16.05,-5.78 2.57,-5.78 2.57,-12.20 17.65,0.00 2.57,12.20 2.57,5.78 -16.05,5.78" fill="#4ADE80" stroke="rgba(255,255,255,0.55)" stroke-width="1.2" /></g>
    <g transform="translate(835.25 332.09) rotate(12.73)"><rect x="-15.16" y="-15.16" width="30.33" height="30.33" rx="3.30" fill="#A78BFA" stroke="rgba(255,255,255,0.55)" stroke-width="1.4" /></g>
    <g transform="translate(674.66 329.43) rotate(15.88)"><rect x="-14.10" y="-14.10" width="28.20" height="28.20" rx="3.07" fill="#60A5FA" stroke="rgba(255,255,255,0.55)" stroke-width="1.4" /></g>
    <g transform="translate(449.02 269.65) rotate(-5.63)"><rect x="-19.07" y="-19.07" width="38.14" height="38.14" rx="4.15" fill="#34D399" stroke="rgba(255,255,255,0.55)" stroke-width="1.4" /></g>
    <g transform="translate(746.56 526.17) rotate(0.65)"><polygon points="-19.99,-7.20 3.20,-7.20 3.20,-15.19 21.99,0.00 3.20,15.19 3.20,7.20 -19.99,7.20" fill="#F97316" stroke="rgba(255,255,255,0.55)" stroke-width="1.2" /></g>
    <g transform="translate(287.53 72.12) rotate(-16.83)"><polygon points="-16.67,-6.00 2.67,-6.00 2.67,-12.67 18.34,0.00 2.67,12.67 2.67,6.00 -16.67,6.00" fill="#F87171" stroke="rgba(255,255,255,0.55)" stroke-width="1.2" /></g>
    <g transform="translate(357.26 268.32) rotate(-5.24)"><circle cx="0" cy="0" r="16.93" fill="#A78BFA" /><circle cx="6.77" cy="-0.68" r="14.22" fill="#0B1A34" /></g>
    <g transform="translate(751.16 200.00) rotate(0.59)"><polygon points="-17.14,-6.17 2.74,-6.17 2.74,-13.02 18.85,0.00 2.74,13.02 2.74,6.17 -17.14,6.17" fill="#34D399" stroke="rgba(255,255,255,0.55)" stroke-width="1.2" /></g>
    <g transform="translate(369.91 399.10) rotate(-2.26)"><polygon points="-16.52,-5.95 2.64,-5.95 2.64,-12.55 18.17,0.00 2.64,12.55 2.64,5.95 -16.52,5.95" fill="#4ADE80" stroke="rgba(255,255,255,0.55)" stroke-width="1.2" /></g>
    <g transform="translate(131.20 206.81) rotate(-5.81)"><circle cx="0" cy="0" r="16.64" fill="#F87171" /><circle cx="6.66" cy="-0.67" r="13.98" fill="#0B1A34" /></g>
    <g transform="translate(206.30 525.14) rotate(19.23)"><polygon points="0.00,-21.00 5.39,-7.41 19.97,-6.49 8.72,2.83 12.34,16.99 0.00,9.16 -12.34,16.99 -8.72,2.83 -19.97,-6.49 -5.39,-7.41" fill="#FBBF24" stroke="rgba(255,255,255,0.55)" stroke-width="1.4" /></g>
    <g transform="translate(208.35 63.46) rotate(4.72)"><circle cx="0" cy="0" r="17.61" fill="#FB7185" /><circle cx="7.04" cy="-0.70" r="14.79" fill="#0B1A34" /></g>
  </g>
</svg>
