<svg xmlns="http://www.w3.org/2000/svg" width="960" height="600" viewBox="0 0 960 600">
  <defs>
    <linearGradient id="bg191" x1="0%" y1="0%" x2="100%" y2="100%">
      <stop offset="0%" stop-color="#0F172A" />
      <stop offset="100%" stop-color="#1D4ED8" />
    </linearGradient>
    <filter id="shadow191" x="-20%" y="-20%" width="140%" height="140%">
      <feDropShadow dx="0" dy="2" stdDeviation="1.8" flood-color="rgba(0,0,0,0.36)" />
    </filter>
  </defs>

  <rect width="960" height="600" fill="url(#bg191)" />
  <rect x="24" y="24" width="912" height="552" rx="20" fill="rgba(255,255,255,0.045)" stroke="rgba(255,255,255,0.22)" />
  <g filter="url(#shadow191)">
    <g transform="translate(752.43 406.37) rotate(21.48)"><polygon points="0.00,-17.52 4.49,-6.18 16.66,-5.41 7.27,2.36 10.30,14.17 0.00,7.64 -10.30,14.17 -7.27,2.36 -16.66,-5.41 -4.49,-6.18" fill="#22D3EE" stroke="rgba(255,255,255,0.55)" stroke-width="1.4" /></g>
    <g transform="translate(745.54 460.27) rotate(-0.40)"><polygon points="0.00,-16.17 4.15,-5.71 15.38,-5.00 6.71,2.18 9.51,13.08 0.00,7.06 -9.51,13.08 -6.71,2.18 -15.38,-5.00 -4.15,-5.71" fill="#22D3EE" stroke="rgba(255,255,255,0.55)" stroke-width="1.4" /></g>
    <g transform="translate(594.98 333.25) rotate(10.73)"><circle cx="0" cy="0" r="14.19" fill="#60A5FA" stroke="rgba(255,255,255,0.55)" stroke-width="1.4" /></g>
    <g transform="translate(746.43 70.85) rotate(13.25)"><polygon points="-16.98,-6.11 2.72,-6.11 2.72,-12.90 18.68,0.00 2.72,12.90 2.72,6.11 -16.98,6.11" fill="#C084FC" stroke="rgba(255,255,255,0.55)" stroke-width="1.2" /></g>
    <g transform="translate(915.46 462.85) rotate(-7.44)"><polygon points="0.00,-21.61 5.54,-7.63 20.55,-6.68 8.97,2.91 12.70,17.48 0.00,9.43 -12.70,17.48 -8.97,2.91 -20.55,-6.68 -5.54,-7.63" fill="#FBBF24" stroke="rgba(255,255,255,0.55)" stroke-width="1.4" /></g>
    <g transform="translate(671.13 140.63) rotate(9.07)"><path d="M 0 12.64 C -16.55 1.50, -18.05 -10.53, -7.22 -2.41 C -0.60 -12.64, 0.60 -12.64, 7.22 -2.41 C 18.05 -10.53, 16.55 1.50, 0 12.64 Z" fill="#FBBF24" stroke="rgba(255,255,255,0.55)" stroke-width="1.2" /></g>
    <g transform="translate(46.71 130.94) rotate(0.28)"><polygon points="0.00,-16.74 4.29,-5.91 15.92,-5.17 6.95,2.26 9.84,13.55 0.00,7.31 -9.84,13.55 -6.95,2.26 -15.92,-5.17 -4.29,-5.91" fill="#22D3EE" stroke="rgba(255,255,255,0.55)" stroke-width="1.4" /></g>
    <g transform="translate(826.28 333.68) rotate(12.09)"><path d="M 0 15.39 C -20.16 1.83, -21.99 -12.83, -8.80 -2.93 C -0.73 -15.39, 0.73 -15.39, 8.80 -2.93 C 21.99 -12.83, 20.16 1.83, 0 15.39 Z" fill="#F87171" stroke="rgba(255,255,255,0.55)" stroke-width="1.2" /></g>
    <g transform="translate(675.99 326.70) rotate(1.76)"><polygon points="-20.93,-7.53 3.35,-7.53 3.35,-15.90 23.02,0.00 3.35,15.90 3.35,7.53 -20.93,7.53" fill="#F87171" stroke="rgba(255,255,255,0.55)" stroke-width="1.2" /></g>
    <g transform="translate(597.35 260.03) rotate(20.63)"><polygon points="-18.89,-6.80 3.02,-6.80 3.02,-14.36 20.78,0.00 3.02,14.36 3.02,6.80 -18.89,6.80" fill="#FBBF24" stroke="rgba(255,255,255,0.55)" stroke-width="1.2" /></g>
    <g transform="translate(200.14 266.37) rotate(17.57)"><path d="M 0 14.74 C -19.30 1.75, -21.06 -12.28, -8.42 -2.81 C -0.70 -14.74, 0.70 -14.74, 8.42 -2.81 C 21.06 -12.28, 19.30 1.75, 0 14.74 Z" fill="#4ADE80" stroke="rgba(255,255,255,0.55)" stroke-width="1.2" /></g>
    <g transform="translate(58.40 329.26) rotate(3.94)"><circle cx="0" cy="0" r="16.88" fill="#A78BFA" stroke="rgba(255,255,255,0.55)" stroke-width="1.4" /></g>
    <g transform="translate(602.45 537.50) rotate(20.41)"><polygon points="-17.13,-6.17 2.74,-6.17 2.74,-13.02 18.85,0.00 2.74,13.02 2.74,6.17 -17.13,6.17" fill="#34D399" stroke="rgba(255,255,255,0.55)" stroke-width="1.2" /></g>
    <g transform="translate(359.71 537.66) rotate(-12.89)"><path d="M 0 17.06 C -22.34 2.03, -24.37 -14.21, -9.75 -3.25 C -0.81 -17.06, 0.81 -17.06, 9.75 -3.25 C 24.37 -14.21, 22.34 2.03, 0 17.06 Z" fill="#F87171" stroke="rgba(255,255,255,0.55)" stroke-width="1.2" /></g>
    <g transform="translate(361.89 71.57) rotate(22.82)"><polygon points="-19.10,-6.87 3.06,-6.87 3.06,-14.51 21.01,0.00 3.06,14.51 3.06,6.87 -19.10,6.87" fill="#4ADE80" stroke="rgba(255,255,255,0.55)" stroke-width="1.2" /></g>
    <g transform="translate(212.69 198.62) rotate(-27.80)"><circle cx="0" cy="0" r="19.38" fill="#22D3EE" stroke="rgba(255,255,255,0.55)" stroke-width="1.4" /></g>
    <g transform="translate(438.47 393.17) rotate(9.98)"><circle cx="0" cy="0" r="16.88" fill="#FBBF24" stroke="rgba(255,255,255,0.55)" stroke-width="1.4" /></g>
    <g transform="translate(525.90 261.74) rotate(-16.73)"><polygon points="-20.48,-7.37 3.28,-7.37 3.28,-15.57 22.53,0.00 3.28,15.57 3.28,7.37 -20.48,7.37" fill="#F87171" stroke="rgba(255,255,255,0.55)" stroke-width="1.2" /></g>
    <g transform="translate(277.92 200.52) rotate(-14.24)"><polygon points="-18.31,-6.59 2.93,-6.59 2.93,-13.91 20.14,0.00 2.93,13.91 2.93,6.59 -18.31,6.59" fill="#60A5FA" stroke="rgba(255,255,255,0.55)" stroke-width="1.2" /></g>
    <g transform="translate(50.78 465.71) rotate(-2.49)"><path d="M 0 13.01 C -17.03 1.55, -18.58 -10.84, -7.43 -2.48 C -0.62 -13.01, 0.62 -13.01, 7.43 -2.48 C 18.58 -10.84, 17.03 1.55, 0 13.01 Z" fill="#FB7185" stroke="rgba(255,255,255,0.55)" stroke-width="1.2" /></g>
    <g transform="translate(900.83 197.87) rotate(-13.07)"><polygon points="-19.69,-7.09 3.15,-7.09 3.15,-14.96 21.65,0.00 3.15,14.96 3.15,7.09 -19.69,7.09" fill="#34D399" stroke="rgba(255,255,255,0.55)" stroke-width="1.2" /></g>
    <g transform="translate(516.77 139.62) rotate(-23.93)"><path d="M 0 13.56 C -17.76 1.61, -19.38 -11.30, -7.75 -2.58 C -0.65 -13.56, 0.65 -13.56, 7.75 -2.58 C 19.38 -11.30, 17.76 1.61, 0 13.56 Z" fill="#FB7185" stroke="rgba(255,255,255,0.55)" stroke-width="1.2" /></g>
    <g transform="translate(359.55 261.28) rotate(-14.47)"><polygon points="0.00,-17.53 4.50,-6.19 16.67,-5.42 7.28,2.36 10.30,14.18 0.00,7.65 -10.30,14.18 -7.28,2.36 -16.67,-5.42 -4.50,-6.19" fill="#A78BFA" stroke="rgba(255,255,255,0.55)" stroke-width="1.4" /></g>
    <g transform="translate(207.08 140.59) rotate(26.75)"><path d="M 0 12.51 C -16.38 1.49, -17.87 -10.43, -7.15 -2.38 C -0.60 -12.51, 0.60 -12.51, 7.15 -2.38 C 17.87 -10.43, 16.38 1.49, 0 12.51 Z" fill="#22D3EE" stroke="rgba(255,255,255,0.55)" stroke-width="1.2" /></g>
    <g transform="translate(133.45 340.71) rotate(23.08)"><circle cx="0" cy="0" r="16.95" fill="#A78BFA" stroke="rgba(255,255,255,0.55)" stroke-width="1.4" /></g>
    <g transform="translate(123.85 62.02) rotate(24.65)"><polygon points="-18.51,-6.66 2.96,-6.66 2.96,-14.07 20.36,0.00 2.96,14.07 2.96,6.66 -18.51,6.66" fill="#C084FC" stroke="rgba(255,255,255,0.55)" stroke-width="1.2" /></g>
    <g transform="translate(212.47 523.77) rotate(15.32)"><polygon points="0.00,-18.08 4.64,-6.38 17.19,-5.59 7.50,2.44 10.62,14.62 0.00,7.89 -10.62,14.62 -7.50,2.44 -17.19,-5.59 -4.64,-6.38" fill="#C084FC" stroke="rgba(255,255,255,0.55)" stroke-width="1.4" /></g>
    <g transform="translate(830.92 398.44) rotate(-20.43)"><polygon points="0.00,-22.16 5.68,-7.82 21.08,-6.85 9.20,2.99 13.03,17.93 0.00,9.67 -13.03,17.93 -9.20,2.99 -21.08,-6.85 -5.68,-7.82" fill="#FBBF24" stroke="rgba(255,255,255,0.55)" stroke-width="1.4" /></g>
    <g transform="translate(832.71 468.08) rotate(-6.83)"><circle cx="0" cy="0" r="14.16" fill="#F97316" stroke="rgba(255,255,255,0.55)" stroke-width="1.4" /></g>
    <g transform="translate(522.11 399.27) rotate(23.74)"><polygon points="0.00,-16.27 4.17,-5.74 15.47,-5.03 6.75,2.19 9.56,13.16 0.00,7.10 -9.56,13.16 -6.75,2.19 -15.47,-5.03 -4.17,-5.74" fill="#F97316" stroke="rgba(255,255,255,0.55)" stroke-width="1.4" /></g>
  </g>
</svg>
