<svg xmlns="http://www.w3.org/2000/svg" width="960" height="600" viewBox="0 0 960 600">
  <defs>
    <linearGradient id="bg48" x1="0%" y1="0%" x2="100%" y2="100%">
      <stop offset="0%" stop-color="#0F172A" />
      <stop offset="100%" stop-color="#1D4ED8" />
    </linearGradient>
    <filter id="shadow48" x="-20%" y="-20%" width="140%" height="140%">
      <feDropShadow dx="0" dy="2" stdDeviation="1.8" flood-color="rgba(0,0,0,0.36)" />
    </filter>
  </defs>

  <rect width="960" height="600" fill="url(#bg48)" />
  <rect x="24" y="24" width="912" height="552" rx="20" fill="rgba(255,255,255,0.045)" stroke="rgba(255,255,255,0.22)" />
  <g filter="url(#shadow48)">
    <g transform="translate(591.23 403.79) rotate(-15.70)"><polygon points="-17.41,-6.27 2.79,-6.27 2.79,-13.23 19.15,0.00 2.79,13.23 2.79,6.27 -17.41,6.27" fill="#A78BFA" stroke="rgba(255,255,255,0.55)" stroke-width="1.2" /></g>
    <g transform="translate(53.73 134.69) rotate(-10.21)"><polygon points="0,-20.08 20.08,0 0,20.08 -20.08,0" fill="#60A5FA" stroke="rgba(255,255,255,0.55)" stroke-width="1.4" /></g>
    <g transform="translate(746.18 68.90) rotate(-4.56)"><polygon points="-17.31,-6.23 2.77,-6.23 2.77,-13.16 19.04,0.00 2.77,13.16 2.77,6.23 -17.31,6.23" fill="#FBBF24" stroke="rgba(255,255,255,0.55)" stroke-width="1.2" /></g>
    <g transform="translate(123.51 67.77) rotate(10.39)"><polygon points="0,-19.42 19.42,0 0,19.42 -19.42,0" fill="#C084FC" stroke="rgba(255,255,255,0.55)" stroke-width="1.4" /></g>
    <g transform="translate(759.16 393.23) rotate(9.57)"><polygon points="0,-19.58 17.56,13.51 -17.56,13.51" fill="#FBBF24" stroke="rgba(255,255,255,0.55)" stroke-width="1.4" /></g>
    <g transform="translate(442.98 328.94) rotate(-6.17)"><polygon points="0,-14.84 14.84,0 0,14.84 -14.84,0" fill="#FB7185" stroke="rgba(255,255,255,0.55)" stroke-width="1.4" /></g>
    <g transform="translate(371.10 470.41) rotate(-25.59)"><path d="M 0 14.16 C -18.54 1.69, -20.23 -11.80, -8.09 -2.70 C -0.67 -14.16, 0.67 -14.16, 8.09 -2.70 C 20.23 -11.80, 18.54 1.69, 0 14.16 Z" fill="#FBBF24" stroke="rgba(255,255,255,0.55)" stroke-width="1.2" /></g>
    <g transform="translate(435.41 536.90) rotate(-16.48)"><path d="M 0 16.48 C -21.58 1.96, -23.55 -13.74, -9.42 -3.14 C -0.78 -16.48, 0.78 -16.48, 9.42 -3.14 C 23.55 -13.74, 21.58 1.96, 0 16.48 Z" fill="#4ADE80" stroke="rgba(255,255,255,0.55)" stroke-width="1.2" /></g>
    <g transform="translate(676.39 130.32) rotate(25.49)"><polygon points="0,-16.41 16.41,0 0,16.41 -16.41,0" fill="#60A5FA" stroke="rgba(255,255,255,0.55)" stroke-width="1.4" /></g>
    <g transform="translate(202.94 198.07) rotate(-26.23)"><path d="M 0 17.36 C -22.74 2.07, -24.80 -14.47, -9.92 -3.31 C -0.83 -17.36, 0.83 -17.36, 9.92 -3.31 C 24.80 -14.47, 22.74 2.07, 0 17.36 Z" fill="#4ADE80" stroke="rgba(255,255,255,0.55)" stroke-width="1.2" /></g>
    <g transform="translate(752.30 262.26) rotate(-26.13)"><polygon points="0.00,-22.44 5.76,-7.92 21.34,-6.93 9.31,3.03 13.19,18.15 0.00,9.79 -13.19,18.15 -9.31,3.03 -21.34,-6.93 -5.76,-7.92" fill="#A78BFA" stroke="rgba(255,255,255,0.55)" stroke-width="1.4" /></g>
    <g transform="translate(596.73 466.67) rotate(-9.32)"><polygon points="0.00,-17.75 4.55,-6.27 16.88,-5.49 7.37,2.39 10.43,14.36 0.00,7.75 -10.43,14.36 -7.37,2.39 -16.88,-5.49 -4.55,-6.27" fill="#C084FC" stroke="rgba(255,255,255,0.55)" stroke-width="1.4" /></g>
    <g transform="translate(44.91 464.03) rotate(18.77)"><polygon points="-18.84,-6.78 3.01,-6.78 3.01,-14.32 20.72,0.00 3.01,14.32 3.01,6.78 -18.84,6.78" fill="#F97316" stroke="rgba(255,255,255,0.55)" stroke-width="1.2" /></g>
    <g transform="translate(829.97 463.12) rotate(1.78)"><circle cx="0" cy="0" r="15.50" fill="#F97316" stroke="rgba(255,255,255,0.55)" stroke-width="1.4" /><circle cx="-5.58" cy="-3.72" r="2.48" fill="#1F2937" /><circle cx="5.58" cy="-3.72" r="2.48" fill="#1F2937" /><path d="M -11.78 4.34 Q 0 10.54 11.78 4.34" fill="none" stroke="#1F2937" stroke-width="2.2" stroke-linecap="round" /></g>
    <g transform="translate(511.29 135.29) rotate(-5.23)"><circle cx="0" cy="0" r="15.96" fill="#22D3EE" stroke="rgba(255,255,255,0.55)" stroke-width="1.4" /><circle cx="-5.75" cy="-3.83" r="2.55" fill="#1F2937" /><circle cx="5.75" cy="-3.83" r="2.55" fill="#1F2937" /><path d="M -12.13 4.47 Q 0 10.85 12.13 4.47" fill="none" stroke="#1F2937" stroke-width="2.2" stroke-linecap="round" /></g>
    <g transform="translate(912.75 464.77) rotate(21.29)"><polygon points="-14.64,-5.27 2.34,-5.27 2.34,-11.12 16.10,0.00 2.34,11.12 2.34,5.27 -14.64,5.27" fill="#C084FC" stroke="rgba(255,255,255,0.55)" stroke-width="1.2" /></g>
    <g transform="translate(912.71 395.62) rotate(-3.50)"><circle cx="0" cy="0" r="18.47" fill="#22D3EE" stroke="rgba(255,255,255,0.55)" stroke-width="1.4" /><circle cx="-6.65" cy="-4.43" r="2.95" fill="#1F2937" /><circle cx="6.65" cy="-4.43" r="2.95" fill="#1F2937" /><path d="M -14.03 5.17 Q 0 12.56 14.03 5.17" fill="none" stroke="#1F2937" stroke-width="2.2" stroke-linecap="round" /></g>
  </g>
</svg>
