<svg xmlns="http://www.w3.org/2000/svg" width="960" height="600" viewBox="0 0 960 600">
  <defs>
    <linearGradient id="bg190" x1="0%" y1="0%" x2="100%" y2="100%">
      <stop offset="0%" stop-color="#0F172A" />
      <stop offset="100%" stop-color="#1D4ED8" />
    </linearGradient>
    <filter id="shadow190" x="-20%" y="-20%" width="140%" height="140%">
      <feDropShadow dx="0" dy="2" stdDeviation="1.8" flood-color="rgba(0,0,0,0.36)" />
    </filter>
  </defs>

  <rect width="960" height="600" fill="url(#bg190)" />
  <rect x="24" y="24" width="912" height="552" rx="20" fill="rgba(255,255,255,0.045)" stroke="rgba(255,255,255,0.22)" />
  <g filter="url(#shadow190)">
    <g transform="translate(122.38 333.30) rotate(-27.02)"><polygon points="0,-21.56 19.33,14.87 -19.33,14.87" fill="#34D399" stroke="rgba(255,255,255,0.55)" stroke-width="1.4" /></g>
    <g transform="translate(291.03 63.91) rotate(7.53)"><circle cx="0" cy="0" r="20.43" fill="#A78BFA" /><circle cx="8.17" cy="-0.82" r="17.16" fill="#0B1A34" /></g>
    <g transform="translate(590.73 64.45) rotate(1.48)"><circle cx="0" cy="0" r="20.31" fill="#C084FC" stroke="rgba(255,255,255,0.55)" stroke-width="1.4" /><circle cx="-7.31" cy="-4.88" r="3.25" fill="#1F2937" /><circle cx="7.31" cy="-4.88" r="3.25" fill="#1F2937" /><path d="M -15.44 5.69 Q 0 13.81 15.44 5.69" fill="none" stroke="#1F2937" stroke-width="2.2" stroke-linecap="round" /></g>
    <g transform="translate(208.55 68.39) rotate(2.11)"><circle cx="0" cy="0" r="15.80" fill="#C084FC" /><circle cx="6.32" cy="-0.63" r="13.27" fill="#0B1A34" /></g>
    <g transform="translate(134.12 536.21) rotate(2.87)"><circle cx="0" cy="0" r="16.98" fill="#34D399" stroke="rgba(255,255,255,0.55)" stroke-width="1.4" /><circle cx="-6.11" cy="-4.08" r="2.72" fill="#1F2937" /><circle cx="6.11" cy="-4.08" r="2.72" fill="#1F2937" /><path d="M -12.91 4.76 Q 0 11.55 12.91 4.76" fill="none" stroke="#1F2937" stroke-width="2.2" stroke-linecap="round" /></g>
    <g transform="translate(511.16 63.05) rotate(21.46)"><polygon points="0,-22.56 20.23,15.56 -20.23,15.56" fill="#FBBF24" stroke="rgba(255,255,255,0.55)" stroke-width="1.4" /></g>
    <g transform="translate(523.80 524.50) rotate(3.84)"><circle cx="0" cy="0" r="18.43" fill="#F87171" /><circle cx="7.37" cy="-0.74" r="15.49" fill="#0B1A34" /></g>
    <g transform="translate(443.82 141.31) rotate(-18.11)"><polygon points="-17.56,-6.32 2.81,-6.32 2.81,-13.35 19.32,0.00 2.81,13.35 2.81,6.32 -17.56,6.32" fill="#60A5FA" stroke="rgba(255,255,255,0.55)" stroke-width="1.2" /></g>
    <g transform="translate(601.32 525.95) rotate(7.51)"><circle cx="0" cy="0" r="19.20" fill="#C084FC" /><circle cx="7.68" cy="-0.77" r="16.13" fill="#0B1A34" /></g>
    <g transform="translate(825.95 329.98) rotate(-17.88)"><polygon points="0,-18.10 16.23,12.49 -16.23,12.49" fill="#FB7185" stroke="rgba(255,255,255,0.55)" stroke-width="1.4" /></g>
    <g transform="translate(211.13 201.12) rotate(-6.19)"><path d="M 0 15.97 C -20.91 1.90, -22.81 -13.31, -9.13 -3.04 C -0.76 -15.97, 0.76 -15.97, 9.13 -3.04 C 22.81 -13.31, 20.91 1.90, 0 15.97 Z" fill="#A78BFA" stroke="rgba(255,255,255,0.55)" stroke-width="1.2" /></g>
    <g transform="translate(749.14 461.74) rotate(6.19)"><circle cx="0" cy="0" r="18.06" fill="#FBBF24" stroke="rgba(255,255,255,0.55)" stroke-width="1.4" /><circle cx="-6.50" cy="-4.34" r="2.89" fill="#1F2937" /><circle cx="6.50" cy="-4.34" r="2.89" fill="#1F2937" /><path d="M -13.73 5.06 Q 0 12.28 13.73 5.06" fill="none" stroke="#1F2937" stroke-width="2.2" stroke-linecap="round" /></g>
    <g transform="translate(283.85 392.52) rotate(6.85)"><circle cx="0" cy="0" r="16.18" fill="#FB7185" stroke="rgba(255,255,255,0.55)" stroke-width="1.4" /><circle cx="-5.83" cy="-3.88" r="2.59" fill="#1F2937" /><circle cx="5.83" cy="-3.88" r="2.59" fill="#1F2937" /><path d="M -12.30 4.53 Q 0 11.00 12.30 4.53" fill="none" stroke="#1F2937" stroke-width="2.2" stroke-linecap="round" /></g>
    <g transform="translate(128.50 137.61) rotate(-12.75)"><polygon points="-20.55,-7.40 3.29,-7.40 3.29,-15.61 22.60,0.00 3.29,15.61 3.29,7.40 -20.55,7.40" fill="#C084FC" stroke="rgba(255,255,255,0.55)" stroke-width="1.2" /></g>
    <g transform="translate(441.41 268.50) rotate(-3.01)"><circle cx="0" cy="0" r="15.10" fill="#FBBF24" /><circle cx="6.04" cy="-0.60" r="12.69" fill="#0B1A34" /></g>
    <g transform="translate(748.00 399.66) rotate(-15.57)"><polygon points="-15.18,-5.46 2.43,-5.46 2.43,-11.53 16.69,0.00 2.43,11.53 2.43,5.46 -15.18,5.46" fill="#FB7185" stroke="rgba(255,255,255,0.55)" stroke-width="1.2" /></g>
    <g transform="translate(668.35 72.42) rotate(15.45)"><polygon points="0,-20.31 18.21,14.01 -18.21,14.01" fill="#FBBF24" stroke="rgba(255,255,255,0.55)" stroke-width="1.4" /></g>
    <g transform="translate(749.23 262.04) rotate(-0.03)"><circle cx="0" cy="0" r="14.84" fill="#F87171" stroke="rgba(255,255,255,0.55)" stroke-width="1.4" /><circle cx="-5.34" cy="-3.56" r="2.38" fill="#1F2937" /><circle cx="5.34" cy="-3.56" r="2.38" fill="#1F2937" /><path d="M -11.28 4.16 Q 0 10.09 11.28 4.16" fill="none" stroke="#1F2937" stroke-width="2.2" stroke-linecap="round" /></g>
  </g>
</svg>
