<svg xmlns="http://www.w3.org/2000/svg" width="960" height="600" viewBox="0 0 960 600">
  <defs>
    <linearGradient id="bg123" x1="0%" y1="0%" x2="100%" y2="100%">
      <stop offset="0%" stop-color="#0F172A" />
      <stop offset="100%" stop-color="#1D4ED8" />
    </linearGradient>
    <filter id="shadow123" x="-20%" y="-20%" width="140%" height="140%">
      <feDropShadow dx="0" dy="2" stdDeviation="1.8" flood-color="rgba(0,0,0,0.36)" />
    </filter>
  </defs>

  <rect width="960" height="600" fill="url(#bg123)" />
  <rect x="24" y="24" width="912" height="552" rx="20" fill="rgba(255,255,255,0.045)" stroke="rgba(255,255,255,0.22)" />
  <g filter="url(#shadow123)">
    <g transform="translate(744.84 334.91) rotate(-12.85)"><rect x="-15.57" y="-15.57" width="31.13" height="31.13" rx="3.38" fill="#F97316" stroke="rgba(255,255,255,0.55)" stroke-width="1.4" /></g>
    <g transform="translate(901.89 137.56) rotate(-1.74)"><circle cx="0" cy="0" r="19.91" fill="#A78BFA" stroke="rgba(255,255,255,0.55)" stroke-width="1.4" /></g>
    <g transform="translate(595.49 536.53) rotate(21.27)"><polygon points="0,-23.02 20.64,15.87 -20.64,15.87" fill="#4ADE80" stroke="rgba(255,255,255,0.55)" stroke-width="1.4" /></g>
    <g transform="translate(359.14 75.38) rotate(1.37)"><rect x="-16.95" y="-16.95" width="33.90" height="33.90" rx="3.68" fill="#22D3EE" stroke="rgba(255,255,255,0.55)" stroke-width="1.4" /></g>
    <g transform="translate(365.33 328.35) rotate(20.91)"><circle cx="0" cy="0" r="19.09" fill="#4ADE80" stroke="rgba(255,255,255,0.55)" stroke-width="1.4" /></g>
    <g transform="translate(361.33 199.43) rotate(-22.53)"><polygon points="-14.37,-5.17 2.30,-5.17 2.30,-10.92 15.81,0.00 2.30,10.92 2.30,5.17 -14.37,5.17" fill="#22D3EE" stroke="rgba(255,255,255,0.55)" stroke-width="1.2" /></g>
    <g transform="translate(599.44 397.14) rotate(-4.67)"><circle cx="0" cy="0" r="14.28" fill="#FBBF24" stroke="rgba(255,255,255,0.55)" stroke-width="1.4" /><circle cx="-5.14" cy="-3.43" r="2.29" fill="#1F2937" /><circle cx="5.14" cy="-3.43" r="2.29" fill="#1F2937" /><path d="M -10.85 4.00 Q 0 9.71 10.85 4.00" fill="none" stroke="#1F2937" stroke-width="2.2" stroke-linecap="round" /></g>
    <g transform="translate(202.05 71.54) rotate(-9.28)"><polygon points="0,-16.91 15.16,11.66 -15.16,11.66" fill="#A78BFA" stroke="rgba(255,255,255,0.55)" stroke-width="1.4" /></g>
    <g transform="translate(44.68 132.69) rotate(12.98)"><rect x="-13.88" y="-13.88" width="27.76" height="27.76" rx="3.02" fill="#34D399" stroke="rgba(255,255,255,0.55)" stroke-width="1.4" /></g>
    <g transform="translate(121.87 204.53) rotate(-26.34)"><rect x="-15.62" y="-15.62" width="31.24" height="31.24" rx="3.40" fill="#C084FC" stroke="rgba(255,255,255,0.55)" stroke-width="1.4" /></g>
    <g transform="translate(674.03 523.20) rotate(-7.35)"><rect x="-13.37" y="-13.37" width="26.73" height="26.73" rx="2.91" fill="#60A5FA" stroke="rgba(255,255,255,0.55)" stroke-width="1.4" /></g>
    <g transform="translate(674.58 399.85) rotate(2.26)"><circle cx="0" cy="0" r="17.09" fill="#4ADE80" stroke="rgba(255,255,255,0.55)" stroke-width="1.4" /><circle cx="-6.15" cy="-4.10" r="2.73" fill="#1F2937" /><circle cx="6.15" cy="-4.10" r="2.73" fill="#1F2937" /><path d="M -12.99 4.78 Q 0 11.62 12.99 4.78" fill="none" stroke="#1F2937" stroke-width="2.2" stroke-linecap="round" /></g>
    <g transform="translate(912.48 75.05) rotate(21.29)"><rect x="-15.98" y="-15.98" width="31.96" height="31.96" rx="3.47" fill="#A78BFA" stroke="rgba(255,255,255,0.55)" stroke-width="1.4" /></g>
    <g transform="translate(447.16 339.38) rotate(-21.32)"><polygon points="0,-15.86 14.22,10.94 -14.22,10.94" fill="#F87171" stroke="rgba(255,255,255,0.55)" stroke-width="1.4" /></g>
    <g transform="translate(129.82 469.69) rotate(1.00)"><rect x="-15.41" y="-15.41" width="30.82" height="30.82" rx="3.35" fill="#22D3EE" stroke="rgba(255,255,255,0.55)" stroke-width="1.4" /></g>
    <g transform="translate(514.18 522.52) rotate(6.41)"><circle cx="0" cy="0" r="18.75" fill="#34D399" stroke="rgba(255,255,255,0.55)" stroke-width="1.4" /></g>
    <g transform="translate(362.08 456.99) rotate(-9.24)"><polygon points="0,-21.51 19.29,14.84 -19.29,14.84" fill="#C084FC" stroke="rgba(255,255,255,0.55)" stroke-width="1.4" /></g>
    <g transform="translate(54.71 271.33) rotate(20.40)"><polygon points="0,-22.94 20.57,15.82 -20.57,15.82" fill="#F87171" stroke="rgba(255,255,255,0.55)" stroke-width="1.4" /></g>
    <g transform="translate(601.62 196.68) rotate(8.79)"><polygon points="0,-18.75 16.81,12.93 -16.81,12.93" fill="#C084FC" stroke="rgba(255,255,255,0.55)" stroke-width="1.4" /></g>
    <g transform="translate(526.77 340.45) rotate(-12.00)"><polygon points="0,-17.13 15.36,11.82 -15.36,11.82" fill="#4ADE80" stroke="rgba(255,255,255,0.55)" stroke-width="1.4" /></g>
    <g transform="translate(51.12 196.70) rotate(-3.10)"><circle cx="0" cy="0" r="20.91" fill="#4ADE80" stroke="rgba(255,255,255,0.55)" stroke-width="1.4" /><circle cx="-7.53" cy="-5.02" r="3.35" fill="#1F2937" /><circle cx="7.53" cy="-5.02" r="3.35" fill="#1F2937" /><path d="M -15.89 5.85 Q 0 14.22 15.89 5.85" fill="none" stroke="#1F2937" stroke-width="2.2" stroke-linecap="round" /></g>
    <g transform="translate(670.20 69.10) rotate(-26.07)"><circle cx="0" cy="0" r="17.29" fill="#C084FC" stroke="rgba(255,255,255,0.55)" stroke-width="1.4" /></g>
    <g transform="translate(828.66 457.65) rotate(1.14)"><polygon points="0,-16.35 16.35,0 0,16.35 -16.35,0" fill="#22D3EE" stroke="rgba(255,255,255,0.55)" stroke-width="1.4" /></g>
    <g transform="translate(122.31 395.62) rotate(-6.77)"><polygon points="0,-19.11 19.11,0 0,19.11 -19.11,0" fill="#C084FC" stroke="rgba(255,255,255,0.55)" stroke-width="1.4" /></g>
    <g transform="translate(516.76 203.41) rotate(23.90)"><rect x="-16.47" y="-16.47" width="32.93" height="32.93" rx="3.58" fill="#4ADE80" stroke="rgba(255,255,255,0.55)" stroke-width="1.4" /></g>
    <g transform="translate(907.17 527.04) rotate(3.46)"><rect x="-17.09" y="-17.09" width="34.18" height="34.18" rx="3.72" fill="#F97316" stroke="rgba(255,255,255,0.55)" stroke-width="1.4" /></g>
    <g transform="translate(825.44 205.96) rotate(0.25)"><circle cx="0" cy="0" r="15.48" fill="#60A5FA" stroke="rgba(255,255,255,0.55)" stroke-width="1.4" /><circle cx="-5.57" cy="-3.71" r="2.48" fill="#1F2937" /><circle cx="5.57" cy="-3.71" r="2.48" fill="#1F2937" /><path d="M -11.76 4.33 Q 0 10.53 11.76 4.33" fill="none" stroke="#1F2937" stroke-width="2.2" stroke-linecap="round" /></g>
  </g>
</svg>
