<svg xmlns="http://www.w3.org/2000/svg" width="960" height="600" viewBox="0 0 960 600">
  <defs>
    <linearGradient id="bg147" x1="0%" y1="0%" x2="100%" y2="100%">
      <stop offset="0%" stop-color="#0F172A" />
      <stop offset="100%" stop-color="#1D4ED8" />
    </linearGradient>
    <filter id="shadow147" x="-20%" y="-20%" width="140%" height="140%">
      <feDropShadow dx="0" dy="2" stdDeviation="1.8" flood-color="rgba(0,0,0,0.36)" />
    </filter>
  </defs>

  <rect width="960" height="600" fill="url(#bg147)" />
  <rect x="24" y="24" width="912" height="552" rx="20" fill="rgba(255,255,255,0.045)" stroke="rgba(255,255,255,0.22)" />
  <g filter="url(#shadow147)">
    <g transform="translate(520.87 141.28) rotate(-9.85)"><polygon points="-19.45,-7.00 3.11,-7.00 3.11,-14.78 21.39,0.00 3.11,14.78 3.11,7.00 -19.45,7.00" fill="#A78BFA" stroke="rgba(255,255,255,0.55)" stroke-width="1.2" /></g>
    <g transform="translate(830.86 466.01) rotate(2.61)"><circle cx="0" cy="0" r="15.79" fill="#A78BFA" stroke="rgba(255,255,255,0.55)" stroke-width="1.4" /><circle cx="-5.69" cy="-3.79" r="2.53" fill="#1F2937" /><circle cx="5.69" cy="-3.79" r="2.53" fill="#1F2937" /><path d="M -12.00 4.42 Q 0 10.74 12.00 4.42" fill="none" stroke="#1F2937" stroke-width="2.2" stroke-linecap="round" /></g>
    <g transform="translate(747.42 205.60) rotate(-23.35)"><polygon points="0,-20.42 18.31,14.09 -18.31,14.09" fill="#22D3EE" stroke="rgba(255,255,255,0.55)" stroke-width="1.4" /></g>
    <g transform="translate(601.55 472.03) rotate(22.08)"><polygon points="-17.44,-6.28 2.79,-6.28 2.79,-13.25 19.18,0.00 2.79,13.25 2.79,6.28 -17.44,6.28" fill="#34D399" stroke="rgba(255,255,255,0.55)" stroke-width="1.2" /></g>
    <g transform="translate(286.30 466.01) rotate(14.71)"><polygon points="0.00,-18.53 4.75,-6.54 17.62,-5.73 7.69,2.50 10.89,14.99 0.00,8.08 -10.89,14.99 -7.69,2.50 -17.62,-5.73 -4.75,-6.54" fill="#FB7185" stroke="rgba(255,255,255,0.55)" stroke-width="1.4" /></g>
    <g transform="translate(285.51 64.85) rotate(7.85)"><polygon points="0.00,-18.98 4.87,-6.70 18.06,-5.87 7.88,2.56 11.16,15.36 0.00,8.28 -11.16,15.36 -7.88,2.56 -18.06,-5.87 -4.87,-6.70" fill="#C084FC" stroke="rgba(255,255,255,0.55)" stroke-width="1.4" /></g>
    <g transform="translate(370.68 405.20) rotate(-23.30)"><polygon points="0,-19.85 17.80,13.69 -17.80,13.69" fill="#34D399" stroke="rgba(255,255,255,0.55)" stroke-width="1.4" /></g>
    <g transform="translate(676.08 75.69) rotate(10.13)"><polygon points="0.00,-19.00 4.87,-6.71 18.07,-5.87 7.88,2.56 11.17,15.37 0.00,8.29 -11.17,15.37 -7.88,2.56 -18.07,-5.87 -4.87,-6.71" fill="#60A5FA" stroke="rgba(255,255,255,0.55)" stroke-width="1.4" /></g>
    <g transform="translate(518.69 262.41) rotate(14.93)"><polygon points="-15.91,-5.73 2.55,-5.73 2.55,-12.09 17.50,0.00 2.55,12.09 2.55,5.73 -15.91,5.73" fill="#F97316" stroke="rgba(255,255,255,0.55)" stroke-width="1.2" /></g>
    <g transform="translate(288.69 196.19) rotate(5.61)"><circle cx="0" cy="0" r="15.96" fill="#A78BFA" stroke="rgba(255,255,255,0.55)" stroke-width="1.4" /><circle cx="-5.75" cy="-3.83" r="2.55" fill="#1F2937" /><circle cx="5.75" cy="-3.83" r="2.55" fill="#1F2937" /><path d="M -12.13 4.47 Q 0 10.85 12.13 4.47" fill="none" stroke="#1F2937" stroke-width="2.2" stroke-linecap="round" /></g>
    <g transform="translate(745.78 334.71) rotate(20.71)"><polygon points="0.00,-17.68 4.54,-6.24 16.82,-5.46 7.34,2.38 10.39,14.31 0.00,7.72 -10.39,14.31 -7.34,2.38 -16.82,-5.46 -4.54,-6.24" fill="#F87171" stroke="rgba(255,255,255,0.55)" stroke-width="1.4" /></g>
    <g transform="translate(835.82 328.30) rotate(-6.96)"><circle cx="0" cy="0" r="18.21" fill="#F87171" stroke="rgba(255,255,255,0.55)" stroke-width="1.4" /><circle cx="-6.55" cy="-4.37" r="2.91" fill="#1F2937" /><circle cx="6.55" cy="-4.37" r="2.91" fill="#1F2937" /><path d="M -13.84 5.10 Q 0 12.38 13.84 5.10" fill="none" stroke="#1F2937" stroke-width="2.2" stroke-linecap="round" /></g>
    <g transform="translate(362.30 205.43) rotate(-19.87)"><polygon points="0,-17.72 15.88,12.22 -15.88,12.22" fill="#22D3EE" stroke="rgba(255,255,255,0.55)" stroke-width="1.4" /></g>
    <g transform="translate(126.85 205.64) rotate(-6.59)"><polygon points="0,-18.98 17.02,13.09 -17.02,13.09" fill="#F87171" stroke="rgba(255,255,255,0.55)" stroke-width="1.4" /></g>
    <g transform="translate(523.75 460.25) rotate(-3.42)"><polygon points="0,-22.99 20.61,15.85 -20.61,15.85" fill="#F97316" stroke="rgba(255,255,255,0.55)" stroke-width="1.4" /></g>
    <g transform="translate(677.88 532.73) rotate(-11.24)"><polygon points="-18.18,-6.55 2.91,-6.55 2.91,-13.82 20.00,0.00 2.91,13.82 2.91,6.55 -18.18,6.55" fill="#FB7185" stroke="rgba(255,255,255,0.55)" stroke-width="1.2" /></g>
    <g transform="translate(598.47 333.39) rotate(-26.58)"><polygon points="0,-21.75 19.50,15.00 -19.50,15.00" fill="#22D3EE" stroke="rgba(255,255,255,0.55)" stroke-width="1.4" /></g>
    <g transform="translate(434.35 463.17) rotate(-26.30)"><polygon points="0.00,-22.66 5.81,-8.00 21.56,-7.00 9.41,3.06 13.32,18.34 0.00,9.89 -13.32,18.34 -9.41,3.06 -21.56,-7.00 -5.81,-8.00" fill="#22D3EE" stroke="rgba(255,255,255,0.55)" stroke-width="1.4" /></g>
  </g>
</svg>
