<svg xmlns="http://www.w3.org/2000/svg" width="960" height="600" viewBox="0 0 960 600">
  <defs>
    <linearGradient id="bg181" x1="0%" y1="0%" x2="100%" y2="100%">
      <stop offset="0%" stop-color="#0F172A" />
      <stop offset="100%" stop-color="#1D4ED8" />
    </linearGradient>
    <filter id="shadow181" x="-20%" y="-20%" width="140%" height="140%">
      <feDropShadow dx="0" dy="2" stdDeviation="1.8" flood-color="rgba(0,0,0,0.36)" />
    </filter>
  </defs>

  <rect width="960" height="600" fill="url(#bg181)" />
  <rect x="24" y="24" width="912" height="552" rx="20" fill="rgba(255,255,255,0.045)" stroke="rgba(255,255,255,0.22)" />
  <g filter="url(#shadow181)">
    <g transform="translate(207.93 472.27) rotate(-6.23)"><circle cx="0" cy="0" r="17.51" fill="#4ADE80" /><circle cx="7.00" cy="-0.70" r="14.71" fill="#0B1A34" /></g>
    <g transform="translate(293.34 207.31) rotate(23.57)"><polygon points="0.00,-22.09 5.66,-7.80 21.01,-6.83 9.17,2.98 12.98,17.87 0.00,9.64 -12.98,17.87 -9.17,2.98 -21.01,-6.83 -5.66,-7.80" fill="#22D3EE" stroke="rgba(255,255,255,0.55)" stroke-width="1.4" /></g>
    <g transform="translate(281.22 470.30) rotate(-22.29)"><polygon points="0.00,-21.66 5.56,-7.65 20.60,-6.69 8.99,2.92 12.73,17.52 0.00,9.45 -12.73,17.52 -8.99,2.92 -20.60,-6.69 -5.56,-7.65" fill="#34D399" stroke="rgba(255,255,255,0.55)" stroke-width="1.4" /></g>
    <g transform="translate(677.09 136.93) rotate(6.09)"><circle cx="0" cy="0" r="14.98" fill="#34D399" /><circle cx="5.99" cy="-0.60" r="12.58" fill="#0B1A34" /></g>
    <g transform="translate(675.95 525.58) rotate(24.52)"><polygon points="0,-14.65 14.65,0 0,14.65 -14.65,0" fill="#F87171" stroke="rgba(255,255,255,0.55)" stroke-width="1.4" /></g>
    <g transform="translate(47.82 393.21) rotate(12.67)"><rect x="-14.16" y="-4.17" width="28.32" height="8.35" rx="4.17" fill="#22D3EE" /><rect x="-4.17" y="-14.16" width="8.35" height="28.32" rx="4.17" fill="#22D3EE" /></g>
    <g transform="translate(435.69 193.49) rotate(-21.45)"><rect x="-17.78" y="-17.78" width="35.56" height="35.56" rx="3.87" fill="#FBBF24" stroke="rgba(255,255,255,0.55)" stroke-width="1.4" /></g>
    <g transform="translate(598.53 526.27) rotate(2.92)"><polygon points="0.00,-16.86 4.33,-5.95 16.04,-5.21 7.00,2.27 9.91,13.64 0.00,7.36 -9.91,13.64 -7.00,2.27 -16.04,-5.21 -4.33,-5.95" fill="#22D3EE" stroke="rgba(255,255,255,0.55)" stroke-width="1.4" /></g>
    <g transform="translate(446.65 332.31) rotate(16.35)"><rect x="-16.42" y="-4.84" width="32.83" height="9.68" rx="4.84" fill="#A78BFA" /><rect x="-4.84" y="-16.42" width="9.68" height="32.83" rx="4.84" fill="#A78BFA" /></g>
    <g transform="translate(905.24 401.60) rotate(11.66)"><polygon points="0.00,-22.99 5.90,-8.11 21.86,-7.10 9.54,3.10 13.51,18.60 0.00,10.03 -13.51,18.60 -9.54,3.10 -21.86,-7.10 -5.90,-8.11" fill="#FB7185" stroke="rgba(255,255,255,0.55)" stroke-width="1.4" /></g>
    <g transform="translate(824.28 326.38) rotate(-9.38)"><rect x="-13.28" y="-13.28" width="26.55" height="26.55" rx="2.89" fill="#F97316" stroke="rgba(255,255,255,0.55)" stroke-width="1.4" /></g>
    <g transform="translate(58.69 261.86) rotate(2.31)"><circle cx="0" cy="0" r="19.89" fill="#FBBF24" stroke="rgba(255,255,255,0.55)" stroke-width="1.4" /><circle cx="-7.16" cy="-4.77" r="3.18" fill="#1F2937" /><circle cx="7.16" cy="-4.77" r="3.18" fill="#1F2937" /><path d="M -15.11 5.57 Q 0 13.52 15.11 5.57" fill="none" stroke="#1F2937" stroke-width="2.2" stroke-linecap="round" /></g>
    <g transform="translate(524.69 392.56) rotate(15.06)"><polygon points="0.00,-19.16 4.91,-6.76 18.22,-5.92 7.95,2.58 11.26,15.50 0.00,8.36 -11.26,15.50 -7.95,2.58 -18.22,-5.92 -4.91,-6.76" fill="#F97316" stroke="rgba(255,255,255,0.55)" stroke-width="1.4" /></g>
    <g transform="translate(522.49 334.75) rotate(-14.93)"><rect x="-15.86" y="-15.86" width="31.72" height="31.72" rx="3.45" fill="#34D399" stroke="rgba(255,255,255,0.55)" stroke-width="1.4" /></g>
    <g transform="translate(522.35 77.35) rotate(11.22)"><rect x="-18.33" y="-5.40" width="36.66" height="10.81" rx="5.40" fill="#4ADE80" /><rect x="-5.40" y="-18.33" width="10.81" height="36.66" rx="5.40" fill="#4ADE80" /></g>
    <g transform="translate(838.03 465.26) rotate(-21.29)"><circle cx="0" cy="0" r="14.27" fill="#FB7185" stroke="rgba(255,255,255,0.55)" stroke-width="1.4" /></g>
    <g transform="translate(46.02 467.08) rotate(2.22)"><circle cx="0" cy="0" r="15.34" fill="#A78BFA" /><circle cx="6.14" cy="-0.61" r="12.88" fill="#0B1A34" /></g>
    <g transform="translate(745.71 197.22) rotate(27.80)"><rect x="-16.66" y="-4.91" width="33.33" height="9.82" rx="4.91" fill="#22D3EE" /><rect x="-4.91" y="-16.66" width="9.82" height="33.33" rx="4.91" fill="#22D3EE" /></g>
    <g transform="translate(291.38 70.43) rotate(-2.90)"><rect x="-13.50" y="-3.98" width="27.00" height="7.96" rx="3.98" fill="#4ADE80" /><rect x="-3.98" y="-13.50" width="7.96" height="27.00" rx="3.98" fill="#4ADE80" /></g>
    <g transform="translate(600.74 143.12) rotate(5.98)"><polygon points="0,-17.57 17.57,0 0,17.57 -17.57,0" fill="#60A5FA" stroke="rgba(255,255,255,0.55)" stroke-width="1.4" /></g>
  </g>
</svg>
