<svg xmlns="http://www.w3.org/2000/svg" width="960" height="600" viewBox="0 0 960 600">
  <defs>
    <linearGradient id="bg43" x1="0%" y1="0%" x2="100%" y2="100%">
      <stop offset="0%" stop-color="#0F172A" />
      <stop offset="100%" stop-color="#1D4ED8" />
    </linearGradient>
    <filter id="shadow43" x="-20%" y="-20%" width="140%" height="140%">
      <feDropShadow dx="0" dy="2" stdDeviation="1.8" flood-color="rgba(0,0,0,0.36)" />
    </filter>
  </defs>

  <rect width="960" height="600" fill="url(#bg43)" />
  <rect x="24" y="24" width="912" height="552" rx="20" fill="rgba(255,255,255,0.045)" stroke="rgba(255,255,255,0.22)" />
  <g filter="url(#shadow43)">
    <g transform="translate(910.20 63.78) rotate(22.06)"><path d="M 0 15.24 C -19.95 1.81, -21.77 -12.70, -8.71 -2.90 C -0.73 -15.24, 0.73 -15.24, 8.71 -2.90 C 21.77 -12.70, 19.95 1.81, 0 15.24 Z" fill="#60A5FA" stroke="rgba(255,255,255,0.55)" stroke-width="1.2" /></g>
    <g transform="translate(285.27 334.37) rotate(-0.47)"><path d="M 0 17.30 C -22.65 2.06, -24.71 -14.42, -9.89 -3.30 C -0.82 -17.30, 0.82 -17.30, 9.89 -3.30 C 24.71 -14.42, 22.65 2.06, 0 17.30 Z" fill="#C084FC" stroke="rgba(255,255,255,0.55)" stroke-width="1.2" /></g>
    <g transform="translate(440.09 64.04) rotate(12.22)"><rect x="-16.10" y="-16.10" width="32.21" height="32.21" rx="3.50" fill="#F97316" stroke="rgba(255,255,255,0.55)" stroke-width="1.4" /></g>
    <g transform="translate(514.27 273.48) rotate(13.04)"><rect x="-17.48" y="-17.48" width="34.95" height="34.95" rx="3.80" fill="#FB7185" stroke="rgba(255,255,255,0.55)" stroke-width="1.4" /></g>
    <g transform="translate(55.77 65.46) rotate(13.67)"><rect x="-14.43" y="-4.25" width="28.86" height="8.51" rx="4.25" fill="#F87171" /><rect x="-4.25" y="-14.43" width="8.51" height="28.86" rx="4.25" fill="#F87171" /></g>
    <g transform="translate(434.02 259.86) rotate(26.61)"><polygon points="0.00,-16.75 4.30,-5.91 15.93,-5.18 6.95,2.26 9.85,13.55 0.00,7.31 -9.85,13.55 -6.95,2.26 -15.93,-5.18 -4.30,-5.91" fill="#A78BFA" stroke="rgba(255,255,255,0.55)" stroke-width="1.4" /></g>
    <g transform="translate(525.28 128.66) rotate(-1.47)"><rect x="-14.65" y="-4.32" width="29.31" height="8.64" rx="4.32" fill="#FBBF24" /><rect x="-4.32" y="-14.65" width="8.64" height="29.31" rx="4.32" fill="#FBBF24" /></g>
    <g transform="translate(135.31 271.46) rotate(-6.71)"><rect x="-12.88" y="-12.88" width="25.76" height="25.76" rx="2.80" fill="#A78BFA" stroke="rgba(255,255,255,0.55)" stroke-width="1.4" /></g>
    <g transform="translate(280.74 202.76) rotate(24.83)"><circle cx="0" cy="0" r="19.43" fill="#A78BFA" stroke="rgba(255,255,255,0.55)" stroke-width="1.4" /></g>
    <g transform="translate(206.76 262.33) rotate(8.41)"><polygon points="0,-20.52 20.52,0 0,20.52 -20.52,0" fill="#F97316" stroke="rgba(255,255,255,0.55)" stroke-width="1.4" /></g>
    <g transform="translate(370.46 199.22) rotate(10.01)"><polygon points="0,-16.94 16.94,0 0,16.94 -16.94,0" fill="#F87171" stroke="rgba(255,255,255,0.55)" stroke-width="1.4" /></g>
    <g transform="translate(823.09 139.57) rotate(14.83)"><polygon points="0,-15.27 15.27,0 0,15.27 -15.27,0" fill="#C084FC" stroke="rgba(255,255,255,0.55)" stroke-width="1.4" /></g>
    <g transform="translate(833.30 397.61) rotate(3.01)"><rect x="-18.38" y="-18.38" width="36.77" height="36.77" rx="4.00" fill="#34D399" stroke="rgba(255,255,255,0.55)" stroke-width="1.4" /></g>
    <g transform="translate(57.67 331.02) rotate(22.67)"><polygon points="0.00,-22.49 5.77,-7.94 21.39,-6.95 9.33,3.03 13.22,18.19 0.00,9.81 -13.22,18.19 -9.33,3.03 -21.39,-6.95 -5.77,-7.94" fill="#C084FC" stroke="rgba(255,255,255,0.55)" stroke-width="1.4" /></g>
    <g transform="translate(600.09 395.05) rotate(-5.63)"><polygon points="0.00,-19.72 5.06,-6.96 18.75,-6.09 8.18,2.66 11.59,15.95 0.00,8.60 -11.59,15.95 -8.18,2.66 -18.75,-6.09 -5.06,-6.96" fill="#FB7185" stroke="rgba(255,255,255,0.55)" stroke-width="1.4" /></g>
    <g transform="translate(753.47 68.52) rotate(-21.46)"><polygon points="0,-15.14 15.14,0 0,15.14 -15.14,0" fill="#F87171" stroke="rgba(255,255,255,0.55)" stroke-width="1.4" /></g>
    <g transform="translate(829.68 524.81) rotate(7.20)"><path d="M 0 12.85 C -16.82 1.53, -18.35 -10.71, -7.34 -2.45 C -0.61 -12.85, 0.61 -12.85, 7.34 -2.45 C 18.35 -10.71, 16.82 1.53, 0 12.85 Z" fill="#4ADE80" stroke="rgba(255,255,255,0.55)" stroke-width="1.2" /></g>
    <g transform="translate(668.26 468.09) rotate(-6.75)"><polygon points="0,-16.57 16.57,0 0,16.57 -16.57,0" fill="#60A5FA" stroke="rgba(255,255,255,0.55)" stroke-width="1.4" /></g>
  </g>
</svg>
