<svg xmlns="http://www.w3.org/2000/svg" width="960" height="600" viewBox="0 0 960 600">
  <defs>
    <linearGradient id="bg166" x1="0%" y1="0%" x2="100%" y2="100%">
      <stop offset="0%" stop-color="#0F172A" />
      <stop offset="100%" stop-color="#1D4ED8" />
    </linearGradient>
    <filter id="shadow166" x="-20%" y="-20%" width="140%" height="140%">
      <feDropShadow dx="0" dy="2" stdDeviation="1.8" flood-color="rgba(0,0,0,0.36)" />
    </filter>
  </defs>

  <rect width="960" height="600" fill="url(#bg166)" />
  <rect x="24" y="24" width="912" height="552" rx="20" fill="rgba(255,255,255,0.045)" stroke="rgba(255,255,255,0.22)" />
  <g filter="url(#shadow166)">
    <g transform="translate(132.42 460.99) rotate(-6.17)"><circle cx="0" cy="0" r="17.95" fill="#FBBF24" stroke="rgba(255,255,255,0.55)" stroke-width="1.4" /><circle cx="-6.46" cy="-4.31" r="2.87" fill="#1F2937" /><circle cx="6.46" cy="-4.31" r="2.87" fill="#1F2937" /><path d="M -13.64 5.03 Q 0 12.21 13.64 5.03" fill="none" stroke="#1F2937" stroke-width="2.2" stroke-linecap="round" /></g>
    <g transform="translate(756.30 142.14) rotate(4.18)"><circle cx="0" cy="0" r="15.90" fill="#C084FC" stroke="rgba(255,255,255,0.55)" stroke-width="1.4" /><circle cx="-5.72" cy="-3.82" r="2.54" fill="#1F2937" /><circle cx="5.72" cy="-3.82" r="2.54" fill="#1F2937" /><path d="M -12.09 4.45 Q 0 10.81 12.09 4.45" fill="none" stroke="#1F2937" stroke-width="2.2" stroke-linecap="round" /></g>
    <g transform="translate(911.32 202.82) rotate(-23.43)"><polygon points="0.00,-16.94 4.34,-5.98 16.11,-5.23 7.03,2.28 9.95,13.70 0.00,7.39 -9.95,13.70 -7.03,2.28 -16.11,-5.23 -4.34,-5.98" fill="#A78BFA" stroke="rgba(255,255,255,0.55)" stroke-width="1.4" /></g>
    <g transform="translate(50.81 263.29) rotate(10.37)"><polygon points="0.00,-16.54 4.24,-5.84 15.73,-5.11 6.86,2.23 9.72,13.38 0.00,7.22 -9.72,13.38 -6.86,2.23 -15.73,-5.11 -4.24,-5.84" fill="#22D3EE" stroke="rgba(255,255,255,0.55)" stroke-width="1.4" /></g>
    <g transform="translate(824.75 532.44) rotate(5.10)"><circle cx="0" cy="0" r="17.25" fill="#C084FC" stroke="rgba(255,255,255,0.55)" stroke-width="1.4" /><circle cx="-6.21" cy="-4.14" r="2.76" fill="#1F2937" /><circle cx="6.21" cy="-4.14" r="2.76" fill="#1F2937" /><path d="M -13.11 4.83 Q 0 11.73 13.11 4.83" fill="none" stroke="#1F2937" stroke-width="2.2" stroke-linecap="round" /></g>
    <g transform="translate(200.15 337.92) rotate(24.30)"><rect x="-13.59" y="-4.00" width="27.17" height="8.01" rx="4.00" fill="#F87171" /><rect x="-4.00" y="-13.59" width="8.01" height="27.17" rx="4.00" fill="#F87171" /></g>
    <g transform="translate(281.68 537.55) rotate(-22.90)"><polygon points="0.00,-19.33 4.96,-6.83 18.39,-5.97 8.02,2.61 11.36,15.64 0.00,8.44 -11.36,15.64 -8.02,2.61 -18.39,-5.97 -4.96,-6.83" fill="#F87171" stroke="rgba(255,255,255,0.55)" stroke-width="1.4" /></g>
    <g transform="translate(447.71 262.82) rotate(-24.54)"><circle cx="0" cy="0" r="17.44" fill="#FBBF24" stroke="rgba(255,255,255,0.55)" stroke-width="1.4" /></g>
    <g transform="translate(434.21 69.70) rotate(-7.83)"><circle cx="0" cy="0" r="20.47" fill="#F87171" stroke="rgba(255,255,255,0.55)" stroke-width="1.4" /><circle cx="-7.37" cy="-4.91" r="3.27" fill="#1F2937" /><circle cx="7.37" cy="-4.91" r="3.27" fill="#1F2937" /><path d="M -15.55 5.73 Q 0 13.92 15.55 5.73" fill="none" stroke="#1F2937" stroke-width="2.2" stroke-linecap="round" /></g>
    <g transform="translate(835.64 330.22) rotate(-5.17)"><circle cx="0" cy="0" r="18.98" fill="#FBBF24" stroke="rgba(255,255,255,0.55)" stroke-width="1.4" /><circle cx="-6.83" cy="-4.55" r="3.04" fill="#1F2937" /><circle cx="6.83" cy="-4.55" r="3.04" fill="#1F2937" /><path d="M -14.42 5.31 Q 0 12.90 14.42 5.31" fill="none" stroke="#1F2937" stroke-width="2.2" stroke-linecap="round" /></g>
    <g transform="translate(830.00 62.88) rotate(1.08)"><circle cx="0" cy="0" r="20.21" fill="#FB7185" stroke="rgba(255,255,255,0.55)" stroke-width="1.4" /></g>
    <g transform="translate(281.08 471.71) rotate(6.58)"><circle cx="0" cy="0" r="20.33" fill="#F97316" stroke="rgba(255,255,255,0.55)" stroke-width="1.4" /><circle cx="-7.32" cy="-4.88" r="3.25" fill="#1F2937" /><circle cx="7.32" cy="-4.88" r="3.25" fill="#1F2937" /><path d="M -15.45 5.69 Q 0 13.82 15.45 5.69" fill="none" stroke="#1F2937" stroke-width="2.2" stroke-linecap="round" /></g>
    <g transform="translate(524.38 528.10) rotate(-1.35)"><circle cx="0" cy="0" r="14.65" fill="#F87171" /><circle cx="5.86" cy="-0.59" r="12.31" fill="#0B1A34" /></g>
    <g transform="translate(595.90 206.56) rotate(-14.96)"><circle cx="0" cy="0" r="18.69" fill="#60A5FA" stroke="rgba(255,255,255,0.55)" stroke-width="1.4" /></g>
    <g transform="translate(914.50 325.16) rotate(-0.46)"><polygon points="0,-18.90 18.90,0 0,18.90 -18.90,0" fill="#FBBF24" stroke="rgba(255,255,255,0.55)" stroke-width="1.4" /></g>
    <g transform="translate(602.85 465.60) rotate(4.42)"><circle cx="0" cy="0" r="17.05" fill="#C084FC" stroke="rgba(255,255,255,0.55)" stroke-width="1.4" /><circle cx="-6.14" cy="-4.09" r="2.73" fill="#1F2937" /><circle cx="6.14" cy="-4.09" r="2.73" fill="#1F2937" /><path d="M -12.96 4.77 Q 0 11.59 12.96 4.77" fill="none" stroke="#1F2937" stroke-width="2.2" stroke-linecap="round" /></g>
    <g transform="translate(212.87 464.61) rotate(-4.51)"><circle cx="0" cy="0" r="18.84" fill="#FBBF24" stroke="rgba(255,255,255,0.55)" stroke-width="1.4" /><circle cx="-6.78" cy="-4.52" r="3.01" fill="#1F2937" /><circle cx="6.78" cy="-4.52" r="3.01" fill="#1F2937" /><path d="M -14.32 5.27 Q 0 12.81 14.32 5.27" fill="none" stroke="#1F2937" stroke-width="2.2" stroke-linecap="round" /></g>
    <g transform="translate(287.12 402.51) rotate(-11.37)"><polygon points="0.00,-21.13 5.42,-7.46 20.10,-6.53 8.77,2.85 12.42,17.09 0.00,9.22 -12.42,17.09 -8.77,2.85 -20.10,-6.53 -5.42,-7.46" fill="#4ADE80" stroke="rgba(255,255,255,0.55)" stroke-width="1.4" /></g>
    <g transform="translate(287.53 72.60) rotate(-1.61)"><circle cx="0" cy="0" r="14.91" fill="#F87171" stroke="rgba(255,255,255,0.55)" stroke-width="1.4" /><circle cx="-5.37" cy="-3.58" r="2.39" fill="#1F2937" /><circle cx="5.37" cy="-3.58" r="2.39" fill="#1F2937" /><path d="M -11.33 4.18 Q 0 10.14 11.33 4.18" fill="none" stroke="#1F2937" stroke-width="2.2" stroke-linecap="round" /></g>
    <g transform="translate(760.14 527.81) rotate(-5.96)"><circle cx="0" cy="0" r="17.80" fill="#C084FC" stroke="rgba(255,255,255,0.55)" stroke-width="1.4" /></g>
    <g transform="translate(360.65 400.37) rotate(1.76)"><polygon points="0,-16.24 16.24,0 0,16.24 -16.24,0" fill="#60A5FA" stroke="rgba(255,255,255,0.55)" stroke-width="1.4" /></g>
    <g transform="translate(365.24 471.83) rotate(-5.90)"><circle cx="0" cy="0" r="15.60" fill="#22D3EE" /><circle cx="6.24" cy="-0.62" r="13.10" fill="#0B1A34" /></g>
    <g transform="translate(213.72 209.42) rotate(-2.73)"><circle cx="0" cy="0" r="17.14" fill="#F87171" stroke="rgba(255,255,255,0.55)" stroke-width="1.4" /><circle cx="-6.17" cy="-4.11" r="2.74" fill="#1F2937" /><circle cx="6.17" cy="-4.11" r="2.74" fill="#1F2937" /><path d="M -13.02 4.80 Q 0 11.65 13.02 4.80" fill="none" stroke="#1F2937" stroke-width="2.2" stroke-linecap="round" /></g>
    <g transform="translate(446.11 198.71) rotate(4.55)"><circle cx="0" cy="0" r="15.50" fill="#F87171" /><circle cx="6.20" cy="-0.62" r="13.02" fill="#0B1A34" /></g>
    <g transform="translate(364.74 135.66) rotate(2.95)"><circle cx="0" cy="0" r="16.77" fill="#F87171" stroke="rgba(255,255,255,0.55)" stroke-width="1.4" /><circle cx="-6.04" cy="-4.03" r="2.68" fill="#1F2937" /><circle cx="6.04" cy="-4.03" r="2.68" fill="#1F2937" /><path d="M -12.75 4.70 Q 0 11.41 12.75 4.70" fill="none" stroke="#1F2937" stroke-width="2.2" stroke-linecap="round" /></g>
    <g transform="translate(135.42 65.70) rotate(3.35)"><circle cx="0" cy="0" r="20.94" fill="#C084FC" stroke="rgba(255,255,255,0.55)" stroke-width="1.4" /><circle cx="-7.54" cy="-5.03" r="3.35" fill="#1F2937" /><circle cx="7.54" cy="-5.03" r="3.35" fill="#1F2937" /><path d="M -15.91 5.86 Q 0 14.24 15.91 5.86" fill="none" stroke="#1F2937" stroke-width="2.2" stroke-linecap="round" /></g>
    <g transform="translate(915.50 62.97) rotate(-2.00)"><circle cx="0" cy="0" r="16.43" fill="#4ADE80" stroke="rgba(255,255,255,0.55)" stroke-width="1.4" /><circle cx="-5.91" cy="-3.94" r="2.63" fill="#1F2937" /><circle cx="5.91" cy="-3.94" r="2.63" fill="#1F2937" /><path d="M -12.48 4.60 Q 0 11.17 12.48 4.60" fill="none" stroke="#1F2937" stroke-width="2.2" stroke-linecap="round" /></g>
    <g transform="translate(131.16 339.91) rotate(4.74)"><circle cx="0" cy="0" r="16.65" fill="#FB7185" stroke="rgba(255,255,255,0.55)" stroke-width="1.4" /><circle cx="-5.99" cy="-4.00" r="2.66" fill="#1F2937" /><circle cx="5.99" cy="-4.00" r="2.66" fill="#1F2937" /><path d="M -12.65 4.66 Q 0 11.32 12.65 4.66" fill="none" stroke="#1F2937" stroke-width="2.2" stroke-linecap="round" /></g>
    <g transform="translate(44.79 201.86) rotate(2.66)"><circle cx="0" cy="0" r="14.91" fill="#F97316" /><circle cx="5.97" cy="-0.60" r="12.53" fill="#0B1A34" /></g>
    <g transform="translate(903.65 462.40) rotate(5.64)"><circle cx="0" cy="0" r="20.13" fill="#F87171" stroke="rgba(255,255,255,0.55)" stroke-width="1.4" /><circle cx="-7.25" cy="-4.83" r="3.22" fill="#1F2937" /><circle cx="7.25" cy="-4.83" r="3.22" fill="#1F2937" /><path d="M -15.30 5.64 Q 0 13.69 15.30 5.64" fill="none" stroke="#1F2937" stroke-width="2.2" stroke-linecap="round" /></g>
    <g transform="translate(752.73 459.78) rotate(6.58)"><circle cx="0" cy="0" r="20.90" fill="#A78BFA" stroke="rgba(255,255,255,0.55)" stroke-width="1.4" /><circle cx="-7.52" cy="-5.02" r="3.34" fill="#1F2937" /><circle cx="7.52" cy="-5.02" r="3.34" fill="#1F2937" /><path d="M -15.88 5.85 Q 0 14.21 15.88 5.85" fill="none" stroke="#1F2937" stroke-width="2.2" stroke-linecap="round" /></g>
    <g transform="translate(209.04 75.91) rotate(6.77)"><circle cx="0" cy="0" r="17.04" fill="#60A5FA" stroke="rgba(255,255,255,0.55)" stroke-width="1.4" /><circle cx="-6.13" cy="-4.09" r="2.73" fill="#1F2937" /><circle cx="6.13" cy="-4.09" r="2.73" fill="#1F2937" /><path d="M -12.95 4.77 Q 0 11.58 12.95 4.77" fill="none" stroke="#1F2937" stroke-width="2.2" stroke-linecap="round" /></g>
  </g>
</svg>
