<svg xmlns="http://www.w3.org/2000/svg" width="960" height="600" viewBox="0 0 960 600">
  <defs>
    <linearGradient id="bg90" x1="0%" y1="0%" x2="100%" y2="100%">
      <stop offset="0%" stop-color="#0F172A" />
      <stop offset="100%" stop-color="#1D4ED8" />
    </linearGradient>
    <filter id="shadow90" x="-20%" y="-20%" width="140%" height="140%">
      <feDropShadow dx="0" dy="2" stdDeviation="1.8" flood-color="rgba(0,0,0,0.36)" />
    </filter>
  </defs>

  <rect width="960" height="600" fill="url(#bg90)" />
  <rect x="24" y="24" width="912" height="552" rx="20" fill="rgba(255,255,255,0.045)" stroke="rgba(255,255,255,0.22)" />
  <g filter="url(#shadow90)">
    <g transform="translate(365.89 268.14) rotate(1.58)"><circle cx="0" cy="0" r="18.90" fill="#FBBF24" /><circle cx="7.56" cy="-0.76" r="15.88" fill="#0B1A34" /></g>
    <g transform="translate(447.17 64.36) rotate(-4.61)"><circle cx="0" cy="0" r="17.19" fill="#C084FC" /><circle cx="6.87" cy="-0.69" r="14.44" fill="#0B1A34" /></g>
    <g transform="translate(215.41 531.27) rotate(-6.99)"><circle cx="0" cy="0" r="18.16" fill="#A78BFA" stroke="rgba(255,255,255,0.55)" stroke-width="1.4" /><circle cx="-6.54" cy="-4.36" r="2.91" fill="#1F2937" /><circle cx="6.54" cy="-4.36" r="2.91" fill="#1F2937" /><path d="M -13.81 5.09 Q 0 12.35 13.81 5.09" fill="none" stroke="#1F2937" stroke-width="2.2" stroke-linecap="round" /></g>
    <g transform="translate(443.85 403.45) rotate(1.82)"><circle cx="0" cy="0" r="18.34" fill="#60A5FA" /><circle cx="7.34" cy="-0.73" r="15.41" fill="#0B1A34" /></g>
    <g transform="translate(47.29 267.56) rotate(0.65)"><path d="M 0 14.00 C -18.33 1.67, -20.00 -11.66, -8.00 -2.67 C -0.67 -14.00, 0.67 -14.00, 8.00 -2.67 C 20.00 -11.66, 18.33 1.67, 0 14.00 Z" fill="#C084FC" stroke="rgba(255,255,255,0.55)" stroke-width="1.2" /></g>
    <g transform="translate(591.74 394.29) rotate(3.53)"><circle cx="0" cy="0" r="20.91" fill="#F87171" /><circle cx="8.36" cy="-0.84" r="17.57" fill="#0B1A34" /></g>
    <g transform="translate(522.48 401.50) rotate(0.01)"><circle cx="0" cy="0" r="20.06" fill="#FBBF24" /><circle cx="8.02" cy="-0.80" r="16.85" fill="#0B1A34" /></g>
    <g transform="translate(363.25 336.84) rotate(-0.39)"><circle cx="0" cy="0" r="14.80" fill="#60A5FA" stroke="rgba(255,255,255,0.55)" stroke-width="1.4" /><circle cx="-5.33" cy="-3.55" r="2.37" fill="#1F2937" /><circle cx="5.33" cy="-3.55" r="2.37" fill="#1F2937" /><path d="M -11.25 4.14 Q 0 10.06 11.25 4.14" fill="none" stroke="#1F2937" stroke-width="2.2" stroke-linecap="round" /></g>
    <g transform="translate(124.55 464.56) rotate(11.53)"><path d="M 0 13.46 C -17.62 1.60, -19.23 -11.21, -7.69 -2.56 C -0.64 -13.46, 0.64 -13.46, 7.69 -2.56 C 19.23 -11.21, 17.62 1.60, 0 13.46 Z" fill="#FBBF24" stroke="rgba(255,255,255,0.55)" stroke-width="1.2" /></g>
    <g transform="translate(747.02 67.77) rotate(-4.31)"><path d="M 0 11.77 C -15.42 1.40, -16.82 -9.81, -6.73 -2.24 C -0.56 -11.77, 0.56 -11.77, 6.73 -2.24 C 16.82 -9.81, 15.42 1.40, 0 11.77 Z" fill="#FBBF24" stroke="rgba(255,255,255,0.55)" stroke-width="1.2" /></g>
    <g transform="translate(124.45 137.17) rotate(7.34)"><polygon points="-20.50,-7.38 3.28,-7.38 3.28,-15.58 22.55,0.00 3.28,15.58 3.28,7.38 -20.50,7.38" fill="#34D399" stroke="rgba(255,255,255,0.55)" stroke-width="1.2" /></g>
    <g transform="translate(671.40 405.45) rotate(-1.13)"><circle cx="0" cy="0" r="18.26" fill="#F97316" /><circle cx="7.30" cy="-0.73" r="15.33" fill="#0B1A34" /></g>
    <g transform="translate(368.89 522.17) rotate(-5.61)"><circle cx="0" cy="0" r="20.45" fill="#60A5FA" /><circle cx="8.18" cy="-0.82" r="17.18" fill="#0B1A34" /></g>
    <g transform="translate(358.63 395.71) rotate(1.17)"><polygon points="-16.81,-6.05 2.69,-6.05 2.69,-12.77 18.49,0.00 2.69,12.77 2.69,6.05 -16.81,6.05" fill="#60A5FA" stroke="rgba(255,255,255,0.55)" stroke-width="1.2" /></g>
    <g transform="translate(49.11 67.93) rotate(-8.44)"><polygon points="0,-17.17 17.17,0 0,17.17 -17.17,0" fill="#F97316" stroke="rgba(255,255,255,0.55)" stroke-width="1.4" /></g>
    <g transform="translate(283.18 72.22) rotate(21.67)"><polygon points="-20.23,-7.28 3.24,-7.28 3.24,-15.38 22.26,0.00 3.24,15.38 3.24,7.28 -20.23,7.28" fill="#FBBF24" stroke="rgba(255,255,255,0.55)" stroke-width="1.2" /></g>
    <g transform="translate(826.32 193.97) rotate(1.46)"><circle cx="0" cy="0" r="17.25" fill="#FB7185" /><circle cx="6.90" cy="-0.69" r="14.49" fill="#0B1A34" /></g>
    <g transform="translate(902.29 464.42) rotate(15.59)"><polygon points="-17.51,-6.30 2.80,-6.30 2.80,-13.31 19.26,0.00 2.80,13.31 2.80,6.30 -17.51,6.30" fill="#F97316" stroke="rgba(255,255,255,0.55)" stroke-width="1.2" /></g>
    <g transform="translate(517.69 198.26) rotate(-5.96)"><circle cx="0" cy="0" r="14.61" fill="#4ADE80" stroke="rgba(255,255,255,0.55)" stroke-width="1.4" /><circle cx="-5.26" cy="-3.51" r="2.34" fill="#1F2937" /><circle cx="5.26" cy="-3.51" r="2.34" fill="#1F2937" /><path d="M -11.10 4.09 Q 0 9.93 11.10 4.09" fill="none" stroke="#1F2937" stroke-width="2.2" stroke-linecap="round" /></g>
    <g transform="translate(137.74 267.04) rotate(25.86)"><rect x="-19.20" y="-5.66" width="38.41" height="11.32" rx="5.66" fill="#F97316" /><rect x="-5.66" y="-19.20" width="11.32" height="38.41" rx="5.66" fill="#F97316" /></g>
    <g transform="translate(124.33 394.32) rotate(5.71)"><circle cx="0" cy="0" r="14.51" fill="#F97316" /><circle cx="5.81" cy="-0.58" r="12.19" fill="#0B1A34" /></g>
    <g transform="translate(911.94 325.72) rotate(-7.87)"><polygon points="0,-20.44 20.44,0 0,20.44 -20.44,0" fill="#4ADE80" stroke="rgba(255,255,255,0.55)" stroke-width="1.4" /></g>
    <g transform="translate(210.16 62.85) rotate(-3.35)"><circle cx="0" cy="0" r="17.45" fill="#FBBF24" /><circle cx="6.98" cy="-0.70" r="14.66" fill="#0B1A34" /></g>
    <g transform="translate(363.41 139.63) rotate(5.20)"><circle cx="0" cy="0" r="19.19" fill="#F87171" /><circle cx="7.68" cy="-0.77" r="16.12" fill="#0B1A34" /></g>
    <g transform="translate(900.46 64.40) rotate(3.43)"><polygon points="0,-20.93 20.93,0 0,20.93 -20.93,0" fill="#A78BFA" stroke="rgba(255,255,255,0.55)" stroke-width="1.4" /></g>
    <g transform="translate(130.62 528.29) rotate(23.05)"><polygon points="0,-14.77 14.77,0 0,14.77 -14.77,0" fill="#FBBF24" stroke="rgba(255,255,255,0.55)" stroke-width="1.4" /></g>
    <g transform="translate(752.86 130.56) rotate(-27.00)"><path d="M 0 12.29 C -16.09 1.46, -17.56 -10.24, -7.02 -2.34 C -0.59 -12.29, 0.59 -12.29, 7.02 -2.34 C 17.56 -10.24, 16.09 1.46, 0 12.29 Z" fill="#22D3EE" stroke="rgba(255,255,255,0.55)" stroke-width="1.2" /></g>
    <g transform="translate(209.88 193.49) rotate(15.18)"><polygon points="-15.14,-5.45 2.42,-5.45 2.42,-11.51 16.65,0.00 2.42,11.51 2.42,5.45 -15.14,5.45" fill="#C084FC" stroke="rgba(255,255,255,0.55)" stroke-width="1.2" /></g>
    <g transform="translate(132.98 64.07) rotate(-13.21)"><path d="M 0 12.73 C -16.67 1.52, -18.18 -10.61, -7.27 -2.42 C -0.61 -12.73, 0.61 -12.73, 7.27 -2.42 C 18.18 -10.61, 16.67 1.52, 0 12.73 Z" fill="#60A5FA" stroke="rgba(255,255,255,0.55)" stroke-width="1.2" /></g>
    <g transform="translate(45.96 398.91) rotate(2.43)"><rect x="-16.89" y="-4.98" width="33.78" height="9.96" rx="4.98" fill="#22D3EE" /><rect x="-4.98" y="-16.89" width="9.96" height="33.78" rx="4.98" fill="#22D3EE" /></g>
    <g transform="translate(596.00 332.00) rotate(3.33)"><circle cx="0" cy="0" r="19.81" fill="#4ADE80" stroke="rgba(255,255,255,0.55)" stroke-width="1.4" /><circle cx="-7.13" cy="-4.75" r="3.17" fill="#1F2937" /><circle cx="7.13" cy="-4.75" r="3.17" fill="#1F2937" /><path d="M -15.05 5.55 Q 0 13.47 15.05 5.55" fill="none" stroke="#1F2937" stroke-width="2.2" stroke-linecap="round" /></g>
    <g transform="translate(50.45 332.20) rotate(12.09)"><rect x="-18.44" y="-5.44" width="36.88" height="10.87" rx="5.44" fill="#22D3EE" /><rect x="-5.44" y="-18.44" width="10.87" height="36.88" rx="5.44" fill="#22D3EE" /></g>
    <g transform="translate(438.45 525.40) rotate(-3.74)"><path d="M 0 14.28 C -18.70 1.70, -20.40 -11.90, -8.16 -2.72 C -0.68 -14.28, 0.68 -14.28, 8.16 -2.72 C 20.40 -11.90, 18.70 1.70, 0 14.28 Z" fill="#22D3EE" stroke="rgba(255,255,255,0.55)" stroke-width="1.2" /></g>
    <g transform="translate(677.90 461.61) rotate(12.90)"><rect x="-18.25" y="-5.38" width="36.50" height="10.76" rx="5.38" fill="#F87171" /><rect x="-5.38" y="-18.25" width="10.76" height="36.50" rx="5.38" fill="#F87171" /></g>
    <g transform="translate(366.75 458.40) rotate(6.12)"><circle cx="0" cy="0" r="19.98" fill="#FBBF24" /><circle cx="7.99" cy="-0.80" r="16.78" fill="#0B1A34" /></g>
    <g transform="translate(746.88 398.51) rotate(7.87)"><rect x="-13.33" y="-3.93" width="26.66" height="7.86" rx="3.93" fill="#A78BFA" /><rect x="-3.93" y="-13.33" width="7.86" height="26.66" rx="3.93" fill="#A78BFA" /></g>
    <g transform="translate(666.63 62.64) rotate(-7.40)"><circle cx="0" cy="0" r="15.18" fill="#34D399" /><circle cx="6.07" cy="-0.61" r="12.75" fill="#0B1A34" /></g>
    <g transform="translate(446.23 201.99) rotate(-16.36)"><polygon points="0,-16.87 16.87,0 0,16.87 -16.87,0" fill="#FB7185" stroke="rgba(255,255,255,0.55)" stroke-width="1.4" /></g>
  </g>
</svg>
