<svg xmlns="http://www.w3.org/2000/svg" width="960" height="600" viewBox="0 0 960 600">
  <defs>
    <linearGradient id="bg31" x1="0%" y1="0%" x2="100%" y2="100%">
      <stop offset="0%" stop-color="#0F172A" />
      <stop offset="100%" stop-color="#1D4ED8" />
    </linearGradient>
    <filter id="shadow31" x="-20%" y="-20%" width="140%" height="140%">
      <feDropShadow dx="0" dy="2" stdDeviation="1.8" flood-color="rgba(0,0,0,0.36)" />
    </filter>
  </defs>

  <rect width="960" height="600" fill="url(#bg31)" />
  <rect x="24" y="24" width="912" height="552" rx="20" fill="rgba(255,255,255,0.045)" stroke="rgba(255,255,255,0.22)" />
  <g filter="url(#shadow31)">
    <g transform="translate(678.32 64.72) rotate(-26.43)"><polygon points="0.00,-21.86 5.61,-7.72 20.79,-6.76 9.07,2.95 12.85,17.69 0.00,9.54 -12.85,17.69 -9.07,2.95 -20.79,-6.76 -5.61,-7.72" fill="#FBBF24" stroke="rgba(255,255,255,0.55)" stroke-width="1.4" /></g>
    <g transform="translate(830.08 457.71) rotate(-27.17)"><polygon points="0,-22.72 20.37,15.67 -20.37,15.67" fill="#4ADE80" stroke="rgba(255,255,255,0.55)" stroke-width="1.4" /></g>
    <g transform="translate(599.01 75.15) rotate(24.28)"><polygon points="0,-17.19 17.19,0 0,17.19 -17.19,0" fill="#FB7185" stroke="rgba(255,255,255,0.55)" stroke-width="1.4" /></g>
    <g transform="translate(757.72 261.78) rotate(19.59)"><polygon points="0,-19.43 19.43,0 0,19.43 -19.43,0" fill="#4ADE80" stroke="rgba(255,255,255,0.55)" stroke-width="1.4" /></g>
    <g transform="translate(59.13 462.07) rotate(-21.37)"><rect x="-16.09" y="-16.09" width="32.18" height="32.18" rx="3.50" fill="#FB7185" stroke="rgba(255,255,255,0.55)" stroke-width="1.4" /></g>
    <g transform="translate(822.73 337.28) rotate(3.31)"><polygon points="0.00,-22.97 5.89,-8.11 21.85,-7.10 9.53,3.10 13.50,18.59 0.00,10.02 -13.50,18.59 -9.53,3.10 -21.85,-7.10 -5.89,-8.11" fill="#22D3EE" stroke="rgba(255,255,255,0.55)" stroke-width="1.4" /></g>
    <g transform="translate(277.56 465.01) rotate(24.95)"><polygon points="0.00,-17.50 4.49,-6.18 16.64,-5.41 7.26,2.36 10.29,14.16 0.00,7.64 -10.29,14.16 -7.26,2.36 -16.64,-5.41 -4.49,-6.18" fill="#22D3EE" stroke="rgba(255,255,255,0.55)" stroke-width="1.4" /></g>
    <g transform="translate(748.71 401.03) rotate(9.30)"><polygon points="0,-14.46 14.46,0 0,14.46 -14.46,0" fill="#C084FC" stroke="rgba(255,255,255,0.55)" stroke-width="1.4" /></g>
    <g transform="translate(744.64 522.36) rotate(1.44)"><polygon points="0,-21.91 19.65,15.11 -19.65,15.11" fill="#60A5FA" stroke="rgba(255,255,255,0.55)" stroke-width="1.4" /></g>
    <g transform="translate(838.07 197.93) rotate(-19.31)"><rect x="-13.77" y="-13.77" width="27.54" height="27.54" rx="2.99" fill="#60A5FA" stroke="rgba(255,255,255,0.55)" stroke-width="1.4" /></g>
    <g transform="translate(130.91 196.96) rotate(6.35)"><circle cx="0" cy="0" r="20.72" fill="#34D399" stroke="rgba(255,255,255,0.55)" stroke-width="1.4" /><circle cx="-7.46" cy="-4.97" r="3.32" fill="#1F2937" /><circle cx="7.46" cy="-4.97" r="3.32" fill="#1F2937" /><path d="M -15.75 5.80 Q 0 14.09 15.75 5.80" fill="none" stroke="#1F2937" stroke-width="2.2" stroke-linecap="round" /></g>
    <g transform="translate(282.86 198.89) rotate(2.77)"><polygon points="0,-15.30 15.30,0 0,15.30 -15.30,0" fill="#60A5FA" stroke="rgba(255,255,255,0.55)" stroke-width="1.4" /></g>
    <g transform="translate(601.75 464.47) rotate(-1.49)"><polygon points="0.00,-17.88 4.59,-6.31 17.00,-5.52 7.42,2.41 10.51,14.46 0.00,7.80 -10.51,14.46 -7.42,2.41 -17.00,-5.52 -4.59,-6.31" fill="#4ADE80" stroke="rgba(255,255,255,0.55)" stroke-width="1.4" /></g>
    <g transform="translate(907.11 326.86) rotate(-23.20)"><path d="M 0 14.68 C -19.22 1.75, -20.97 -12.23, -8.39 -2.80 C -0.70 -14.68, 0.70 -14.68, 8.39 -2.80 C 20.97 -12.23, 19.22 1.75, 0 14.68 Z" fill="#F87171" stroke="rgba(255,255,255,0.55)" stroke-width="1.2" /></g>
    <g transform="translate(753.77 334.36) rotate(15.09)"><polygon points="0,-15.47 15.47,0 0,15.47 -15.47,0" fill="#22D3EE" stroke="rgba(255,255,255,0.55)" stroke-width="1.4" /></g>
    <g transform="translate(754.82 197.00) rotate(23.17)"><polygon points="0.00,-16.10 4.13,-5.68 15.31,-4.98 6.68,2.17 9.46,13.03 0.00,7.03 -9.46,13.03 -6.68,2.17 -15.31,-4.98 -4.13,-5.68" fill="#60A5FA" stroke="rgba(255,255,255,0.55)" stroke-width="1.4" /></g>
    <g transform="translate(514.62 200.35) rotate(5.19)"><circle cx="0" cy="0" r="17.28" fill="#60A5FA" stroke="rgba(255,255,255,0.55)" stroke-width="1.4" /><circle cx="-6.22" cy="-4.15" r="2.76" fill="#1F2937" /><circle cx="6.22" cy="-4.15" r="2.76" fill="#1F2937" /><path d="M -13.13 4.84 Q 0 11.75 13.13 4.84" fill="none" stroke="#1F2937" stroke-width="2.2" stroke-linecap="round" /></g>
    <g transform="translate(911.03 142.13) rotate(21.85)"><polygon points="0,-18.81 18.81,0 0,18.81 -18.81,0" fill="#FBBF24" stroke="rgba(255,255,255,0.55)" stroke-width="1.4" /></g>
    <g transform="translate(448.28 403.52) rotate(-2.60)"><rect x="-15.27" y="-15.27" width="30.53" height="30.53" rx="3.32" fill="#C084FC" stroke="rgba(255,255,255,0.55)" stroke-width="1.4" /></g>
    <g transform="translate(668.34 398.75) rotate(-1.81)"><rect x="-15.37" y="-15.37" width="30.74" height="30.74" rx="3.34" fill="#4ADE80" stroke="rgba(255,255,255,0.55)" stroke-width="1.4" /></g>
    <g transform="translate(914.07 467.03) rotate(-13.76)"><polygon points="0.00,-21.04 5.40,-7.43 20.01,-6.50 8.73,2.84 12.37,17.02 0.00,9.18 -12.37,17.02 -8.73,2.84 -20.01,-6.50 -5.40,-7.43" fill="#F97316" stroke="rgba(255,255,255,0.55)" stroke-width="1.4" /></g>
    <g transform="translate(201.67 265.14) rotate(-25.77)"><path d="M 0 12.51 C -16.38 1.49, -17.87 -10.42, -7.15 -2.38 C -0.60 -12.51, 0.60 -12.51, 7.15 -2.38 C 17.87 -10.42, 16.38 1.49, 0 12.51 Z" fill="#22D3EE" stroke="rgba(255,255,255,0.55)" stroke-width="1.2" /></g>
  </g>
</svg>
