<svg xmlns="http://www.w3.org/2000/svg" width="960" height="600" viewBox="0 0 960 600">
  <defs>
    <linearGradient id="bg74" x1="0%" y1="0%" x2="100%" y2="100%">
      <stop offset="0%" stop-color="#0F172A" />
      <stop offset="100%" stop-color="#1D4ED8" />
    </linearGradient>
    <filter id="shadow74" x="-20%" y="-20%" width="140%" height="140%">
      <feDropShadow dx="0" dy="2" stdDeviation="1.8" flood-color="rgba(0,0,0,0.36)" />
    </filter>
  </defs>

  <rect width="960" height="600" fill="url(#bg74)" />
  <rect x="24" y="24" width="912" height="552" rx="20" fill="rgba(255,255,255,0.045)" stroke="rgba(255,255,255,0.22)" />
  <g filter="url(#shadow74)">
    <g transform="translate(134.14 272.89) rotate(-26.00)"><rect x="-16.80" y="-16.80" width="33.60" height="33.60" rx="3.65" fill="#F87171" stroke="rgba(255,255,255,0.55)" stroke-width="1.4" /></g>
    <g transform="translate(516.14 262.37) rotate(-11.64)"><polygon points="0.00,-18.54 4.75,-6.54 17.63,-5.73 7.69,2.50 10.90,15.00 0.00,8.09 -10.90,15.00 -7.69,2.50 -17.63,-5.73 -4.75,-6.54" fill="#C084FC" stroke="rgba(255,255,255,0.55)" stroke-width="1.4" /></g>
    <g transform="translate(750.94 335.43) rotate(-4.46)"><rect x="-17.74" y="-17.74" width="35.49" height="35.49" rx="3.86" fill="#4ADE80" stroke="rgba(255,255,255,0.55)" stroke-width="1.4" /></g>
    <g transform="translate(830.52 526.81) rotate(-18.62)"><circle cx="0" cy="0" r="19.75" fill="#FBBF24" stroke="rgba(255,255,255,0.55)" stroke-width="1.4" /></g>
    <g transform="translate(279.78 194.64) rotate(-26.81)"><polygon points="0.00,-21.99 5.64,-7.76 20.92,-6.80 9.13,2.97 12.93,17.79 0.00,9.60 -12.93,17.79 -9.13,2.97 -20.92,-6.80 -5.64,-7.76" fill="#A78BFA" stroke="rgba(255,255,255,0.55)" stroke-width="1.4" /></g>
    <g transform="translate(48.26 195.82) rotate(25.93)"><rect x="-16.45" y="-16.45" width="32.91" height="32.91" rx="3.58" fill="#FBBF24" stroke="rgba(255,255,255,0.55)" stroke-width="1.4" /></g>
    <g transform="translate(913.31 202.98) rotate(22.51)"><polygon points="0.00,-23.06 5.92,-8.14 21.93,-7.13 9.57,3.11 13.56,18.66 0.00,10.06 -13.56,18.66 -9.57,3.11 -21.93,-7.13 -5.92,-8.14" fill="#F87171" stroke="rgba(255,255,255,0.55)" stroke-width="1.4" /></g>
    <g transform="translate(596.10 472.01) rotate(6.00)"><circle cx="0" cy="0" r="17.02" fill="#F87171" stroke="rgba(255,255,255,0.55)" stroke-width="1.4" /></g>
    <g transform="translate(908.52 271.21) rotate(-16.26)"><circle cx="0" cy="0" r="16.78" fill="#F97316" stroke="rgba(255,255,255,0.55)" stroke-width="1.4" /></g>
    <g transform="translate(445.12 527.17) rotate(20.76)"><circle cx="0" cy="0" r="16.65" fill="#C084FC" stroke="rgba(255,255,255,0.55)" stroke-width="1.4" /></g>
    <g transform="translate(904.11 130.76) rotate(-10.87)"><circle cx="0" cy="0" r="18.96" fill="#FB7185" stroke="rgba(255,255,255,0.55)" stroke-width="1.4" /></g>
    <g transform="translate(208.42 201.16) rotate(11.98)"><rect x="-17.42" y="-17.42" width="34.84" height="34.84" rx="3.79" fill="#4ADE80" stroke="rgba(255,255,255,0.55)" stroke-width="1.4" /></g>
    <g transform="translate(438.63 129.52) rotate(18.24)"><circle cx="0" cy="0" r="15.01" fill="#F87171" stroke="rgba(255,255,255,0.55)" stroke-width="1.4" /></g>
    <g transform="translate(124.85 134.03) rotate(3.36)"><circle cx="0" cy="0" r="19.28" fill="#F87171" stroke="rgba(255,255,255,0.55)" stroke-width="1.4" /><circle cx="-6.94" cy="-4.63" r="3.09" fill="#1F2937" /><circle cx="6.94" cy="-4.63" r="3.09" fill="#1F2937" /><path d="M -14.66 5.40 Q 0 13.11 14.66 5.40" fill="none" stroke="#1F2937" stroke-width="2.2" stroke-linecap="round" /></g>
    <g transform="translate(914.74 327.59) rotate(8.82)"><rect x="-19.23" y="-19.23" width="38.46" height="38.46" rx="4.18" fill="#F97316" stroke="rgba(255,255,255,0.55)" stroke-width="1.4" /></g>
    <g transform="translate(367.76 327.21) rotate(26.03)"><polygon points="0.00,-20.38 5.23,-7.19 19.38,-6.30 8.46,2.75 11.98,16.48 0.00,8.89 -11.98,16.48 -8.46,2.75 -19.38,-6.30 -5.23,-7.19" fill="#34D399" stroke="rgba(255,255,255,0.55)" stroke-width="1.4" /></g>
    <g transform="translate(361.45 398.00) rotate(3.64)"><circle cx="0" cy="0" r="17.38" fill="#4ADE80" stroke="rgba(255,255,255,0.55)" stroke-width="1.4" /><circle cx="-6.26" cy="-4.17" r="2.78" fill="#1F2937" /><circle cx="6.26" cy="-4.17" r="2.78" fill="#1F2937" /><path d="M -13.21 4.87 Q 0 11.82 13.21 4.87" fill="none" stroke="#1F2937" stroke-width="2.2" stroke-linecap="round" /></g>
    <g transform="translate(666.61 456.37) rotate(-22.34)"><rect x="-13.18" y="-13.18" width="26.37" height="26.37" rx="2.87" fill="#FB7185" stroke="rgba(255,255,255,0.55)" stroke-width="1.4" /></g>
    <g transform="translate(758.13 523.55) rotate(23.71)"><circle cx="0" cy="0" r="14.61" fill="#34D399" stroke="rgba(255,255,255,0.55)" stroke-width="1.4" /></g>
    <g transform="translate(681.62 136.00) rotate(9.82)"><rect x="-15.70" y="-15.70" width="31.39" height="31.39" rx="3.41" fill="#60A5FA" stroke="rgba(255,255,255,0.55)" stroke-width="1.4" /></g>
    <g transform="translate(837.50 202.60) rotate(-4.59)"><circle cx="0" cy="0" r="15.35" fill="#FB7185" /><circle cx="6.14" cy="-0.61" r="12.89" fill="#0B1A34" /></g>
  </g>
</svg>
