<svg xmlns="http://www.w3.org/2000/svg" width="960" height="600" viewBox="0 0 960 600">
  <defs>
    <linearGradient id="bg185" x1="0%" y1="0%" x2="100%" y2="100%">
      <stop offset="0%" stop-color="#0F172A" />
      <stop offset="100%" stop-color="#1D4ED8" />
    </linearGradient>
    <filter id="shadow185" x="-20%" y="-20%" width="140%" height="140%">
      <feDropShadow dx="0" dy="2" stdDeviation="1.8" flood-color="rgba(0,0,0,0.36)" />
    </filter>
  </defs>

  <rect width="960" height="600" fill="url(#bg185)" />
  <rect x="24" y="24" width="912" height="552" rx="20" fill="rgba(255,255,255,0.045)" stroke="rgba(255,255,255,0.22)" />
  <g filter="url(#shadow185)">
    <g transform="translate(910.10 71.04) rotate(18.34)"><polygon points="-19.23,-6.92 3.08,-6.92 3.08,-14.61 21.15,0.00 3.08,14.61 3.08,6.92 -19.23,6.92" fill="#F87171" stroke="rgba(255,255,255,0.55)" stroke-width="1.2" /></g>
    <g transform="translate(822.85 536.45) rotate(27.45)"><path d="M 0 13.33 C -17.46 1.59, -19.04 -11.11, -7.62 -2.54 C -0.63 -13.33, 0.63 -13.33, 7.62 -2.54 C 19.04 -11.11, 17.46 1.59, 0 13.33 Z" fill="#A78BFA" stroke="rgba(255,255,255,0.55)" stroke-width="1.2" /></g>
    <g transform="translate(205.55 528.24) rotate(1.51)"><polygon points="0,-21.85 19.59,15.07 -19.59,15.07" fill="#F87171" stroke="rgba(255,255,255,0.55)" stroke-width="1.4" /></g>
    <g transform="translate(744.81 523.84) rotate(6.92)"><circle cx="0" cy="0" r="15.11" fill="#34D399" stroke="rgba(255,255,255,0.55)" stroke-width="1.4" /><circle cx="-5.44" cy="-3.63" r="2.42" fill="#1F2937" /><circle cx="5.44" cy="-3.63" r="2.42" fill="#1F2937" /><path d="M -11.49 4.23 Q 0 10.28 11.49 4.23" fill="none" stroke="#1F2937" stroke-width="2.2" stroke-linecap="round" /></g>
    <g transform="translate(126.68 130.30) rotate(-11.35)"><polygon points="0,-17.20 15.42,11.86 -15.42,11.86" fill="#34D399" stroke="rgba(255,255,255,0.55)" stroke-width="1.4" /></g>
    <g transform="translate(278.59 268.86) rotate(27.16)"><path d="M 0 14.10 C -18.47 1.68, -20.14 -11.75, -8.06 -2.69 C -0.67 -14.10, 0.67 -14.10, 8.06 -2.69 C 20.14 -11.75, 18.47 1.68, 0 14.10 Z" fill="#F97316" stroke="rgba(255,255,255,0.55)" stroke-width="1.2" /></g>
    <g transform="translate(604.04 398.53) rotate(26.89)"><polygon points="0,-19.16 17.17,13.21 -17.17,13.21" fill="#4ADE80" stroke="rgba(255,255,255,0.55)" stroke-width="1.4" /></g>
    <g transform="translate(436.36 262.28) rotate(-4.43)"><polygon points="0,-19.35 17.35,13.34 -17.35,13.34" fill="#C084FC" stroke="rgba(255,255,255,0.55)" stroke-width="1.4" /></g>
    <g transform="translate(133.44 327.31) rotate(-23.18)"><polygon points="-17.87,-6.43 2.86,-6.43 2.86,-13.58 19.66,0.00 2.86,13.58 2.86,6.43 -17.87,6.43" fill="#F97316" stroke="rgba(255,255,255,0.55)" stroke-width="1.2" /></g>
    <g transform="translate(201.88 268.31) rotate(3.85)"><path d="M 0 12.26 C -16.06 1.46, -17.52 -10.22, -7.01 -2.34 C -0.58 -12.26, 0.58 -12.26, 7.01 -2.34 C 17.52 -10.22, 16.06 1.46, 0 12.26 Z" fill="#FBBF24" stroke="rgba(255,255,255,0.55)" stroke-width="1.2" /></g>
    <g transform="translate(54.82 133.26) rotate(24.92)"><polygon points="0,-17.01 17.01,0 0,17.01 -17.01,0" fill="#F97316" stroke="rgba(255,255,255,0.55)" stroke-width="1.4" /></g>
    <g transform="translate(290.72 331.68) rotate(-24.94)"><polygon points="0,-16.36 14.67,11.29 -14.67,11.29" fill="#22D3EE" stroke="rgba(255,255,255,0.55)" stroke-width="1.4" /></g>
    <g transform="translate(292.17 133.16) rotate(27.82)"><polygon points="0,-17.04 15.28,11.75 -15.28,11.75" fill="#FB7185" stroke="rgba(255,255,255,0.55)" stroke-width="1.4" /></g>
    <g transform="translate(201.82 392.95) rotate(-26.95)"><polygon points="-16.20,-5.83 2.59,-5.83 2.59,-12.31 17.82,0.00 2.59,12.31 2.59,5.83 -16.20,5.83" fill="#FB7185" stroke="rgba(255,255,255,0.55)" stroke-width="1.2" /></g>
    <g transform="translate(58.83 532.47) rotate(-3.56)"><circle cx="0" cy="0" r="20.77" fill="#A78BFA" stroke="rgba(255,255,255,0.55)" stroke-width="1.4" /><circle cx="-7.48" cy="-4.98" r="3.32" fill="#1F2937" /><circle cx="7.48" cy="-4.98" r="3.32" fill="#1F2937" /><path d="M -15.78 5.82 Q 0 14.12 15.78 5.82" fill="none" stroke="#1F2937" stroke-width="2.2" stroke-linecap="round" /></g>
    <g transform="translate(673.30 67.45) rotate(-17.02)"><polygon points="0,-23.20 20.80,16.00 -20.80,16.00" fill="#C084FC" stroke="rgba(255,255,255,0.55)" stroke-width="1.4" /></g>
    <g transform="translate(589.76 335.50) rotate(15.37)"><path d="M 0 17.19 C -22.52 2.05, -24.56 -14.33, -9.83 -3.28 C -0.82 -17.19, 0.82 -17.19, 9.83 -3.28 C 24.56 -14.33, 22.52 2.05, 0 17.19 Z" fill="#60A5FA" stroke="rgba(255,255,255,0.55)" stroke-width="1.2" /></g>
    <g transform="translate(136.56 269.85) rotate(-8.24)"><polygon points="0,-16.65 16.65,0 0,16.65 -16.65,0" fill="#34D399" stroke="rgba(255,255,255,0.55)" stroke-width="1.4" /></g>
  </g>
</svg>
