<svg xmlns="http://www.w3.org/2000/svg" width="960" height="600" viewBox="0 0 960 600">
  <defs>
    <linearGradient id="bg61" x1="0%" y1="0%" x2="100%" y2="100%">
      <stop offset="0%" stop-color="#0F172A" />
      <stop offset="100%" stop-color="#1D4ED8" />
    </linearGradient>
    <filter id="shadow61" x="-20%" y="-20%" width="140%" height="140%">
      <feDropShadow dx="0" dy="2" stdDeviation="1.8" flood-color="rgba(0,0,0,0.36)" />
    </filter>
  </defs>

  <rect width="960" height="600" fill="url(#bg61)" />
  <rect x="24" y="24" width="912" height="552" rx="20" fill="rgba(255,255,255,0.045)" stroke="rgba(255,255,255,0.22)" />
  <g filter="url(#shadow61)">
    <g transform="translate(679.57 72.27) rotate(-26.73)"><path d="M 0 14.54 C -19.04 1.73, -20.77 -12.12, -8.31 -2.77 C -0.69 -14.54, 0.69 -14.54, 8.31 -2.77 C 20.77 -12.12, 19.04 1.73, 0 14.54 Z" fill="#C084FC" stroke="rgba(255,255,255,0.55)" stroke-width="1.2" /></g>
    <g transform="translate(830.84 393.55) rotate(21.79)"><circle cx="0" cy="0" r="15.00" fill="#FB7185" stroke="rgba(255,255,255,0.55)" stroke-width="1.4" /></g>
    <g transform="translate(596.08 327.31) rotate(-2.23)"><polygon points="0.00,-16.58 4.25,-5.85 15.76,-5.12 6.88,2.24 9.74,13.41 0.00,7.23 -9.74,13.41 -6.88,2.24 -15.76,-5.12 -4.25,-5.85" fill="#60A5FA" stroke="rgba(255,255,255,0.55)" stroke-width="1.4" /></g>
    <g transform="translate(446.57 195.62) rotate(-20.79)"><polygon points="-17.18,-6.18 2.75,-6.18 2.75,-13.05 18.89,0.00 2.75,13.05 2.75,6.18 -17.18,6.18" fill="#C084FC" stroke="rgba(255,255,255,0.55)" stroke-width="1.2" /></g>
    <g transform="translate(129.00 528.41) rotate(-16.05)"><polygon points="0.00,-17.50 4.49,-6.18 16.64,-5.41 7.26,2.36 10.29,14.16 0.00,7.64 -10.29,14.16 -7.26,2.36 -16.64,-5.41 -4.49,-6.18" fill="#C084FC" stroke="rgba(255,255,255,0.55)" stroke-width="1.4" /></g>
    <g transform="translate(908.18 199.37) rotate(25.26)"><path d="M 0 17.25 C -22.59 2.05, -24.64 -14.37, -9.86 -3.29 C -0.82 -17.25, 0.82 -17.25, 9.86 -3.29 C 24.64 -14.37, 22.59 2.05, 0 17.25 Z" fill="#60A5FA" stroke="rgba(255,255,255,0.55)" stroke-width="1.2" /></g>
    <g transform="translate(203.27 533.19) rotate(-18.71)"><polygon points="0.00,-22.81 5.85,-8.05 21.69,-7.05 9.46,3.08 13.41,18.45 0.00,9.95 -13.41,18.45 -9.46,3.08 -21.69,-7.05 -5.85,-8.05" fill="#F87171" stroke="rgba(255,255,255,0.55)" stroke-width="1.4" /></g>
    <g transform="translate(210.41 265.82) rotate(13.11)"><circle cx="0" cy="0" r="19.56" fill="#F87171" stroke="rgba(255,255,255,0.55)" stroke-width="1.4" /></g>
    <g transform="translate(445.80 399.73) rotate(24.10)"><path d="M 0 15.44 C -20.22 1.84, -22.06 -12.87, -8.82 -2.94 C -0.74 -15.44, 0.74 -15.44, 8.82 -2.94 C 22.06 -12.87, 20.22 1.84, 0 15.44 Z" fill="#34D399" stroke="rgba(255,255,255,0.55)" stroke-width="1.2" /></g>
    <g transform="translate(680.75 465.98) rotate(-13.88)"><polygon points="-17.31,-6.23 2.77,-6.23 2.77,-13.16 19.05,0.00 2.77,13.16 2.77,6.23 -17.31,6.23" fill="#A78BFA" stroke="rgba(255,255,255,0.55)" stroke-width="1.2" /></g>
    <g transform="translate(599.61 267.87) rotate(3.77)"><polygon points="0.00,-16.08 4.12,-5.68 15.29,-4.97 6.67,2.17 9.45,13.01 0.00,7.02 -9.45,13.01 -6.67,2.17 -15.29,-4.97 -4.12,-5.68" fill="#FB7185" stroke="rgba(255,255,255,0.55)" stroke-width="1.4" /></g>
    <g transform="translate(130.44 274.61) rotate(-1.65)"><path d="M 0 13.46 C -17.62 1.60, -19.22 -11.21, -7.69 -2.56 C -0.64 -13.46, 0.64 -13.46, 7.69 -2.56 C 19.22 -11.21, 17.62 1.60, 0 13.46 Z" fill="#22D3EE" stroke="rgba(255,255,255,0.55)" stroke-width="1.2" /></g>
    <g transform="translate(439.35 534.65) rotate(0.98)"><polygon points="-18.06,-6.50 2.89,-6.50 2.89,-13.72 19.86,0.00 2.89,13.72 2.89,6.50 -18.06,6.50" fill="#F97316" stroke="rgba(255,255,255,0.55)" stroke-width="1.2" /></g>
    <g transform="translate(48.76 76.33) rotate(-10.13)"><path d="M 0 12.80 C -16.76 1.52, -18.28 -10.66, -7.31 -2.44 C -0.61 -12.80, 0.61 -12.80, 7.31 -2.44 C 18.28 -10.66, 16.76 1.52, 0 12.80 Z" fill="#34D399" stroke="rgba(255,255,255,0.55)" stroke-width="1.2" /></g>
    <g transform="translate(356.36 330.36) rotate(-8.63)"><circle cx="0" cy="0" r="18.74" fill="#22D3EE" stroke="rgba(255,255,255,0.55)" stroke-width="1.4" /></g>
    <g transform="translate(598.08 391.87) rotate(-16.89)"><polygon points="-15.74,-5.67 2.52,-5.67 2.52,-11.96 17.32,0.00 2.52,11.96 2.52,5.67 -15.74,5.67" fill="#22D3EE" stroke="rgba(255,255,255,0.55)" stroke-width="1.2" /></g>
    <g transform="translate(837.58 131.67) rotate(-6.07)"><path d="M 0 14.84 C -19.43 1.77, -21.19 -12.36, -8.48 -2.83 C -0.71 -14.84, 0.71 -14.84, 8.48 -2.83 C 21.19 -12.36, 19.43 1.77, 0 14.84 Z" fill="#F97316" stroke="rgba(255,255,255,0.55)" stroke-width="1.2" /></g>
    <g transform="translate(291.97 77.62) rotate(-13.77)"><polygon points="0.00,-18.96 4.86,-6.69 18.03,-5.86 7.87,2.56 11.15,15.34 0.00,8.27 -11.15,15.34 -7.87,2.56 -18.03,-5.86 -4.86,-6.69" fill="#22D3EE" stroke="rgba(255,255,255,0.55)" stroke-width="1.4" /></g>
    <g transform="translate(519.62 130.86) rotate(13.65)"><polygon points="0.00,-16.94 4.35,-5.98 16.11,-5.24 7.03,2.28 9.96,13.71 0.00,7.39 -9.96,13.71 -7.03,2.28 -16.11,-5.24 -4.35,-5.98" fill="#60A5FA" stroke="rgba(255,255,255,0.55)" stroke-width="1.4" /></g>
    <g transform="translate(595.68 202.45) rotate(-17.26)"><polygon points="0.00,-19.31 4.95,-6.82 18.37,-5.97 8.01,2.60 11.35,15.62 0.00,8.43 -11.35,15.62 -8.01,2.60 -18.37,-5.97 -4.95,-6.82" fill="#60A5FA" stroke="rgba(255,255,255,0.55)" stroke-width="1.4" /></g>
    <g transform="translate(290.97 139.81) rotate(12.84)"><path d="M 0 15.96 C -20.89 1.90, -22.79 -13.30, -9.12 -3.04 C -0.76 -15.96, 0.76 -15.96, 9.12 -3.04 C 22.79 -13.30, 20.89 1.90, 0 15.96 Z" fill="#F87171" stroke="rgba(255,255,255,0.55)" stroke-width="1.2" /></g>
  </g>
</svg>
