<svg xmlns="http://www.w3.org/2000/svg" width="960" height="600" viewBox="0 0 960 600">
  <defs>
    <linearGradient id="bg143" x1="0%" y1="0%" x2="100%" y2="100%">
      <stop offset="0%" stop-color="#0F172A" />
      <stop offset="100%" stop-color="#1D4ED8" />
    </linearGradient>
    <filter id="shadow143" x="-20%" y="-20%" width="140%" height="140%">
      <feDropShadow dx="0" dy="2" stdDeviation="1.8" flood-color="rgba(0,0,0,0.36)" />
    </filter>
  </defs>

  <rect width="960" height="600" fill="url(#bg143)" />
  <rect x="24" y="24" width="912" height="552" rx="20" fill="rgba(255,255,255,0.045)" stroke="rgba(255,255,255,0.22)" />
  <g filter="url(#shadow143)">
    <g transform="translate(666.65 463.87) rotate(-12.26)"><rect x="-19.05" y="-19.05" width="38.09" height="38.09" rx="4.14" fill="#C084FC" stroke="rgba(255,255,255,0.55)" stroke-width="1.4" /></g>
    <g transform="translate(137.05 204.67) rotate(-0.60)"><polygon points="0.00,-22.18 5.69,-7.83 21.09,-6.85 9.20,2.99 13.04,17.94 0.00,9.68 -13.04,17.94 -9.20,2.99 -21.09,-6.85 -5.69,-7.83" fill="#FBBF24" stroke="rgba(255,255,255,0.55)" stroke-width="1.4" /></g>
    <g transform="translate(369.08 136.91) rotate(2.07)"><circle cx="0" cy="0" r="18.70" fill="#C084FC" /><circle cx="7.48" cy="-0.75" r="15.70" fill="#0B1A34" /></g>
    <g transform="translate(915.67 522.23) rotate(0.33)"><polygon points="0.00,-21.30 5.46,-7.52 20.26,-6.58 8.84,2.87 12.52,17.23 0.00,9.29 -12.52,17.23 -8.84,2.87 -20.26,-6.58 -5.46,-7.52" fill="#F97316" stroke="rgba(255,255,255,0.55)" stroke-width="1.4" /></g>
    <g transform="translate(674.74 533.29) rotate(-16.67)"><rect x="-18.40" y="-18.40" width="36.80" height="36.80" rx="4.00" fill="#C084FC" stroke="rgba(255,255,255,0.55)" stroke-width="1.4" /></g>
    <g transform="translate(281.56 195.38) rotate(-21.63)"><polygon points="0.00,-22.48 5.77,-7.94 21.38,-6.95 9.33,3.03 13.21,18.19 0.00,9.81 -13.21,18.19 -9.33,3.03 -21.38,-6.95 -5.77,-7.94" fill="#22D3EE" stroke="rgba(255,255,255,0.55)" stroke-width="1.4" /></g>
    <g transform="translate(122.93 267.06) rotate(7.94)"><circle cx="0" cy="0" r="18.79" fill="#4ADE80" /><circle cx="7.51" cy="-0.75" r="15.78" fill="#0B1A34" /></g>
    <g transform="translate(437.27 400.63) rotate(22.28)"><rect x="-13.00" y="-13.00" width="26.01" height="26.01" rx="2.83" fill="#FBBF24" stroke="rgba(255,255,255,0.55)" stroke-width="1.4" /></g>
    <g transform="translate(136.71 140.68) rotate(-10.15)"><rect x="-16.22" y="-16.22" width="32.44" height="32.44" rx="3.53" fill="#C084FC" stroke="rgba(255,255,255,0.55)" stroke-width="1.4" /></g>
    <g transform="translate(207.46 198.62) rotate(4.84)"><circle cx="0" cy="0" r="16.13" fill="#4ADE80" /><circle cx="6.45" cy="-0.65" r="13.55" fill="#0B1A34" /></g>
    <g transform="translate(289.72 532.06) rotate(7.33)"><polygon points="0.00,-22.78 5.84,-8.04 21.67,-7.04 9.45,3.07 13.39,18.43 0.00,9.94 -13.39,18.43 -9.45,3.07 -21.67,-7.04 -5.84,-8.04" fill="#34D399" stroke="rgba(255,255,255,0.55)" stroke-width="1.4" /></g>
    <g transform="translate(288.81 461.05) rotate(0.65)"><circle cx="0" cy="0" r="14.39" fill="#FB7185" /><circle cx="5.76" cy="-0.58" r="12.09" fill="#0B1A34" /></g>
    <g transform="translate(199.80 265.01) rotate(-14.26)"><rect x="-17.07" y="-17.07" width="34.15" height="34.15" rx="3.71" fill="#FB7185" stroke="rgba(255,255,255,0.55)" stroke-width="1.4" /></g>
    <g transform="translate(202.62 405.49) rotate(7.16)"><circle cx="0" cy="0" r="15.60" fill="#F87171" stroke="rgba(255,255,255,0.55)" stroke-width="1.4" /><circle cx="-5.62" cy="-3.74" r="2.50" fill="#1F2937" /><circle cx="5.62" cy="-3.74" r="2.50" fill="#1F2937" /><path d="M -11.86 4.37 Q 0 10.61 11.86 4.37" fill="none" stroke="#1F2937" stroke-width="2.2" stroke-linecap="round" /></g>
    <g transform="translate(442.14 130.35) rotate(26.30)"><rect x="-19.08" y="-19.08" width="38.16" height="38.16" rx="4.15" fill="#FBBF24" stroke="rgba(255,255,255,0.55)" stroke-width="1.4" /></g>
    <g transform="translate(753.46 77.99) rotate(7.64)"><rect x="-14.98" y="-14.98" width="29.97" height="29.97" rx="3.26" fill="#F87171" stroke="rgba(255,255,255,0.55)" stroke-width="1.4" /></g>
    <g transform="translate(212.00 65.18) rotate(2.62)"><circle cx="0" cy="0" r="19.49" fill="#A78BFA" stroke="rgba(255,255,255,0.55)" stroke-width="1.4" /><circle cx="-7.02" cy="-4.68" r="3.12" fill="#1F2937" /><circle cx="7.02" cy="-4.68" r="3.12" fill="#1F2937" /><path d="M -14.81 5.46 Q 0 13.25 14.81 5.46" fill="none" stroke="#1F2937" stroke-width="2.2" stroke-linecap="round" /></g>
    <g transform="translate(523.34 391.17) rotate(-16.81)"><rect x="-14.51" y="-14.51" width="29.02" height="29.02" rx="3.15" fill="#FBBF24" stroke="rgba(255,255,255,0.55)" stroke-width="1.4" /></g>
    <g transform="translate(835.73 69.92) rotate(1.82)"><circle cx="0" cy="0" r="14.52" fill="#4ADE80" /><circle cx="5.81" cy="-0.58" r="12.19" fill="#0B1A34" /></g>
    <g transform="translate(207.60 334.09) rotate(5.64)"><circle cx="0" cy="0" r="19.03" fill="#4ADE80" /><circle cx="7.61" cy="-0.76" r="15.99" fill="#0B1A34" /></g>
    <g transform="translate(521.78 525.20) rotate(-26.82)"><rect x="-16.04" y="-16.04" width="32.08" height="32.08" rx="3.49" fill="#34D399" stroke="rgba(255,255,255,0.55)" stroke-width="1.4" /></g>
    <g transform="translate(57.27 324.88) rotate(21.79)"><polygon points="0.00,-22.99 5.90,-8.12 21.87,-7.11 9.54,3.10 13.52,18.60 0.00,10.03 -13.52,18.60 -9.54,3.10 -21.87,-7.11 -5.90,-8.12" fill="#22D3EE" stroke="rgba(255,255,255,0.55)" stroke-width="1.4" /></g>
    <g transform="translate(122.05 527.37) rotate(-2.36)"><rect x="-16.81" y="-16.81" width="33.62" height="33.62" rx="3.65" fill="#A78BFA" stroke="rgba(255,255,255,0.55)" stroke-width="1.4" /></g>
    <g transform="translate(517.39 71.42) rotate(-7.50)"><circle cx="0" cy="0" r="18.47" fill="#FBBF24" /><circle cx="7.39" cy="-0.74" r="15.51" fill="#0B1A34" /></g>
    <g transform="translate(362.18 329.98) rotate(-7.66)"><circle cx="0" cy="0" r="16.55" fill="#C084FC" stroke="rgba(255,255,255,0.55)" stroke-width="1.4" /><circle cx="-5.96" cy="-3.97" r="2.65" fill="#1F2937" /><circle cx="5.96" cy="-3.97" r="2.65" fill="#1F2937" /><path d="M -12.58 4.63 Q 0 11.25 12.58 4.63" fill="none" stroke="#1F2937" stroke-width="2.2" stroke-linecap="round" /></g>
    <g transform="translate(439.23 527.06) rotate(-7.65)"><circle cx="0" cy="0" r="14.18" fill="#4ADE80" /><circle cx="5.67" cy="-0.57" r="11.91" fill="#0B1A34" /></g>
  </g>
</svg>
