<svg xmlns="http://www.w3.org/2000/svg" width="960" height="600" viewBox="0 0 960 600">
  <defs>
    <linearGradient id="bg33" x1="0%" y1="0%" x2="100%" y2="100%">
      <stop offset="0%" stop-color="#0F172A" />
      <stop offset="100%" stop-color="#1D4ED8" />
    </linearGradient>
    <filter id="shadow33" x="-20%" y="-20%" width="140%" height="140%">
      <feDropShadow dx="0" dy="2" stdDeviation="1.8" flood-color="rgba(0,0,0,0.36)" />
    </filter>
  </defs>

  <rect width="960" height="600" fill="url(#bg33)" />
  <rect x="24" y="24" width="912" height="552" rx="20" fill="rgba(255,255,255,0.045)" stroke="rgba(255,255,255,0.22)" />
  <g filter="url(#shadow33)">
    <g transform="translate(129.53 398.22) rotate(4.90)"><rect x="-13.42" y="-13.42" width="26.83" height="26.83" rx="2.92" fill="#22D3EE" stroke="rgba(255,255,255,0.55)" stroke-width="1.4" /></g>
    <g transform="translate(673.53 270.84) rotate(7.02)"><circle cx="0" cy="0" r="15.64" fill="#C084FC" stroke="rgba(255,255,255,0.55)" stroke-width="1.4" /><circle cx="-5.63" cy="-3.75" r="2.50" fill="#1F2937" /><circle cx="5.63" cy="-3.75" r="2.50" fill="#1F2937" /><path d="M -11.88 4.38 Q 0 10.63 11.88 4.38" fill="none" stroke="#1F2937" stroke-width="2.2" stroke-linecap="round" /></g>
    <g transform="translate(759.23 327.76) rotate(-0.88)"><circle cx="0" cy="0" r="20.91" fill="#F87171" stroke="rgba(255,255,255,0.55)" stroke-width="1.4" /><circle cx="-7.53" cy="-5.02" r="3.35" fill="#1F2937" /><circle cx="7.53" cy="-5.02" r="3.35" fill="#1F2937" /><path d="M -15.89 5.86 Q 0 14.22 15.89 5.86" fill="none" stroke="#1F2937" stroke-width="2.2" stroke-linecap="round" /></g>
    <g transform="translate(136.70 269.24) rotate(-16.47)"><rect x="-13.55" y="-13.55" width="27.11" height="27.11" rx="2.95" fill="#A78BFA" stroke="rgba(255,255,255,0.55)" stroke-width="1.4" /></g>
    <g transform="translate(595.29 458.35) rotate(-15.77)"><polygon points="-15.84,-5.70 2.53,-5.70 2.53,-12.04 17.42,0.00 2.53,12.04 2.53,5.70 -15.84,5.70" fill="#22D3EE" stroke="rgba(255,255,255,0.55)" stroke-width="1.2" /></g>
    <g transform="translate(371.19 67.93) rotate(2.57)"><circle cx="0" cy="0" r="17.23" fill="#FB7185" /><circle cx="6.89" cy="-0.69" r="14.47" fill="#0B1A34" /></g>
    <g transform="translate(514.22 327.96) rotate(3.24)"><circle cx="0" cy="0" r="18.81" fill="#34D399" /><circle cx="7.52" cy="-0.75" r="15.80" fill="#0B1A34" /></g>
    <g transform="translate(363.94 406.13) rotate(26.60)"><rect x="-15.19" y="-15.19" width="30.37" height="30.37" rx="3.30" fill="#60A5FA" stroke="rgba(255,255,255,0.55)" stroke-width="1.4" /></g>
    <g transform="translate(206.08 140.24) rotate(5.44)"><circle cx="0" cy="0" r="16.72" fill="#C084FC" stroke="rgba(255,255,255,0.55)" stroke-width="1.4" /><circle cx="-6.02" cy="-4.01" r="2.67" fill="#1F2937" /><circle cx="6.02" cy="-4.01" r="2.67" fill="#1F2937" /><path d="M -12.70 4.68 Q 0 11.37 12.70 4.68" fill="none" stroke="#1F2937" stroke-width="2.2" stroke-linecap="round" /></g>
    <g transform="translate(212.54 399.94) rotate(27.73)"><rect x="-17.86" y="-17.86" width="35.72" height="35.72" rx="3.88" fill="#A78BFA" stroke="rgba(255,255,255,0.55)" stroke-width="1.4" /></g>
    <g transform="translate(363.85 460.93) rotate(16.08)"><polygon points="-14.26,-5.13 2.28,-5.13 2.28,-10.83 15.68,0.00 2.28,10.83 2.28,5.13 -14.26,5.13" fill="#F97316" stroke="rgba(255,255,255,0.55)" stroke-width="1.2" /></g>
    <g transform="translate(433.47 260.99) rotate(3.56)"><polygon points="-15.56,-5.60 2.49,-5.60 2.49,-11.83 17.12,0.00 2.49,11.83 2.49,5.60 -15.56,5.60" fill="#4ADE80" stroke="rgba(255,255,255,0.55)" stroke-width="1.2" /></g>
    <g transform="translate(521.00 272.32) rotate(-4.80)"><rect x="-16.98" y="-16.98" width="33.95" height="33.95" rx="3.69" fill="#F97316" stroke="rgba(255,255,255,0.55)" stroke-width="1.4" /></g>
    <g transform="translate(595.85 198.27) rotate(-2.24)"><circle cx="0" cy="0" r="19.33" fill="#34D399" stroke="rgba(255,255,255,0.55)" stroke-width="1.4" /><circle cx="-6.96" cy="-4.64" r="3.09" fill="#1F2937" /><circle cx="6.96" cy="-4.64" r="3.09" fill="#1F2937" /><path d="M -14.69 5.41 Q 0 13.14 14.69 5.41" fill="none" stroke="#1F2937" stroke-width="2.2" stroke-linecap="round" /></g>
    <g transform="translate(915.91 138.06) rotate(25.33)"><rect x="-18.99" y="-18.99" width="37.99" height="37.99" rx="4.13" fill="#60A5FA" stroke="rgba(255,255,255,0.55)" stroke-width="1.4" /></g>
    <g transform="translate(511.68 77.33) rotate(7.66)"><circle cx="0" cy="0" r="20.00" fill="#22D3EE" /><circle cx="8.00" cy="-0.80" r="16.80" fill="#0B1A34" /></g>
    <g transform="translate(365.10 262.35) rotate(1.52)"><rect x="-17.88" y="-17.88" width="35.75" height="35.75" rx="3.89" fill="#22D3EE" stroke="rgba(255,255,255,0.55)" stroke-width="1.4" /></g>
    <g transform="translate(363.67 206.02) rotate(-2.71)"><circle cx="0" cy="0" r="20.34" fill="#34D399" /><circle cx="8.13" cy="-0.81" r="17.08" fill="#0B1A34" /></g>
    <g transform="translate(134.25 458.67) rotate(-4.33)"><rect x="-14.29" y="-14.29" width="28.57" height="28.57" rx="3.11" fill="#34D399" stroke="rgba(255,255,255,0.55)" stroke-width="1.4" /></g>
    <g transform="translate(282.84 523.96) rotate(-2.17)"><path d="M 0 16.61 C -21.75 1.98, -23.73 -13.84, -9.49 -3.16 C -0.79 -16.61, 0.79 -16.61, 9.49 -3.16 C 23.73 -13.84, 21.75 1.98, 0 16.61 Z" fill="#34D399" stroke="rgba(255,255,255,0.55)" stroke-width="1.2" /></g>
    <g transform="translate(915.60 75.28) rotate(-7.67)"><circle cx="0" cy="0" r="18.89" fill="#34D399" /><circle cx="7.55" cy="-0.76" r="15.86" fill="#0B1A34" /></g>
    <g transform="translate(594.47 73.26) rotate(-6.09)"><rect x="-17.96" y="-17.96" width="35.93" height="35.93" rx="3.91" fill="#A78BFA" stroke="rgba(255,255,255,0.55)" stroke-width="1.4" /></g>
    <g transform="translate(914.52 206.99) rotate(-19.84)"><polygon points="-15.39,-5.54 2.46,-5.54 2.46,-11.69 16.92,0.00 2.46,11.69 2.46,5.54 -15.39,5.54" fill="#4ADE80" stroke="rgba(255,255,255,0.55)" stroke-width="1.2" /></g>
    <g transform="translate(604.33 525.05) rotate(-9.63)"><rect x="-14.30" y="-14.30" width="28.60" height="28.60" rx="3.11" fill="#F97316" stroke="rgba(255,255,255,0.55)" stroke-width="1.4" /></g>
    <g transform="translate(750.37 534.83) rotate(-5.34)"><circle cx="0" cy="0" r="19.28" fill="#F87171" stroke="rgba(255,255,255,0.55)" stroke-width="1.4" /><circle cx="-6.94" cy="-4.63" r="3.08" fill="#1F2937" /><circle cx="6.94" cy="-4.63" r="3.08" fill="#1F2937" /><path d="M -14.65 5.40 Q 0 13.11 14.65 5.40" fill="none" stroke="#1F2937" stroke-width="2.2" stroke-linecap="round" /></g>
    <g transform="translate(57.32 469.87) rotate(17.28)"><rect x="-18.66" y="-18.66" width="37.32" height="37.32" rx="4.06" fill="#4ADE80" stroke="rgba(255,255,255,0.55)" stroke-width="1.4" /></g>
    <g transform="translate(822.19 529.97) rotate(-13.44)"><rect x="-13.93" y="-13.93" width="27.85" height="27.85" rx="3.03" fill="#60A5FA" stroke="rgba(255,255,255,0.55)" stroke-width="1.4" /></g>
    <g transform="translate(211.87 338.59) rotate(-0.68)"><circle cx="0" cy="0" r="14.65" fill="#60A5FA" stroke="rgba(255,255,255,0.55)" stroke-width="1.4" /><circle cx="-5.27" cy="-3.52" r="2.34" fill="#1F2937" /><circle cx="5.27" cy="-3.52" r="2.34" fill="#1F2937" /><path d="M -11.13 4.10 Q 0 9.96 11.13 4.10" fill="none" stroke="#1F2937" stroke-width="2.2" stroke-linecap="round" /></g>
    <g transform="translate(208.90 68.01) rotate(-0.47)"><rect x="-13.52" y="-13.52" width="27.04" height="27.04" rx="2.94" fill="#FBBF24" stroke="rgba(255,255,255,0.55)" stroke-width="1.4" /></g>
    <g transform="translate(204.74 524.45) rotate(-2.50)"><circle cx="0" cy="0" r="17.12" fill="#F87171" /><circle cx="6.85" cy="-0.68" r="14.38" fill="#0B1A34" /></g>
    <g transform="translate(760.35 274.94) rotate(-24.03)"><rect x="-18.19" y="-18.19" width="36.37" height="36.37" rx="3.95" fill="#FB7185" stroke="rgba(255,255,255,0.55)" stroke-width="1.4" /></g>
    <g transform="translate(435.26 465.04) rotate(-17.96)"><polygon points="-16.43,-5.91 2.63,-5.91 2.63,-12.48 18.07,0.00 2.63,12.48 2.63,5.91 -16.43,5.91" fill="#FBBF24" stroke="rgba(255,255,255,0.55)" stroke-width="1.2" /></g>
    <g transform="translate(55.63 137.54) rotate(8.72)"><rect x="-19.00" y="-19.00" width="37.99" height="37.99" rx="4.13" fill="#F87171" stroke="rgba(255,255,255,0.55)" stroke-width="1.4" /></g>
    <g transform="translate(669.93 208.65) rotate(7.81)"><circle cx="0" cy="0" r="19.00" fill="#FBBF24" /><circle cx="7.60" cy="-0.76" r="15.96" fill="#0B1A34" /></g>
    <g transform="translate(281.13 468.62) rotate(-16.21)"><rect x="-16.33" y="-16.33" width="32.66" height="32.66" rx="3.55" fill="#34D399" stroke="rgba(255,255,255,0.55)" stroke-width="1.4" /></g>
    <g transform="translate(292.28 68.98) rotate(-7.40)"><path d="M 0 11.97 C -15.68 1.43, -17.11 -9.98, -6.84 -2.28 C -0.57 -11.97, 0.57 -11.97, 6.84 -2.28 C 17.11 -9.98, 15.68 1.43, 0 11.97 Z" fill="#22D3EE" stroke="rgba(255,255,255,0.55)" stroke-width="1.2" /></g>
    <g transform="translate(525.87 525.53) rotate(-7.78)"><rect x="-18.35" y="-18.35" width="36.69" height="36.69" rx="3.99" fill="#34D399" stroke="rgba(255,255,255,0.55)" stroke-width="1.4" /></g>
  </g>
</svg>
