<svg xmlns="http://www.w3.org/2000/svg" width="960" height="600" viewBox="0 0 960 600">
  <defs>
    <linearGradient id="bg49" x1="0%" y1="0%" x2="100%" y2="100%">
      <stop offset="0%" stop-color="#0F172A" />
      <stop offset="100%" stop-color="#1D4ED8" />
    </linearGradient>
    <filter id="shadow49" x="-20%" y="-20%" width="140%" height="140%">
      <feDropShadow dx="0" dy="2" stdDeviation="1.8" flood-color="rgba(0,0,0,0.36)" />
    </filter>
  </defs>

  <rect width="960" height="600" fill="url(#bg49)" />
  <rect x="24" y="24" width="912" height="552" rx="20" fill="rgba(255,255,255,0.045)" stroke="rgba(255,255,255,0.22)" />
  <g filter="url(#shadow49)">
    <g transform="translate(289.49 137.46) rotate(-12.99)"><polygon points="0,-17.50 17.50,0 0,17.50 -17.50,0" fill="#FBBF24" stroke="rgba(255,255,255,0.55)" stroke-width="1.4" /></g>
    <g transform="translate(512.83 530.87) rotate(-20.90)"><polygon points="0,-20.42 20.42,0 0,20.42 -20.42,0" fill="#F97316" stroke="rgba(255,255,255,0.55)" stroke-width="1.4" /></g>
    <g transform="translate(749.18 533.99) rotate(-6.20)"><polygon points="-20.39,-7.34 3.26,-7.34 3.26,-15.50 22.43,0.00 3.26,15.50 3.26,7.34 -20.39,7.34" fill="#A78BFA" stroke="rgba(255,255,255,0.55)" stroke-width="1.2" /></g>
    <g transform="translate(836.15 524.11) rotate(2.16)"><polygon points="0,-18.74 18.74,0 0,18.74 -18.74,0" fill="#A78BFA" stroke="rgba(255,255,255,0.55)" stroke-width="1.4" /></g>
    <g transform="translate(601.62 199.77) rotate(-25.60)"><polygon points="-16.87,-6.07 2.70,-6.07 2.70,-12.82 18.56,0.00 2.70,12.82 2.70,6.07 -16.87,6.07" fill="#FB7185" stroke="rgba(255,255,255,0.55)" stroke-width="1.2" /></g>
    <g transform="translate(355.84 463.17) rotate(-1.55)"><circle cx="0" cy="0" r="18.69" fill="#FB7185" /><circle cx="7.48" cy="-0.75" r="15.70" fill="#0B1A34" /></g>
    <g transform="translate(436.26 525.47) rotate(15.62)"><polygon points="0,-21.80 19.54,15.03 -19.54,15.03" fill="#F87171" stroke="rgba(255,255,255,0.55)" stroke-width="1.4" /></g>
    <g transform="translate(827.61 335.19) rotate(27.40)"><rect x="-18.36" y="-5.41" width="36.73" height="10.82" rx="5.41" fill="#A78BFA" /><rect x="-5.41" y="-18.36" width="10.82" height="36.73" rx="5.41" fill="#A78BFA" /></g>
    <g transform="translate(599.06 391.82) rotate(-0.11)"><polygon points="-18.43,-6.64 2.95,-6.64 2.95,-14.01 20.28,0.00 2.95,14.01 2.95,6.64 -18.43,6.64" fill="#4ADE80" stroke="rgba(255,255,255,0.55)" stroke-width="1.2" /></g>
    <g transform="translate(823.57 205.84) rotate(4.71)"><circle cx="0" cy="0" r="16.97" fill="#FB7185" /><circle cx="6.79" cy="-0.68" r="14.25" fill="#0B1A34" /></g>
    <g transform="translate(45.85 209.31) rotate(-13.95)"><rect x="-17.19" y="-5.07" width="34.39" height="10.14" rx="5.07" fill="#FBBF24" /><rect x="-5.07" y="-17.19" width="10.14" height="34.39" rx="5.07" fill="#FBBF24" /></g>
    <g transform="translate(598.30 267.87) rotate(-0.37)"><polygon points="0,-21.57 19.34,14.88 -19.34,14.88" fill="#FBBF24" stroke="rgba(255,255,255,0.55)" stroke-width="1.4" /></g>
    <g transform="translate(598.51 456.60) rotate(-16.58)"><polygon points="0,-15.32 15.32,0 0,15.32 -15.32,0" fill="#4ADE80" stroke="rgba(255,255,255,0.55)" stroke-width="1.4" /></g>
    <g transform="translate(206.47 523.80) rotate(22.10)"><polygon points="-18.17,-6.54 2.91,-6.54 2.91,-13.81 19.99,0.00 2.91,13.81 2.91,6.54 -18.17,6.54" fill="#A78BFA" stroke="rgba(255,255,255,0.55)" stroke-width="1.2" /></g>
    <g transform="translate(901.28 209.02) rotate(-4.15)"><rect x="-17.42" y="-5.13" width="34.83" height="10.27" rx="5.13" fill="#22D3EE" /><rect x="-5.13" y="-17.42" width="10.27" height="34.83" rx="5.13" fill="#22D3EE" /></g>
    <g transform="translate(49.75 271.79) rotate(-20.83)"><polygon points="0,-20.81 20.81,0 0,20.81 -20.81,0" fill="#34D399" stroke="rgba(255,255,255,0.55)" stroke-width="1.4" /></g>
    <g transform="translate(447.83 268.75) rotate(-23.60)"><polygon points="-17.72,-6.38 2.84,-6.38 2.84,-13.47 19.50,0.00 2.84,13.47 2.84,6.38 -17.72,6.38" fill="#22D3EE" stroke="rgba(255,255,255,0.55)" stroke-width="1.2" /></g>
    <g transform="translate(678.95 134.10) rotate(2.28)"><rect x="-14.98" y="-4.42" width="29.97" height="8.83" rx="4.42" fill="#60A5FA" /><rect x="-4.42" y="-14.98" width="8.83" height="29.97" rx="4.42" fill="#60A5FA" /></g>
    <g transform="translate(748.03 332.01) rotate(26.98)"><polygon points="-14.32,-5.16 2.29,-5.16 2.29,-10.88 15.75,0.00 2.29,10.88 2.29,5.16 -14.32,5.16" fill="#F87171" stroke="rgba(255,255,255,0.55)" stroke-width="1.2" /></g>
    <g transform="translate(910.77 325.06) rotate(15.43)"><polygon points="0,-16.55 14.84,11.42 -14.84,11.42" fill="#60A5FA" stroke="rgba(255,255,255,0.55)" stroke-width="1.4" /></g>
    <g transform="translate(204.81 77.16) rotate(-4.91)"><circle cx="0" cy="0" r="15.36" fill="#FBBF24" /><circle cx="6.14" cy="-0.61" r="12.90" fill="#0B1A34" /></g>
    <g transform="translate(667.57 535.54) rotate(0.19)"><circle cx="0" cy="0" r="14.06" fill="#22D3EE" /><circle cx="5.62" cy="-0.56" r="11.81" fill="#0B1A34" /></g>
    <g transform="translate(599.50 70.51) rotate(-26.39)"><rect x="-16.95" y="-5.00" width="33.91" height="9.99" rx="5.00" fill="#F87171" /><rect x="-5.00" y="-16.95" width="9.99" height="33.91" rx="5.00" fill="#F87171" /></g>
    <g transform="translate(745.88 206.71) rotate(-14.08)"><polygon points="0,-15.95 15.95,0 0,15.95 -15.95,0" fill="#FBBF24" stroke="rgba(255,255,255,0.55)" stroke-width="1.4" /></g>
    <g transform="translate(356.78 66.44) rotate(27.83)"><rect x="-15.03" y="-4.43" width="30.06" height="8.86" rx="4.43" fill="#60A5FA" /><rect x="-4.43" y="-15.03" width="8.86" height="30.06" rx="4.43" fill="#60A5FA" /></g>
    <g transform="translate(368.35 406.00) rotate(22.78)"><rect x="-14.66" y="-4.32" width="29.31" height="8.64" rx="4.32" fill="#C084FC" /><rect x="-4.32" y="-14.66" width="8.64" height="29.31" rx="4.32" fill="#C084FC" /></g>
    <g transform="translate(284.69 201.37) rotate(23.55)"><rect x="-13.81" y="-4.07" width="27.61" height="8.14" rx="4.07" fill="#A78BFA" /><rect x="-4.07" y="-13.81" width="8.14" height="27.61" rx="4.07" fill="#A78BFA" /></g>
    <g transform="translate(126.65 524.63) rotate(11.17)"><rect x="-16.70" y="-4.92" width="33.40" height="9.84" rx="4.92" fill="#F97316" /><rect x="-4.92" y="-16.70" width="9.84" height="33.40" rx="4.92" fill="#F97316" /></g>
    <g transform="translate(128.77 130.03) rotate(-6.09)"><polygon points="0,-23.20 20.80,16.00 -20.80,16.00" fill="#34D399" stroke="rgba(255,255,255,0.55)" stroke-width="1.4" /></g>
  </g>
</svg>
