<svg xmlns="http://www.w3.org/2000/svg" width="960" height="600" viewBox="0 0 960 600">
  <defs>
    <linearGradient id="bg100" x1="0%" y1="0%" x2="100%" y2="100%">
      <stop offset="0%" stop-color="#0F172A" />
      <stop offset="100%" stop-color="#1D4ED8" />
    </linearGradient>
    <filter id="shadow100" x="-20%" y="-20%" width="140%" height="140%">
      <feDropShadow dx="0" dy="2" stdDeviation="1.8" flood-color="rgba(0,0,0,0.36)" />
    </filter>
  </defs>

  <rect width="960" height="600" fill="url(#bg100)" />
  <rect x="24" y="24" width="912" height="552" rx="20" fill="rgba(255,255,255,0.045)" stroke="rgba(255,255,255,0.22)" />
  <g filter="url(#shadow100)">
    <g transform="translate(207.60 140.28) rotate(26.51)"><circle cx="0" cy="0" r="15.70" fill="#F97316" stroke="rgba(255,255,255,0.55)" stroke-width="1.4" /></g>
    <g transform="translate(127.20 139.47) rotate(-5.14)"><circle cx="0" cy="0" r="17.65" fill="#F97316" /><circle cx="7.06" cy="-0.71" r="14.83" fill="#0B1A34" /></g>
    <g transform="translate(523.55 537.38) rotate(-4.96)"><polygon points="0,-15.73 15.73,0 0,15.73 -15.73,0" fill="#F87171" stroke="rgba(255,255,255,0.55)" stroke-width="1.4" /></g>
    <g transform="translate(200.87 62.89) rotate(-3.79)"><polygon points="0.00,-17.97 4.61,-6.34 17.09,-5.55 7.46,2.42 10.56,14.54 0.00,7.84 -10.56,14.54 -7.46,2.42 -17.09,-5.55 -4.61,-6.34" fill="#4ADE80" stroke="rgba(255,255,255,0.55)" stroke-width="1.4" /></g>
    <g transform="translate(133.64 193.48) rotate(4.64)"><circle cx="0" cy="0" r="20.50" fill="#34D399" /><circle cx="8.20" cy="-0.82" r="17.22" fill="#0B1A34" /></g>
    <g transform="translate(46.86 266.63) rotate(-23.21)"><polygon points="0,-15.80 15.80,0 0,15.80 -15.80,0" fill="#22D3EE" stroke="rgba(255,255,255,0.55)" stroke-width="1.4" /></g>
    <g transform="translate(357.82 196.17) rotate(18.96)"><polygon points="0.00,-20.59 5.28,-7.27 19.58,-6.36 8.54,2.78 12.10,16.66 0.00,8.98 -12.10,16.66 -8.54,2.78 -19.58,-6.36 -5.28,-7.27" fill="#F97316" stroke="rgba(255,255,255,0.55)" stroke-width="1.4" /></g>
    <g transform="translate(293.45 338.26) rotate(-25.30)"><polygon points="0.00,-21.20 5.44,-7.48 20.16,-6.55 8.80,2.86 12.46,17.15 0.00,9.25 -12.46,17.15 -8.80,2.86 -20.16,-6.55 -5.44,-7.48" fill="#4ADE80" stroke="rgba(255,255,255,0.55)" stroke-width="1.4" /></g>
    <g transform="translate(747.04 130.38) rotate(14.65)"><circle cx="0" cy="0" r="14.47" fill="#34D399" stroke="rgba(255,255,255,0.55)" stroke-width="1.4" /></g>
    <g transform="translate(591.42 524.75) rotate(-15.68)"><polygon points="0.00,-17.43 4.47,-6.15 16.57,-5.39 7.23,2.35 10.24,14.10 0.00,7.60 -10.24,14.10 -7.23,2.35 -16.57,-5.39 -4.47,-6.15" fill="#60A5FA" stroke="rgba(255,255,255,0.55)" stroke-width="1.4" /></g>
    <g transform="translate(210.62 533.38) rotate(2.35)"><circle cx="0" cy="0" r="18.03" fill="#C084FC" stroke="rgba(255,255,255,0.55)" stroke-width="1.4" /></g>
    <g transform="translate(824.05 137.92) rotate(-9.44)"><circle cx="0" cy="0" r="15.59" fill="#34D399" stroke="rgba(255,255,255,0.55)" stroke-width="1.4" /></g>
    <g transform="translate(441.72 400.48) rotate(-4.15)"><circle cx="0" cy="0" r="15.98" fill="#60A5FA" /><circle cx="6.39" cy="-0.64" r="13.42" fill="#0B1A34" /></g>
    <g transform="translate(589.89 195.47) rotate(-20.58)"><polygon points="0,-15.31 15.31,0 0,15.31 -15.31,0" fill="#4ADE80" stroke="rgba(255,255,255,0.55)" stroke-width="1.4" /></g>
    <g transform="translate(752.20 259.51) rotate(-7.92)"><circle cx="0" cy="0" r="18.73" fill="#FBBF24" /><circle cx="7.49" cy="-0.75" r="15.74" fill="#0B1A34" /></g>
    <g transform="translate(290.17 206.89) rotate(-11.82)"><polygon points="-20.88,-7.52 3.34,-7.52 3.34,-15.87 22.96,0.00 3.34,15.87 3.34,7.52 -20.88,7.52" fill="#C084FC" stroke="rgba(255,255,255,0.55)" stroke-width="1.2" /></g>
    <g transform="translate(752.07 333.52) rotate(19.81)"><polygon points="-14.59,-5.25 2.33,-5.25 2.33,-11.09 16.05,0.00 2.33,11.09 2.33,5.25 -14.59,5.25" fill="#A78BFA" stroke="rgba(255,255,255,0.55)" stroke-width="1.2" /></g>
    <g transform="translate(433.43 468.33) rotate(-12.40)"><polygon points="-14.92,-5.37 2.39,-5.37 2.39,-11.34 16.41,0.00 2.39,11.34 2.39,5.37 -14.92,5.37" fill="#4ADE80" stroke="rgba(255,255,255,0.55)" stroke-width="1.2" /></g>
    <g transform="translate(669.24 466.13) rotate(-10.22)"><circle cx="0" cy="0" r="15.19" fill="#F97316" stroke="rgba(255,255,255,0.55)" stroke-width="1.4" /></g>
    <g transform="translate(131.06 529.03) rotate(-1.07)"><circle cx="0" cy="0" r="15.77" fill="#C084FC" /><circle cx="6.31" cy="-0.63" r="13.25" fill="#0B1A34" /></g>
    <g transform="translate(288.98 141.95) rotate(4.96)"><polygon points="0,-15.74 15.74,0 0,15.74 -15.74,0" fill="#34D399" stroke="rgba(255,255,255,0.55)" stroke-width="1.4" /></g>
  </g>
</svg>
