<svg xmlns="http://www.w3.org/2000/svg" width="960" height="600" viewBox="0 0 960 600">
  <defs>
    <linearGradient id="bg36" x1="0%" y1="0%" x2="100%" y2="100%">
      <stop offset="0%" stop-color="#0F172A" />
      <stop offset="100%" stop-color="#1D4ED8" />
    </linearGradient>
    <filter id="shadow36" x="-20%" y="-20%" width="140%" height="140%">
      <feDropShadow dx="0" dy="2" stdDeviation="1.8" flood-color="rgba(0,0,0,0.36)" />
    </filter>
  </defs>

  <rect width="960" height="600" fill="url(#bg36)" />
  <rect x="24" y="24" width="912" height="552" rx="20" fill="rgba(255,255,255,0.045)" stroke="rgba(255,255,255,0.22)" />
  <g filter="url(#shadow36)">
    <g transform="translate(292.35 533.08) rotate(8.75)"><polygon points="0.00,-21.91 5.62,-7.73 20.83,-6.77 9.09,2.95 12.88,17.72 0.00,9.56 -12.88,17.72 -9.09,2.95 -20.83,-6.77 -5.62,-7.73" fill="#FB7185" stroke="rgba(255,255,255,0.55)" stroke-width="1.4" /></g>
    <g transform="translate(832.90 71.66) rotate(-8.75)"><polygon points="0.00,-18.32 4.70,-6.47 17.43,-5.66 7.60,2.47 10.77,14.82 0.00,8.00 -10.77,14.82 -7.60,2.47 -17.43,-5.66 -4.70,-6.47" fill="#34D399" stroke="rgba(255,255,255,0.55)" stroke-width="1.4" /></g>
    <g transform="translate(362.04 398.37) rotate(-4.20)"><polygon points="0.00,-21.36 5.48,-7.54 20.31,-6.60 8.86,2.88 12.55,17.28 0.00,9.32 -12.55,17.28 -8.86,2.88 -20.31,-6.60 -5.48,-7.54" fill="#22D3EE" stroke="rgba(255,255,255,0.55)" stroke-width="1.4" /></g>
    <g transform="translate(202.94 406.31) rotate(1.47)"><circle cx="0" cy="0" r="19.31" fill="#22D3EE" stroke="rgba(255,255,255,0.55)" stroke-width="1.4" /><circle cx="-6.95" cy="-4.64" r="3.09" fill="#1F2937" /><circle cx="6.95" cy="-4.64" r="3.09" fill="#1F2937" /><path d="M -14.68 5.41 Q 0 13.13 14.68 5.41" fill="none" stroke="#1F2937" stroke-width="2.2" stroke-linecap="round" /></g>
    <g transform="translate(52.70 457.39) rotate(2.34)"><circle cx="0" cy="0" r="16.44" fill="#60A5FA" stroke="rgba(255,255,255,0.55)" stroke-width="1.4" /><circle cx="-5.92" cy="-3.95" r="2.63" fill="#1F2937" /><circle cx="5.92" cy="-3.95" r="2.63" fill="#1F2937" /><path d="M -12.49 4.60 Q 0 11.18 12.49 4.60" fill="none" stroke="#1F2937" stroke-width="2.2" stroke-linecap="round" /></g>
    <g transform="translate(128.24 328.63) rotate(-5.34)"><circle cx="0" cy="0" r="15.50" fill="#FBBF24" stroke="rgba(255,255,255,0.55)" stroke-width="1.4" /><circle cx="-5.58" cy="-3.72" r="2.48" fill="#1F2937" /><circle cx="5.58" cy="-3.72" r="2.48" fill="#1F2937" /><path d="M -11.78 4.34 Q 0 10.54 11.78 4.34" fill="none" stroke="#1F2937" stroke-width="2.2" stroke-linecap="round" /></g>
    <g transform="translate(903.70 74.68) rotate(-22.79)"><path d="M 0 14.53 C -19.03 1.73, -20.76 -12.11, -8.30 -2.77 C -0.69 -14.53, 0.69 -14.53, 8.30 -2.77 C 20.76 -12.11, 19.03 1.73, 0 14.53 Z" fill="#F97316" stroke="rgba(255,255,255,0.55)" stroke-width="1.2" /></g>
    <g transform="translate(45.74 268.23) rotate(1.84)"><circle cx="0" cy="0" r="14.46" fill="#34D399" /><circle cx="5.78" cy="-0.58" r="12.15" fill="#0B1A34" /></g>
    <g transform="translate(679.83 135.68) rotate(-6.89)"><circle cx="0" cy="0" r="16.93" fill="#60A5FA" /><circle cx="6.77" cy="-0.68" r="14.22" fill="#0B1A34" /></g>
    <g transform="translate(203.86 70.77) rotate(7.34)"><circle cx="0" cy="0" r="15.61" fill="#C084FC" stroke="rgba(255,255,255,0.55)" stroke-width="1.4" /><circle cx="-5.62" cy="-3.75" r="2.50" fill="#1F2937" /><circle cx="5.62" cy="-3.75" r="2.50" fill="#1F2937" /><path d="M -11.87 4.37 Q 0 10.62 11.87 4.37" fill="none" stroke="#1F2937" stroke-width="2.2" stroke-linecap="round" /></g>
    <g transform="translate(679.34 199.98) rotate(0.46)"><polygon points="0.00,-17.46 4.48,-6.16 16.60,-5.39 7.24,2.35 10.26,14.12 0.00,7.62 -10.26,14.12 -7.24,2.35 -16.60,-5.39 -4.48,-6.16" fill="#FBBF24" stroke="rgba(255,255,255,0.55)" stroke-width="1.4" /></g>
    <g transform="translate(448.11 337.52) rotate(7.42)"><circle cx="0" cy="0" r="20.96" fill="#4ADE80" /><circle cx="8.39" cy="-0.84" r="17.61" fill="#0B1A34" /></g>
    <g transform="translate(442.91 132.08) rotate(-0.49)"><circle cx="0" cy="0" r="18.06" fill="#34D399" /><circle cx="7.23" cy="-0.72" r="15.17" fill="#0B1A34" /></g>
    <g transform="translate(829.87 327.44) rotate(-17.32)"><polygon points="0.00,-16.29 4.18,-5.75 15.49,-5.03 6.76,2.20 9.57,13.18 0.00,7.11 -9.57,13.18 -6.76,2.20 -15.49,-5.03 -4.18,-5.75" fill="#34D399" stroke="rgba(255,255,255,0.55)" stroke-width="1.4" /></g>
    <g transform="translate(279.99 138.87) rotate(-1.36)"><circle cx="0" cy="0" r="16.03" fill="#F87171" stroke="rgba(255,255,255,0.55)" stroke-width="1.4" /><circle cx="-5.77" cy="-3.85" r="2.56" fill="#1F2937" /><circle cx="5.77" cy="-3.85" r="2.56" fill="#1F2937" /><path d="M -12.18 4.49 Q 0 10.90 12.18 4.49" fill="none" stroke="#1F2937" stroke-width="2.2" stroke-linecap="round" /></g>
    <g transform="translate(205.55 524.52) rotate(-2.54)"><circle cx="0" cy="0" r="16.42" fill="#34D399" stroke="rgba(255,255,255,0.55)" stroke-width="1.4" /><circle cx="-5.91" cy="-3.94" r="2.63" fill="#1F2937" /><circle cx="5.91" cy="-3.94" r="2.63" fill="#1F2937" /><path d="M -12.48 4.60 Q 0 11.17 12.48 4.60" fill="none" stroke="#1F2937" stroke-width="2.2" stroke-linecap="round" /></g>
  </g>
</svg>
