<svg xmlns="http://www.w3.org/2000/svg" width="960" height="600" viewBox="0 0 960 600">
  <defs>
    <linearGradient id="bg58" x1="0%" y1="0%" x2="100%" y2="100%">
      <stop offset="0%" stop-color="#0F172A" />
      <stop offset="100%" stop-color="#1D4ED8" />
    </linearGradient>
    <filter id="shadow58" x="-20%" y="-20%" width="140%" height="140%">
      <feDropShadow dx="0" dy="2" stdDeviation="1.8" flood-color="rgba(0,0,0,0.36)" />
    </filter>
  </defs>

  <rect width="960" height="600" fill="url(#bg58)" />
  <rect x="24" y="24" width="912" height="552" rx="20" fill="rgba(255,255,255,0.045)" stroke="rgba(255,255,255,0.22)" />
  <g filter="url(#shadow58)">
    <g transform="translate(590.13 260.39) rotate(-20.29)"><polygon points="0,-19.30 19.30,0 0,19.30 -19.30,0" fill="#FB7185" stroke="rgba(255,255,255,0.55)" stroke-width="1.4" /></g>
    <g transform="translate(903.23 530.67) rotate(18.29)"><path d="M 0 16.88 C -22.11 2.01, -24.12 -14.07, -9.65 -3.22 C -0.80 -16.88, 0.80 -16.88, 9.65 -3.22 C 24.12 -14.07, 22.11 2.01, 0 16.88 Z" fill="#34D399" stroke="rgba(255,255,255,0.55)" stroke-width="1.2" /></g>
    <g transform="translate(511.45 401.63) rotate(-24.66)"><rect x="-17.40" y="-5.13" width="34.81" height="10.26" rx="5.13" fill="#FBBF24" /><rect x="-5.13" y="-17.40" width="10.26" height="34.81" rx="5.13" fill="#FBBF24" /></g>
    <g transform="translate(676.18 401.48) rotate(-23.08)"><polygon points="0,-16.13 16.13,0 0,16.13 -16.13,0" fill="#60A5FA" stroke="rgba(255,255,255,0.55)" stroke-width="1.4" /></g>
    <g transform="translate(522.54 134.12) rotate(4.29)"><circle cx="0" cy="0" r="14.99" fill="#34D399" /><circle cx="6.00" cy="-0.60" r="12.59" fill="#0B1A34" /></g>
    <g transform="translate(913.84 131.50) rotate(14.72)"><path d="M 0 14.40 C -18.86 1.71, -20.57 -12.00, -8.23 -2.74 C -0.69 -14.40, 0.69 -14.40, 8.23 -2.74 C 20.57 -12.00, 18.86 1.71, 0 14.40 Z" fill="#F87171" stroke="rgba(255,255,255,0.55)" stroke-width="1.2" /></g>
    <g transform="translate(911.44 262.54) rotate(-7.14)"><polygon points="0.00,-15.48 3.97,-5.46 14.72,-4.78 6.42,2.09 9.10,12.52 0.00,6.75 -9.10,12.52 -6.42,2.09 -14.72,-4.78 -3.97,-5.46" fill="#F97316" stroke="rgba(255,255,255,0.55)" stroke-width="1.4" /></g>
    <g transform="translate(287.25 266.42) rotate(-13.38)"><polygon points="0,-18.74 18.74,0 0,18.74 -18.74,0" fill="#FBBF24" stroke="rgba(255,255,255,0.55)" stroke-width="1.4" /></g>
    <g transform="translate(825.29 405.28) rotate(-19.31)"><polygon points="0,-19.89 19.89,0 0,19.89 -19.89,0" fill="#FBBF24" stroke="rgba(255,255,255,0.55)" stroke-width="1.4" /></g>
    <g transform="translate(520.65 471.48) rotate(-18.34)"><polygon points="0,-18.50 18.50,0 0,18.50 -18.50,0" fill="#34D399" stroke="rgba(255,255,255,0.55)" stroke-width="1.4" /></g>
    <g transform="translate(435.09 393.84) rotate(7.47)"><polygon points="0,-17.93 17.93,0 0,17.93 -17.93,0" fill="#4ADE80" stroke="rgba(255,255,255,0.55)" stroke-width="1.4" /></g>
    <g transform="translate(214.45 135.84) rotate(9.37)"><rect x="-14.66" y="-4.32" width="29.32" height="8.64" rx="4.32" fill="#F87171" /><rect x="-4.32" y="-14.66" width="8.64" height="29.32" rx="4.32" fill="#F87171" /></g>
    <g transform="translate(278.65 139.74) rotate(-0.37)"><polygon points="0,-20.29 20.29,0 0,20.29 -20.29,0" fill="#4ADE80" stroke="rgba(255,255,255,0.55)" stroke-width="1.4" /></g>
    <g transform="translate(675.89 70.97) rotate(5.01)"><polygon points="0.00,-20.43 5.24,-7.21 19.43,-6.31 8.48,2.75 12.01,16.52 0.00,8.91 -12.01,16.52 -8.48,2.75 -19.43,-6.31 -5.24,-7.21" fill="#4ADE80" stroke="rgba(255,255,255,0.55)" stroke-width="1.4" /></g>
    <g transform="translate(909.03 458.19) rotate(-17.13)"><path d="M 0 13.08 C -17.13 1.56, -18.69 -10.90, -7.48 -2.49 C -0.62 -13.08, 0.62 -13.08, 7.48 -2.49 C 18.69 -10.90, 17.13 1.56, 0 13.08 Z" fill="#F87171" stroke="rgba(255,255,255,0.55)" stroke-width="1.2" /></g>
    <g transform="translate(207.39 273.59) rotate(0.59)"><polygon points="0.00,-17.15 4.40,-6.05 16.31,-5.30 7.12,2.31 10.08,13.88 0.00,7.48 -10.08,13.88 -7.12,2.31 -16.31,-5.30 -4.40,-6.05" fill="#A78BFA" stroke="rgba(255,255,255,0.55)" stroke-width="1.4" /></g>
    <g transform="translate(214.23 325.31) rotate(7.91)"><polygon points="0.00,-15.66 4.02,-5.53 14.89,-4.84 6.50,2.11 9.20,12.67 0.00,6.83 -9.20,12.67 -6.50,2.11 -14.89,-4.84 -4.02,-5.53" fill="#60A5FA" stroke="rgba(255,255,255,0.55)" stroke-width="1.4" /></g>
    <g transform="translate(213.39 400.65) rotate(24.00)"><path d="M 0 16.22 C -21.24 1.93, -23.17 -13.52, -9.27 -3.09 C -0.77 -16.22, 0.77 -16.22, 9.27 -3.09 C 23.17 -13.52, 21.24 1.93, 0 16.22 Z" fill="#34D399" stroke="rgba(255,255,255,0.55)" stroke-width="1.2" /></g>
    <g transform="translate(361.46 200.23) rotate(5.51)"><path d="M 0 17.36 C -22.74 2.07, -24.80 -14.47, -9.92 -3.31 C -0.83 -17.36, 0.83 -17.36, 9.92 -3.31 C 24.80 -14.47, 22.74 2.07, 0 17.36 Z" fill="#4ADE80" stroke="rgba(255,255,255,0.55)" stroke-width="1.2" /></g>
  </g>
</svg>
