<svg xmlns="http://www.w3.org/2000/svg" width="960" height="600" viewBox="0 0 960 600">
  <defs>
    <linearGradient id="bg51" x1="0%" y1="0%" x2="100%" y2="100%">
      <stop offset="0%" stop-color="#0F172A" />
      <stop offset="100%" stop-color="#1D4ED8" />
    </linearGradient>
    <filter id="shadow51" x="-20%" y="-20%" width="140%" height="140%">
      <feDropShadow dx="0" dy="2" stdDeviation="1.8" flood-color="rgba(0,0,0,0.36)" />
    </filter>
  </defs>

  <rect width="960" height="600" fill="url(#bg51)" />
  <rect x="24" y="24" width="912" height="552" rx="20" fill="rgba(255,255,255,0.045)" stroke="rgba(255,255,255,0.22)" />
  <g filter="url(#shadow51)">
    <g transform="translate(201.29 471.54) rotate(-18.37)"><polygon points="-17.22,-6.20 2.75,-6.20 2.75,-13.08 18.94,0.00 2.75,13.08 2.75,6.20 -17.22,6.20" fill="#A78BFA" stroke="rgba(255,255,255,0.55)" stroke-width="1.2" /></g>
    <g transform="translate(136.15 201.42) rotate(-1.92)"><rect x="-14.34" y="-4.23" width="28.68" height="8.45" rx="4.23" fill="#22D3EE" /><rect x="-4.23" y="-14.34" width="8.45" height="28.68" rx="4.23" fill="#22D3EE" /></g>
    <g transform="translate(753.52 331.12) rotate(-8.24)"><polygon points="-18.41,-6.63 2.95,-6.63 2.95,-13.99 20.25,0.00 2.95,13.99 2.95,6.63 -18.41,6.63" fill="#FBBF24" stroke="rgba(255,255,255,0.55)" stroke-width="1.2" /></g>
    <g transform="translate(209.38 201.30) rotate(3.13)"><polygon points="0.00,-20.45 5.24,-7.22 19.45,-6.32 8.49,2.76 12.02,16.54 0.00,8.92 -12.02,16.54 -8.49,2.76 -19.45,-6.32 -5.24,-7.22" fill="#60A5FA" stroke="rgba(255,255,255,0.55)" stroke-width="1.4" /></g>
    <g transform="translate(827.59 456.87) rotate(7.22)"><circle cx="0" cy="0" r="15.54" fill="#FBBF24" stroke="rgba(255,255,255,0.55)" stroke-width="1.4" /></g>
    <g transform="translate(755.89 469.15) rotate(11.60)"><rect x="-19.76" y="-5.82" width="39.53" height="11.65" rx="5.82" fill="#C084FC" /><rect x="-5.82" y="-19.76" width="11.65" height="39.53" rx="5.82" fill="#C084FC" /></g>
    <g transform="translate(834.41 68.66) rotate(-23.92)"><polygon points="0.00,-18.39 4.72,-6.49 17.49,-5.68 7.63,2.48 10.81,14.88 0.00,8.03 -10.81,14.88 -7.63,2.48 -17.49,-5.68 -4.72,-6.49" fill="#F97316" stroke="rgba(255,255,255,0.55)" stroke-width="1.4" /></g>
    <g transform="translate(364.05 336.39) rotate(13.26)"><polygon points="0,-18.07 16.20,12.46 -16.20,12.46" fill="#A78BFA" stroke="rgba(255,255,255,0.55)" stroke-width="1.4" /></g>
    <g transform="translate(366.09 395.45) rotate(-27.59)"><polygon points="0.00,-17.78 4.56,-6.28 16.91,-5.49 7.38,2.40 10.45,14.38 0.00,7.76 -10.45,14.38 -7.38,2.40 -16.91,-5.49 -4.56,-6.28" fill="#22D3EE" stroke="rgba(255,255,255,0.55)" stroke-width="1.4" /></g>
    <g transform="translate(834.49 523.49) rotate(0.87)"><circle cx="0" cy="0" r="15.01" fill="#F87171" stroke="rgba(255,255,255,0.55)" stroke-width="1.4" /></g>
    <g transform="translate(366.33 139.05) rotate(10.41)"><polygon points="0.00,-18.01 4.62,-6.36 17.13,-5.57 7.47,2.43 10.59,14.57 0.00,7.86 -10.59,14.57 -7.47,2.43 -17.13,-5.57 -4.62,-6.36" fill="#FBBF24" stroke="rgba(255,255,255,0.55)" stroke-width="1.4" /></g>
    <g transform="translate(444.49 327.18) rotate(4.82)"><polygon points="0.00,-18.06 4.63,-6.38 17.18,-5.58 7.50,2.44 10.62,14.61 0.00,7.88 -10.62,14.61 -7.50,2.44 -17.18,-5.58 -4.63,-6.38" fill="#34D399" stroke="rgba(255,255,255,0.55)" stroke-width="1.4" /></g>
    <g transform="translate(442.03 537.45) rotate(-16.71)"><rect x="-19.04" y="-5.61" width="38.08" height="11.22" rx="5.61" fill="#60A5FA" /><rect x="-5.61" y="-19.04" width="11.22" height="38.08" rx="5.61" fill="#60A5FA" /></g>
    <g transform="translate(604.15 535.39) rotate(18.45)"><polygon points="-14.58,-5.25 2.33,-5.25 2.33,-11.08 16.04,0.00 2.33,11.08 2.33,5.25 -14.58,5.25" fill="#F87171" stroke="rgba(255,255,255,0.55)" stroke-width="1.2" /></g>
    <g transform="translate(446.93 471.30) rotate(12.22)"><polygon points="0,-19.95 17.88,13.76 -17.88,13.76" fill="#F87171" stroke="rgba(255,255,255,0.55)" stroke-width="1.4" /></g>
    <g transform="translate(521.08 74.09) rotate(-12.36)"><polygon points="-15.39,-5.54 2.46,-5.54 2.46,-11.69 16.92,0.00 2.46,11.69 2.46,5.54 -15.39,5.54" fill="#34D399" stroke="rgba(255,255,255,0.55)" stroke-width="1.2" /></g>
    <g transform="translate(756.67 534.22) rotate(-19.21)"><rect x="-19.92" y="-5.87" width="39.85" height="11.74" rx="5.87" fill="#34D399" /><rect x="-5.87" y="-19.92" width="11.74" height="39.85" rx="5.87" fill="#34D399" /></g>
    <g transform="translate(286.03 140.60) rotate(-1.93)"><circle cx="0" cy="0" r="16.73" fill="#FBBF24" stroke="rgba(255,255,255,0.55)" stroke-width="1.4" /></g>
    <g transform="translate(203.40 403.41) rotate(-13.49)"><rect x="-14.42" y="-4.25" width="28.84" height="8.50" rx="4.25" fill="#60A5FA" /><rect x="-4.25" y="-14.42" width="8.50" height="28.84" rx="4.25" fill="#60A5FA" /></g>
    <g transform="translate(511.66 134.21) rotate(-25.99)"><circle cx="0" cy="0" r="19.93" fill="#F97316" stroke="rgba(255,255,255,0.55)" stroke-width="1.4" /></g>
  </g>
</svg>
