<svg xmlns="http://www.w3.org/2000/svg" width="960" height="600" viewBox="0 0 960 600">
  <defs>
    <linearGradient id="bg9" x1="0%" y1="0%" x2="100%" y2="100%">
      <stop offset="0%" stop-color="#0F172A" />
      <stop offset="100%" stop-color="#1D4ED8" />
    </linearGradient>
    <filter id="shadow9" x="-20%" y="-20%" width="140%" height="140%">
      <feDropShadow dx="0" dy="2" stdDeviation="1.8" flood-color="rgba(0,0,0,0.36)" />
    </filter>
  </defs>

  <rect width="960" height="600" fill="url(#bg9)" />
  <rect x="24" y="24" width="912" height="552" rx="20" fill="rgba(255,255,255,0.045)" stroke="rgba(255,255,255,0.22)" />
  <g filter="url(#shadow9)">
    <g transform="translate(435.30 326.76) rotate(6.31)"><circle cx="0" cy="0" r="19.07" fill="#4ADE80" /><circle cx="7.63" cy="-0.76" r="16.02" fill="#0B1A34" /></g>
    <g transform="translate(290.48 139.70) rotate(-1.49)"><circle cx="0" cy="0" r="15.86" fill="#FB7185" stroke="rgba(255,255,255,0.55)" stroke-width="1.4" /><circle cx="-5.71" cy="-3.81" r="2.54" fill="#1F2937" /><circle cx="5.71" cy="-3.81" r="2.54" fill="#1F2937" /><path d="M -12.05 4.44 Q 0 10.78 12.05 4.44" fill="none" stroke="#1F2937" stroke-width="2.2" stroke-linecap="round" /></g>
    <g transform="translate(909.16 275.03) rotate(5.74)"><circle cx="0" cy="0" r="19.68" fill="#4ADE80" stroke="rgba(255,255,255,0.55)" stroke-width="1.4" /><circle cx="-7.09" cy="-4.72" r="3.15" fill="#1F2937" /><circle cx="7.09" cy="-4.72" r="3.15" fill="#1F2937" /><path d="M -14.96 5.51 Q 0 13.38 14.96 5.51" fill="none" stroke="#1F2937" stroke-width="2.2" stroke-linecap="round" /></g>
    <g transform="translate(911.69 402.01) rotate(-20.49)"><rect x="-13.40" y="-3.95" width="26.80" height="7.90" rx="3.95" fill="#34D399" /><rect x="-3.95" y="-13.40" width="7.90" height="26.80" rx="3.95" fill="#34D399" /></g>
    <g transform="translate(433.52 132.42) rotate(-1.54)"><circle cx="0" cy="0" r="18.42" fill="#34D399" /><circle cx="7.37" cy="-0.74" r="15.47" fill="#0B1A34" /></g>
    <g transform="translate(200.04 470.35) rotate(4.76)"><circle cx="0" cy="0" r="18.85" fill="#F97316" stroke="rgba(255,255,255,0.55)" stroke-width="1.4" /><circle cx="-6.78" cy="-4.52" r="3.02" fill="#1F2937" /><circle cx="6.78" cy="-4.52" r="3.02" fill="#1F2937" /><path d="M -14.32 5.28 Q 0 12.81 14.32 5.28" fill="none" stroke="#1F2937" stroke-width="2.2" stroke-linecap="round" /></g>
    <g transform="translate(369.31 466.64) rotate(0.68)"><circle cx="0" cy="0" r="16.67" fill="#60A5FA" /><circle cx="6.67" cy="-0.67" r="14.01" fill="#0B1A34" /></g>
    <g transform="translate(130.70 127.89) rotate(-21.16)"><rect x="-17.21" y="-5.07" width="34.42" height="10.14" rx="5.07" fill="#4ADE80" /><rect x="-5.07" y="-17.21" width="10.14" height="34.42" rx="5.07" fill="#4ADE80" /></g>
    <g transform="translate(122.69 260.83) rotate(-15.06)"><polygon points="0.00,-22.41 5.75,-7.91 21.31,-6.92 9.30,3.02 13.17,18.13 0.00,9.78 -13.17,18.13 -9.30,3.02 -21.31,-6.92 -5.75,-7.91" fill="#F97316" stroke="rgba(255,255,255,0.55)" stroke-width="1.4" /></g>
    <g transform="translate(205.78 396.40) rotate(3.91)"><circle cx="0" cy="0" r="20.06" fill="#22D3EE" stroke="rgba(255,255,255,0.55)" stroke-width="1.4" /><circle cx="-7.22" cy="-4.81" r="3.21" fill="#1F2937" /><circle cx="7.22" cy="-4.81" r="3.21" fill="#1F2937" /><path d="M -15.25 5.62 Q 0 13.64 15.25 5.62" fill="none" stroke="#1F2937" stroke-width="2.2" stroke-linecap="round" /></g>
    <g transform="translate(207.17 77.06) rotate(17.03)"><rect x="-19.87" y="-5.86" width="39.73" height="11.71" rx="5.86" fill="#FBBF24" /><rect x="-5.86" y="-19.87" width="11.71" height="39.73" rx="5.86" fill="#FBBF24" /></g>
    <g transform="translate(132.11 524.14) rotate(10.54)"><rect x="-17.36" y="-17.36" width="34.71" height="34.71" rx="3.77" fill="#FB7185" stroke="rgba(255,255,255,0.55)" stroke-width="1.4" /></g>
    <g transform="translate(279.20 326.36) rotate(1.60)"><rect x="-15.98" y="-4.71" width="31.96" height="9.42" rx="4.71" fill="#C084FC" /><rect x="-4.71" y="-15.98" width="9.42" height="31.96" rx="4.71" fill="#C084FC" /></g>
    <g transform="translate(44.67 393.23) rotate(-4.59)"><circle cx="0" cy="0" r="14.43" fill="#FB7185" /><circle cx="5.77" cy="-0.58" r="12.12" fill="#0B1A34" /></g>
    <g transform="translate(603.15 262.42) rotate(-15.60)"><rect x="-15.41" y="-15.41" width="30.82" height="30.82" rx="3.35" fill="#C084FC" stroke="rgba(255,255,255,0.55)" stroke-width="1.4" /></g>
    <g transform="translate(369.21 272.90) rotate(-26.10)"><rect x="-17.88" y="-17.88" width="35.76" height="35.76" rx="3.89" fill="#A78BFA" stroke="rgba(255,255,255,0.55)" stroke-width="1.4" /></g>
    <g transform="translate(756.05 209.12) rotate(-7.16)"><circle cx="0" cy="0" r="14.83" fill="#22D3EE" stroke="rgba(255,255,255,0.55)" stroke-width="1.4" /><circle cx="-5.34" cy="-3.56" r="2.37" fill="#1F2937" /><circle cx="5.34" cy="-3.56" r="2.37" fill="#1F2937" /><path d="M -11.27 4.15 Q 0 10.09 11.27 4.15" fill="none" stroke="#1F2937" stroke-width="2.2" stroke-linecap="round" /></g>
    <g transform="translate(755.96 405.27) rotate(4.22)"><circle cx="0" cy="0" r="20.76" fill="#F97316" stroke="rgba(255,255,255,0.55)" stroke-width="1.4" /><circle cx="-7.47" cy="-4.98" r="3.32" fill="#1F2937" /><circle cx="7.47" cy="-4.98" r="3.32" fill="#1F2937" /><path d="M -15.78 5.81 Q 0 14.12 15.78 5.81" fill="none" stroke="#1F2937" stroke-width="2.2" stroke-linecap="round" /></g>
    <g transform="translate(603.25 66.32) rotate(-14.81)"><polygon points="0.00,-16.70 4.28,-5.90 15.88,-5.16 6.93,2.25 9.82,13.51 0.00,7.29 -9.82,13.51 -6.93,2.25 -15.88,-5.16 -4.28,-5.90" fill="#F87171" stroke="rgba(255,255,255,0.55)" stroke-width="1.4" /></g>
    <g transform="translate(519.77 325.42) rotate(5.84)"><circle cx="0" cy="0" r="16.92" fill="#F87171" /><circle cx="6.77" cy="-0.68" r="14.22" fill="#0B1A34" /></g>
  </g>
</svg>
