<svg xmlns="http://www.w3.org/2000/svg" width="960" height="600" viewBox="0 0 960 600">
  <defs>
    <linearGradient id="bg137" x1="0%" y1="0%" x2="100%" y2="100%">
      <stop offset="0%" stop-color="#0F172A" />
      <stop offset="100%" stop-color="#1D4ED8" />
    </linearGradient>
    <filter id="shadow137" x="-20%" y="-20%" width="140%" height="140%">
      <feDropShadow dx="0" dy="2" stdDeviation="1.8" flood-color="rgba(0,0,0,0.36)" />
    </filter>
  </defs>

  <rect width="960" height="600" fill="url(#bg137)" />
  <rect x="24" y="24" width="912" height="552" rx="20" fill="rgba(255,255,255,0.045)" stroke="rgba(255,255,255,0.22)" />
  <g filter="url(#shadow137)">
    <g transform="translate(289.86 130.17) rotate(-1.39)"><circle cx="0" cy="0" r="19.41" fill="#A78BFA" stroke="rgba(255,255,255,0.55)" stroke-width="1.4" /></g>
    <g transform="translate(675.64 528.04) rotate(10.78)"><polygon points="0.00,-19.81 5.08,-6.99 18.84,-6.12 8.22,2.67 11.65,16.03 0.00,8.65 -11.65,16.03 -8.22,2.67 -18.84,-6.12 -5.08,-6.99" fill="#F97316" stroke="rgba(255,255,255,0.55)" stroke-width="1.4" /></g>
    <g transform="translate(371.03 467.95) rotate(-18.50)"><polygon points="-20.59,-7.41 3.29,-7.41 3.29,-15.65 22.65,0.00 3.29,15.65 3.29,7.41 -20.59,7.41" fill="#4ADE80" stroke="rgba(255,255,255,0.55)" stroke-width="1.2" /></g>
    <g transform="translate(133.24 460.55) rotate(25.71)"><path d="M 0 13.55 C -17.74 1.61, -19.35 -11.29, -7.74 -2.58 C -0.65 -13.55, 0.65 -13.55, 7.74 -2.58 C 19.35 -11.29, 17.74 1.61, 0 13.55 Z" fill="#A78BFA" stroke="rgba(255,255,255,0.55)" stroke-width="1.2" /></g>
    <g transform="translate(51.65 331.10) rotate(1.93)"><rect x="-18.07" y="-5.33" width="36.14" height="10.65" rx="5.33" fill="#22D3EE" /><rect x="-5.33" y="-18.07" width="10.65" height="36.14" rx="5.33" fill="#22D3EE" /></g>
    <g transform="translate(671.79 334.27) rotate(3.86)"><polygon points="0.00,-21.31 5.46,-7.52 20.26,-6.58 8.84,2.87 12.52,17.24 0.00,9.30 -12.52,17.24 -8.84,2.87 -20.26,-6.58 -5.46,-7.52" fill="#34D399" stroke="rgba(255,255,255,0.55)" stroke-width="1.4" /></g>
    <g transform="translate(286.51 401.23) rotate(-21.77)"><polygon points="-18.18,-6.55 2.91,-6.55 2.91,-13.82 20.00,0.00 2.91,13.82 2.91,6.55 -18.18,6.55" fill="#C084FC" stroke="rgba(255,255,255,0.55)" stroke-width="1.2" /></g>
    <g transform="translate(370.23 402.25) rotate(22.42)"><polygon points="0.00,-19.38 4.97,-6.84 18.44,-5.99 8.04,2.61 11.39,15.68 0.00,8.46 -11.39,15.68 -8.04,2.61 -18.44,-5.99 -4.97,-6.84" fill="#60A5FA" stroke="rgba(255,255,255,0.55)" stroke-width="1.4" /></g>
    <g transform="translate(823.02 331.05) rotate(-1.82)"><polygon points="0.00,-17.94 4.60,-6.33 17.06,-5.54 7.44,2.42 10.54,14.51 0.00,7.83 -10.54,14.51 -7.44,2.42 -17.06,-5.54 -4.60,-6.33" fill="#C084FC" stroke="rgba(255,255,255,0.55)" stroke-width="1.4" /></g>
    <g transform="translate(284.23 337.33) rotate(24.79)"><circle cx="0" cy="0" r="17.73" fill="#FBBF24" stroke="rgba(255,255,255,0.55)" stroke-width="1.4" /></g>
    <g transform="translate(525.53 127.79) rotate(4.85)"><circle cx="0" cy="0" r="18.11" fill="#34D399" /><circle cx="7.25" cy="-0.72" r="15.22" fill="#0B1A34" /></g>
    <g transform="translate(134.62 390.59) rotate(6.71)"><path d="M 0 15.05 C -19.71 1.79, -21.50 -12.54, -8.60 -2.87 C -0.72 -15.05, 0.72 -15.05, 8.60 -2.87 C 21.50 -12.54, 19.71 1.79, 0 15.05 Z" fill="#4ADE80" stroke="rgba(255,255,255,0.55)" stroke-width="1.2" /></g>
    <g transform="translate(439.93 534.18) rotate(-14.84)"><polygon points="-16.03,-5.77 2.56,-5.77 2.56,-12.18 17.63,0.00 2.56,12.18 2.56,5.77 -16.03,5.77" fill="#FB7185" stroke="rgba(255,255,255,0.55)" stroke-width="1.2" /></g>
    <g transform="translate(516.38 273.63) rotate(15.59)"><polygon points="0,-17.97 16.11,12.40 -16.11,12.40" fill="#F97316" stroke="rgba(255,255,255,0.55)" stroke-width="1.4" /></g>
    <g transform="translate(900.02 209.15) rotate(10.02)"><polygon points="-19.73,-7.10 3.16,-7.10 3.16,-14.99 21.70,0.00 3.16,14.99 3.16,7.10 -19.73,7.10" fill="#A78BFA" stroke="rgba(255,255,255,0.55)" stroke-width="1.2" /></g>
    <g transform="translate(367.83 204.81) rotate(6.67)"><circle cx="0" cy="0" r="16.88" fill="#4ADE80" /><circle cx="6.75" cy="-0.68" r="14.18" fill="#0B1A34" /></g>
    <g transform="translate(599.63 529.29) rotate(-10.03)"><rect x="-16.06" y="-4.73" width="32.12" height="9.47" rx="4.73" fill="#FBBF24" /><rect x="-4.73" y="-16.06" width="9.47" height="32.12" rx="4.73" fill="#FBBF24" /></g>
    <g transform="translate(834.70 72.49) rotate(-16.31)"><circle cx="0" cy="0" r="15.34" fill="#A78BFA" stroke="rgba(255,255,255,0.55)" stroke-width="1.4" /></g>
    <g transform="translate(54.67 465.39) rotate(24.28)"><path d="M 0 12.27 C -16.07 1.46, -17.53 -10.23, -7.01 -2.34 C -0.58 -12.27, 0.58 -12.27, 7.01 -2.34 C 17.53 -10.23, 16.07 1.46, 0 12.27 Z" fill="#FB7185" stroke="rgba(255,255,255,0.55)" stroke-width="1.2" /></g>
    <g transform="translate(902.27 459.19) rotate(-23.35)"><polygon points="-14.45,-5.20 2.31,-5.20 2.31,-10.98 15.90,0.00 2.31,10.98 2.31,5.20 -14.45,5.20" fill="#F97316" stroke="rgba(255,255,255,0.55)" stroke-width="1.2" /></g>
    <g transform="translate(913.96 531.18) rotate(1.91)"><circle cx="0" cy="0" r="20.91" fill="#FB7185" stroke="rgba(255,255,255,0.55)" stroke-width="1.4" /></g>
    <g transform="translate(132.09 265.35) rotate(8.33)"><polygon points="-14.93,-5.38 2.39,-5.38 2.39,-11.35 16.43,0.00 2.39,11.35 2.39,5.38 -14.93,5.38" fill="#60A5FA" stroke="rgba(255,255,255,0.55)" stroke-width="1.2" /></g>
    <g transform="translate(282.61 262.35) rotate(-19.98)"><polygon points="-15.89,-5.72 2.54,-5.72 2.54,-12.07 17.48,0.00 2.54,12.07 2.54,5.72 -15.89,5.72" fill="#4ADE80" stroke="rgba(255,255,255,0.55)" stroke-width="1.2" /></g>
    <g transform="translate(908.13 392.39) rotate(-6.12)"><polygon points="-18.13,-6.53 2.90,-6.53 2.90,-13.78 19.94,0.00 2.90,13.78 2.90,6.53 -18.13,6.53" fill="#22D3EE" stroke="rgba(255,255,255,0.55)" stroke-width="1.2" /></g>
    <g transform="translate(440.44 206.31) rotate(-6.96)"><polygon points="-20.55,-7.40 3.29,-7.40 3.29,-15.62 22.61,0.00 3.29,15.62 3.29,7.40 -20.55,7.40" fill="#FBBF24" stroke="rgba(255,255,255,0.55)" stroke-width="1.2" /></g>
    <g transform="translate(129.65 526.67) rotate(-8.41)"><path d="M 0 13.12 C -17.19 1.56, -18.75 -10.94, -7.50 -2.50 C -0.62 -13.12, 0.62 -13.12, 7.50 -2.50 C 18.75 -10.94, 17.19 1.56, 0 13.12 Z" fill="#60A5FA" stroke="rgba(255,255,255,0.55)" stroke-width="1.2" /></g>
    <g transform="translate(829.23 404.85) rotate(26.01)"><path d="M 0 16.90 C -22.13 2.01, -24.15 -14.08, -9.66 -3.22 C -0.80 -16.90, 0.80 -16.90, 9.66 -3.22 C 24.15 -14.08, 22.13 2.01, 0 16.90 Z" fill="#34D399" stroke="rgba(255,255,255,0.55)" stroke-width="1.2" /></g>
    <g transform="translate(908.84 67.98) rotate(6.80)"><circle cx="0" cy="0" r="18.18" fill="#C084FC" /><circle cx="7.27" cy="-0.73" r="15.27" fill="#0B1A34" /></g>
    <g transform="translate(759.77 456.66) rotate(-8.01)"><polygon points="-18.22,-6.56 2.92,-6.56 2.92,-13.85 20.05,0.00 2.92,13.85 2.92,6.56 -18.22,6.56" fill="#C084FC" stroke="rgba(255,255,255,0.55)" stroke-width="1.2" /></g>
    <g transform="translate(45.16 403.88) rotate(-0.64)"><polygon points="-20.78,-7.48 3.32,-7.48 3.32,-15.79 22.86,0.00 3.32,15.79 3.32,7.48 -20.78,7.48" fill="#FBBF24" stroke="rgba(255,255,255,0.55)" stroke-width="1.2" /></g>
    <g transform="translate(285.79 466.75) rotate(5.26)"><path d="M 0 13.39 C -17.54 1.59, -19.13 -11.16, -7.65 -2.55 C -0.64 -13.39, 0.64 -13.39, 7.65 -2.55 C 19.13 -11.16, 17.54 1.59, 0 13.39 Z" fill="#FB7185" stroke="rgba(255,255,255,0.55)" stroke-width="1.2" /></g>
    <g transform="translate(521.30 66.02) rotate(-12.34)"><polygon points="0,-16.93 15.18,11.68 -15.18,11.68" fill="#60A5FA" stroke="rgba(255,255,255,0.55)" stroke-width="1.4" /></g>
    <g transform="translate(521.73 339.23) rotate(-19.37)"><polygon points="-17.12,-6.16 2.74,-6.16 2.74,-13.01 18.83,0.00 2.74,13.01 2.74,6.16 -17.12,6.16" fill="#F87171" stroke="rgba(255,255,255,0.55)" stroke-width="1.2" /></g>
    <g transform="translate(45.79 532.58) rotate(8.24)"><rect x="-17.15" y="-5.06" width="34.31" height="10.11" rx="5.06" fill="#A78BFA" /><rect x="-5.06" y="-17.15" width="10.11" height="34.31" rx="5.06" fill="#A78BFA" /></g>
    <g transform="translate(671.00 403.29) rotate(23.16)"><polygon points="0,-21.84 19.58,15.06 -19.58,15.06" fill="#F87171" stroke="rgba(255,255,255,0.55)" stroke-width="1.4" /></g>
    <g transform="translate(363.79 331.97) rotate(-15.97)"><path d="M 0 13.89 C -18.18 1.65, -19.84 -11.57, -7.93 -2.64 C -0.66 -13.89, 0.66 -13.89, 7.93 -2.64 C 19.84 -11.57, 18.18 1.65, 0 13.89 Z" fill="#C084FC" stroke="rgba(255,255,255,0.55)" stroke-width="1.2" /></g>
    <g transform="translate(212.47 201.03) rotate(10.36)"><polygon points="-18.67,-6.72 2.99,-6.72 2.99,-14.19 20.54,0.00 2.99,14.19 2.99,6.72 -18.67,6.72" fill="#60A5FA" stroke="rgba(255,255,255,0.55)" stroke-width="1.2" /></g>
    <g transform="translate(666.68 139.50) rotate(-7.43)"><circle cx="0" cy="0" r="18.66" fill="#60A5FA" /><circle cx="7.46" cy="-0.75" r="15.68" fill="#0B1A34" /></g>
    <g transform="translate(595.34 333.28) rotate(-27.96)"><polygon points="-18.14,-6.53 2.90,-6.53 2.90,-13.78 19.95,0.00 2.90,13.78 2.90,6.53 -18.14,6.53" fill="#34D399" stroke="rgba(255,255,255,0.55)" stroke-width="1.2" /></g>
    <g transform="translate(50.57 267.31) rotate(14.86)"><polygon points="-20.11,-7.24 3.22,-7.24 3.22,-15.28 22.12,0.00 3.22,15.28 3.22,7.24 -20.11,7.24" fill="#4ADE80" stroke="rgba(255,255,255,0.55)" stroke-width="1.2" /></g>
  </g>
</svg>
