<svg xmlns="http://www.w3.org/2000/svg" width="960" height="600" viewBox="0 0 960 600">
  <defs>
    <linearGradient id="bg82" x1="0%" y1="0%" x2="100%" y2="100%">
      <stop offset="0%" stop-color="#0F172A" />
      <stop offset="100%" stop-color="#1D4ED8" />
    </linearGradient>
    <filter id="shadow82" x="-20%" y="-20%" width="140%" height="140%">
      <feDropShadow dx="0" dy="2" stdDeviation="1.8" flood-color="rgba(0,0,0,0.36)" />
    </filter>
  </defs>

  <rect width="960" height="600" fill="url(#bg82)" />
  <rect x="24" y="24" width="912" height="552" rx="20" fill="rgba(255,255,255,0.045)" stroke="rgba(255,255,255,0.22)" />
  <g filter="url(#shadow82)">
    <g transform="translate(832.52 522.14) rotate(-8.89)"><polygon points="-16.96,-6.11 2.71,-6.11 2.71,-12.89 18.66,0.00 2.71,12.89 2.71,6.11 -16.96,6.11" fill="#60A5FA" stroke="rgba(255,255,255,0.55)" stroke-width="1.2" /></g>
    <g transform="translate(123.89 333.65) rotate(-17.35)"><polygon points="0,-16.55 14.84,11.41 -14.84,11.41" fill="#F87171" stroke="rgba(255,255,255,0.55)" stroke-width="1.4" /></g>
    <g transform="translate(523.13 459.94) rotate(10.50)"><polygon points="-16.46,-5.92 2.63,-5.92 2.63,-12.51 18.10,0.00 2.63,12.51 2.63,5.92 -16.46,5.92" fill="#34D399" stroke="rgba(255,255,255,0.55)" stroke-width="1.2" /></g>
    <g transform="translate(829.82 259.92) rotate(-25.23)"><polygon points="-17.90,-6.44 2.86,-6.44 2.86,-13.60 19.69,0.00 2.86,13.60 2.86,6.44 -17.90,6.44" fill="#C084FC" stroke="rgba(255,255,255,0.55)" stroke-width="1.2" /></g>
    <g transform="translate(439.81 270.64) rotate(14.44)"><circle cx="0" cy="0" r="15.70" fill="#F87171" stroke="rgba(255,255,255,0.55)" stroke-width="1.4" /></g>
    <g transform="translate(666.79 456.44) rotate(-5.56)"><polygon points="0,-19.47 17.45,13.42 -17.45,13.42" fill="#F87171" stroke="rgba(255,255,255,0.55)" stroke-width="1.4" /></g>
    <g transform="translate(57.64 329.86) rotate(3.54)"><circle cx="0" cy="0" r="18.66" fill="#F97316" stroke="rgba(255,255,255,0.55)" stroke-width="1.4" /></g>
    <g transform="translate(526.42 135.68) rotate(-7.92)"><polygon points="0,-21.19 19.00,14.61 -19.00,14.61" fill="#FB7185" stroke="rgba(255,255,255,0.55)" stroke-width="1.4" /></g>
    <g transform="translate(292.40 391.01) rotate(-20.77)"><polygon points="0,-18.57 16.65,12.81 -16.65,12.81" fill="#A78BFA" stroke="rgba(255,255,255,0.55)" stroke-width="1.4" /></g>
    <g transform="translate(667.54 535.43) rotate(14.74)"><circle cx="0" cy="0" r="14.15" fill="#F87171" stroke="rgba(255,255,255,0.55)" stroke-width="1.4" /></g>
    <g transform="translate(671.02 76.89) rotate(27.78)"><rect x="-17.16" y="-17.16" width="34.33" height="34.33" rx="3.73" fill="#F97316" stroke="rgba(255,255,255,0.55)" stroke-width="1.4" /></g>
    <g transform="translate(281.93 208.43) rotate(0.10)"><rect x="-15.02" y="-15.02" width="30.03" height="30.03" rx="3.26" fill="#34D399" stroke="rgba(255,255,255,0.55)" stroke-width="1.4" /></g>
    <g transform="translate(51.47 69.36) rotate(-21.85)"><rect x="-15.67" y="-15.67" width="31.35" height="31.35" rx="3.41" fill="#F97316" stroke="rgba(255,255,255,0.55)" stroke-width="1.4" /></g>
    <g transform="translate(56.57 270.02) rotate(15.68)"><polygon points="0,-21.97 19.69,15.15 -19.69,15.15" fill="#4ADE80" stroke="rgba(255,255,255,0.55)" stroke-width="1.4" /></g>
    <g transform="translate(365.90 196.14) rotate(-8.31)"><rect x="-13.11" y="-13.11" width="26.23" height="26.23" rx="2.85" fill="#22D3EE" stroke="rgba(255,255,255,0.55)" stroke-width="1.4" /></g>
    <g transform="translate(128.47 264.52) rotate(-5.60)"><rect x="-14.96" y="-14.96" width="29.93" height="29.93" rx="3.25" fill="#4ADE80" stroke="rgba(255,255,255,0.55)" stroke-width="1.4" /></g>
    <g transform="translate(279.92 65.44) rotate(24.19)"><rect x="-18.91" y="-18.91" width="37.82" height="37.82" rx="4.11" fill="#FB7185" stroke="rgba(255,255,255,0.55)" stroke-width="1.4" /></g>
    <g transform="translate(746.70 536.65) rotate(-8.78)"><circle cx="0" cy="0" r="15.82" fill="#60A5FA" stroke="rgba(255,255,255,0.55)" stroke-width="1.4" /></g>
  </g>
</svg>
