<svg xmlns="http://www.w3.org/2000/svg" width="960" height="600" viewBox="0 0 960 600">
  <defs>
    <linearGradient id="bg109" x1="0%" y1="0%" x2="100%" y2="100%">
      <stop offset="0%" stop-color="#0F172A" />
      <stop offset="100%" stop-color="#1D4ED8" />
    </linearGradient>
    <filter id="shadow109" x="-20%" y="-20%" width="140%" height="140%">
      <feDropShadow dx="0" dy="2" stdDeviation="1.8" flood-color="rgba(0,0,0,0.36)" />
    </filter>
  </defs>

  <rect width="960" height="600" fill="url(#bg109)" />
  <rect x="24" y="24" width="912" height="552" rx="20" fill="rgba(255,255,255,0.045)" stroke="rgba(255,255,255,0.22)" />
  <g filter="url(#shadow109)">
    <g transform="translate(123.88 207.58) rotate(-2.61)"><circle cx="0" cy="0" r="18.03" fill="#34D399" stroke="rgba(255,255,255,0.55)" stroke-width="1.4" /><circle cx="-6.49" cy="-4.33" r="2.88" fill="#1F2937" /><circle cx="6.49" cy="-4.33" r="2.88" fill="#1F2937" /><path d="M -13.70 5.05 Q 0 12.26 13.70 5.05" fill="none" stroke="#1F2937" stroke-width="2.2" stroke-linecap="round" /></g>
    <g transform="translate(443.47 325.06) rotate(-16.57)"><rect x="-15.07" y="-4.44" width="30.14" height="8.88" rx="4.44" fill="#C084FC" /><rect x="-4.44" y="-15.07" width="8.88" height="30.14" rx="4.44" fill="#C084FC" /></g>
    <g transform="translate(362.48 530.91) rotate(23.82)"><rect x="-16.63" y="-4.90" width="33.25" height="9.80" rx="4.90" fill="#C084FC" /><rect x="-4.90" y="-16.63" width="9.80" height="33.25" rx="4.90" fill="#C084FC" /></g>
    <g transform="translate(525.29 205.51) rotate(-18.12)"><polygon points="-18.83,-6.78 3.01,-6.78 3.01,-14.31 20.71,0.00 3.01,14.31 3.01,6.78 -18.83,6.78" fill="#60A5FA" stroke="rgba(255,255,255,0.55)" stroke-width="1.2" /></g>
    <g transform="translate(370.67 63.14) rotate(-6.38)"><circle cx="0" cy="0" r="15.92" fill="#34D399" stroke="rgba(255,255,255,0.55)" stroke-width="1.4" /><circle cx="-5.73" cy="-3.82" r="2.55" fill="#1F2937" /><circle cx="5.73" cy="-3.82" r="2.55" fill="#1F2937" /><path d="M -12.10 4.46 Q 0 10.83 12.10 4.46" fill="none" stroke="#1F2937" stroke-width="2.2" stroke-linecap="round" /></g>
    <g transform="translate(909.37 390.91) rotate(8.83)"><polygon points="0,-19.74 17.70,13.61 -17.70,13.61" fill="#C084FC" stroke="rgba(255,255,255,0.55)" stroke-width="1.4" /></g>
    <g transform="translate(137.48 139.16) rotate(11.37)"><rect x="-16.01" y="-4.72" width="32.01" height="9.44" rx="4.72" fill="#A78BFA" /><rect x="-4.72" y="-16.01" width="9.44" height="32.01" rx="4.72" fill="#A78BFA" /></g>
    <g transform="translate(133.81 72.44) rotate(-0.82)"><rect x="-18.50" y="-5.45" width="36.99" height="10.90" rx="5.45" fill="#4ADE80" /><rect x="-5.45" y="-18.50" width="10.90" height="36.99" rx="5.45" fill="#4ADE80" /></g>
    <g transform="translate(283.59 527.79) rotate(1.32)"><polygon points="0.00,-16.13 4.14,-5.69 15.34,-4.98 6.69,2.17 9.48,13.05 0.00,7.04 -9.48,13.05 -6.69,2.17 -15.34,-4.98 -4.14,-5.69" fill="#60A5FA" stroke="rgba(255,255,255,0.55)" stroke-width="1.4" /></g>
    <g transform="translate(288.77 394.39) rotate(-4.61)"><circle cx="0" cy="0" r="14.43" fill="#C084FC" stroke="rgba(255,255,255,0.55)" stroke-width="1.4" /><circle cx="-5.20" cy="-3.46" r="2.31" fill="#1F2937" /><circle cx="5.20" cy="-3.46" r="2.31" fill="#1F2937" /><path d="M -10.97 4.04 Q 0 9.81 10.97 4.04" fill="none" stroke="#1F2937" stroke-width="2.2" stroke-linecap="round" /></g>
    <g transform="translate(44.96 464.88) rotate(20.41)"><polygon points="0.00,-21.82 5.60,-7.70 20.75,-6.74 9.05,2.94 12.82,17.65 0.00,9.52 -12.82,17.65 -9.05,2.94 -20.75,-6.74 -5.60,-7.70" fill="#60A5FA" stroke="rgba(255,255,255,0.55)" stroke-width="1.4" /></g>
    <g transform="translate(833.48 64.39) rotate(-9.17)"><polygon points="0,-17.74 15.90,12.23 -15.90,12.23" fill="#C084FC" stroke="rgba(255,255,255,0.55)" stroke-width="1.4" /></g>
    <g transform="translate(758.80 62.75) rotate(-13.88)"><rect x="-18.02" y="-5.31" width="36.04" height="10.62" rx="5.31" fill="#F97316" /><rect x="-5.31" y="-18.02" width="10.62" height="36.04" rx="5.31" fill="#F97316" /></g>
    <g transform="translate(436.28 259.30) rotate(24.73)"><rect x="-15.09" y="-4.45" width="30.19" height="8.90" rx="4.45" fill="#FBBF24" /><rect x="-4.45" y="-15.09" width="8.90" height="30.19" rx="4.45" fill="#FBBF24" /></g>
    <g transform="translate(209.25 462.69) rotate(19.35)"><rect x="-16.67" y="-16.67" width="33.34" height="33.34" rx="3.62" fill="#60A5FA" stroke="rgba(255,255,255,0.55)" stroke-width="1.4" /></g>
    <g transform="translate(439.03 203.40) rotate(-22.06)"><rect x="-16.49" y="-4.86" width="32.99" height="9.72" rx="4.86" fill="#C084FC" /><rect x="-4.86" y="-16.49" width="9.72" height="32.99" rx="4.86" fill="#C084FC" /></g>
  </g>
</svg>
