<svg xmlns="http://www.w3.org/2000/svg" width="960" height="600" viewBox="0 0 960 600">
  <defs>
    <linearGradient id="bg20" x1="0%" y1="0%" x2="100%" y2="100%">
      <stop offset="0%" stop-color="#0F172A" />
      <stop offset="100%" stop-color="#1D4ED8" />
    </linearGradient>
    <filter id="shadow20" x="-20%" y="-20%" width="140%" height="140%">
      <feDropShadow dx="0" dy="2" stdDeviation="1.8" flood-color="rgba(0,0,0,0.36)" />
    </filter>
  </defs>

  <rect width="960" height="600" fill="url(#bg20)" />
  <rect x="24" y="24" width="912" height="552" rx="20" fill="rgba(255,255,255,0.045)" stroke="rgba(255,255,255,0.22)" />
  <g filter="url(#shadow20)">
    <g transform="translate(278.08 134.45) rotate(-0.20)"><circle cx="0" cy="0" r="15.17" fill="#A78BFA" /><circle cx="6.07" cy="-0.61" r="12.74" fill="#0B1A34" /></g>
    <g transform="translate(746.31 198.47) rotate(10.48)"><circle cx="0" cy="0" r="14.53" fill="#60A5FA" stroke="rgba(255,255,255,0.55)" stroke-width="1.4" /></g>
    <g transform="translate(758.11 531.95) rotate(2.24)"><circle cx="0" cy="0" r="17.34" fill="#22D3EE" /><circle cx="6.94" cy="-0.69" r="14.57" fill="#0B1A34" /></g>
    <g transform="translate(596.77 139.74) rotate(-7.20)"><circle cx="0" cy="0" r="18.74" fill="#C084FC" /><circle cx="7.50" cy="-0.75" r="15.74" fill="#0B1A34" /></g>
    <g transform="translate(364.18 467.73) rotate(-1.34)"><circle cx="0" cy="0" r="17.32" fill="#FB7185" /><circle cx="6.93" cy="-0.69" r="14.55" fill="#0B1A34" /></g>
    <g transform="translate(590.14 200.24) rotate(0.29)"><circle cx="0" cy="0" r="15.81" fill="#4ADE80" /><circle cx="6.33" cy="-0.63" r="13.28" fill="#0B1A34" /></g>
    <g transform="translate(286.80 73.37) rotate(-4.36)"><circle cx="0" cy="0" r="18.24" fill="#22D3EE" /><circle cx="7.30" cy="-0.73" r="15.32" fill="#0B1A34" /></g>
    <g transform="translate(909.86 465.89) rotate(4.81)"><polygon points="0,-17.60 17.60,0 0,17.60 -17.60,0" fill="#A78BFA" stroke="rgba(255,255,255,0.55)" stroke-width="1.4" /></g>
    <g transform="translate(49.71 462.87) rotate(5.67)"><polygon points="0,-15.76 14.13,10.87 -14.13,10.87" fill="#60A5FA" stroke="rgba(255,255,255,0.55)" stroke-width="1.4" /></g>
    <g transform="translate(836.98 143.43) rotate(-3.10)"><circle cx="0" cy="0" r="19.65" fill="#4ADE80" /><circle cx="7.86" cy="-0.79" r="16.51" fill="#0B1A34" /></g>
    <g transform="translate(49.53 262.32) rotate(-4.00)"><circle cx="0" cy="0" r="14.58" fill="#FB7185" /><circle cx="5.83" cy="-0.58" r="12.24" fill="#0B1A34" /></g>
    <g transform="translate(908.35 67.23) rotate(2.84)"><polygon points="0,-16.69 14.97,11.51 -14.97,11.51" fill="#FBBF24" stroke="rgba(255,255,255,0.55)" stroke-width="1.4" /></g>
    <g transform="translate(125.67 69.30) rotate(8.43)"><polygon points="0,-18.75 16.81,12.93 -16.81,12.93" fill="#C084FC" stroke="rgba(255,255,255,0.55)" stroke-width="1.4" /></g>
    <g transform="translate(900.96 401.05) rotate(17.91)"><circle cx="0" cy="0" r="14.14" fill="#FB7185" stroke="rgba(255,255,255,0.55)" stroke-width="1.4" /></g>
    <g transform="translate(369.93 528.58) rotate(-6.64)"><circle cx="0" cy="0" r="20.32" fill="#A78BFA" /><circle cx="8.13" cy="-0.81" r="17.07" fill="#0B1A34" /></g>
    <g transform="translate(290.64 260.16) rotate(4.14)"><circle cx="0" cy="0" r="15.91" fill="#34D399" /><circle cx="6.37" cy="-0.64" r="13.37" fill="#0B1A34" /></g>
    <g transform="translate(519.27 77.23) rotate(9.79)"><polygon points="0,-15.70 15.70,0 0,15.70 -15.70,0" fill="#A78BFA" stroke="rgba(255,255,255,0.55)" stroke-width="1.4" /></g>
    <g transform="translate(446.38 267.06) rotate(-1.44)"><circle cx="0" cy="0" r="15.49" fill="#60A5FA" /><circle cx="6.20" cy="-0.62" r="13.01" fill="#0B1A34" /></g>
    <g transform="translate(201.46 391.14) rotate(13.35)"><circle cx="0" cy="0" r="15.86" fill="#FBBF24" stroke="rgba(255,255,255,0.55)" stroke-width="1.4" /></g>
    <g transform="translate(131.17 529.60) rotate(23.31)"><polygon points="0,-22.70 20.35,15.65 -20.35,15.65" fill="#F97316" stroke="rgba(255,255,255,0.55)" stroke-width="1.4" /></g>
    <g transform="translate(135.38 261.87) rotate(7.77)"><circle cx="0" cy="0" r="19.48" fill="#A78BFA" /><circle cx="7.79" cy="-0.78" r="16.36" fill="#0B1A34" /></g>
    <g transform="translate(595.01 537.63) rotate(7.16)"><circle cx="0" cy="0" r="18.82" fill="#4ADE80" stroke="rgba(255,255,255,0.55)" stroke-width="1.4" /></g>
    <g transform="translate(599.20 396.77) rotate(-20.69)"><polygon points="0,-14.25 14.25,0 0,14.25 -14.25,0" fill="#F97316" stroke="rgba(255,255,255,0.55)" stroke-width="1.4" /></g>
    <g transform="translate(135.52 330.05) rotate(-26.89)"><polygon points="0,-16.56 16.56,0 0,16.56 -16.56,0" fill="#60A5FA" stroke="rgba(255,255,255,0.55)" stroke-width="1.4" /></g>
    <g transform="translate(205.05 62.04) rotate(-15.20)"><polygon points="0,-20.98 18.81,14.47 -18.81,14.47" fill="#C084FC" stroke="rgba(255,255,255,0.55)" stroke-width="1.4" /></g>
    <g transform="translate(435.40 465.52) rotate(-21.51)"><polygon points="0,-21.93 19.66,15.12 -19.66,15.12" fill="#C084FC" stroke="rgba(255,255,255,0.55)" stroke-width="1.4" /></g>
    <g transform="translate(822.82 76.71) rotate(-7.23)"><circle cx="0" cy="0" r="17.50" fill="#F87171" /><circle cx="7.00" cy="-0.70" r="14.70" fill="#0B1A34" /></g>
    <g transform="translate(292.80 535.42) rotate(-0.84)"><circle cx="0" cy="0" r="17.39" fill="#22D3EE" stroke="rgba(255,255,255,0.55)" stroke-width="1.4" /></g>
    <g transform="translate(832.80 202.22) rotate(-6.11)"><circle cx="0" cy="0" r="18.03" fill="#F87171" /><circle cx="7.21" cy="-0.72" r="15.14" fill="#0B1A34" /></g>
    <g transform="translate(209.41 338.35) rotate(-13.75)"><circle cx="0" cy="0" r="16.42" fill="#4ADE80" stroke="rgba(255,255,255,0.55)" stroke-width="1.4" /></g>
    <g transform="translate(822.48 330.02) rotate(-24.31)"><polygon points="0,-15.79 14.16,10.89 -14.16,10.89" fill="#FBBF24" stroke="rgba(255,255,255,0.55)" stroke-width="1.4" /></g>
    <g transform="translate(357.97 208.74) rotate(-11.51)"><polygon points="0,-16.51 16.51,0 0,16.51 -16.51,0" fill="#FBBF24" stroke="rgba(255,255,255,0.55)" stroke-width="1.4" /></g>
    <g transform="translate(134.51 134.92) rotate(14.93)"><polygon points="0,-16.91 15.16,11.66 -15.16,11.66" fill="#F87171" stroke="rgba(255,255,255,0.55)" stroke-width="1.4" /></g>
    <g transform="translate(824.99 522.75) rotate(-6.64)"><circle cx="0" cy="0" r="15.23" fill="#C084FC" /><circle cx="6.09" cy="-0.61" r="12.80" fill="#0B1A34" /></g>
    <g transform="translate(678.93 326.48) rotate(11.26)"><polygon points="0,-15.77 15.77,0 0,15.77 -15.77,0" fill="#A78BFA" stroke="rgba(255,255,255,0.55)" stroke-width="1.4" /></g>
    <g transform="translate(440.93 128.65) rotate(-23.23)"><circle cx="0" cy="0" r="16.62" fill="#34D399" stroke="rgba(255,255,255,0.55)" stroke-width="1.4" /></g>
    <g transform="translate(902.81 135.72) rotate(5.43)"><circle cx="0" cy="0" r="19.86" fill="#FBBF24" /><circle cx="7.95" cy="-0.79" r="16.68" fill="#0B1A34" /></g>
  </g>
</svg>
