<svg xmlns="http://www.w3.org/2000/svg" width="960" height="600" viewBox="0 0 960 600">
  <defs>
    <linearGradient id="bg173" x1="0%" y1="0%" x2="100%" y2="100%">
      <stop offset="0%" stop-color="#0F172A" />
      <stop offset="100%" stop-color="#1D4ED8" />
    </linearGradient>
    <filter id="shadow173" x="-20%" y="-20%" width="140%" height="140%">
      <feDropShadow dx="0" dy="2" stdDeviation="1.8" flood-color="rgba(0,0,0,0.36)" />
    </filter>
  </defs>

  <rect width="960" height="600" fill="url(#bg173)" />
  <rect x="24" y="24" width="912" height="552" rx="20" fill="rgba(255,255,255,0.045)" stroke="rgba(255,255,255,0.22)" />
  <g filter="url(#shadow173)">
    <g transform="translate(516.54 398.92) rotate(-9.99)"><rect x="-16.52" y="-16.52" width="33.04" height="33.04" rx="3.59" fill="#60A5FA" stroke="rgba(255,255,255,0.55)" stroke-width="1.4" /></g>
    <g transform="translate(597.49 141.59) rotate(25.28)"><polygon points="-17.57,-6.33 2.81,-6.33 2.81,-13.35 19.33,0.00 2.81,13.35 2.81,6.33 -17.57,6.33" fill="#C084FC" stroke="rgba(255,255,255,0.55)" stroke-width="1.2" /></g>
    <g transform="translate(601.27 468.21) rotate(-2.15)"><circle cx="0" cy="0" r="15.06" fill="#22D3EE" stroke="rgba(255,255,255,0.55)" stroke-width="1.4" /><circle cx="-5.42" cy="-3.61" r="2.41" fill="#1F2937" /><circle cx="5.42" cy="-3.61" r="2.41" fill="#1F2937" /><path d="M -11.45 4.22 Q 0 10.24 11.45 4.22" fill="none" stroke="#1F2937" stroke-width="2.2" stroke-linecap="round" /></g>
    <g transform="translate(52.90 328.22) rotate(-21.73)"><polygon points="-18.69,-6.73 2.99,-6.73 2.99,-14.20 20.55,0.00 2.99,14.20 2.99,6.73 -18.69,6.73" fill="#22D3EE" stroke="rgba(255,255,255,0.55)" stroke-width="1.2" /></g>
    <g transform="translate(209.10 77.24) rotate(-7.85)"><circle cx="0" cy="0" r="14.51" fill="#F97316" stroke="rgba(255,255,255,0.55)" stroke-width="1.4" /><circle cx="-5.22" cy="-3.48" r="2.32" fill="#1F2937" /><circle cx="5.22" cy="-3.48" r="2.32" fill="#1F2937" /><path d="M -11.03 4.06 Q 0 9.87 11.03 4.06" fill="none" stroke="#1F2937" stroke-width="2.2" stroke-linecap="round" /></g>
    <g transform="translate(911.52 201.54) rotate(-4.36)"><rect x="-13.56" y="-13.56" width="27.12" height="27.12" rx="2.95" fill="#C084FC" stroke="rgba(255,255,255,0.55)" stroke-width="1.4" /></g>
    <g transform="translate(122.53 396.95) rotate(21.87)"><polygon points="0.00,-15.62 4.01,-5.52 14.86,-4.83 6.48,2.11 9.18,12.64 0.00,6.82 -9.18,12.64 -6.48,2.11 -14.86,-4.83 -4.01,-5.52" fill="#22D3EE" stroke="rgba(255,255,255,0.55)" stroke-width="1.4" /></g>
    <g transform="translate(745.02 472.22) rotate(-4.33)"><circle cx="0" cy="0" r="19.52" fill="#4ADE80" stroke="rgba(255,255,255,0.55)" stroke-width="1.4" /><circle cx="-7.03" cy="-4.68" r="3.12" fill="#1F2937" /><circle cx="7.03" cy="-4.68" r="3.12" fill="#1F2937" /><path d="M -14.83 5.46 Q 0 13.27 14.83 5.46" fill="none" stroke="#1F2937" stroke-width="2.2" stroke-linecap="round" /></g>
    <g transform="translate(202.93 457.24) rotate(7.34)"><rect x="-17.28" y="-17.28" width="34.55" height="34.55" rx="3.76" fill="#C084FC" stroke="rgba(255,255,255,0.55)" stroke-width="1.4" /></g>
    <g transform="translate(369.51 140.09) rotate(6.42)"><circle cx="0" cy="0" r="14.91" fill="#60A5FA" /><circle cx="5.96" cy="-0.60" r="12.52" fill="#0B1A34" /></g>
    <g transform="translate(287.49 138.12) rotate(-0.13)"><circle cx="0" cy="0" r="17.20" fill="#34D399" stroke="rgba(255,255,255,0.55)" stroke-width="1.4" /><circle cx="-6.19" cy="-4.13" r="2.75" fill="#1F2937" /><circle cx="6.19" cy="-4.13" r="2.75" fill="#1F2937" /><path d="M -13.07 4.82 Q 0 11.70 13.07 4.82" fill="none" stroke="#1F2937" stroke-width="2.2" stroke-linecap="round" /></g>
    <g transform="translate(515.63 471.41) rotate(-0.43)"><rect x="-15.94" y="-15.94" width="31.88" height="31.88" rx="3.47" fill="#60A5FA" stroke="rgba(255,255,255,0.55)" stroke-width="1.4" /></g>
    <g transform="translate(681.20 402.95) rotate(-2.26)"><circle cx="0" cy="0" r="16.53" fill="#C084FC" /><circle cx="6.61" cy="-0.66" r="13.88" fill="#0B1A34" /></g>
    <g transform="translate(832.58 330.80) rotate(-26.30)"><polygon points="0.00,-17.31 4.44,-6.11 16.46,-5.35 7.18,2.33 10.18,14.01 0.00,7.55 -10.18,14.01 -7.18,2.33 -16.46,-5.35 -4.44,-6.11" fill="#F87171" stroke="rgba(255,255,255,0.55)" stroke-width="1.4" /></g>
    <g transform="translate(834.68 139.82) rotate(-12.93)"><polygon points="0.00,-18.23 4.68,-6.44 17.34,-5.63 7.57,2.46 10.72,14.75 0.00,7.96 -10.72,14.75 -7.57,2.46 -17.34,-5.63 -4.68,-6.44" fill="#FBBF24" stroke="rgba(255,255,255,0.55)" stroke-width="1.4" /></g>
    <g transform="translate(288.65 273.56) rotate(-4.14)"><polygon points="0.00,-16.40 4.21,-5.79 15.60,-5.07 6.81,2.21 9.64,13.27 0.00,7.16 -9.64,13.27 -6.81,2.21 -15.60,-5.07 -4.21,-5.79" fill="#4ADE80" stroke="rgba(255,255,255,0.55)" stroke-width="1.4" /></g>
    <g transform="translate(442.20 261.20) rotate(-13.03)"><polygon points="-15.54,-5.60 2.49,-5.60 2.49,-11.81 17.10,0.00 2.49,11.81 2.49,5.60 -15.54,5.60" fill="#34D399" stroke="rgba(255,255,255,0.55)" stroke-width="1.2" /></g>
    <g transform="translate(592.02 265.97) rotate(1.38)"><polygon points="0.00,-18.31 4.70,-6.47 17.42,-5.66 7.60,2.47 10.77,14.82 0.00,7.99 -10.77,14.82 -7.60,2.47 -17.42,-5.66 -4.70,-6.47" fill="#FBBF24" stroke="rgba(255,255,255,0.55)" stroke-width="1.4" /></g>
    <g transform="translate(137.31 130.85) rotate(-5.12)"><rect x="-13.32" y="-13.32" width="26.64" height="26.64" rx="2.90" fill="#FB7185" stroke="rgba(255,255,255,0.55)" stroke-width="1.4" /></g>
  </g>
</svg>
