<svg xmlns="http://www.w3.org/2000/svg" width="960" height="600" viewBox="0 0 960 600">
  <defs>
    <linearGradient id="bg159" x1="0%" y1="0%" x2="100%" y2="100%">
      <stop offset="0%" stop-color="#0F172A" />
      <stop offset="100%" stop-color="#1D4ED8" />
    </linearGradient>
    <filter id="shadow159" x="-20%" y="-20%" width="140%" height="140%">
      <feDropShadow dx="0" dy="2" stdDeviation="1.8" flood-color="rgba(0,0,0,0.36)" />
    </filter>
  </defs>

  <rect width="960" height="600" fill="url(#bg159)" />
  <rect x="24" y="24" width="912" height="552" rx="20" fill="rgba(255,255,255,0.045)" stroke="rgba(255,255,255,0.22)" />
  <g filter="url(#shadow159)">
    <g transform="translate(836.97 338.18) rotate(25.54)"><path d="M 0 12.28 C -16.08 1.46, -17.55 -10.24, -7.02 -2.34 C -0.58 -12.28, 0.58 -12.28, 7.02 -2.34 C 17.55 -10.24, 16.08 1.46, 0 12.28 Z" fill="#F87171" stroke="rgba(255,255,255,0.55)" stroke-width="1.2" /></g>
    <g transform="translate(368.85 194.75) rotate(-9.85)"><rect x="-16.53" y="-16.53" width="33.06" height="33.06" rx="3.59" fill="#C084FC" stroke="rgba(255,255,255,0.55)" stroke-width="1.4" /></g>
    <g transform="translate(677.79 64.59) rotate(0.57)"><polygon points="0,-16.21 14.53,11.18 -14.53,11.18" fill="#22D3EE" stroke="rgba(255,255,255,0.55)" stroke-width="1.4" /></g>
    <g transform="translate(202.36 205.87) rotate(-10.63)"><rect x="-19.44" y="-5.73" width="38.87" height="11.46" rx="5.73" fill="#F87171" /><rect x="-5.73" y="-19.44" width="11.46" height="38.87" rx="5.73" fill="#F87171" /></g>
    <g transform="translate(137.74 204.25) rotate(-27.31)"><rect x="-14.33" y="-4.22" width="28.65" height="8.45" rx="4.22" fill="#FBBF24" /><rect x="-4.22" y="-14.33" width="8.45" height="28.65" rx="4.22" fill="#FBBF24" /></g>
    <g transform="translate(440.66 463.94) rotate(-0.36)"><rect x="-19.23" y="-19.23" width="38.46" height="38.46" rx="4.18" fill="#F87171" stroke="rgba(255,255,255,0.55)" stroke-width="1.4" /></g>
    <g transform="translate(681.04 335.89) rotate(-20.00)"><polygon points="0,-15.99 14.34,11.03 -14.34,11.03" fill="#F87171" stroke="rgba(255,255,255,0.55)" stroke-width="1.4" /></g>
    <g transform="translate(122.33 142.61) rotate(7.64)"><circle cx="0" cy="0" r="19.62" fill="#22D3EE" stroke="rgba(255,255,255,0.55)" stroke-width="1.4" /><circle cx="-7.06" cy="-4.71" r="3.14" fill="#1F2937" /><circle cx="7.06" cy="-4.71" r="3.14" fill="#1F2937" /><path d="M -14.91 5.49 Q 0 13.34 14.91 5.49" fill="none" stroke="#1F2937" stroke-width="2.2" stroke-linecap="round" /></g>
    <g transform="translate(837.64 531.96) rotate(-5.87)"><circle cx="0" cy="0" r="20.29" fill="#C084FC" stroke="rgba(255,255,255,0.55)" stroke-width="1.4" /><circle cx="-7.30" cy="-4.87" r="3.25" fill="#1F2937" /><circle cx="7.30" cy="-4.87" r="3.25" fill="#1F2937" /><path d="M -15.42 5.68 Q 0 13.80 15.42 5.68" fill="none" stroke="#1F2937" stroke-width="2.2" stroke-linecap="round" /></g>
    <g transform="translate(133.78 261.16) rotate(21.20)"><rect x="-19.80" y="-5.84" width="39.60" height="11.67" rx="5.84" fill="#4ADE80" /><rect x="-5.84" y="-19.80" width="11.67" height="39.60" rx="5.84" fill="#4ADE80" /></g>
    <g transform="translate(824.37 66.64) rotate(4.27)"><rect x="-16.16" y="-16.16" width="32.31" height="32.31" rx="3.51" fill="#4ADE80" stroke="rgba(255,255,255,0.55)" stroke-width="1.4" /></g>
    <g transform="translate(510.95 459.08) rotate(20.16)"><rect x="-18.95" y="-18.95" width="37.90" height="37.90" rx="4.12" fill="#4ADE80" stroke="rgba(255,255,255,0.55)" stroke-width="1.4" /></g>
    <g transform="translate(370.76 467.93) rotate(4.29)"><circle cx="0" cy="0" r="14.33" fill="#34D399" stroke="rgba(255,255,255,0.55)" stroke-width="1.4" /><circle cx="-5.16" cy="-3.44" r="2.29" fill="#1F2937" /><circle cx="5.16" cy="-3.44" r="2.29" fill="#1F2937" /><path d="M -10.89 4.01 Q 0 9.74 10.89 4.01" fill="none" stroke="#1F2937" stroke-width="2.2" stroke-linecap="round" /></g>
    <g transform="translate(914.53 533.30) rotate(17.56)"><path d="M 0 17.63 C -23.08 2.10, -25.18 -14.69, -10.07 -3.36 C -0.84 -17.63, 0.84 -17.63, 10.07 -3.36 C 25.18 -14.69, 23.08 2.10, 0 17.63 Z" fill="#A78BFA" stroke="rgba(255,255,255,0.55)" stroke-width="1.2" /></g>
    <g transform="translate(445.87 328.18) rotate(-7.08)"><rect x="-13.31" y="-13.31" width="26.61" height="26.61" rx="2.89" fill="#4ADE80" stroke="rgba(255,255,255,0.55)" stroke-width="1.4" /></g>
    <g transform="translate(55.88 458.08) rotate(8.05)"><path d="M 0 12.81 C -16.77 1.52, -18.30 -10.67, -7.32 -2.44 C -0.61 -12.81, 0.61 -12.81, 7.32 -2.44 C 18.30 -10.67, 16.77 1.52, 0 12.81 Z" fill="#A78BFA" stroke="rgba(255,255,255,0.55)" stroke-width="1.2" /></g>
    <g transform="translate(599.01 271.15) rotate(-18.07)"><rect x="-13.58" y="-4.00" width="27.15" height="8.00" rx="4.00" fill="#4ADE80" /><rect x="-4.00" y="-13.58" width="8.00" height="27.15" rx="4.00" fill="#4ADE80" /></g>
  </g>
</svg>
