<svg xmlns="http://www.w3.org/2000/svg" width="960" height="600" viewBox="0 0 960 600">
  <defs>
    <linearGradient id="bg32" x1="0%" y1="0%" x2="100%" y2="100%">
      <stop offset="0%" stop-color="#0F172A" />
      <stop offset="100%" stop-color="#1D4ED8" />
    </linearGradient>
    <filter id="shadow32" x="-20%" y="-20%" width="140%" height="140%">
      <feDropShadow dx="0" dy="2" stdDeviation="1.8" flood-color="rgba(0,0,0,0.36)" />
    </filter>
  </defs>

  <rect width="960" height="600" fill="url(#bg32)" />
  <rect x="24" y="24" width="912" height="552" rx="20" fill="rgba(255,255,255,0.045)" stroke="rgba(255,255,255,0.22)" />
  <g filter="url(#shadow32)">
    <g transform="translate(357.45 128.24) rotate(16.83)"><rect x="-14.96" y="-4.41" width="29.91" height="8.82" rx="4.41" fill="#60A5FA" /><rect x="-4.41" y="-14.96" width="8.82" height="29.91" rx="4.41" fill="#60A5FA" /></g>
    <g transform="translate(512.27 394.38) rotate(-2.66)"><circle cx="0" cy="0" r="19.62" fill="#FBBF24" stroke="rgba(255,255,255,0.55)" stroke-width="1.4" /><circle cx="-7.06" cy="-4.71" r="3.14" fill="#1F2937" /><circle cx="7.06" cy="-4.71" r="3.14" fill="#1F2937" /><path d="M -14.91 5.49 Q 0 13.34 14.91 5.49" fill="none" stroke="#1F2937" stroke-width="2.2" stroke-linecap="round" /></g>
    <g transform="translate(674.76 531.33) rotate(-22.28)"><polygon points="0,-21.01 18.84,14.49 -18.84,14.49" fill="#34D399" stroke="rgba(255,255,255,0.55)" stroke-width="1.4" /></g>
    <g transform="translate(357.82 261.93) rotate(22.81)"><circle cx="0" cy="0" r="20.89" fill="#A78BFA" stroke="rgba(255,255,255,0.55)" stroke-width="1.4" /></g>
    <g transform="translate(278.48 272.80) rotate(-25.80)"><path d="M 0 14.54 C -19.04 1.73, -20.77 -12.11, -8.31 -2.77 C -0.69 -14.54, 0.69 -14.54, 8.31 -2.77 C 20.77 -12.11, 19.04 1.73, 0 14.54 Z" fill="#FBBF24" stroke="rgba(255,255,255,0.55)" stroke-width="1.2" /></g>
    <g transform="translate(52.48 195.72) rotate(5.71)"><circle cx="0" cy="0" r="20.29" fill="#F87171" stroke="rgba(255,255,255,0.55)" stroke-width="1.4" /></g>
    <g transform="translate(283.51 396.39) rotate(18.82)"><polygon points="0,-18.06 16.19,12.45 -16.19,12.45" fill="#F97316" stroke="rgba(255,255,255,0.55)" stroke-width="1.4" /></g>
    <g transform="translate(673.00 275.07) rotate(7.43)"><circle cx="0" cy="0" r="14.02" fill="#A78BFA" stroke="rgba(255,255,255,0.55)" stroke-width="1.4" /><circle cx="-5.05" cy="-3.36" r="2.24" fill="#1F2937" /><circle cx="5.05" cy="-3.36" r="2.24" fill="#1F2937" /><path d="M -10.65 3.92 Q 0 9.53 10.65 3.92" fill="none" stroke="#1F2937" stroke-width="2.2" stroke-linecap="round" /></g>
    <g transform="translate(748.01 68.38) rotate(-3.30)"><path d="M 0 14.53 C -19.02 1.73, -20.75 -12.11, -8.30 -2.77 C -0.69 -14.53, 0.69 -14.53, 8.30 -2.77 C 20.75 -12.11, 19.02 1.73, 0 14.53 Z" fill="#4ADE80" stroke="rgba(255,255,255,0.55)" stroke-width="1.2" /></g>
    <g transform="translate(912.96 197.78) rotate(2.61)"><path d="M 0 16.17 C -21.17 1.92, -23.10 -13.47, -9.24 -3.08 C -0.77 -16.17, 0.77 -16.17, 9.24 -3.08 C 23.10 -13.47, 21.17 1.92, 0 16.17 Z" fill="#60A5FA" stroke="rgba(255,255,255,0.55)" stroke-width="1.2" /></g>
    <g transform="translate(44.29 470.96) rotate(22.47)"><rect x="-14.42" y="-4.25" width="28.85" height="8.50" rx="4.25" fill="#60A5FA" /><rect x="-4.25" y="-14.42" width="8.50" height="28.85" rx="4.25" fill="#60A5FA" /></g>
    <g transform="translate(746.72 269.64) rotate(-9.80)"><polygon points="0,-18.28 16.39,12.61 -16.39,12.61" fill="#4ADE80" stroke="rgba(255,255,255,0.55)" stroke-width="1.4" /></g>
    <g transform="translate(914.34 402.54) rotate(-19.99)"><polygon points="0,-20.41 18.29,14.07 -18.29,14.07" fill="#F87171" stroke="rgba(255,255,255,0.55)" stroke-width="1.4" /></g>
    <g transform="translate(440.84 130.06) rotate(3.05)"><path d="M 0 13.05 C -17.08 1.55, -18.64 -10.87, -7.45 -2.48 C -0.62 -13.05, 0.62 -13.05, 7.45 -2.48 C 18.64 -10.87, 17.08 1.55, 0 13.05 Z" fill="#60A5FA" stroke="rgba(255,255,255,0.55)" stroke-width="1.2" /></g>
    <g transform="translate(284.52 133.95) rotate(21.89)"><path d="M 0 15.68 C -20.54 1.87, -22.41 -13.07, -8.96 -2.99 C -0.75 -15.68, 0.75 -15.68, 8.96 -2.99 C 22.41 -13.07, 20.54 1.87, 0 15.68 Z" fill="#F97316" stroke="rgba(255,255,255,0.55)" stroke-width="1.2" /></g>
    <g transform="translate(753.06 141.71) rotate(-3.86)"><path d="M 0 14.20 C -18.59 1.69, -20.28 -11.83, -8.11 -2.70 C -0.68 -14.20, 0.68 -14.20, 8.11 -2.70 C 20.28 -11.83, 18.59 1.69, 0 14.20 Z" fill="#C084FC" stroke="rgba(255,255,255,0.55)" stroke-width="1.2" /></g>
    <g transform="translate(592.55 467.26) rotate(20.85)"><rect x="-15.03" y="-4.43" width="30.06" height="8.86" rx="4.43" fill="#60A5FA" /><rect x="-4.43" y="-15.03" width="8.86" height="30.06" rx="4.43" fill="#60A5FA" /></g>
    <g transform="translate(367.93 335.48) rotate(-27.18)"><circle cx="0" cy="0" r="20.30" fill="#FB7185" stroke="rgba(255,255,255,0.55)" stroke-width="1.4" /></g>
    <g transform="translate(433.49 399.98) rotate(-13.34)"><path d="M 0 14.51 C -19.00 1.73, -20.73 -12.09, -8.29 -2.76 C -0.69 -14.51, 0.69 -14.51, 8.29 -2.76 C 20.73 -12.09, 19.00 1.73, 0 14.51 Z" fill="#FB7185" stroke="rgba(255,255,255,0.55)" stroke-width="1.2" /></g>
  </g>
</svg>
