<svg xmlns="http://www.w3.org/2000/svg" width="960" height="600" viewBox="0 0 960 600">
  <defs>
    <linearGradient id="bg64" x1="0%" y1="0%" x2="100%" y2="100%">
      <stop offset="0%" stop-color="#0F172A" />
      <stop offset="100%" stop-color="#1D4ED8" />
    </linearGradient>
    <filter id="shadow64" x="-20%" y="-20%" width="140%" height="140%">
      <feDropShadow dx="0" dy="2" stdDeviation="1.8" flood-color="rgba(0,0,0,0.36)" />
    </filter>
  </defs>

  <rect width="960" height="600" fill="url(#bg64)" />
  <rect x="24" y="24" width="912" height="552" rx="20" fill="rgba(255,255,255,0.045)" stroke="rgba(255,255,255,0.22)" />
  <g filter="url(#shadow64)">
    <g transform="translate(512.53 77.73) rotate(-1.86)"><circle cx="0" cy="0" r="19.36" fill="#60A5FA" /><circle cx="7.74" cy="-0.77" r="16.26" fill="#0B1A34" /></g>
    <g transform="translate(357.93 273.88) rotate(-1.87)"><polygon points="-15.53,-5.59 2.49,-5.59 2.49,-11.81 17.09,0.00 2.49,11.81 2.49,5.59 -15.53,5.59" fill="#FB7185" stroke="rgba(255,255,255,0.55)" stroke-width="1.2" /></g>
    <g transform="translate(760.12 339.80) rotate(-3.90)"><polygon points="0,-19.04 19.04,0 0,19.04 -19.04,0" fill="#FB7185" stroke="rgba(255,255,255,0.55)" stroke-width="1.4" /></g>
    <g transform="translate(828.71 197.04) rotate(12.40)"><circle cx="0" cy="0" r="19.47" fill="#60A5FA" stroke="rgba(255,255,255,0.55)" stroke-width="1.4" /></g>
    <g transform="translate(355.40 69.64) rotate(6.84)"><circle cx="0" cy="0" r="17.21" fill="#C084FC" stroke="rgba(255,255,255,0.55)" stroke-width="1.4" /></g>
    <g transform="translate(594.91 271.92) rotate(-13.75)"><circle cx="0" cy="0" r="16.67" fill="#F87171" stroke="rgba(255,255,255,0.55)" stroke-width="1.4" /></g>
    <g transform="translate(212.32 460.35) rotate(-3.03)"><circle cx="0" cy="0" r="17.99" fill="#F97316" /><circle cx="7.20" cy="-0.72" r="15.12" fill="#0B1A34" /></g>
    <g transform="translate(750.87 460.10) rotate(-2.44)"><circle cx="0" cy="0" r="16.65" fill="#F87171" /><circle cx="6.66" cy="-0.67" r="13.98" fill="#0B1A34" /></g>
    <g transform="translate(915.93 274.31) rotate(16.31)"><polygon points="-19.27,-6.94 3.08,-6.94 3.08,-14.64 21.19,0.00 3.08,14.64 3.08,6.94 -19.27,6.94" fill="#C084FC" stroke="rgba(255,255,255,0.55)" stroke-width="1.2" /></g>
    <g transform="translate(750.13 72.26) rotate(6.53)"><circle cx="0" cy="0" r="20.59" fill="#34D399" /><circle cx="8.24" cy="-0.82" r="17.30" fill="#0B1A34" /></g>
    <g transform="translate(128.95 268.18) rotate(-13.52)"><polygon points="-15.53,-5.59 2.48,-5.59 2.48,-11.80 17.08,0.00 2.48,11.80 2.48,5.59 -15.53,5.59" fill="#C084FC" stroke="rgba(255,255,255,0.55)" stroke-width="1.2" /></g>
    <g transform="translate(901.23 465.33) rotate(6.15)"><circle cx="0" cy="0" r="17.42" fill="#A78BFA" /><circle cx="6.97" cy="-0.70" r="14.64" fill="#0B1A34" /></g>
    <g transform="translate(200.16 205.54) rotate(1.35)"><circle cx="0" cy="0" r="17.15" fill="#F97316" /><circle cx="6.86" cy="-0.69" r="14.41" fill="#0B1A34" /></g>
    <g transform="translate(603.70 456.64) rotate(-3.57)"><circle cx="0" cy="0" r="14.52" fill="#22D3EE" /><circle cx="5.81" cy="-0.58" r="12.19" fill="#0B1A34" /></g>
    <g transform="translate(285.07 332.02) rotate(21.23)"><polygon points="0,-19.71 19.71,0 0,19.71 -19.71,0" fill="#FBBF24" stroke="rgba(255,255,255,0.55)" stroke-width="1.4" /></g>
    <g transform="translate(754.98 133.17) rotate(-17.74)"><circle cx="0" cy="0" r="14.84" fill="#F97316" stroke="rgba(255,255,255,0.55)" stroke-width="1.4" /></g>
    <g transform="translate(201.28 392.79) rotate(-9.21)"><polygon points="-18.25,-6.57 2.92,-6.57 2.92,-13.87 20.08,0.00 2.92,13.87 2.92,6.57 -18.25,6.57" fill="#A78BFA" stroke="rgba(255,255,255,0.55)" stroke-width="1.2" /></g>
    <g transform="translate(292.13 458.11) rotate(-10.92)"><circle cx="0" cy="0" r="17.30" fill="#F87171" stroke="rgba(255,255,255,0.55)" stroke-width="1.4" /></g>
    <g transform="translate(751.45 201.44) rotate(9.39)"><polygon points="-15.63,-5.63 2.50,-5.63 2.50,-11.88 17.19,0.00 2.50,11.88 2.50,5.63 -15.63,5.63" fill="#A78BFA" stroke="rgba(255,255,255,0.55)" stroke-width="1.2" /></g>
  </g>
</svg>
