<svg xmlns="http://www.w3.org/2000/svg" width="960" height="600" viewBox="0 0 960 600">
  <defs>
    <linearGradient id="bg163" x1="0%" y1="0%" x2="100%" y2="100%">
      <stop offset="0%" stop-color="#0F172A" />
      <stop offset="100%" stop-color="#1D4ED8" />
    </linearGradient>
    <filter id="shadow163" x="-20%" y="-20%" width="140%" height="140%">
      <feDropShadow dx="0" dy="2" stdDeviation="1.8" flood-color="rgba(0,0,0,0.36)" />
    </filter>
  </defs>

  <rect width="960" height="600" fill="url(#bg163)" />
  <rect x="24" y="24" width="912" height="552" rx="20" fill="rgba(255,255,255,0.045)" stroke="rgba(255,255,255,0.22)" />
  <g filter="url(#shadow163)">
    <g transform="translate(288.47 334.42) rotate(14.68)"><polygon points="0.00,-23.04 5.91,-8.14 21.92,-7.12 9.56,3.11 13.54,18.64 0.00,10.06 -13.54,18.64 -9.56,3.11 -21.92,-7.12 -5.91,-8.14" fill="#A78BFA" stroke="rgba(255,255,255,0.55)" stroke-width="1.4" /></g>
    <g transform="translate(519.96 266.83) rotate(4.70)"><polygon points="0,-20.53 18.41,14.16 -18.41,14.16" fill="#F87171" stroke="rgba(255,255,255,0.55)" stroke-width="1.4" /></g>
    <g transform="translate(914.16 392.22) rotate(-15.33)"><rect x="-18.07" y="-18.07" width="36.15" height="36.15" rx="3.93" fill="#F97316" stroke="rgba(255,255,255,0.55)" stroke-width="1.4" /></g>
    <g transform="translate(285.94 131.11) rotate(13.65)"><polygon points="-18.82,-6.77 3.01,-6.77 3.01,-14.30 20.70,0.00 3.01,14.30 3.01,6.77 -18.82,6.77" fill="#F97316" stroke="rgba(255,255,255,0.55)" stroke-width="1.2" /></g>
    <g transform="translate(444.19 337.04) rotate(7.01)"><polygon points="-20.17,-7.26 3.23,-7.26 3.23,-15.33 22.18,0.00 3.23,15.33 3.23,7.26 -20.17,7.26" fill="#22D3EE" stroke="rgba(255,255,255,0.55)" stroke-width="1.2" /></g>
    <g transform="translate(445.88 397.56) rotate(3.52)"><polygon points="0.00,-16.02 4.11,-5.66 15.24,-4.95 6.65,2.16 9.42,12.96 0.00,6.99 -9.42,12.96 -6.65,2.16 -15.24,-4.95 -4.11,-5.66" fill="#F87171" stroke="rgba(255,255,255,0.55)" stroke-width="1.4" /></g>
    <g transform="translate(753.61 137.43) rotate(9.20)"><polygon points="0,-22.87 20.51,15.77 -20.51,15.77" fill="#C084FC" stroke="rgba(255,255,255,0.55)" stroke-width="1.4" /></g>
    <g transform="translate(137.78 273.79) rotate(-3.99)"><polygon points="0.00,-17.18 4.41,-6.07 16.34,-5.31 7.13,2.32 10.10,13.90 0.00,7.50 -10.10,13.90 -7.13,2.32 -16.34,-5.31 -4.41,-6.07" fill="#22D3EE" stroke="rgba(255,255,255,0.55)" stroke-width="1.4" /></g>
    <g transform="translate(205.58 401.18) rotate(25.82)"><rect x="-13.52" y="-13.52" width="27.03" height="27.03" rx="2.94" fill="#FBBF24" stroke="rgba(255,255,255,0.55)" stroke-width="1.4" /></g>
    <g transform="translate(830.87 459.93) rotate(-19.50)"><rect x="-14.14" y="-14.14" width="28.28" height="28.28" rx="3.07" fill="#22D3EE" stroke="rgba(255,255,255,0.55)" stroke-width="1.4" /></g>
    <g transform="translate(752.66 202.26) rotate(9.57)"><polygon points="-15.54,-5.59 2.49,-5.59 2.49,-11.81 17.09,0.00 2.49,11.81 2.49,5.59 -15.54,5.59" fill="#C084FC" stroke="rgba(255,255,255,0.55)" stroke-width="1.2" /></g>
    <g transform="translate(368.58 130.16) rotate(25.82)"><polygon points="-17.02,-6.13 2.72,-6.13 2.72,-12.93 18.72,0.00 2.72,12.93 2.72,6.13 -17.02,6.13" fill="#FBBF24" stroke="rgba(255,255,255,0.55)" stroke-width="1.2" /></g>
    <g transform="translate(596.32 394.26) rotate(27.67)"><rect x="-15.65" y="-15.65" width="31.29" height="31.29" rx="3.40" fill="#22D3EE" stroke="rgba(255,255,255,0.55)" stroke-width="1.4" /></g>
    <g transform="translate(277.68 268.92) rotate(10.97)"><path d="M 0 11.99 C -15.71 1.43, -17.14 -10.00, -6.85 -2.28 C -0.57 -11.99, 0.57 -11.99, 6.85 -2.28 C 17.14 -10.00, 15.71 1.43, 0 11.99 Z" fill="#FBBF24" stroke="rgba(255,255,255,0.55)" stroke-width="1.2" /></g>
    <g transform="translate(673.45 72.55) rotate(-21.23)"><path d="M 0 16.49 C -21.59 1.96, -23.55 -13.74, -9.42 -3.14 C -0.79 -16.49, 0.79 -16.49, 9.42 -3.14 C 23.55 -13.74, 21.59 1.96, 0 16.49 Z" fill="#F97316" stroke="rgba(255,255,255,0.55)" stroke-width="1.2" /></g>
    <g transform="translate(439.62 65.71) rotate(-23.11)"><polygon points="0,-18.76 16.82,12.94 -16.82,12.94" fill="#C084FC" stroke="rgba(255,255,255,0.55)" stroke-width="1.4" /></g>
    <g transform="translate(278.89 199.75) rotate(22.01)"><rect x="-17.53" y="-17.53" width="35.06" height="35.06" rx="3.81" fill="#FBBF24" stroke="rgba(255,255,255,0.55)" stroke-width="1.4" /></g>
    <g transform="translate(202.72 461.99) rotate(-21.42)"><polygon points="0,-22.91 20.54,15.80 -20.54,15.80" fill="#22D3EE" stroke="rgba(255,255,255,0.55)" stroke-width="1.4" /></g>
  </g>
</svg>
