<svg xmlns="http://www.w3.org/2000/svg" width="960" height="600" viewBox="0 0 960 600">
  <defs>
    <linearGradient id="bg19" x1="0%" y1="0%" x2="100%" y2="100%">
      <stop offset="0%" stop-color="#0F172A" />
      <stop offset="100%" stop-color="#1D4ED8" />
    </linearGradient>
    <filter id="shadow19" x="-20%" y="-20%" width="140%" height="140%">
      <feDropShadow dx="0" dy="2" stdDeviation="1.8" flood-color="rgba(0,0,0,0.36)" />
    </filter>
  </defs>

  <rect width="960" height="600" fill="url(#bg19)" />
  <rect x="24" y="24" width="912" height="552" rx="20" fill="rgba(255,255,255,0.045)" stroke="rgba(255,255,255,0.22)" />
  <g filter="url(#shadow19)">
    <g transform="translate(911.84 262.58) rotate(19.45)"><rect x="-18.15" y="-18.15" width="36.30" height="36.30" rx="3.95" fill="#22D3EE" stroke="rgba(255,255,255,0.55)" stroke-width="1.4" /></g>
    <g transform="translate(135.21 265.40) rotate(15.11)"><rect x="-15.54" y="-4.58" width="31.07" height="9.16" rx="4.58" fill="#F97316" /><rect x="-4.58" y="-15.54" width="9.16" height="31.07" rx="4.58" fill="#F97316" /></g>
    <g transform="translate(592.78 331.51) rotate(20.72)"><rect x="-18.44" y="-5.43" width="36.87" height="10.87" rx="5.43" fill="#FBBF24" /><rect x="-5.43" y="-18.44" width="10.87" height="36.87" rx="5.43" fill="#FBBF24" /></g>
    <g transform="translate(602.81 139.40) rotate(11.16)"><polygon points="-15.48,-5.57 2.48,-5.57 2.48,-11.77 17.03,0.00 2.48,11.77 2.48,5.57 -15.48,5.57" fill="#34D399" stroke="rgba(255,255,255,0.55)" stroke-width="1.2" /></g>
    <g transform="translate(129.55 527.01) rotate(-0.79)"><polygon points="0,-17.43 15.62,12.02 -15.62,12.02" fill="#F87171" stroke="rgba(255,255,255,0.55)" stroke-width="1.4" /></g>
    <g transform="translate(365.24 333.61) rotate(-12.99)"><polygon points="-15.18,-5.46 2.43,-5.46 2.43,-11.53 16.70,0.00 2.43,11.53 2.43,5.46 -15.18,5.46" fill="#A78BFA" stroke="rgba(255,255,255,0.55)" stroke-width="1.2" /></g>
    <g transform="translate(358.01 402.90) rotate(16.74)"><rect x="-15.05" y="-15.05" width="30.10" height="30.10" rx="3.27" fill="#22D3EE" stroke="rgba(255,255,255,0.55)" stroke-width="1.4" /></g>
    <g transform="translate(594.05 262.15) rotate(-9.37)"><rect x="-18.43" y="-5.43" width="36.87" height="10.87" rx="5.43" fill="#34D399" /><rect x="-5.43" y="-18.43" width="10.87" height="36.87" rx="5.43" fill="#34D399" /></g>
    <g transform="translate(55.50 524.25) rotate(-6.88)"><rect x="-14.14" y="-14.14" width="28.29" height="28.29" rx="3.07" fill="#C084FC" stroke="rgba(255,255,255,0.55)" stroke-width="1.4" /></g>
    <g transform="translate(827.63 335.45) rotate(-0.90)"><circle cx="0" cy="0" r="14.37" fill="#F87171" /><circle cx="5.75" cy="-0.57" r="12.07" fill="#0B1A34" /></g>
    <g transform="translate(362.55 141.43) rotate(23.48)"><rect x="-18.08" y="-5.33" width="36.16" height="10.66" rx="5.33" fill="#60A5FA" /><rect x="-5.33" y="-18.08" width="10.66" height="36.16" rx="5.33" fill="#60A5FA" /></g>
    <g transform="translate(215.57 129.15) rotate(6.17)"><circle cx="0" cy="0" r="20.36" fill="#F87171" /><circle cx="8.14" cy="-0.81" r="17.10" fill="#0B1A34" /></g>
    <g transform="translate(204.13 207.91) rotate(11.04)"><rect x="-13.95" y="-4.11" width="27.90" height="8.22" rx="4.11" fill="#FB7185" /><rect x="-4.11" y="-13.95" width="8.22" height="27.90" rx="4.11" fill="#FB7185" /></g>
    <g transform="translate(520.11 75.50) rotate(-10.22)"><rect x="-18.17" y="-5.35" width="36.34" height="10.71" rx="5.35" fill="#C084FC" /><rect x="-5.35" y="-18.17" width="10.71" height="36.34" rx="5.35" fill="#C084FC" /></g>
    <g transform="translate(915.63 534.35) rotate(-4.52)"><rect x="-15.84" y="-4.67" width="31.68" height="9.34" rx="4.67" fill="#C084FC" /><rect x="-4.67" y="-15.84" width="9.34" height="31.68" rx="4.67" fill="#C084FC" /></g>
    <g transform="translate(126.31 137.17) rotate(19.97)"><polygon points="-16.27,-5.86 2.60,-5.86 2.60,-12.37 17.90,0.00 2.60,12.37 2.60,5.86 -16.27,5.86" fill="#22D3EE" stroke="rgba(255,255,255,0.55)" stroke-width="1.2" /></g>
    <g transform="translate(513.21 328.37) rotate(13.11)"><rect x="-14.60" y="-14.60" width="29.20" height="29.20" rx="3.17" fill="#FB7185" stroke="rgba(255,255,255,0.55)" stroke-width="1.4" /></g>
    <g transform="translate(290.44 527.30) rotate(4.06)"><polygon points="0,-18.81 16.86,12.97 -16.86,12.97" fill="#F87171" stroke="rgba(255,255,255,0.55)" stroke-width="1.4" /></g>
    <g transform="translate(522.57 533.48) rotate(15.01)"><polygon points="0,-20.42 20.42,0 0,20.42 -20.42,0" fill="#FB7185" stroke="rgba(255,255,255,0.55)" stroke-width="1.4" /></g>
    <g transform="translate(203.49 537.80) rotate(3.50)"><polygon points="0,-17.19 15.41,11.85 -15.41,11.85" fill="#F87171" stroke="rgba(255,255,255,0.55)" stroke-width="1.4" /></g>
    <g transform="translate(52.75 328.60) rotate(13.69)"><rect x="-15.88" y="-4.68" width="31.76" height="9.36" rx="4.68" fill="#FBBF24" /><rect x="-4.68" y="-15.88" width="9.36" height="31.76" rx="4.68" fill="#FBBF24" /></g>
    <g transform="translate(356.08 526.98) rotate(-1.98)"><polygon points="0,-22.31 20.00,15.39 -20.00,15.39" fill="#4ADE80" stroke="rgba(255,255,255,0.55)" stroke-width="1.4" /></g>
    <g transform="translate(48.98 67.74) rotate(-6.14)"><polygon points="0,-17.96 17.96,0 0,17.96 -17.96,0" fill="#22D3EE" stroke="rgba(255,255,255,0.55)" stroke-width="1.4" /></g>
    <g transform="translate(207.76 467.96) rotate(-20.31)"><rect x="-14.11" y="-4.16" width="28.22" height="8.32" rx="4.16" fill="#4ADE80" /><rect x="-4.16" y="-14.11" width="8.32" height="28.22" rx="4.16" fill="#4ADE80" /></g>
    <g transform="translate(518.56 140.13) rotate(-22.14)"><polygon points="0,-16.17 14.50,11.16 -14.50,11.16" fill="#A78BFA" stroke="rgba(255,255,255,0.55)" stroke-width="1.4" /></g>
    <g transform="translate(447.53 460.62) rotate(-26.48)"><polygon points="-18.84,-6.78 3.02,-6.78 3.02,-14.32 20.73,0.00 3.02,14.32 3.02,6.78 -18.84,6.78" fill="#22D3EE" stroke="rgba(255,255,255,0.55)" stroke-width="1.2" /></g>
  </g>
</svg>
