<svg xmlns="http://www.w3.org/2000/svg" width="960" height="600" viewBox="0 0 960 600">
  <defs>
    <linearGradient id="bg4" x1="0%" y1="0%" x2="100%" y2="100%">
      <stop offset="0%" stop-color="#0F172A" />
      <stop offset="100%" stop-color="#1D4ED8" />
    </linearGradient>
    <filter id="shadow4" x="-20%" y="-20%" width="140%" height="140%">
      <feDropShadow dx="0" dy="2" stdDeviation="1.8" flood-color="rgba(0,0,0,0.36)" />
    </filter>
  </defs>

  <rect width="960" height="600" fill="url(#bg4)" />
  <rect x="24" y="24" width="912" height="552" rx="20" fill="rgba(255,255,255,0.045)" stroke="rgba(255,255,255,0.22)" />
  <g filter="url(#shadow4)">
    <g transform="translate(672.95 201.65) rotate(19.51)"><circle cx="0" cy="0" r="18.83" fill="#F97316" stroke="rgba(255,255,255,0.55)" stroke-width="1.4" /></g>
    <g transform="translate(286.99 529.02) rotate(15.05)"><polygon points="0,-17.42 17.42,0 0,17.42 -17.42,0" fill="#60A5FA" stroke="rgba(255,255,255,0.55)" stroke-width="1.4" /></g>
    <g transform="translate(828.29 70.48) rotate(-0.06)"><circle cx="0" cy="0" r="17.33" fill="#C084FC" stroke="rgba(255,255,255,0.55)" stroke-width="1.4" /></g>
    <g transform="translate(900.54 332.30) rotate(-20.14)"><circle cx="0" cy="0" r="16.69" fill="#FBBF24" stroke="rgba(255,255,255,0.55)" stroke-width="1.4" /></g>
    <g transform="translate(671.57 534.27) rotate(20.36)"><circle cx="0" cy="0" r="20.02" fill="#FBBF24" stroke="rgba(255,255,255,0.55)" stroke-width="1.4" /></g>
    <g transform="translate(676.18 267.46) rotate(25.38)"><circle cx="0" cy="0" r="14.18" fill="#C084FC" stroke="rgba(255,255,255,0.55)" stroke-width="1.4" /></g>
    <g transform="translate(747.83 391.79) rotate(-18.48)"><path d="M 0 13.93 C -18.24 1.66, -19.90 -11.61, -7.96 -2.65 C -0.66 -13.93, 0.66 -13.93, 7.96 -2.65 C 19.90 -11.61, 18.24 1.66, 0 13.93 Z" fill="#C084FC" stroke="rgba(255,255,255,0.55)" stroke-width="1.2" /></g>
    <g transform="translate(601.61 397.23) rotate(26.68)"><polygon points="0,-19.61 19.61,0 0,19.61 -19.61,0" fill="#F87171" stroke="rgba(255,255,255,0.55)" stroke-width="1.4" /></g>
    <g transform="translate(359.48 534.81) rotate(1.38)"><circle cx="0" cy="0" r="15.38" fill="#FBBF24" stroke="rgba(255,255,255,0.55)" stroke-width="1.4" /></g>
    <g transform="translate(58.99 128.30) rotate(3.31)"><circle cx="0" cy="0" r="15.79" fill="#F87171" stroke="rgba(255,255,255,0.55)" stroke-width="1.4" /><circle cx="-5.68" cy="-3.79" r="2.53" fill="#1F2937" /><circle cx="5.68" cy="-3.79" r="2.53" fill="#1F2937" /><path d="M -12.00 4.42 Q 0 10.74 12.00 4.42" fill="none" stroke="#1F2937" stroke-width="2.2" stroke-linecap="round" /></g>
    <g transform="translate(907.16 204.10) rotate(-8.08)"><circle cx="0" cy="0" r="14.81" fill="#4ADE80" stroke="rgba(255,255,255,0.55)" stroke-width="1.4" /></g>
    <g transform="translate(122.37 274.05) rotate(20.11)"><polygon points="0,-18.41 18.41,0 0,18.41 -18.41,0" fill="#4ADE80" stroke="rgba(255,255,255,0.55)" stroke-width="1.4" /></g>
    <g transform="translate(370.81 62.75) rotate(-22.90)"><circle cx="0" cy="0" r="18.55" fill="#FBBF24" stroke="rgba(255,255,255,0.55)" stroke-width="1.4" /></g>
    <g transform="translate(748.95 532.34) rotate(-1.60)"><path d="M 0 12.96 C -16.98 1.54, -18.52 -10.80, -7.41 -2.47 C -0.62 -12.96, 0.62 -12.96, 7.41 -2.47 C 18.52 -10.80, 16.98 1.54, 0 12.96 Z" fill="#A78BFA" stroke="rgba(255,255,255,0.55)" stroke-width="1.2" /></g>
    <g transform="translate(289.10 458.97) rotate(2.17)"><circle cx="0" cy="0" r="20.20" fill="#F87171" stroke="rgba(255,255,255,0.55)" stroke-width="1.4" /><circle cx="-7.27" cy="-4.85" r="3.23" fill="#1F2937" /><circle cx="7.27" cy="-4.85" r="3.23" fill="#1F2937" /><path d="M -15.35 5.66 Q 0 13.74 15.35 5.66" fill="none" stroke="#1F2937" stroke-width="2.2" stroke-linecap="round" /></g>
    <g transform="translate(441.02 62.85) rotate(-8.29)"><circle cx="0" cy="0" r="17.78" fill="#C084FC" stroke="rgba(255,255,255,0.55)" stroke-width="1.4" /></g>
    <g transform="translate(670.42 62.24) rotate(-6.39)"><rect x="-16.39" y="-4.83" width="32.77" height="9.66" rx="4.83" fill="#FB7185" /><rect x="-4.83" y="-16.39" width="9.66" height="32.77" rx="4.83" fill="#FB7185" /></g>
    <g transform="translate(825.04 525.79) rotate(3.31)"><path d="M 0 15.73 C -20.60 1.87, -22.47 -13.11, -8.99 -3.00 C -0.75 -15.73, 0.75 -15.73, 8.99 -3.00 C 22.47 -13.11, 20.60 1.87, 0 15.73 Z" fill="#F97316" stroke="rgba(255,255,255,0.55)" stroke-width="1.2" /></g>
    <g transform="translate(760.10 335.35) rotate(-1.79)"><rect x="-15.96" y="-4.70" width="31.92" height="9.41" rx="4.70" fill="#22D3EE" /><rect x="-4.70" y="-15.96" width="9.41" height="31.92" rx="4.70" fill="#22D3EE" /></g>
    <g transform="translate(56.05 471.98) rotate(3.75)"><path d="M 0 12.20 C -15.97 1.45, -17.42 -10.16, -6.97 -2.32 C -0.58 -12.20, 0.58 -12.20, 6.97 -2.32 C 17.42 -10.16, 15.97 1.45, 0 12.20 Z" fill="#22D3EE" stroke="rgba(255,255,255,0.55)" stroke-width="1.2" /></g>
    <g transform="translate(129.41 138.81) rotate(10.46)"><rect x="-18.77" y="-5.53" width="37.54" height="11.07" rx="5.53" fill="#FBBF24" /><rect x="-5.53" y="-18.77" width="11.07" height="37.54" rx="5.53" fill="#FBBF24" /></g>
    <g transform="translate(130.62 327.08) rotate(17.61)"><circle cx="0" cy="0" r="15.23" fill="#22D3EE" stroke="rgba(255,255,255,0.55)" stroke-width="1.4" /></g>
    <g transform="translate(132.55 461.70) rotate(24.79)"><path d="M 0 15.46 C -20.25 1.84, -22.09 -12.88, -8.83 -2.94 C -0.74 -15.46, 0.74 -15.46, 8.83 -2.94 C 22.09 -12.88, 20.25 1.84, 0 15.46 Z" fill="#F97316" stroke="rgba(255,255,255,0.55)" stroke-width="1.2" /></g>
    <g transform="translate(826.22 326.71) rotate(21.15)"><path d="M 0 11.88 C -15.56 1.41, -16.98 -9.90, -6.79 -2.26 C -0.57 -11.88, 0.57 -11.88, 6.79 -2.26 C 16.98 -9.90, 15.56 1.41, 0 11.88 Z" fill="#C084FC" stroke="rgba(255,255,255,0.55)" stroke-width="1.2" /></g>
    <g transform="translate(131.04 406.47) rotate(-17.94)"><circle cx="0" cy="0" r="18.16" fill="#A78BFA" stroke="rgba(255,255,255,0.55)" stroke-width="1.4" /></g>
    <g transform="translate(433.55 536.72) rotate(-18.17)"><circle cx="0" cy="0" r="14.07" fill="#4ADE80" stroke="rgba(255,255,255,0.55)" stroke-width="1.4" /></g>
  </g>
</svg>
