<svg xmlns="http://www.w3.org/2000/svg" width="960" height="600" viewBox="0 0 960 600">
  <defs>
    <linearGradient id="bg28" x1="0%" y1="0%" x2="100%" y2="100%">
      <stop offset="0%" stop-color="#0F172A" />
      <stop offset="100%" stop-color="#1D4ED8" />
    </linearGradient>
    <filter id="shadow28" x="-20%" y="-20%" width="140%" height="140%">
      <feDropShadow dx="0" dy="2" stdDeviation="1.8" flood-color="rgba(0,0,0,0.36)" />
    </filter>
  </defs>

  <rect width="960" height="600" fill="url(#bg28)" />
  <rect x="24" y="24" width="912" height="552" rx="20" fill="rgba(255,255,255,0.045)" stroke="rgba(255,255,255,0.22)" />
  <g filter="url(#shadow28)">
    <g transform="translate(206.54 66.03) rotate(-13.40)"><polygon points="0,-20.94 20.94,0 0,20.94 -20.94,0" fill="#F87171" stroke="rgba(255,255,255,0.55)" stroke-width="1.4" /></g>
    <g transform="translate(511.37 65.25) rotate(-12.05)"><polygon points="0,-17.00 17.00,0 0,17.00 -17.00,0" fill="#34D399" stroke="rgba(255,255,255,0.55)" stroke-width="1.4" /></g>
    <g transform="translate(752.94 259.35) rotate(7.83)"><polygon points="0,-16.66 16.66,0 0,16.66 -16.66,0" fill="#60A5FA" stroke="rgba(255,255,255,0.55)" stroke-width="1.4" /></g>
    <g transform="translate(435.21 468.15) rotate(0.36)"><circle cx="0" cy="0" r="20.75" fill="#C084FC" /><circle cx="8.30" cy="-0.83" r="17.43" fill="#0B1A34" /></g>
    <g transform="translate(512.35 140.19) rotate(-1.57)"><rect x="-18.29" y="-5.39" width="36.59" height="10.78" rx="5.39" fill="#22D3EE" /><rect x="-5.39" y="-18.29" width="10.78" height="36.59" rx="5.39" fill="#22D3EE" /></g>
    <g transform="translate(444.66 269.08) rotate(-20.02)"><polygon points="0.00,-22.95 5.89,-8.10 21.82,-7.09 9.52,3.09 13.49,18.56 0.00,10.01 -13.49,18.56 -9.52,3.09 -21.82,-7.09 -5.89,-8.10" fill="#FBBF24" stroke="rgba(255,255,255,0.55)" stroke-width="1.4" /></g>
    <g transform="translate(595.74 334.04) rotate(6.44)"><rect x="-16.32" y="-4.81" width="32.63" height="9.62" rx="4.81" fill="#FB7185" /><rect x="-4.81" y="-16.32" width="9.62" height="32.63" rx="4.81" fill="#FB7185" /></g>
    <g transform="translate(599.27 264.65) rotate(-24.47)"><polygon points="0,-14.32 14.32,0 0,14.32 -14.32,0" fill="#22D3EE" stroke="rgba(255,255,255,0.55)" stroke-width="1.4" /></g>
    <g transform="translate(755.27 335.57) rotate(12.94)"><polygon points="0,-18.69 18.69,0 0,18.69 -18.69,0" fill="#FB7185" stroke="rgba(255,255,255,0.55)" stroke-width="1.4" /></g>
    <g transform="translate(364.61 401.46) rotate(-0.26)"><polygon points="0.00,-22.72 5.83,-8.02 21.61,-7.02 9.43,3.06 13.35,18.38 0.00,9.91 -13.35,18.38 -9.43,3.06 -21.61,-7.02 -5.83,-8.02" fill="#4ADE80" stroke="rgba(255,255,255,0.55)" stroke-width="1.4" /></g>
    <g transform="translate(905.84 265.68) rotate(-2.25)"><circle cx="0" cy="0" r="16.31" fill="#F87171" /><circle cx="6.52" cy="-0.65" r="13.70" fill="#0B1A34" /></g>
    <g transform="translate(598.86 131.85) rotate(4.09)"><circle cx="0" cy="0" r="14.95" fill="#22D3EE" /><circle cx="5.98" cy="-0.60" r="12.56" fill="#0B1A34" /></g>
    <g transform="translate(288.82 466.85) rotate(5.14)"><circle cx="0" cy="0" r="16.85" fill="#34D399" /><circle cx="6.74" cy="-0.67" r="14.16" fill="#0B1A34" /></g>
    <g transform="translate(516.19 272.84) rotate(-21.77)"><rect x="-17.32" y="-5.11" width="34.64" height="10.21" rx="5.11" fill="#A78BFA" /><rect x="-5.11" y="-17.32" width="10.21" height="34.64" rx="5.11" fill="#A78BFA" /></g>
    <g transform="translate(915.79 526.08) rotate(5.04)"><polygon points="0,-16.47 16.47,0 0,16.47 -16.47,0" fill="#C084FC" stroke="rgba(255,255,255,0.55)" stroke-width="1.4" /></g>
    <g transform="translate(202.71 270.73) rotate(7.36)"><polygon points="0,-14.38 14.38,0 0,14.38 -14.38,0" fill="#FBBF24" stroke="rgba(255,255,255,0.55)" stroke-width="1.4" /></g>
    <g transform="translate(759.53 524.82) rotate(12.39)"><polygon points="0.00,-22.36 5.73,-7.89 21.26,-6.91 9.28,3.01 13.14,18.09 0.00,9.76 -13.14,18.09 -9.28,3.01 -21.26,-6.91 -5.73,-7.89" fill="#34D399" stroke="rgba(255,255,255,0.55)" stroke-width="1.4" /></g>
    <g transform="translate(283.39 137.27) rotate(7.15)"><rect x="-16.28" y="-4.80" width="32.56" height="9.60" rx="4.80" fill="#C084FC" /><rect x="-4.80" y="-16.28" width="9.60" height="32.56" rx="4.80" fill="#C084FC" /></g>
    <g transform="translate(512.78 525.41) rotate(-7.94)"><rect x="-17.95" y="-5.29" width="35.89" height="10.58" rx="5.29" fill="#C084FC" /><rect x="-5.29" y="-17.95" width="10.58" height="35.89" rx="5.29" fill="#C084FC" /></g>
    <g transform="translate(213.90 206.60) rotate(-2.34)"><circle cx="0" cy="0" r="14.27" fill="#F97316" /><circle cx="5.71" cy="-0.57" r="11.99" fill="#0B1A34" /></g>
  </g>
</svg>
