<svg xmlns="http://www.w3.org/2000/svg" width="960" height="600" viewBox="0 0 960 600">
  <defs>
    <linearGradient id="bg192" x1="0%" y1="0%" x2="100%" y2="100%">
      <stop offset="0%" stop-color="#0F172A" />
      <stop offset="100%" stop-color="#1D4ED8" />
    </linearGradient>
    <filter id="shadow192" x="-20%" y="-20%" width="140%" height="140%">
      <feDropShadow dx="0" dy="2" stdDeviation="1.8" flood-color="rgba(0,0,0,0.36)" />
    </filter>
  </defs>

  <rect width="960" height="600" fill="url(#bg192)" />
  <rect x="24" y="24" width="912" height="552" rx="20" fill="rgba(255,255,255,0.045)" stroke="rgba(255,255,255,0.22)" />
  <g filter="url(#shadow192)">
    <g transform="translate(212.58 201.89) rotate(26.83)"><polygon points="0,-17.55 15.73,12.10 -15.73,12.10" fill="#F97316" stroke="rgba(255,255,255,0.55)" stroke-width="1.4" /></g>
    <g transform="translate(51.06 529.11) rotate(-5.40)"><polygon points="0,-21.28 19.08,14.68 -19.08,14.68" fill="#60A5FA" stroke="rgba(255,255,255,0.55)" stroke-width="1.4" /></g>
    <g transform="translate(137.08 134.48) rotate(7.73)"><circle cx="0" cy="0" r="18.49" fill="#C084FC" stroke="rgba(255,255,255,0.55)" stroke-width="1.4" /></g>
    <g transform="translate(212.31 463.59) rotate(-0.77)"><rect x="-17.27" y="-17.27" width="34.54" height="34.54" rx="3.75" fill="#F97316" stroke="rgba(255,255,255,0.55)" stroke-width="1.4" /></g>
    <g transform="translate(520.18 533.41) rotate(-2.31)"><polygon points="0,-21.85 19.59,15.07 -19.59,15.07" fill="#FBBF24" stroke="rgba(255,255,255,0.55)" stroke-width="1.4" /></g>
    <g transform="translate(679.40 131.50) rotate(-24.46)"><rect x="-17.16" y="-17.16" width="34.32" height="34.32" rx="3.73" fill="#C084FC" stroke="rgba(255,255,255,0.55)" stroke-width="1.4" /></g>
    <g transform="translate(754.48 459.15) rotate(-6.86)"><polygon points="0,-20.83 18.67,14.36 -18.67,14.36" fill="#FB7185" stroke="rgba(255,255,255,0.55)" stroke-width="1.4" /></g>
    <g transform="translate(280.08 195.16) rotate(-25.49)"><circle cx="0" cy="0" r="15.39" fill="#A78BFA" stroke="rgba(255,255,255,0.55)" stroke-width="1.4" /></g>
    <g transform="translate(829.99 390.89) rotate(0.06)"><circle cx="0" cy="0" r="16.84" fill="#34D399" stroke="rgba(255,255,255,0.55)" stroke-width="1.4" /><circle cx="-6.06" cy="-4.04" r="2.69" fill="#1F2937" /><circle cx="6.06" cy="-4.04" r="2.69" fill="#1F2937" /><path d="M -12.80 4.71 Q 0 11.45 12.80 4.71" fill="none" stroke="#1F2937" stroke-width="2.2" stroke-linecap="round" /></g>
    <g transform="translate(828.65 133.62) rotate(-23.76)"><polygon points="0,-22.74 20.39,15.68 -20.39,15.68" fill="#F87171" stroke="rgba(255,255,255,0.55)" stroke-width="1.4" /></g>
    <g transform="translate(205.45 63.10) rotate(-0.91)"><circle cx="0" cy="0" r="19.28" fill="#A78BFA" stroke="rgba(255,255,255,0.55)" stroke-width="1.4" /><circle cx="-6.94" cy="-4.63" r="3.08" fill="#1F2937" /><circle cx="6.94" cy="-4.63" r="3.08" fill="#1F2937" /><path d="M -14.65 5.40 Q 0 13.11 14.65 5.40" fill="none" stroke="#1F2937" stroke-width="2.2" stroke-linecap="round" /></g>
    <g transform="translate(355.59 468.17) rotate(-25.43)"><rect x="-14.81" y="-14.81" width="29.62" height="29.62" rx="3.22" fill="#22D3EE" stroke="rgba(255,255,255,0.55)" stroke-width="1.4" /></g>
    <g transform="translate(279.50 325.13) rotate(4.13)"><circle cx="0" cy="0" r="17.08" fill="#F97316" stroke="rgba(255,255,255,0.55)" stroke-width="1.4" /><circle cx="-6.15" cy="-4.10" r="2.73" fill="#1F2937" /><circle cx="6.15" cy="-4.10" r="2.73" fill="#1F2937" /><path d="M -12.98 4.78 Q 0 11.61 12.98 4.78" fill="none" stroke="#1F2937" stroke-width="2.2" stroke-linecap="round" /></g>
    <g transform="translate(909.82 141.55) rotate(-22.84)"><polygon points="0,-16.84 15.10,11.61 -15.10,11.61" fill="#C084FC" stroke="rgba(255,255,255,0.55)" stroke-width="1.4" /></g>
    <g transform="translate(750.74 131.51) rotate(-1.68)"><rect x="-17.37" y="-17.37" width="34.74" height="34.74" rx="3.78" fill="#FBBF24" stroke="rgba(255,255,255,0.55)" stroke-width="1.4" /></g>
    <g transform="translate(442.66 208.95) rotate(2.71)"><circle cx="0" cy="0" r="16.44" fill="#FB7185" stroke="rgba(255,255,255,0.55)" stroke-width="1.4" /><circle cx="-5.92" cy="-3.95" r="2.63" fill="#1F2937" /><circle cx="5.92" cy="-3.95" r="2.63" fill="#1F2937" /><path d="M -12.49 4.60 Q 0 11.18 12.49 4.60" fill="none" stroke="#1F2937" stroke-width="2.2" stroke-linecap="round" /></g>
    <g transform="translate(49.91 266.03) rotate(-4.92)"><circle cx="0" cy="0" r="20.77" fill="#22D3EE" stroke="rgba(255,255,255,0.55)" stroke-width="1.4" /><circle cx="-7.48" cy="-4.99" r="3.32" fill="#1F2937" /><circle cx="7.48" cy="-4.99" r="3.32" fill="#1F2937" /><path d="M -15.79 5.82 Q 0 14.12 15.79 5.82" fill="none" stroke="#1F2937" stroke-width="2.2" stroke-linecap="round" /></g>
    <g transform="translate(442.25 337.46) rotate(-8.81)"><rect x="-13.55" y="-13.55" width="27.11" height="27.11" rx="2.95" fill="#A78BFA" stroke="rgba(255,255,255,0.55)" stroke-width="1.4" /></g>
    <g transform="translate(130.30 534.79) rotate(-2.62)"><circle cx="0" cy="0" r="18.45" fill="#FBBF24" /><circle cx="7.38" cy="-0.74" r="15.50" fill="#0B1A34" /></g>
    <g transform="translate(823.25 337.65) rotate(4.35)"><circle cx="0" cy="0" r="17.76" fill="#4ADE80" stroke="rgba(255,255,255,0.55)" stroke-width="1.4" /></g>
    <g transform="translate(124.63 392.01) rotate(-1.27)"><circle cx="0" cy="0" r="14.76" fill="#FB7185" stroke="rgba(255,255,255,0.55)" stroke-width="1.4" /><circle cx="-5.31" cy="-3.54" r="2.36" fill="#1F2937" /><circle cx="5.31" cy="-3.54" r="2.36" fill="#1F2937" /><path d="M -11.22 4.13 Q 0 10.04 11.22 4.13" fill="none" stroke="#1F2937" stroke-width="2.2" stroke-linecap="round" /></g>
    <g transform="translate(51.08 333.53) rotate(-4.44)"><circle cx="0" cy="0" r="18.13" fill="#4ADE80" /><circle cx="7.25" cy="-0.73" r="15.23" fill="#0B1A34" /></g>
    <g transform="translate(442.76 400.66) rotate(-6.02)"><circle cx="0" cy="0" r="19.69" fill="#22D3EE" /><circle cx="7.88" cy="-0.79" r="16.54" fill="#0B1A34" /></g>
    <g transform="translate(447.52 134.76) rotate(22.45)"><polygon points="0,-20.93 18.76,14.43 -18.76,14.43" fill="#F87171" stroke="rgba(255,255,255,0.55)" stroke-width="1.4" /></g>
    <g transform="translate(45.35 128.52) rotate(27.56)"><rect x="-17.25" y="-17.25" width="34.50" height="34.50" rx="3.75" fill="#A78BFA" stroke="rgba(255,255,255,0.55)" stroke-width="1.4" /></g>
    <g transform="translate(128.85 64.17) rotate(23.73)"><polygon points="0,-19.29 17.30,13.31 -17.30,13.31" fill="#34D399" stroke="rgba(255,255,255,0.55)" stroke-width="1.4" /></g>
  </g>
</svg>
