<svg xmlns="http://www.w3.org/2000/svg" width="960" height="600" viewBox="0 0 960 600">
  <defs>
    <linearGradient id="bg187" x1="0%" y1="0%" x2="100%" y2="100%">
      <stop offset="0%" stop-color="#0F172A" />
      <stop offset="100%" stop-color="#1D4ED8" />
    </linearGradient>
    <filter id="shadow187" x="-20%" y="-20%" width="140%" height="140%">
      <feDropShadow dx="0" dy="2" stdDeviation="1.8" flood-color="rgba(0,0,0,0.36)" />
    </filter>
  </defs>

  <rect width="960" height="600" fill="url(#bg187)" />
  <rect x="24" y="24" width="912" height="552" rx="20" fill="rgba(255,255,255,0.045)" stroke="rgba(255,255,255,0.22)" />
  <g filter="url(#shadow187)">
    <g transform="translate(49.23 71.36) rotate(-12.86)"><circle cx="0" cy="0" r="15.88" fill="#4ADE80" stroke="rgba(255,255,255,0.55)" stroke-width="1.4" /></g>
    <g transform="translate(132.64 402.34) rotate(2.98)"><circle cx="0" cy="0" r="14.35" fill="#C084FC" stroke="rgba(255,255,255,0.55)" stroke-width="1.4" /><circle cx="-5.17" cy="-3.44" r="2.30" fill="#1F2937" /><circle cx="5.17" cy="-3.44" r="2.30" fill="#1F2937" /><path d="M -10.91 4.02 Q 0 9.76 10.91 4.02" fill="none" stroke="#1F2937" stroke-width="2.2" stroke-linecap="round" /></g>
    <g transform="translate(604.46 130.04) rotate(-13.59)"><polygon points="-17.41,-6.27 2.79,-6.27 2.79,-13.23 19.15,0.00 2.79,13.23 2.79,6.27 -17.41,6.27" fill="#A78BFA" stroke="rgba(255,255,255,0.55)" stroke-width="1.2" /></g>
    <g transform="translate(205.11 470.66) rotate(-0.57)"><circle cx="0" cy="0" r="17.18" fill="#A78BFA" /><circle cx="6.87" cy="-0.69" r="14.43" fill="#0B1A34" /></g>
    <g transform="translate(914.70 209.32) rotate(-27.77)"><rect x="-16.21" y="-4.78" width="32.41" height="9.55" rx="4.78" fill="#22D3EE" /><rect x="-4.78" y="-16.21" width="9.55" height="32.41" rx="4.78" fill="#22D3EE" /></g>
    <g transform="translate(750.01 335.19) rotate(1.85)"><circle cx="0" cy="0" r="14.72" fill="#34D399" /><circle cx="5.89" cy="-0.59" r="12.36" fill="#0B1A34" /></g>
    <g transform="translate(128.99 458.63) rotate(-4.72)"><circle cx="0" cy="0" r="19.87" fill="#34D399" stroke="rgba(255,255,255,0.55)" stroke-width="1.4" /><circle cx="-7.15" cy="-4.77" r="3.18" fill="#1F2937" /><circle cx="7.15" cy="-4.77" r="3.18" fill="#1F2937" /><path d="M -15.10 5.56 Q 0 13.51 15.10 5.56" fill="none" stroke="#1F2937" stroke-width="2.2" stroke-linecap="round" /></g>
    <g transform="translate(750.54 460.77) rotate(-6.41)"><circle cx="0" cy="0" r="19.74" fill="#FB7185" stroke="rgba(255,255,255,0.55)" stroke-width="1.4" /><circle cx="-7.11" cy="-4.74" r="3.16" fill="#1F2937" /><circle cx="7.11" cy="-4.74" r="3.16" fill="#1F2937" /><path d="M -15.00 5.53 Q 0 13.42 15.00 5.53" fill="none" stroke="#1F2937" stroke-width="2.2" stroke-linecap="round" /></g>
    <g transform="translate(672.29 332.55) rotate(24.03)"><rect x="-19.66" y="-5.79" width="39.32" height="11.59" rx="5.79" fill="#22D3EE" /><rect x="-5.79" y="-19.66" width="11.59" height="39.32" rx="5.79" fill="#22D3EE" /></g>
    <g transform="translate(832.18 128.32) rotate(-11.22)"><polygon points="-17.61,-6.34 2.82,-6.34 2.82,-13.38 19.37,0.00 2.82,13.38 2.82,6.34 -17.61,6.34" fill="#F87171" stroke="rgba(255,255,255,0.55)" stroke-width="1.2" /></g>
    <g transform="translate(278.93 193.94) rotate(7.56)"><circle cx="0" cy="0" r="19.49" fill="#34D399" /><circle cx="7.80" cy="-0.78" r="16.38" fill="#0B1A34" /></g>
    <g transform="translate(47.22 337.33) rotate(8.96)"><circle cx="0" cy="0" r="17.03" fill="#60A5FA" stroke="rgba(255,255,255,0.55)" stroke-width="1.4" /></g>
    <g transform="translate(752.58 390.70) rotate(-20.19)"><polygon points="0,-21.86 19.60,15.08 -19.60,15.08" fill="#60A5FA" stroke="rgba(255,255,255,0.55)" stroke-width="1.4" /></g>
    <g transform="translate(209.65 76.23) rotate(8.78)"><polygon points="-14.11,-5.08 2.26,-5.08 2.26,-10.72 15.52,0.00 2.26,10.72 2.26,5.08 -14.11,5.08" fill="#FBBF24" stroke="rgba(255,255,255,0.55)" stroke-width="1.2" /></g>
    <g transform="translate(833.37 466.00) rotate(6.47)"><circle cx="0" cy="0" r="15.82" fill="#60A5FA" stroke="rgba(255,255,255,0.55)" stroke-width="1.4" /><circle cx="-5.69" cy="-3.80" r="2.53" fill="#1F2937" /><circle cx="5.69" cy="-3.80" r="2.53" fill="#1F2937" /><path d="M -12.02 4.43 Q 0 10.75 12.02 4.43" fill="none" stroke="#1F2937" stroke-width="2.2" stroke-linecap="round" /></g>
    <g transform="translate(359.02 398.87) rotate(-10.18)"><polygon points="-16.71,-6.02 2.67,-6.02 2.67,-12.70 18.38,0.00 2.67,12.70 2.67,6.02 -16.71,6.02" fill="#C084FC" stroke="rgba(255,255,255,0.55)" stroke-width="1.2" /></g>
    <g transform="translate(132.10 338.07) rotate(4.49)"><polygon points="0,-16.11 14.44,11.11 -14.44,11.11" fill="#F87171" stroke="rgba(255,255,255,0.55)" stroke-width="1.4" /></g>
    <g transform="translate(444.80 533.72) rotate(6.54)"><polygon points="-15.84,-5.70 2.53,-5.70 2.53,-12.04 17.42,0.00 2.53,12.04 2.53,5.70 -15.84,5.70" fill="#60A5FA" stroke="rgba(255,255,255,0.55)" stroke-width="1.2" /></g>
    <g transform="translate(362.29 327.94) rotate(6.54)"><polygon points="0.00,-21.59 5.54,-7.62 20.54,-6.67 8.96,2.91 12.69,17.47 0.00,9.42 -12.69,17.47 -8.96,2.91 -20.54,-6.67 -5.54,-7.62" fill="#4ADE80" stroke="rgba(255,255,255,0.55)" stroke-width="1.4" /></g>
    <g transform="translate(209.69 203.52) rotate(14.10)"><circle cx="0" cy="0" r="14.51" fill="#22D3EE" stroke="rgba(255,255,255,0.55)" stroke-width="1.4" /></g>
    <g transform="translate(526.70 197.88) rotate(-11.28)"><rect x="-15.90" y="-4.69" width="31.79" height="9.37" rx="4.69" fill="#FB7185" /><rect x="-4.69" y="-15.90" width="9.37" height="31.79" rx="4.69" fill="#FB7185" /></g>
    <g transform="translate(127.17 264.94) rotate(-26.86)"><polygon points="0.00,-20.15 5.17,-7.11 19.17,-6.23 8.36,2.72 11.85,16.30 0.00,8.79 -11.85,16.30 -8.36,2.72 -19.17,-6.23 -5.17,-7.11" fill="#C084FC" stroke="rgba(255,255,255,0.55)" stroke-width="1.4" /></g>
    <g transform="translate(440.86 406.29) rotate(21.89)"><polygon points="-16.72,-6.02 2.68,-6.02 2.68,-12.71 18.39,0.00 2.68,12.71 2.68,6.02 -16.72,6.02" fill="#A78BFA" stroke="rgba(255,255,255,0.55)" stroke-width="1.2" /></g>
    <g transform="translate(750.68 259.93) rotate(4.88)"><circle cx="0" cy="0" r="19.60" fill="#4ADE80" /><circle cx="7.84" cy="-0.78" r="16.47" fill="#0B1A34" /></g>
    <g transform="translate(904.33 465.67) rotate(-2.32)"><polygon points="-17.79,-6.40 2.85,-6.40 2.85,-13.52 19.56,0.00 2.85,13.52 2.85,6.40 -17.79,6.40" fill="#FB7185" stroke="rgba(255,255,255,0.55)" stroke-width="1.2" /></g>
    <g transform="translate(125.02 74.73) rotate(-6.00)"><circle cx="0" cy="0" r="17.73" fill="#4ADE80" stroke="rgba(255,255,255,0.55)" stroke-width="1.4" /><circle cx="-6.38" cy="-4.25" r="2.84" fill="#1F2937" /><circle cx="6.38" cy="-4.25" r="2.84" fill="#1F2937" /><path d="M -13.47 4.96 Q 0 12.05 13.47 4.96" fill="none" stroke="#1F2937" stroke-width="2.2" stroke-linecap="round" /></g>
    <g transform="translate(757.66 537.18) rotate(11.33)"><polygon points="0.00,-20.51 5.26,-7.24 19.50,-6.34 8.51,2.77 12.05,16.59 0.00,8.95 -12.05,16.59 -8.51,2.77 -19.50,-6.34 -5.26,-7.24" fill="#34D399" stroke="rgba(255,255,255,0.55)" stroke-width="1.4" /></g>
    <g transform="translate(361.40 134.47) rotate(-24.38)"><polygon points="0,-21.99 19.71,15.16 -19.71,15.16" fill="#34D399" stroke="rgba(255,255,255,0.55)" stroke-width="1.4" /></g>
    <g transform="translate(826.96 204.97) rotate(17.82)"><polygon points="-17.95,-6.46 2.87,-6.46 2.87,-13.64 19.75,0.00 2.87,13.64 2.87,6.46 -17.95,6.46" fill="#FBBF24" stroke="rgba(255,255,255,0.55)" stroke-width="1.2" /></g>
  </g>
</svg>
