<svg xmlns="http://www.w3.org/2000/svg" width="960" height="600" viewBox="0 0 960 600">
  <defs>
    <linearGradient id="bg88" x1="0%" y1="0%" x2="100%" y2="100%">
      <stop offset="0%" stop-color="#0F172A" />
      <stop offset="100%" stop-color="#1D4ED8" />
    </linearGradient>
    <filter id="shadow88" x="-20%" y="-20%" width="140%" height="140%">
      <feDropShadow dx="0" dy="2" stdDeviation="1.8" flood-color="rgba(0,0,0,0.36)" />
    </filter>
  </defs>

  <rect width="960" height="600" fill="url(#bg88)" />
  <rect x="24" y="24" width="912" height="552" rx="20" fill="rgba(255,255,255,0.045)" stroke="rgba(255,255,255,0.22)" />
  <g filter="url(#shadow88)">
    <g transform="translate(913.59 534.24) rotate(21.01)"><polygon points="-16.08,-5.79 2.57,-5.79 2.57,-12.22 17.69,0.00 2.57,12.22 2.57,5.79 -16.08,5.79" fill="#60A5FA" stroke="rgba(255,255,255,0.55)" stroke-width="1.2" /></g>
    <g transform="translate(448.07 132.21) rotate(18.59)"><path d="M 0 15.07 C -19.74 1.79, -21.53 -12.56, -8.61 -2.87 C -0.72 -15.07, 0.72 -15.07, 8.61 -2.87 C 21.53 -12.56, 19.74 1.79, 0 15.07 Z" fill="#4ADE80" stroke="rgba(255,255,255,0.55)" stroke-width="1.2" /></g>
    <g transform="translate(365.11 404.19) rotate(-18.32)"><polygon points="0,-18.52 18.52,0 0,18.52 -18.52,0" fill="#22D3EE" stroke="rgba(255,255,255,0.55)" stroke-width="1.4" /></g>
    <g transform="translate(291.52 460.55) rotate(4.79)"><path d="M 0 16.38 C -21.44 1.95, -23.39 -13.65, -9.36 -3.12 C -0.78 -16.38, 0.78 -16.38, 9.36 -3.12 C 23.39 -13.65, 21.44 1.95, 0 16.38 Z" fill="#A78BFA" stroke="rgba(255,255,255,0.55)" stroke-width="1.2" /></g>
    <g transform="translate(831.42 391.95) rotate(25.26)"><polygon points="0,-16.14 16.14,0 0,16.14 -16.14,0" fill="#4ADE80" stroke="rgba(255,255,255,0.55)" stroke-width="1.4" /></g>
    <g transform="translate(367.03 329.24) rotate(18.38)"><polygon points="0,-19.81 19.81,0 0,19.81 -19.81,0" fill="#4ADE80" stroke="rgba(255,255,255,0.55)" stroke-width="1.4" /></g>
    <g transform="translate(596.16 399.88) rotate(-14.53)"><path d="M 0 16.09 C -21.07 1.92, -22.99 -13.41, -9.20 -3.07 C -0.77 -16.09, 0.77 -16.09, 9.20 -3.07 C 22.99 -13.41, 21.07 1.92, 0 16.09 Z" fill="#4ADE80" stroke="rgba(255,255,255,0.55)" stroke-width="1.2" /></g>
    <g transform="translate(525.35 197.01) rotate(6.55)"><polygon points="0.00,-20.44 5.24,-7.22 19.44,-6.32 8.48,2.76 12.01,16.54 0.00,8.92 -12.01,16.54 -8.48,2.76 -19.44,-6.32 -5.24,-7.22" fill="#C084FC" stroke="rgba(255,255,255,0.55)" stroke-width="1.4" /></g>
    <g transform="translate(915.85 470.03) rotate(0.96)"><path d="M 0 13.85 C -18.14 1.65, -19.79 -11.54, -7.91 -2.64 C -0.66 -13.85, 0.66 -13.85, 7.91 -2.64 C 19.79 -11.54, 18.14 1.65, 0 13.85 Z" fill="#4ADE80" stroke="rgba(255,255,255,0.55)" stroke-width="1.2" /></g>
    <g transform="translate(202.71 471.10) rotate(-27.95)"><polygon points="0.00,-17.31 4.44,-6.11 16.47,-5.35 7.19,2.33 10.18,14.01 0.00,7.56 -10.18,14.01 -7.19,2.33 -16.47,-5.35 -4.44,-6.11" fill="#60A5FA" stroke="rgba(255,255,255,0.55)" stroke-width="1.4" /></g>
    <g transform="translate(123.75 136.47) rotate(18.89)"><polygon points="-14.58,-5.25 2.33,-5.25 2.33,-11.08 16.03,0.00 2.33,11.08 2.33,5.25 -14.58,5.25" fill="#F87171" stroke="rgba(255,255,255,0.55)" stroke-width="1.2" /></g>
    <g transform="translate(440.69 398.60) rotate(-10.46)"><polygon points="-15.10,-5.44 2.42,-5.44 2.42,-11.48 16.61,0.00 2.42,11.48 2.42,5.44 -15.10,5.44" fill="#4ADE80" stroke="rgba(255,255,255,0.55)" stroke-width="1.2" /></g>
    <g transform="translate(355.93 207.85) rotate(21.24)"><polygon points="0,-18.76 18.76,0 0,18.76 -18.76,0" fill="#FB7185" stroke="rgba(255,255,255,0.55)" stroke-width="1.4" /></g>
    <g transform="translate(673.17 471.58) rotate(-21.99)"><path d="M 0 14.89 C -19.50 1.77, -21.27 -12.41, -8.51 -2.84 C -0.71 -14.89, 0.71 -14.89, 8.51 -2.84 C 21.27 -12.41, 19.50 1.77, 0 14.89 Z" fill="#4ADE80" stroke="rgba(255,255,255,0.55)" stroke-width="1.2" /></g>
    <g transform="translate(46.73 66.67) rotate(-13.02)"><polygon points="0,-18.13 18.13,0 0,18.13 -18.13,0" fill="#4ADE80" stroke="rgba(255,255,255,0.55)" stroke-width="1.4" /></g>
    <g transform="translate(437.29 526.18) rotate(-3.52)"><circle cx="0" cy="0" r="15.42" fill="#60A5FA" /><circle cx="6.17" cy="-0.62" r="12.95" fill="#0B1A34" /></g>
    <g transform="translate(680.95 326.93) rotate(26.42)"><polygon points="0,-19.14 19.14,0 0,19.14 -19.14,0" fill="#34D399" stroke="rgba(255,255,255,0.55)" stroke-width="1.4" /></g>
    <g transform="translate(832.62 204.06) rotate(25.39)"><path d="M 0 16.52 C -21.63 1.97, -23.60 -13.77, -9.44 -3.15 C -0.79 -16.52, 0.79 -16.52, 9.44 -3.15 C 23.60 -13.77, 21.63 1.97, 0 16.52 Z" fill="#F87171" stroke="rgba(255,255,255,0.55)" stroke-width="1.2" /></g>
    <g transform="translate(758.54 138.77) rotate(-22.38)"><polygon points="0,-18.88 18.88,0 0,18.88 -18.88,0" fill="#FB7185" stroke="rgba(255,255,255,0.55)" stroke-width="1.4" /></g>
  </g>
</svg>
