<svg xmlns="http://www.w3.org/2000/svg" width="960" height="600" viewBox="0 0 960 600">
  <defs>
    <linearGradient id="bg138" x1="0%" y1="0%" x2="100%" y2="100%">
      <stop offset="0%" stop-color="#0F172A" />
      <stop offset="100%" stop-color="#1D4ED8" />
    </linearGradient>
    <filter id="shadow138" x="-20%" y="-20%" width="140%" height="140%">
      <feDropShadow dx="0" dy="2" stdDeviation="1.8" flood-color="rgba(0,0,0,0.36)" />
    </filter>
  </defs>

  <rect width="960" height="600" fill="url(#bg138)" />
  <rect x="24" y="24" width="912" height="552" rx="20" fill="rgba(255,255,255,0.045)" stroke="rgba(255,255,255,0.22)" />
  <g filter="url(#shadow138)">
    <g transform="translate(367.13 531.09) rotate(13.44)"><polygon points="0,-16.86 16.86,0 0,16.86 -16.86,0" fill="#60A5FA" stroke="rgba(255,255,255,0.55)" stroke-width="1.4" /></g>
    <g transform="translate(679.51 404.61) rotate(-16.79)"><polygon points="0,-20.02 17.95,13.81 -17.95,13.81" fill="#34D399" stroke="rgba(255,255,255,0.55)" stroke-width="1.4" /></g>
    <g transform="translate(285.08 69.42) rotate(-12.52)"><polygon points="0,-18.95 18.95,0 0,18.95 -18.95,0" fill="#F97316" stroke="rgba(255,255,255,0.55)" stroke-width="1.4" /></g>
    <g transform="translate(47.58 263.10) rotate(10.91)"><polygon points="-17.11,-6.16 2.74,-6.16 2.74,-13.01 18.82,0.00 2.74,13.01 2.74,6.16 -17.11,6.16" fill="#FBBF24" stroke="rgba(255,255,255,0.55)" stroke-width="1.2" /></g>
    <g transform="translate(837.45 131.27) rotate(-5.29)"><polygon points="-14.41,-5.19 2.31,-5.19 2.31,-10.95 15.85,0.00 2.31,10.95 2.31,5.19 -14.41,5.19" fill="#F97316" stroke="rgba(255,255,255,0.55)" stroke-width="1.2" /></g>
    <g transform="translate(202.31 402.77) rotate(-26.15)"><polygon points="0,-16.78 16.78,0 0,16.78 -16.78,0" fill="#60A5FA" stroke="rgba(255,255,255,0.55)" stroke-width="1.4" /></g>
    <g transform="translate(47.18 137.50) rotate(-3.61)"><circle cx="0" cy="0" r="17.20" fill="#4ADE80" /><circle cx="6.88" cy="-0.69" r="14.45" fill="#0B1A34" /></g>
    <g transform="translate(910.45 205.40) rotate(4.91)"><polygon points="0,-18.35 16.45,12.65 -16.45,12.65" fill="#4ADE80" stroke="rgba(255,255,255,0.55)" stroke-width="1.4" /></g>
    <g transform="translate(133.92 63.06) rotate(23.18)"><polygon points="-18.53,-6.67 2.96,-6.67 2.96,-14.08 20.38,0.00 2.96,14.08 2.96,6.67 -18.53,6.67" fill="#4ADE80" stroke="rgba(255,255,255,0.55)" stroke-width="1.2" /></g>
    <g transform="translate(913.93 467.77) rotate(7.90)"><circle cx="0" cy="0" r="20.78" fill="#F97316" /><circle cx="8.31" cy="-0.83" r="17.45" fill="#0B1A34" /></g>
    <g transform="translate(290.94 526.31) rotate(-1.90)"><polygon points="0,-18.48 18.48,0 0,18.48 -18.48,0" fill="#F97316" stroke="rgba(255,255,255,0.55)" stroke-width="1.4" /></g>
    <g transform="translate(590.86 132.12) rotate(-19.88)"><polygon points="0,-19.38 19.38,0 0,19.38 -19.38,0" fill="#F87171" stroke="rgba(255,255,255,0.55)" stroke-width="1.4" /></g>
    <g transform="translate(438.18 340.13) rotate(4.49)"><polygon points="0,-17.16 15.39,11.84 -15.39,11.84" fill="#FB7185" stroke="rgba(255,255,255,0.55)" stroke-width="1.4" /></g>
    <g transform="translate(901.57 326.84) rotate(9.42)"><polygon points="0,-20.38 18.27,14.05 -18.27,14.05" fill="#FBBF24" stroke="rgba(255,255,255,0.55)" stroke-width="1.4" /></g>
    <g transform="translate(755.36 471.12) rotate(10.53)"><polygon points="-19.08,-6.87 3.05,-6.87 3.05,-14.50 20.98,0.00 3.05,14.50 3.05,6.87 -19.08,6.87" fill="#4ADE80" stroke="rgba(255,255,255,0.55)" stroke-width="1.2" /></g>
    <g transform="translate(362.28 196.40) rotate(-23.88)"><polygon points="0,-17.07 17.07,0 0,17.07 -17.07,0" fill="#A78BFA" stroke="rgba(255,255,255,0.55)" stroke-width="1.4" /></g>
  </g>
</svg>
