<svg xmlns="http://www.w3.org/2000/svg" width="960" height="600" viewBox="0 0 960 600">
  <defs>
    <linearGradient id="bg41" x1="0%" y1="0%" x2="100%" y2="100%">
      <stop offset="0%" stop-color="#0F172A" />
      <stop offset="100%" stop-color="#1D4ED8" />
    </linearGradient>
    <filter id="shadow41" x="-20%" y="-20%" width="140%" height="140%">
      <feDropShadow dx="0" dy="2" stdDeviation="1.8" flood-color="rgba(0,0,0,0.36)" />
    </filter>
  </defs>

  <rect width="960" height="600" fill="url(#bg41)" />
  <rect x="24" y="24" width="912" height="552" rx="20" fill="rgba(255,255,255,0.045)" stroke="rgba(255,255,255,0.22)" />
  <g filter="url(#shadow41)">
    <g transform="translate(909.25 194.11) rotate(19.57)"><circle cx="0" cy="0" r="20.78" fill="#A78BFA" stroke="rgba(255,255,255,0.55)" stroke-width="1.4" /></g>
    <g transform="translate(433.50 197.86) rotate(7.54)"><polygon points="0.00,-22.86 5.86,-8.07 21.75,-7.07 9.49,3.08 13.44,18.50 0.00,9.98 -13.44,18.50 -9.49,3.08 -21.75,-7.07 -5.86,-8.07" fill="#4ADE80" stroke="rgba(255,255,255,0.55)" stroke-width="1.4" /></g>
    <g transform="translate(367.81 402.48) rotate(-1.66)"><circle cx="0" cy="0" r="18.99" fill="#F97316" /><circle cx="7.60" cy="-0.76" r="15.95" fill="#0B1A34" /></g>
    <g transform="translate(435.16 324.97) rotate(-21.70)"><polygon points="0,-17.84 17.84,0 0,17.84 -17.84,0" fill="#A78BFA" stroke="rgba(255,255,255,0.55)" stroke-width="1.4" /></g>
    <g transform="translate(46.66 522.10) rotate(-1.75)"><rect x="-14.34" y="-4.23" width="28.67" height="8.45" rx="4.23" fill="#60A5FA" /><rect x="-4.23" y="-14.34" width="8.45" height="28.67" rx="4.23" fill="#60A5FA" /></g>
    <g transform="translate(681.41 469.32) rotate(-15.57)"><circle cx="0" cy="0" r="16.64" fill="#22D3EE" stroke="rgba(255,255,255,0.55)" stroke-width="1.4" /></g>
    <g transform="translate(447.80 468.82) rotate(24.04)"><rect x="-13.31" y="-3.92" width="26.63" height="7.85" rx="3.92" fill="#A78BFA" /><rect x="-3.92" y="-13.31" width="7.85" height="26.63" rx="3.92" fill="#A78BFA" /></g>
    <g transform="translate(133.82 398.50) rotate(-25.41)"><polygon points="0,-19.87 19.87,0 0,19.87 -19.87,0" fill="#34D399" stroke="rgba(255,255,255,0.55)" stroke-width="1.4" /></g>
    <g transform="translate(750.99 404.55) rotate(14.43)"><polygon points="0,-16.68 16.68,0 0,16.68 -16.68,0" fill="#F97316" stroke="rgba(255,255,255,0.55)" stroke-width="1.4" /></g>
    <g transform="translate(45.91 266.76) rotate(-7.84)"><circle cx="0" cy="0" r="15.62" fill="#22D3EE" /><circle cx="6.25" cy="-0.62" r="13.12" fill="#0B1A34" /></g>
    <g transform="translate(602.75 207.10) rotate(-18.09)"><polygon points="0.00,-16.93 4.34,-5.98 16.10,-5.23 7.03,2.28 9.95,13.70 0.00,7.39 -9.95,13.70 -7.03,2.28 -16.10,-5.23 -4.34,-5.98" fill="#FBBF24" stroke="rgba(255,255,255,0.55)" stroke-width="1.4" /></g>
    <g transform="translate(602.37 399.31) rotate(-21.60)"><polygon points="0.00,-19.19 4.92,-6.77 18.25,-5.93 7.96,2.59 11.28,15.52 0.00,8.37 -11.28,15.52 -7.96,2.59 -18.25,-5.93 -4.92,-6.77" fill="#F97316" stroke="rgba(255,255,255,0.55)" stroke-width="1.4" /></g>
    <g transform="translate(209.20 333.02) rotate(-25.85)"><circle cx="0" cy="0" r="17.75" fill="#C084FC" stroke="rgba(255,255,255,0.55)" stroke-width="1.4" /></g>
    <g transform="translate(358.04 456.58) rotate(-13.75)"><rect x="-16.92" y="-4.99" width="33.85" height="9.98" rx="4.99" fill="#C084FC" /><rect x="-4.99" y="-16.92" width="9.98" height="33.85" rx="4.99" fill="#C084FC" /></g>
    <g transform="translate(436.64 528.26) rotate(-7.21)"><circle cx="0" cy="0" r="19.94" fill="#F87171" stroke="rgba(255,255,255,0.55)" stroke-width="1.4" /></g>
    <g transform="translate(136.46 195.39) rotate(20.57)"><polygon points="0.00,-22.10 5.67,-7.80 21.02,-6.83 9.17,2.98 12.99,17.88 0.00,9.64 -12.99,17.88 -9.17,2.98 -21.02,-6.83 -5.67,-7.80" fill="#FBBF24" stroke="rgba(255,255,255,0.55)" stroke-width="1.4" /></g>
    <g transform="translate(675.04 528.67) rotate(-21.19)"><circle cx="0" cy="0" r="16.54" fill="#FB7185" stroke="rgba(255,255,255,0.55)" stroke-width="1.4" /></g>
    <g transform="translate(361.07 534.83) rotate(26.00)"><polygon points="0.00,-21.83 5.60,-7.71 20.76,-6.75 9.06,2.94 12.83,17.66 0.00,9.53 -12.83,17.66 -9.06,2.94 -20.76,-6.75 -5.60,-7.71" fill="#4ADE80" stroke="rgba(255,255,255,0.55)" stroke-width="1.4" /></g>
    <g transform="translate(355.79 268.42) rotate(23.81)"><polygon points="0.00,-21.86 5.61,-7.72 20.79,-6.75 9.07,2.95 12.85,17.68 0.00,9.54 -12.85,17.68 -9.07,2.95 -20.79,-6.75 -5.61,-7.72" fill="#FB7185" stroke="rgba(255,255,255,0.55)" stroke-width="1.4" /></g>
    <g transform="translate(517.10 524.29) rotate(16.05)"><polygon points="0,-20.13 20.13,0 0,20.13 -20.13,0" fill="#F97316" stroke="rgba(255,255,255,0.55)" stroke-width="1.4" /></g>
    <g transform="translate(523.59 328.47) rotate(1.46)"><circle cx="0" cy="0" r="18.41" fill="#C084FC" /><circle cx="7.36" cy="-0.74" r="15.46" fill="#0B1A34" /></g>
    <g transform="translate(750.29 327.15) rotate(-5.48)"><polygon points="0.00,-21.46 5.50,-7.57 20.41,-6.63 8.90,2.89 12.61,17.36 0.00,9.36 -12.61,17.36 -8.90,2.89 -20.41,-6.63 -5.50,-7.57" fill="#F87171" stroke="rgba(255,255,255,0.55)" stroke-width="1.4" /></g>
    <g transform="translate(911.43 67.74) rotate(-3.57)"><polygon points="0.00,-15.54 3.99,-5.49 14.78,-4.80 6.45,2.10 9.13,12.57 0.00,6.78 -9.13,12.57 -6.45,2.10 -14.78,-4.80 -3.99,-5.49" fill="#C084FC" stroke="rgba(255,255,255,0.55)" stroke-width="1.4" /></g>
    <g transform="translate(603.83 143.30) rotate(5.88)"><rect x="-13.76" y="-4.06" width="27.52" height="8.11" rx="4.06" fill="#F97316" /><rect x="-4.06" y="-13.76" width="8.11" height="27.52" rx="4.06" fill="#F97316" /></g>
    <g transform="translate(831.96 395.14) rotate(27.98)"><polygon points="0.00,-15.55 3.99,-5.49 14.79,-4.81 6.45,2.10 9.14,12.58 0.00,6.79 -9.14,12.58 -6.45,2.10 -14.79,-4.81 -3.99,-5.49" fill="#60A5FA" stroke="rgba(255,255,255,0.55)" stroke-width="1.4" /></g>
    <g transform="translate(124.72 529.76) rotate(-0.67)"><circle cx="0" cy="0" r="17.12" fill="#34D399" /><circle cx="6.85" cy="-0.68" r="14.38" fill="#0B1A34" /></g>
    <g transform="translate(823.76 203.70) rotate(16.16)"><polygon points="0.00,-20.23 5.19,-7.14 19.24,-6.25 8.39,2.73 11.89,16.36 0.00,8.83 -11.89,16.36 -8.39,2.73 -19.24,-6.25 -5.19,-7.14" fill="#FB7185" stroke="rgba(255,255,255,0.55)" stroke-width="1.4" /></g>
    <g transform="translate(512.76 75.29) rotate(25.29)"><rect x="-16.72" y="-4.93" width="33.44" height="9.86" rx="4.93" fill="#4ADE80" /><rect x="-4.93" y="-16.72" width="9.86" height="33.44" rx="4.93" fill="#4ADE80" /></g>
    <g transform="translate(674.90 63.21) rotate(0.82)"><circle cx="0" cy="0" r="19.94" fill="#60A5FA" /><circle cx="7.98" cy="-0.80" r="16.75" fill="#0B1A34" /></g>
    <g transform="translate(675.29 128.77) rotate(-24.25)"><circle cx="0" cy="0" r="19.82" fill="#22D3EE" stroke="rgba(255,255,255,0.55)" stroke-width="1.4" /></g>
  </g>
</svg>
